<?xml version="1.0" encoding="UTF-8" standalone="no"?>
<!DOCTYPE svg PUBLIC "-//W3C//DTD SVG 1.1//EN" "http://www.w3.org/Graphics/SVG/1.1/DTD/svg11.dtd">
<svg width="100%" height="100%" viewBox="0 0 1009 154" version="1.1" xmlns="http://www.w3.org/2000/svg" xmlns:xlink="http://www.w3.org/1999/xlink" xml:space="preserve" xmlns:serif="http://www.serif.com/" style="fill-rule:evenodd;clip-rule:evenodd;stroke-linecap:round;stroke-linejoin:round;stroke-miterlimit:1.5;">
    <g transform="matrix(1,0,0,1,-1691.35,-2034.02)">
        <g transform="matrix(0.896818,0,0,0.244044,1141.49,1918.23)">
            <rect x="613.687" y="476.516" width="1122.88" height="625.508" style="fill:rgb(204,204,204);stroke:white;stroke-width:1.52px;"/>
        </g>
        <g transform="matrix(0.454572,0,0,1,1009.16,669.521)">
            <rect x="1883.82" y="1414.49" width="20.639" height="17.792" style="fill:rgb(63,97,0);"/>
        </g>
        <g transform="matrix(0.454572,0,0,1,1423.11,669.521)">
            <rect x="1883.82" y="1414.49" width="20.639" height="17.792" style="fill:rgb(29,29,29);"/>
        </g>
        <g transform="matrix(0.454572,0,0,1,1212.11,669.521)">
            <rect x="1883.82" y="1414.49" width="20.639" height="17.792" style="fill:rgb(29,29,29);"/>
        </g>
        <g transform="matrix(0.454572,0,0,1,1626.06,669.521)">
            <rect x="1883.82" y="1414.49" width="20.639" height="17.792" style="fill:rgb(29,29,29);"/>
        </g>
        <g transform="matrix(0.454572,0,0,1,1110.87,669.521)">
            <rect x="1883.82" y="1414.49" width="20.639" height="17.792" style="fill:rgb(104,0,90);"/>
        </g>
        <g transform="matrix(0.454572,0,0,1,1524.82,669.521)">
            <rect x="1883.82" y="1414.49" width="20.639" height="17.792" style="fill:rgb(29,29,29);"/>
        </g>
        <g transform="matrix(0.454572,0,0,1,1313.82,669.521)">
            <rect x="1883.82" y="1414.49" width="20.639" height="17.792" style="fill:rgb(29,29,29);"/>
        </g>
        <g transform="matrix(0.454572,0,0,1,1727.77,669.521)">
            <rect x="1883.82" y="1414.49" width="20.639" height="17.792" style="fill:rgb(29,29,29);"/>
        </g>
        <g transform="matrix(0.454572,0,0,1,1021.27,669.521)">
            <rect x="1883.82" y="1414.49" width="20.639" height="17.792" style="fill:rgb(63,97,0);"/>
        </g>
        <g transform="matrix(0.454572,0,0,1,1435.21,669.521)">
            <rect x="1883.82" y="1414.49" width="20.639" height="17.792" style="fill:rgb(29,29,29);"/>
        </g>
        <g transform="matrix(0.454572,0,0,1,1224.22,669.521)">
            <rect x="1883.82" y="1414.49" width="20.639" height="17.792" style="fill:rgb(29,29,29);"/>
        </g>
        <g transform="matrix(0.454572,0,0,1,1638.17,669.521)">
            <rect x="1883.82" y="1414.49" width="20.639" height="17.792" style="fill:rgb(29,29,29);"/>
        </g>
        <g transform="matrix(0.454572,0,0,1,1122.98,669.521)">
            <rect x="1883.82" y="1414.49" width="20.639" height="17.792" style="fill:rgb(104,0,90);"/>
        </g>
        <g transform="matrix(0.454572,0,0,1,1536.93,669.521)">
            <rect x="1883.82" y="1414.49" width="20.639" height="17.792" style="fill:rgb(29,29,29);"/>
        </g>
        <g transform="matrix(0.454572,0,0,1,1325.93,669.521)">
            <rect x="1883.82" y="1414.49" width="20.639" height="17.792" style="fill:rgb(29,29,29);"/>
        </g>
        <g transform="matrix(0.454572,0,0,1,1739.88,669.521)">
            <rect x="1883.82" y="1414.49" width="20.639" height="17.792" style="fill:rgb(29,29,29);"/>
        </g>
        <g transform="matrix(0.454572,0,0,1,1033.38,669.521)">
            <rect x="1883.82" y="1414.49" width="20.639" height="17.792" style="fill:rgb(63,97,0);"/>
        </g>
        <g transform="matrix(0.454572,0,0,1,1447.32,669.521)">
            <rect x="1883.82" y="1414.49" width="20.639" height="17.792" style="fill:rgb(29,29,29);"/>
        </g>
        <g transform="matrix(0.454572,0,0,1,1236.33,669.521)">
            <rect x="1883.82" y="1414.49" width="20.639" height="17.792" style="fill:rgb(29,29,29);"/>
        </g>
        <g transform="matrix(0.454572,0,0,1,1650.27,669.521)">
            <rect x="1883.82" y="1414.49" width="20.639" height="17.792" style="fill:rgb(29,29,29);"/>
        </g>
        <g transform="matrix(0.454572,0,0,1,1135.09,669.521)">
            <rect x="1883.82" y="1414.49" width="20.639" height="17.792" style="fill:rgb(104,0,90);"/>
        </g>
        <g transform="matrix(0.454572,0,0,1,1549.03,669.521)">
            <rect x="1883.82" y="1414.49" width="20.639" height="17.792" style="fill:rgb(29,29,29);"/>
        </g>
        <g transform="matrix(0.454572,0,0,1,1338.04,669.521)">
            <rect x="1883.82" y="1414.49" width="20.639" height="17.792" style="fill:rgb(29,29,29);"/>
        </g>
        <g transform="matrix(0.454572,0,0,1,1751.99,669.521)">
            <rect x="1883.82" y="1414.49" width="20.639" height="17.792" style="fill:rgb(29,29,29);"/>
        </g>
        <g transform="matrix(0.454572,0,0,1,1045.49,669.521)">
            <rect x="1883.82" y="1414.49" width="20.639" height="17.792" style="fill:rgb(63,97,0);"/>
        </g>
        <g transform="matrix(0.454572,0,0,1,1459.43,669.521)">
            <rect x="1883.82" y="1414.49" width="20.639" height="17.792" style="fill:rgb(29,29,29);"/>
        </g>
        <g transform="matrix(0.454572,0,0,1,1248.44,669.521)">
            <rect x="1883.82" y="1414.49" width="20.639" height="17.792" style="fill:rgb(29,29,29);"/>
        </g>
        <g transform="matrix(0.454572,0,0,1,1662.38,669.521)">
            <rect x="1883.82" y="1414.49" width="20.639" height="17.792" style="fill:rgb(29,29,29);"/>
        </g>
        <g transform="matrix(0.454572,0,0,1,1147.2,669.521)">
            <rect x="1883.82" y="1414.49" width="20.639" height="17.792" style="fill:rgb(104,0,90);"/>
        </g>
        <g transform="matrix(0.454572,0,0,1,1561.14,669.521)">
            <rect x="1883.82" y="1414.49" width="20.639" height="17.792" style="fill:rgb(29,29,29);"/>
        </g>
        <g transform="matrix(0.454572,0,0,1,1350.15,669.521)">
            <rect x="1883.82" y="1414.49" width="20.639" height="17.792" style="fill:rgb(29,29,29);"/>
        </g>
        <g transform="matrix(0.454572,0,0,1,1764.09,669.521)">
            <rect x="1883.82" y="1414.49" width="20.639" height="17.792" style="fill:rgb(29,29,29);"/>
        </g>
        <g transform="matrix(0.454572,0,0,1,1057.6,669.521)">
            <rect x="1883.82" y="1414.49" width="20.639" height="17.792" style="fill:rgb(184,255,49);"/>
        </g>
        <g transform="matrix(0.454572,0,0,1,1471.54,669.521)">
            <rect x="1883.82" y="1414.49" width="20.639" height="17.792" style="fill:rgb(29,29,29);"/>
        </g>
        <g transform="matrix(0.454572,0,0,1,1260.55,669.521)">
            <rect x="1883.82" y="1414.49" width="20.639" height="17.792" style="fill:rgb(29,29,29);"/>
        </g>
        <g transform="matrix(0.454572,0,0,1,1674.49,669.521)">
            <rect x="1883.82" y="1414.49" width="20.639" height="17.792" style="fill:rgb(29,29,29);"/>
        </g>
        <g transform="matrix(0.454572,0,0,1,1159.31,669.521)">
            <rect x="1883.82" y="1414.49" width="20.639" height="17.792" style="fill:rgb(104,0,90);"/>
        </g>
        <g transform="matrix(0.454572,0,0,1,1573.25,669.521)">
            <rect x="1883.82" y="1414.49" width="20.639" height="17.792" style="fill:rgb(29,29,29);"/>
        </g>
        <g transform="matrix(0.454572,0,0,1,1362.26,669.521)">
            <rect x="1883.82" y="1414.49" width="20.639" height="17.792" style="fill:rgb(29,29,29);"/>
        </g>
        <g transform="matrix(0.454572,0,0,1,1776.2,669.521)">
            <rect x="1883.82" y="1414.49" width="20.639" height="17.792" style="fill:rgb(29,29,29);"/>
        </g>
        <g transform="matrix(0.454572,0,0,1,1081.81,669.521)">
            <rect x="1883.82" y="1414.49" width="20.639" height="17.792" style="fill:rgb(0,103,165);"/>
        </g>
        <g transform="matrix(0.454572,0,0,1,1495.76,669.521)">
            <rect x="1883.82" y="1414.49" width="20.639" height="17.792" style="fill:rgb(29,29,29);"/>
        </g>
        <g transform="matrix(0.454572,0,0,1,1284.76,669.521)">
            <rect x="1883.82" y="1414.49" width="20.639" height="17.792" style="fill:rgb(29,29,29);"/>
        </g>
        <g transform="matrix(0.454572,0,0,1,1698.71,669.521)">
            <rect x="1883.82" y="1414.49" width="20.639" height="17.792" style="fill:rgb(29,29,29);"/>
        </g>
        <g transform="matrix(0.454572,0,0,1,1183.53,669.521)">
            <rect x="1883.82" y="1414.49" width="20.639" height="17.792" style="fill:rgb(104,0,90);"/>
        </g>
        <g transform="matrix(0.454572,0,0,1,1597.47,669.521)">
            <rect x="1883.82" y="1414.49" width="20.639" height="17.792" style="fill:rgb(29,29,29);"/>
        </g>
        <g transform="matrix(0.454572,0,0,1,1386.48,669.521)">
            <rect x="1883.82" y="1414.49" width="20.639" height="17.792" style="fill:rgb(29,29,29);"/>
        </g>
        <g transform="matrix(0.454572,0,0,1,1800.42,669.521)">
            <rect x="1883.82" y="1414.49" width="20.639" height="17.792" style="fill:rgb(29,29,29);"/>
        </g>
        <g transform="matrix(0.454572,0,0,1,1069.71,669.521)">
            <rect x="1883.82" y="1414.49" width="20.639" height="17.792" style="fill:rgb(0,103,165);"/>
        </g>
        <g transform="matrix(0.454572,0,0,1,1483.65,669.521)">
            <rect x="1883.82" y="1414.49" width="20.639" height="17.792" style="fill:rgb(29,29,29);"/>
        </g>
        <g transform="matrix(0.454572,0,0,1,1272.66,669.521)">
            <rect x="1883.82" y="1414.49" width="20.639" height="17.792" style="fill:rgb(29,29,29);"/>
        </g>
        <g transform="matrix(0.454572,0,0,1,1686.6,669.521)">
            <rect x="1883.82" y="1414.49" width="20.639" height="17.792" style="fill:rgb(29,29,29);"/>
        </g>
        <g transform="matrix(0.454572,0,0,1,1171.42,669.521)">
            <rect x="1883.82" y="1414.49" width="20.639" height="17.792" style="fill:rgb(104,0,90);"/>
        </g>
        <g transform="matrix(0.454572,0,0,1,1585.36,669.521)">
            <rect x="1883.82" y="1414.49" width="20.639" height="17.792" style="fill:rgb(29,29,29);"/>
        </g>
        <g transform="matrix(0.454572,0,0,1,1374.37,669.521)">
            <rect x="1883.82" y="1414.49" width="20.639" height="17.792" style="fill:rgb(29,29,29);"/>
        </g>
        <g transform="matrix(0.454572,0,0,1,1788.31,669.521)">
            <rect x="1883.82" y="1414.49" width="20.639" height="17.792" style="fill:rgb(29,29,29);"/>
        </g>
        <g transform="matrix(0.454572,0,0,1,1093.92,669.521)">
            <rect x="1883.82" y="1414.49" width="20.639" height="17.792" style="fill:rgb(104,0,90);"/>
        </g>
        <g transform="matrix(0.454572,0,0,1,1507.87,669.521)">
            <rect x="1883.82" y="1414.49" width="20.639" height="17.792" style="fill:rgb(29,29,29);"/>
        </g>
        <g transform="matrix(0.454572,0,0,1,1296.87,669.521)">
            <rect x="1883.82" y="1414.49" width="20.639" height="17.792" style="fill:rgb(29,29,29);"/>
        </g>
        <g transform="matrix(0.454572,0,0,1,1710.82,669.521)">
            <rect x="1883.82" y="1414.49" width="20.639" height="17.792" style="fill:rgb(29,29,29);"/>
        </g>
        <g transform="matrix(0.454572,0,0,1,1195.63,669.521)">
            <rect x="1883.82" y="1414.49" width="20.639" height="17.792" style="fill:rgb(255,173,244);"/>
        </g>
        <g transform="matrix(0.454572,0,0,1,1609.58,669.521)">
            <rect x="1883.82" y="1414.49" width="20.639" height="17.792" style="fill:rgb(29,29,29);"/>
        </g>
        <g transform="matrix(0.454572,0,0,1,1398.59,669.521)">
            <rect x="1883.82" y="1414.49" width="20.639" height="17.792" style="fill:rgb(29,29,29);"/>
        </g>
        <g transform="matrix(0.454572,0,0,1,1812.53,669.521)">
            <rect x="1883.82" y="1414.49" width="20.639" height="17.792" style="fill:rgb(29,29,29);"/>
        </g>
        <g transform="matrix(0.660459,0,0,0.660459,626.983,729.114)">
            <g transform="matrix(27.8284,0,0,27.8284,1894.93,2156.79)">
                <rect x="0.105" y="-0.717" width="0.097" height="0.717" style="fill-rule:nonzero;"/>
            </g>
            <g transform="matrix(27.8284,0,0,27.8284,1903.47,2156.79)">
                <path d="M0.244,-0.515C0.266,-0.515 0.286,-0.513 0.305,-0.508C0.324,-0.503 0.342,-0.496 0.358,-0.487L0.495,-0.487L0.495,-0.454C0.495,-0.443 0.488,-0.436 0.474,-0.433L0.417,-0.425C0.428,-0.403 0.434,-0.379 0.434,-0.352C0.434,-0.327 0.429,-0.305 0.419,-0.285C0.41,-0.265 0.397,-0.247 0.38,-0.233C0.363,-0.219 0.343,-0.208 0.32,-0.2C0.297,-0.192 0.271,-0.189 0.244,-0.189C0.22,-0.189 0.198,-0.191 0.177,-0.197C0.166,-0.19 0.158,-0.183 0.152,-0.176C0.147,-0.168 0.144,-0.16 0.144,-0.153C0.144,-0.141 0.149,-0.132 0.159,-0.126C0.168,-0.12 0.181,-0.115 0.197,-0.113C0.213,-0.11 0.231,-0.108 0.252,-0.108C0.272,-0.107 0.293,-0.106 0.314,-0.104C0.335,-0.103 0.356,-0.1 0.376,-0.097C0.396,-0.093 0.415,-0.087 0.431,-0.079C0.447,-0.07 0.459,-0.059 0.469,-0.044C0.479,-0.029 0.484,-0.01 0.484,0.013C0.484,0.035 0.478,0.056 0.467,0.076C0.456,0.096 0.441,0.114 0.421,0.13C0.4,0.146 0.375,0.159 0.346,0.168C0.317,0.178 0.284,0.183 0.247,0.183C0.21,0.183 0.177,0.179 0.149,0.172C0.121,0.164 0.098,0.154 0.08,0.142C0.062,0.13 0.048,0.115 0.039,0.099C0.029,0.083 0.025,0.066 0.025,0.049C0.025,0.024 0.033,0.002 0.049,-0.015C0.065,-0.033 0.086,-0.047 0.114,-0.057C0.1,-0.064 0.088,-0.073 0.08,-0.084C0.071,-0.095 0.067,-0.11 0.067,-0.129C0.067,-0.136 0.068,-0.143 0.071,-0.151C0.074,-0.159 0.078,-0.167 0.083,-0.175C0.089,-0.182 0.095,-0.19 0.104,-0.197C0.112,-0.204 0.121,-0.21 0.132,-0.215C0.107,-0.229 0.087,-0.248 0.073,-0.271C0.058,-0.294 0.052,-0.321 0.052,-0.352C0.052,-0.377 0.056,-0.399 0.066,-0.419C0.075,-0.439 0.089,-0.456 0.106,-0.471C0.123,-0.485 0.143,-0.496 0.166,-0.504C0.19,-0.511 0.216,-0.515 0.244,-0.515ZM0.402,0.028C0.402,0.015 0.398,0.005 0.391,-0.003C0.384,-0.011 0.375,-0.017 0.363,-0.021C0.351,-0.025 0.337,-0.028 0.321,-0.03C0.305,-0.032 0.289,-0.033 0.272,-0.034C0.254,-0.035 0.237,-0.036 0.219,-0.037C0.201,-0.038 0.183,-0.04 0.167,-0.043C0.148,-0.034 0.133,-0.023 0.121,-0.01C0.109,0.004 0.103,0.019 0.103,0.037C0.103,0.048 0.106,0.059 0.112,0.069C0.117,0.079 0.127,0.087 0.139,0.094C0.151,0.101 0.166,0.107 0.184,0.111C0.202,0.115 0.223,0.118 0.248,0.118C0.272,0.118 0.294,0.115 0.313,0.111C0.332,0.107 0.347,0.1 0.361,0.093C0.374,0.085 0.384,0.075 0.391,0.064C0.398,0.053 0.402,0.041 0.402,0.028ZM0.244,-0.248C0.262,-0.247 0.277,-0.25 0.291,-0.255C0.305,-0.26 0.317,-0.267 0.326,-0.276C0.335,-0.285 0.342,-0.296 0.347,-0.308C0.352,-0.321 0.354,-0.335 0.354,-0.35C0.354,-0.381 0.345,-0.405 0.326,-0.424C0.307,-0.442 0.28,-0.451 0.244,-0.451C0.208,-0.451 0.181,-0.442 0.162,-0.424C0.143,-0.405 0.134,-0.381 0.134,-0.35C0.134,-0.335 0.136,-0.321 0.141,-0.308C0.146,-0.296 0.153,-0.285 0.162,-0.276C0.171,-0.267 0.183,-0.26 0.197,-0.255C0.21,-0.25 0.226,-0.247 0.244,-0.248Z" style="fill-rule:nonzero;"/>
            </g>
            <g transform="matrix(27.8284,0,0,27.8284,1917.69,2156.79)">
                <path d="M0.073,-0L0.073,-0.507L0.126,-0.507C0.139,-0.507 0.147,-0.5 0.15,-0.488L0.157,-0.433C0.179,-0.457 0.204,-0.477 0.231,-0.492C0.258,-0.507 0.289,-0.515 0.325,-0.515C0.353,-0.515 0.377,-0.51 0.398,-0.501C0.419,-0.492 0.437,-0.478 0.451,-0.462C0.465,-0.445 0.476,-0.425 0.484,-0.401C0.491,-0.377 0.495,-0.351 0.495,-0.323L0.495,-0L0.406,-0L0.406,-0.323C0.406,-0.361 0.397,-0.391 0.379,-0.412C0.362,-0.433 0.335,-0.444 0.299,-0.444C0.273,-0.444 0.248,-0.437 0.225,-0.425C0.202,-0.412 0.181,-0.395 0.162,-0.373L0.162,-0L0.073,-0Z" style="fill-rule:nonzero;"/>
            </g>
            <g transform="matrix(27.8284,0,0,27.8284,1933.16,2156.79)">
                <path d="M0.278,-0.515C0.315,-0.515 0.348,-0.508 0.378,-0.496C0.408,-0.484 0.433,-0.466 0.454,-0.444C0.475,-0.421 0.491,-0.393 0.502,-0.361C0.513,-0.329 0.519,-0.293 0.519,-0.254C0.519,-0.214 0.513,-0.178 0.502,-0.146C0.491,-0.114 0.475,-0.086 0.454,-0.064C0.433,-0.041 0.408,-0.023 0.378,-0.011C0.348,0.001 0.315,0.007 0.278,0.007C0.241,0.007 0.208,0.001 0.178,-0.011C0.148,-0.023 0.123,-0.041 0.102,-0.064C0.081,-0.086 0.064,-0.114 0.053,-0.146C0.042,-0.178 0.036,-0.214 0.036,-0.254C0.036,-0.293 0.042,-0.329 0.053,-0.361C0.064,-0.393 0.081,-0.421 0.102,-0.444C0.123,-0.466 0.148,-0.484 0.178,-0.496C0.208,-0.508 0.241,-0.515 0.278,-0.515ZM0.278,-0.063C0.328,-0.063 0.365,-0.079 0.39,-0.113C0.415,-0.146 0.427,-0.193 0.427,-0.253C0.427,-0.313 0.415,-0.36 0.39,-0.394C0.365,-0.428 0.328,-0.444 0.278,-0.445C0.253,-0.444 0.231,-0.44 0.212,-0.432C0.193,-0.423 0.178,-0.41 0.165,-0.394C0.153,-0.378 0.143,-0.358 0.137,-0.334C0.131,-0.31 0.128,-0.283 0.128,-0.253C0.128,-0.223 0.131,-0.196 0.137,-0.173C0.143,-0.149 0.153,-0.129 0.165,-0.113C0.178,-0.096 0.193,-0.084 0.212,-0.076C0.231,-0.067 0.253,-0.063 0.278,-0.063Z" style="fill-rule:nonzero;"/>
            </g>
            <g transform="matrix(27.8284,0,0,27.8284,1948.63,2156.79)">
                <path d="M0.073,-0L0.073,-0.507L0.124,-0.507C0.134,-0.507 0.14,-0.505 0.144,-0.501C0.148,-0.497 0.15,-0.491 0.152,-0.482L0.158,-0.403C0.175,-0.438 0.196,-0.466 0.222,-0.486C0.247,-0.505 0.277,-0.516 0.312,-0.516C0.326,-0.516 0.338,-0.514 0.35,-0.511C0.361,-0.507 0.371,-0.503 0.381,-0.498L0.37,-0.431C0.367,-0.423 0.362,-0.419 0.354,-0.419C0.349,-0.419 0.342,-0.42 0.333,-0.423C0.323,-0.426 0.309,-0.428 0.292,-0.428C0.261,-0.428 0.235,-0.419 0.214,-0.401C0.193,-0.383 0.176,-0.357 0.162,-0.323L0.162,-0L0.073,-0Z" style="fill-rule:nonzero;"/>
            </g>
            <g transform="matrix(27.8284,0,0,27.8284,1959.85,2156.79)">
                <path d="M0.274,-0.515C0.304,-0.515 0.332,-0.509 0.358,-0.499C0.383,-0.489 0.405,-0.474 0.424,-0.455C0.443,-0.436 0.457,-0.412 0.468,-0.384C0.478,-0.356 0.484,-0.324 0.484,-0.288C0.484,-0.274 0.482,-0.265 0.479,-0.26C0.476,-0.255 0.47,-0.253 0.462,-0.253L0.125,-0.253C0.126,-0.221 0.13,-0.193 0.138,-0.17C0.146,-0.146 0.157,-0.126 0.171,-0.11C0.185,-0.094 0.202,-0.083 0.221,-0.075C0.24,-0.067 0.262,-0.063 0.286,-0.063C0.308,-0.063 0.328,-0.066 0.344,-0.071C0.36,-0.076 0.374,-0.082 0.386,-0.088C0.397,-0.094 0.407,-0.099 0.415,-0.104C0.423,-0.109 0.429,-0.112 0.435,-0.112C0.442,-0.112 0.448,-0.109 0.452,-0.104L0.477,-0.071C0.466,-0.058 0.453,-0.046 0.438,-0.036C0.422,-0.026 0.406,-0.018 0.388,-0.012C0.371,-0.006 0.353,-0.001 0.334,0.002C0.315,0.005 0.297,0.007 0.279,0.007C0.244,0.007 0.211,0.001 0.182,-0.011C0.152,-0.023 0.127,-0.04 0.105,-0.063C0.084,-0.086 0.067,-0.114 0.055,-0.148C0.043,-0.181 0.037,-0.22 0.037,-0.264C0.037,-0.299 0.042,-0.332 0.053,-0.363C0.064,-0.393 0.08,-0.42 0.1,-0.442C0.12,-0.465 0.145,-0.482 0.175,-0.495C0.204,-0.508 0.237,-0.515 0.274,-0.515ZM0.276,-0.449C0.233,-0.449 0.199,-0.437 0.174,-0.412C0.149,-0.387 0.134,-0.353 0.128,-0.309L0.404,-0.309C0.404,-0.329 0.401,-0.348 0.395,-0.365C0.389,-0.382 0.381,-0.397 0.37,-0.41C0.359,-0.422 0.345,-0.432 0.33,-0.439C0.314,-0.446 0.296,-0.449 0.276,-0.449Z" style="fill-rule:nonzero;"/>
            </g>
            <g transform="matrix(27.8284,0,0,27.8284,1979.8,2156.79)">
                <path d="M0.087,-0L0.087,-0.717L0.316,-0.717C0.36,-0.717 0.397,-0.712 0.429,-0.704C0.461,-0.695 0.487,-0.683 0.508,-0.667C0.528,-0.651 0.543,-0.631 0.553,-0.608C0.563,-0.585 0.568,-0.559 0.568,-0.53C0.568,-0.512 0.565,-0.495 0.56,-0.479C0.554,-0.462 0.546,-0.447 0.535,-0.433C0.524,-0.419 0.509,-0.407 0.493,-0.396C0.476,-0.385 0.456,-0.376 0.434,-0.369C0.486,-0.358 0.525,-0.339 0.552,-0.312C0.579,-0.285 0.592,-0.249 0.592,-0.204C0.592,-0.174 0.586,-0.146 0.575,-0.121C0.564,-0.096 0.548,-0.075 0.526,-0.057C0.505,-0.039 0.478,-0.025 0.447,-0.015C0.416,-0.005 0.381,-0 0.341,-0L0.087,-0ZM0.184,-0.327L0.184,-0.077L0.339,-0.077C0.367,-0.077 0.39,-0.08 0.41,-0.087C0.43,-0.093 0.446,-0.102 0.459,-0.113C0.472,-0.125 0.482,-0.138 0.488,-0.154C0.494,-0.17 0.497,-0.188 0.497,-0.207C0.497,-0.244 0.483,-0.273 0.457,-0.294C0.431,-0.316 0.392,-0.327 0.339,-0.327L0.184,-0.327ZM0.184,-0.396L0.312,-0.396C0.339,-0.396 0.363,-0.399 0.383,-0.405C0.403,-0.411 0.42,-0.419 0.433,-0.43C0.446,-0.44 0.456,-0.453 0.462,-0.468C0.468,-0.483 0.472,-0.5 0.472,-0.518C0.472,-0.56 0.459,-0.591 0.434,-0.611C0.408,-0.63 0.369,-0.64 0.316,-0.64L0.184,-0.64L0.184,-0.396Z" style="fill-rule:nonzero;"/>
            </g>
            <g transform="matrix(27.8284,0,0,27.8284,1997.81,2156.79)">
                <path d="M0.172,-0.507L0.172,-0L0.083,-0L0.083,-0.507L0.172,-0.507ZM0.192,-0.666C0.192,-0.657 0.19,-0.649 0.187,-0.641C0.183,-0.634 0.179,-0.627 0.173,-0.621C0.167,-0.615 0.16,-0.611 0.153,-0.608C0.145,-0.604 0.137,-0.603 0.128,-0.603C0.119,-0.603 0.111,-0.604 0.104,-0.608C0.096,-0.611 0.09,-0.615 0.084,-0.621C0.078,-0.627 0.073,-0.634 0.07,-0.641C0.067,-0.649 0.065,-0.657 0.065,-0.666C0.065,-0.674 0.067,-0.682 0.07,-0.69C0.073,-0.698 0.078,-0.705 0.084,-0.711C0.09,-0.717 0.096,-0.721 0.104,-0.725C0.111,-0.728 0.119,-0.73 0.128,-0.73C0.137,-0.73 0.145,-0.728 0.153,-0.725C0.16,-0.721 0.167,-0.717 0.173,-0.711C0.179,-0.705 0.183,-0.698 0.187,-0.69C0.19,-0.682 0.192,-0.674 0.192,-0.666Z" style="fill-rule:nonzero;"/>
            </g>
            <g transform="matrix(27.8284,0,0,27.8284,2004.93,2156.79)">
                <path d="M0.227,0.008C0.187,0.008 0.156,-0.003 0.134,-0.026C0.113,-0.048 0.102,-0.08 0.102,-0.122L0.102,-0.432L0.041,-0.432C0.036,-0.432 0.031,-0.434 0.028,-0.437C0.024,-0.44 0.022,-0.445 0.022,-0.452L0.022,-0.487L0.105,-0.498L0.126,-0.654C0.126,-0.659 0.128,-0.663 0.132,-0.666C0.136,-0.669 0.14,-0.671 0.146,-0.671L0.191,-0.671L0.191,-0.497L0.336,-0.497L0.336,-0.432L0.191,-0.432L0.191,-0.128C0.191,-0.107 0.196,-0.091 0.207,-0.081C0.217,-0.07 0.23,-0.065 0.247,-0.065C0.256,-0.065 0.264,-0.066 0.271,-0.069C0.278,-0.071 0.284,-0.074 0.289,-0.077C0.294,-0.08 0.298,-0.083 0.301,-0.085C0.305,-0.088 0.308,-0.089 0.311,-0.089C0.315,-0.089 0.319,-0.086 0.323,-0.081L0.349,-0.038C0.334,-0.024 0.315,-0.012 0.294,-0.004C0.272,0.004 0.25,0.008 0.227,0.008Z" style="fill-rule:nonzero;"/>
            </g>
        </g>
        <g transform="matrix(0.660459,0,0,0.660459,765.449,729.114)">
            <g transform="matrix(27.8284,0,0,27.8284,1894.93,2156.79)">
                <rect x="0.105" y="-0.717" width="0.097" height="0.717" style="fill-rule:nonzero;"/>
            </g>
            <g transform="matrix(27.8284,0,0,27.8284,1903.47,2156.79)">
                <path d="M0.244,-0.515C0.266,-0.515 0.286,-0.513 0.305,-0.508C0.324,-0.503 0.342,-0.496 0.358,-0.487L0.495,-0.487L0.495,-0.454C0.495,-0.443 0.488,-0.436 0.474,-0.433L0.417,-0.425C0.428,-0.403 0.434,-0.379 0.434,-0.352C0.434,-0.327 0.429,-0.305 0.419,-0.285C0.41,-0.265 0.397,-0.247 0.38,-0.233C0.363,-0.219 0.343,-0.208 0.32,-0.2C0.297,-0.192 0.271,-0.189 0.244,-0.189C0.22,-0.189 0.198,-0.191 0.177,-0.197C0.166,-0.19 0.158,-0.183 0.152,-0.176C0.147,-0.168 0.144,-0.16 0.144,-0.153C0.144,-0.141 0.149,-0.132 0.159,-0.126C0.168,-0.12 0.181,-0.115 0.197,-0.113C0.213,-0.11 0.231,-0.108 0.252,-0.108C0.272,-0.107 0.293,-0.106 0.314,-0.104C0.335,-0.103 0.356,-0.1 0.376,-0.097C0.396,-0.093 0.415,-0.087 0.431,-0.079C0.447,-0.07 0.459,-0.059 0.469,-0.044C0.479,-0.029 0.484,-0.01 0.484,0.013C0.484,0.035 0.478,0.056 0.467,0.076C0.456,0.096 0.441,0.114 0.421,0.13C0.4,0.146 0.375,0.159 0.346,0.168C0.317,0.178 0.284,0.183 0.247,0.183C0.21,0.183 0.177,0.179 0.149,0.172C0.121,0.164 0.098,0.154 0.08,0.142C0.062,0.13 0.048,0.115 0.039,0.099C0.029,0.083 0.025,0.066 0.025,0.049C0.025,0.024 0.033,0.002 0.049,-0.015C0.065,-0.033 0.086,-0.047 0.114,-0.057C0.1,-0.064 0.088,-0.073 0.08,-0.084C0.071,-0.095 0.067,-0.11 0.067,-0.129C0.067,-0.136 0.068,-0.143 0.071,-0.151C0.074,-0.159 0.078,-0.167 0.083,-0.175C0.089,-0.182 0.095,-0.19 0.104,-0.197C0.112,-0.204 0.121,-0.21 0.132,-0.215C0.107,-0.229 0.087,-0.248 0.073,-0.271C0.058,-0.294 0.052,-0.321 0.052,-0.352C0.052,-0.377 0.056,-0.399 0.066,-0.419C0.075,-0.439 0.089,-0.456 0.106,-0.471C0.123,-0.485 0.143,-0.496 0.166,-0.504C0.19,-0.511 0.216,-0.515 0.244,-0.515ZM0.402,0.028C0.402,0.015 0.398,0.005 0.391,-0.003C0.384,-0.011 0.375,-0.017 0.363,-0.021C0.351,-0.025 0.337,-0.028 0.321,-0.03C0.305,-0.032 0.289,-0.033 0.272,-0.034C0.254,-0.035 0.237,-0.036 0.219,-0.037C0.201,-0.038 0.183,-0.04 0.167,-0.043C0.148,-0.034 0.133,-0.023 0.121,-0.01C0.109,0.004 0.103,0.019 0.103,0.037C0.103,0.048 0.106,0.059 0.112,0.069C0.117,0.079 0.127,0.087 0.139,0.094C0.151,0.101 0.166,0.107 0.184,0.111C0.202,0.115 0.223,0.118 0.248,0.118C0.272,0.118 0.294,0.115 0.313,0.111C0.332,0.107 0.347,0.1 0.361,0.093C0.374,0.085 0.384,0.075 0.391,0.064C0.398,0.053 0.402,0.041 0.402,0.028ZM0.244,-0.248C0.262,-0.247 0.277,-0.25 0.291,-0.255C0.305,-0.26 0.317,-0.267 0.326,-0.276C0.335,-0.285 0.342,-0.296 0.347,-0.308C0.352,-0.321 0.354,-0.335 0.354,-0.35C0.354,-0.381 0.345,-0.405 0.326,-0.424C0.307,-0.442 0.28,-0.451 0.244,-0.451C0.208,-0.451 0.181,-0.442 0.162,-0.424C0.143,-0.405 0.134,-0.381 0.134,-0.35C0.134,-0.335 0.136,-0.321 0.141,-0.308C0.146,-0.296 0.153,-0.285 0.162,-0.276C0.171,-0.267 0.183,-0.26 0.197,-0.255C0.21,-0.25 0.226,-0.247 0.244,-0.248Z" style="fill-rule:nonzero;"/>
            </g>
            <g transform="matrix(27.8284,0,0,27.8284,1917.69,2156.79)">
                <path d="M0.073,-0L0.073,-0.507L0.126,-0.507C0.139,-0.507 0.147,-0.5 0.15,-0.488L0.157,-0.433C0.179,-0.457 0.204,-0.477 0.231,-0.492C0.258,-0.507 0.289,-0.515 0.325,-0.515C0.353,-0.515 0.377,-0.51 0.398,-0.501C0.419,-0.492 0.437,-0.478 0.451,-0.462C0.465,-0.445 0.476,-0.425 0.484,-0.401C0.491,-0.377 0.495,-0.351 0.495,-0.323L0.495,-0L0.406,-0L0.406,-0.323C0.406,-0.361 0.397,-0.391 0.379,-0.412C0.362,-0.433 0.335,-0.444 0.299,-0.444C0.273,-0.444 0.248,-0.437 0.225,-0.425C0.202,-0.412 0.181,-0.395 0.162,-0.373L0.162,-0L0.073,-0Z" style="fill-rule:nonzero;"/>
            </g>
            <g transform="matrix(27.8284,0,0,27.8284,1933.16,2156.79)">
                <path d="M0.278,-0.515C0.315,-0.515 0.348,-0.508 0.378,-0.496C0.408,-0.484 0.433,-0.466 0.454,-0.444C0.475,-0.421 0.491,-0.393 0.502,-0.361C0.513,-0.329 0.519,-0.293 0.519,-0.254C0.519,-0.214 0.513,-0.178 0.502,-0.146C0.491,-0.114 0.475,-0.086 0.454,-0.064C0.433,-0.041 0.408,-0.023 0.378,-0.011C0.348,0.001 0.315,0.007 0.278,0.007C0.241,0.007 0.208,0.001 0.178,-0.011C0.148,-0.023 0.123,-0.041 0.102,-0.064C0.081,-0.086 0.064,-0.114 0.053,-0.146C0.042,-0.178 0.036,-0.214 0.036,-0.254C0.036,-0.293 0.042,-0.329 0.053,-0.361C0.064,-0.393 0.081,-0.421 0.102,-0.444C0.123,-0.466 0.148,-0.484 0.178,-0.496C0.208,-0.508 0.241,-0.515 0.278,-0.515ZM0.278,-0.063C0.328,-0.063 0.365,-0.079 0.39,-0.113C0.415,-0.146 0.427,-0.193 0.427,-0.253C0.427,-0.313 0.415,-0.36 0.39,-0.394C0.365,-0.428 0.328,-0.444 0.278,-0.445C0.253,-0.444 0.231,-0.44 0.212,-0.432C0.193,-0.423 0.178,-0.41 0.165,-0.394C0.153,-0.378 0.143,-0.358 0.137,-0.334C0.131,-0.31 0.128,-0.283 0.128,-0.253C0.128,-0.223 0.131,-0.196 0.137,-0.173C0.143,-0.149 0.153,-0.129 0.165,-0.113C0.178,-0.096 0.193,-0.084 0.212,-0.076C0.231,-0.067 0.253,-0.063 0.278,-0.063Z" style="fill-rule:nonzero;"/>
            </g>
            <g transform="matrix(27.8284,0,0,27.8284,1948.63,2156.79)">
                <path d="M0.073,-0L0.073,-0.507L0.124,-0.507C0.134,-0.507 0.14,-0.505 0.144,-0.501C0.148,-0.497 0.15,-0.491 0.152,-0.482L0.158,-0.403C0.175,-0.438 0.196,-0.466 0.222,-0.486C0.247,-0.505 0.277,-0.516 0.312,-0.516C0.326,-0.516 0.338,-0.514 0.35,-0.511C0.361,-0.507 0.371,-0.503 0.381,-0.498L0.37,-0.431C0.367,-0.423 0.362,-0.419 0.354,-0.419C0.349,-0.419 0.342,-0.42 0.333,-0.423C0.323,-0.426 0.309,-0.428 0.292,-0.428C0.261,-0.428 0.235,-0.419 0.214,-0.401C0.193,-0.383 0.176,-0.357 0.162,-0.323L0.162,-0L0.073,-0Z" style="fill-rule:nonzero;"/>
            </g>
            <g transform="matrix(27.8284,0,0,27.8284,1959.85,2156.79)">
                <path d="M0.274,-0.515C0.304,-0.515 0.332,-0.509 0.358,-0.499C0.383,-0.489 0.405,-0.474 0.424,-0.455C0.443,-0.436 0.457,-0.412 0.468,-0.384C0.478,-0.356 0.484,-0.324 0.484,-0.288C0.484,-0.274 0.482,-0.265 0.479,-0.26C0.476,-0.255 0.47,-0.253 0.462,-0.253L0.125,-0.253C0.126,-0.221 0.13,-0.193 0.138,-0.17C0.146,-0.146 0.157,-0.126 0.171,-0.11C0.185,-0.094 0.202,-0.083 0.221,-0.075C0.24,-0.067 0.262,-0.063 0.286,-0.063C0.308,-0.063 0.328,-0.066 0.344,-0.071C0.36,-0.076 0.374,-0.082 0.386,-0.088C0.397,-0.094 0.407,-0.099 0.415,-0.104C0.423,-0.109 0.429,-0.112 0.435,-0.112C0.442,-0.112 0.448,-0.109 0.452,-0.104L0.477,-0.071C0.466,-0.058 0.453,-0.046 0.438,-0.036C0.422,-0.026 0.406,-0.018 0.388,-0.012C0.371,-0.006 0.353,-0.001 0.334,0.002C0.315,0.005 0.297,0.007 0.279,0.007C0.244,0.007 0.211,0.001 0.182,-0.011C0.152,-0.023 0.127,-0.04 0.105,-0.063C0.084,-0.086 0.067,-0.114 0.055,-0.148C0.043,-0.181 0.037,-0.22 0.037,-0.264C0.037,-0.299 0.042,-0.332 0.053,-0.363C0.064,-0.393 0.08,-0.42 0.1,-0.442C0.12,-0.465 0.145,-0.482 0.175,-0.495C0.204,-0.508 0.237,-0.515 0.274,-0.515ZM0.276,-0.449C0.233,-0.449 0.199,-0.437 0.174,-0.412C0.149,-0.387 0.134,-0.353 0.128,-0.309L0.404,-0.309C0.404,-0.329 0.401,-0.348 0.395,-0.365C0.389,-0.382 0.381,-0.397 0.37,-0.41C0.359,-0.422 0.345,-0.432 0.33,-0.439C0.314,-0.446 0.296,-0.449 0.276,-0.449Z" style="fill-rule:nonzero;"/>
            </g>
            <g transform="matrix(27.8284,0,0,27.8284,1979.8,2156.79)">
                <path d="M0.087,-0L0.087,-0.717L0.316,-0.717C0.36,-0.717 0.397,-0.712 0.429,-0.704C0.461,-0.695 0.487,-0.683 0.508,-0.667C0.528,-0.651 0.543,-0.631 0.553,-0.608C0.563,-0.585 0.568,-0.559 0.568,-0.53C0.568,-0.512 0.565,-0.495 0.56,-0.479C0.554,-0.462 0.546,-0.447 0.535,-0.433C0.524,-0.419 0.509,-0.407 0.493,-0.396C0.476,-0.385 0.456,-0.376 0.434,-0.369C0.486,-0.358 0.525,-0.339 0.552,-0.312C0.579,-0.285 0.592,-0.249 0.592,-0.204C0.592,-0.174 0.586,-0.146 0.575,-0.121C0.564,-0.096 0.548,-0.075 0.526,-0.057C0.505,-0.039 0.478,-0.025 0.447,-0.015C0.416,-0.005 0.381,-0 0.341,-0L0.087,-0ZM0.184,-0.327L0.184,-0.077L0.339,-0.077C0.367,-0.077 0.39,-0.08 0.41,-0.087C0.43,-0.093 0.446,-0.102 0.459,-0.113C0.472,-0.125 0.482,-0.138 0.488,-0.154C0.494,-0.17 0.497,-0.188 0.497,-0.207C0.497,-0.244 0.483,-0.273 0.457,-0.294C0.431,-0.316 0.392,-0.327 0.339,-0.327L0.184,-0.327ZM0.184,-0.396L0.312,-0.396C0.339,-0.396 0.363,-0.399 0.383,-0.405C0.403,-0.411 0.42,-0.419 0.433,-0.43C0.446,-0.44 0.456,-0.453 0.462,-0.468C0.468,-0.483 0.472,-0.5 0.472,-0.518C0.472,-0.56 0.459,-0.591 0.434,-0.611C0.408,-0.63 0.369,-0.64 0.316,-0.64L0.184,-0.64L0.184,-0.396Z" style="fill-rule:nonzero;"/>
            </g>
            <g transform="matrix(27.8284,0,0,27.8284,1997.81,2156.79)">
                <path d="M0.172,-0.507L0.172,-0L0.083,-0L0.083,-0.507L0.172,-0.507ZM0.192,-0.666C0.192,-0.657 0.19,-0.649 0.187,-0.641C0.183,-0.634 0.179,-0.627 0.173,-0.621C0.167,-0.615 0.16,-0.611 0.153,-0.608C0.145,-0.604 0.137,-0.603 0.128,-0.603C0.119,-0.603 0.111,-0.604 0.104,-0.608C0.096,-0.611 0.09,-0.615 0.084,-0.621C0.078,-0.627 0.073,-0.634 0.07,-0.641C0.067,-0.649 0.065,-0.657 0.065,-0.666C0.065,-0.674 0.067,-0.682 0.07,-0.69C0.073,-0.698 0.078,-0.705 0.084,-0.711C0.09,-0.717 0.096,-0.721 0.104,-0.725C0.111,-0.728 0.119,-0.73 0.128,-0.73C0.137,-0.73 0.145,-0.728 0.153,-0.725C0.16,-0.721 0.167,-0.717 0.173,-0.711C0.179,-0.705 0.183,-0.698 0.187,-0.69C0.19,-0.682 0.192,-0.674 0.192,-0.666Z" style="fill-rule:nonzero;"/>
            </g>
            <g transform="matrix(27.8284,0,0,27.8284,2004.93,2156.79)">
                <path d="M0.227,0.008C0.187,0.008 0.156,-0.003 0.134,-0.026C0.113,-0.048 0.102,-0.08 0.102,-0.122L0.102,-0.432L0.041,-0.432C0.036,-0.432 0.031,-0.434 0.028,-0.437C0.024,-0.44 0.022,-0.445 0.022,-0.452L0.022,-0.487L0.105,-0.498L0.126,-0.654C0.126,-0.659 0.128,-0.663 0.132,-0.666C0.136,-0.669 0.14,-0.671 0.146,-0.671L0.191,-0.671L0.191,-0.497L0.336,-0.497L0.336,-0.432L0.191,-0.432L0.191,-0.128C0.191,-0.107 0.196,-0.091 0.207,-0.081C0.217,-0.07 0.23,-0.065 0.247,-0.065C0.256,-0.065 0.264,-0.066 0.271,-0.069C0.278,-0.071 0.284,-0.074 0.289,-0.077C0.294,-0.08 0.298,-0.083 0.301,-0.085C0.305,-0.088 0.308,-0.089 0.311,-0.089C0.315,-0.089 0.319,-0.086 0.323,-0.081L0.349,-0.038C0.334,-0.024 0.315,-0.012 0.294,-0.004C0.272,0.004 0.25,0.008 0.227,0.008Z" style="fill-rule:nonzero;"/>
            </g>
        </g>
        <g transform="matrix(3.46598e-17,-0.566038,1,6.12323e-17,-276.321,3317.51)">
            <path d="M2087.14,2199.53L2087.14,2190.12L2111.68,2190.12L2111.68,2181.39L2135.42,2194.83L2111.68,2208.26L2111.68,2199.53L2087.14,2199.53Z"/>
        </g>
        <g transform="matrix(3.46598e-17,-0.566038,1,6.12323e-17,-137.855,3317.51)">
            <path d="M2087.14,2199.53L2087.14,2190.12L2111.68,2190.12L2111.68,2181.39L2135.42,2194.83L2111.68,2208.26L2111.68,2199.53L2087.14,2199.53Z"/>
        </g>
    </g>
</svg>
