<?xml version="1.0" encoding="UTF-8" standalone="no"?>
<!DOCTYPE svg PUBLIC "-//W3C//DTD SVG 1.1//EN" "http://www.w3.org/Graphics/SVG/1.1/DTD/svg11.dtd">
<svg width="100%" height="100%" viewBox="0 0 1148 267" version="1.1" xmlns="http://www.w3.org/2000/svg" xmlns:xlink="http://www.w3.org/1999/xlink" xml:space="preserve" xmlns:serif="http://www.serif.com/" style="fill-rule:evenodd;clip-rule:evenodd;stroke-linecap:round;stroke-linejoin:round;stroke-miterlimit:1.5;">
    <g transform="matrix(1,0,0,1,-1776.75,-1539.41)">
        <g transform="matrix(1.02104,0,0,0.424837,1150.65,1337.47)">
            <rect x="613.687" y="476.516" width="1122.88" height="625.508" style="fill:rgb(204,204,204);stroke:white;stroke-width:1.28px;"/>
        </g>
        <g transform="matrix(0.454572,0,0,1,1004.71,183.794)">
            <rect x="1883.82" y="1414.49" width="20.639" height="17.792" style="fill:rgb(63,97,0);"/>
        </g>
        <g transform="matrix(0.454572,0,0,1,1418.66,183.794)">
            <rect x="1883.82" y="1414.49" width="20.639" height="17.792" style="fill:rgb(29,29,29);"/>
        </g>
        <g transform="matrix(0.454572,0,0,1,1207.66,183.794)">
            <rect x="1883.82" y="1414.49" width="20.639" height="17.792" style="fill:rgb(29,29,29);"/>
        </g>
        <g transform="matrix(0.454572,0,0,1,1621.61,183.794)">
            <rect x="1883.82" y="1414.49" width="20.639" height="17.792" style="fill:rgb(29,29,29);"/>
        </g>
        <g transform="matrix(0.454572,0,0,1,1106.43,183.794)">
            <rect x="1883.82" y="1414.49" width="20.639" height="17.792" style="fill:rgb(104,0,90);"/>
        </g>
        <g transform="matrix(0.454572,0,0,1,1520.37,183.794)">
            <rect x="1883.82" y="1414.49" width="20.639" height="17.792" style="fill:rgb(29,29,29);"/>
        </g>
        <g transform="matrix(0.454572,0,0,1,1309.38,183.794)">
            <rect x="1883.82" y="1414.49" width="20.639" height="17.792" style="fill:rgb(29,29,29);"/>
        </g>
        <g transform="matrix(0.454572,0,0,1,1723.32,183.794)">
            <rect x="1883.82" y="1414.49" width="20.639" height="17.792" style="fill:rgb(29,29,29);"/>
        </g>
        <g transform="matrix(0.454572,0,0,1,1016.82,183.794)">
            <rect x="1883.82" y="1414.49" width="20.639" height="17.792" style="fill:rgb(63,97,0);"/>
        </g>
        <g transform="matrix(0.454572,0,0,1,1430.77,183.794)">
            <rect x="1883.82" y="1414.49" width="20.639" height="17.792" style="fill:rgb(29,29,29);"/>
        </g>
        <g transform="matrix(0.454572,0,0,1,1219.77,183.794)">
            <rect x="1883.82" y="1414.49" width="20.639" height="17.792" style="fill:rgb(29,29,29);"/>
        </g>
        <g transform="matrix(0.454572,0,0,1,1633.72,183.794)">
            <rect x="1883.82" y="1414.49" width="20.639" height="17.792" style="fill:rgb(29,29,29);"/>
        </g>
        <g transform="matrix(0.454572,0,0,1,1118.53,183.794)">
            <rect x="1883.82" y="1414.49" width="20.639" height="17.792" style="fill:rgb(104,0,90);"/>
        </g>
        <g transform="matrix(0.454572,0,0,1,1532.48,183.794)">
            <rect x="1883.82" y="1414.49" width="20.639" height="17.792" style="fill:rgb(29,29,29);"/>
        </g>
        <g transform="matrix(0.454572,0,0,1,1321.48,183.794)">
            <rect x="1883.82" y="1414.49" width="20.639" height="17.792" style="fill:rgb(29,29,29);"/>
        </g>
        <g transform="matrix(0.454572,0,0,1,1735.43,183.794)">
            <rect x="1883.82" y="1414.49" width="20.639" height="17.792" style="fill:rgb(29,29,29);"/>
        </g>
        <g transform="matrix(0.454572,0,0,1,1028.93,183.794)">
            <rect x="1883.82" y="1414.49" width="20.639" height="17.792" style="fill:rgb(63,97,0);"/>
        </g>
        <g transform="matrix(1,0,0,1,-38.2604,109.771)">
            <g transform="matrix(33.3333,0,0,33.3333,1896.63,1667.81)">
                <path d="M0.194,-0.299L0.194,-0L0.097,-0L0.097,-0.717L0.3,-0.717C0.345,-0.717 0.384,-0.712 0.417,-0.703C0.45,-0.694 0.477,-0.68 0.499,-0.663C0.52,-0.646 0.536,-0.625 0.547,-0.6C0.557,-0.576 0.562,-0.548 0.562,-0.518C0.562,-0.493 0.558,-0.469 0.55,-0.447C0.542,-0.425 0.53,-0.405 0.515,-0.388C0.5,-0.37 0.482,-0.355 0.46,-0.343C0.438,-0.331 0.413,-0.321 0.386,-0.315C0.398,-0.308 0.408,-0.298 0.418,-0.285L0.627,-0L0.541,-0C0.523,-0 0.51,-0.007 0.502,-0.021L0.316,-0.277C0.31,-0.284 0.304,-0.29 0.297,-0.294C0.29,-0.297 0.28,-0.299 0.267,-0.299L0.194,-0.299ZM0.194,-0.37L0.295,-0.37C0.323,-0.37 0.348,-0.373 0.37,-0.38C0.391,-0.387 0.409,-0.396 0.424,-0.409C0.438,-0.421 0.449,-0.436 0.457,-0.454C0.464,-0.471 0.468,-0.49 0.468,-0.511C0.468,-0.554 0.453,-0.586 0.425,-0.608C0.397,-0.629 0.355,-0.64 0.3,-0.64L0.194,-0.64L0.194,-0.37Z" style="fill:rgb(63,97,0);fill-rule:nonzero;"/>
            </g>
            <g transform="matrix(33.3333,0,0,33.3333,1918.09,1667.81)">
                <path d="M0.194,-0.299L0.194,-0L0.097,-0L0.097,-0.717L0.3,-0.717C0.345,-0.717 0.384,-0.712 0.417,-0.703C0.45,-0.694 0.477,-0.68 0.499,-0.663C0.52,-0.646 0.536,-0.625 0.547,-0.6C0.557,-0.576 0.562,-0.548 0.562,-0.518C0.562,-0.493 0.558,-0.469 0.55,-0.447C0.542,-0.425 0.53,-0.405 0.515,-0.388C0.5,-0.37 0.482,-0.355 0.46,-0.343C0.438,-0.331 0.413,-0.321 0.386,-0.315C0.398,-0.308 0.408,-0.298 0.418,-0.285L0.627,-0L0.541,-0C0.523,-0 0.51,-0.007 0.502,-0.021L0.316,-0.277C0.31,-0.284 0.304,-0.29 0.297,-0.294C0.29,-0.297 0.28,-0.299 0.267,-0.299L0.194,-0.299ZM0.194,-0.37L0.295,-0.37C0.323,-0.37 0.348,-0.373 0.37,-0.38C0.391,-0.387 0.409,-0.396 0.424,-0.409C0.438,-0.421 0.449,-0.436 0.457,-0.454C0.464,-0.471 0.468,-0.49 0.468,-0.511C0.468,-0.554 0.453,-0.586 0.425,-0.608C0.397,-0.629 0.355,-0.64 0.3,-0.64L0.194,-0.64L0.194,-0.37Z" style="fill:rgb(63,97,0);fill-rule:nonzero;"/>
            </g>
            <g transform="matrix(33.3333,0,0,33.3333,1945.99,1667.81)">
                <path d="M0.407,-0.071C0.426,-0.071 0.444,-0.071 0.46,-0.073C0.476,-0.075 0.491,-0.078 0.506,-0.082C0.52,-0.085 0.533,-0.09 0.546,-0.095C0.559,-0.1 0.571,-0.106 0.584,-0.113L0.584,-0.271L0.473,-0.271C0.467,-0.271 0.462,-0.272 0.458,-0.276C0.454,-0.28 0.452,-0.284 0.452,-0.29L0.452,-0.345L0.672,-0.345L0.672,-0.07C0.654,-0.057 0.635,-0.045 0.616,-0.036C0.596,-0.026 0.575,-0.018 0.553,-0.011C0.531,-0.005 0.507,0 0.482,0.003C0.457,0.006 0.429,0.008 0.4,0.008C0.347,0.008 0.3,-0.001 0.257,-0.019C0.213,-0.037 0.176,-0.062 0.145,-0.094C0.113,-0.126 0.089,-0.165 0.071,-0.21C0.054,-0.255 0.045,-0.304 0.045,-0.358C0.045,-0.413 0.054,-0.463 0.071,-0.508C0.088,-0.553 0.112,-0.591 0.144,-0.623C0.176,-0.655 0.215,-0.68 0.26,-0.698C0.305,-0.716 0.356,-0.725 0.412,-0.725C0.44,-0.725 0.466,-0.722 0.491,-0.718C0.515,-0.714 0.537,-0.708 0.558,-0.7C0.579,-0.692 0.598,-0.683 0.616,-0.672C0.634,-0.661 0.65,-0.648 0.666,-0.634L0.638,-0.59C0.632,-0.581 0.625,-0.577 0.616,-0.577C0.611,-0.577 0.605,-0.578 0.599,-0.582C0.59,-0.587 0.581,-0.592 0.571,-0.599C0.56,-0.606 0.548,-0.612 0.533,-0.618C0.518,-0.624 0.5,-0.63 0.48,-0.634C0.46,-0.638 0.436,-0.641 0.409,-0.641C0.368,-0.641 0.332,-0.634 0.299,-0.621C0.266,-0.608 0.239,-0.589 0.216,-0.564C0.193,-0.54 0.175,-0.51 0.163,-0.475C0.15,-0.44 0.144,-0.401 0.144,-0.358C0.144,-0.313 0.15,-0.272 0.163,-0.237C0.176,-0.201 0.194,-0.171 0.218,-0.147C0.241,-0.122 0.269,-0.103 0.301,-0.09C0.333,-0.077 0.368,-0.071 0.407,-0.071Z" style="fill:rgb(63,97,0);fill-rule:nonzero;"/>
            </g>
            <g transform="matrix(33.3333,0,0,33.3333,1970.46,1667.81)">
                <path d="M0.073,-0L0.073,-0.507L0.124,-0.507C0.134,-0.507 0.14,-0.505 0.144,-0.501C0.148,-0.497 0.15,-0.491 0.152,-0.482L0.158,-0.403C0.175,-0.438 0.196,-0.466 0.222,-0.486C0.247,-0.505 0.277,-0.516 0.312,-0.516C0.326,-0.516 0.338,-0.514 0.35,-0.511C0.361,-0.507 0.371,-0.503 0.381,-0.498L0.37,-0.431C0.367,-0.423 0.362,-0.419 0.354,-0.419C0.349,-0.419 0.342,-0.42 0.333,-0.423C0.323,-0.426 0.309,-0.428 0.292,-0.428C0.261,-0.428 0.235,-0.419 0.214,-0.401C0.193,-0.383 0.176,-0.357 0.162,-0.323L0.162,-0L0.073,-0Z" style="fill:rgb(63,97,0);fill-rule:nonzero;"/>
            </g>
            <g transform="matrix(33.3333,0,0,33.3333,1983.89,1667.81)">
                <path d="M0.278,-0.515C0.315,-0.515 0.348,-0.508 0.378,-0.496C0.408,-0.484 0.433,-0.466 0.454,-0.444C0.475,-0.421 0.491,-0.393 0.502,-0.361C0.513,-0.329 0.519,-0.293 0.519,-0.254C0.519,-0.214 0.513,-0.178 0.502,-0.146C0.491,-0.114 0.475,-0.086 0.454,-0.064C0.433,-0.041 0.408,-0.023 0.378,-0.011C0.348,0.001 0.315,0.007 0.278,0.007C0.241,0.007 0.208,0.001 0.178,-0.011C0.148,-0.023 0.123,-0.041 0.102,-0.064C0.081,-0.086 0.064,-0.114 0.053,-0.146C0.042,-0.178 0.036,-0.214 0.036,-0.254C0.036,-0.293 0.042,-0.329 0.053,-0.361C0.064,-0.393 0.081,-0.421 0.102,-0.444C0.123,-0.466 0.148,-0.484 0.178,-0.496C0.208,-0.508 0.241,-0.515 0.278,-0.515ZM0.278,-0.063C0.328,-0.063 0.365,-0.079 0.39,-0.113C0.415,-0.146 0.427,-0.193 0.427,-0.253C0.427,-0.313 0.415,-0.36 0.39,-0.394C0.365,-0.428 0.328,-0.444 0.278,-0.445C0.253,-0.444 0.231,-0.44 0.212,-0.432C0.193,-0.423 0.178,-0.41 0.165,-0.394C0.153,-0.378 0.143,-0.358 0.137,-0.334C0.131,-0.31 0.128,-0.283 0.128,-0.253C0.128,-0.223 0.131,-0.196 0.137,-0.173C0.143,-0.149 0.153,-0.129 0.165,-0.113C0.178,-0.096 0.193,-0.084 0.212,-0.076C0.231,-0.067 0.253,-0.063 0.278,-0.063Z" style="fill:rgb(63,97,0);fill-rule:nonzero;"/>
            </g>
            <g transform="matrix(33.3333,0,0,33.3333,2002.43,1667.81)">
                <path d="M0.15,-0.507L0.15,-0.184C0.15,-0.145 0.159,-0.116 0.177,-0.095C0.194,-0.074 0.221,-0.063 0.257,-0.063C0.282,-0.063 0.307,-0.069 0.33,-0.082C0.353,-0.094 0.374,-0.111 0.394,-0.133L0.394,-0.507L0.483,-0.507L0.483,-0L0.43,-0C0.417,-0 0.409,-0.006 0.406,-0.019L0.399,-0.073C0.377,-0.049 0.352,-0.029 0.325,-0.014C0.297,0.001 0.266,0.008 0.231,0.008C0.203,0.008 0.178,0.004 0.157,-0.006C0.136,-0.015 0.118,-0.028 0.104,-0.045C0.09,-0.061 0.079,-0.081 0.072,-0.105C0.065,-0.129 0.061,-0.155 0.061,-0.184L0.061,-0.507L0.15,-0.507Z" style="fill:rgb(63,97,0);fill-rule:nonzero;"/>
            </g>
            <g transform="matrix(33.3333,0,0,33.3333,2020.96,1667.81)">
                <path d="M0.073,0.172L0.073,-0.507L0.126,-0.507C0.139,-0.507 0.147,-0.5 0.15,-0.488L0.158,-0.428C0.179,-0.454 0.204,-0.476 0.232,-0.492C0.26,-0.507 0.292,-0.516 0.328,-0.516C0.357,-0.516 0.383,-0.51 0.407,-0.499C0.431,-0.488 0.451,-0.471 0.468,-0.449C0.484,-0.427 0.497,-0.4 0.506,-0.368C0.515,-0.336 0.52,-0.299 0.52,-0.257C0.52,-0.219 0.515,-0.184 0.505,-0.152C0.495,-0.12 0.48,-0.092 0.462,-0.069C0.443,-0.045 0.42,-0.027 0.393,-0.013C0.366,0 0.335,0.007 0.301,0.007C0.27,0.007 0.243,0.002 0.221,-0.009C0.199,-0.019 0.179,-0.034 0.162,-0.053L0.162,0.172L0.073,0.172ZM0.299,-0.444C0.27,-0.444 0.244,-0.437 0.222,-0.424C0.2,-0.41 0.18,-0.391 0.162,-0.367L0.162,-0.122C0.178,-0.1 0.196,-0.085 0.216,-0.076C0.235,-0.067 0.257,-0.062 0.281,-0.062C0.328,-0.062 0.364,-0.079 0.39,-0.113C0.415,-0.146 0.428,-0.194 0.428,-0.257C0.428,-0.29 0.424,-0.318 0.419,-0.342C0.413,-0.365 0.405,-0.385 0.394,-0.4C0.383,-0.415 0.369,-0.426 0.353,-0.433C0.337,-0.44 0.319,-0.444 0.299,-0.444Z" style="fill:rgb(63,97,0);fill-rule:nonzero;"/>
            </g>
            <g transform="matrix(33.3333,0,0,33.3333,2045.79,1667.81)">
                <path d="M0.145,-0.315C0.145,-0.243 0.154,-0.174 0.172,-0.107C0.19,-0.04 0.217,0.025 0.252,0.086C0.254,0.089 0.255,0.092 0.256,0.095C0.256,0.098 0.257,0.1 0.257,0.103C0.257,0.108 0.255,0.112 0.253,0.115C0.251,0.118 0.248,0.12 0.244,0.123L0.205,0.147C0.18,0.108 0.158,0.07 0.141,0.033C0.123,-0.005 0.109,-0.043 0.098,-0.081C0.087,-0.119 0.08,-0.157 0.075,-0.196C0.07,-0.234 0.067,-0.274 0.067,-0.315C0.067,-0.355 0.07,-0.394 0.075,-0.433C0.08,-0.472 0.087,-0.51 0.098,-0.548C0.109,-0.586 0.123,-0.623 0.141,-0.661C0.158,-0.699 0.18,-0.737 0.205,-0.776L0.244,-0.751C0.248,-0.749 0.251,-0.746 0.253,-0.743C0.255,-0.74 0.257,-0.736 0.257,-0.732C0.257,-0.727 0.255,-0.721 0.252,-0.715C0.217,-0.654 0.19,-0.59 0.172,-0.523C0.154,-0.455 0.145,-0.386 0.145,-0.315Z" style="fill:rgb(63,97,0);fill-rule:nonzero;"/>
            </g>
            <g transform="matrix(33.3333,0,0,33.3333,2055.79,1667.81)">
                <path d="M0.301,-0.725C0.331,-0.725 0.359,-0.72 0.386,-0.711C0.412,-0.702 0.435,-0.689 0.454,-0.672C0.473,-0.655 0.488,-0.634 0.499,-0.609C0.51,-0.584 0.516,-0.556 0.516,-0.525C0.516,-0.498 0.511,-0.474 0.504,-0.451C0.496,-0.428 0.485,-0.407 0.471,-0.386C0.457,-0.365 0.442,-0.345 0.424,-0.325C0.406,-0.306 0.387,-0.286 0.367,-0.266L0.179,-0.073C0.192,-0.076 0.205,-0.079 0.219,-0.081C0.233,-0.083 0.246,-0.085 0.259,-0.085L0.499,-0.085C0.508,-0.085 0.516,-0.082 0.522,-0.076C0.527,-0.07 0.53,-0.063 0.53,-0.054L0.53,-0L0.052,-0L0.052,-0.031C0.052,-0.037 0.053,-0.043 0.056,-0.05C0.058,-0.057 0.062,-0.063 0.068,-0.069L0.298,-0.299C0.317,-0.318 0.334,-0.337 0.35,-0.355C0.365,-0.373 0.379,-0.391 0.39,-0.409C0.401,-0.427 0.41,-0.445 0.416,-0.463C0.422,-0.482 0.424,-0.501 0.425,-0.523C0.424,-0.544 0.421,-0.562 0.415,-0.578C0.408,-0.594 0.399,-0.607 0.387,-0.617C0.375,-0.627 0.362,-0.635 0.346,-0.64C0.33,-0.645 0.314,-0.648 0.296,-0.648C0.278,-0.648 0.261,-0.645 0.246,-0.64C0.23,-0.635 0.217,-0.627 0.205,-0.618C0.193,-0.608 0.183,-0.597 0.175,-0.584C0.167,-0.571 0.161,-0.557 0.158,-0.541C0.155,-0.531 0.151,-0.524 0.146,-0.52C0.14,-0.516 0.133,-0.514 0.125,-0.514L0.119,-0.514C0.117,-0.514 0.067,-0.523 0.067,-0.523C0.071,-0.555 0.08,-0.584 0.094,-0.609C0.107,-0.634 0.124,-0.656 0.144,-0.673C0.165,-0.69 0.188,-0.702 0.215,-0.711C0.241,-0.72 0.27,-0.725 0.301,-0.725Z" style="fill:rgb(63,97,0);fill-rule:nonzero;"/>
            </g>
            <g transform="matrix(33.3333,0,0,33.3333,2075.13,1667.81)">
                <path d="M0.258,-0.717L0.316,-0.717L0.495,-0.394L0.43,-0.394C0.424,-0.394 0.42,-0.395 0.416,-0.399C0.412,-0.402 0.408,-0.406 0.406,-0.411L0.308,-0.587C0.303,-0.594 0.299,-0.602 0.296,-0.609C0.293,-0.616 0.29,-0.623 0.288,-0.63C0.283,-0.615 0.277,-0.601 0.27,-0.587L0.173,-0.411C0.17,-0.406 0.167,-0.402 0.163,-0.399C0.159,-0.395 0.154,-0.394 0.147,-0.394L0.079,-0.394L0.258,-0.717Z" style="fill:rgb(63,97,0);fill-rule:nonzero;"/>
            </g>
            <g transform="matrix(33.3333,0,0,33.3333,2094.46,1667.81)">
                <path d="M0.452,-0.259L0.56,-0.259L0.56,-0.208C0.56,-0.202 0.558,-0.198 0.555,-0.194C0.552,-0.19 0.547,-0.189 0.541,-0.189L0.452,-0.189L0.452,-0L0.373,-0L0.373,-0.189L0.056,-0.189C0.049,-0.189 0.043,-0.19 0.038,-0.194C0.033,-0.198 0.03,-0.203 0.029,-0.209L0.02,-0.254L0.369,-0.717L0.452,-0.717L0.452,-0.259ZM0.373,-0.554C0.373,-0.563 0.373,-0.572 0.374,-0.582C0.374,-0.592 0.375,-0.602 0.377,-0.613L0.117,-0.259L0.373,-0.259L0.373,-0.554Z" style="fill:rgb(63,97,0);fill-rule:nonzero;"/>
            </g>
            <g transform="matrix(33.3333,0,0,33.3333,2120.23,1667.81)">
                <path d="M0.075,-0.287L0.505,-0.287L0.505,-0.22L0.075,-0.22L0.075,-0.287ZM0.075,-0.455L0.505,-0.455L0.505,-0.387L0.075,-0.387L0.075,-0.455Z" style="fill:rgb(63,97,0);fill-rule:nonzero;"/>
            </g>
            <g transform="matrix(33.3333,0,0,33.3333,2145.99,1667.81)">
                <path d="M0.144,-0.068L0.298,-0.068L0.298,-0.557C0.298,-0.571 0.298,-0.586 0.299,-0.601L0.171,-0.492C0.168,-0.489 0.164,-0.487 0.161,-0.486C0.158,-0.485 0.155,-0.484 0.152,-0.484C0.147,-0.484 0.142,-0.485 0.138,-0.487C0.134,-0.489 0.131,-0.492 0.129,-0.495L0.101,-0.534L0.314,-0.718L0.387,-0.718L0.387,-0.068L0.528,-0.068L0.528,-0L0.144,-0L0.144,-0.068Z" style="fill:rgb(63,97,0);fill-rule:nonzero;"/>
            </g>
            <g transform="matrix(33.3333,0,0,33.3333,2165.33,1667.81)">
                <path d="M0.325,-0.439C0.354,-0.439 0.381,-0.434 0.407,-0.425C0.432,-0.415 0.455,-0.401 0.474,-0.383C0.493,-0.365 0.509,-0.343 0.52,-0.316C0.531,-0.29 0.537,-0.26 0.537,-0.226C0.537,-0.193 0.531,-0.162 0.519,-0.134C0.507,-0.105 0.49,-0.081 0.469,-0.06C0.447,-0.039 0.421,-0.022 0.391,-0.01C0.361,0.002 0.327,0.008 0.291,0.008C0.255,0.008 0.222,0.002 0.193,-0.009C0.164,-0.021 0.139,-0.037 0.119,-0.058C0.098,-0.079 0.082,-0.105 0.071,-0.135C0.059,-0.165 0.054,-0.199 0.054,-0.237C0.054,-0.268 0.061,-0.301 0.075,-0.337C0.089,-0.372 0.111,-0.41 0.142,-0.451L0.323,-0.695C0.328,-0.701 0.334,-0.706 0.343,-0.71C0.351,-0.714 0.36,-0.717 0.371,-0.717L0.45,-0.717L0.202,-0.402C0.219,-0.414 0.237,-0.423 0.258,-0.429C0.279,-0.436 0.301,-0.439 0.325,-0.439ZM0.14,-0.221C0.14,-0.198 0.143,-0.177 0.15,-0.158C0.157,-0.139 0.166,-0.123 0.179,-0.109C0.192,-0.095 0.208,-0.085 0.226,-0.077C0.245,-0.07 0.266,-0.066 0.29,-0.066C0.314,-0.066 0.335,-0.07 0.355,-0.078C0.374,-0.085 0.39,-0.096 0.404,-0.11C0.418,-0.123 0.429,-0.139 0.436,-0.158C0.444,-0.177 0.448,-0.197 0.448,-0.219C0.448,-0.242 0.444,-0.263 0.437,-0.282C0.429,-0.301 0.419,-0.317 0.406,-0.33C0.392,-0.343 0.376,-0.354 0.358,-0.361C0.339,-0.368 0.318,-0.371 0.296,-0.371C0.272,-0.371 0.25,-0.367 0.231,-0.359C0.212,-0.351 0.195,-0.339 0.182,-0.326C0.168,-0.312 0.158,-0.296 0.151,-0.278C0.143,-0.26 0.14,-0.241 0.14,-0.221Z" style="fill:rgb(63,97,0);fill-rule:nonzero;"/>
            </g>
            <g transform="matrix(33.3333,0,0,33.3333,2184.66,1667.81)">
                <path d="M0.149,-0.315C0.149,-0.386 0.14,-0.455 0.122,-0.523C0.103,-0.59 0.077,-0.654 0.042,-0.715C0.039,-0.721 0.037,-0.727 0.037,-0.732C0.037,-0.736 0.038,-0.74 0.041,-0.743C0.043,-0.746 0.046,-0.749 0.05,-0.751L0.089,-0.776C0.114,-0.737 0.135,-0.699 0.153,-0.661C0.17,-0.623 0.184,-0.586 0.195,-0.548C0.206,-0.51 0.214,-0.472 0.219,-0.433C0.224,-0.394 0.227,-0.355 0.227,-0.315C0.227,-0.274 0.224,-0.234 0.219,-0.196C0.214,-0.157 0.206,-0.119 0.195,-0.081C0.184,-0.043 0.17,-0.005 0.153,0.033C0.135,0.07 0.114,0.108 0.089,0.147L0.05,0.123C0.046,0.12 0.043,0.118 0.041,0.115C0.038,0.112 0.037,0.108 0.037,0.103C0.037,0.1 0.037,0.098 0.038,0.095C0.039,0.092 0.04,0.089 0.042,0.086C0.077,0.025 0.103,-0.04 0.122,-0.107C0.14,-0.174 0.149,-0.243 0.149,-0.315Z" style="fill:rgb(63,97,0);fill-rule:nonzero;"/>
            </g>
        </g>
        <g transform="matrix(0.454572,0,0,1,1442.87,183.794)">
            <rect x="1883.82" y="1414.49" width="20.639" height="17.792" style="fill:rgb(29,29,29);"/>
        </g>
        <g transform="matrix(0.454572,0,0,1,1231.88,183.794)">
            <rect x="1883.82" y="1414.49" width="20.639" height="17.792" style="fill:rgb(29,29,29);"/>
        </g>
        <g transform="matrix(0.454572,0,0,1,1645.83,183.794)">
            <rect x="1883.82" y="1414.49" width="20.639" height="17.792" style="fill:rgb(29,29,29);"/>
        </g>
        <g transform="matrix(0.454572,0,0,1,1130.64,183.794)">
            <rect x="1883.82" y="1414.49" width="20.639" height="17.792" style="fill:rgb(104,0,90);"/>
        </g>
        <g transform="matrix(0.454572,0,0,1,1544.59,183.794)">
            <rect x="1883.82" y="1414.49" width="20.639" height="17.792" style="fill:rgb(29,29,29);"/>
        </g>
        <g transform="matrix(0.454572,0,0,1,1333.59,183.794)">
            <rect x="1883.82" y="1414.49" width="20.639" height="17.792" style="fill:rgb(29,29,29);"/>
        </g>
        <g transform="matrix(0.454572,0,0,1,1747.54,183.794)">
            <rect x="1883.82" y="1414.49" width="20.639" height="17.792" style="fill:rgb(29,29,29);"/>
        </g>
        <g transform="matrix(0.454572,0,0,1,1041.04,183.794)">
            <rect x="1883.82" y="1414.49" width="20.639" height="17.792" style="fill:rgb(63,97,0);"/>
        </g>
        <g transform="matrix(0.454572,0,0,1,1454.98,183.794)">
            <rect x="1883.82" y="1414.49" width="20.639" height="17.792" style="fill:rgb(29,29,29);"/>
        </g>
        <g transform="matrix(0.454572,0,0,1,1243.99,183.794)">
            <rect x="1883.82" y="1414.49" width="20.639" height="17.792" style="fill:rgb(29,29,29);"/>
        </g>
        <g transform="matrix(0.454572,0,0,1,1657.93,183.794)">
            <rect x="1883.82" y="1414.49" width="20.639" height="17.792" style="fill:rgb(29,29,29);"/>
        </g>
        <g transform="matrix(0.454572,0,0,1,1142.75,183.794)">
            <rect x="1883.82" y="1414.49" width="20.639" height="17.792" style="fill:rgb(104,0,90);"/>
        </g>
        <g transform="matrix(0.454572,0,0,1,1556.7,183.794)">
            <rect x="1883.82" y="1414.49" width="20.639" height="17.792" style="fill:rgb(29,29,29);"/>
        </g>
        <g transform="matrix(0.454572,0,0,1,1345.7,183.794)">
            <rect x="1883.82" y="1414.49" width="20.639" height="17.792" style="fill:rgb(29,29,29);"/>
        </g>
        <g transform="matrix(0.454572,0,0,1,1759.65,183.794)">
            <rect x="1883.82" y="1414.49" width="20.639" height="17.792" style="fill:rgb(29,29,29);"/>
        </g>
        <g transform="matrix(0.454572,0,0,1,1053.15,183.794)">
            <rect x="1883.82" y="1414.49" width="20.639" height="17.792" style="fill:rgb(184,255,49);"/>
        </g>
        <g transform="matrix(0.454572,0,0,1,1467.09,183.794)">
            <rect x="1883.82" y="1414.49" width="20.639" height="17.792" style="fill:rgb(29,29,29);"/>
        </g>
        <g transform="matrix(0.454572,0,0,1,1256.1,183.794)">
            <rect x="1883.82" y="1414.49" width="20.639" height="17.792" style="fill:rgb(29,29,29);"/>
        </g>
        <g transform="matrix(0.454572,0,0,1,1670.04,183.794)">
            <rect x="1883.82" y="1414.49" width="20.639" height="17.792" style="fill:rgb(29,29,29);"/>
        </g>
        <g transform="matrix(0.454572,0,0,1,1154.86,183.794)">
            <rect x="1883.82" y="1414.49" width="20.639" height="17.792" style="fill:rgb(104,0,90);"/>
        </g>
        <g transform="matrix(0.454572,0,0,1,1568.8,183.794)">
            <rect x="1883.82" y="1414.49" width="20.639" height="17.792" style="fill:rgb(29,29,29);"/>
        </g>
        <g transform="matrix(0.454572,0,0,1,1357.81,183.794)">
            <rect x="1883.82" y="1414.49" width="20.639" height="17.792" style="fill:rgb(29,29,29);"/>
        </g>
        <g transform="matrix(0.454572,0,0,1,1771.75,183.794)">
            <rect x="1883.82" y="1414.49" width="20.639" height="17.792" style="fill:rgb(29,29,29);"/>
        </g>
        <g transform="matrix(0.454572,0,0,1,1077.37,183.794)">
            <rect x="1883.82" y="1414.49" width="20.639" height="17.792" style="fill:rgb(0,103,165);"/>
        </g>
        <g transform="matrix(0.454572,0,0,1,1491.31,183.794)">
            <rect x="1883.82" y="1414.49" width="20.639" height="17.792" style="fill:rgb(29,29,29);"/>
        </g>
        <g transform="matrix(0.454572,0,0,1,1280.32,183.794)">
            <rect x="1883.82" y="1414.49" width="20.639" height="17.792" style="fill:rgb(29,29,29);"/>
        </g>
        <g transform="matrix(0.454572,0,0,1,1694.26,183.794)">
            <rect x="1883.82" y="1414.49" width="20.639" height="17.792" style="fill:rgb(29,29,29);"/>
        </g>
        <g transform="matrix(0.454572,0,0,1,1179.08,183.794)">
            <rect x="1883.82" y="1414.49" width="20.639" height="17.792" style="fill:rgb(104,0,90);"/>
        </g>
        <g transform="matrix(0.454572,0,0,1,1593.02,183.794)">
            <rect x="1883.82" y="1414.49" width="20.639" height="17.792" style="fill:rgb(29,29,29);"/>
        </g>
        <g transform="matrix(0.454572,0,0,1,1382.03,183.794)">
            <rect x="1883.82" y="1414.49" width="20.639" height="17.792" style="fill:rgb(29,29,29);"/>
        </g>
        <g transform="matrix(0.454572,0,0,1,1795.97,183.794)">
            <rect x="1883.82" y="1414.49" width="20.639" height="17.792" style="fill:rgb(29,29,29);"/>
        </g>
        <g transform="matrix(0.454572,0,0,1,1065.26,183.794)">
            <rect x="1883.82" y="1414.49" width="20.639" height="17.792" style="fill:rgb(0,103,165);"/>
        </g>
        <g transform="matrix(0.454572,0,0,1,1479.2,183.794)">
            <rect x="1883.82" y="1414.49" width="20.639" height="17.792" style="fill:rgb(29,29,29);"/>
        </g>
        <g transform="matrix(0.454572,0,0,1,1268.21,183.794)">
            <rect x="1883.82" y="1414.49" width="20.639" height="17.792" style="fill:rgb(29,29,29);"/>
        </g>
        <g transform="matrix(0.454572,0,0,1,1682.15,183.794)">
            <rect x="1883.82" y="1414.49" width="20.639" height="17.792" style="fill:rgb(29,29,29);"/>
        </g>
        <g transform="matrix(0.454572,0,0,1,1166.97,183.794)">
            <rect x="1883.82" y="1414.49" width="20.639" height="17.792" style="fill:rgb(104,0,90);"/>
        </g>
        <g transform="matrix(0.454572,0,0,1,1580.91,183.794)">
            <rect x="1883.82" y="1414.49" width="20.639" height="17.792" style="fill:rgb(29,29,29);"/>
        </g>
        <g transform="matrix(0.454572,0,0,1,1369.92,183.794)">
            <rect x="1883.82" y="1414.49" width="20.639" height="17.792" style="fill:rgb(29,29,29);"/>
        </g>
        <g transform="matrix(0.454572,0,0,1,1783.86,183.794)">
            <rect x="1883.82" y="1414.49" width="20.639" height="17.792" style="fill:rgb(29,29,29);"/>
        </g>
        <g transform="matrix(0.454572,0,0,1,1089.47,183.794)">
            <rect x="1883.82" y="1414.49" width="20.639" height="17.792" style="fill:rgb(104,0,90);"/>
        </g>
        <g transform="matrix(0.454572,0,0,1,1503.42,183.794)">
            <rect x="1883.82" y="1414.49" width="20.639" height="17.792" style="fill:rgb(29,29,29);"/>
        </g>
        <g transform="matrix(0.454572,0,0,1,1292.43,183.794)">
            <rect x="1883.82" y="1414.49" width="20.639" height="17.792" style="fill:rgb(29,29,29);"/>
        </g>
        <g transform="matrix(0.454572,0,0,1,1706.37,183.794)">
            <rect x="1883.82" y="1414.49" width="20.639" height="17.792" style="fill:rgb(29,29,29);"/>
        </g>
        <g transform="matrix(0.454572,0,0,1,1191.19,183.794)">
            <rect x="1883.82" y="1414.49" width="20.639" height="17.792" style="fill:rgb(255,173,244);"/>
        </g>
        <g transform="matrix(0.454572,0,0,1,1605.13,183.794)">
            <rect x="1883.82" y="1414.49" width="20.639" height="17.792" style="fill:rgb(29,29,29);"/>
        </g>
        <g transform="matrix(0.454572,0,0,1,1394.14,183.794)">
            <rect x="1883.82" y="1414.49" width="20.639" height="17.792" style="fill:rgb(29,29,29);"/>
        </g>
        <g transform="matrix(0.454572,0,0,1,1808.08,183.794)">
            <rect x="1883.82" y="1414.49" width="20.639" height="17.792" style="fill:rgb(29,29,29);"/>
        </g>
        <g transform="matrix(0.703822,0,0,0.703822,625.179,625.612)">
            <g transform="matrix(50,0,0,50,1708.03,1410.21)">
                <path d="M0.55,-0.358C0.55,-0.295 0.543,-0.241 0.53,-0.195C0.516,-0.149 0.498,-0.112 0.475,-0.082C0.451,-0.051 0.424,-0.029 0.392,-0.015C0.36,0 0.326,0.008 0.29,0.008C0.253,0.008 0.219,0 0.187,-0.015C0.156,-0.029 0.128,-0.051 0.105,-0.082C0.082,-0.112 0.063,-0.149 0.05,-0.195C0.037,-0.241 0.03,-0.295 0.03,-0.358C0.03,-0.421 0.037,-0.475 0.05,-0.521C0.063,-0.567 0.082,-0.605 0.105,-0.635C0.128,-0.665 0.156,-0.688 0.187,-0.703C0.219,-0.717 0.253,-0.725 0.29,-0.725C0.326,-0.725 0.36,-0.717 0.392,-0.703C0.424,-0.688 0.451,-0.665 0.475,-0.635C0.498,-0.605 0.516,-0.567 0.53,-0.521C0.543,-0.475 0.55,-0.421 0.55,-0.358ZM0.458,-0.358C0.458,-0.413 0.453,-0.458 0.444,-0.496C0.435,-0.533 0.422,-0.563 0.407,-0.586C0.391,-0.608 0.373,-0.624 0.353,-0.634C0.333,-0.644 0.312,-0.649 0.29,-0.649C0.268,-0.649 0.246,-0.644 0.226,-0.634C0.206,-0.624 0.188,-0.608 0.173,-0.586C0.157,-0.563 0.145,-0.533 0.136,-0.496C0.127,-0.458 0.122,-0.413 0.122,-0.358C0.122,-0.303 0.127,-0.258 0.136,-0.221C0.145,-0.184 0.157,-0.154 0.173,-0.131C0.188,-0.108 0.206,-0.092 0.226,-0.082C0.246,-0.072 0.268,-0.068 0.29,-0.068C0.312,-0.068 0.333,-0.072 0.353,-0.082C0.373,-0.092 0.391,-0.108 0.407,-0.131C0.422,-0.154 0.435,-0.184 0.444,-0.221C0.453,-0.258 0.458,-0.303 0.458,-0.358Z" style="fill-rule:nonzero;"/>
            </g>
        </g>
        <g transform="matrix(0.650032,0,0,0.650032,1317.29,603.365)">
            <g transform="matrix(50,0,0,50,2105.16,1562.52)">
                <path d="M0.55,-0.358C0.55,-0.295 0.543,-0.241 0.53,-0.195C0.516,-0.149 0.498,-0.112 0.475,-0.082C0.451,-0.051 0.424,-0.029 0.392,-0.015C0.36,0 0.326,0.008 0.29,0.008C0.253,0.008 0.219,0 0.187,-0.015C0.156,-0.029 0.128,-0.051 0.105,-0.082C0.082,-0.112 0.063,-0.149 0.05,-0.195C0.037,-0.241 0.03,-0.295 0.03,-0.358C0.03,-0.421 0.037,-0.475 0.05,-0.521C0.063,-0.567 0.082,-0.605 0.105,-0.635C0.128,-0.665 0.156,-0.688 0.187,-0.703C0.219,-0.717 0.253,-0.725 0.29,-0.725C0.326,-0.725 0.36,-0.717 0.392,-0.703C0.424,-0.688 0.451,-0.665 0.475,-0.635C0.498,-0.605 0.516,-0.567 0.53,-0.521C0.543,-0.475 0.55,-0.421 0.55,-0.358ZM0.458,-0.358C0.458,-0.413 0.453,-0.458 0.444,-0.496C0.435,-0.533 0.422,-0.563 0.407,-0.586C0.391,-0.608 0.373,-0.624 0.353,-0.634C0.333,-0.644 0.312,-0.649 0.29,-0.649C0.268,-0.649 0.246,-0.644 0.226,-0.634C0.206,-0.624 0.188,-0.608 0.173,-0.586C0.157,-0.563 0.145,-0.533 0.136,-0.496C0.127,-0.458 0.122,-0.413 0.122,-0.358C0.122,-0.303 0.127,-0.258 0.136,-0.221C0.145,-0.184 0.157,-0.154 0.173,-0.131C0.188,-0.108 0.206,-0.092 0.226,-0.082C0.246,-0.072 0.268,-0.068 0.29,-0.068C0.312,-0.068 0.333,-0.072 0.353,-0.082C0.373,-0.092 0.391,-0.108 0.407,-0.131C0.422,-0.154 0.435,-0.184 0.444,-0.221C0.453,-0.258 0.458,-0.303 0.458,-0.358Z" style="fill-rule:nonzero;"/>
            </g>
            <g transform="matrix(50,0,0,50,2134.16,1562.52)">
                <path d="M0.192,-0.26L0.021,-0.507L0.107,-0.507C0.114,-0.507 0.119,-0.505 0.123,-0.503C0.126,-0.501 0.129,-0.497 0.132,-0.493L0.256,-0.303C0.259,-0.312 0.263,-0.322 0.269,-0.331L0.378,-0.491C0.381,-0.496 0.384,-0.499 0.388,-0.502C0.391,-0.505 0.395,-0.507 0.4,-0.507L0.482,-0.507L0.312,-0.265L0.489,-0L0.404,-0C0.396,-0 0.39,-0.002 0.386,-0.006C0.382,-0.01 0.379,-0.014 0.376,-0.019L0.249,-0.217C0.246,-0.207 0.243,-0.199 0.238,-0.191L0.12,-0.019C0.117,-0.014 0.113,-0.01 0.109,-0.006C0.105,-0.002 0.1,-0 0.094,-0L0.014,-0L0.192,-0.26Z" style="fill-rule:nonzero;"/>
            </g>
            <g transform="matrix(50,0,0,50,2159.36,1562.52)">
                <path d="M0.529,-0.717L0.529,-0.638L0.185,-0.638L0.185,-0.387L0.479,-0.387L0.479,-0.308L0.185,-0.308L0.185,-0L0.087,-0L0.087,-0.717L0.529,-0.717Z" style="fill-rule:nonzero;"/>
            </g>
            <g transform="matrix(50,0,0,50,2187.66,1562.52)">
                <path d="M0.529,-0.717L0.529,-0.638L0.185,-0.638L0.185,-0.387L0.479,-0.387L0.479,-0.308L0.185,-0.308L0.185,-0L0.087,-0L0.087,-0.717L0.529,-0.717Z" style="fill-rule:nonzero;"/>
            </g>
            <g transform="matrix(50,0,0,50,2215.96,1562.52)">
                <path d="M0.529,-0.717L0.529,-0.638L0.185,-0.638L0.185,-0.387L0.479,-0.387L0.479,-0.308L0.185,-0.308L0.185,-0L0.087,-0L0.087,-0.717L0.529,-0.717Z" style="fill-rule:nonzero;"/>
            </g>
            <g transform="matrix(50,0,0,50,2244.26,1562.52)">
                <path d="M0.529,-0.717L0.529,-0.638L0.185,-0.638L0.185,-0.387L0.479,-0.387L0.479,-0.308L0.185,-0.308L0.185,-0L0.087,-0L0.087,-0.717L0.529,-0.717Z" style="fill-rule:nonzero;"/>
            </g>
            <g transform="matrix(50,0,0,50,2272.56,1562.52)">
                <path d="M0.529,-0.717L0.529,-0.638L0.185,-0.638L0.185,-0.387L0.479,-0.387L0.479,-0.308L0.185,-0.308L0.185,-0L0.087,-0L0.087,-0.717L0.529,-0.717Z" style="fill-rule:nonzero;"/>
            </g>
            <g transform="matrix(50,0,0,50,2300.86,1562.52)">
                <path d="M0.529,-0.717L0.529,-0.638L0.185,-0.638L0.185,-0.387L0.479,-0.387L0.479,-0.308L0.185,-0.308L0.185,-0L0.087,-0L0.087,-0.717L0.529,-0.717Z" style="fill-rule:nonzero;"/>
            </g>
            <g transform="matrix(50,0,0,50,2329.16,1562.52)">
                <path d="M0.529,-0.717L0.529,-0.638L0.185,-0.638L0.185,-0.387L0.479,-0.387L0.479,-0.308L0.185,-0.308L0.185,-0L0.087,-0L0.087,-0.717L0.529,-0.717Z" style="fill-rule:nonzero;"/>
            </g>
            <g transform="matrix(50,0,0,50,2357.46,1562.52)">
                <path d="M0.529,-0.717L0.529,-0.638L0.185,-0.638L0.185,-0.387L0.479,-0.387L0.479,-0.308L0.185,-0.308L0.185,-0L0.087,-0L0.087,-0.717L0.529,-0.717Z" style="fill-rule:nonzero;"/>
            </g>
        </g>
        <g transform="matrix(1,0,0,1,-9.10962,44.0678)">
            <g transform="matrix(33.3333,0,0,33.3333,1931.24,1680.11)">
                <path d="M0.254,-0.368L0.017,-0.717L0.114,-0.717C0.121,-0.717 0.126,-0.715 0.129,-0.713C0.132,-0.711 0.135,-0.707 0.138,-0.703L0.325,-0.416C0.327,-0.423 0.331,-0.431 0.336,-0.439L0.512,-0.701C0.515,-0.706 0.518,-0.709 0.522,-0.712C0.525,-0.715 0.53,-0.717 0.535,-0.717L0.627,-0.717L0.39,-0.373L0.635,-0L0.539,-0C0.532,-0 0.526,-0.002 0.522,-0.006C0.518,-0.01 0.514,-0.014 0.512,-0.019L0.32,-0.319C0.317,-0.312 0.314,-0.305 0.311,-0.299L0.124,-0.019C0.121,-0.014 0.117,-0.01 0.113,-0.006C0.109,-0.002 0.104,-0 0.097,-0L0.007,-0L0.254,-0.368Z" style="fill:rgb(0,103,165);fill-rule:nonzero;"/>
            </g>
            <g transform="matrix(33.3333,0,0,33.3333,1952.68,1680.11)">
                <path d="M0.529,-0.717L0.529,-0.638L0.185,-0.638L0.185,-0.387L0.479,-0.387L0.479,-0.308L0.185,-0.308L0.185,-0L0.087,-0L0.087,-0.717L0.529,-0.717Z" style="fill:rgb(0,103,165);fill-rule:nonzero;"/>
            </g>
            <g transform="matrix(33.3333,0,0,33.3333,1971.54,1680.11)">
                <path d="M0.445,-0L0.406,-0C0.397,-0 0.39,-0.001 0.385,-0.004C0.379,-0.007 0.376,-0.012 0.374,-0.021L0.364,-0.068C0.351,-0.056 0.338,-0.045 0.325,-0.036C0.312,-0.026 0.299,-0.018 0.285,-0.012C0.271,-0.005 0.256,-0 0.24,0.003C0.224,0.006 0.207,0.008 0.188,0.008C0.168,0.008 0.149,0.005 0.132,-0C0.115,-0.006 0.1,-0.014 0.088,-0.025C0.075,-0.036 0.065,-0.05 0.057,-0.067C0.05,-0.084 0.046,-0.103 0.046,-0.127C0.046,-0.147 0.051,-0.166 0.063,-0.184C0.074,-0.203 0.091,-0.219 0.116,-0.234C0.14,-0.248 0.172,-0.26 0.212,-0.269C0.252,-0.278 0.3,-0.283 0.358,-0.285L0.358,-0.324C0.358,-0.363 0.349,-0.393 0.332,-0.413C0.315,-0.433 0.291,-0.444 0.258,-0.444C0.236,-0.444 0.218,-0.441 0.203,-0.435C0.188,-0.43 0.175,-0.424 0.164,-0.417C0.153,-0.41 0.144,-0.404 0.136,-0.398C0.128,-0.393 0.121,-0.39 0.113,-0.39C0.107,-0.39 0.102,-0.392 0.097,-0.395C0.093,-0.398 0.089,-0.402 0.087,-0.407L0.071,-0.435C0.098,-0.462 0.129,-0.482 0.161,-0.496C0.193,-0.509 0.229,-0.516 0.269,-0.516C0.297,-0.516 0.322,-0.511 0.344,-0.502C0.366,-0.492 0.385,-0.479 0.4,-0.463C0.415,-0.446 0.426,-0.426 0.434,-0.402C0.441,-0.378 0.445,-0.352 0.445,-0.324L0.445,-0ZM0.214,-0.055C0.23,-0.055 0.244,-0.056 0.257,-0.059C0.27,-0.062 0.282,-0.067 0.294,-0.073C0.305,-0.079 0.316,-0.086 0.327,-0.094C0.337,-0.102 0.347,-0.112 0.358,-0.123L0.358,-0.228C0.317,-0.227 0.282,-0.223 0.253,-0.218C0.224,-0.213 0.201,-0.206 0.183,-0.198C0.165,-0.19 0.152,-0.18 0.144,-0.169C0.136,-0.157 0.132,-0.145 0.132,-0.131C0.132,-0.117 0.134,-0.106 0.138,-0.096C0.142,-0.086 0.148,-0.078 0.156,-0.072C0.163,-0.066 0.171,-0.062 0.182,-0.059C0.192,-0.056 0.202,-0.055 0.214,-0.055Z" style="fill:rgb(0,103,165);fill-rule:nonzero;"/>
            </g>
            <g transform="matrix(33.3333,0,0,33.3333,1988.44,1680.11)">
                <path d="M0.43,-0C0.417,-0 0.409,-0.006 0.406,-0.019L0.398,-0.08C0.376,-0.054 0.351,-0.033 0.323,-0.017C0.295,-0.001 0.264,0.007 0.228,0.007C0.199,0.007 0.172,0.002 0.149,-0.01C0.125,-0.021 0.105,-0.037 0.088,-0.059C0.071,-0.081 0.058,-0.108 0.05,-0.14C0.041,-0.172 0.036,-0.21 0.036,-0.252C0.036,-0.289 0.041,-0.323 0.051,-0.356C0.061,-0.388 0.075,-0.416 0.094,-0.44C0.113,-0.463 0.136,-0.482 0.163,-0.495C0.19,-0.509 0.221,-0.516 0.255,-0.516C0.286,-0.516 0.313,-0.51 0.335,-0.5C0.357,-0.489 0.376,-0.474 0.394,-0.456L0.394,-0.737L0.483,-0.737L0.483,-0L0.43,-0ZM0.257,-0.065C0.286,-0.065 0.311,-0.072 0.333,-0.085C0.355,-0.098 0.375,-0.117 0.394,-0.142L0.394,-0.387C0.377,-0.409 0.359,-0.424 0.34,-0.433C0.32,-0.442 0.299,-0.446 0.275,-0.446C0.228,-0.446 0.191,-0.429 0.166,-0.396C0.141,-0.362 0.128,-0.314 0.128,-0.252C0.128,-0.219 0.131,-0.19 0.137,-0.167C0.142,-0.143 0.151,-0.124 0.162,-0.109C0.172,-0.094 0.186,-0.083 0.202,-0.076C0.218,-0.069 0.236,-0.065 0.257,-0.065Z" style="fill:rgb(0,103,165);fill-rule:nonzero;"/>
            </g>
            <g transform="matrix(33.3333,0,0,33.3333,2007.08,1680.11)">
                <path d="M0.274,-0.515C0.304,-0.515 0.332,-0.509 0.358,-0.499C0.383,-0.489 0.405,-0.474 0.424,-0.455C0.443,-0.436 0.457,-0.412 0.468,-0.384C0.478,-0.356 0.484,-0.324 0.484,-0.288C0.484,-0.274 0.482,-0.265 0.479,-0.26C0.476,-0.255 0.47,-0.253 0.462,-0.253L0.125,-0.253C0.126,-0.221 0.13,-0.193 0.138,-0.17C0.146,-0.146 0.157,-0.126 0.171,-0.11C0.185,-0.094 0.202,-0.083 0.221,-0.075C0.24,-0.067 0.262,-0.063 0.286,-0.063C0.308,-0.063 0.328,-0.066 0.344,-0.071C0.36,-0.076 0.374,-0.082 0.386,-0.088C0.397,-0.094 0.407,-0.099 0.415,-0.104C0.423,-0.109 0.429,-0.112 0.435,-0.112C0.442,-0.112 0.448,-0.109 0.452,-0.104L0.477,-0.071C0.466,-0.058 0.453,-0.046 0.438,-0.036C0.422,-0.026 0.406,-0.018 0.388,-0.012C0.371,-0.006 0.353,-0.001 0.334,0.002C0.315,0.005 0.297,0.007 0.279,0.007C0.244,0.007 0.211,0.001 0.182,-0.011C0.152,-0.023 0.127,-0.04 0.105,-0.063C0.084,-0.086 0.067,-0.114 0.055,-0.148C0.043,-0.181 0.037,-0.22 0.037,-0.264C0.037,-0.299 0.042,-0.332 0.053,-0.363C0.064,-0.393 0.08,-0.42 0.1,-0.442C0.12,-0.465 0.145,-0.482 0.175,-0.495C0.204,-0.508 0.237,-0.515 0.274,-0.515ZM0.276,-0.449C0.233,-0.449 0.199,-0.437 0.174,-0.412C0.149,-0.387 0.134,-0.353 0.128,-0.309L0.404,-0.309C0.404,-0.329 0.401,-0.348 0.395,-0.365C0.389,-0.382 0.381,-0.397 0.37,-0.41C0.359,-0.422 0.345,-0.432 0.33,-0.439C0.314,-0.446 0.296,-0.449 0.276,-0.449Z" style="fill:rgb(0,103,165);fill-rule:nonzero;"/>
            </g>
            <g transform="matrix(33.3333,0,0,33.3333,2030.98,1680.11)">
                <path d="M0.145,-0.315C0.145,-0.243 0.154,-0.174 0.172,-0.107C0.19,-0.04 0.217,0.025 0.252,0.086C0.254,0.089 0.255,0.092 0.256,0.095C0.256,0.098 0.257,0.1 0.257,0.103C0.257,0.108 0.255,0.112 0.253,0.115C0.251,0.118 0.248,0.12 0.244,0.123L0.205,0.147C0.18,0.108 0.158,0.07 0.141,0.033C0.123,-0.005 0.109,-0.043 0.098,-0.081C0.087,-0.119 0.08,-0.157 0.075,-0.196C0.07,-0.234 0.067,-0.274 0.067,-0.315C0.067,-0.355 0.07,-0.394 0.075,-0.433C0.08,-0.472 0.087,-0.51 0.098,-0.548C0.109,-0.586 0.123,-0.623 0.141,-0.661C0.158,-0.699 0.18,-0.737 0.205,-0.776L0.244,-0.751C0.248,-0.749 0.251,-0.746 0.253,-0.743C0.255,-0.74 0.257,-0.736 0.257,-0.732C0.257,-0.727 0.255,-0.721 0.252,-0.715C0.217,-0.654 0.19,-0.59 0.172,-0.523C0.154,-0.455 0.145,-0.386 0.145,-0.315Z" style="fill:rgb(0,103,165);fill-rule:nonzero;"/>
            </g>
            <g transform="matrix(33.3333,0,0,33.3333,2040.98,1680.11)">
                <path d="M0.301,-0.725C0.331,-0.725 0.359,-0.72 0.386,-0.711C0.412,-0.702 0.435,-0.689 0.454,-0.672C0.473,-0.655 0.488,-0.634 0.499,-0.609C0.51,-0.584 0.516,-0.556 0.516,-0.525C0.516,-0.498 0.511,-0.474 0.504,-0.451C0.496,-0.428 0.485,-0.407 0.471,-0.386C0.457,-0.365 0.442,-0.345 0.424,-0.325C0.406,-0.306 0.387,-0.286 0.367,-0.266L0.179,-0.073C0.192,-0.076 0.205,-0.079 0.219,-0.081C0.233,-0.083 0.246,-0.085 0.259,-0.085L0.499,-0.085C0.508,-0.085 0.516,-0.082 0.522,-0.076C0.527,-0.07 0.53,-0.063 0.53,-0.054L0.53,-0L0.052,-0L0.052,-0.031C0.052,-0.037 0.053,-0.043 0.056,-0.05C0.058,-0.057 0.062,-0.063 0.068,-0.069L0.298,-0.299C0.317,-0.318 0.334,-0.337 0.35,-0.355C0.365,-0.373 0.379,-0.391 0.39,-0.409C0.401,-0.427 0.41,-0.445 0.416,-0.463C0.422,-0.482 0.424,-0.501 0.425,-0.523C0.424,-0.544 0.421,-0.562 0.415,-0.578C0.408,-0.594 0.399,-0.607 0.387,-0.617C0.375,-0.627 0.362,-0.635 0.346,-0.64C0.33,-0.645 0.314,-0.648 0.296,-0.648C0.278,-0.648 0.261,-0.645 0.246,-0.64C0.23,-0.635 0.217,-0.627 0.205,-0.618C0.193,-0.608 0.183,-0.597 0.175,-0.584C0.167,-0.571 0.161,-0.557 0.158,-0.541C0.155,-0.531 0.151,-0.524 0.146,-0.52C0.14,-0.516 0.133,-0.514 0.125,-0.514L0.119,-0.514C0.117,-0.514 0.067,-0.523 0.067,-0.523C0.071,-0.555 0.08,-0.584 0.094,-0.609C0.107,-0.634 0.124,-0.656 0.144,-0.673C0.165,-0.69 0.188,-0.702 0.215,-0.711C0.241,-0.72 0.27,-0.725 0.301,-0.725Z" style="fill:rgb(0,103,165);fill-rule:nonzero;"/>
            </g>
            <g transform="matrix(33.3333,0,0,33.3333,2060.31,1680.11)">
                <path d="M0.258,-0.717L0.316,-0.717L0.495,-0.394L0.43,-0.394C0.424,-0.394 0.42,-0.395 0.416,-0.399C0.412,-0.402 0.408,-0.406 0.406,-0.411L0.308,-0.587C0.303,-0.594 0.299,-0.602 0.296,-0.609C0.293,-0.616 0.29,-0.623 0.288,-0.63C0.283,-0.615 0.277,-0.601 0.27,-0.587L0.173,-0.411C0.17,-0.406 0.167,-0.402 0.163,-0.399C0.159,-0.395 0.154,-0.394 0.147,-0.394L0.079,-0.394L0.258,-0.717Z" style="fill:rgb(0,103,165);fill-rule:nonzero;"/>
            </g>
            <g transform="matrix(33.3333,0,0,33.3333,2079.64,1680.11)">
                <path d="M0.301,-0.725C0.331,-0.725 0.359,-0.72 0.386,-0.711C0.412,-0.702 0.435,-0.689 0.454,-0.672C0.473,-0.655 0.488,-0.634 0.499,-0.609C0.51,-0.584 0.516,-0.556 0.516,-0.525C0.516,-0.498 0.511,-0.474 0.504,-0.451C0.496,-0.428 0.485,-0.407 0.471,-0.386C0.457,-0.365 0.442,-0.345 0.424,-0.325C0.406,-0.306 0.387,-0.286 0.367,-0.266L0.179,-0.073C0.192,-0.076 0.205,-0.079 0.219,-0.081C0.233,-0.083 0.246,-0.085 0.259,-0.085L0.499,-0.085C0.508,-0.085 0.516,-0.082 0.522,-0.076C0.527,-0.07 0.53,-0.063 0.53,-0.054L0.53,-0L0.052,-0L0.052,-0.031C0.052,-0.037 0.053,-0.043 0.056,-0.05C0.058,-0.057 0.062,-0.063 0.068,-0.069L0.298,-0.299C0.317,-0.318 0.334,-0.337 0.35,-0.355C0.365,-0.373 0.379,-0.391 0.39,-0.409C0.401,-0.427 0.41,-0.445 0.416,-0.463C0.422,-0.482 0.424,-0.501 0.425,-0.523C0.424,-0.544 0.421,-0.562 0.415,-0.578C0.408,-0.594 0.399,-0.607 0.387,-0.617C0.375,-0.627 0.362,-0.635 0.346,-0.64C0.33,-0.645 0.314,-0.648 0.296,-0.648C0.278,-0.648 0.261,-0.645 0.246,-0.64C0.23,-0.635 0.217,-0.627 0.205,-0.618C0.193,-0.608 0.183,-0.597 0.175,-0.584C0.167,-0.571 0.161,-0.557 0.158,-0.541C0.155,-0.531 0.151,-0.524 0.146,-0.52C0.14,-0.516 0.133,-0.514 0.125,-0.514L0.119,-0.514C0.117,-0.514 0.067,-0.523 0.067,-0.523C0.071,-0.555 0.08,-0.584 0.094,-0.609C0.107,-0.634 0.124,-0.656 0.144,-0.673C0.165,-0.69 0.188,-0.702 0.215,-0.711C0.241,-0.72 0.27,-0.725 0.301,-0.725Z" style="fill:rgb(0,103,165);fill-rule:nonzero;"/>
            </g>
            <g transform="matrix(33.3333,0,0,33.3333,2105.41,1680.11)">
                <path d="M0.075,-0.287L0.505,-0.287L0.505,-0.22L0.075,-0.22L0.075,-0.287ZM0.075,-0.455L0.505,-0.455L0.505,-0.387L0.075,-0.387L0.075,-0.455Z" style="fill:rgb(0,103,165);fill-rule:nonzero;"/>
            </g>
            <g transform="matrix(33.3333,0,0,33.3333,2131.18,1680.11)">
                <path d="M0.452,-0.259L0.56,-0.259L0.56,-0.208C0.56,-0.202 0.558,-0.198 0.555,-0.194C0.552,-0.19 0.547,-0.189 0.541,-0.189L0.452,-0.189L0.452,-0L0.373,-0L0.373,-0.189L0.056,-0.189C0.049,-0.189 0.043,-0.19 0.038,-0.194C0.033,-0.198 0.03,-0.203 0.029,-0.209L0.02,-0.254L0.369,-0.717L0.452,-0.717L0.452,-0.259ZM0.373,-0.554C0.373,-0.563 0.373,-0.572 0.374,-0.582C0.374,-0.592 0.375,-0.602 0.377,-0.613L0.117,-0.259L0.373,-0.259L0.373,-0.554Z" style="fill:rgb(0,103,165);fill-rule:nonzero;"/>
            </g>
            <g transform="matrix(33.3333,0,0,33.3333,2150.51,1680.11)">
                <path d="M0.149,-0.315C0.149,-0.386 0.14,-0.455 0.122,-0.523C0.103,-0.59 0.077,-0.654 0.042,-0.715C0.039,-0.721 0.037,-0.727 0.037,-0.732C0.037,-0.736 0.038,-0.74 0.041,-0.743C0.043,-0.746 0.046,-0.749 0.05,-0.751L0.089,-0.776C0.114,-0.737 0.135,-0.699 0.153,-0.661C0.17,-0.623 0.184,-0.586 0.195,-0.548C0.206,-0.51 0.214,-0.472 0.219,-0.433C0.224,-0.394 0.227,-0.355 0.227,-0.315C0.227,-0.274 0.224,-0.234 0.219,-0.196C0.214,-0.157 0.206,-0.119 0.195,-0.081C0.184,-0.043 0.17,-0.005 0.153,0.033C0.135,0.07 0.114,0.108 0.089,0.147L0.05,0.123C0.046,0.12 0.043,0.118 0.041,0.115C0.038,0.112 0.037,0.108 0.037,0.103C0.037,0.1 0.037,0.098 0.038,0.095C0.039,0.092 0.04,0.089 0.042,0.086C0.077,0.025 0.103,-0.04 0.122,-0.107C0.14,-0.174 0.149,-0.243 0.149,-0.315Z" style="fill:rgb(0,103,165);fill-rule:nonzero;"/>
            </g>
        </g>
        <g transform="matrix(1,0,0,1,-45.5481,28.0121)">
            <g transform="matrix(33.3333,0,0,33.3333,1989.09,1644.13)">
                <path d="M0.184,-0.082L0.494,-0.082L0.494,-0L0.087,-0L0.087,-0.717L0.184,-0.717L0.184,-0.082Z" style="fill:rgb(104,0,90);fill-rule:nonzero;"/>
            </g>
            <g transform="matrix(33.3333,0,0,33.3333,2005.62,1644.13)">
                <path d="M0.274,-0.515C0.304,-0.515 0.332,-0.509 0.358,-0.499C0.383,-0.489 0.405,-0.474 0.424,-0.455C0.443,-0.436 0.457,-0.412 0.468,-0.384C0.478,-0.356 0.484,-0.324 0.484,-0.288C0.484,-0.274 0.482,-0.265 0.479,-0.26C0.476,-0.255 0.47,-0.253 0.462,-0.253L0.125,-0.253C0.126,-0.221 0.13,-0.193 0.138,-0.17C0.146,-0.146 0.157,-0.126 0.171,-0.11C0.185,-0.094 0.202,-0.083 0.221,-0.075C0.24,-0.067 0.262,-0.063 0.286,-0.063C0.308,-0.063 0.328,-0.066 0.344,-0.071C0.36,-0.076 0.374,-0.082 0.386,-0.088C0.397,-0.094 0.407,-0.099 0.415,-0.104C0.423,-0.109 0.429,-0.112 0.435,-0.112C0.442,-0.112 0.448,-0.109 0.452,-0.104L0.477,-0.071C0.466,-0.058 0.453,-0.046 0.438,-0.036C0.422,-0.026 0.406,-0.018 0.388,-0.012C0.371,-0.006 0.353,-0.001 0.334,0.002C0.315,0.005 0.297,0.007 0.279,0.007C0.244,0.007 0.211,0.001 0.182,-0.011C0.152,-0.023 0.127,-0.04 0.105,-0.063C0.084,-0.086 0.067,-0.114 0.055,-0.148C0.043,-0.181 0.037,-0.22 0.037,-0.264C0.037,-0.299 0.042,-0.332 0.053,-0.363C0.064,-0.393 0.08,-0.42 0.1,-0.442C0.12,-0.465 0.145,-0.482 0.175,-0.495C0.204,-0.508 0.237,-0.515 0.274,-0.515ZM0.276,-0.449C0.233,-0.449 0.199,-0.437 0.174,-0.412C0.149,-0.387 0.134,-0.353 0.128,-0.309L0.404,-0.309C0.404,-0.329 0.401,-0.348 0.395,-0.365C0.389,-0.382 0.381,-0.397 0.37,-0.41C0.359,-0.422 0.345,-0.432 0.33,-0.439C0.314,-0.446 0.296,-0.449 0.276,-0.449Z" style="fill:rgb(104,0,90);fill-rule:nonzero;"/>
            </g>
            <g transform="matrix(33.3333,0,0,33.3333,2023.09,1644.13)">
                <path d="M0.244,-0.515C0.266,-0.515 0.286,-0.513 0.305,-0.508C0.324,-0.503 0.342,-0.496 0.358,-0.487L0.495,-0.487L0.495,-0.454C0.495,-0.443 0.488,-0.436 0.474,-0.433L0.417,-0.425C0.428,-0.403 0.434,-0.379 0.434,-0.352C0.434,-0.327 0.429,-0.305 0.419,-0.285C0.41,-0.265 0.397,-0.247 0.38,-0.233C0.363,-0.219 0.343,-0.208 0.32,-0.2C0.297,-0.192 0.271,-0.189 0.244,-0.189C0.22,-0.189 0.198,-0.191 0.177,-0.197C0.166,-0.19 0.158,-0.183 0.152,-0.176C0.147,-0.168 0.144,-0.16 0.144,-0.153C0.144,-0.141 0.149,-0.132 0.159,-0.126C0.168,-0.12 0.181,-0.115 0.197,-0.113C0.213,-0.11 0.231,-0.108 0.252,-0.108C0.272,-0.107 0.293,-0.106 0.314,-0.104C0.335,-0.103 0.356,-0.1 0.376,-0.097C0.396,-0.093 0.415,-0.087 0.431,-0.079C0.447,-0.07 0.459,-0.059 0.469,-0.044C0.479,-0.029 0.484,-0.01 0.484,0.013C0.484,0.035 0.478,0.056 0.467,0.076C0.456,0.096 0.441,0.114 0.421,0.13C0.4,0.146 0.375,0.159 0.346,0.168C0.317,0.178 0.284,0.183 0.247,0.183C0.21,0.183 0.177,0.179 0.149,0.172C0.121,0.164 0.098,0.154 0.08,0.142C0.062,0.13 0.048,0.115 0.039,0.099C0.029,0.083 0.025,0.066 0.025,0.049C0.025,0.024 0.033,0.002 0.049,-0.015C0.065,-0.033 0.086,-0.047 0.114,-0.057C0.1,-0.064 0.088,-0.073 0.08,-0.084C0.071,-0.095 0.067,-0.11 0.067,-0.129C0.067,-0.136 0.068,-0.143 0.071,-0.151C0.074,-0.159 0.078,-0.167 0.083,-0.175C0.089,-0.182 0.095,-0.19 0.104,-0.197C0.112,-0.204 0.121,-0.21 0.132,-0.215C0.107,-0.229 0.087,-0.248 0.073,-0.271C0.058,-0.294 0.052,-0.321 0.052,-0.352C0.052,-0.377 0.056,-0.399 0.066,-0.419C0.075,-0.439 0.089,-0.456 0.106,-0.471C0.123,-0.485 0.143,-0.496 0.166,-0.504C0.19,-0.511 0.216,-0.515 0.244,-0.515ZM0.402,0.028C0.402,0.015 0.398,0.005 0.391,-0.003C0.384,-0.011 0.375,-0.017 0.363,-0.021C0.351,-0.025 0.337,-0.028 0.321,-0.03C0.305,-0.032 0.289,-0.033 0.272,-0.034C0.254,-0.035 0.237,-0.036 0.219,-0.037C0.201,-0.038 0.183,-0.04 0.167,-0.043C0.148,-0.034 0.133,-0.023 0.121,-0.01C0.109,0.004 0.103,0.019 0.103,0.037C0.103,0.048 0.106,0.059 0.112,0.069C0.117,0.079 0.127,0.087 0.139,0.094C0.151,0.101 0.166,0.107 0.184,0.111C0.202,0.115 0.223,0.118 0.248,0.118C0.272,0.118 0.294,0.115 0.313,0.111C0.332,0.107 0.347,0.1 0.361,0.093C0.374,0.085 0.384,0.075 0.391,0.064C0.398,0.053 0.402,0.041 0.402,0.028ZM0.244,-0.248C0.262,-0.247 0.277,-0.25 0.291,-0.255C0.305,-0.26 0.317,-0.267 0.326,-0.276C0.335,-0.285 0.342,-0.296 0.347,-0.308C0.352,-0.321 0.354,-0.335 0.354,-0.35C0.354,-0.381 0.345,-0.405 0.326,-0.424C0.307,-0.442 0.28,-0.451 0.244,-0.451C0.208,-0.451 0.181,-0.442 0.162,-0.424C0.143,-0.405 0.134,-0.381 0.134,-0.35C0.134,-0.335 0.136,-0.321 0.141,-0.308C0.146,-0.296 0.153,-0.285 0.162,-0.276C0.171,-0.267 0.183,-0.26 0.197,-0.255C0.21,-0.25 0.226,-0.247 0.244,-0.248Z" style="fill:rgb(104,0,90);fill-rule:nonzero;"/>
            </g>
            <g transform="matrix(33.3333,0,0,33.3333,2040.12,1644.13)">
                <path d="M0.445,-0L0.406,-0C0.397,-0 0.39,-0.001 0.385,-0.004C0.379,-0.007 0.376,-0.012 0.374,-0.021L0.364,-0.068C0.351,-0.056 0.338,-0.045 0.325,-0.036C0.312,-0.026 0.299,-0.018 0.285,-0.012C0.271,-0.005 0.256,-0 0.24,0.003C0.224,0.006 0.207,0.008 0.188,0.008C0.168,0.008 0.149,0.005 0.132,-0C0.115,-0.006 0.1,-0.014 0.088,-0.025C0.075,-0.036 0.065,-0.05 0.057,-0.067C0.05,-0.084 0.046,-0.103 0.046,-0.127C0.046,-0.147 0.051,-0.166 0.063,-0.184C0.074,-0.203 0.091,-0.219 0.116,-0.234C0.14,-0.248 0.172,-0.26 0.212,-0.269C0.252,-0.278 0.3,-0.283 0.358,-0.285L0.358,-0.324C0.358,-0.363 0.349,-0.393 0.332,-0.413C0.315,-0.433 0.291,-0.444 0.258,-0.444C0.236,-0.444 0.218,-0.441 0.203,-0.435C0.188,-0.43 0.175,-0.424 0.164,-0.417C0.153,-0.41 0.144,-0.404 0.136,-0.398C0.128,-0.393 0.121,-0.39 0.113,-0.39C0.107,-0.39 0.102,-0.392 0.097,-0.395C0.093,-0.398 0.089,-0.402 0.087,-0.407L0.071,-0.435C0.098,-0.462 0.129,-0.482 0.161,-0.496C0.193,-0.509 0.229,-0.516 0.269,-0.516C0.297,-0.516 0.322,-0.511 0.344,-0.502C0.366,-0.492 0.385,-0.479 0.4,-0.463C0.415,-0.446 0.426,-0.426 0.434,-0.402C0.441,-0.378 0.445,-0.352 0.445,-0.324L0.445,-0ZM0.214,-0.055C0.23,-0.055 0.244,-0.056 0.257,-0.059C0.27,-0.062 0.282,-0.067 0.294,-0.073C0.305,-0.079 0.316,-0.086 0.327,-0.094C0.337,-0.102 0.347,-0.112 0.358,-0.123L0.358,-0.228C0.317,-0.227 0.282,-0.223 0.253,-0.218C0.224,-0.213 0.201,-0.206 0.183,-0.198C0.165,-0.19 0.152,-0.18 0.144,-0.169C0.136,-0.157 0.132,-0.145 0.132,-0.131C0.132,-0.117 0.134,-0.106 0.138,-0.096C0.142,-0.086 0.148,-0.078 0.156,-0.072C0.163,-0.066 0.171,-0.062 0.182,-0.059C0.192,-0.056 0.202,-0.055 0.214,-0.055Z" style="fill:rgb(104,0,90);fill-rule:nonzero;"/>
            </g>
            <g transform="matrix(33.3333,0,0,33.3333,2057.02,1644.13)">
                <path d="M0.227,0.008C0.187,0.008 0.156,-0.003 0.134,-0.026C0.113,-0.048 0.102,-0.08 0.102,-0.122L0.102,-0.432L0.041,-0.432C0.036,-0.432 0.031,-0.434 0.028,-0.437C0.024,-0.44 0.022,-0.445 0.022,-0.452L0.022,-0.487L0.105,-0.498L0.126,-0.654C0.126,-0.659 0.128,-0.663 0.132,-0.666C0.136,-0.669 0.14,-0.671 0.146,-0.671L0.191,-0.671L0.191,-0.497L0.336,-0.497L0.336,-0.432L0.191,-0.432L0.191,-0.128C0.191,-0.107 0.196,-0.091 0.207,-0.081C0.217,-0.07 0.23,-0.065 0.247,-0.065C0.256,-0.065 0.264,-0.066 0.271,-0.069C0.278,-0.071 0.284,-0.074 0.289,-0.077C0.294,-0.08 0.298,-0.083 0.301,-0.085C0.305,-0.088 0.308,-0.089 0.311,-0.089C0.315,-0.089 0.319,-0.086 0.323,-0.081L0.349,-0.038C0.334,-0.024 0.315,-0.012 0.294,-0.004C0.272,0.004 0.25,0.008 0.227,0.008Z" style="fill:rgb(104,0,90);fill-rule:nonzero;"/>
            </g>
            <g transform="matrix(33.3333,0,0,33.3333,2069.46,1644.13)">
                <path d="M0.278,-0.515C0.315,-0.515 0.348,-0.508 0.378,-0.496C0.408,-0.484 0.433,-0.466 0.454,-0.444C0.475,-0.421 0.491,-0.393 0.502,-0.361C0.513,-0.329 0.519,-0.293 0.519,-0.254C0.519,-0.214 0.513,-0.178 0.502,-0.146C0.491,-0.114 0.475,-0.086 0.454,-0.064C0.433,-0.041 0.408,-0.023 0.378,-0.011C0.348,0.001 0.315,0.007 0.278,0.007C0.241,0.007 0.208,0.001 0.178,-0.011C0.148,-0.023 0.123,-0.041 0.102,-0.064C0.081,-0.086 0.064,-0.114 0.053,-0.146C0.042,-0.178 0.036,-0.214 0.036,-0.254C0.036,-0.293 0.042,-0.329 0.053,-0.361C0.064,-0.393 0.081,-0.421 0.102,-0.444C0.123,-0.466 0.148,-0.484 0.178,-0.496C0.208,-0.508 0.241,-0.515 0.278,-0.515ZM0.278,-0.063C0.328,-0.063 0.365,-0.079 0.39,-0.113C0.415,-0.146 0.427,-0.193 0.427,-0.253C0.427,-0.313 0.415,-0.36 0.39,-0.394C0.365,-0.428 0.328,-0.444 0.278,-0.445C0.253,-0.444 0.231,-0.44 0.212,-0.432C0.193,-0.423 0.178,-0.41 0.165,-0.394C0.153,-0.378 0.143,-0.358 0.137,-0.334C0.131,-0.31 0.128,-0.283 0.128,-0.253C0.128,-0.223 0.131,-0.196 0.137,-0.173C0.143,-0.149 0.153,-0.129 0.165,-0.113C0.178,-0.096 0.193,-0.084 0.212,-0.076C0.231,-0.067 0.253,-0.063 0.278,-0.063Z" style="fill:rgb(104,0,90);fill-rule:nonzero;"/>
            </g>
            <g transform="matrix(33.3333,0,0,33.3333,2094.42,1644.13)">
                <path d="M0.145,-0.315C0.145,-0.243 0.154,-0.174 0.172,-0.107C0.19,-0.04 0.217,0.025 0.252,0.086C0.254,0.089 0.255,0.092 0.256,0.095C0.256,0.098 0.257,0.1 0.257,0.103C0.257,0.108 0.255,0.112 0.253,0.115C0.251,0.118 0.248,0.12 0.244,0.123L0.205,0.147C0.18,0.108 0.158,0.07 0.141,0.033C0.123,-0.005 0.109,-0.043 0.098,-0.081C0.087,-0.119 0.08,-0.157 0.075,-0.196C0.07,-0.234 0.067,-0.274 0.067,-0.315C0.067,-0.355 0.07,-0.394 0.075,-0.433C0.08,-0.472 0.087,-0.51 0.098,-0.548C0.109,-0.586 0.123,-0.623 0.141,-0.661C0.158,-0.699 0.18,-0.737 0.205,-0.776L0.244,-0.751C0.248,-0.749 0.251,-0.746 0.253,-0.743C0.255,-0.74 0.257,-0.736 0.257,-0.732C0.257,-0.727 0.255,-0.721 0.252,-0.715C0.217,-0.654 0.19,-0.59 0.172,-0.523C0.154,-0.455 0.145,-0.386 0.145,-0.315Z" style="fill:rgb(104,0,90);fill-rule:nonzero;"/>
            </g>
            <g transform="matrix(33.3333,0,0,33.3333,2104.42,1644.13)">
                <path d="M0.144,-0.068L0.298,-0.068L0.298,-0.557C0.298,-0.571 0.298,-0.586 0.299,-0.601L0.171,-0.492C0.168,-0.489 0.164,-0.487 0.161,-0.486C0.158,-0.485 0.155,-0.484 0.152,-0.484C0.147,-0.484 0.142,-0.485 0.138,-0.487C0.134,-0.489 0.131,-0.492 0.129,-0.495L0.101,-0.534L0.314,-0.718L0.387,-0.718L0.387,-0.068L0.528,-0.068L0.528,-0L0.144,-0L0.144,-0.068Z" style="fill:rgb(104,0,90);fill-rule:nonzero;"/>
            </g>
            <g transform="matrix(33.3333,0,0,33.3333,2123.76,1644.13)">
                <path d="M0.301,-0.725C0.331,-0.725 0.359,-0.72 0.386,-0.711C0.412,-0.702 0.435,-0.689 0.454,-0.672C0.473,-0.655 0.488,-0.634 0.499,-0.609C0.51,-0.584 0.516,-0.556 0.516,-0.525C0.516,-0.498 0.511,-0.474 0.504,-0.451C0.496,-0.428 0.485,-0.407 0.471,-0.386C0.457,-0.365 0.442,-0.345 0.424,-0.325C0.406,-0.306 0.387,-0.286 0.367,-0.266L0.179,-0.073C0.192,-0.076 0.205,-0.079 0.219,-0.081C0.233,-0.083 0.246,-0.085 0.259,-0.085L0.499,-0.085C0.508,-0.085 0.516,-0.082 0.522,-0.076C0.527,-0.07 0.53,-0.063 0.53,-0.054L0.53,-0L0.052,-0L0.052,-0.031C0.052,-0.037 0.053,-0.043 0.056,-0.05C0.058,-0.057 0.062,-0.063 0.068,-0.069L0.298,-0.299C0.317,-0.318 0.334,-0.337 0.35,-0.355C0.365,-0.373 0.379,-0.391 0.39,-0.409C0.401,-0.427 0.41,-0.445 0.416,-0.463C0.422,-0.482 0.424,-0.501 0.425,-0.523C0.424,-0.544 0.421,-0.562 0.415,-0.578C0.408,-0.594 0.399,-0.607 0.387,-0.617C0.375,-0.627 0.362,-0.635 0.346,-0.64C0.33,-0.645 0.314,-0.648 0.296,-0.648C0.278,-0.648 0.261,-0.645 0.246,-0.64C0.23,-0.635 0.217,-0.627 0.205,-0.618C0.193,-0.608 0.183,-0.597 0.175,-0.584C0.167,-0.571 0.161,-0.557 0.158,-0.541C0.155,-0.531 0.151,-0.524 0.146,-0.52C0.14,-0.516 0.133,-0.514 0.125,-0.514L0.119,-0.514C0.117,-0.514 0.067,-0.523 0.067,-0.523C0.071,-0.555 0.08,-0.584 0.094,-0.609C0.107,-0.634 0.124,-0.656 0.144,-0.673C0.165,-0.69 0.188,-0.702 0.215,-0.711C0.241,-0.72 0.27,-0.725 0.301,-0.725Z" style="fill:rgb(104,0,90);fill-rule:nonzero;"/>
            </g>
            <g transform="matrix(33.3333,0,0,33.3333,2143.09,1644.13)">
                <path d="M0.29,0.008C0.254,0.008 0.221,0.003 0.192,-0.006C0.162,-0.016 0.136,-0.029 0.115,-0.047C0.094,-0.065 0.077,-0.086 0.066,-0.111C0.054,-0.136 0.048,-0.165 0.048,-0.196C0.048,-0.242 0.06,-0.28 0.084,-0.31C0.108,-0.339 0.142,-0.361 0.187,-0.374C0.149,-0.388 0.121,-0.408 0.102,-0.436C0.083,-0.464 0.073,-0.497 0.073,-0.536C0.073,-0.562 0.078,-0.587 0.089,-0.61C0.099,-0.633 0.114,-0.653 0.133,-0.67C0.152,-0.687 0.174,-0.7 0.201,-0.71C0.227,-0.72 0.257,-0.725 0.29,-0.725C0.322,-0.725 0.351,-0.72 0.378,-0.71C0.405,-0.7 0.428,-0.687 0.447,-0.67C0.466,-0.653 0.48,-0.633 0.491,-0.61C0.501,-0.587 0.506,-0.562 0.506,-0.536C0.506,-0.497 0.496,-0.464 0.477,-0.436C0.458,-0.408 0.429,-0.388 0.392,-0.374C0.437,-0.361 0.471,-0.339 0.495,-0.31C0.519,-0.28 0.531,-0.242 0.531,-0.196C0.531,-0.165 0.525,-0.136 0.513,-0.111C0.501,-0.086 0.485,-0.065 0.464,-0.047C0.443,-0.029 0.417,-0.016 0.388,-0.006C0.358,0.003 0.325,0.008 0.29,0.008ZM0.29,-0.063C0.313,-0.063 0.334,-0.066 0.352,-0.073C0.371,-0.079 0.386,-0.088 0.399,-0.1C0.412,-0.112 0.422,-0.126 0.429,-0.143C0.436,-0.159 0.439,-0.178 0.439,-0.198C0.439,-0.222 0.435,-0.243 0.427,-0.261C0.419,-0.278 0.408,-0.293 0.394,-0.304C0.38,-0.315 0.364,-0.323 0.346,-0.328C0.328,-0.333 0.309,-0.335 0.29,-0.336C0.27,-0.335 0.251,-0.333 0.233,-0.328C0.215,-0.323 0.199,-0.315 0.185,-0.304C0.171,-0.293 0.16,-0.278 0.152,-0.261C0.144,-0.243 0.14,-0.222 0.14,-0.198C0.14,-0.178 0.143,-0.159 0.15,-0.143C0.157,-0.126 0.167,-0.112 0.18,-0.1C0.193,-0.088 0.208,-0.079 0.227,-0.073C0.245,-0.066 0.266,-0.063 0.29,-0.063ZM0.29,-0.407C0.313,-0.407 0.333,-0.411 0.349,-0.418C0.366,-0.425 0.379,-0.434 0.39,-0.446C0.4,-0.458 0.407,-0.472 0.412,-0.487C0.417,-0.502 0.419,-0.518 0.419,-0.535C0.419,-0.551 0.416,-0.567 0.411,-0.582C0.405,-0.596 0.397,-0.609 0.386,-0.62C0.375,-0.631 0.362,-0.64 0.346,-0.646C0.33,-0.652 0.311,-0.656 0.29,-0.656C0.268,-0.656 0.249,-0.652 0.233,-0.646C0.217,-0.64 0.204,-0.631 0.193,-0.62C0.182,-0.609 0.174,-0.596 0.168,-0.582C0.163,-0.567 0.16,-0.551 0.16,-0.535C0.16,-0.518 0.162,-0.502 0.167,-0.487C0.172,-0.472 0.179,-0.458 0.19,-0.446C0.2,-0.434 0.213,-0.425 0.23,-0.418C0.246,-0.411 0.266,-0.407 0.29,-0.407Z" style="fill:rgb(104,0,90);fill-rule:nonzero;"/>
            </g>
            <g transform="matrix(33.3333,0,0,33.3333,2168.86,1644.13)">
                <path d="M0.075,-0.287L0.505,-0.287L0.505,-0.22L0.075,-0.22L0.075,-0.287ZM0.075,-0.455L0.505,-0.455L0.505,-0.387L0.075,-0.387L0.075,-0.455Z" style="fill:rgb(104,0,90);fill-rule:nonzero;"/>
            </g>
            <g transform="matrix(33.3333,0,0,33.3333,2188.19,1644.13)">
                <path d="M0.119,-0.117L0.119,-0.181C0.119,-0.186 0.12,-0.191 0.123,-0.196C0.126,-0.2 0.13,-0.204 0.137,-0.207L0.362,-0.321C0.368,-0.324 0.375,-0.327 0.382,-0.33C0.389,-0.332 0.397,-0.334 0.406,-0.336C0.397,-0.338 0.389,-0.34 0.382,-0.343C0.375,-0.345 0.368,-0.348 0.362,-0.352L0.137,-0.466C0.13,-0.469 0.126,-0.473 0.123,-0.477C0.12,-0.481 0.119,-0.486 0.119,-0.492L0.119,-0.556L0.506,-0.355L0.506,-0.318L0.119,-0.117Z" style="fill:rgb(104,0,90);fill-rule:nonzero;"/>
            </g>
            <g transform="matrix(33.3333,0,0,33.3333,2213.96,1644.13)">
                <path d="M0.301,-0.725C0.331,-0.725 0.359,-0.72 0.386,-0.711C0.412,-0.702 0.435,-0.689 0.454,-0.672C0.473,-0.655 0.488,-0.634 0.499,-0.609C0.51,-0.584 0.516,-0.556 0.516,-0.525C0.516,-0.498 0.511,-0.474 0.504,-0.451C0.496,-0.428 0.485,-0.407 0.471,-0.386C0.457,-0.365 0.442,-0.345 0.424,-0.325C0.406,-0.306 0.387,-0.286 0.367,-0.266L0.179,-0.073C0.192,-0.076 0.205,-0.079 0.219,-0.081C0.233,-0.083 0.246,-0.085 0.259,-0.085L0.499,-0.085C0.508,-0.085 0.516,-0.082 0.522,-0.076C0.527,-0.07 0.53,-0.063 0.53,-0.054L0.53,-0L0.052,-0L0.052,-0.031C0.052,-0.037 0.053,-0.043 0.056,-0.05C0.058,-0.057 0.062,-0.063 0.068,-0.069L0.298,-0.299C0.317,-0.318 0.334,-0.337 0.35,-0.355C0.365,-0.373 0.379,-0.391 0.39,-0.409C0.401,-0.427 0.41,-0.445 0.416,-0.463C0.422,-0.482 0.424,-0.501 0.425,-0.523C0.424,-0.544 0.421,-0.562 0.415,-0.578C0.408,-0.594 0.399,-0.607 0.387,-0.617C0.375,-0.627 0.362,-0.635 0.346,-0.64C0.33,-0.645 0.314,-0.648 0.296,-0.648C0.278,-0.648 0.261,-0.645 0.246,-0.64C0.23,-0.635 0.217,-0.627 0.205,-0.618C0.193,-0.608 0.183,-0.597 0.175,-0.584C0.167,-0.571 0.161,-0.557 0.158,-0.541C0.155,-0.531 0.151,-0.524 0.146,-0.52C0.14,-0.516 0.133,-0.514 0.125,-0.514L0.119,-0.514C0.117,-0.514 0.067,-0.523 0.067,-0.523C0.071,-0.555 0.08,-0.584 0.094,-0.609C0.107,-0.634 0.124,-0.656 0.144,-0.673C0.165,-0.69 0.188,-0.702 0.215,-0.711C0.241,-0.72 0.27,-0.725 0.301,-0.725Z" style="fill:rgb(104,0,90);fill-rule:nonzero;"/>
            </g>
            <g transform="matrix(33.3333,0,0,33.3333,2233.29,1644.13)">
                <path d="M0.258,-0.717L0.316,-0.717L0.495,-0.394L0.43,-0.394C0.424,-0.394 0.42,-0.395 0.416,-0.399C0.412,-0.402 0.408,-0.406 0.406,-0.411L0.308,-0.587C0.303,-0.594 0.299,-0.602 0.296,-0.609C0.293,-0.616 0.29,-0.623 0.288,-0.63C0.283,-0.615 0.277,-0.601 0.27,-0.587L0.173,-0.411C0.17,-0.406 0.167,-0.402 0.163,-0.399C0.159,-0.395 0.154,-0.394 0.147,-0.394L0.079,-0.394L0.258,-0.717Z" style="fill:rgb(104,0,90);fill-rule:nonzero;"/>
            </g>
            <g transform="matrix(33.3333,0,0,33.3333,2252.62,1644.13)">
                <path d="M0.29,0.008C0.254,0.008 0.221,0.003 0.192,-0.006C0.162,-0.016 0.136,-0.029 0.115,-0.047C0.094,-0.065 0.077,-0.086 0.066,-0.111C0.054,-0.136 0.048,-0.165 0.048,-0.196C0.048,-0.242 0.06,-0.28 0.084,-0.31C0.108,-0.339 0.142,-0.361 0.187,-0.374C0.149,-0.388 0.121,-0.408 0.102,-0.436C0.083,-0.464 0.073,-0.497 0.073,-0.536C0.073,-0.562 0.078,-0.587 0.089,-0.61C0.099,-0.633 0.114,-0.653 0.133,-0.67C0.152,-0.687 0.174,-0.7 0.201,-0.71C0.227,-0.72 0.257,-0.725 0.29,-0.725C0.322,-0.725 0.351,-0.72 0.378,-0.71C0.405,-0.7 0.428,-0.687 0.447,-0.67C0.466,-0.653 0.48,-0.633 0.491,-0.61C0.501,-0.587 0.506,-0.562 0.506,-0.536C0.506,-0.497 0.496,-0.464 0.477,-0.436C0.458,-0.408 0.429,-0.388 0.392,-0.374C0.437,-0.361 0.471,-0.339 0.495,-0.31C0.519,-0.28 0.531,-0.242 0.531,-0.196C0.531,-0.165 0.525,-0.136 0.513,-0.111C0.501,-0.086 0.485,-0.065 0.464,-0.047C0.443,-0.029 0.417,-0.016 0.388,-0.006C0.358,0.003 0.325,0.008 0.29,0.008ZM0.29,-0.063C0.313,-0.063 0.334,-0.066 0.352,-0.073C0.371,-0.079 0.386,-0.088 0.399,-0.1C0.412,-0.112 0.422,-0.126 0.429,-0.143C0.436,-0.159 0.439,-0.178 0.439,-0.198C0.439,-0.222 0.435,-0.243 0.427,-0.261C0.419,-0.278 0.408,-0.293 0.394,-0.304C0.38,-0.315 0.364,-0.323 0.346,-0.328C0.328,-0.333 0.309,-0.335 0.29,-0.336C0.27,-0.335 0.251,-0.333 0.233,-0.328C0.215,-0.323 0.199,-0.315 0.185,-0.304C0.171,-0.293 0.16,-0.278 0.152,-0.261C0.144,-0.243 0.14,-0.222 0.14,-0.198C0.14,-0.178 0.143,-0.159 0.15,-0.143C0.157,-0.126 0.167,-0.112 0.18,-0.1C0.193,-0.088 0.208,-0.079 0.227,-0.073C0.245,-0.066 0.266,-0.063 0.29,-0.063ZM0.29,-0.407C0.313,-0.407 0.333,-0.411 0.349,-0.418C0.366,-0.425 0.379,-0.434 0.39,-0.446C0.4,-0.458 0.407,-0.472 0.412,-0.487C0.417,-0.502 0.419,-0.518 0.419,-0.535C0.419,-0.551 0.416,-0.567 0.411,-0.582C0.405,-0.596 0.397,-0.609 0.386,-0.62C0.375,-0.631 0.362,-0.64 0.346,-0.646C0.33,-0.652 0.311,-0.656 0.29,-0.656C0.268,-0.656 0.249,-0.652 0.233,-0.646C0.217,-0.64 0.204,-0.631 0.193,-0.62C0.182,-0.609 0.174,-0.596 0.168,-0.582C0.163,-0.567 0.16,-0.551 0.16,-0.535C0.16,-0.518 0.162,-0.502 0.167,-0.487C0.172,-0.472 0.179,-0.458 0.19,-0.446C0.2,-0.434 0.213,-0.425 0.23,-0.418C0.246,-0.411 0.266,-0.407 0.29,-0.407Z" style="fill:rgb(104,0,90);fill-rule:nonzero;"/>
            </g>
            <g transform="matrix(33.3333,0,0,33.3333,2271.96,1644.13)">
                <path d="M0.149,-0.315C0.149,-0.386 0.14,-0.455 0.122,-0.523C0.103,-0.59 0.077,-0.654 0.042,-0.715C0.039,-0.721 0.037,-0.727 0.037,-0.732C0.037,-0.736 0.038,-0.74 0.041,-0.743C0.043,-0.746 0.046,-0.749 0.05,-0.751L0.089,-0.776C0.114,-0.737 0.135,-0.699 0.153,-0.661C0.17,-0.623 0.184,-0.586 0.195,-0.548C0.206,-0.51 0.214,-0.472 0.219,-0.433C0.224,-0.394 0.227,-0.355 0.227,-0.315C0.227,-0.274 0.224,-0.234 0.219,-0.196C0.214,-0.157 0.206,-0.119 0.195,-0.081C0.184,-0.043 0.17,-0.005 0.153,0.033C0.135,0.07 0.114,0.108 0.089,0.147L0.05,0.123C0.046,0.12 0.043,0.118 0.041,0.115C0.038,0.112 0.037,0.108 0.037,0.103C0.037,0.1 0.037,0.098 0.038,0.095C0.039,0.092 0.04,0.089 0.042,0.086C0.077,0.025 0.103,-0.04 0.122,-0.107C0.14,-0.174 0.149,-0.243 0.149,-0.315Z" style="fill:rgb(104,0,90);fill-rule:nonzero;"/>
            </g>
        </g>
        <g transform="matrix(1.00258,0,0,1.07955,-5.78343,-129.016)">
            <rect x="1946.61" y="1621.88" width="111.137" height="13.209" style="fill:rgb(104,0,90);fill-opacity:0.47;"/>
        </g>
        <rect x="1921.47" y="1620.79" width="21.455" height="62.499" style="fill:rgb(0,103,165);fill-opacity:0.47;"/>
        <g transform="matrix(2.66304,0,0,2.02612,-3255.43,-1663.12)">
            <rect x="1921.47" y="1620.79" width="21.455" height="62.499" style="fill:rgb(63,97,0);fill-opacity:0.47;"/>
        </g>
    </g>
</svg>
