<?xml version="1.0" encoding="UTF-8" standalone="no"?>
<!DOCTYPE svg PUBLIC "-//W3C//DTD SVG 1.1//EN" "http://www.w3.org/Graphics/SVG/1.1/DTD/svg11.dtd">
<svg width="100%" height="100%" viewBox="0 0 1298 683" version="1.1" xmlns="http://www.w3.org/2000/svg" xmlns:xlink="http://www.w3.org/1999/xlink" xml:space="preserve" xmlns:serif="http://www.serif.com/" style="fill-rule:evenodd;clip-rule:evenodd;stroke-linecap:round;stroke-linejoin:round;stroke-miterlimit:1.5;">
    <g transform="matrix(1,0,0,1,-357.059,-447.831)">
        <g transform="matrix(1.15474,0,0,1.08884,-351.09,-70.517)">
            <rect x="613.687" y="476.516" width="1122.88" height="625.508" style="fill:rgb(204,204,204);stroke:white;stroke-width:0.89px;"/>
        </g>
        <g transform="matrix(0.700891,0,0,0.700891,201.791,-202.027)">
            <g transform="matrix(50,0,0,50,1531.88,1536.29)">
                <path d="M0.137,-0.717C0.146,-0.717 0.152,-0.715 0.156,-0.713C0.16,-0.711 0.165,-0.707 0.171,-0.7L0.586,-0.16C0.584,-0.169 0.584,-0.177 0.584,-0.185C0.583,-0.193 0.583,-0.201 0.583,-0.209L0.583,-0.717L0.668,-0.717L0.668,-0L0.619,-0C0.611,-0 0.605,-0.001 0.6,-0.004C0.595,-0.007 0.59,-0.011 0.585,-0.018L0.17,-0.557C0.171,-0.549 0.171,-0.541 0.172,-0.533C0.172,-0.525 0.172,-0.517 0.172,-0.511L0.172,-0L0.087,-0L0.087,-0.717L0.137,-0.717Z" style="fill-rule:nonzero;"/>
            </g>
            <g transform="matrix(50,0,0,50,1569.68,1536.29)">
                <path d="M0.278,-0.515C0.315,-0.515 0.348,-0.508 0.378,-0.496C0.408,-0.484 0.433,-0.466 0.454,-0.444C0.475,-0.421 0.491,-0.393 0.502,-0.361C0.513,-0.329 0.519,-0.293 0.519,-0.254C0.519,-0.214 0.513,-0.178 0.502,-0.146C0.491,-0.114 0.475,-0.086 0.454,-0.064C0.433,-0.041 0.408,-0.023 0.378,-0.011C0.348,0.001 0.315,0.007 0.278,0.007C0.241,0.007 0.208,0.001 0.178,-0.011C0.148,-0.023 0.123,-0.041 0.102,-0.064C0.081,-0.086 0.064,-0.114 0.053,-0.146C0.042,-0.178 0.036,-0.214 0.036,-0.254C0.036,-0.293 0.042,-0.329 0.053,-0.361C0.064,-0.393 0.081,-0.421 0.102,-0.444C0.123,-0.466 0.148,-0.484 0.178,-0.496C0.208,-0.508 0.241,-0.515 0.278,-0.515ZM0.278,-0.063C0.328,-0.063 0.365,-0.079 0.39,-0.113C0.415,-0.146 0.427,-0.193 0.427,-0.253C0.427,-0.313 0.415,-0.36 0.39,-0.394C0.365,-0.428 0.328,-0.444 0.278,-0.445C0.253,-0.444 0.231,-0.44 0.212,-0.432C0.193,-0.423 0.178,-0.41 0.165,-0.394C0.153,-0.378 0.143,-0.358 0.137,-0.334C0.131,-0.31 0.128,-0.283 0.128,-0.253C0.128,-0.223 0.131,-0.196 0.137,-0.173C0.143,-0.149 0.153,-0.129 0.165,-0.113C0.178,-0.096 0.193,-0.084 0.212,-0.076C0.231,-0.067 0.253,-0.063 0.278,-0.063Z" style="fill-rule:nonzero;"/>
            </g>
            <g transform="matrix(50,0,0,50,1597.48,1536.29)">
                <path d="M0.227,0.008C0.187,0.008 0.156,-0.003 0.134,-0.026C0.113,-0.048 0.102,-0.08 0.102,-0.122L0.102,-0.432L0.041,-0.432C0.036,-0.432 0.031,-0.434 0.028,-0.437C0.024,-0.44 0.022,-0.445 0.022,-0.452L0.022,-0.487L0.105,-0.498L0.126,-0.654C0.126,-0.659 0.128,-0.663 0.132,-0.666C0.136,-0.669 0.14,-0.671 0.146,-0.671L0.191,-0.671L0.191,-0.497L0.336,-0.497L0.336,-0.432L0.191,-0.432L0.191,-0.128C0.191,-0.107 0.196,-0.091 0.207,-0.081C0.217,-0.07 0.23,-0.065 0.247,-0.065C0.256,-0.065 0.264,-0.066 0.271,-0.069C0.278,-0.071 0.284,-0.074 0.289,-0.077C0.294,-0.08 0.298,-0.083 0.301,-0.085C0.305,-0.088 0.308,-0.089 0.311,-0.089C0.315,-0.089 0.319,-0.086 0.323,-0.081L0.349,-0.038C0.334,-0.024 0.315,-0.012 0.294,-0.004C0.272,0.004 0.25,0.008 0.227,0.008Z" style="fill-rule:nonzero;"/>
            </g>
            <g transform="matrix(50,0,0,50,1616.13,1536.29)">
                <path d="M0.274,-0.515C0.304,-0.515 0.332,-0.509 0.358,-0.499C0.383,-0.489 0.405,-0.474 0.424,-0.455C0.443,-0.436 0.457,-0.412 0.468,-0.384C0.478,-0.356 0.484,-0.324 0.484,-0.288C0.484,-0.274 0.482,-0.265 0.479,-0.26C0.476,-0.255 0.47,-0.253 0.462,-0.253L0.125,-0.253C0.126,-0.221 0.13,-0.193 0.138,-0.17C0.146,-0.146 0.157,-0.126 0.171,-0.11C0.185,-0.094 0.202,-0.083 0.221,-0.075C0.24,-0.067 0.262,-0.063 0.286,-0.063C0.308,-0.063 0.328,-0.066 0.344,-0.071C0.36,-0.076 0.374,-0.082 0.386,-0.088C0.397,-0.094 0.407,-0.099 0.415,-0.104C0.423,-0.109 0.429,-0.112 0.435,-0.112C0.442,-0.112 0.448,-0.109 0.452,-0.104L0.477,-0.071C0.466,-0.058 0.453,-0.046 0.438,-0.036C0.422,-0.026 0.406,-0.018 0.388,-0.012C0.371,-0.006 0.353,-0.001 0.334,0.002C0.315,0.005 0.297,0.007 0.279,0.007C0.244,0.007 0.211,0.001 0.182,-0.011C0.152,-0.023 0.127,-0.04 0.105,-0.063C0.084,-0.086 0.067,-0.114 0.055,-0.148C0.043,-0.181 0.037,-0.22 0.037,-0.264C0.037,-0.299 0.042,-0.332 0.053,-0.363C0.064,-0.393 0.08,-0.42 0.1,-0.442C0.12,-0.465 0.145,-0.482 0.175,-0.495C0.204,-0.508 0.237,-0.515 0.274,-0.515ZM0.276,-0.449C0.233,-0.449 0.199,-0.437 0.174,-0.412C0.149,-0.387 0.134,-0.353 0.128,-0.309L0.404,-0.309C0.404,-0.329 0.401,-0.348 0.395,-0.365C0.389,-0.382 0.381,-0.397 0.37,-0.41C0.359,-0.422 0.345,-0.432 0.33,-0.439C0.314,-0.446 0.296,-0.449 0.276,-0.449Z" style="fill-rule:nonzero;"/>
            </g>
            <g transform="matrix(50,0,0,50,1642.33,1536.29)">
                <path d="M0.073,-0L0.073,-0.507L0.126,-0.507C0.139,-0.507 0.147,-0.5 0.15,-0.488L0.157,-0.433C0.179,-0.457 0.204,-0.477 0.231,-0.492C0.258,-0.507 0.289,-0.515 0.325,-0.515C0.353,-0.515 0.377,-0.51 0.398,-0.501C0.419,-0.492 0.437,-0.478 0.451,-0.462C0.465,-0.445 0.476,-0.425 0.484,-0.401C0.491,-0.377 0.495,-0.351 0.495,-0.323L0.495,-0L0.406,-0L0.406,-0.323C0.406,-0.361 0.397,-0.391 0.379,-0.412C0.362,-0.433 0.335,-0.444 0.299,-0.444C0.273,-0.444 0.248,-0.437 0.225,-0.425C0.202,-0.412 0.181,-0.395 0.162,-0.373L0.162,-0L0.073,-0Z" style="fill-rule:nonzero;"/>
            </g>
            <g transform="matrix(50,0,0,50,1670.13,1536.29)">
                <path d="M0.15,-0.507L0.15,-0.184C0.15,-0.145 0.159,-0.116 0.177,-0.095C0.194,-0.074 0.221,-0.063 0.257,-0.063C0.282,-0.063 0.307,-0.069 0.33,-0.082C0.353,-0.094 0.374,-0.111 0.394,-0.133L0.394,-0.507L0.483,-0.507L0.483,-0L0.43,-0C0.417,-0 0.409,-0.006 0.406,-0.019L0.399,-0.073C0.377,-0.049 0.352,-0.029 0.325,-0.014C0.297,0.001 0.266,0.008 0.231,0.008C0.203,0.008 0.178,0.004 0.157,-0.006C0.136,-0.015 0.118,-0.028 0.104,-0.045C0.09,-0.061 0.079,-0.081 0.072,-0.105C0.065,-0.129 0.061,-0.155 0.061,-0.184L0.061,-0.507L0.15,-0.507Z" style="fill-rule:nonzero;"/>
            </g>
            <g transform="matrix(50,0,0,50,1697.93,1536.29)">
                <path d="M0.073,-0L0.073,-0.507L0.126,-0.507C0.139,-0.507 0.147,-0.5 0.15,-0.488L0.157,-0.436C0.175,-0.459 0.196,-0.478 0.219,-0.493C0.242,-0.507 0.269,-0.515 0.3,-0.515C0.334,-0.515 0.362,-0.505 0.383,-0.486C0.404,-0.467 0.42,-0.441 0.429,-0.409C0.436,-0.427 0.445,-0.443 0.457,-0.457C0.468,-0.47 0.481,-0.481 0.496,-0.49C0.51,-0.498 0.525,-0.505 0.541,-0.509C0.557,-0.513 0.574,-0.515 0.591,-0.515C0.617,-0.515 0.641,-0.51 0.662,-0.502C0.683,-0.493 0.7,-0.481 0.715,-0.465C0.729,-0.448 0.74,-0.428 0.748,-0.404C0.756,-0.38 0.76,-0.353 0.76,-0.323L0.76,-0L0.671,-0L0.671,-0.323C0.671,-0.362 0.662,-0.392 0.645,-0.413C0.627,-0.433 0.602,-0.444 0.569,-0.444C0.554,-0.444 0.54,-0.441 0.527,-0.436C0.514,-0.431 0.503,-0.423 0.493,-0.413C0.483,-0.403 0.475,-0.39 0.469,-0.375C0.463,-0.36 0.46,-0.342 0.46,-0.323L0.46,-0L0.371,-0L0.371,-0.323C0.371,-0.363 0.363,-0.394 0.347,-0.414C0.33,-0.434 0.306,-0.444 0.275,-0.444C0.253,-0.444 0.233,-0.438 0.214,-0.426C0.195,-0.414 0.178,-0.398 0.162,-0.378L0.162,-0L0.073,-0Z" style="fill-rule:nonzero;"/>
            </g>
            <g transform="matrix(50,0,0,50,1738.98,1536.29)">
                <path d="M0.076,-0L0.076,-0.737L0.166,-0.737L0.166,-0.434C0.187,-0.458 0.211,-0.477 0.238,-0.492C0.265,-0.507 0.296,-0.515 0.331,-0.515C0.36,-0.515 0.387,-0.509 0.411,-0.498C0.434,-0.487 0.454,-0.47 0.471,-0.449C0.488,-0.427 0.501,-0.4 0.51,-0.368C0.519,-0.335 0.523,-0.299 0.523,-0.257C0.523,-0.219 0.518,-0.184 0.508,-0.152C0.498,-0.12 0.484,-0.092 0.465,-0.069C0.446,-0.045 0.423,-0.027 0.396,-0.013C0.369,0 0.338,0.007 0.304,0.007C0.271,0.007 0.244,0.001 0.221,-0.012C0.198,-0.025 0.178,-0.042 0.161,-0.065L0.157,-0.019C0.154,-0.006 0.146,-0 0.134,-0L0.076,-0ZM0.302,-0.444C0.273,-0.444 0.248,-0.437 0.226,-0.424C0.204,-0.41 0.184,-0.391 0.166,-0.367L0.166,-0.122C0.182,-0.1 0.199,-0.085 0.219,-0.076C0.238,-0.067 0.26,-0.062 0.284,-0.062C0.331,-0.062 0.368,-0.079 0.393,-0.113C0.418,-0.146 0.431,-0.194 0.431,-0.257C0.431,-0.29 0.428,-0.318 0.422,-0.342C0.416,-0.365 0.408,-0.385 0.397,-0.4C0.386,-0.415 0.373,-0.426 0.357,-0.433C0.341,-0.44 0.322,-0.444 0.302,-0.444Z" style="fill-rule:nonzero;"/>
            </g>
            <g transform="matrix(50,0,0,50,1766.93,1536.29)">
                <path d="M0.274,-0.515C0.304,-0.515 0.332,-0.509 0.358,-0.499C0.383,-0.489 0.405,-0.474 0.424,-0.455C0.443,-0.436 0.457,-0.412 0.468,-0.384C0.478,-0.356 0.484,-0.324 0.484,-0.288C0.484,-0.274 0.482,-0.265 0.479,-0.26C0.476,-0.255 0.47,-0.253 0.462,-0.253L0.125,-0.253C0.126,-0.221 0.13,-0.193 0.138,-0.17C0.146,-0.146 0.157,-0.126 0.171,-0.11C0.185,-0.094 0.202,-0.083 0.221,-0.075C0.24,-0.067 0.262,-0.063 0.286,-0.063C0.308,-0.063 0.328,-0.066 0.344,-0.071C0.36,-0.076 0.374,-0.082 0.386,-0.088C0.397,-0.094 0.407,-0.099 0.415,-0.104C0.423,-0.109 0.429,-0.112 0.435,-0.112C0.442,-0.112 0.448,-0.109 0.452,-0.104L0.477,-0.071C0.466,-0.058 0.453,-0.046 0.438,-0.036C0.422,-0.026 0.406,-0.018 0.388,-0.012C0.371,-0.006 0.353,-0.001 0.334,0.002C0.315,0.005 0.297,0.007 0.279,0.007C0.244,0.007 0.211,0.001 0.182,-0.011C0.152,-0.023 0.127,-0.04 0.105,-0.063C0.084,-0.086 0.067,-0.114 0.055,-0.148C0.043,-0.181 0.037,-0.22 0.037,-0.264C0.037,-0.299 0.042,-0.332 0.053,-0.363C0.064,-0.393 0.08,-0.42 0.1,-0.442C0.12,-0.465 0.145,-0.482 0.175,-0.495C0.204,-0.508 0.237,-0.515 0.274,-0.515ZM0.276,-0.449C0.233,-0.449 0.199,-0.437 0.174,-0.412C0.149,-0.387 0.134,-0.353 0.128,-0.309L0.404,-0.309C0.404,-0.329 0.401,-0.348 0.395,-0.365C0.389,-0.382 0.381,-0.397 0.37,-0.41C0.359,-0.422 0.345,-0.432 0.33,-0.439C0.314,-0.446 0.296,-0.449 0.276,-0.449Z" style="fill-rule:nonzero;"/>
            </g>
            <g transform="matrix(50,0,0,50,1793.13,1536.29)">
                <path d="M0.073,-0L0.073,-0.507L0.124,-0.507C0.134,-0.507 0.14,-0.505 0.144,-0.501C0.148,-0.497 0.15,-0.491 0.152,-0.482L0.158,-0.403C0.175,-0.438 0.196,-0.466 0.222,-0.486C0.247,-0.505 0.277,-0.516 0.312,-0.516C0.326,-0.516 0.338,-0.514 0.35,-0.511C0.361,-0.507 0.371,-0.503 0.381,-0.498L0.37,-0.431C0.367,-0.423 0.362,-0.419 0.354,-0.419C0.349,-0.419 0.342,-0.42 0.333,-0.423C0.323,-0.426 0.309,-0.428 0.292,-0.428C0.261,-0.428 0.235,-0.419 0.214,-0.401C0.193,-0.383 0.176,-0.357 0.162,-0.323L0.162,-0L0.073,-0Z" style="fill-rule:nonzero;"/>
            </g>
        </g>
        <g transform="matrix(0.521712,-0.521712,0.521712,0.521712,-867.32,1097.4)">
            <g transform="matrix(50,0,0,50,1531.88,1536.29)">
                <path d="M0.194,-0.299L0.194,-0L0.097,-0L0.097,-0.717L0.3,-0.717C0.345,-0.717 0.384,-0.712 0.417,-0.703C0.45,-0.694 0.477,-0.68 0.499,-0.663C0.52,-0.646 0.536,-0.625 0.547,-0.6C0.557,-0.576 0.562,-0.548 0.562,-0.518C0.562,-0.493 0.558,-0.469 0.55,-0.447C0.542,-0.425 0.53,-0.405 0.515,-0.388C0.5,-0.37 0.482,-0.355 0.46,-0.343C0.438,-0.331 0.413,-0.321 0.386,-0.315C0.398,-0.308 0.408,-0.298 0.418,-0.285L0.627,-0L0.541,-0C0.523,-0 0.51,-0.007 0.502,-0.021L0.316,-0.277C0.31,-0.284 0.304,-0.29 0.297,-0.294C0.29,-0.297 0.28,-0.299 0.267,-0.299L0.194,-0.299ZM0.194,-0.37L0.295,-0.37C0.323,-0.37 0.348,-0.373 0.37,-0.38C0.391,-0.387 0.409,-0.396 0.424,-0.409C0.438,-0.421 0.449,-0.436 0.457,-0.454C0.464,-0.471 0.468,-0.49 0.468,-0.511C0.468,-0.554 0.453,-0.586 0.425,-0.608C0.397,-0.629 0.355,-0.64 0.3,-0.64L0.194,-0.64L0.194,-0.37Z" style="fill-rule:nonzero;"/>
            </g>
            <g transform="matrix(50,0,0,50,1564.08,1536.29)">
                <path d="M0.194,-0.299L0.194,-0L0.097,-0L0.097,-0.717L0.3,-0.717C0.345,-0.717 0.384,-0.712 0.417,-0.703C0.45,-0.694 0.477,-0.68 0.499,-0.663C0.52,-0.646 0.536,-0.625 0.547,-0.6C0.557,-0.576 0.562,-0.548 0.562,-0.518C0.562,-0.493 0.558,-0.469 0.55,-0.447C0.542,-0.425 0.53,-0.405 0.515,-0.388C0.5,-0.37 0.482,-0.355 0.46,-0.343C0.438,-0.331 0.413,-0.321 0.386,-0.315C0.398,-0.308 0.408,-0.298 0.418,-0.285L0.627,-0L0.541,-0C0.523,-0 0.51,-0.007 0.502,-0.021L0.316,-0.277C0.31,-0.284 0.304,-0.29 0.297,-0.294C0.29,-0.297 0.28,-0.299 0.267,-0.299L0.194,-0.299ZM0.194,-0.37L0.295,-0.37C0.323,-0.37 0.348,-0.373 0.37,-0.38C0.391,-0.387 0.409,-0.396 0.424,-0.409C0.438,-0.421 0.449,-0.436 0.457,-0.454C0.464,-0.471 0.468,-0.49 0.468,-0.511C0.468,-0.554 0.453,-0.586 0.425,-0.608C0.397,-0.629 0.355,-0.64 0.3,-0.64L0.194,-0.64L0.194,-0.37Z" style="fill-rule:nonzero;"/>
            </g>
            <g transform="matrix(50,0,0,50,1605.93,1536.29)">
                <path d="M0.407,-0.071C0.426,-0.071 0.444,-0.071 0.46,-0.073C0.476,-0.075 0.491,-0.078 0.506,-0.082C0.52,-0.085 0.533,-0.09 0.546,-0.095C0.559,-0.1 0.571,-0.106 0.584,-0.113L0.584,-0.271L0.473,-0.271C0.467,-0.271 0.462,-0.272 0.458,-0.276C0.454,-0.28 0.452,-0.284 0.452,-0.29L0.452,-0.345L0.672,-0.345L0.672,-0.07C0.654,-0.057 0.635,-0.045 0.616,-0.036C0.596,-0.026 0.575,-0.018 0.553,-0.011C0.531,-0.005 0.507,0 0.482,0.003C0.457,0.006 0.429,0.008 0.4,0.008C0.347,0.008 0.3,-0.001 0.257,-0.019C0.213,-0.037 0.176,-0.062 0.145,-0.094C0.113,-0.126 0.089,-0.165 0.071,-0.21C0.054,-0.255 0.045,-0.304 0.045,-0.358C0.045,-0.413 0.054,-0.463 0.071,-0.508C0.088,-0.553 0.112,-0.591 0.144,-0.623C0.176,-0.655 0.215,-0.68 0.26,-0.698C0.305,-0.716 0.356,-0.725 0.412,-0.725C0.44,-0.725 0.466,-0.722 0.491,-0.718C0.515,-0.714 0.537,-0.708 0.558,-0.7C0.579,-0.692 0.598,-0.683 0.616,-0.672C0.634,-0.661 0.65,-0.648 0.666,-0.634L0.638,-0.59C0.632,-0.581 0.625,-0.577 0.616,-0.577C0.611,-0.577 0.605,-0.578 0.599,-0.582C0.59,-0.587 0.581,-0.592 0.571,-0.599C0.56,-0.606 0.548,-0.612 0.533,-0.618C0.518,-0.624 0.5,-0.63 0.48,-0.634C0.46,-0.638 0.436,-0.641 0.409,-0.641C0.368,-0.641 0.332,-0.634 0.299,-0.621C0.266,-0.608 0.239,-0.589 0.216,-0.564C0.193,-0.54 0.175,-0.51 0.163,-0.475C0.15,-0.44 0.144,-0.401 0.144,-0.358C0.144,-0.313 0.15,-0.272 0.163,-0.237C0.176,-0.201 0.194,-0.171 0.218,-0.147C0.241,-0.122 0.269,-0.103 0.301,-0.09C0.333,-0.077 0.368,-0.071 0.407,-0.071Z" style="fill-rule:nonzero;"/>
            </g>
            <g transform="matrix(50,0,0,50,1642.63,1536.29)">
                <path d="M0.073,-0L0.073,-0.507L0.124,-0.507C0.134,-0.507 0.14,-0.505 0.144,-0.501C0.148,-0.497 0.15,-0.491 0.152,-0.482L0.158,-0.403C0.175,-0.438 0.196,-0.466 0.222,-0.486C0.247,-0.505 0.277,-0.516 0.312,-0.516C0.326,-0.516 0.338,-0.514 0.35,-0.511C0.361,-0.507 0.371,-0.503 0.381,-0.498L0.37,-0.431C0.367,-0.423 0.362,-0.419 0.354,-0.419C0.349,-0.419 0.342,-0.42 0.333,-0.423C0.323,-0.426 0.309,-0.428 0.292,-0.428C0.261,-0.428 0.235,-0.419 0.214,-0.401C0.193,-0.383 0.176,-0.357 0.162,-0.323L0.162,-0L0.073,-0Z" style="fill-rule:nonzero;"/>
            </g>
            <g transform="matrix(50,0,0,50,1662.78,1536.29)">
                <path d="M0.278,-0.515C0.315,-0.515 0.348,-0.508 0.378,-0.496C0.408,-0.484 0.433,-0.466 0.454,-0.444C0.475,-0.421 0.491,-0.393 0.502,-0.361C0.513,-0.329 0.519,-0.293 0.519,-0.254C0.519,-0.214 0.513,-0.178 0.502,-0.146C0.491,-0.114 0.475,-0.086 0.454,-0.064C0.433,-0.041 0.408,-0.023 0.378,-0.011C0.348,0.001 0.315,0.007 0.278,0.007C0.241,0.007 0.208,0.001 0.178,-0.011C0.148,-0.023 0.123,-0.041 0.102,-0.064C0.081,-0.086 0.064,-0.114 0.053,-0.146C0.042,-0.178 0.036,-0.214 0.036,-0.254C0.036,-0.293 0.042,-0.329 0.053,-0.361C0.064,-0.393 0.081,-0.421 0.102,-0.444C0.123,-0.466 0.148,-0.484 0.178,-0.496C0.208,-0.508 0.241,-0.515 0.278,-0.515ZM0.278,-0.063C0.328,-0.063 0.365,-0.079 0.39,-0.113C0.415,-0.146 0.427,-0.193 0.427,-0.253C0.427,-0.313 0.415,-0.36 0.39,-0.394C0.365,-0.428 0.328,-0.444 0.278,-0.445C0.253,-0.444 0.231,-0.44 0.212,-0.432C0.193,-0.423 0.178,-0.41 0.165,-0.394C0.153,-0.378 0.143,-0.358 0.137,-0.334C0.131,-0.31 0.128,-0.283 0.128,-0.253C0.128,-0.223 0.131,-0.196 0.137,-0.173C0.143,-0.149 0.153,-0.129 0.165,-0.113C0.178,-0.096 0.193,-0.084 0.212,-0.076C0.231,-0.067 0.253,-0.063 0.278,-0.063Z" style="fill-rule:nonzero;"/>
            </g>
            <g transform="matrix(50,0,0,50,1690.58,1536.29)">
                <path d="M0.15,-0.507L0.15,-0.184C0.15,-0.145 0.159,-0.116 0.177,-0.095C0.194,-0.074 0.221,-0.063 0.257,-0.063C0.282,-0.063 0.307,-0.069 0.33,-0.082C0.353,-0.094 0.374,-0.111 0.394,-0.133L0.394,-0.507L0.483,-0.507L0.483,-0L0.43,-0C0.417,-0 0.409,-0.006 0.406,-0.019L0.399,-0.073C0.377,-0.049 0.352,-0.029 0.325,-0.014C0.297,0.001 0.266,0.008 0.231,0.008C0.203,0.008 0.178,0.004 0.157,-0.006C0.136,-0.015 0.118,-0.028 0.104,-0.045C0.09,-0.061 0.079,-0.081 0.072,-0.105C0.065,-0.129 0.061,-0.155 0.061,-0.184L0.061,-0.507L0.15,-0.507Z" style="fill-rule:nonzero;"/>
            </g>
            <g transform="matrix(50,0,0,50,1718.38,1536.29)">
                <path d="M0.073,0.172L0.073,-0.507L0.126,-0.507C0.139,-0.507 0.147,-0.5 0.15,-0.488L0.158,-0.428C0.179,-0.454 0.204,-0.476 0.232,-0.492C0.26,-0.507 0.292,-0.516 0.328,-0.516C0.357,-0.516 0.383,-0.51 0.407,-0.499C0.431,-0.488 0.451,-0.471 0.468,-0.449C0.484,-0.427 0.497,-0.4 0.506,-0.368C0.515,-0.336 0.52,-0.299 0.52,-0.257C0.52,-0.219 0.515,-0.184 0.505,-0.152C0.495,-0.12 0.48,-0.092 0.462,-0.069C0.443,-0.045 0.42,-0.027 0.393,-0.013C0.366,0 0.335,0.007 0.301,0.007C0.27,0.007 0.243,0.002 0.221,-0.009C0.199,-0.019 0.179,-0.034 0.162,-0.053L0.162,0.172L0.073,0.172ZM0.299,-0.444C0.27,-0.444 0.244,-0.437 0.222,-0.424C0.2,-0.41 0.18,-0.391 0.162,-0.367L0.162,-0.122C0.178,-0.1 0.196,-0.085 0.216,-0.076C0.235,-0.067 0.257,-0.062 0.281,-0.062C0.328,-0.062 0.364,-0.079 0.39,-0.113C0.415,-0.146 0.428,-0.194 0.428,-0.257C0.428,-0.29 0.424,-0.318 0.419,-0.342C0.413,-0.365 0.405,-0.385 0.394,-0.4C0.383,-0.415 0.369,-0.426 0.353,-0.433C0.337,-0.44 0.319,-0.444 0.299,-0.444Z" style="fill-rule:nonzero;"/>
            </g>
        </g>
        <g transform="matrix(4.15241e-17,-0.678141,0.678141,4.15241e-17,-60.5243,1630)">
            <g transform="matrix(50,0,0,50,1531.88,1536.29)">
                <path d="M0.004,-0.717L0.082,-0.717C0.09,-0.717 0.097,-0.714 0.103,-0.71C0.108,-0.706 0.112,-0.7 0.115,-0.694L0.317,-0.188C0.322,-0.177 0.326,-0.164 0.33,-0.151C0.334,-0.138 0.337,-0.124 0.341,-0.11C0.344,-0.124 0.347,-0.138 0.351,-0.151C0.354,-0.164 0.358,-0.177 0.363,-0.188L0.565,-0.694C0.567,-0.699 0.571,-0.704 0.577,-0.709C0.582,-0.714 0.589,-0.717 0.598,-0.717L0.676,-0.717L0.384,-0L0.296,-0L0.004,-0.717Z" style="fill-rule:nonzero;"/>
            </g>
            <g transform="matrix(50,0,0,50,1562.98,1536.29)">
                <path d="M0.274,-0.515C0.304,-0.515 0.332,-0.509 0.358,-0.499C0.383,-0.489 0.405,-0.474 0.424,-0.455C0.443,-0.436 0.457,-0.412 0.468,-0.384C0.478,-0.356 0.484,-0.324 0.484,-0.288C0.484,-0.274 0.482,-0.265 0.479,-0.26C0.476,-0.255 0.47,-0.253 0.462,-0.253L0.125,-0.253C0.126,-0.221 0.13,-0.193 0.138,-0.17C0.146,-0.146 0.157,-0.126 0.171,-0.11C0.185,-0.094 0.202,-0.083 0.221,-0.075C0.24,-0.067 0.262,-0.063 0.286,-0.063C0.308,-0.063 0.328,-0.066 0.344,-0.071C0.36,-0.076 0.374,-0.082 0.386,-0.088C0.397,-0.094 0.407,-0.099 0.415,-0.104C0.423,-0.109 0.429,-0.112 0.435,-0.112C0.442,-0.112 0.448,-0.109 0.452,-0.104L0.477,-0.071C0.466,-0.058 0.453,-0.046 0.438,-0.036C0.422,-0.026 0.406,-0.018 0.388,-0.012C0.371,-0.006 0.353,-0.001 0.334,0.002C0.315,0.005 0.297,0.007 0.279,0.007C0.244,0.007 0.211,0.001 0.182,-0.011C0.152,-0.023 0.127,-0.04 0.105,-0.063C0.084,-0.086 0.067,-0.114 0.055,-0.148C0.043,-0.181 0.037,-0.22 0.037,-0.264C0.037,-0.299 0.042,-0.332 0.053,-0.363C0.064,-0.393 0.08,-0.42 0.1,-0.442C0.12,-0.465 0.145,-0.482 0.175,-0.495C0.204,-0.508 0.237,-0.515 0.274,-0.515ZM0.276,-0.449C0.233,-0.449 0.199,-0.437 0.174,-0.412C0.149,-0.387 0.134,-0.353 0.128,-0.309L0.404,-0.309C0.404,-0.329 0.401,-0.348 0.395,-0.365C0.389,-0.382 0.381,-0.397 0.37,-0.41C0.359,-0.422 0.345,-0.432 0.33,-0.439C0.314,-0.446 0.296,-0.449 0.276,-0.449Z" style="fill-rule:nonzero;"/>
            </g>
            <g transform="matrix(50,0,0,50,1589.18,1536.29)">
                <rect x="0.083" y="-0.737" width="0.089" height="0.737" style="fill-rule:nonzero;"/>
            </g>
            <g transform="matrix(50,0,0,50,1601.98,1536.29)">
                <path d="M0.278,-0.515C0.315,-0.515 0.348,-0.508 0.378,-0.496C0.408,-0.484 0.433,-0.466 0.454,-0.444C0.475,-0.421 0.491,-0.393 0.502,-0.361C0.513,-0.329 0.519,-0.293 0.519,-0.254C0.519,-0.214 0.513,-0.178 0.502,-0.146C0.491,-0.114 0.475,-0.086 0.454,-0.064C0.433,-0.041 0.408,-0.023 0.378,-0.011C0.348,0.001 0.315,0.007 0.278,0.007C0.241,0.007 0.208,0.001 0.178,-0.011C0.148,-0.023 0.123,-0.041 0.102,-0.064C0.081,-0.086 0.064,-0.114 0.053,-0.146C0.042,-0.178 0.036,-0.214 0.036,-0.254C0.036,-0.293 0.042,-0.329 0.053,-0.361C0.064,-0.393 0.081,-0.421 0.102,-0.444C0.123,-0.466 0.148,-0.484 0.178,-0.496C0.208,-0.508 0.241,-0.515 0.278,-0.515ZM0.278,-0.063C0.328,-0.063 0.365,-0.079 0.39,-0.113C0.415,-0.146 0.427,-0.193 0.427,-0.253C0.427,-0.313 0.415,-0.36 0.39,-0.394C0.365,-0.428 0.328,-0.444 0.278,-0.445C0.253,-0.444 0.231,-0.44 0.212,-0.432C0.193,-0.423 0.178,-0.41 0.165,-0.394C0.153,-0.378 0.143,-0.358 0.137,-0.334C0.131,-0.31 0.128,-0.283 0.128,-0.253C0.128,-0.223 0.131,-0.196 0.137,-0.173C0.143,-0.149 0.153,-0.129 0.165,-0.113C0.178,-0.096 0.193,-0.084 0.212,-0.076C0.231,-0.067 0.253,-0.063 0.278,-0.063Z" style="fill-rule:nonzero;"/>
            </g>
            <g transform="matrix(50,0,0,50,1629.78,1536.29)">
                <path d="M0.419,-0.417C0.416,-0.413 0.413,-0.41 0.411,-0.408C0.408,-0.406 0.404,-0.405 0.399,-0.405C0.394,-0.405 0.389,-0.407 0.383,-0.411C0.377,-0.415 0.37,-0.42 0.361,-0.425C0.352,-0.43 0.341,-0.435 0.328,-0.439C0.315,-0.443 0.299,-0.445 0.281,-0.445C0.256,-0.445 0.234,-0.44 0.215,-0.432C0.196,-0.423 0.18,-0.41 0.167,-0.394C0.154,-0.377 0.145,-0.357 0.138,-0.333C0.132,-0.309 0.129,-0.283 0.129,-0.254C0.129,-0.223 0.132,-0.196 0.139,-0.172C0.146,-0.148 0.156,-0.128 0.169,-0.112C0.181,-0.096 0.197,-0.083 0.215,-0.075C0.233,-0.066 0.253,-0.062 0.276,-0.062C0.298,-0.062 0.316,-0.065 0.33,-0.07C0.343,-0.075 0.355,-0.081 0.365,-0.087C0.374,-0.093 0.382,-0.099 0.388,-0.104C0.394,-0.109 0.4,-0.112 0.406,-0.112C0.413,-0.112 0.419,-0.109 0.423,-0.104L0.448,-0.071C0.426,-0.044 0.398,-0.024 0.365,-0.012C0.332,0.001 0.297,0.007 0.261,0.007C0.229,0.007 0.199,0.001 0.172,-0.011C0.145,-0.022 0.122,-0.039 0.102,-0.061C0.082,-0.083 0.066,-0.111 0.054,-0.143C0.043,-0.175 0.037,-0.212 0.037,-0.254C0.037,-0.291 0.042,-0.326 0.053,-0.358C0.063,-0.39 0.079,-0.418 0.099,-0.441C0.119,-0.464 0.144,-0.482 0.174,-0.495C0.203,-0.508 0.237,-0.515 0.276,-0.515C0.311,-0.515 0.342,-0.509 0.37,-0.497C0.397,-0.486 0.421,-0.47 0.442,-0.449L0.419,-0.417Z" style="fill-rule:nonzero;"/>
            </g>
            <g transform="matrix(50,0,0,50,1653.13,1536.29)">
                <path d="M0.172,-0.507L0.172,-0L0.083,-0L0.083,-0.507L0.172,-0.507ZM0.192,-0.666C0.192,-0.657 0.19,-0.649 0.187,-0.641C0.183,-0.634 0.179,-0.627 0.173,-0.621C0.167,-0.615 0.16,-0.611 0.153,-0.608C0.145,-0.604 0.137,-0.603 0.128,-0.603C0.119,-0.603 0.111,-0.604 0.104,-0.608C0.096,-0.611 0.09,-0.615 0.084,-0.621C0.078,-0.627 0.073,-0.634 0.07,-0.641C0.067,-0.649 0.065,-0.657 0.065,-0.666C0.065,-0.674 0.067,-0.682 0.07,-0.69C0.073,-0.698 0.078,-0.705 0.084,-0.711C0.09,-0.717 0.096,-0.721 0.104,-0.725C0.111,-0.728 0.119,-0.73 0.128,-0.73C0.137,-0.73 0.145,-0.728 0.153,-0.725C0.16,-0.721 0.167,-0.717 0.173,-0.711C0.179,-0.705 0.183,-0.698 0.187,-0.69C0.19,-0.682 0.192,-0.674 0.192,-0.666Z" style="fill-rule:nonzero;"/>
            </g>
            <g transform="matrix(50,0,0,50,1665.93,1536.29)">
                <path d="M0.227,0.008C0.187,0.008 0.156,-0.003 0.134,-0.026C0.113,-0.048 0.102,-0.08 0.102,-0.122L0.102,-0.432L0.041,-0.432C0.036,-0.432 0.031,-0.434 0.028,-0.437C0.024,-0.44 0.022,-0.445 0.022,-0.452L0.022,-0.487L0.105,-0.498L0.126,-0.654C0.126,-0.659 0.128,-0.663 0.132,-0.666C0.136,-0.669 0.14,-0.671 0.146,-0.671L0.191,-0.671L0.191,-0.497L0.336,-0.497L0.336,-0.432L0.191,-0.432L0.191,-0.128C0.191,-0.107 0.196,-0.091 0.207,-0.081C0.217,-0.07 0.23,-0.065 0.247,-0.065C0.256,-0.065 0.264,-0.066 0.271,-0.069C0.278,-0.071 0.284,-0.074 0.289,-0.077C0.294,-0.08 0.298,-0.083 0.301,-0.085C0.305,-0.088 0.308,-0.089 0.311,-0.089C0.315,-0.089 0.319,-0.086 0.323,-0.081L0.349,-0.038C0.334,-0.024 0.315,-0.012 0.294,-0.004C0.272,0.004 0.25,0.008 0.227,0.008Z" style="fill-rule:nonzero;"/>
            </g>
            <g transform="matrix(50,0,0,50,1684.58,1536.29)">
                <path d="M0.222,0.15C0.219,0.156 0.215,0.162 0.21,0.166C0.206,0.17 0.199,0.172 0.19,0.172L0.124,0.172L0.216,-0.03L0.007,-0.507L0.084,-0.507C0.092,-0.507 0.098,-0.505 0.102,-0.501C0.106,-0.497 0.11,-0.493 0.112,-0.488L0.247,-0.169C0.25,-0.162 0.253,-0.154 0.255,-0.147C0.257,-0.14 0.259,-0.132 0.261,-0.125C0.263,-0.132 0.265,-0.14 0.268,-0.147C0.27,-0.154 0.273,-0.162 0.276,-0.17L0.407,-0.488C0.409,-0.493 0.412,-0.498 0.417,-0.501C0.422,-0.505 0.427,-0.507 0.433,-0.507L0.504,-0.507L0.222,0.15Z" style="fill-rule:nonzero;"/>
            </g>
        </g>
        <g transform="matrix(0.186441,0,0,0.299956,761.061,458.959)">
            <rect x="1057.12" y="507.185" width="102.514" height="860.074" style="fill:rgb(29,29,29);"/>
        </g>
        <g transform="matrix(0.143818,0.143818,-0.129395,0.129395,873.053,633.628)">
            <rect x="1057.12" y="507.185" width="102.514" height="860.074" style="fill:rgb(29,29,29);"/>
        </g>
        <g transform="matrix(1.14162e-17,0.186441,-0.346295,2.12045e-17,1434.82,656.071)">
            <rect x="1057.12" y="507.185" width="102.514" height="860.074" style="fill:rgb(29,29,29);"/>
        </g>
        <g transform="matrix(1,0,0,0.673611,-221.736,-2.95924)">
            <rect x="1208.79" y="1130.24" width="62.273" height="128.104" style="fill:rgb(29,29,29);fill-opacity:0.24;stroke:rgb(69,69,69);stroke-opacity:0.61;stroke-width:3.39px;"/>
        </g>
        <g transform="matrix(1,0,0,0.673611,-258.21,33.5148)">
            <rect x="1208.79" y="1130.24" width="62.273" height="128.104" style="fill:rgb(29,29,29);fill-opacity:0.24;stroke:rgb(69,69,69);stroke-opacity:0.61;stroke-width:3.39px;"/>
        </g>
        <g transform="matrix(1,0,0,0.673611,-297.353,72.6578)">
            <rect x="1208.79" y="1130.24" width="62.273" height="128.104" style="fill:rgb(29,29,29);fill-opacity:0.24;stroke:rgb(69,69,69);stroke-opacity:0.61;stroke-width:3.39px;"/>
        </g>
        <g transform="matrix(1,0,0,0.673611,-221.736,-98.1477)">
            <rect x="1208.79" y="1130.24" width="62.273" height="128.104" style="fill:rgb(29,29,29);fill-opacity:0.24;stroke:rgb(69,69,69);stroke-opacity:0.61;stroke-width:3.39px;"/>
        </g>
        <g transform="matrix(1,0,0,0.673611,-258.21,-61.6736)">
            <rect x="1208.79" y="1130.24" width="62.273" height="128.104" style="fill:rgb(29,29,29);fill-opacity:0.24;stroke:rgb(69,69,69);stroke-opacity:0.61;stroke-width:3.39px;"/>
        </g>
        <g transform="matrix(1,0,0,0.673611,-297.353,-22.5307)">
            <rect x="1208.79" y="1130.24" width="62.273" height="128.104" style="fill:rgb(29,29,29);fill-opacity:0.24;stroke:rgb(69,69,69);stroke-opacity:0.61;stroke-width:3.39px;"/>
        </g>
        <g transform="matrix(1,0,0,0.673611,-152.346,-2.95924)">
            <rect x="1208.79" y="1130.24" width="62.273" height="128.104" style="fill:rgb(29,29,29);fill-opacity:0.24;stroke:rgb(69,69,69);stroke-opacity:0.61;stroke-width:3.39px;"/>
        </g>
        <g transform="matrix(1,0,0,0.673611,-188.82,33.5148)">
            <rect x="1208.79" y="1130.24" width="62.273" height="128.104" style="fill:rgb(29,29,29);fill-opacity:0.24;stroke:rgb(69,69,69);stroke-opacity:0.61;stroke-width:3.39px;"/>
        </g>
        <g transform="matrix(1,0,0,0.673611,-227.963,72.6578)">
            <rect x="1208.79" y="1130.24" width="62.273" height="128.104" style="fill:rgb(29,29,29);fill-opacity:0.24;stroke:rgb(69,69,69);stroke-opacity:0.61;stroke-width:3.39px;"/>
        </g>
        <g transform="matrix(1,0,0,0.673611,-152.346,-98.1477)">
            <rect x="1208.79" y="1130.24" width="62.273" height="128.104" style="fill:rgb(29,29,29);fill-opacity:0.24;stroke:rgb(69,69,69);stroke-opacity:0.61;stroke-width:3.39px;"/>
        </g>
        <g transform="matrix(1,0,0,0.673611,-188.82,-61.6736)">
            <rect x="1208.79" y="1130.24" width="62.273" height="128.104" style="fill:rgb(29,29,29);fill-opacity:0.24;stroke:rgb(69,69,69);stroke-opacity:0.61;stroke-width:3.39px;"/>
        </g>
        <g transform="matrix(1,0,0,0.673611,-227.963,-22.5307)">
            <rect x="1208.79" y="1130.24" width="62.273" height="128.104" style="fill:rgb(29,29,29);fill-opacity:0.24;stroke:rgb(69,69,69);stroke-opacity:0.61;stroke-width:3.39px;"/>
        </g>
        <g transform="matrix(1,0,0,0.673611,-82.9563,-2.95924)">
            <rect x="1208.79" y="1130.24" width="62.273" height="128.104" style="fill:rgb(29,29,29);fill-opacity:0.24;stroke:rgb(69,69,69);stroke-opacity:0.61;stroke-width:3.39px;"/>
        </g>
        <g transform="matrix(1,0,0,0.673611,-119.43,33.5148)">
            <rect x="1208.79" y="1130.24" width="62.273" height="128.104" style="fill:rgb(29,29,29);fill-opacity:0.24;stroke:rgb(69,69,69);stroke-opacity:0.61;stroke-width:3.39px;"/>
        </g>
        <g transform="matrix(1,0,0,0.673611,-158.573,72.6578)">
            <rect x="1208.79" y="1130.24" width="62.273" height="128.104" style="fill:rgb(29,29,29);fill-opacity:0.24;stroke:rgb(69,69,69);stroke-opacity:0.61;stroke-width:3.39px;"/>
        </g>
        <g transform="matrix(1,0,0,0.673611,-82.9563,-98.1477)">
            <rect x="1208.79" y="1130.24" width="62.273" height="128.104" style="fill:rgb(29,29,29);fill-opacity:0.24;stroke:rgb(69,69,69);stroke-opacity:0.61;stroke-width:3.39px;"/>
        </g>
        <g transform="matrix(1,0,0,0.673611,-119.43,-61.6736)">
            <rect x="1208.79" y="1130.24" width="62.273" height="128.104" style="fill:rgb(29,29,29);fill-opacity:0.24;stroke:rgb(69,69,69);stroke-opacity:0.61;stroke-width:3.39px;"/>
        </g>
        <g transform="matrix(1,0,0,0.673611,-158.573,-22.5307)">
            <rect x="1208.79" y="1130.24" width="62.273" height="128.104" style="fill:rgb(29,29,29);fill-opacity:0.24;stroke:rgb(69,69,69);stroke-opacity:0.61;stroke-width:3.39px;"/>
        </g>
        <g transform="matrix(0.625631,0,0,0.625631,713.088,-144.603)">
            <g transform="matrix(50,0,0,50,776.529,1326.36)">
                <path d="M0.194,-0.299L0.194,-0L0.097,-0L0.097,-0.717L0.3,-0.717C0.345,-0.717 0.384,-0.712 0.417,-0.703C0.45,-0.694 0.477,-0.68 0.499,-0.663C0.52,-0.646 0.536,-0.625 0.547,-0.6C0.557,-0.576 0.562,-0.548 0.562,-0.518C0.562,-0.493 0.558,-0.469 0.55,-0.447C0.542,-0.425 0.53,-0.405 0.515,-0.388C0.5,-0.37 0.482,-0.355 0.46,-0.343C0.438,-0.331 0.413,-0.321 0.386,-0.315C0.398,-0.308 0.408,-0.298 0.418,-0.285L0.627,-0L0.541,-0C0.523,-0 0.51,-0.007 0.502,-0.021L0.316,-0.277C0.31,-0.284 0.304,-0.29 0.297,-0.294C0.29,-0.297 0.28,-0.299 0.267,-0.299L0.194,-0.299ZM0.194,-0.37L0.295,-0.37C0.323,-0.37 0.348,-0.373 0.37,-0.38C0.391,-0.387 0.409,-0.396 0.424,-0.409C0.438,-0.421 0.449,-0.436 0.457,-0.454C0.464,-0.471 0.468,-0.49 0.468,-0.511C0.468,-0.554 0.453,-0.586 0.425,-0.608C0.397,-0.629 0.355,-0.64 0.3,-0.64L0.194,-0.64L0.194,-0.37Z" style="fill-rule:nonzero;"/>
            </g>
            <g transform="matrix(50,0,0,50,808.729,1326.36)">
                <path d="M0.194,-0.299L0.194,-0L0.097,-0L0.097,-0.717L0.3,-0.717C0.345,-0.717 0.384,-0.712 0.417,-0.703C0.45,-0.694 0.477,-0.68 0.499,-0.663C0.52,-0.646 0.536,-0.625 0.547,-0.6C0.557,-0.576 0.562,-0.548 0.562,-0.518C0.562,-0.493 0.558,-0.469 0.55,-0.447C0.542,-0.425 0.53,-0.405 0.515,-0.388C0.5,-0.37 0.482,-0.355 0.46,-0.343C0.438,-0.331 0.413,-0.321 0.386,-0.315C0.398,-0.308 0.408,-0.298 0.418,-0.285L0.627,-0L0.541,-0C0.523,-0 0.51,-0.007 0.502,-0.021L0.316,-0.277C0.31,-0.284 0.304,-0.29 0.297,-0.294C0.29,-0.297 0.28,-0.299 0.267,-0.299L0.194,-0.299ZM0.194,-0.37L0.295,-0.37C0.323,-0.37 0.348,-0.373 0.37,-0.38C0.391,-0.387 0.409,-0.396 0.424,-0.409C0.438,-0.421 0.449,-0.436 0.457,-0.454C0.464,-0.471 0.468,-0.49 0.468,-0.511C0.468,-0.554 0.453,-0.586 0.425,-0.608C0.397,-0.629 0.355,-0.64 0.3,-0.64L0.194,-0.64L0.194,-0.37Z" style="fill-rule:nonzero;"/>
            </g>
            <g transform="matrix(50,0,0,50,840.929,1326.36)">
                <path d="M0.144,-0.068L0.298,-0.068L0.298,-0.557C0.298,-0.571 0.298,-0.586 0.299,-0.601L0.171,-0.492C0.168,-0.489 0.164,-0.487 0.161,-0.486C0.158,-0.485 0.155,-0.484 0.152,-0.484C0.147,-0.484 0.142,-0.485 0.138,-0.487C0.134,-0.489 0.131,-0.492 0.129,-0.495L0.101,-0.534L0.314,-0.718L0.387,-0.718L0.387,-0.068L0.528,-0.068L0.528,-0L0.144,-0L0.144,-0.068Z" style="fill-rule:nonzero;"/>
            </g>
        </g>
        <g transform="matrix(0.625631,0,0,0.625631,675.368,-106.883)">
            <g transform="matrix(50,0,0,50,776.529,1326.36)">
                <path d="M0.194,-0.299L0.194,-0L0.097,-0L0.097,-0.717L0.3,-0.717C0.345,-0.717 0.384,-0.712 0.417,-0.703C0.45,-0.694 0.477,-0.68 0.499,-0.663C0.52,-0.646 0.536,-0.625 0.547,-0.6C0.557,-0.576 0.562,-0.548 0.562,-0.518C0.562,-0.493 0.558,-0.469 0.55,-0.447C0.542,-0.425 0.53,-0.405 0.515,-0.388C0.5,-0.37 0.482,-0.355 0.46,-0.343C0.438,-0.331 0.413,-0.321 0.386,-0.315C0.398,-0.308 0.408,-0.298 0.418,-0.285L0.627,-0L0.541,-0C0.523,-0 0.51,-0.007 0.502,-0.021L0.316,-0.277C0.31,-0.284 0.304,-0.29 0.297,-0.294C0.29,-0.297 0.28,-0.299 0.267,-0.299L0.194,-0.299ZM0.194,-0.37L0.295,-0.37C0.323,-0.37 0.348,-0.373 0.37,-0.38C0.391,-0.387 0.409,-0.396 0.424,-0.409C0.438,-0.421 0.449,-0.436 0.457,-0.454C0.464,-0.471 0.468,-0.49 0.468,-0.511C0.468,-0.554 0.453,-0.586 0.425,-0.608C0.397,-0.629 0.355,-0.64 0.3,-0.64L0.194,-0.64L0.194,-0.37Z" style="fill-rule:nonzero;"/>
            </g>
            <g transform="matrix(50,0,0,50,808.729,1326.36)">
                <path d="M0.194,-0.299L0.194,-0L0.097,-0L0.097,-0.717L0.3,-0.717C0.345,-0.717 0.384,-0.712 0.417,-0.703C0.45,-0.694 0.477,-0.68 0.499,-0.663C0.52,-0.646 0.536,-0.625 0.547,-0.6C0.557,-0.576 0.562,-0.548 0.562,-0.518C0.562,-0.493 0.558,-0.469 0.55,-0.447C0.542,-0.425 0.53,-0.405 0.515,-0.388C0.5,-0.37 0.482,-0.355 0.46,-0.343C0.438,-0.331 0.413,-0.321 0.386,-0.315C0.398,-0.308 0.408,-0.298 0.418,-0.285L0.627,-0L0.541,-0C0.523,-0 0.51,-0.007 0.502,-0.021L0.316,-0.277C0.31,-0.284 0.304,-0.29 0.297,-0.294C0.29,-0.297 0.28,-0.299 0.267,-0.299L0.194,-0.299ZM0.194,-0.37L0.295,-0.37C0.323,-0.37 0.348,-0.373 0.37,-0.38C0.391,-0.387 0.409,-0.396 0.424,-0.409C0.438,-0.421 0.449,-0.436 0.457,-0.454C0.464,-0.471 0.468,-0.49 0.468,-0.511C0.468,-0.554 0.453,-0.586 0.425,-0.608C0.397,-0.629 0.355,-0.64 0.3,-0.64L0.194,-0.64L0.194,-0.37Z" style="fill-rule:nonzero;"/>
            </g>
            <g transform="matrix(50,0,0,50,840.929,1326.36)">
                <path d="M0.301,-0.725C0.331,-0.725 0.359,-0.72 0.386,-0.711C0.412,-0.702 0.435,-0.689 0.454,-0.672C0.473,-0.655 0.488,-0.634 0.499,-0.609C0.51,-0.584 0.516,-0.556 0.516,-0.525C0.516,-0.498 0.511,-0.474 0.504,-0.451C0.496,-0.428 0.485,-0.407 0.471,-0.386C0.457,-0.365 0.442,-0.345 0.424,-0.325C0.406,-0.306 0.387,-0.286 0.367,-0.266L0.179,-0.073C0.192,-0.076 0.205,-0.079 0.219,-0.081C0.233,-0.083 0.246,-0.085 0.259,-0.085L0.499,-0.085C0.508,-0.085 0.516,-0.082 0.522,-0.076C0.527,-0.07 0.53,-0.063 0.53,-0.054L0.53,-0L0.052,-0L0.052,-0.031C0.052,-0.037 0.053,-0.043 0.056,-0.05C0.058,-0.057 0.062,-0.063 0.068,-0.069L0.298,-0.299C0.317,-0.318 0.334,-0.337 0.35,-0.355C0.365,-0.373 0.379,-0.391 0.39,-0.409C0.401,-0.427 0.41,-0.445 0.416,-0.463C0.422,-0.482 0.424,-0.501 0.425,-0.523C0.424,-0.544 0.421,-0.562 0.415,-0.578C0.408,-0.594 0.399,-0.607 0.387,-0.617C0.375,-0.627 0.362,-0.635 0.346,-0.64C0.33,-0.645 0.314,-0.648 0.296,-0.648C0.278,-0.648 0.261,-0.645 0.246,-0.64C0.23,-0.635 0.217,-0.627 0.205,-0.618C0.193,-0.608 0.183,-0.597 0.175,-0.584C0.167,-0.571 0.161,-0.557 0.158,-0.541C0.155,-0.531 0.151,-0.524 0.146,-0.52C0.14,-0.516 0.133,-0.514 0.125,-0.514L0.119,-0.514C0.117,-0.514 0.067,-0.523 0.067,-0.523C0.071,-0.555 0.08,-0.584 0.094,-0.609C0.107,-0.634 0.124,-0.656 0.144,-0.673C0.165,-0.69 0.188,-0.702 0.215,-0.711C0.241,-0.72 0.27,-0.725 0.301,-0.725Z" style="fill-rule:nonzero;"/>
            </g>
        </g>
        <g transform="matrix(0.625631,0,0,0.625631,637.293,-68.808)">
            <g transform="matrix(50,0,0,50,776.529,1326.36)">
                <path d="M0.194,-0.299L0.194,-0L0.097,-0L0.097,-0.717L0.3,-0.717C0.345,-0.717 0.384,-0.712 0.417,-0.703C0.45,-0.694 0.477,-0.68 0.499,-0.663C0.52,-0.646 0.536,-0.625 0.547,-0.6C0.557,-0.576 0.562,-0.548 0.562,-0.518C0.562,-0.493 0.558,-0.469 0.55,-0.447C0.542,-0.425 0.53,-0.405 0.515,-0.388C0.5,-0.37 0.482,-0.355 0.46,-0.343C0.438,-0.331 0.413,-0.321 0.386,-0.315C0.398,-0.308 0.408,-0.298 0.418,-0.285L0.627,-0L0.541,-0C0.523,-0 0.51,-0.007 0.502,-0.021L0.316,-0.277C0.31,-0.284 0.304,-0.29 0.297,-0.294C0.29,-0.297 0.28,-0.299 0.267,-0.299L0.194,-0.299ZM0.194,-0.37L0.295,-0.37C0.323,-0.37 0.348,-0.373 0.37,-0.38C0.391,-0.387 0.409,-0.396 0.424,-0.409C0.438,-0.421 0.449,-0.436 0.457,-0.454C0.464,-0.471 0.468,-0.49 0.468,-0.511C0.468,-0.554 0.453,-0.586 0.425,-0.608C0.397,-0.629 0.355,-0.64 0.3,-0.64L0.194,-0.64L0.194,-0.37Z" style="fill-rule:nonzero;"/>
            </g>
            <g transform="matrix(50,0,0,50,808.729,1326.36)">
                <path d="M0.194,-0.299L0.194,-0L0.097,-0L0.097,-0.717L0.3,-0.717C0.345,-0.717 0.384,-0.712 0.417,-0.703C0.45,-0.694 0.477,-0.68 0.499,-0.663C0.52,-0.646 0.536,-0.625 0.547,-0.6C0.557,-0.576 0.562,-0.548 0.562,-0.518C0.562,-0.493 0.558,-0.469 0.55,-0.447C0.542,-0.425 0.53,-0.405 0.515,-0.388C0.5,-0.37 0.482,-0.355 0.46,-0.343C0.438,-0.331 0.413,-0.321 0.386,-0.315C0.398,-0.308 0.408,-0.298 0.418,-0.285L0.627,-0L0.541,-0C0.523,-0 0.51,-0.007 0.502,-0.021L0.316,-0.277C0.31,-0.284 0.304,-0.29 0.297,-0.294C0.29,-0.297 0.28,-0.299 0.267,-0.299L0.194,-0.299ZM0.194,-0.37L0.295,-0.37C0.323,-0.37 0.348,-0.373 0.37,-0.38C0.391,-0.387 0.409,-0.396 0.424,-0.409C0.438,-0.421 0.449,-0.436 0.457,-0.454C0.464,-0.471 0.468,-0.49 0.468,-0.511C0.468,-0.554 0.453,-0.586 0.425,-0.608C0.397,-0.629 0.355,-0.64 0.3,-0.64L0.194,-0.64L0.194,-0.37Z" style="fill-rule:nonzero;"/>
            </g>
            <g transform="matrix(50,0,0,50,840.929,1326.36)">
                <path d="M0.31,-0.725C0.34,-0.725 0.368,-0.72 0.394,-0.712C0.42,-0.703 0.442,-0.691 0.46,-0.675C0.479,-0.659 0.493,-0.639 0.504,-0.617C0.514,-0.594 0.519,-0.569 0.519,-0.541C0.519,-0.518 0.516,-0.498 0.51,-0.48C0.504,-0.462 0.496,-0.447 0.485,-0.433C0.474,-0.42 0.461,-0.408 0.446,-0.399C0.431,-0.39 0.413,-0.382 0.395,-0.377C0.441,-0.364 0.476,-0.343 0.5,-0.315C0.523,-0.286 0.535,-0.249 0.535,-0.206C0.535,-0.173 0.529,-0.143 0.516,-0.117C0.504,-0.09 0.487,-0.068 0.465,-0.049C0.443,-0.031 0.418,-0.017 0.389,-0.007C0.36,0.003 0.33,0.008 0.297,0.008C0.259,0.008 0.226,0.003 0.199,-0.006C0.172,-0.016 0.149,-0.029 0.131,-0.046C0.112,-0.062 0.097,-0.082 0.085,-0.105C0.073,-0.128 0.062,-0.152 0.054,-0.179L0.092,-0.195C0.099,-0.198 0.106,-0.2 0.113,-0.2C0.12,-0.2 0.126,-0.198 0.131,-0.195C0.136,-0.192 0.14,-0.188 0.143,-0.182C0.143,-0.181 0.146,-0.175 0.147,-0.173C0.151,-0.163 0.157,-0.152 0.164,-0.14C0.17,-0.128 0.179,-0.117 0.191,-0.106C0.202,-0.095 0.216,-0.086 0.233,-0.079C0.25,-0.072 0.271,-0.068 0.296,-0.068C0.321,-0.068 0.342,-0.072 0.361,-0.08C0.38,-0.088 0.396,-0.099 0.408,-0.112C0.421,-0.125 0.43,-0.139 0.437,-0.156C0.443,-0.171 0.446,-0.187 0.446,-0.203C0.446,-0.222 0.443,-0.24 0.438,-0.256C0.433,-0.272 0.424,-0.286 0.41,-0.298C0.397,-0.309 0.378,-0.318 0.354,-0.325C0.33,-0.332 0.3,-0.335 0.263,-0.335L0.263,-0.4C0.293,-0.4 0.319,-0.403 0.34,-0.41C0.362,-0.416 0.379,-0.424 0.393,-0.436C0.407,-0.447 0.417,-0.46 0.423,-0.475C0.429,-0.49 0.432,-0.507 0.432,-0.526C0.432,-0.547 0.429,-0.565 0.422,-0.58C0.416,-0.595 0.407,-0.608 0.396,-0.618C0.384,-0.628 0.371,-0.635 0.355,-0.641C0.34,-0.646 0.323,-0.648 0.305,-0.648C0.287,-0.648 0.27,-0.645 0.255,-0.64C0.24,-0.635 0.226,-0.627 0.214,-0.618C0.202,-0.608 0.193,-0.597 0.185,-0.584C0.177,-0.571 0.171,-0.556 0.167,-0.541C0.164,-0.531 0.16,-0.524 0.155,-0.52C0.149,-0.516 0.142,-0.514 0.134,-0.514L0.129,-0.514C0.127,-0.514 0.076,-0.523 0.076,-0.523C0.081,-0.555 0.09,-0.584 0.103,-0.609C0.116,-0.634 0.133,-0.656 0.154,-0.673C0.174,-0.69 0.198,-0.702 0.224,-0.711C0.251,-0.72 0.279,-0.725 0.31,-0.725Z" style="fill-rule:nonzero;"/>
            </g>
        </g>
    </g>
</svg>
