<?xml version="1.0" encoding="UTF-8" standalone="no"?>
<!DOCTYPE svg PUBLIC "-//W3C//DTD SVG 1.1//EN" "http://www.w3.org/Graphics/SVG/1.1/DTD/svg11.dtd">
<svg width="100%" height="100%" viewBox="0 0 1148 418" version="1.1" xmlns="http://www.w3.org/2000/svg" xmlns:xlink="http://www.w3.org/1999/xlink" xml:space="preserve" xmlns:serif="http://www.serif.com/" style="fill-rule:evenodd;clip-rule:evenodd;stroke-linecap:round;stroke-linejoin:round;stroke-miterlimit:1.5;">
    <g transform="matrix(1,0,0,1,-1776.75,-1062.36)">
        <g transform="matrix(1.02104,0,0,0.666615,1150.65,745.206)">
            <rect x="613.687" y="476.516" width="1122.88" height="625.508" style="fill:rgb(204,204,204);stroke:white;stroke-width:1.16px;"/>
        </g>
        <g transform="matrix(0.737813,0,0,0.737813,1058.5,59.2915)">
            <g transform="matrix(50,0,0,50,1531.88,1536.29)">
                <path d="M0.194,-0.299L0.194,-0L0.097,-0L0.097,-0.717L0.3,-0.717C0.345,-0.717 0.384,-0.712 0.417,-0.703C0.45,-0.694 0.477,-0.68 0.499,-0.663C0.52,-0.646 0.536,-0.625 0.547,-0.6C0.557,-0.576 0.562,-0.548 0.562,-0.518C0.562,-0.493 0.558,-0.469 0.55,-0.447C0.542,-0.425 0.53,-0.405 0.515,-0.388C0.5,-0.37 0.482,-0.355 0.46,-0.343C0.438,-0.331 0.413,-0.321 0.386,-0.315C0.398,-0.308 0.408,-0.298 0.418,-0.285L0.627,-0L0.541,-0C0.523,-0 0.51,-0.007 0.502,-0.021L0.316,-0.277C0.31,-0.284 0.304,-0.29 0.297,-0.294C0.29,-0.297 0.28,-0.299 0.267,-0.299L0.194,-0.299ZM0.194,-0.37L0.295,-0.37C0.323,-0.37 0.348,-0.373 0.37,-0.38C0.391,-0.387 0.409,-0.396 0.424,-0.409C0.438,-0.421 0.449,-0.436 0.457,-0.454C0.464,-0.471 0.468,-0.49 0.468,-0.511C0.468,-0.554 0.453,-0.586 0.425,-0.608C0.397,-0.629 0.355,-0.64 0.3,-0.64L0.194,-0.64L0.194,-0.37Z" style="fill-rule:nonzero;"/>
            </g>
            <g transform="matrix(50,0,0,50,1564.08,1536.29)">
                <path d="M0.194,-0.299L0.194,-0L0.097,-0L0.097,-0.717L0.3,-0.717C0.345,-0.717 0.384,-0.712 0.417,-0.703C0.45,-0.694 0.477,-0.68 0.499,-0.663C0.52,-0.646 0.536,-0.625 0.547,-0.6C0.557,-0.576 0.562,-0.548 0.562,-0.518C0.562,-0.493 0.558,-0.469 0.55,-0.447C0.542,-0.425 0.53,-0.405 0.515,-0.388C0.5,-0.37 0.482,-0.355 0.46,-0.343C0.438,-0.331 0.413,-0.321 0.386,-0.315C0.398,-0.308 0.408,-0.298 0.418,-0.285L0.627,-0L0.541,-0C0.523,-0 0.51,-0.007 0.502,-0.021L0.316,-0.277C0.31,-0.284 0.304,-0.29 0.297,-0.294C0.29,-0.297 0.28,-0.299 0.267,-0.299L0.194,-0.299ZM0.194,-0.37L0.295,-0.37C0.323,-0.37 0.348,-0.373 0.37,-0.38C0.391,-0.387 0.409,-0.396 0.424,-0.409C0.438,-0.421 0.449,-0.436 0.457,-0.454C0.464,-0.471 0.468,-0.49 0.468,-0.511C0.468,-0.554 0.453,-0.586 0.425,-0.608C0.397,-0.629 0.355,-0.64 0.3,-0.64L0.194,-0.64L0.194,-0.37Z" style="fill-rule:nonzero;"/>
            </g>
            <g transform="matrix(50,0,0,50,1605.93,1536.29)">
                <path d="M0.407,-0.071C0.426,-0.071 0.444,-0.071 0.46,-0.073C0.476,-0.075 0.491,-0.078 0.506,-0.082C0.52,-0.085 0.533,-0.09 0.546,-0.095C0.559,-0.1 0.571,-0.106 0.584,-0.113L0.584,-0.271L0.473,-0.271C0.467,-0.271 0.462,-0.272 0.458,-0.276C0.454,-0.28 0.452,-0.284 0.452,-0.29L0.452,-0.345L0.672,-0.345L0.672,-0.07C0.654,-0.057 0.635,-0.045 0.616,-0.036C0.596,-0.026 0.575,-0.018 0.553,-0.011C0.531,-0.005 0.507,0 0.482,0.003C0.457,0.006 0.429,0.008 0.4,0.008C0.347,0.008 0.3,-0.001 0.257,-0.019C0.213,-0.037 0.176,-0.062 0.145,-0.094C0.113,-0.126 0.089,-0.165 0.071,-0.21C0.054,-0.255 0.045,-0.304 0.045,-0.358C0.045,-0.413 0.054,-0.463 0.071,-0.508C0.088,-0.553 0.112,-0.591 0.144,-0.623C0.176,-0.655 0.215,-0.68 0.26,-0.698C0.305,-0.716 0.356,-0.725 0.412,-0.725C0.44,-0.725 0.466,-0.722 0.491,-0.718C0.515,-0.714 0.537,-0.708 0.558,-0.7C0.579,-0.692 0.598,-0.683 0.616,-0.672C0.634,-0.661 0.65,-0.648 0.666,-0.634L0.638,-0.59C0.632,-0.581 0.625,-0.577 0.616,-0.577C0.611,-0.577 0.605,-0.578 0.599,-0.582C0.59,-0.587 0.581,-0.592 0.571,-0.599C0.56,-0.606 0.548,-0.612 0.533,-0.618C0.518,-0.624 0.5,-0.63 0.48,-0.634C0.46,-0.638 0.436,-0.641 0.409,-0.641C0.368,-0.641 0.332,-0.634 0.299,-0.621C0.266,-0.608 0.239,-0.589 0.216,-0.564C0.193,-0.54 0.175,-0.51 0.163,-0.475C0.15,-0.44 0.144,-0.401 0.144,-0.358C0.144,-0.313 0.15,-0.272 0.163,-0.237C0.176,-0.201 0.194,-0.171 0.218,-0.147C0.241,-0.122 0.269,-0.103 0.301,-0.09C0.333,-0.077 0.368,-0.071 0.407,-0.071Z" style="fill-rule:nonzero;"/>
            </g>
            <g transform="matrix(50,0,0,50,1642.63,1536.29)">
                <path d="M0.073,-0L0.073,-0.507L0.124,-0.507C0.134,-0.507 0.14,-0.505 0.144,-0.501C0.148,-0.497 0.15,-0.491 0.152,-0.482L0.158,-0.403C0.175,-0.438 0.196,-0.466 0.222,-0.486C0.247,-0.505 0.277,-0.516 0.312,-0.516C0.326,-0.516 0.338,-0.514 0.35,-0.511C0.361,-0.507 0.371,-0.503 0.381,-0.498L0.37,-0.431C0.367,-0.423 0.362,-0.419 0.354,-0.419C0.349,-0.419 0.342,-0.42 0.333,-0.423C0.323,-0.426 0.309,-0.428 0.292,-0.428C0.261,-0.428 0.235,-0.419 0.214,-0.401C0.193,-0.383 0.176,-0.357 0.162,-0.323L0.162,-0L0.073,-0Z" style="fill-rule:nonzero;"/>
            </g>
            <g transform="matrix(50,0,0,50,1662.78,1536.29)">
                <path d="M0.278,-0.515C0.315,-0.515 0.348,-0.508 0.378,-0.496C0.408,-0.484 0.433,-0.466 0.454,-0.444C0.475,-0.421 0.491,-0.393 0.502,-0.361C0.513,-0.329 0.519,-0.293 0.519,-0.254C0.519,-0.214 0.513,-0.178 0.502,-0.146C0.491,-0.114 0.475,-0.086 0.454,-0.064C0.433,-0.041 0.408,-0.023 0.378,-0.011C0.348,0.001 0.315,0.007 0.278,0.007C0.241,0.007 0.208,0.001 0.178,-0.011C0.148,-0.023 0.123,-0.041 0.102,-0.064C0.081,-0.086 0.064,-0.114 0.053,-0.146C0.042,-0.178 0.036,-0.214 0.036,-0.254C0.036,-0.293 0.042,-0.329 0.053,-0.361C0.064,-0.393 0.081,-0.421 0.102,-0.444C0.123,-0.466 0.148,-0.484 0.178,-0.496C0.208,-0.508 0.241,-0.515 0.278,-0.515ZM0.278,-0.063C0.328,-0.063 0.365,-0.079 0.39,-0.113C0.415,-0.146 0.427,-0.193 0.427,-0.253C0.427,-0.313 0.415,-0.36 0.39,-0.394C0.365,-0.428 0.328,-0.444 0.278,-0.445C0.253,-0.444 0.231,-0.44 0.212,-0.432C0.193,-0.423 0.178,-0.41 0.165,-0.394C0.153,-0.378 0.143,-0.358 0.137,-0.334C0.131,-0.31 0.128,-0.283 0.128,-0.253C0.128,-0.223 0.131,-0.196 0.137,-0.173C0.143,-0.149 0.153,-0.129 0.165,-0.113C0.178,-0.096 0.193,-0.084 0.212,-0.076C0.231,-0.067 0.253,-0.063 0.278,-0.063Z" style="fill-rule:nonzero;"/>
            </g>
            <g transform="matrix(50,0,0,50,1690.58,1536.29)">
                <path d="M0.15,-0.507L0.15,-0.184C0.15,-0.145 0.159,-0.116 0.177,-0.095C0.194,-0.074 0.221,-0.063 0.257,-0.063C0.282,-0.063 0.307,-0.069 0.33,-0.082C0.353,-0.094 0.374,-0.111 0.394,-0.133L0.394,-0.507L0.483,-0.507L0.483,-0L0.43,-0C0.417,-0 0.409,-0.006 0.406,-0.019L0.399,-0.073C0.377,-0.049 0.352,-0.029 0.325,-0.014C0.297,0.001 0.266,0.008 0.231,0.008C0.203,0.008 0.178,0.004 0.157,-0.006C0.136,-0.015 0.118,-0.028 0.104,-0.045C0.09,-0.061 0.079,-0.081 0.072,-0.105C0.065,-0.129 0.061,-0.155 0.061,-0.184L0.061,-0.507L0.15,-0.507Z" style="fill-rule:nonzero;"/>
            </g>
            <g transform="matrix(50,0,0,50,1718.38,1536.29)">
                <path d="M0.073,0.172L0.073,-0.507L0.126,-0.507C0.139,-0.507 0.147,-0.5 0.15,-0.488L0.158,-0.428C0.179,-0.454 0.204,-0.476 0.232,-0.492C0.26,-0.507 0.292,-0.516 0.328,-0.516C0.357,-0.516 0.383,-0.51 0.407,-0.499C0.431,-0.488 0.451,-0.471 0.468,-0.449C0.484,-0.427 0.497,-0.4 0.506,-0.368C0.515,-0.336 0.52,-0.299 0.52,-0.257C0.52,-0.219 0.515,-0.184 0.505,-0.152C0.495,-0.12 0.48,-0.092 0.462,-0.069C0.443,-0.045 0.42,-0.027 0.393,-0.013C0.366,0 0.335,0.007 0.301,0.007C0.27,0.007 0.243,0.002 0.221,-0.009C0.199,-0.019 0.179,-0.034 0.162,-0.053L0.162,0.172L0.073,0.172ZM0.299,-0.444C0.27,-0.444 0.244,-0.437 0.222,-0.424C0.2,-0.41 0.18,-0.391 0.162,-0.367L0.162,-0.122C0.178,-0.1 0.196,-0.085 0.216,-0.076C0.235,-0.067 0.257,-0.062 0.281,-0.062C0.328,-0.062 0.364,-0.079 0.39,-0.113C0.415,-0.146 0.428,-0.194 0.428,-0.257C0.428,-0.29 0.424,-0.318 0.419,-0.342C0.413,-0.365 0.405,-0.385 0.394,-0.4C0.383,-0.415 0.369,-0.426 0.353,-0.433C0.337,-0.44 0.319,-0.444 0.299,-0.444Z" style="fill-rule:nonzero;"/>
            </g>
        </g>
        <g transform="matrix(1.63249,0,0,1,-1207.04,10.6753)">
            <rect x="1880.26" y="1210.23" width="492.845" height="16.013" style="fill:rgb(29,29,29);"/>
        </g>
        <g transform="matrix(6.12323e-17,1,-1,6.12323e-17,3582.18,-819.042)">
            <path d="M2095.55,1329.48L2095.55,1302.7L2136.47,1302.7L2136.47,1277.84L2174.72,1316.09L2136.47,1354.35L2136.47,1329.48L2095.55,1329.48Z" style="fill:rgb(29,29,29);"/>
        </g>
        <g transform="matrix(0.454572,0,0,1,1004.71,-5.69352)">
            <rect x="1883.82" y="1414.49" width="20.639" height="17.792" style="fill:rgb(29,29,29);"/>
        </g>
        <g transform="matrix(0.454572,0,0,1,1418.66,-5.69352)">
            <rect x="1883.82" y="1414.49" width="20.639" height="17.792" style="fill:rgb(29,29,29);"/>
        </g>
        <g transform="matrix(0.454572,0,0,1,1207.66,-5.69352)">
            <rect x="1883.82" y="1414.49" width="20.639" height="17.792" style="fill:rgb(29,29,29);"/>
        </g>
        <g transform="matrix(0.454572,0,0,1,1621.61,-5.69352)">
            <rect x="1883.82" y="1414.49" width="20.639" height="17.792" style="fill:rgb(29,29,29);"/>
        </g>
        <g transform="matrix(0.454572,0,0,1,1106.43,-5.69352)">
            <rect x="1883.82" y="1414.49" width="20.639" height="17.792" style="fill:rgb(29,29,29);"/>
        </g>
        <g transform="matrix(0.454572,0,0,1,1520.37,-5.69352)">
            <rect x="1883.82" y="1414.49" width="20.639" height="17.792" style="fill:rgb(29,29,29);"/>
        </g>
        <g transform="matrix(0.454572,0,0,1,1309.38,-5.69352)">
            <rect x="1883.82" y="1414.49" width="20.639" height="17.792" style="fill:rgb(29,29,29);"/>
        </g>
        <g transform="matrix(0.454572,0,0,1,1723.32,-5.69352)">
            <rect x="1883.82" y="1414.49" width="20.639" height="17.792" style="fill:rgb(29,29,29);"/>
        </g>
        <g transform="matrix(0.454572,0,0,1,1016.82,-5.69352)">
            <rect x="1883.82" y="1414.49" width="20.639" height="17.792" style="fill:rgb(29,29,29);"/>
        </g>
        <g transform="matrix(0.454572,0,0,1,1430.77,-5.69352)">
            <rect x="1883.82" y="1414.49" width="20.639" height="17.792" style="fill:rgb(29,29,29);"/>
        </g>
        <g transform="matrix(0.454572,0,0,1,1219.77,-5.69352)">
            <rect x="1883.82" y="1414.49" width="20.639" height="17.792" style="fill:rgb(29,29,29);"/>
        </g>
        <g transform="matrix(0.454572,0,0,1,1633.72,-5.69352)">
            <rect x="1883.82" y="1414.49" width="20.639" height="17.792" style="fill:rgb(29,29,29);"/>
        </g>
        <g transform="matrix(0.454572,0,0,1,1118.53,-5.69352)">
            <rect x="1883.82" y="1414.49" width="20.639" height="17.792" style="fill:rgb(29,29,29);"/>
        </g>
        <g transform="matrix(0.454572,0,0,1,1532.48,-5.69352)">
            <rect x="1883.82" y="1414.49" width="20.639" height="17.792" style="fill:rgb(29,29,29);"/>
        </g>
        <g transform="matrix(0.454572,0,0,1,1321.48,-5.69352)">
            <rect x="1883.82" y="1414.49" width="20.639" height="17.792" style="fill:rgb(29,29,29);"/>
        </g>
        <g transform="matrix(0.454572,0,0,1,1735.43,-5.69352)">
            <rect x="1883.82" y="1414.49" width="20.639" height="17.792" style="fill:rgb(29,29,29);"/>
        </g>
        <g transform="matrix(0.454572,0,0,1,1028.93,-5.69352)">
            <rect x="1883.82" y="1414.49" width="20.639" height="17.792" style="fill:rgb(29,29,29);"/>
        </g>
        <g transform="matrix(0.454572,0,0,1,1442.87,-5.69352)">
            <rect x="1883.82" y="1414.49" width="20.639" height="17.792" style="fill:rgb(29,29,29);"/>
        </g>
        <g transform="matrix(0.454572,0,0,1,1231.88,-5.69352)">
            <rect x="1883.82" y="1414.49" width="20.639" height="17.792" style="fill:rgb(29,29,29);"/>
        </g>
        <g transform="matrix(0.454572,0,0,1,1645.83,-5.69352)">
            <rect x="1883.82" y="1414.49" width="20.639" height="17.792" style="fill:rgb(29,29,29);"/>
        </g>
        <g transform="matrix(0.454572,0,0,1,1130.64,-5.69352)">
            <rect x="1883.82" y="1414.49" width="20.639" height="17.792" style="fill:rgb(29,29,29);"/>
        </g>
        <g transform="matrix(0.454572,0,0,1,1544.59,-5.69352)">
            <rect x="1883.82" y="1414.49" width="20.639" height="17.792" style="fill:rgb(29,29,29);"/>
        </g>
        <g transform="matrix(0.454572,0,0,1,1333.59,-5.69352)">
            <rect x="1883.82" y="1414.49" width="20.639" height="17.792" style="fill:rgb(29,29,29);"/>
        </g>
        <g transform="matrix(0.454572,0,0,1,1747.54,-5.69352)">
            <rect x="1883.82" y="1414.49" width="20.639" height="17.792" style="fill:rgb(29,29,29);"/>
        </g>
        <g transform="matrix(0.454572,0,0,1,1041.04,-5.69352)">
            <rect x="1883.82" y="1414.49" width="20.639" height="17.792" style="fill:rgb(29,29,29);"/>
        </g>
        <g transform="matrix(0.454572,0,0,1,1454.98,-5.69352)">
            <rect x="1883.82" y="1414.49" width="20.639" height="17.792" style="fill:rgb(29,29,29);"/>
        </g>
        <g transform="matrix(0.454572,0,0,1,1243.99,-5.69352)">
            <rect x="1883.82" y="1414.49" width="20.639" height="17.792" style="fill:rgb(29,29,29);"/>
        </g>
        <g transform="matrix(0.454572,0,0,1,1657.93,-5.69352)">
            <rect x="1883.82" y="1414.49" width="20.639" height="17.792" style="fill:rgb(29,29,29);"/>
        </g>
        <g transform="matrix(0.454572,0,0,1,1142.75,-5.69352)">
            <rect x="1883.82" y="1414.49" width="20.639" height="17.792" style="fill:rgb(29,29,29);"/>
        </g>
        <g transform="matrix(0.454572,0,0,1,1556.7,-5.69352)">
            <rect x="1883.82" y="1414.49" width="20.639" height="17.792" style="fill:rgb(29,29,29);"/>
        </g>
        <g transform="matrix(0.454572,0,0,1,1345.7,-5.69352)">
            <rect x="1883.82" y="1414.49" width="20.639" height="17.792" style="fill:rgb(29,29,29);"/>
        </g>
        <g transform="matrix(0.454572,0,0,1,1759.65,-5.69352)">
            <rect x="1883.82" y="1414.49" width="20.639" height="17.792" style="fill:rgb(29,29,29);"/>
        </g>
        <g transform="matrix(0.454572,0,0,1,1053.15,-5.69352)">
            <rect x="1883.82" y="1414.49" width="20.639" height="17.792" style="fill:rgb(29,29,29);"/>
        </g>
        <g transform="matrix(0.454572,0,0,1,1467.09,-5.69352)">
            <rect x="1883.82" y="1414.49" width="20.639" height="17.792" style="fill:rgb(29,29,29);"/>
        </g>
        <g transform="matrix(0.454572,0,0,1,1256.1,-5.69352)">
            <rect x="1883.82" y="1414.49" width="20.639" height="17.792" style="fill:rgb(29,29,29);"/>
        </g>
        <g transform="matrix(0.454572,0,0,1,1670.04,-5.69352)">
            <rect x="1883.82" y="1414.49" width="20.639" height="17.792" style="fill:rgb(29,29,29);"/>
        </g>
        <g transform="matrix(0.454572,0,0,1,1154.86,-5.69352)">
            <rect x="1883.82" y="1414.49" width="20.639" height="17.792" style="fill:rgb(29,29,29);"/>
        </g>
        <g transform="matrix(0.454572,0,0,1,1568.8,-5.69352)">
            <rect x="1883.82" y="1414.49" width="20.639" height="17.792" style="fill:rgb(29,29,29);"/>
        </g>
        <g transform="matrix(0.454572,0,0,1,1357.81,-5.69352)">
            <rect x="1883.82" y="1414.49" width="20.639" height="17.792" style="fill:rgb(29,29,29);"/>
        </g>
        <g transform="matrix(0.454572,0,0,1,1771.75,-5.69352)">
            <rect x="1883.82" y="1414.49" width="20.639" height="17.792" style="fill:rgb(29,29,29);"/>
        </g>
        <g transform="matrix(0.454572,0,0,1,1077.37,-5.69352)">
            <rect x="1883.82" y="1414.49" width="20.639" height="17.792" style="fill:rgb(29,29,29);"/>
        </g>
        <g transform="matrix(0.454572,0,0,1,1491.31,-5.69352)">
            <rect x="1883.82" y="1414.49" width="20.639" height="17.792" style="fill:rgb(29,29,29);"/>
        </g>
        <g transform="matrix(0.454572,0,0,1,1280.32,-5.69352)">
            <rect x="1883.82" y="1414.49" width="20.639" height="17.792" style="fill:rgb(29,29,29);"/>
        </g>
        <g transform="matrix(0.454572,0,0,1,1694.26,-5.69352)">
            <rect x="1883.82" y="1414.49" width="20.639" height="17.792" style="fill:rgb(29,29,29);"/>
        </g>
        <g transform="matrix(0.454572,0,0,1,1179.08,-5.69352)">
            <rect x="1883.82" y="1414.49" width="20.639" height="17.792" style="fill:rgb(29,29,29);"/>
        </g>
        <g transform="matrix(0.454572,0,0,1,1593.02,-5.69352)">
            <rect x="1883.82" y="1414.49" width="20.639" height="17.792" style="fill:rgb(29,29,29);"/>
        </g>
        <g transform="matrix(0.454572,0,0,1,1382.03,-5.69352)">
            <rect x="1883.82" y="1414.49" width="20.639" height="17.792" style="fill:rgb(29,29,29);"/>
        </g>
        <g transform="matrix(0.454572,0,0,1,1795.97,-5.69352)">
            <rect x="1883.82" y="1414.49" width="20.639" height="17.792" style="fill:rgb(29,29,29);"/>
        </g>
        <g transform="matrix(0.454572,0,0,1,1065.26,-5.69352)">
            <rect x="1883.82" y="1414.49" width="20.639" height="17.792" style="fill:rgb(29,29,29);"/>
        </g>
        <g transform="matrix(0.454572,0,0,1,1479.2,-5.69352)">
            <rect x="1883.82" y="1414.49" width="20.639" height="17.792" style="fill:rgb(29,29,29);"/>
        </g>
        <g transform="matrix(0.454572,0,0,1,1268.21,-5.69352)">
            <rect x="1883.82" y="1414.49" width="20.639" height="17.792" style="fill:rgb(29,29,29);"/>
        </g>
        <g transform="matrix(0.454572,0,0,1,1682.15,-5.69352)">
            <rect x="1883.82" y="1414.49" width="20.639" height="17.792" style="fill:rgb(29,29,29);"/>
        </g>
        <g transform="matrix(0.454572,0,0,1,1166.97,-5.69352)">
            <rect x="1883.82" y="1414.49" width="20.639" height="17.792" style="fill:rgb(29,29,29);"/>
        </g>
        <g transform="matrix(0.454572,0,0,1,1580.91,-5.69352)">
            <rect x="1883.82" y="1414.49" width="20.639" height="17.792" style="fill:rgb(29,29,29);"/>
        </g>
        <g transform="matrix(0.454572,0,0,1,1369.92,-5.69352)">
            <rect x="1883.82" y="1414.49" width="20.639" height="17.792" style="fill:rgb(29,29,29);"/>
        </g>
        <g transform="matrix(0.454572,0,0,1,1783.86,-5.69352)">
            <rect x="1883.82" y="1414.49" width="20.639" height="17.792" style="fill:rgb(29,29,29);"/>
        </g>
        <g transform="matrix(0.454572,0,0,1,1089.47,-5.69352)">
            <rect x="1883.82" y="1414.49" width="20.639" height="17.792" style="fill:rgb(29,29,29);"/>
        </g>
        <g transform="matrix(0.454572,0,0,1,1503.42,-5.69352)">
            <rect x="1883.82" y="1414.49" width="20.639" height="17.792" style="fill:rgb(29,29,29);"/>
        </g>
        <g transform="matrix(0.454572,0,0,1,1292.43,-5.69352)">
            <rect x="1883.82" y="1414.49" width="20.639" height="17.792" style="fill:rgb(29,29,29);"/>
        </g>
        <g transform="matrix(0.454572,0,0,1,1706.37,-5.69352)">
            <rect x="1883.82" y="1414.49" width="20.639" height="17.792" style="fill:rgb(29,29,29);"/>
        </g>
        <g transform="matrix(0.454572,0,0,1,1191.19,-5.69352)">
            <rect x="1883.82" y="1414.49" width="20.639" height="17.792" style="fill:rgb(29,29,29);"/>
        </g>
        <g transform="matrix(0.454572,0,0,1,1605.13,-5.69352)">
            <rect x="1883.82" y="1414.49" width="20.639" height="17.792" style="fill:rgb(29,29,29);"/>
        </g>
        <g transform="matrix(0.454572,0,0,1,1394.14,-5.69352)">
            <rect x="1883.82" y="1414.49" width="20.639" height="17.792" style="fill:rgb(29,29,29);"/>
        </g>
        <g transform="matrix(0.454572,0,0,1,1808.08,-5.69352)">
            <rect x="1883.82" y="1414.49" width="20.639" height="17.792" style="fill:rgb(29,29,29);"/>
        </g>
        <g transform="matrix(0.703822,0,0,0.703822,625.179,436.125)">
            <g transform="matrix(50,0,0,50,1708.03,1410.21)">
                <path d="M0.55,-0.358C0.55,-0.295 0.543,-0.241 0.53,-0.195C0.516,-0.149 0.498,-0.112 0.475,-0.082C0.451,-0.051 0.424,-0.029 0.392,-0.015C0.36,0 0.326,0.008 0.29,0.008C0.253,0.008 0.219,0 0.187,-0.015C0.156,-0.029 0.128,-0.051 0.105,-0.082C0.082,-0.112 0.063,-0.149 0.05,-0.195C0.037,-0.241 0.03,-0.295 0.03,-0.358C0.03,-0.421 0.037,-0.475 0.05,-0.521C0.063,-0.567 0.082,-0.605 0.105,-0.635C0.128,-0.665 0.156,-0.688 0.187,-0.703C0.219,-0.717 0.253,-0.725 0.29,-0.725C0.326,-0.725 0.36,-0.717 0.392,-0.703C0.424,-0.688 0.451,-0.665 0.475,-0.635C0.498,-0.605 0.516,-0.567 0.53,-0.521C0.543,-0.475 0.55,-0.421 0.55,-0.358ZM0.458,-0.358C0.458,-0.413 0.453,-0.458 0.444,-0.496C0.435,-0.533 0.422,-0.563 0.407,-0.586C0.391,-0.608 0.373,-0.624 0.353,-0.634C0.333,-0.644 0.312,-0.649 0.29,-0.649C0.268,-0.649 0.246,-0.644 0.226,-0.634C0.206,-0.624 0.188,-0.608 0.173,-0.586C0.157,-0.563 0.145,-0.533 0.136,-0.496C0.127,-0.458 0.122,-0.413 0.122,-0.358C0.122,-0.303 0.127,-0.258 0.136,-0.221C0.145,-0.184 0.157,-0.154 0.173,-0.131C0.188,-0.108 0.206,-0.092 0.226,-0.082C0.246,-0.072 0.268,-0.068 0.29,-0.068C0.312,-0.068 0.333,-0.072 0.353,-0.082C0.373,-0.092 0.391,-0.108 0.407,-0.131C0.422,-0.154 0.435,-0.184 0.444,-0.221C0.453,-0.258 0.458,-0.303 0.458,-0.358Z" style="fill-rule:nonzero;"/>
            </g>
        </g>
        <g transform="matrix(0.703822,0,0,0.703822,625.179,247.527)">
            <g transform="matrix(50,0,0,50,1708.03,1410.21)">
                <path d="M0.55,-0.358C0.55,-0.295 0.543,-0.241 0.53,-0.195C0.516,-0.149 0.498,-0.112 0.475,-0.082C0.451,-0.051 0.424,-0.029 0.392,-0.015C0.36,0 0.326,0.008 0.29,0.008C0.253,0.008 0.219,0 0.187,-0.015C0.156,-0.029 0.128,-0.051 0.105,-0.082C0.082,-0.112 0.063,-0.149 0.05,-0.195C0.037,-0.241 0.03,-0.295 0.03,-0.358C0.03,-0.421 0.037,-0.475 0.05,-0.521C0.063,-0.567 0.082,-0.605 0.105,-0.635C0.128,-0.665 0.156,-0.688 0.187,-0.703C0.219,-0.717 0.253,-0.725 0.29,-0.725C0.326,-0.725 0.36,-0.717 0.392,-0.703C0.424,-0.688 0.451,-0.665 0.475,-0.635C0.498,-0.605 0.516,-0.567 0.53,-0.521C0.543,-0.475 0.55,-0.421 0.55,-0.358ZM0.458,-0.358C0.458,-0.413 0.453,-0.458 0.444,-0.496C0.435,-0.533 0.422,-0.563 0.407,-0.586C0.391,-0.608 0.373,-0.624 0.353,-0.634C0.333,-0.644 0.312,-0.649 0.29,-0.649C0.268,-0.649 0.246,-0.644 0.226,-0.634C0.206,-0.624 0.188,-0.608 0.173,-0.586C0.157,-0.563 0.145,-0.533 0.136,-0.496C0.127,-0.458 0.122,-0.413 0.122,-0.358C0.122,-0.303 0.127,-0.258 0.136,-0.221C0.145,-0.184 0.157,-0.154 0.173,-0.131C0.188,-0.108 0.206,-0.092 0.226,-0.082C0.246,-0.072 0.268,-0.068 0.29,-0.068C0.312,-0.068 0.333,-0.072 0.353,-0.082C0.373,-0.092 0.391,-0.108 0.407,-0.131C0.422,-0.154 0.435,-0.184 0.444,-0.221C0.453,-0.258 0.458,-0.303 0.458,-0.358Z" style="fill-rule:nonzero;"/>
            </g>
        </g>
        <g transform="matrix(0.703822,0,0,0.703822,1472.8,247.527)">
            <g transform="matrix(50,0,0,50,1708.03,1410.21)">
                <path d="M0.301,-0.725C0.331,-0.725 0.359,-0.72 0.386,-0.711C0.412,-0.702 0.435,-0.689 0.454,-0.672C0.473,-0.655 0.488,-0.634 0.499,-0.609C0.51,-0.584 0.516,-0.556 0.516,-0.525C0.516,-0.498 0.511,-0.474 0.504,-0.451C0.496,-0.428 0.485,-0.407 0.471,-0.386C0.457,-0.365 0.442,-0.345 0.424,-0.325C0.406,-0.306 0.387,-0.286 0.367,-0.266L0.179,-0.073C0.192,-0.076 0.205,-0.079 0.219,-0.081C0.233,-0.083 0.246,-0.085 0.259,-0.085L0.499,-0.085C0.508,-0.085 0.516,-0.082 0.522,-0.076C0.527,-0.07 0.53,-0.063 0.53,-0.054L0.53,-0L0.052,-0L0.052,-0.031C0.052,-0.037 0.053,-0.043 0.056,-0.05C0.058,-0.057 0.062,-0.063 0.068,-0.069L0.298,-0.299C0.317,-0.318 0.334,-0.337 0.35,-0.355C0.365,-0.373 0.379,-0.391 0.39,-0.409C0.401,-0.427 0.41,-0.445 0.416,-0.463C0.422,-0.482 0.424,-0.501 0.425,-0.523C0.424,-0.544 0.421,-0.562 0.415,-0.578C0.408,-0.594 0.399,-0.607 0.387,-0.617C0.375,-0.627 0.362,-0.635 0.346,-0.64C0.33,-0.645 0.314,-0.648 0.296,-0.648C0.278,-0.648 0.261,-0.645 0.246,-0.64C0.23,-0.635 0.217,-0.627 0.205,-0.618C0.193,-0.608 0.183,-0.597 0.175,-0.584C0.167,-0.571 0.161,-0.557 0.158,-0.541C0.155,-0.531 0.151,-0.524 0.146,-0.52C0.14,-0.516 0.133,-0.514 0.125,-0.514L0.119,-0.514C0.117,-0.514 0.067,-0.523 0.067,-0.523C0.071,-0.555 0.08,-0.584 0.094,-0.609C0.107,-0.634 0.124,-0.656 0.144,-0.673C0.165,-0.69 0.188,-0.702 0.215,-0.711C0.241,-0.72 0.27,-0.725 0.301,-0.725Z" style="fill-rule:nonzero;"/>
            </g>
            <g transform="matrix(50,0,0,50,1737.03,1410.21)">
                <path d="M0.489,-0.678C0.489,-0.665 0.485,-0.654 0.477,-0.646C0.469,-0.638 0.456,-0.634 0.437,-0.634L0.212,-0.634L0.179,-0.446C0.216,-0.454 0.25,-0.458 0.282,-0.458C0.319,-0.458 0.352,-0.452 0.381,-0.442C0.409,-0.431 0.433,-0.415 0.453,-0.396C0.472,-0.377 0.486,-0.354 0.496,-0.328C0.506,-0.301 0.511,-0.273 0.511,-0.242C0.511,-0.204 0.504,-0.169 0.491,-0.139C0.478,-0.108 0.459,-0.082 0.436,-0.06C0.413,-0.038 0.386,-0.021 0.355,-0.01C0.323,0.002 0.289,0.008 0.253,0.008C0.232,0.008 0.212,0.006 0.193,0.002C0.173,-0.003 0.155,-0.008 0.139,-0.015C0.122,-0.022 0.106,-0.03 0.092,-0.039C0.078,-0.048 0.065,-0.057 0.054,-0.068L0.081,-0.106C0.087,-0.114 0.095,-0.119 0.105,-0.119C0.111,-0.119 0.119,-0.116 0.127,-0.111C0.136,-0.106 0.146,-0.1 0.158,-0.094C0.17,-0.087 0.184,-0.081 0.2,-0.076C0.216,-0.071 0.236,-0.069 0.258,-0.069C0.283,-0.069 0.306,-0.073 0.326,-0.081C0.345,-0.089 0.363,-0.1 0.377,-0.115C0.391,-0.13 0.402,-0.147 0.41,-0.168C0.417,-0.189 0.421,-0.212 0.421,-0.238C0.421,-0.26 0.418,-0.28 0.411,-0.298C0.405,-0.316 0.395,-0.331 0.382,-0.344C0.369,-0.357 0.352,-0.367 0.333,-0.374C0.313,-0.381 0.29,-0.384 0.264,-0.384C0.246,-0.384 0.227,-0.383 0.208,-0.38C0.188,-0.377 0.168,-0.372 0.148,-0.365L0.092,-0.382L0.15,-0.717L0.489,-0.717L0.489,-0.678Z" style="fill-rule:nonzero;"/>
            </g>
            <g transform="matrix(50,0,0,50,1766.03,1410.21)">
                <path d="M0.489,-0.678C0.489,-0.665 0.485,-0.654 0.477,-0.646C0.469,-0.638 0.456,-0.634 0.437,-0.634L0.212,-0.634L0.179,-0.446C0.216,-0.454 0.25,-0.458 0.282,-0.458C0.319,-0.458 0.352,-0.452 0.381,-0.442C0.409,-0.431 0.433,-0.415 0.453,-0.396C0.472,-0.377 0.486,-0.354 0.496,-0.328C0.506,-0.301 0.511,-0.273 0.511,-0.242C0.511,-0.204 0.504,-0.169 0.491,-0.139C0.478,-0.108 0.459,-0.082 0.436,-0.06C0.413,-0.038 0.386,-0.021 0.355,-0.01C0.323,0.002 0.289,0.008 0.253,0.008C0.232,0.008 0.212,0.006 0.193,0.002C0.173,-0.003 0.155,-0.008 0.139,-0.015C0.122,-0.022 0.106,-0.03 0.092,-0.039C0.078,-0.048 0.065,-0.057 0.054,-0.068L0.081,-0.106C0.087,-0.114 0.095,-0.119 0.105,-0.119C0.111,-0.119 0.119,-0.116 0.127,-0.111C0.136,-0.106 0.146,-0.1 0.158,-0.094C0.17,-0.087 0.184,-0.081 0.2,-0.076C0.216,-0.071 0.236,-0.069 0.258,-0.069C0.283,-0.069 0.306,-0.073 0.326,-0.081C0.345,-0.089 0.363,-0.1 0.377,-0.115C0.391,-0.13 0.402,-0.147 0.41,-0.168C0.417,-0.189 0.421,-0.212 0.421,-0.238C0.421,-0.26 0.418,-0.28 0.411,-0.298C0.405,-0.316 0.395,-0.331 0.382,-0.344C0.369,-0.357 0.352,-0.367 0.333,-0.374C0.313,-0.381 0.29,-0.384 0.264,-0.384C0.246,-0.384 0.227,-0.383 0.208,-0.38C0.188,-0.377 0.168,-0.372 0.148,-0.365L0.092,-0.382L0.15,-0.717L0.489,-0.717L0.489,-0.678Z" style="fill-rule:nonzero;"/>
            </g>
        </g>
        <g transform="matrix(0.650032,0,0,0.650032,1317.29,413.877)">
            <g transform="matrix(50,0,0,50,2105.16,1562.52)">
                <path d="M0.55,-0.358C0.55,-0.295 0.543,-0.241 0.53,-0.195C0.516,-0.149 0.498,-0.112 0.475,-0.082C0.451,-0.051 0.424,-0.029 0.392,-0.015C0.36,0 0.326,0.008 0.29,0.008C0.253,0.008 0.219,0 0.187,-0.015C0.156,-0.029 0.128,-0.051 0.105,-0.082C0.082,-0.112 0.063,-0.149 0.05,-0.195C0.037,-0.241 0.03,-0.295 0.03,-0.358C0.03,-0.421 0.037,-0.475 0.05,-0.521C0.063,-0.567 0.082,-0.605 0.105,-0.635C0.128,-0.665 0.156,-0.688 0.187,-0.703C0.219,-0.717 0.253,-0.725 0.29,-0.725C0.326,-0.725 0.36,-0.717 0.392,-0.703C0.424,-0.688 0.451,-0.665 0.475,-0.635C0.498,-0.605 0.516,-0.567 0.53,-0.521C0.543,-0.475 0.55,-0.421 0.55,-0.358ZM0.458,-0.358C0.458,-0.413 0.453,-0.458 0.444,-0.496C0.435,-0.533 0.422,-0.563 0.407,-0.586C0.391,-0.608 0.373,-0.624 0.353,-0.634C0.333,-0.644 0.312,-0.649 0.29,-0.649C0.268,-0.649 0.246,-0.644 0.226,-0.634C0.206,-0.624 0.188,-0.608 0.173,-0.586C0.157,-0.563 0.145,-0.533 0.136,-0.496C0.127,-0.458 0.122,-0.413 0.122,-0.358C0.122,-0.303 0.127,-0.258 0.136,-0.221C0.145,-0.184 0.157,-0.154 0.173,-0.131C0.188,-0.108 0.206,-0.092 0.226,-0.082C0.246,-0.072 0.268,-0.068 0.29,-0.068C0.312,-0.068 0.333,-0.072 0.353,-0.082C0.373,-0.092 0.391,-0.108 0.407,-0.131C0.422,-0.154 0.435,-0.184 0.444,-0.221C0.453,-0.258 0.458,-0.303 0.458,-0.358Z" style="fill-rule:nonzero;"/>
            </g>
            <g transform="matrix(50,0,0,50,2134.16,1562.52)">
                <path d="M0.192,-0.26L0.021,-0.507L0.107,-0.507C0.114,-0.507 0.119,-0.505 0.123,-0.503C0.126,-0.501 0.129,-0.497 0.132,-0.493L0.256,-0.303C0.259,-0.312 0.263,-0.322 0.269,-0.331L0.378,-0.491C0.381,-0.496 0.384,-0.499 0.388,-0.502C0.391,-0.505 0.395,-0.507 0.4,-0.507L0.482,-0.507L0.312,-0.265L0.489,-0L0.404,-0C0.396,-0 0.39,-0.002 0.386,-0.006C0.382,-0.01 0.379,-0.014 0.376,-0.019L0.249,-0.217C0.246,-0.207 0.243,-0.199 0.238,-0.191L0.12,-0.019C0.117,-0.014 0.113,-0.01 0.109,-0.006C0.105,-0.002 0.1,-0 0.094,-0L0.014,-0L0.192,-0.26Z" style="fill-rule:nonzero;"/>
            </g>
            <g transform="matrix(50,0,0,50,2159.36,1562.52)">
                <path d="M0.529,-0.717L0.529,-0.638L0.185,-0.638L0.185,-0.387L0.479,-0.387L0.479,-0.308L0.185,-0.308L0.185,-0L0.087,-0L0.087,-0.717L0.529,-0.717Z" style="fill-rule:nonzero;"/>
            </g>
            <g transform="matrix(50,0,0,50,2187.66,1562.52)">
                <path d="M0.529,-0.717L0.529,-0.638L0.185,-0.638L0.185,-0.387L0.479,-0.387L0.479,-0.308L0.185,-0.308L0.185,-0L0.087,-0L0.087,-0.717L0.529,-0.717Z" style="fill-rule:nonzero;"/>
            </g>
            <g transform="matrix(50,0,0,50,2215.96,1562.52)">
                <path d="M0.529,-0.717L0.529,-0.638L0.185,-0.638L0.185,-0.387L0.479,-0.387L0.479,-0.308L0.185,-0.308L0.185,-0L0.087,-0L0.087,-0.717L0.529,-0.717Z" style="fill-rule:nonzero;"/>
            </g>
            <g transform="matrix(50,0,0,50,2244.26,1562.52)">
                <path d="M0.529,-0.717L0.529,-0.638L0.185,-0.638L0.185,-0.387L0.479,-0.387L0.479,-0.308L0.185,-0.308L0.185,-0L0.087,-0L0.087,-0.717L0.529,-0.717Z" style="fill-rule:nonzero;"/>
            </g>
            <g transform="matrix(50,0,0,50,2272.56,1562.52)">
                <path d="M0.529,-0.717L0.529,-0.638L0.185,-0.638L0.185,-0.387L0.479,-0.387L0.479,-0.308L0.185,-0.308L0.185,-0L0.087,-0L0.087,-0.717L0.529,-0.717Z" style="fill-rule:nonzero;"/>
            </g>
            <g transform="matrix(50,0,0,50,2300.86,1562.52)">
                <path d="M0.529,-0.717L0.529,-0.638L0.185,-0.638L0.185,-0.387L0.479,-0.387L0.479,-0.308L0.185,-0.308L0.185,-0L0.087,-0L0.087,-0.717L0.529,-0.717Z" style="fill-rule:nonzero;"/>
            </g>
            <g transform="matrix(50,0,0,50,2329.16,1562.52)">
                <path d="M0.529,-0.717L0.529,-0.638L0.185,-0.638L0.185,-0.387L0.479,-0.387L0.479,-0.308L0.185,-0.308L0.185,-0L0.087,-0L0.087,-0.717L0.529,-0.717Z" style="fill-rule:nonzero;"/>
            </g>
            <g transform="matrix(50,0,0,50,2357.46,1562.52)">
                <path d="M0.529,-0.717L0.529,-0.638L0.185,-0.638L0.185,-0.387L0.479,-0.387L0.479,-0.308L0.185,-0.308L0.185,-0L0.087,-0L0.087,-0.717L0.529,-0.717Z" style="fill-rule:nonzero;"/>
            </g>
        </g>
    </g>
</svg>
