<?xml version="1.0" encoding="UTF-8" standalone="no"?>
<!DOCTYPE svg PUBLIC "-//W3C//DTD SVG 1.1//EN" "http://www.w3.org/Graphics/SVG/1.1/DTD/svg11.dtd">
<svg width="100%" height="100%" viewBox="0 0 1009 163" version="1.1" xmlns="http://www.w3.org/2000/svg" xmlns:xlink="http://www.w3.org/1999/xlink" xml:space="preserve" xmlns:serif="http://www.serif.com/" style="fill-rule:evenodd;clip-rule:evenodd;stroke-linecap:round;stroke-linejoin:round;stroke-miterlimit:1.5;">
    <g transform="matrix(1,0,0,1,-1691.35,-1813.84)">
        <g transform="matrix(0.896818,0,0,0.258266,1141.49,1691.27)">
            <rect x="613.687" y="476.516" width="1122.88" height="625.508" style="fill:rgb(204,204,204);stroke:white;stroke-width:1.52px;"/>
        </g>
        <g transform="matrix(0.454572,0,0,1,1004.71,519.177)">
            <rect x="1883.82" y="1414.49" width="20.639" height="17.792" style="fill:rgb(63,97,0);"/>
        </g>
        <g transform="matrix(0.454572,0,0,1,1418.66,519.177)">
            <rect x="1883.82" y="1414.49" width="20.639" height="17.792" style="fill:rgb(29,29,29);"/>
        </g>
        <g transform="matrix(0.454572,0,0,1,1207.66,519.177)">
            <rect x="1883.82" y="1414.49" width="20.639" height="17.792" style="fill:rgb(29,29,29);"/>
        </g>
        <g transform="matrix(0.454572,0,0,1,1621.61,519.177)">
            <rect x="1883.82" y="1414.49" width="20.639" height="17.792" style="fill:rgb(29,29,29);"/>
        </g>
        <g transform="matrix(0.454572,0,0,1,1106.43,519.177)">
            <rect x="1883.82" y="1414.49" width="20.639" height="17.792" style="fill:rgb(104,0,90);stroke:rgb(255,0,0);stroke-width:2.6px;"/>
        </g>
        <g transform="matrix(0.454572,0,0,1,1520.37,519.177)">
            <rect x="1883.82" y="1414.49" width="20.639" height="17.792" style="fill:rgb(29,29,29);"/>
        </g>
        <g transform="matrix(0.454572,0,0,1,1309.38,519.177)">
            <rect x="1883.82" y="1414.49" width="20.639" height="17.792" style="fill:rgb(29,29,29);"/>
        </g>
        <g transform="matrix(0.454572,0,0,1,1723.32,519.177)">
            <rect x="1883.82" y="1414.49" width="20.639" height="17.792" style="fill:rgb(29,29,29);"/>
        </g>
        <g transform="matrix(0.454572,0,0,1,1016.82,519.177)">
            <rect x="1883.82" y="1414.49" width="20.639" height="17.792" style="fill:rgb(63,97,0);stroke:rgb(255,0,0);stroke-width:2.6px;"/>
        </g>
        <g transform="matrix(0.454572,0,0,1,1430.77,519.177)">
            <rect x="1883.82" y="1414.49" width="20.639" height="17.792" style="fill:rgb(29,29,29);"/>
        </g>
        <g transform="matrix(0.454572,0,0,1,1219.77,519.177)">
            <rect x="1883.82" y="1414.49" width="20.639" height="17.792" style="fill:rgb(29,29,29);"/>
        </g>
        <g transform="matrix(0.454572,0,0,1,1633.72,519.177)">
            <rect x="1883.82" y="1414.49" width="20.639" height="17.792" style="fill:rgb(29,29,29);"/>
        </g>
        <g transform="matrix(0.454572,0,0,1,1118.53,519.177)">
            <rect x="1883.82" y="1414.49" width="20.639" height="17.792" style="fill:rgb(104,0,90);"/>
        </g>
        <g transform="matrix(0.454572,0,0,1,1532.48,519.177)">
            <rect x="1883.82" y="1414.49" width="20.639" height="17.792" style="fill:rgb(29,29,29);"/>
        </g>
        <g transform="matrix(0.454572,0,0,1,1321.48,519.177)">
            <rect x="1883.82" y="1414.49" width="20.639" height="17.792" style="fill:rgb(29,29,29);"/>
        </g>
        <g transform="matrix(0.454572,0,0,1,1735.43,519.177)">
            <rect x="1883.82" y="1414.49" width="20.639" height="17.792" style="fill:rgb(29,29,29);"/>
        </g>
        <g transform="matrix(0.454572,0,0,1,1028.93,519.177)">
            <rect x="1883.82" y="1414.49" width="20.639" height="17.792" style="fill:rgb(63,97,0);"/>
        </g>
        <g transform="matrix(0.454572,0,0,1,1442.87,519.177)">
            <rect x="1883.82" y="1414.49" width="20.639" height="17.792" style="fill:rgb(29,29,29);"/>
        </g>
        <g transform="matrix(0.454572,0,0,1,1231.88,519.177)">
            <rect x="1883.82" y="1414.49" width="20.639" height="17.792" style="fill:rgb(29,29,29);"/>
        </g>
        <g transform="matrix(0.454572,0,0,1,1645.83,519.177)">
            <rect x="1883.82" y="1414.49" width="20.639" height="17.792" style="fill:rgb(29,29,29);"/>
        </g>
        <g transform="matrix(0.454572,0,0,1,1130.64,519.177)">
            <rect x="1883.82" y="1414.49" width="20.639" height="17.792" style="fill:rgb(104,0,90);stroke:rgb(255,0,0);stroke-width:2.6px;"/>
        </g>
        <g transform="matrix(0.454572,0,0,1,1544.59,519.177)">
            <rect x="1883.82" y="1414.49" width="20.639" height="17.792" style="fill:rgb(29,29,29);"/>
        </g>
        <g transform="matrix(0.454572,0,0,1,1333.59,519.177)">
            <rect x="1883.82" y="1414.49" width="20.639" height="17.792" style="fill:rgb(29,29,29);"/>
        </g>
        <g transform="matrix(0.454572,0,0,1,1747.54,519.177)">
            <rect x="1883.82" y="1414.49" width="20.639" height="17.792" style="fill:rgb(29,29,29);"/>
        </g>
        <g transform="matrix(0.454572,0,0,1,1041.04,519.177)">
            <rect x="1883.82" y="1414.49" width="20.639" height="17.792" style="fill:rgb(63,97,0);"/>
        </g>
        <g transform="matrix(0.454572,0,0,1,1454.98,519.177)">
            <rect x="1883.82" y="1414.49" width="20.639" height="17.792" style="fill:rgb(29,29,29);"/>
        </g>
        <g transform="matrix(0.454572,0,0,1,1243.99,519.177)">
            <rect x="1883.82" y="1414.49" width="20.639" height="17.792" style="fill:rgb(29,29,29);"/>
        </g>
        <g transform="matrix(0.454572,0,0,1,1657.93,519.177)">
            <rect x="1883.82" y="1414.49" width="20.639" height="17.792" style="fill:rgb(29,29,29);"/>
        </g>
        <g transform="matrix(0.454572,0,0,1,1142.75,519.177)">
            <rect x="1883.82" y="1414.49" width="20.639" height="17.792" style="fill:rgb(104,0,90);stroke:rgb(255,0,0);stroke-width:2.6px;"/>
        </g>
        <g transform="matrix(0.454572,0,0,1,1556.7,519.177)">
            <rect x="1883.82" y="1414.49" width="20.639" height="17.792" style="fill:rgb(29,29,29);"/>
        </g>
        <g transform="matrix(0.454572,0,0,1,1345.7,519.177)">
            <rect x="1883.82" y="1414.49" width="20.639" height="17.792" style="fill:rgb(29,29,29);"/>
        </g>
        <g transform="matrix(0.454572,0,0,1,1759.65,519.177)">
            <rect x="1883.82" y="1414.49" width="20.639" height="17.792" style="fill:rgb(29,29,29);"/>
        </g>
        <g transform="matrix(0.454572,0,0,1,1053.15,519.177)">
            <rect x="1883.82" y="1414.49" width="20.639" height="17.792" style="fill:rgb(184,255,49);"/>
        </g>
        <g transform="matrix(0.454572,0,0,1,1467.09,519.177)">
            <rect x="1883.82" y="1414.49" width="20.639" height="17.792" style="fill:rgb(29,29,29);"/>
        </g>
        <g transform="matrix(0.454572,0,0,1,1256.1,519.177)">
            <rect x="1883.82" y="1414.49" width="20.639" height="17.792" style="fill:rgb(29,29,29);"/>
        </g>
        <g transform="matrix(0.454572,0,0,1,1670.04,519.177)">
            <rect x="1883.82" y="1414.49" width="20.639" height="17.792" style="fill:rgb(29,29,29);"/>
        </g>
        <g transform="matrix(0.454572,0,0,1,1154.86,519.177)">
            <rect x="1883.82" y="1414.49" width="20.639" height="17.792" style="fill:rgb(104,0,90);"/>
        </g>
        <g transform="matrix(0.454572,0,0,1,1568.8,519.177)">
            <rect x="1883.82" y="1414.49" width="20.639" height="17.792" style="fill:rgb(29,29,29);"/>
        </g>
        <g transform="matrix(0.454572,0,0,1,1357.81,519.177)">
            <rect x="1883.82" y="1414.49" width="20.639" height="17.792" style="fill:rgb(29,29,29);"/>
        </g>
        <g transform="matrix(0.454572,0,0,1,1771.75,519.177)">
            <rect x="1883.82" y="1414.49" width="20.639" height="17.792" style="fill:rgb(29,29,29);"/>
        </g>
        <g transform="matrix(0.454572,0,0,1,1077.37,519.177)">
            <rect x="1883.82" y="1414.49" width="20.639" height="17.792" style="fill:rgb(0,103,165);"/>
        </g>
        <g transform="matrix(0.454572,0,0,1,1491.31,519.177)">
            <rect x="1883.82" y="1414.49" width="20.639" height="17.792" style="fill:rgb(29,29,29);"/>
        </g>
        <g transform="matrix(0.454572,0,0,1,1280.32,519.177)">
            <rect x="1883.82" y="1414.49" width="20.639" height="17.792" style="fill:rgb(29,29,29);"/>
        </g>
        <g transform="matrix(0.454572,0,0,1,1694.26,519.177)">
            <rect x="1883.82" y="1414.49" width="20.639" height="17.792" style="fill:rgb(29,29,29);"/>
        </g>
        <g transform="matrix(0.454572,0,0,1,1179.08,519.177)">
            <rect x="1883.82" y="1414.49" width="20.639" height="17.792" style="fill:rgb(104,0,90);"/>
        </g>
        <g transform="matrix(0.454572,0,0,1,1593.02,519.177)">
            <rect x="1883.82" y="1414.49" width="20.639" height="17.792" style="fill:rgb(29,29,29);"/>
        </g>
        <g transform="matrix(0.454572,0,0,1,1382.03,519.177)">
            <rect x="1883.82" y="1414.49" width="20.639" height="17.792" style="fill:rgb(29,29,29);"/>
        </g>
        <g transform="matrix(0.454572,0,0,1,1795.97,519.177)">
            <rect x="1883.82" y="1414.49" width="20.639" height="17.792" style="fill:rgb(29,29,29);"/>
        </g>
        <g transform="matrix(0.454572,0,0,1,1065.26,519.177)">
            <rect x="1883.82" y="1414.49" width="20.639" height="17.792" style="fill:rgb(0,103,165);stroke:rgb(255,0,0);stroke-width:2.6px;"/>
        </g>
        <g transform="matrix(0.454572,0,0,1,1479.2,519.177)">
            <rect x="1883.82" y="1414.49" width="20.639" height="17.792" style="fill:rgb(29,29,29);"/>
        </g>
        <g transform="matrix(0.454572,0,0,1,1268.21,519.177)">
            <rect x="1883.82" y="1414.49" width="20.639" height="17.792" style="fill:rgb(29,29,29);"/>
        </g>
        <g transform="matrix(0.454572,0,0,1,1682.15,519.177)">
            <rect x="1883.82" y="1414.49" width="20.639" height="17.792" style="fill:rgb(29,29,29);"/>
        </g>
        <g transform="matrix(0.454572,0,0,1,1166.97,519.177)">
            <rect x="1883.82" y="1414.49" width="20.639" height="17.792" style="fill:rgb(104,0,90);"/>
        </g>
        <g transform="matrix(0.454572,0,0,1,1580.91,519.177)">
            <rect x="1883.82" y="1414.49" width="20.639" height="17.792" style="fill:rgb(29,29,29);"/>
        </g>
        <g transform="matrix(0.454572,0,0,1,1369.92,519.177)">
            <rect x="1883.82" y="1414.49" width="20.639" height="17.792" style="fill:rgb(29,29,29);"/>
        </g>
        <g transform="matrix(0.454572,0,0,1,1783.86,519.177)">
            <rect x="1883.82" y="1414.49" width="20.639" height="17.792" style="fill:rgb(29,29,29);"/>
        </g>
        <g transform="matrix(0.454572,0,0,1,1089.47,519.177)">
            <rect x="1883.82" y="1414.49" width="20.639" height="17.792" style="fill:rgb(104,0,90);"/>
        </g>
        <g transform="matrix(0.454572,0,0,1,1503.42,519.177)">
            <rect x="1883.82" y="1414.49" width="20.639" height="17.792" style="fill:rgb(29,29,29);"/>
        </g>
        <g transform="matrix(0.454572,0,0,1,1292.43,519.177)">
            <rect x="1883.82" y="1414.49" width="20.639" height="17.792" style="fill:rgb(29,29,29);"/>
        </g>
        <g transform="matrix(0.454572,0,0,1,1706.37,519.177)">
            <rect x="1883.82" y="1414.49" width="20.639" height="17.792" style="fill:rgb(29,29,29);"/>
        </g>
        <g transform="matrix(0.454572,0,0,1,1191.19,519.177)">
            <rect x="1883.82" y="1414.49" width="20.639" height="17.792" style="fill:rgb(255,173,244);"/>
        </g>
        <g transform="matrix(0.454572,0,0,1,1605.13,519.177)">
            <rect x="1883.82" y="1414.49" width="20.639" height="17.792" style="fill:rgb(29,29,29);"/>
        </g>
        <g transform="matrix(0.454572,0,0,1,1394.14,519.177)">
            <rect x="1883.82" y="1414.49" width="20.639" height="17.792" style="fill:rgb(29,29,29);"/>
        </g>
        <g transform="matrix(0.454572,0,0,1,1808.08,519.177)">
            <rect x="1883.82" y="1414.49" width="20.639" height="17.792" style="fill:rgb(29,29,29);"/>
        </g>
        <g transform="matrix(1.11629,0,0,1.11629,-385.94,-197.93)">
            <g transform="matrix(33.3333,0,0,33.3333,2020.71,1858.95)">
                <path d="M0.592,-0.148C0.597,-0.148 0.602,-0.146 0.607,-0.142L0.645,-0.1C0.615,-0.066 0.58,-0.04 0.538,-0.021C0.496,-0.002 0.446,0.008 0.387,0.008C0.335,0.008 0.288,-0.001 0.246,-0.019C0.204,-0.037 0.168,-0.062 0.139,-0.094C0.109,-0.126 0.086,-0.165 0.07,-0.21C0.053,-0.255 0.045,-0.304 0.045,-0.358C0.045,-0.412 0.054,-0.462 0.071,-0.507C0.089,-0.552 0.113,-0.59 0.145,-0.623C0.177,-0.655 0.215,-0.68 0.259,-0.698C0.303,-0.716 0.352,-0.725 0.405,-0.725C0.458,-0.725 0.503,-0.716 0.541,-0.7C0.579,-0.684 0.613,-0.662 0.643,-0.634L0.612,-0.589C0.609,-0.586 0.607,-0.583 0.604,-0.581C0.6,-0.579 0.596,-0.578 0.591,-0.578C0.586,-0.578 0.582,-0.579 0.577,-0.582C0.572,-0.585 0.566,-0.589 0.56,-0.594C0.553,-0.599 0.545,-0.604 0.536,-0.609C0.527,-0.614 0.516,-0.619 0.504,-0.624C0.492,-0.629 0.477,-0.632 0.461,-0.636C0.445,-0.639 0.426,-0.641 0.405,-0.641C0.366,-0.641 0.331,-0.634 0.299,-0.621C0.267,-0.608 0.24,-0.589 0.217,-0.565C0.194,-0.54 0.176,-0.511 0.163,-0.476C0.15,-0.44 0.144,-0.401 0.144,-0.358C0.144,-0.313 0.15,-0.274 0.163,-0.239C0.176,-0.204 0.194,-0.174 0.216,-0.15C0.238,-0.126 0.264,-0.107 0.295,-0.095C0.325,-0.082 0.358,-0.076 0.393,-0.076C0.414,-0.076 0.433,-0.077 0.45,-0.079C0.467,-0.082 0.483,-0.086 0.497,-0.091C0.512,-0.096 0.525,-0.103 0.538,-0.111C0.55,-0.119 0.563,-0.129 0.576,-0.141C0.581,-0.146 0.587,-0.148 0.592,-0.148Z" style="fill-rule:nonzero;"/>
            </g>
            <g transform="matrix(33.3333,0,0,33.3333,2043.55,1858.95)">
                <path d="M0.301,-0.725C0.331,-0.725 0.359,-0.72 0.386,-0.711C0.412,-0.702 0.435,-0.689 0.454,-0.672C0.473,-0.655 0.488,-0.634 0.499,-0.609C0.51,-0.584 0.516,-0.556 0.516,-0.525C0.516,-0.498 0.511,-0.474 0.504,-0.451C0.496,-0.428 0.485,-0.407 0.471,-0.386C0.457,-0.365 0.442,-0.345 0.424,-0.325C0.406,-0.306 0.387,-0.286 0.367,-0.266L0.179,-0.073C0.192,-0.076 0.205,-0.079 0.219,-0.081C0.233,-0.083 0.246,-0.085 0.259,-0.085L0.499,-0.085C0.508,-0.085 0.516,-0.082 0.522,-0.076C0.527,-0.07 0.53,-0.063 0.53,-0.054L0.53,-0L0.052,-0L0.052,-0.031C0.052,-0.037 0.053,-0.043 0.056,-0.05C0.058,-0.057 0.062,-0.063 0.068,-0.069L0.298,-0.299C0.317,-0.318 0.334,-0.337 0.35,-0.355C0.365,-0.373 0.379,-0.391 0.39,-0.409C0.401,-0.427 0.41,-0.445 0.416,-0.463C0.422,-0.482 0.424,-0.501 0.425,-0.523C0.424,-0.544 0.421,-0.562 0.415,-0.578C0.408,-0.594 0.399,-0.607 0.387,-0.617C0.375,-0.627 0.362,-0.635 0.346,-0.64C0.33,-0.645 0.314,-0.648 0.296,-0.648C0.278,-0.648 0.261,-0.645 0.246,-0.64C0.23,-0.635 0.217,-0.627 0.205,-0.618C0.193,-0.608 0.183,-0.597 0.175,-0.584C0.167,-0.571 0.161,-0.557 0.158,-0.541C0.155,-0.531 0.151,-0.524 0.146,-0.52C0.14,-0.516 0.133,-0.514 0.125,-0.514L0.119,-0.514C0.117,-0.514 0.067,-0.523 0.067,-0.523C0.071,-0.555 0.08,-0.584 0.094,-0.609C0.107,-0.634 0.124,-0.656 0.144,-0.673C0.165,-0.69 0.188,-0.702 0.215,-0.711C0.241,-0.72 0.27,-0.725 0.301,-0.725Z" style="fill-rule:nonzero;"/>
            </g>
            <g transform="matrix(33.3333,0,0,33.3333,2062.88,1858.95)">
                <rect x="0" y="0.083" width="0.394" height="0.06" style="fill-rule:nonzero;"/>
            </g>
            <g transform="matrix(33.3333,0,0,33.3333,2076.01,1858.95)">
                <path d="M0.194,-0.299L0.194,-0L0.097,-0L0.097,-0.717L0.3,-0.717C0.345,-0.717 0.384,-0.712 0.417,-0.703C0.45,-0.694 0.477,-0.68 0.499,-0.663C0.52,-0.646 0.536,-0.625 0.547,-0.6C0.557,-0.576 0.562,-0.548 0.562,-0.518C0.562,-0.493 0.558,-0.469 0.55,-0.447C0.542,-0.425 0.53,-0.405 0.515,-0.388C0.5,-0.37 0.482,-0.355 0.46,-0.343C0.438,-0.331 0.413,-0.321 0.386,-0.315C0.398,-0.308 0.408,-0.298 0.418,-0.285L0.627,-0L0.541,-0C0.523,-0 0.51,-0.007 0.502,-0.021L0.316,-0.277C0.31,-0.284 0.304,-0.29 0.297,-0.294C0.29,-0.297 0.28,-0.299 0.267,-0.299L0.194,-0.299ZM0.194,-0.37L0.295,-0.37C0.323,-0.37 0.348,-0.373 0.37,-0.38C0.391,-0.387 0.409,-0.396 0.424,-0.409C0.438,-0.421 0.449,-0.436 0.457,-0.454C0.464,-0.471 0.468,-0.49 0.468,-0.511C0.468,-0.554 0.453,-0.586 0.425,-0.608C0.397,-0.629 0.355,-0.64 0.3,-0.64L0.194,-0.64L0.194,-0.37Z" style="fill:rgb(63,97,0);fill-rule:nonzero;"/>
            </g>
            <g transform="matrix(33.3333,0,0,33.3333,2097.48,1858.95)">
                <path d="M0.194,-0.299L0.194,-0L0.097,-0L0.097,-0.717L0.3,-0.717C0.345,-0.717 0.384,-0.712 0.417,-0.703C0.45,-0.694 0.477,-0.68 0.499,-0.663C0.52,-0.646 0.536,-0.625 0.547,-0.6C0.557,-0.576 0.562,-0.548 0.562,-0.518C0.562,-0.493 0.558,-0.469 0.55,-0.447C0.542,-0.425 0.53,-0.405 0.515,-0.388C0.5,-0.37 0.482,-0.355 0.46,-0.343C0.438,-0.331 0.413,-0.321 0.386,-0.315C0.398,-0.308 0.408,-0.298 0.418,-0.285L0.627,-0L0.541,-0C0.523,-0 0.51,-0.007 0.502,-0.021L0.316,-0.277C0.31,-0.284 0.304,-0.29 0.297,-0.294C0.29,-0.297 0.28,-0.299 0.267,-0.299L0.194,-0.299ZM0.194,-0.37L0.295,-0.37C0.323,-0.37 0.348,-0.373 0.37,-0.38C0.391,-0.387 0.409,-0.396 0.424,-0.409C0.438,-0.421 0.449,-0.436 0.457,-0.454C0.464,-0.471 0.468,-0.49 0.468,-0.511C0.468,-0.554 0.453,-0.586 0.425,-0.608C0.397,-0.629 0.355,-0.64 0.3,-0.64L0.194,-0.64L0.194,-0.37Z" style="fill:rgb(63,97,0);fill-rule:nonzero;"/>
            </g>
            <g transform="matrix(33.3333,0,0,33.3333,2118.95,1858.95)">
                <path d="M0.301,-0.725C0.331,-0.725 0.359,-0.72 0.386,-0.711C0.412,-0.702 0.435,-0.689 0.454,-0.672C0.473,-0.655 0.488,-0.634 0.499,-0.609C0.51,-0.584 0.516,-0.556 0.516,-0.525C0.516,-0.498 0.511,-0.474 0.504,-0.451C0.496,-0.428 0.485,-0.407 0.471,-0.386C0.457,-0.365 0.442,-0.345 0.424,-0.325C0.406,-0.306 0.387,-0.286 0.367,-0.266L0.179,-0.073C0.192,-0.076 0.205,-0.079 0.219,-0.081C0.233,-0.083 0.246,-0.085 0.259,-0.085L0.499,-0.085C0.508,-0.085 0.516,-0.082 0.522,-0.076C0.527,-0.07 0.53,-0.063 0.53,-0.054L0.53,-0L0.052,-0L0.052,-0.031C0.052,-0.037 0.053,-0.043 0.056,-0.05C0.058,-0.057 0.062,-0.063 0.068,-0.069L0.298,-0.299C0.317,-0.318 0.334,-0.337 0.35,-0.355C0.365,-0.373 0.379,-0.391 0.39,-0.409C0.401,-0.427 0.41,-0.445 0.416,-0.463C0.422,-0.482 0.424,-0.501 0.425,-0.523C0.424,-0.544 0.421,-0.562 0.415,-0.578C0.408,-0.594 0.399,-0.607 0.387,-0.617C0.375,-0.627 0.362,-0.635 0.346,-0.64C0.33,-0.645 0.314,-0.648 0.296,-0.648C0.278,-0.648 0.261,-0.645 0.246,-0.64C0.23,-0.635 0.217,-0.627 0.205,-0.618C0.193,-0.608 0.183,-0.597 0.175,-0.584C0.167,-0.571 0.161,-0.557 0.158,-0.541C0.155,-0.531 0.151,-0.524 0.146,-0.52C0.14,-0.516 0.133,-0.514 0.125,-0.514L0.119,-0.514C0.117,-0.514 0.067,-0.523 0.067,-0.523C0.071,-0.555 0.08,-0.584 0.094,-0.609C0.107,-0.634 0.124,-0.656 0.144,-0.673C0.165,-0.69 0.188,-0.702 0.215,-0.711C0.241,-0.72 0.27,-0.725 0.301,-0.725Z" style="fill:rgb(63,97,0);fill-rule:nonzero;"/>
            </g>
            <g transform="matrix(33.3333,0,0,33.3333,2138.28,1858.95)">
                <rect x="0" y="0.083" width="0.394" height="0.06" style="fill-rule:nonzero;"/>
            </g>
            <g transform="matrix(33.3333,0,0,33.3333,2151.41,1858.95)">
                <path d="M0.254,-0.368L0.017,-0.717L0.114,-0.717C0.121,-0.717 0.126,-0.715 0.129,-0.713C0.132,-0.711 0.135,-0.707 0.138,-0.703L0.325,-0.416C0.327,-0.423 0.331,-0.431 0.336,-0.439L0.512,-0.701C0.515,-0.706 0.518,-0.709 0.522,-0.712C0.525,-0.715 0.53,-0.717 0.535,-0.717L0.627,-0.717L0.39,-0.373L0.635,-0L0.539,-0C0.532,-0 0.526,-0.002 0.522,-0.006C0.518,-0.01 0.514,-0.014 0.512,-0.019L0.32,-0.319C0.317,-0.312 0.314,-0.305 0.311,-0.299L0.124,-0.019C0.121,-0.014 0.117,-0.01 0.113,-0.006C0.109,-0.002 0.104,-0 0.097,-0L0.007,-0L0.254,-0.368Z" style="fill:rgb(0,103,165);fill-rule:nonzero;"/>
            </g>
            <g transform="matrix(33.3333,0,0,33.3333,2172.85,1858.95)">
                <path d="M0.529,-0.717L0.529,-0.638L0.185,-0.638L0.185,-0.387L0.479,-0.387L0.479,-0.308L0.185,-0.308L0.185,-0L0.087,-0L0.087,-0.717L0.529,-0.717Z" style="fill:rgb(0,103,165);fill-rule:nonzero;"/>
            </g>
            <g transform="matrix(33.3333,0,0,33.3333,2191.71,1858.95)">
                <path d="M0.144,-0.068L0.298,-0.068L0.298,-0.557C0.298,-0.571 0.298,-0.586 0.299,-0.601L0.171,-0.492C0.168,-0.489 0.164,-0.487 0.161,-0.486C0.158,-0.485 0.155,-0.484 0.152,-0.484C0.147,-0.484 0.142,-0.485 0.138,-0.487C0.134,-0.489 0.131,-0.492 0.129,-0.495L0.101,-0.534L0.314,-0.718L0.387,-0.718L0.387,-0.068L0.528,-0.068L0.528,-0L0.144,-0L0.144,-0.068Z" style="fill:rgb(0,103,165);fill-rule:nonzero;"/>
            </g>
            <g transform="matrix(33.3333,0,0,33.3333,2211.05,1858.95)">
                <rect x="0" y="0.083" width="0.394" height="0.06" style="fill-rule:nonzero;"/>
            </g>
            <g transform="matrix(33.3333,0,0,33.3333,2224.18,1858.95)">
                <path d="M0.708,-0.358C0.708,-0.304 0.7,-0.256 0.683,-0.212C0.666,-0.167 0.642,-0.13 0.611,-0.099C0.58,-0.067 0.542,-0.043 0.499,-0.026C0.456,-0.009 0.408,-0 0.355,-0L0.087,-0L0.087,-0.717L0.355,-0.717C0.408,-0.717 0.456,-0.708 0.499,-0.691C0.542,-0.674 0.58,-0.649 0.611,-0.618C0.642,-0.586 0.666,-0.549 0.683,-0.505C0.7,-0.46 0.708,-0.412 0.708,-0.358ZM0.609,-0.358C0.609,-0.402 0.603,-0.441 0.591,-0.476C0.579,-0.511 0.562,-0.54 0.54,-0.564C0.518,-0.588 0.491,-0.606 0.46,-0.619C0.428,-0.632 0.393,-0.638 0.355,-0.638L0.185,-0.638L0.185,-0.079L0.355,-0.079C0.393,-0.079 0.428,-0.085 0.46,-0.098C0.491,-0.11 0.518,-0.128 0.54,-0.152C0.562,-0.176 0.579,-0.205 0.591,-0.24C0.603,-0.275 0.609,-0.314 0.609,-0.358Z" style="fill:rgb(104,0,90);fill-rule:nonzero;"/>
            </g>
            <g transform="matrix(33.3333,0,0,33.3333,2249.28,1858.95)">
                <path d="M0.301,-0.725C0.331,-0.725 0.359,-0.72 0.386,-0.711C0.412,-0.702 0.435,-0.689 0.454,-0.672C0.473,-0.655 0.488,-0.634 0.499,-0.609C0.51,-0.584 0.516,-0.556 0.516,-0.525C0.516,-0.498 0.511,-0.474 0.504,-0.451C0.496,-0.428 0.485,-0.407 0.471,-0.386C0.457,-0.365 0.442,-0.345 0.424,-0.325C0.406,-0.306 0.387,-0.286 0.367,-0.266L0.179,-0.073C0.192,-0.076 0.205,-0.079 0.219,-0.081C0.233,-0.083 0.246,-0.085 0.259,-0.085L0.499,-0.085C0.508,-0.085 0.516,-0.082 0.522,-0.076C0.527,-0.07 0.53,-0.063 0.53,-0.054L0.53,-0L0.052,-0L0.052,-0.031C0.052,-0.037 0.053,-0.043 0.056,-0.05C0.058,-0.057 0.062,-0.063 0.068,-0.069L0.298,-0.299C0.317,-0.318 0.334,-0.337 0.35,-0.355C0.365,-0.373 0.379,-0.391 0.39,-0.409C0.401,-0.427 0.41,-0.445 0.416,-0.463C0.422,-0.482 0.424,-0.501 0.425,-0.523C0.424,-0.544 0.421,-0.562 0.415,-0.578C0.408,-0.594 0.399,-0.607 0.387,-0.617C0.375,-0.627 0.362,-0.635 0.346,-0.64C0.33,-0.645 0.314,-0.648 0.296,-0.648C0.278,-0.648 0.261,-0.645 0.246,-0.64C0.23,-0.635 0.217,-0.627 0.205,-0.618C0.193,-0.608 0.183,-0.597 0.175,-0.584C0.167,-0.571 0.161,-0.557 0.158,-0.541C0.155,-0.531 0.151,-0.524 0.146,-0.52C0.14,-0.516 0.133,-0.514 0.125,-0.514L0.119,-0.514C0.117,-0.514 0.067,-0.523 0.067,-0.523C0.071,-0.555 0.08,-0.584 0.094,-0.609C0.107,-0.634 0.124,-0.656 0.144,-0.673C0.165,-0.69 0.188,-0.702 0.215,-0.711C0.241,-0.72 0.27,-0.725 0.301,-0.725Z" style="fill:rgb(104,0,90);fill-rule:nonzero;"/>
            </g>
            <g transform="matrix(33.3333,0,0,33.3333,2268.61,1858.95)">
                <path d="M0.044,-0.055C0.044,-0.064 0.046,-0.072 0.049,-0.08C0.052,-0.087 0.056,-0.094 0.062,-0.1C0.067,-0.105 0.074,-0.11 0.082,-0.113C0.089,-0.116 0.097,-0.118 0.106,-0.118C0.115,-0.118 0.123,-0.116 0.131,-0.113C0.138,-0.11 0.145,-0.105 0.151,-0.1C0.156,-0.094 0.161,-0.087 0.164,-0.08C0.167,-0.072 0.169,-0.064 0.169,-0.055C0.169,-0.046 0.167,-0.038 0.164,-0.03C0.161,-0.023 0.156,-0.016 0.151,-0.011C0.145,-0.005 0.138,-0.001 0.131,0.003C0.123,0.006 0.115,0.008 0.106,0.008C0.097,0.008 0.089,0.006 0.082,0.003C0.074,-0.001 0.067,-0.005 0.062,-0.011C0.056,-0.016 0.052,-0.023 0.049,-0.03C0.046,-0.038 0.044,-0.046 0.044,-0.055Z" style="fill-rule:nonzero;"/>
            </g>
            <g transform="matrix(33.3333,0,0,33.3333,2274.65,1858.95)">
                <path d="M0.007,-0.507L0.077,-0.507C0.084,-0.507 0.09,-0.505 0.095,-0.501C0.1,-0.497 0.103,-0.493 0.105,-0.488L0.202,-0.162C0.204,-0.15 0.207,-0.138 0.209,-0.127C0.211,-0.116 0.213,-0.105 0.215,-0.094C0.218,-0.105 0.221,-0.116 0.224,-0.127C0.227,-0.138 0.231,-0.15 0.235,-0.162L0.342,-0.49C0.343,-0.495 0.346,-0.499 0.35,-0.503C0.354,-0.506 0.36,-0.508 0.366,-0.508L0.405,-0.508C0.411,-0.508 0.417,-0.506 0.421,-0.503C0.425,-0.499 0.428,-0.495 0.43,-0.49L0.535,-0.162C0.538,-0.15 0.541,-0.139 0.544,-0.128C0.547,-0.116 0.55,-0.105 0.553,-0.094C0.554,-0.105 0.556,-0.117 0.559,-0.129C0.562,-0.14 0.565,-0.152 0.568,-0.162L0.667,-0.488C0.668,-0.493 0.671,-0.498 0.676,-0.501C0.681,-0.505 0.686,-0.507 0.693,-0.507L0.76,-0.507L0.596,-0L0.525,-0C0.516,-0 0.51,-0.006 0.507,-0.017L0.395,-0.361C0.392,-0.368 0.39,-0.376 0.389,-0.384C0.387,-0.392 0.385,-0.399 0.384,-0.407C0.382,-0.399 0.38,-0.392 0.379,-0.384C0.377,-0.376 0.375,-0.368 0.372,-0.36L0.259,-0.017C0.255,-0.006 0.248,-0 0.238,-0L0.171,-0L0.007,-0.507Z" style="fill-rule:nonzero;"/>
            </g>
            <g transform="matrix(33.3333,0,0,33.3333,2300.18,1858.95)">
                <path d="M0.445,-0L0.406,-0C0.397,-0 0.39,-0.001 0.385,-0.004C0.379,-0.007 0.376,-0.012 0.374,-0.021L0.364,-0.068C0.351,-0.056 0.338,-0.045 0.325,-0.036C0.312,-0.026 0.299,-0.018 0.285,-0.012C0.271,-0.005 0.256,-0 0.24,0.003C0.224,0.006 0.207,0.008 0.188,0.008C0.168,0.008 0.149,0.005 0.132,-0C0.115,-0.006 0.1,-0.014 0.088,-0.025C0.075,-0.036 0.065,-0.05 0.057,-0.067C0.05,-0.084 0.046,-0.103 0.046,-0.127C0.046,-0.147 0.051,-0.166 0.063,-0.184C0.074,-0.203 0.091,-0.219 0.116,-0.234C0.14,-0.248 0.172,-0.26 0.212,-0.269C0.252,-0.278 0.3,-0.283 0.358,-0.285L0.358,-0.324C0.358,-0.363 0.349,-0.393 0.332,-0.413C0.315,-0.433 0.291,-0.444 0.258,-0.444C0.236,-0.444 0.218,-0.441 0.203,-0.435C0.188,-0.43 0.175,-0.424 0.164,-0.417C0.153,-0.41 0.144,-0.404 0.136,-0.398C0.128,-0.393 0.121,-0.39 0.113,-0.39C0.107,-0.39 0.102,-0.392 0.097,-0.395C0.093,-0.398 0.089,-0.402 0.087,-0.407L0.071,-0.435C0.098,-0.462 0.129,-0.482 0.161,-0.496C0.193,-0.509 0.229,-0.516 0.269,-0.516C0.297,-0.516 0.322,-0.511 0.344,-0.502C0.366,-0.492 0.385,-0.479 0.4,-0.463C0.415,-0.446 0.426,-0.426 0.434,-0.402C0.441,-0.378 0.445,-0.352 0.445,-0.324L0.445,-0ZM0.214,-0.055C0.23,-0.055 0.244,-0.056 0.257,-0.059C0.27,-0.062 0.282,-0.067 0.294,-0.073C0.305,-0.079 0.316,-0.086 0.327,-0.094C0.337,-0.102 0.347,-0.112 0.358,-0.123L0.358,-0.228C0.317,-0.227 0.282,-0.223 0.253,-0.218C0.224,-0.213 0.201,-0.206 0.183,-0.198C0.165,-0.19 0.152,-0.18 0.144,-0.169C0.136,-0.157 0.132,-0.145 0.132,-0.131C0.132,-0.117 0.134,-0.106 0.138,-0.096C0.142,-0.086 0.148,-0.078 0.156,-0.072C0.163,-0.066 0.171,-0.062 0.182,-0.059C0.192,-0.056 0.202,-0.055 0.214,-0.055Z" style="fill-rule:nonzero;"/>
            </g>
            <g transform="matrix(33.3333,0,0,33.3333,2316.55,1858.95)">
                <path d="M0.009,-0.507L0.082,-0.507C0.089,-0.507 0.095,-0.505 0.1,-0.501C0.104,-0.497 0.108,-0.493 0.11,-0.488L0.238,-0.162C0.243,-0.15 0.246,-0.138 0.249,-0.126C0.252,-0.114 0.254,-0.102 0.257,-0.091C0.259,-0.102 0.262,-0.114 0.265,-0.126C0.268,-0.138 0.272,-0.15 0.277,-0.162L0.407,-0.488C0.409,-0.493 0.412,-0.498 0.416,-0.501C0.421,-0.505 0.426,-0.507 0.433,-0.507L0.503,-0.507L0.296,-0L0.216,-0L0.009,-0.507Z" style="fill-rule:nonzero;"/>
            </g>
        </g>
        <g transform="matrix(0.747878,0,0,0.747878,514.678,499.014)">
            <g transform="matrix(37.2097,0,0,37.2097,1933.77,1884.09)">
                <path d="M0.301,-0.725C0.331,-0.725 0.359,-0.72 0.386,-0.711C0.412,-0.702 0.435,-0.689 0.454,-0.672C0.473,-0.655 0.488,-0.634 0.499,-0.609C0.51,-0.584 0.516,-0.556 0.516,-0.525C0.516,-0.498 0.511,-0.474 0.504,-0.451C0.496,-0.428 0.485,-0.407 0.471,-0.386C0.457,-0.365 0.442,-0.345 0.424,-0.325C0.406,-0.306 0.387,-0.286 0.367,-0.266L0.179,-0.073C0.192,-0.076 0.205,-0.079 0.219,-0.081C0.233,-0.083 0.246,-0.085 0.259,-0.085L0.499,-0.085C0.508,-0.085 0.516,-0.082 0.522,-0.076C0.527,-0.07 0.53,-0.063 0.53,-0.054L0.53,-0L0.052,-0L0.052,-0.031C0.052,-0.037 0.053,-0.043 0.056,-0.05C0.058,-0.057 0.062,-0.063 0.068,-0.069L0.298,-0.299C0.317,-0.318 0.334,-0.337 0.35,-0.355C0.365,-0.373 0.379,-0.391 0.39,-0.409C0.401,-0.427 0.41,-0.445 0.416,-0.463C0.422,-0.482 0.424,-0.501 0.425,-0.523C0.424,-0.544 0.421,-0.562 0.415,-0.578C0.408,-0.594 0.399,-0.607 0.387,-0.617C0.375,-0.627 0.362,-0.635 0.346,-0.64C0.33,-0.645 0.314,-0.648 0.296,-0.648C0.278,-0.648 0.261,-0.645 0.246,-0.64C0.23,-0.635 0.217,-0.627 0.205,-0.618C0.193,-0.608 0.183,-0.597 0.175,-0.584C0.167,-0.571 0.161,-0.557 0.158,-0.541C0.155,-0.531 0.151,-0.524 0.146,-0.52C0.14,-0.516 0.133,-0.514 0.125,-0.514L0.119,-0.514C0.117,-0.514 0.067,-0.523 0.067,-0.523C0.071,-0.555 0.08,-0.584 0.094,-0.609C0.107,-0.634 0.124,-0.656 0.144,-0.673C0.165,-0.69 0.188,-0.702 0.215,-0.711C0.241,-0.72 0.27,-0.725 0.301,-0.725Z" style="fill:rgb(255,17,0);fill-rule:nonzero;"/>
            </g>
        </g>
        <g transform="matrix(0.747878,0,0,0.747878,593.385,499.014)">
            <g transform="matrix(37.2097,0,0,37.2097,1933.77,1884.09)">
                <path d="M0.144,-0.068L0.298,-0.068L0.298,-0.557C0.298,-0.571 0.298,-0.586 0.299,-0.601L0.171,-0.492C0.168,-0.489 0.164,-0.487 0.161,-0.486C0.158,-0.485 0.155,-0.484 0.152,-0.484C0.147,-0.484 0.142,-0.485 0.138,-0.487C0.134,-0.489 0.131,-0.492 0.129,-0.495L0.101,-0.534L0.314,-0.718L0.387,-0.718L0.387,-0.068L0.528,-0.068L0.528,-0L0.144,-0L0.144,-0.068Z" style="fill:rgb(255,17,0);fill-rule:nonzero;"/>
            </g>
        </g>
        <g transform="matrix(0.551051,0,0,0.551051,1033.06,868.547)">
            <g transform="matrix(37.2097,0,0,37.2097,1933.77,1884.09)">
                <path d="M0.489,-0.678C0.489,-0.665 0.485,-0.654 0.477,-0.646C0.469,-0.638 0.456,-0.634 0.437,-0.634L0.212,-0.634L0.179,-0.446C0.216,-0.454 0.25,-0.458 0.282,-0.458C0.319,-0.458 0.352,-0.452 0.381,-0.442C0.409,-0.431 0.433,-0.415 0.453,-0.396C0.472,-0.377 0.486,-0.354 0.496,-0.328C0.506,-0.301 0.511,-0.273 0.511,-0.242C0.511,-0.204 0.504,-0.169 0.491,-0.139C0.478,-0.108 0.459,-0.082 0.436,-0.06C0.413,-0.038 0.386,-0.021 0.355,-0.01C0.323,0.002 0.289,0.008 0.253,0.008C0.232,0.008 0.212,0.006 0.193,0.002C0.173,-0.003 0.155,-0.008 0.139,-0.015C0.122,-0.022 0.106,-0.03 0.092,-0.039C0.078,-0.048 0.065,-0.057 0.054,-0.068L0.081,-0.106C0.087,-0.114 0.095,-0.119 0.105,-0.119C0.111,-0.119 0.119,-0.116 0.127,-0.111C0.136,-0.106 0.146,-0.1 0.158,-0.094C0.17,-0.087 0.184,-0.081 0.2,-0.076C0.216,-0.071 0.236,-0.069 0.258,-0.069C0.283,-0.069 0.306,-0.073 0.326,-0.081C0.345,-0.089 0.363,-0.1 0.377,-0.115C0.391,-0.13 0.402,-0.147 0.41,-0.168C0.417,-0.189 0.421,-0.212 0.421,-0.238C0.421,-0.26 0.418,-0.28 0.411,-0.298C0.405,-0.316 0.395,-0.331 0.382,-0.344C0.369,-0.357 0.352,-0.367 0.333,-0.374C0.313,-0.381 0.29,-0.384 0.264,-0.384C0.246,-0.384 0.227,-0.383 0.208,-0.38C0.188,-0.377 0.168,-0.372 0.148,-0.365L0.092,-0.382L0.15,-0.717L0.489,-0.717L0.489,-0.678Z" style="fill:rgb(255,17,0);fill-rule:nonzero;"/>
            </g>
            <g transform="matrix(37.2097,0,0,37.2097,1955.35,1884.09)">
                <path d="M0.55,-0.358C0.55,-0.295 0.543,-0.241 0.53,-0.195C0.516,-0.149 0.498,-0.112 0.475,-0.082C0.451,-0.051 0.424,-0.029 0.392,-0.015C0.36,0 0.326,0.008 0.29,0.008C0.253,0.008 0.219,0 0.187,-0.015C0.156,-0.029 0.128,-0.051 0.105,-0.082C0.082,-0.112 0.063,-0.149 0.05,-0.195C0.037,-0.241 0.03,-0.295 0.03,-0.358C0.03,-0.421 0.037,-0.475 0.05,-0.521C0.063,-0.567 0.082,-0.605 0.105,-0.635C0.128,-0.665 0.156,-0.688 0.187,-0.703C0.219,-0.717 0.253,-0.725 0.29,-0.725C0.326,-0.725 0.36,-0.717 0.392,-0.703C0.424,-0.688 0.451,-0.665 0.475,-0.635C0.498,-0.605 0.516,-0.567 0.53,-0.521C0.543,-0.475 0.55,-0.421 0.55,-0.358ZM0.458,-0.358C0.458,-0.413 0.453,-0.458 0.444,-0.496C0.435,-0.533 0.422,-0.563 0.407,-0.586C0.391,-0.608 0.373,-0.624 0.353,-0.634C0.333,-0.644 0.312,-0.649 0.29,-0.649C0.268,-0.649 0.246,-0.644 0.226,-0.634C0.206,-0.624 0.188,-0.608 0.173,-0.586C0.157,-0.563 0.145,-0.533 0.136,-0.496C0.127,-0.458 0.122,-0.413 0.122,-0.358C0.122,-0.303 0.127,-0.258 0.136,-0.221C0.145,-0.184 0.157,-0.154 0.173,-0.131C0.188,-0.108 0.206,-0.092 0.226,-0.082C0.246,-0.072 0.268,-0.068 0.29,-0.068C0.312,-0.068 0.333,-0.072 0.353,-0.082C0.373,-0.092 0.391,-0.108 0.407,-0.131C0.422,-0.154 0.435,-0.184 0.444,-0.221C0.453,-0.258 0.458,-0.303 0.458,-0.358Z" style="fill:rgb(255,17,0);fill-rule:nonzero;"/>
            </g>
            <g transform="matrix(37.2097,0,0,37.2097,1984.11,1884.09)">
                <path d="M0.145,-0.315C0.145,-0.243 0.154,-0.174 0.172,-0.107C0.19,-0.04 0.217,0.025 0.252,0.086C0.254,0.089 0.255,0.092 0.256,0.095C0.256,0.098 0.257,0.1 0.257,0.103C0.257,0.108 0.255,0.112 0.253,0.115C0.251,0.118 0.248,0.12 0.244,0.123L0.205,0.147C0.18,0.108 0.158,0.07 0.141,0.033C0.123,-0.005 0.109,-0.043 0.098,-0.081C0.087,-0.119 0.08,-0.157 0.075,-0.196C0.07,-0.234 0.067,-0.274 0.067,-0.315C0.067,-0.355 0.07,-0.394 0.075,-0.433C0.08,-0.472 0.087,-0.51 0.098,-0.548C0.109,-0.586 0.123,-0.623 0.141,-0.661C0.158,-0.699 0.18,-0.737 0.205,-0.776L0.244,-0.751C0.248,-0.749 0.251,-0.746 0.253,-0.743C0.255,-0.74 0.257,-0.736 0.257,-0.732C0.257,-0.727 0.255,-0.721 0.252,-0.715C0.217,-0.654 0.19,-0.59 0.172,-0.523C0.154,-0.455 0.145,-0.386 0.145,-0.315Z" style="fill:rgb(255,17,0);fill-rule:nonzero;"/>
            </g>
            <g transform="matrix(37.2097,0,0,37.2097,1995.27,1884.09)">
                <path d="M0.55,-0.358C0.55,-0.295 0.543,-0.241 0.53,-0.195C0.516,-0.149 0.498,-0.112 0.475,-0.082C0.451,-0.051 0.424,-0.029 0.392,-0.015C0.36,0 0.326,0.008 0.29,0.008C0.253,0.008 0.219,0 0.187,-0.015C0.156,-0.029 0.128,-0.051 0.105,-0.082C0.082,-0.112 0.063,-0.149 0.05,-0.195C0.037,-0.241 0.03,-0.295 0.03,-0.358C0.03,-0.421 0.037,-0.475 0.05,-0.521C0.063,-0.567 0.082,-0.605 0.105,-0.635C0.128,-0.665 0.156,-0.688 0.187,-0.703C0.219,-0.717 0.253,-0.725 0.29,-0.725C0.326,-0.725 0.36,-0.717 0.392,-0.703C0.424,-0.688 0.451,-0.665 0.475,-0.635C0.498,-0.605 0.516,-0.567 0.53,-0.521C0.543,-0.475 0.55,-0.421 0.55,-0.358ZM0.458,-0.358C0.458,-0.413 0.453,-0.458 0.444,-0.496C0.435,-0.533 0.422,-0.563 0.407,-0.586C0.391,-0.608 0.373,-0.624 0.353,-0.634C0.333,-0.644 0.312,-0.649 0.29,-0.649C0.268,-0.649 0.246,-0.644 0.226,-0.634C0.206,-0.624 0.188,-0.608 0.173,-0.586C0.157,-0.563 0.145,-0.533 0.136,-0.496C0.127,-0.458 0.122,-0.413 0.122,-0.358C0.122,-0.303 0.127,-0.258 0.136,-0.221C0.145,-0.184 0.157,-0.154 0.173,-0.131C0.188,-0.108 0.206,-0.092 0.226,-0.082C0.246,-0.072 0.268,-0.068 0.29,-0.068C0.312,-0.068 0.333,-0.072 0.353,-0.082C0.373,-0.092 0.391,-0.108 0.407,-0.131C0.422,-0.154 0.435,-0.184 0.444,-0.221C0.453,-0.258 0.458,-0.303 0.458,-0.358Z" style="fill:rgb(255,17,0);fill-rule:nonzero;"/>
            </g>
            <g transform="matrix(37.2097,0,0,37.2097,2016.86,1884.09)">
                <path d="M0.076,-0L0.076,-0.737L0.166,-0.737L0.166,-0.434C0.187,-0.458 0.211,-0.477 0.238,-0.492C0.265,-0.507 0.296,-0.515 0.331,-0.515C0.36,-0.515 0.387,-0.509 0.411,-0.498C0.434,-0.487 0.454,-0.47 0.471,-0.449C0.488,-0.427 0.501,-0.4 0.51,-0.368C0.519,-0.335 0.523,-0.299 0.523,-0.257C0.523,-0.219 0.518,-0.184 0.508,-0.152C0.498,-0.12 0.484,-0.092 0.465,-0.069C0.446,-0.045 0.423,-0.027 0.396,-0.013C0.369,0 0.338,0.007 0.304,0.007C0.271,0.007 0.244,0.001 0.221,-0.012C0.198,-0.025 0.178,-0.042 0.161,-0.065L0.157,-0.019C0.154,-0.006 0.146,-0 0.134,-0L0.076,-0ZM0.302,-0.444C0.273,-0.444 0.248,-0.437 0.226,-0.424C0.204,-0.41 0.184,-0.391 0.166,-0.367L0.166,-0.122C0.182,-0.1 0.199,-0.085 0.219,-0.076C0.238,-0.067 0.26,-0.062 0.284,-0.062C0.331,-0.062 0.368,-0.079 0.393,-0.113C0.418,-0.146 0.431,-0.194 0.431,-0.257C0.431,-0.29 0.428,-0.318 0.422,-0.342C0.416,-0.365 0.408,-0.385 0.397,-0.4C0.386,-0.415 0.373,-0.426 0.357,-0.433C0.341,-0.44 0.322,-0.444 0.302,-0.444Z" style="fill:rgb(255,17,0);fill-rule:nonzero;"/>
            </g>
            <g transform="matrix(37.2097,0,0,37.2097,2037.66,1884.09)">
                <path d="M0.144,-0.068L0.298,-0.068L0.298,-0.557C0.298,-0.571 0.298,-0.586 0.299,-0.601L0.171,-0.492C0.168,-0.489 0.164,-0.487 0.161,-0.486C0.158,-0.485 0.155,-0.484 0.152,-0.484C0.147,-0.484 0.142,-0.485 0.138,-0.487C0.134,-0.489 0.131,-0.492 0.129,-0.495L0.101,-0.534L0.314,-0.718L0.387,-0.718L0.387,-0.068L0.528,-0.068L0.528,-0L0.144,-0L0.144,-0.068Z" style="fill:rgb(255,17,0);fill-rule:nonzero;"/>
            </g>
            <g transform="matrix(37.2097,0,0,37.2097,2059.24,1884.09)">
                <path d="M0.144,-0.068L0.298,-0.068L0.298,-0.557C0.298,-0.571 0.298,-0.586 0.299,-0.601L0.171,-0.492C0.168,-0.489 0.164,-0.487 0.161,-0.486C0.158,-0.485 0.155,-0.484 0.152,-0.484C0.147,-0.484 0.142,-0.485 0.138,-0.487C0.134,-0.489 0.131,-0.492 0.129,-0.495L0.101,-0.534L0.314,-0.718L0.387,-0.718L0.387,-0.068L0.528,-0.068L0.528,-0L0.144,-0L0.144,-0.068Z" style="fill:rgb(255,17,0);fill-rule:nonzero;"/>
            </g>
            <g transform="matrix(37.2097,0,0,37.2097,2080.82,1884.09)">
                <path d="M0.55,-0.358C0.55,-0.295 0.543,-0.241 0.53,-0.195C0.516,-0.149 0.498,-0.112 0.475,-0.082C0.451,-0.051 0.424,-0.029 0.392,-0.015C0.36,0 0.326,0.008 0.29,0.008C0.253,0.008 0.219,0 0.187,-0.015C0.156,-0.029 0.128,-0.051 0.105,-0.082C0.082,-0.112 0.063,-0.149 0.05,-0.195C0.037,-0.241 0.03,-0.295 0.03,-0.358C0.03,-0.421 0.037,-0.475 0.05,-0.521C0.063,-0.567 0.082,-0.605 0.105,-0.635C0.128,-0.665 0.156,-0.688 0.187,-0.703C0.219,-0.717 0.253,-0.725 0.29,-0.725C0.326,-0.725 0.36,-0.717 0.392,-0.703C0.424,-0.688 0.451,-0.665 0.475,-0.635C0.498,-0.605 0.516,-0.567 0.53,-0.521C0.543,-0.475 0.55,-0.421 0.55,-0.358ZM0.458,-0.358C0.458,-0.413 0.453,-0.458 0.444,-0.496C0.435,-0.533 0.422,-0.563 0.407,-0.586C0.391,-0.608 0.373,-0.624 0.353,-0.634C0.333,-0.644 0.312,-0.649 0.29,-0.649C0.268,-0.649 0.246,-0.644 0.226,-0.634C0.206,-0.624 0.188,-0.608 0.173,-0.586C0.157,-0.563 0.145,-0.533 0.136,-0.496C0.127,-0.458 0.122,-0.413 0.122,-0.358C0.122,-0.303 0.127,-0.258 0.136,-0.221C0.145,-0.184 0.157,-0.154 0.173,-0.131C0.188,-0.108 0.206,-0.092 0.226,-0.082C0.246,-0.072 0.268,-0.068 0.29,-0.068C0.312,-0.068 0.333,-0.072 0.353,-0.082C0.373,-0.092 0.391,-0.108 0.407,-0.131C0.422,-0.154 0.435,-0.184 0.444,-0.221C0.453,-0.258 0.458,-0.303 0.458,-0.358Z" style="fill:rgb(255,17,0);fill-rule:nonzero;"/>
            </g>
            <g transform="matrix(37.2097,0,0,37.2097,2102.4,1884.09)">
                <path d="M0.144,-0.068L0.298,-0.068L0.298,-0.557C0.298,-0.571 0.298,-0.586 0.299,-0.601L0.171,-0.492C0.168,-0.489 0.164,-0.487 0.161,-0.486C0.158,-0.485 0.155,-0.484 0.152,-0.484C0.147,-0.484 0.142,-0.485 0.138,-0.487C0.134,-0.489 0.131,-0.492 0.129,-0.495L0.101,-0.534L0.314,-0.718L0.387,-0.718L0.387,-0.068L0.528,-0.068L0.528,-0L0.144,-0L0.144,-0.068Z" style="fill:rgb(255,17,0);fill-rule:nonzero;"/>
            </g>
            <g transform="matrix(37.2097,0,0,37.2097,2123.98,1884.09)">
                <path d="M0.55,-0.358C0.55,-0.295 0.543,-0.241 0.53,-0.195C0.516,-0.149 0.498,-0.112 0.475,-0.082C0.451,-0.051 0.424,-0.029 0.392,-0.015C0.36,0 0.326,0.008 0.29,0.008C0.253,0.008 0.219,0 0.187,-0.015C0.156,-0.029 0.128,-0.051 0.105,-0.082C0.082,-0.112 0.063,-0.149 0.05,-0.195C0.037,-0.241 0.03,-0.295 0.03,-0.358C0.03,-0.421 0.037,-0.475 0.05,-0.521C0.063,-0.567 0.082,-0.605 0.105,-0.635C0.128,-0.665 0.156,-0.688 0.187,-0.703C0.219,-0.717 0.253,-0.725 0.29,-0.725C0.326,-0.725 0.36,-0.717 0.392,-0.703C0.424,-0.688 0.451,-0.665 0.475,-0.635C0.498,-0.605 0.516,-0.567 0.53,-0.521C0.543,-0.475 0.55,-0.421 0.55,-0.358ZM0.458,-0.358C0.458,-0.413 0.453,-0.458 0.444,-0.496C0.435,-0.533 0.422,-0.563 0.407,-0.586C0.391,-0.608 0.373,-0.624 0.353,-0.634C0.333,-0.644 0.312,-0.649 0.29,-0.649C0.268,-0.649 0.246,-0.644 0.226,-0.634C0.206,-0.624 0.188,-0.608 0.173,-0.586C0.157,-0.563 0.145,-0.533 0.136,-0.496C0.127,-0.458 0.122,-0.413 0.122,-0.358C0.122,-0.303 0.127,-0.258 0.136,-0.221C0.145,-0.184 0.157,-0.154 0.173,-0.131C0.188,-0.108 0.206,-0.092 0.226,-0.082C0.246,-0.072 0.268,-0.068 0.29,-0.068C0.312,-0.068 0.333,-0.072 0.353,-0.082C0.373,-0.092 0.391,-0.108 0.407,-0.131C0.422,-0.154 0.435,-0.184 0.444,-0.221C0.453,-0.258 0.458,-0.303 0.458,-0.358Z" style="fill:rgb(255,17,0);fill-rule:nonzero;"/>
            </g>
            <g transform="matrix(37.2097,0,0,37.2097,2145.57,1884.09)">
                <path d="M0.149,-0.315C0.149,-0.386 0.14,-0.455 0.122,-0.523C0.103,-0.59 0.077,-0.654 0.042,-0.715C0.039,-0.721 0.037,-0.727 0.037,-0.732C0.037,-0.736 0.038,-0.74 0.041,-0.743C0.043,-0.746 0.046,-0.749 0.05,-0.751L0.089,-0.776C0.114,-0.737 0.135,-0.699 0.153,-0.661C0.17,-0.623 0.184,-0.586 0.195,-0.548C0.206,-0.51 0.214,-0.472 0.219,-0.433C0.224,-0.394 0.227,-0.355 0.227,-0.315C0.227,-0.274 0.224,-0.234 0.219,-0.196C0.214,-0.157 0.206,-0.119 0.195,-0.081C0.184,-0.043 0.17,-0.005 0.153,0.033C0.135,0.07 0.114,0.108 0.089,0.147L0.05,0.123C0.046,0.12 0.043,0.118 0.041,0.115C0.038,0.112 0.037,0.108 0.037,0.103C0.037,0.1 0.037,0.098 0.038,0.095C0.039,0.092 0.04,0.089 0.042,0.086C0.077,0.025 0.103,-0.04 0.122,-0.107C0.14,-0.174 0.149,-0.243 0.149,-0.315Z" style="fill:rgb(255,17,0);fill-rule:nonzero;"/>
            </g>
        </g>
        <g transform="matrix(0.660986,0,0,0.660986,559.381,617.192)">
            <g transform="matrix(37.2097,0,0,37.2097,1833.02,1897.13)">
                <path d="M0.454,-0.605C0.451,-0.6 0.448,-0.596 0.445,-0.593C0.441,-0.591 0.437,-0.59 0.432,-0.59C0.426,-0.59 0.419,-0.592 0.412,-0.598C0.404,-0.604 0.395,-0.61 0.383,-0.617C0.372,-0.624 0.358,-0.63 0.342,-0.636C0.326,-0.641 0.306,-0.644 0.283,-0.644C0.261,-0.644 0.242,-0.641 0.226,-0.635C0.209,-0.629 0.195,-0.622 0.184,-0.612C0.173,-0.602 0.164,-0.59 0.159,-0.576C0.153,-0.563 0.15,-0.548 0.15,-0.533C0.15,-0.513 0.155,-0.496 0.165,-0.483C0.174,-0.47 0.188,-0.458 0.204,-0.449C0.22,-0.44 0.238,-0.432 0.259,-0.425C0.279,-0.418 0.3,-0.411 0.322,-0.404C0.343,-0.396 0.364,-0.388 0.385,-0.379C0.405,-0.37 0.424,-0.358 0.44,-0.344C0.456,-0.33 0.469,-0.313 0.479,-0.293C0.489,-0.272 0.494,-0.247 0.494,-0.218C0.494,-0.186 0.488,-0.157 0.478,-0.129C0.467,-0.102 0.451,-0.078 0.431,-0.058C0.41,-0.037 0.385,-0.021 0.355,-0.01C0.325,0.002 0.292,0.008 0.254,0.008C0.207,0.008 0.165,-0 0.127,-0.017C0.089,-0.034 0.056,-0.057 0.029,-0.086L0.057,-0.132C0.06,-0.135 0.063,-0.138 0.067,-0.141C0.07,-0.143 0.075,-0.145 0.08,-0.145C0.087,-0.145 0.094,-0.141 0.104,-0.133C0.113,-0.126 0.124,-0.117 0.137,-0.109C0.151,-0.099 0.167,-0.091 0.186,-0.084C0.205,-0.076 0.229,-0.073 0.257,-0.073C0.28,-0.073 0.3,-0.076 0.318,-0.082C0.336,-0.088 0.351,-0.097 0.364,-0.109C0.376,-0.12 0.386,-0.134 0.393,-0.15C0.399,-0.166 0.403,-0.184 0.403,-0.204C0.403,-0.225 0.398,-0.243 0.388,-0.257C0.378,-0.271 0.365,-0.282 0.349,-0.292C0.333,-0.301 0.315,-0.309 0.294,-0.315C0.274,-0.322 0.253,-0.328 0.231,-0.335C0.21,-0.342 0.189,-0.35 0.168,-0.359C0.148,-0.368 0.13,-0.38 0.114,-0.394C0.097,-0.408 0.085,-0.426 0.075,-0.448C0.065,-0.469 0.06,-0.496 0.06,-0.528C0.06,-0.553 0.065,-0.577 0.075,-0.601C0.085,-0.625 0.099,-0.646 0.118,-0.664C0.136,-0.682 0.159,-0.697 0.187,-0.708C0.214,-0.719 0.246,-0.725 0.282,-0.725C0.322,-0.725 0.358,-0.718 0.391,-0.706C0.424,-0.693 0.453,-0.675 0.478,-0.651L0.454,-0.605Z" style="fill:rgb(82,82,82);fill-rule:nonzero;"/>
            </g>
            <g transform="matrix(37.2097,0,0,37.2097,1852.74,1897.13)">
                <path d="M0.445,-0L0.406,-0C0.397,-0 0.39,-0.001 0.385,-0.004C0.379,-0.007 0.376,-0.012 0.374,-0.021L0.364,-0.068C0.351,-0.056 0.338,-0.045 0.325,-0.036C0.312,-0.026 0.299,-0.018 0.285,-0.012C0.271,-0.005 0.256,-0 0.24,0.003C0.224,0.006 0.207,0.008 0.188,0.008C0.168,0.008 0.149,0.005 0.132,-0C0.115,-0.006 0.1,-0.014 0.088,-0.025C0.075,-0.036 0.065,-0.05 0.057,-0.067C0.05,-0.084 0.046,-0.103 0.046,-0.127C0.046,-0.147 0.051,-0.166 0.063,-0.184C0.074,-0.203 0.091,-0.219 0.116,-0.234C0.14,-0.248 0.172,-0.26 0.212,-0.269C0.252,-0.278 0.3,-0.283 0.358,-0.285L0.358,-0.324C0.358,-0.363 0.349,-0.393 0.332,-0.413C0.315,-0.433 0.291,-0.444 0.258,-0.444C0.236,-0.444 0.218,-0.441 0.203,-0.435C0.188,-0.43 0.175,-0.424 0.164,-0.417C0.153,-0.41 0.144,-0.404 0.136,-0.398C0.128,-0.393 0.121,-0.39 0.113,-0.39C0.107,-0.39 0.102,-0.392 0.097,-0.395C0.093,-0.398 0.089,-0.402 0.087,-0.407L0.071,-0.435C0.098,-0.462 0.129,-0.482 0.161,-0.496C0.193,-0.509 0.229,-0.516 0.269,-0.516C0.297,-0.516 0.322,-0.511 0.344,-0.502C0.366,-0.492 0.385,-0.479 0.4,-0.463C0.415,-0.446 0.426,-0.426 0.434,-0.402C0.441,-0.378 0.445,-0.352 0.445,-0.324L0.445,-0ZM0.214,-0.055C0.23,-0.055 0.244,-0.056 0.257,-0.059C0.27,-0.062 0.282,-0.067 0.294,-0.073C0.305,-0.079 0.316,-0.086 0.327,-0.094C0.337,-0.102 0.347,-0.112 0.358,-0.123L0.358,-0.228C0.317,-0.227 0.282,-0.223 0.253,-0.218C0.224,-0.213 0.201,-0.206 0.183,-0.198C0.165,-0.19 0.152,-0.18 0.144,-0.169C0.136,-0.157 0.132,-0.145 0.132,-0.131C0.132,-0.117 0.134,-0.106 0.138,-0.096C0.142,-0.086 0.148,-0.078 0.156,-0.072C0.163,-0.066 0.171,-0.062 0.182,-0.059C0.192,-0.056 0.202,-0.055 0.214,-0.055Z" style="fill:rgb(82,82,82);fill-rule:nonzero;"/>
            </g>
            <g transform="matrix(37.2097,0,0,37.2097,1871.6,1897.13)">
                <path d="M0.073,-0L0.073,-0.507L0.126,-0.507C0.139,-0.507 0.147,-0.5 0.15,-0.488L0.157,-0.436C0.175,-0.459 0.196,-0.478 0.219,-0.493C0.242,-0.507 0.269,-0.515 0.3,-0.515C0.334,-0.515 0.362,-0.505 0.383,-0.486C0.404,-0.467 0.42,-0.441 0.429,-0.409C0.436,-0.427 0.445,-0.443 0.457,-0.457C0.468,-0.47 0.481,-0.481 0.496,-0.49C0.51,-0.498 0.525,-0.505 0.541,-0.509C0.557,-0.513 0.574,-0.515 0.591,-0.515C0.617,-0.515 0.641,-0.51 0.662,-0.502C0.683,-0.493 0.7,-0.481 0.715,-0.465C0.729,-0.448 0.74,-0.428 0.748,-0.404C0.756,-0.38 0.76,-0.353 0.76,-0.323L0.76,-0L0.671,-0L0.671,-0.323C0.671,-0.362 0.662,-0.392 0.645,-0.413C0.627,-0.433 0.602,-0.444 0.569,-0.444C0.554,-0.444 0.54,-0.441 0.527,-0.436C0.514,-0.431 0.503,-0.423 0.493,-0.413C0.483,-0.403 0.475,-0.39 0.469,-0.375C0.463,-0.36 0.46,-0.342 0.46,-0.323L0.46,-0L0.371,-0L0.371,-0.323C0.371,-0.363 0.363,-0.394 0.347,-0.414C0.33,-0.434 0.306,-0.444 0.275,-0.444C0.253,-0.444 0.233,-0.438 0.214,-0.426C0.195,-0.414 0.178,-0.398 0.162,-0.378L0.162,-0L0.073,-0Z" style="fill:rgb(82,82,82);fill-rule:nonzero;"/>
            </g>
            <g transform="matrix(37.2097,0,0,37.2097,1902.15,1897.13)">
                <path d="M0.073,0.172L0.073,-0.507L0.126,-0.507C0.139,-0.507 0.147,-0.5 0.15,-0.488L0.158,-0.428C0.179,-0.454 0.204,-0.476 0.232,-0.492C0.26,-0.507 0.292,-0.516 0.328,-0.516C0.357,-0.516 0.383,-0.51 0.407,-0.499C0.431,-0.488 0.451,-0.471 0.468,-0.449C0.484,-0.427 0.497,-0.4 0.506,-0.368C0.515,-0.336 0.52,-0.299 0.52,-0.257C0.52,-0.219 0.515,-0.184 0.505,-0.152C0.495,-0.12 0.48,-0.092 0.462,-0.069C0.443,-0.045 0.42,-0.027 0.393,-0.013C0.366,0 0.335,0.007 0.301,0.007C0.27,0.007 0.243,0.002 0.221,-0.009C0.199,-0.019 0.179,-0.034 0.162,-0.053L0.162,0.172L0.073,0.172ZM0.299,-0.444C0.27,-0.444 0.244,-0.437 0.222,-0.424C0.2,-0.41 0.18,-0.391 0.162,-0.367L0.162,-0.122C0.178,-0.1 0.196,-0.085 0.216,-0.076C0.235,-0.067 0.257,-0.062 0.281,-0.062C0.328,-0.062 0.364,-0.079 0.39,-0.113C0.415,-0.146 0.428,-0.194 0.428,-0.257C0.428,-0.29 0.424,-0.318 0.419,-0.342C0.413,-0.365 0.405,-0.385 0.394,-0.4C0.383,-0.415 0.369,-0.426 0.353,-0.433C0.337,-0.44 0.319,-0.444 0.299,-0.444Z" style="fill:rgb(82,82,82);fill-rule:nonzero;"/>
            </g>
            <g transform="matrix(37.2097,0,0,37.2097,1922.69,1897.13)">
                <rect x="0.083" y="-0.737" width="0.089" height="0.737" style="fill:rgb(82,82,82);fill-rule:nonzero;"/>
            </g>
            <g transform="matrix(37.2097,0,0,37.2097,1932.22,1897.13)">
                <path d="M0.274,-0.515C0.304,-0.515 0.332,-0.509 0.358,-0.499C0.383,-0.489 0.405,-0.474 0.424,-0.455C0.443,-0.436 0.457,-0.412 0.468,-0.384C0.478,-0.356 0.484,-0.324 0.484,-0.288C0.484,-0.274 0.482,-0.265 0.479,-0.26C0.476,-0.255 0.47,-0.253 0.462,-0.253L0.125,-0.253C0.126,-0.221 0.13,-0.193 0.138,-0.17C0.146,-0.146 0.157,-0.126 0.171,-0.11C0.185,-0.094 0.202,-0.083 0.221,-0.075C0.24,-0.067 0.262,-0.063 0.286,-0.063C0.308,-0.063 0.328,-0.066 0.344,-0.071C0.36,-0.076 0.374,-0.082 0.386,-0.088C0.397,-0.094 0.407,-0.099 0.415,-0.104C0.423,-0.109 0.429,-0.112 0.435,-0.112C0.442,-0.112 0.448,-0.109 0.452,-0.104L0.477,-0.071C0.466,-0.058 0.453,-0.046 0.438,-0.036C0.422,-0.026 0.406,-0.018 0.388,-0.012C0.371,-0.006 0.353,-0.001 0.334,0.002C0.315,0.005 0.297,0.007 0.279,0.007C0.244,0.007 0.211,0.001 0.182,-0.011C0.152,-0.023 0.127,-0.04 0.105,-0.063C0.084,-0.086 0.067,-0.114 0.055,-0.148C0.043,-0.181 0.037,-0.22 0.037,-0.264C0.037,-0.299 0.042,-0.332 0.053,-0.363C0.064,-0.393 0.08,-0.42 0.1,-0.442C0.12,-0.465 0.145,-0.482 0.175,-0.495C0.204,-0.508 0.237,-0.515 0.274,-0.515ZM0.276,-0.449C0.233,-0.449 0.199,-0.437 0.174,-0.412C0.149,-0.387 0.134,-0.353 0.128,-0.309L0.404,-0.309C0.404,-0.329 0.401,-0.348 0.395,-0.365C0.389,-0.382 0.381,-0.397 0.37,-0.41C0.359,-0.422 0.345,-0.432 0.33,-0.439C0.314,-0.446 0.296,-0.449 0.276,-0.449Z" style="fill:rgb(82,82,82);fill-rule:nonzero;"/>
            </g>
            <g transform="matrix(37.2097,0,0,37.2097,1951.71,1897.13)">
                <path d="M0.064,-0.055C0.064,-0.064 0.066,-0.072 0.069,-0.08C0.072,-0.087 0.076,-0.094 0.082,-0.1C0.087,-0.105 0.094,-0.11 0.102,-0.113C0.109,-0.116 0.117,-0.118 0.126,-0.118C0.135,-0.118 0.143,-0.116 0.151,-0.113C0.158,-0.11 0.165,-0.105 0.171,-0.1C0.176,-0.094 0.181,-0.087 0.184,-0.08C0.187,-0.072 0.189,-0.064 0.189,-0.055C0.189,-0.046 0.187,-0.038 0.184,-0.03C0.181,-0.023 0.176,-0.016 0.171,-0.011C0.165,-0.005 0.158,-0.001 0.151,0.003C0.143,0.006 0.135,0.008 0.126,0.008C0.117,0.008 0.109,0.006 0.102,0.003C0.094,-0.001 0.087,-0.005 0.082,-0.011C0.076,-0.016 0.072,-0.023 0.069,-0.03C0.066,-0.038 0.064,-0.046 0.064,-0.055ZM0.064,-0.43C0.064,-0.439 0.066,-0.447 0.069,-0.455C0.072,-0.462 0.076,-0.469 0.082,-0.475C0.087,-0.48 0.094,-0.485 0.102,-0.488C0.109,-0.491 0.117,-0.493 0.126,-0.493C0.135,-0.493 0.143,-0.491 0.151,-0.488C0.158,-0.485 0.165,-0.48 0.171,-0.475C0.176,-0.469 0.181,-0.462 0.184,-0.455C0.187,-0.447 0.189,-0.439 0.189,-0.43C0.189,-0.421 0.187,-0.413 0.184,-0.405C0.181,-0.398 0.176,-0.391 0.171,-0.386C0.165,-0.38 0.158,-0.375 0.151,-0.372C0.143,-0.369 0.135,-0.368 0.126,-0.368C0.117,-0.368 0.109,-0.369 0.102,-0.372C0.094,-0.375 0.087,-0.38 0.082,-0.386C0.076,-0.391 0.072,-0.398 0.069,-0.405C0.066,-0.413 0.064,-0.421 0.064,-0.43Z" style="fill:rgb(82,82,82);fill-rule:nonzero;"/>
            </g>
        </g>
        <g transform="matrix(0.660986,0,0,0.660986,507.57,654.2)">
            <g transform="matrix(37.2097,0,0,37.2097,1833.02,1897.13)">
                <path d="M0.575,-0.717L0.575,-0.635L0.344,-0.635L0.344,-0L0.247,-0L0.247,-0.635L0.014,-0.635L0.014,-0.717L0.575,-0.717Z" style="fill:rgb(82,82,82);fill-rule:nonzero;"/>
            </g>
            <g transform="matrix(37.2097,0,0,37.2097,1851.06,1897.13)">
                <path d="M0.278,-0.515C0.315,-0.515 0.348,-0.508 0.378,-0.496C0.408,-0.484 0.433,-0.466 0.454,-0.444C0.475,-0.421 0.491,-0.393 0.502,-0.361C0.513,-0.329 0.519,-0.293 0.519,-0.254C0.519,-0.214 0.513,-0.178 0.502,-0.146C0.491,-0.114 0.475,-0.086 0.454,-0.064C0.433,-0.041 0.408,-0.023 0.378,-0.011C0.348,0.001 0.315,0.007 0.278,0.007C0.241,0.007 0.208,0.001 0.178,-0.011C0.148,-0.023 0.123,-0.041 0.102,-0.064C0.081,-0.086 0.064,-0.114 0.053,-0.146C0.042,-0.178 0.036,-0.214 0.036,-0.254C0.036,-0.293 0.042,-0.329 0.053,-0.361C0.064,-0.393 0.081,-0.421 0.102,-0.444C0.123,-0.466 0.148,-0.484 0.178,-0.496C0.208,-0.508 0.241,-0.515 0.278,-0.515ZM0.278,-0.063C0.328,-0.063 0.365,-0.079 0.39,-0.113C0.415,-0.146 0.427,-0.193 0.427,-0.253C0.427,-0.313 0.415,-0.36 0.39,-0.394C0.365,-0.428 0.328,-0.444 0.278,-0.445C0.253,-0.444 0.231,-0.44 0.212,-0.432C0.193,-0.423 0.178,-0.41 0.165,-0.394C0.153,-0.378 0.143,-0.358 0.137,-0.334C0.131,-0.31 0.128,-0.283 0.128,-0.253C0.128,-0.223 0.131,-0.196 0.137,-0.173C0.143,-0.149 0.153,-0.129 0.165,-0.113C0.178,-0.096 0.193,-0.084 0.212,-0.076C0.231,-0.067 0.253,-0.063 0.278,-0.063Z" style="fill:rgb(82,82,82);fill-rule:nonzero;"/>
            </g>
            <g transform="matrix(37.2097,0,0,37.2097,1871.75,1897.13)">
                <path d="M0.166,-0.737L0.166,-0.303L0.189,-0.303C0.195,-0.303 0.201,-0.304 0.205,-0.306C0.209,-0.308 0.214,-0.311 0.22,-0.317L0.38,-0.489C0.385,-0.494 0.39,-0.498 0.395,-0.502C0.4,-0.505 0.406,-0.507 0.415,-0.507L0.496,-0.507L0.309,-0.308C0.304,-0.302 0.3,-0.297 0.295,-0.293C0.291,-0.289 0.286,-0.285 0.28,-0.282C0.286,-0.278 0.291,-0.273 0.296,-0.268C0.301,-0.263 0.306,-0.257 0.31,-0.25L0.508,-0L0.428,-0C0.421,-0 0.414,-0.001 0.409,-0.004C0.404,-0.007 0.399,-0.012 0.395,-0.018L0.228,-0.225C0.223,-0.232 0.218,-0.237 0.213,-0.239C0.208,-0.241 0.201,-0.242 0.191,-0.242L0.166,-0.242L0.166,-0L0.076,-0L0.076,-0.737L0.166,-0.737Z" style="fill:rgb(82,82,82);fill-rule:nonzero;"/>
            </g>
            <g transform="matrix(37.2097,0,0,37.2097,1890.13,1897.13)">
                <path d="M0.274,-0.515C0.304,-0.515 0.332,-0.509 0.358,-0.499C0.383,-0.489 0.405,-0.474 0.424,-0.455C0.443,-0.436 0.457,-0.412 0.468,-0.384C0.478,-0.356 0.484,-0.324 0.484,-0.288C0.484,-0.274 0.482,-0.265 0.479,-0.26C0.476,-0.255 0.47,-0.253 0.462,-0.253L0.125,-0.253C0.126,-0.221 0.13,-0.193 0.138,-0.17C0.146,-0.146 0.157,-0.126 0.171,-0.11C0.185,-0.094 0.202,-0.083 0.221,-0.075C0.24,-0.067 0.262,-0.063 0.286,-0.063C0.308,-0.063 0.328,-0.066 0.344,-0.071C0.36,-0.076 0.374,-0.082 0.386,-0.088C0.397,-0.094 0.407,-0.099 0.415,-0.104C0.423,-0.109 0.429,-0.112 0.435,-0.112C0.442,-0.112 0.448,-0.109 0.452,-0.104L0.477,-0.071C0.466,-0.058 0.453,-0.046 0.438,-0.036C0.422,-0.026 0.406,-0.018 0.388,-0.012C0.371,-0.006 0.353,-0.001 0.334,0.002C0.315,0.005 0.297,0.007 0.279,0.007C0.244,0.007 0.211,0.001 0.182,-0.011C0.152,-0.023 0.127,-0.04 0.105,-0.063C0.084,-0.086 0.067,-0.114 0.055,-0.148C0.043,-0.181 0.037,-0.22 0.037,-0.264C0.037,-0.299 0.042,-0.332 0.053,-0.363C0.064,-0.393 0.08,-0.42 0.1,-0.442C0.12,-0.465 0.145,-0.482 0.175,-0.495C0.204,-0.508 0.237,-0.515 0.274,-0.515ZM0.276,-0.449C0.233,-0.449 0.199,-0.437 0.174,-0.412C0.149,-0.387 0.134,-0.353 0.128,-0.309L0.404,-0.309C0.404,-0.329 0.401,-0.348 0.395,-0.365C0.389,-0.382 0.381,-0.397 0.37,-0.41C0.359,-0.422 0.345,-0.432 0.33,-0.439C0.314,-0.446 0.296,-0.449 0.276,-0.449Z" style="fill:rgb(82,82,82);fill-rule:nonzero;"/>
            </g>
            <g transform="matrix(37.2097,0,0,37.2097,1909.63,1897.13)">
                <path d="M0.073,-0L0.073,-0.507L0.126,-0.507C0.139,-0.507 0.147,-0.5 0.15,-0.488L0.157,-0.433C0.179,-0.457 0.204,-0.477 0.231,-0.492C0.258,-0.507 0.289,-0.515 0.325,-0.515C0.353,-0.515 0.377,-0.51 0.398,-0.501C0.419,-0.492 0.437,-0.478 0.451,-0.462C0.465,-0.445 0.476,-0.425 0.484,-0.401C0.491,-0.377 0.495,-0.351 0.495,-0.323L0.495,-0L0.406,-0L0.406,-0.323C0.406,-0.361 0.397,-0.391 0.379,-0.412C0.362,-0.433 0.335,-0.444 0.299,-0.444C0.273,-0.444 0.248,-0.437 0.225,-0.425C0.202,-0.412 0.181,-0.395 0.162,-0.373L0.162,-0L0.073,-0Z" style="fill:rgb(82,82,82);fill-rule:nonzero;"/>
            </g>
            <g transform="matrix(37.2097,0,0,37.2097,1937.5,1897.13)">
                <path d="M0.004,-0.717L0.082,-0.717C0.09,-0.717 0.097,-0.714 0.103,-0.71C0.108,-0.706 0.112,-0.7 0.115,-0.694L0.317,-0.188C0.322,-0.177 0.326,-0.164 0.33,-0.151C0.334,-0.138 0.337,-0.124 0.341,-0.11C0.344,-0.124 0.347,-0.138 0.351,-0.151C0.354,-0.164 0.358,-0.177 0.363,-0.188L0.565,-0.694C0.567,-0.699 0.571,-0.704 0.577,-0.709C0.582,-0.714 0.589,-0.717 0.598,-0.717L0.676,-0.717L0.384,-0L0.296,-0L0.004,-0.717Z" style="fill:rgb(82,82,82);fill-rule:nonzero;"/>
            </g>
            <g transform="matrix(37.2097,0,0,37.2097,1960.64,1897.13)">
                <path d="M0.445,-0L0.406,-0C0.397,-0 0.39,-0.001 0.385,-0.004C0.379,-0.007 0.376,-0.012 0.374,-0.021L0.364,-0.068C0.351,-0.056 0.338,-0.045 0.325,-0.036C0.312,-0.026 0.299,-0.018 0.285,-0.012C0.271,-0.005 0.256,-0 0.24,0.003C0.224,0.006 0.207,0.008 0.188,0.008C0.168,0.008 0.149,0.005 0.132,-0C0.115,-0.006 0.1,-0.014 0.088,-0.025C0.075,-0.036 0.065,-0.05 0.057,-0.067C0.05,-0.084 0.046,-0.103 0.046,-0.127C0.046,-0.147 0.051,-0.166 0.063,-0.184C0.074,-0.203 0.091,-0.219 0.116,-0.234C0.14,-0.248 0.172,-0.26 0.212,-0.269C0.252,-0.278 0.3,-0.283 0.358,-0.285L0.358,-0.324C0.358,-0.363 0.349,-0.393 0.332,-0.413C0.315,-0.433 0.291,-0.444 0.258,-0.444C0.236,-0.444 0.218,-0.441 0.203,-0.435C0.188,-0.43 0.175,-0.424 0.164,-0.417C0.153,-0.41 0.144,-0.404 0.136,-0.398C0.128,-0.393 0.121,-0.39 0.113,-0.39C0.107,-0.39 0.102,-0.392 0.097,-0.395C0.093,-0.398 0.089,-0.402 0.087,-0.407L0.071,-0.435C0.098,-0.462 0.129,-0.482 0.161,-0.496C0.193,-0.509 0.229,-0.516 0.269,-0.516C0.297,-0.516 0.322,-0.511 0.344,-0.502C0.366,-0.492 0.385,-0.479 0.4,-0.463C0.415,-0.446 0.426,-0.426 0.434,-0.402C0.441,-0.378 0.445,-0.352 0.445,-0.324L0.445,-0ZM0.214,-0.055C0.23,-0.055 0.244,-0.056 0.257,-0.059C0.27,-0.062 0.282,-0.067 0.294,-0.073C0.305,-0.079 0.316,-0.086 0.327,-0.094C0.337,-0.102 0.347,-0.112 0.358,-0.123L0.358,-0.228C0.317,-0.227 0.282,-0.223 0.253,-0.218C0.224,-0.213 0.201,-0.206 0.183,-0.198C0.165,-0.19 0.152,-0.18 0.144,-0.169C0.136,-0.157 0.132,-0.145 0.132,-0.131C0.132,-0.117 0.134,-0.106 0.138,-0.096C0.142,-0.086 0.148,-0.078 0.156,-0.072C0.163,-0.066 0.171,-0.062 0.182,-0.059C0.192,-0.056 0.202,-0.055 0.214,-0.055Z" style="fill:rgb(82,82,82);fill-rule:nonzero;"/>
            </g>
            <g transform="matrix(37.2097,0,0,37.2097,1979.51,1897.13)">
                <rect x="0.083" y="-0.737" width="0.089" height="0.737" style="fill:rgb(82,82,82);fill-rule:nonzero;"/>
            </g>
            <g transform="matrix(37.2097,0,0,37.2097,1989.04,1897.13)">
                <path d="M0.15,-0.507L0.15,-0.184C0.15,-0.145 0.159,-0.116 0.177,-0.095C0.194,-0.074 0.221,-0.063 0.257,-0.063C0.282,-0.063 0.307,-0.069 0.33,-0.082C0.353,-0.094 0.374,-0.111 0.394,-0.133L0.394,-0.507L0.483,-0.507L0.483,-0L0.43,-0C0.417,-0 0.409,-0.006 0.406,-0.019L0.399,-0.073C0.377,-0.049 0.352,-0.029 0.325,-0.014C0.297,0.001 0.266,0.008 0.231,0.008C0.203,0.008 0.178,0.004 0.157,-0.006C0.136,-0.015 0.118,-0.028 0.104,-0.045C0.09,-0.061 0.079,-0.081 0.072,-0.105C0.065,-0.129 0.061,-0.155 0.061,-0.184L0.061,-0.507L0.15,-0.507Z" style="fill:rgb(82,82,82);fill-rule:nonzero;"/>
            </g>
            <g transform="matrix(37.2097,0,0,37.2097,2009.72,1897.13)">
                <path d="M0.274,-0.515C0.304,-0.515 0.332,-0.509 0.358,-0.499C0.383,-0.489 0.405,-0.474 0.424,-0.455C0.443,-0.436 0.457,-0.412 0.468,-0.384C0.478,-0.356 0.484,-0.324 0.484,-0.288C0.484,-0.274 0.482,-0.265 0.479,-0.26C0.476,-0.255 0.47,-0.253 0.462,-0.253L0.125,-0.253C0.126,-0.221 0.13,-0.193 0.138,-0.17C0.146,-0.146 0.157,-0.126 0.171,-0.11C0.185,-0.094 0.202,-0.083 0.221,-0.075C0.24,-0.067 0.262,-0.063 0.286,-0.063C0.308,-0.063 0.328,-0.066 0.344,-0.071C0.36,-0.076 0.374,-0.082 0.386,-0.088C0.397,-0.094 0.407,-0.099 0.415,-0.104C0.423,-0.109 0.429,-0.112 0.435,-0.112C0.442,-0.112 0.448,-0.109 0.452,-0.104L0.477,-0.071C0.466,-0.058 0.453,-0.046 0.438,-0.036C0.422,-0.026 0.406,-0.018 0.388,-0.012C0.371,-0.006 0.353,-0.001 0.334,0.002C0.315,0.005 0.297,0.007 0.279,0.007C0.244,0.007 0.211,0.001 0.182,-0.011C0.152,-0.023 0.127,-0.04 0.105,-0.063C0.084,-0.086 0.067,-0.114 0.055,-0.148C0.043,-0.181 0.037,-0.22 0.037,-0.264C0.037,-0.299 0.042,-0.332 0.053,-0.363C0.064,-0.393 0.08,-0.42 0.1,-0.442C0.12,-0.465 0.145,-0.482 0.175,-0.495C0.204,-0.508 0.237,-0.515 0.274,-0.515ZM0.276,-0.449C0.233,-0.449 0.199,-0.437 0.174,-0.412C0.149,-0.387 0.134,-0.353 0.128,-0.309L0.404,-0.309C0.404,-0.329 0.401,-0.348 0.395,-0.365C0.389,-0.382 0.381,-0.397 0.37,-0.41C0.359,-0.422 0.345,-0.432 0.33,-0.439C0.314,-0.446 0.296,-0.449 0.276,-0.449Z" style="fill:rgb(82,82,82);fill-rule:nonzero;"/>
            </g>
            <g transform="matrix(37.2097,0,0,37.2097,2029.22,1897.13)">
                <path d="M0.064,-0.055C0.064,-0.064 0.066,-0.072 0.069,-0.08C0.072,-0.087 0.076,-0.094 0.082,-0.1C0.087,-0.105 0.094,-0.11 0.102,-0.113C0.109,-0.116 0.117,-0.118 0.126,-0.118C0.135,-0.118 0.143,-0.116 0.151,-0.113C0.158,-0.11 0.165,-0.105 0.171,-0.1C0.176,-0.094 0.181,-0.087 0.184,-0.08C0.187,-0.072 0.189,-0.064 0.189,-0.055C0.189,-0.046 0.187,-0.038 0.184,-0.03C0.181,-0.023 0.176,-0.016 0.171,-0.011C0.165,-0.005 0.158,-0.001 0.151,0.003C0.143,0.006 0.135,0.008 0.126,0.008C0.117,0.008 0.109,0.006 0.102,0.003C0.094,-0.001 0.087,-0.005 0.082,-0.011C0.076,-0.016 0.072,-0.023 0.069,-0.03C0.066,-0.038 0.064,-0.046 0.064,-0.055ZM0.064,-0.43C0.064,-0.439 0.066,-0.447 0.069,-0.455C0.072,-0.462 0.076,-0.469 0.082,-0.475C0.087,-0.48 0.094,-0.485 0.102,-0.488C0.109,-0.491 0.117,-0.493 0.126,-0.493C0.135,-0.493 0.143,-0.491 0.151,-0.488C0.158,-0.485 0.165,-0.48 0.171,-0.475C0.176,-0.469 0.181,-0.462 0.184,-0.455C0.187,-0.447 0.189,-0.439 0.189,-0.43C0.189,-0.421 0.187,-0.413 0.184,-0.405C0.181,-0.398 0.176,-0.391 0.171,-0.386C0.165,-0.38 0.158,-0.375 0.151,-0.372C0.143,-0.369 0.135,-0.368 0.126,-0.368C0.117,-0.368 0.109,-0.369 0.102,-0.372C0.094,-0.375 0.087,-0.38 0.082,-0.386C0.076,-0.391 0.072,-0.398 0.069,-0.405C0.066,-0.413 0.064,-0.421 0.064,-0.43Z" style="fill:rgb(82,82,82);fill-rule:nonzero;"/>
            </g>
        </g>
        <g transform="matrix(0.660986,0,0,0.660986,550.84,695.193)">
            <g transform="matrix(37.2097,0,0,37.2097,1833.02,1897.13)">
                <path d="M0.087,-0L0.087,-0.717L0.316,-0.717C0.36,-0.717 0.397,-0.712 0.429,-0.704C0.461,-0.695 0.487,-0.683 0.508,-0.667C0.528,-0.651 0.543,-0.631 0.553,-0.608C0.563,-0.585 0.568,-0.559 0.568,-0.53C0.568,-0.512 0.565,-0.495 0.56,-0.479C0.554,-0.462 0.546,-0.447 0.535,-0.433C0.524,-0.419 0.509,-0.407 0.493,-0.396C0.476,-0.385 0.456,-0.376 0.434,-0.369C0.486,-0.358 0.525,-0.339 0.552,-0.312C0.579,-0.285 0.592,-0.249 0.592,-0.204C0.592,-0.174 0.586,-0.146 0.575,-0.121C0.564,-0.096 0.548,-0.075 0.526,-0.057C0.505,-0.039 0.478,-0.025 0.447,-0.015C0.416,-0.005 0.381,-0 0.341,-0L0.087,-0ZM0.184,-0.327L0.184,-0.077L0.339,-0.077C0.367,-0.077 0.39,-0.08 0.41,-0.087C0.43,-0.093 0.446,-0.102 0.459,-0.113C0.472,-0.125 0.482,-0.138 0.488,-0.154C0.494,-0.17 0.497,-0.188 0.497,-0.207C0.497,-0.244 0.483,-0.273 0.457,-0.294C0.431,-0.316 0.392,-0.327 0.339,-0.327L0.184,-0.327ZM0.184,-0.396L0.312,-0.396C0.339,-0.396 0.363,-0.399 0.383,-0.405C0.403,-0.411 0.42,-0.419 0.433,-0.43C0.446,-0.44 0.456,-0.453 0.462,-0.468C0.468,-0.483 0.472,-0.5 0.472,-0.518C0.472,-0.56 0.459,-0.591 0.434,-0.611C0.408,-0.63 0.369,-0.64 0.316,-0.64L0.184,-0.64L0.184,-0.396Z" style="fill:rgb(82,82,82);fill-rule:nonzero;"/>
            </g>
            <g transform="matrix(37.2097,0,0,37.2097,1857.09,1897.13)">
                <path d="M0.172,-0.507L0.172,-0L0.083,-0L0.083,-0.507L0.172,-0.507ZM0.192,-0.666C0.192,-0.657 0.19,-0.649 0.187,-0.641C0.183,-0.634 0.179,-0.627 0.173,-0.621C0.167,-0.615 0.16,-0.611 0.153,-0.608C0.145,-0.604 0.137,-0.603 0.128,-0.603C0.119,-0.603 0.111,-0.604 0.104,-0.608C0.096,-0.611 0.09,-0.615 0.084,-0.621C0.078,-0.627 0.073,-0.634 0.07,-0.641C0.067,-0.649 0.065,-0.657 0.065,-0.666C0.065,-0.674 0.067,-0.682 0.07,-0.69C0.073,-0.698 0.078,-0.705 0.084,-0.711C0.09,-0.717 0.096,-0.721 0.104,-0.725C0.111,-0.728 0.119,-0.73 0.128,-0.73C0.137,-0.73 0.145,-0.728 0.153,-0.725C0.16,-0.721 0.167,-0.717 0.173,-0.711C0.179,-0.705 0.183,-0.698 0.187,-0.69C0.19,-0.682 0.192,-0.674 0.192,-0.666Z" style="fill:rgb(82,82,82);fill-rule:nonzero;"/>
            </g>
            <g transform="matrix(37.2097,0,0,37.2097,1866.62,1897.13)">
                <path d="M0.227,0.008C0.187,0.008 0.156,-0.003 0.134,-0.026C0.113,-0.048 0.102,-0.08 0.102,-0.122L0.102,-0.432L0.041,-0.432C0.036,-0.432 0.031,-0.434 0.028,-0.437C0.024,-0.44 0.022,-0.445 0.022,-0.452L0.022,-0.487L0.105,-0.498L0.126,-0.654C0.126,-0.659 0.128,-0.663 0.132,-0.666C0.136,-0.669 0.14,-0.671 0.146,-0.671L0.191,-0.671L0.191,-0.497L0.336,-0.497L0.336,-0.432L0.191,-0.432L0.191,-0.128C0.191,-0.107 0.196,-0.091 0.207,-0.081C0.217,-0.07 0.23,-0.065 0.247,-0.065C0.256,-0.065 0.264,-0.066 0.271,-0.069C0.278,-0.071 0.284,-0.074 0.289,-0.077C0.294,-0.08 0.298,-0.083 0.301,-0.085C0.305,-0.088 0.308,-0.089 0.311,-0.089C0.315,-0.089 0.319,-0.086 0.323,-0.081L0.349,-0.038C0.334,-0.024 0.315,-0.012 0.294,-0.004C0.272,0.004 0.25,0.008 0.227,0.008Z" style="fill:rgb(82,82,82);fill-rule:nonzero;"/>
            </g>
            <g transform="matrix(37.2097,0,0,37.2097,1880.5,1897.13)">
                <path d="M0.073,-0L0.073,-0.507L0.126,-0.507C0.139,-0.507 0.147,-0.5 0.15,-0.488L0.157,-0.436C0.175,-0.459 0.196,-0.478 0.219,-0.493C0.242,-0.507 0.269,-0.515 0.3,-0.515C0.334,-0.515 0.362,-0.505 0.383,-0.486C0.404,-0.467 0.42,-0.441 0.429,-0.409C0.436,-0.427 0.445,-0.443 0.457,-0.457C0.468,-0.47 0.481,-0.481 0.496,-0.49C0.51,-0.498 0.525,-0.505 0.541,-0.509C0.557,-0.513 0.574,-0.515 0.591,-0.515C0.617,-0.515 0.641,-0.51 0.662,-0.502C0.683,-0.493 0.7,-0.481 0.715,-0.465C0.729,-0.448 0.74,-0.428 0.748,-0.404C0.756,-0.38 0.76,-0.353 0.76,-0.323L0.76,-0L0.671,-0L0.671,-0.323C0.671,-0.362 0.662,-0.392 0.645,-0.413C0.627,-0.433 0.602,-0.444 0.569,-0.444C0.554,-0.444 0.54,-0.441 0.527,-0.436C0.514,-0.431 0.503,-0.423 0.493,-0.413C0.483,-0.403 0.475,-0.39 0.469,-0.375C0.463,-0.36 0.46,-0.342 0.46,-0.323L0.46,-0L0.371,-0L0.371,-0.323C0.371,-0.363 0.363,-0.394 0.347,-0.414C0.33,-0.434 0.306,-0.444 0.275,-0.444C0.253,-0.444 0.233,-0.438 0.214,-0.426C0.195,-0.414 0.178,-0.398 0.162,-0.378L0.162,-0L0.073,-0Z" style="fill:rgb(82,82,82);fill-rule:nonzero;"/>
            </g>
            <g transform="matrix(37.2097,0,0,37.2097,1911.04,1897.13)">
                <path d="M0.445,-0L0.406,-0C0.397,-0 0.39,-0.001 0.385,-0.004C0.379,-0.007 0.376,-0.012 0.374,-0.021L0.364,-0.068C0.351,-0.056 0.338,-0.045 0.325,-0.036C0.312,-0.026 0.299,-0.018 0.285,-0.012C0.271,-0.005 0.256,-0 0.24,0.003C0.224,0.006 0.207,0.008 0.188,0.008C0.168,0.008 0.149,0.005 0.132,-0C0.115,-0.006 0.1,-0.014 0.088,-0.025C0.075,-0.036 0.065,-0.05 0.057,-0.067C0.05,-0.084 0.046,-0.103 0.046,-0.127C0.046,-0.147 0.051,-0.166 0.063,-0.184C0.074,-0.203 0.091,-0.219 0.116,-0.234C0.14,-0.248 0.172,-0.26 0.212,-0.269C0.252,-0.278 0.3,-0.283 0.358,-0.285L0.358,-0.324C0.358,-0.363 0.349,-0.393 0.332,-0.413C0.315,-0.433 0.291,-0.444 0.258,-0.444C0.236,-0.444 0.218,-0.441 0.203,-0.435C0.188,-0.43 0.175,-0.424 0.164,-0.417C0.153,-0.41 0.144,-0.404 0.136,-0.398C0.128,-0.393 0.121,-0.39 0.113,-0.39C0.107,-0.39 0.102,-0.392 0.097,-0.395C0.093,-0.398 0.089,-0.402 0.087,-0.407L0.071,-0.435C0.098,-0.462 0.129,-0.482 0.161,-0.496C0.193,-0.509 0.229,-0.516 0.269,-0.516C0.297,-0.516 0.322,-0.511 0.344,-0.502C0.366,-0.492 0.385,-0.479 0.4,-0.463C0.415,-0.446 0.426,-0.426 0.434,-0.402C0.441,-0.378 0.445,-0.352 0.445,-0.324L0.445,-0ZM0.214,-0.055C0.23,-0.055 0.244,-0.056 0.257,-0.059C0.27,-0.062 0.282,-0.067 0.294,-0.073C0.305,-0.079 0.316,-0.086 0.327,-0.094C0.337,-0.102 0.347,-0.112 0.358,-0.123L0.358,-0.228C0.317,-0.227 0.282,-0.223 0.253,-0.218C0.224,-0.213 0.201,-0.206 0.183,-0.198C0.165,-0.19 0.152,-0.18 0.144,-0.169C0.136,-0.157 0.132,-0.145 0.132,-0.131C0.132,-0.117 0.134,-0.106 0.138,-0.096C0.142,-0.086 0.148,-0.078 0.156,-0.072C0.163,-0.066 0.171,-0.062 0.182,-0.059C0.192,-0.056 0.202,-0.055 0.214,-0.055Z" style="fill:rgb(82,82,82);fill-rule:nonzero;"/>
            </g>
            <g transform="matrix(37.2097,0,0,37.2097,1929.91,1897.13)">
                <path d="M0.363,-0.423C0.359,-0.416 0.353,-0.412 0.345,-0.412C0.339,-0.412 0.334,-0.414 0.328,-0.418C0.321,-0.421 0.313,-0.425 0.304,-0.43C0.295,-0.434 0.284,-0.438 0.272,-0.442C0.259,-0.446 0.244,-0.448 0.227,-0.448C0.212,-0.448 0.198,-0.446 0.186,-0.442C0.174,-0.438 0.164,-0.433 0.155,-0.427C0.147,-0.42 0.14,-0.412 0.136,-0.403C0.131,-0.394 0.129,-0.385 0.129,-0.375C0.129,-0.362 0.133,-0.351 0.14,-0.342C0.148,-0.333 0.158,-0.326 0.17,-0.32C0.182,-0.313 0.196,-0.308 0.212,-0.303C0.228,-0.298 0.244,-0.293 0.26,-0.287C0.277,-0.282 0.293,-0.276 0.309,-0.269C0.324,-0.262 0.338,-0.254 0.351,-0.244C0.363,-0.234 0.373,-0.222 0.38,-0.207C0.388,-0.193 0.392,-0.175 0.392,-0.155C0.392,-0.132 0.387,-0.11 0.379,-0.09C0.371,-0.07 0.358,-0.053 0.342,-0.039C0.326,-0.024 0.306,-0.013 0.282,-0.005C0.258,0.004 0.231,0.008 0.2,0.008C0.165,0.008 0.133,0.002 0.104,-0.009C0.075,-0.021 0.051,-0.035 0.031,-0.054L0.052,-0.088C0.055,-0.092 0.058,-0.095 0.062,-0.098C0.065,-0.1 0.07,-0.101 0.076,-0.101C0.082,-0.101 0.088,-0.099 0.095,-0.094C0.102,-0.089 0.11,-0.084 0.119,-0.079C0.129,-0.073 0.14,-0.068 0.154,-0.063C0.167,-0.058 0.184,-0.056 0.205,-0.056C0.222,-0.056 0.237,-0.058 0.25,-0.063C0.263,-0.067 0.274,-0.073 0.283,-0.081C0.291,-0.089 0.298,-0.097 0.302,-0.108C0.306,-0.117 0.308,-0.128 0.308,-0.14C0.308,-0.154 0.304,-0.165 0.297,-0.174C0.289,-0.183 0.279,-0.191 0.267,-0.198C0.255,-0.204 0.241,-0.21 0.225,-0.215C0.209,-0.22 0.193,-0.225 0.176,-0.23C0.16,-0.235 0.143,-0.241 0.128,-0.248C0.112,-0.255 0.098,-0.264 0.086,-0.274C0.073,-0.284 0.063,-0.297 0.056,-0.312C0.048,-0.327 0.045,-0.346 0.045,-0.368C0.045,-0.387 0.048,-0.405 0.057,-0.423C0.065,-0.441 0.076,-0.457 0.092,-0.47C0.107,-0.484 0.126,-0.495 0.148,-0.503C0.17,-0.51 0.196,-0.515 0.225,-0.515C0.258,-0.515 0.288,-0.509 0.314,-0.499C0.341,-0.488 0.364,-0.474 0.383,-0.456L0.363,-0.423Z" style="fill:rgb(82,82,82);fill-rule:nonzero;"/>
            </g>
            <g transform="matrix(37.2097,0,0,37.2097,1946.06,1897.13)">
                <path d="M0.166,-0.737L0.166,-0.303L0.189,-0.303C0.195,-0.303 0.201,-0.304 0.205,-0.306C0.209,-0.308 0.214,-0.311 0.22,-0.317L0.38,-0.489C0.385,-0.494 0.39,-0.498 0.395,-0.502C0.4,-0.505 0.406,-0.507 0.415,-0.507L0.496,-0.507L0.309,-0.308C0.304,-0.302 0.3,-0.297 0.295,-0.293C0.291,-0.289 0.286,-0.285 0.28,-0.282C0.286,-0.278 0.291,-0.273 0.296,-0.268C0.301,-0.263 0.306,-0.257 0.31,-0.25L0.508,-0L0.428,-0C0.421,-0 0.414,-0.001 0.409,-0.004C0.404,-0.007 0.399,-0.012 0.395,-0.018L0.228,-0.225C0.223,-0.232 0.218,-0.237 0.213,-0.239C0.208,-0.241 0.201,-0.242 0.191,-0.242L0.166,-0.242L0.166,-0L0.076,-0L0.076,-0.737L0.166,-0.737Z" style="fill:rgb(82,82,82);fill-rule:nonzero;"/>
            </g>
            <g transform="matrix(37.2097,0,0,37.2097,1965.56,1897.13)">
                <path d="M0.064,-0.055C0.064,-0.064 0.066,-0.072 0.069,-0.08C0.072,-0.087 0.076,-0.094 0.082,-0.1C0.087,-0.105 0.094,-0.11 0.102,-0.113C0.109,-0.116 0.117,-0.118 0.126,-0.118C0.135,-0.118 0.143,-0.116 0.151,-0.113C0.158,-0.11 0.165,-0.105 0.171,-0.1C0.176,-0.094 0.181,-0.087 0.184,-0.08C0.187,-0.072 0.189,-0.064 0.189,-0.055C0.189,-0.046 0.187,-0.038 0.184,-0.03C0.181,-0.023 0.176,-0.016 0.171,-0.011C0.165,-0.005 0.158,-0.001 0.151,0.003C0.143,0.006 0.135,0.008 0.126,0.008C0.117,0.008 0.109,0.006 0.102,0.003C0.094,-0.001 0.087,-0.005 0.082,-0.011C0.076,-0.016 0.072,-0.023 0.069,-0.03C0.066,-0.038 0.064,-0.046 0.064,-0.055ZM0.064,-0.43C0.064,-0.439 0.066,-0.447 0.069,-0.455C0.072,-0.462 0.076,-0.469 0.082,-0.475C0.087,-0.48 0.094,-0.485 0.102,-0.488C0.109,-0.491 0.117,-0.493 0.126,-0.493C0.135,-0.493 0.143,-0.491 0.151,-0.488C0.158,-0.485 0.165,-0.48 0.171,-0.475C0.176,-0.469 0.181,-0.462 0.184,-0.455C0.187,-0.447 0.189,-0.439 0.189,-0.43C0.189,-0.421 0.187,-0.413 0.184,-0.405C0.181,-0.398 0.176,-0.391 0.171,-0.386C0.165,-0.38 0.158,-0.375 0.151,-0.372C0.143,-0.369 0.135,-0.368 0.126,-0.368C0.117,-0.368 0.109,-0.369 0.102,-0.372C0.094,-0.375 0.087,-0.38 0.082,-0.386C0.076,-0.391 0.072,-0.398 0.069,-0.405C0.066,-0.413 0.064,-0.421 0.064,-0.43Z" style="fill:rgb(82,82,82);fill-rule:nonzero;"/>
            </g>
        </g>
        <g transform="matrix(1.11629,0,0,1.11629,-385.94,-197.93)">
            <g transform="matrix(33.3333,0,0,33.3333,2020.71,1858.95)">
                <path d="M0.592,-0.148C0.597,-0.148 0.602,-0.146 0.607,-0.142L0.645,-0.1C0.615,-0.066 0.58,-0.04 0.538,-0.021C0.496,-0.002 0.446,0.008 0.387,0.008C0.335,0.008 0.288,-0.001 0.246,-0.019C0.204,-0.037 0.168,-0.062 0.139,-0.094C0.109,-0.126 0.086,-0.165 0.07,-0.21C0.053,-0.255 0.045,-0.304 0.045,-0.358C0.045,-0.412 0.054,-0.462 0.071,-0.507C0.089,-0.552 0.113,-0.59 0.145,-0.623C0.177,-0.655 0.215,-0.68 0.259,-0.698C0.303,-0.716 0.352,-0.725 0.405,-0.725C0.458,-0.725 0.503,-0.716 0.541,-0.7C0.579,-0.684 0.613,-0.662 0.643,-0.634L0.612,-0.589C0.609,-0.586 0.607,-0.583 0.604,-0.581C0.6,-0.579 0.596,-0.578 0.591,-0.578C0.586,-0.578 0.582,-0.579 0.577,-0.582C0.572,-0.585 0.566,-0.589 0.56,-0.594C0.553,-0.599 0.545,-0.604 0.536,-0.609C0.527,-0.614 0.516,-0.619 0.504,-0.624C0.492,-0.629 0.477,-0.632 0.461,-0.636C0.445,-0.639 0.426,-0.641 0.405,-0.641C0.366,-0.641 0.331,-0.634 0.299,-0.621C0.267,-0.608 0.24,-0.589 0.217,-0.565C0.194,-0.54 0.176,-0.511 0.163,-0.476C0.15,-0.44 0.144,-0.401 0.144,-0.358C0.144,-0.313 0.15,-0.274 0.163,-0.239C0.176,-0.204 0.194,-0.174 0.216,-0.15C0.238,-0.126 0.264,-0.107 0.295,-0.095C0.325,-0.082 0.358,-0.076 0.393,-0.076C0.414,-0.076 0.433,-0.077 0.45,-0.079C0.467,-0.082 0.483,-0.086 0.497,-0.091C0.512,-0.096 0.525,-0.103 0.538,-0.111C0.55,-0.119 0.563,-0.129 0.576,-0.141C0.581,-0.146 0.587,-0.148 0.592,-0.148Z" style="fill-rule:nonzero;"/>
            </g>
            <g transform="matrix(33.3333,0,0,33.3333,2043.55,1858.95)">
                <path d="M0.301,-0.725C0.331,-0.725 0.359,-0.72 0.386,-0.711C0.412,-0.702 0.435,-0.689 0.454,-0.672C0.473,-0.655 0.488,-0.634 0.499,-0.609C0.51,-0.584 0.516,-0.556 0.516,-0.525C0.516,-0.498 0.511,-0.474 0.504,-0.451C0.496,-0.428 0.485,-0.407 0.471,-0.386C0.457,-0.365 0.442,-0.345 0.424,-0.325C0.406,-0.306 0.387,-0.286 0.367,-0.266L0.179,-0.073C0.192,-0.076 0.205,-0.079 0.219,-0.081C0.233,-0.083 0.246,-0.085 0.259,-0.085L0.499,-0.085C0.508,-0.085 0.516,-0.082 0.522,-0.076C0.527,-0.07 0.53,-0.063 0.53,-0.054L0.53,-0L0.052,-0L0.052,-0.031C0.052,-0.037 0.053,-0.043 0.056,-0.05C0.058,-0.057 0.062,-0.063 0.068,-0.069L0.298,-0.299C0.317,-0.318 0.334,-0.337 0.35,-0.355C0.365,-0.373 0.379,-0.391 0.39,-0.409C0.401,-0.427 0.41,-0.445 0.416,-0.463C0.422,-0.482 0.424,-0.501 0.425,-0.523C0.424,-0.544 0.421,-0.562 0.415,-0.578C0.408,-0.594 0.399,-0.607 0.387,-0.617C0.375,-0.627 0.362,-0.635 0.346,-0.64C0.33,-0.645 0.314,-0.648 0.296,-0.648C0.278,-0.648 0.261,-0.645 0.246,-0.64C0.23,-0.635 0.217,-0.627 0.205,-0.618C0.193,-0.608 0.183,-0.597 0.175,-0.584C0.167,-0.571 0.161,-0.557 0.158,-0.541C0.155,-0.531 0.151,-0.524 0.146,-0.52C0.14,-0.516 0.133,-0.514 0.125,-0.514L0.119,-0.514C0.117,-0.514 0.067,-0.523 0.067,-0.523C0.071,-0.555 0.08,-0.584 0.094,-0.609C0.107,-0.634 0.124,-0.656 0.144,-0.673C0.165,-0.69 0.188,-0.702 0.215,-0.711C0.241,-0.72 0.27,-0.725 0.301,-0.725Z" style="fill-rule:nonzero;"/>
            </g>
            <g transform="matrix(33.3333,0,0,33.3333,2062.88,1858.95)">
                <rect x="0" y="0.083" width="0.394" height="0.06" style="fill-rule:nonzero;"/>
            </g>
            <g transform="matrix(33.3333,0,0,33.3333,2076.01,1858.95)">
                <path d="M0.194,-0.299L0.194,-0L0.097,-0L0.097,-0.717L0.3,-0.717C0.345,-0.717 0.384,-0.712 0.417,-0.703C0.45,-0.694 0.477,-0.68 0.499,-0.663C0.52,-0.646 0.536,-0.625 0.547,-0.6C0.557,-0.576 0.562,-0.548 0.562,-0.518C0.562,-0.493 0.558,-0.469 0.55,-0.447C0.542,-0.425 0.53,-0.405 0.515,-0.388C0.5,-0.37 0.482,-0.355 0.46,-0.343C0.438,-0.331 0.413,-0.321 0.386,-0.315C0.398,-0.308 0.408,-0.298 0.418,-0.285L0.627,-0L0.541,-0C0.523,-0 0.51,-0.007 0.502,-0.021L0.316,-0.277C0.31,-0.284 0.304,-0.29 0.297,-0.294C0.29,-0.297 0.28,-0.299 0.267,-0.299L0.194,-0.299ZM0.194,-0.37L0.295,-0.37C0.323,-0.37 0.348,-0.373 0.37,-0.38C0.391,-0.387 0.409,-0.396 0.424,-0.409C0.438,-0.421 0.449,-0.436 0.457,-0.454C0.464,-0.471 0.468,-0.49 0.468,-0.511C0.468,-0.554 0.453,-0.586 0.425,-0.608C0.397,-0.629 0.355,-0.64 0.3,-0.64L0.194,-0.64L0.194,-0.37Z" style="fill:rgb(63,97,0);fill-rule:nonzero;"/>
            </g>
            <g transform="matrix(33.3333,0,0,33.3333,2097.48,1858.95)">
                <path d="M0.194,-0.299L0.194,-0L0.097,-0L0.097,-0.717L0.3,-0.717C0.345,-0.717 0.384,-0.712 0.417,-0.703C0.45,-0.694 0.477,-0.68 0.499,-0.663C0.52,-0.646 0.536,-0.625 0.547,-0.6C0.557,-0.576 0.562,-0.548 0.562,-0.518C0.562,-0.493 0.558,-0.469 0.55,-0.447C0.542,-0.425 0.53,-0.405 0.515,-0.388C0.5,-0.37 0.482,-0.355 0.46,-0.343C0.438,-0.331 0.413,-0.321 0.386,-0.315C0.398,-0.308 0.408,-0.298 0.418,-0.285L0.627,-0L0.541,-0C0.523,-0 0.51,-0.007 0.502,-0.021L0.316,-0.277C0.31,-0.284 0.304,-0.29 0.297,-0.294C0.29,-0.297 0.28,-0.299 0.267,-0.299L0.194,-0.299ZM0.194,-0.37L0.295,-0.37C0.323,-0.37 0.348,-0.373 0.37,-0.38C0.391,-0.387 0.409,-0.396 0.424,-0.409C0.438,-0.421 0.449,-0.436 0.457,-0.454C0.464,-0.471 0.468,-0.49 0.468,-0.511C0.468,-0.554 0.453,-0.586 0.425,-0.608C0.397,-0.629 0.355,-0.64 0.3,-0.64L0.194,-0.64L0.194,-0.37Z" style="fill:rgb(63,97,0);fill-rule:nonzero;"/>
            </g>
            <g transform="matrix(33.3333,0,0,33.3333,2118.95,1858.95)">
                <path d="M0.301,-0.725C0.331,-0.725 0.359,-0.72 0.386,-0.711C0.412,-0.702 0.435,-0.689 0.454,-0.672C0.473,-0.655 0.488,-0.634 0.499,-0.609C0.51,-0.584 0.516,-0.556 0.516,-0.525C0.516,-0.498 0.511,-0.474 0.504,-0.451C0.496,-0.428 0.485,-0.407 0.471,-0.386C0.457,-0.365 0.442,-0.345 0.424,-0.325C0.406,-0.306 0.387,-0.286 0.367,-0.266L0.179,-0.073C0.192,-0.076 0.205,-0.079 0.219,-0.081C0.233,-0.083 0.246,-0.085 0.259,-0.085L0.499,-0.085C0.508,-0.085 0.516,-0.082 0.522,-0.076C0.527,-0.07 0.53,-0.063 0.53,-0.054L0.53,-0L0.052,-0L0.052,-0.031C0.052,-0.037 0.053,-0.043 0.056,-0.05C0.058,-0.057 0.062,-0.063 0.068,-0.069L0.298,-0.299C0.317,-0.318 0.334,-0.337 0.35,-0.355C0.365,-0.373 0.379,-0.391 0.39,-0.409C0.401,-0.427 0.41,-0.445 0.416,-0.463C0.422,-0.482 0.424,-0.501 0.425,-0.523C0.424,-0.544 0.421,-0.562 0.415,-0.578C0.408,-0.594 0.399,-0.607 0.387,-0.617C0.375,-0.627 0.362,-0.635 0.346,-0.64C0.33,-0.645 0.314,-0.648 0.296,-0.648C0.278,-0.648 0.261,-0.645 0.246,-0.64C0.23,-0.635 0.217,-0.627 0.205,-0.618C0.193,-0.608 0.183,-0.597 0.175,-0.584C0.167,-0.571 0.161,-0.557 0.158,-0.541C0.155,-0.531 0.151,-0.524 0.146,-0.52C0.14,-0.516 0.133,-0.514 0.125,-0.514L0.119,-0.514C0.117,-0.514 0.067,-0.523 0.067,-0.523C0.071,-0.555 0.08,-0.584 0.094,-0.609C0.107,-0.634 0.124,-0.656 0.144,-0.673C0.165,-0.69 0.188,-0.702 0.215,-0.711C0.241,-0.72 0.27,-0.725 0.301,-0.725Z" style="fill:rgb(63,97,0);fill-rule:nonzero;"/>
            </g>
            <g transform="matrix(33.3333,0,0,33.3333,2138.28,1858.95)">
                <rect x="0" y="0.083" width="0.394" height="0.06" style="fill-rule:nonzero;"/>
            </g>
            <g transform="matrix(33.3333,0,0,33.3333,2151.41,1858.95)">
                <path d="M0.254,-0.368L0.017,-0.717L0.114,-0.717C0.121,-0.717 0.126,-0.715 0.129,-0.713C0.132,-0.711 0.135,-0.707 0.138,-0.703L0.325,-0.416C0.327,-0.423 0.331,-0.431 0.336,-0.439L0.512,-0.701C0.515,-0.706 0.518,-0.709 0.522,-0.712C0.525,-0.715 0.53,-0.717 0.535,-0.717L0.627,-0.717L0.39,-0.373L0.635,-0L0.539,-0C0.532,-0 0.526,-0.002 0.522,-0.006C0.518,-0.01 0.514,-0.014 0.512,-0.019L0.32,-0.319C0.317,-0.312 0.314,-0.305 0.311,-0.299L0.124,-0.019C0.121,-0.014 0.117,-0.01 0.113,-0.006C0.109,-0.002 0.104,-0 0.097,-0L0.007,-0L0.254,-0.368Z" style="fill:rgb(0,103,165);fill-rule:nonzero;"/>
            </g>
            <g transform="matrix(33.3333,0,0,33.3333,2172.85,1858.95)">
                <path d="M0.529,-0.717L0.529,-0.638L0.185,-0.638L0.185,-0.387L0.479,-0.387L0.479,-0.308L0.185,-0.308L0.185,-0L0.087,-0L0.087,-0.717L0.529,-0.717Z" style="fill:rgb(0,103,165);fill-rule:nonzero;"/>
            </g>
            <g transform="matrix(33.3333,0,0,33.3333,2191.71,1858.95)">
                <path d="M0.144,-0.068L0.298,-0.068L0.298,-0.557C0.298,-0.571 0.298,-0.586 0.299,-0.601L0.171,-0.492C0.168,-0.489 0.164,-0.487 0.161,-0.486C0.158,-0.485 0.155,-0.484 0.152,-0.484C0.147,-0.484 0.142,-0.485 0.138,-0.487C0.134,-0.489 0.131,-0.492 0.129,-0.495L0.101,-0.534L0.314,-0.718L0.387,-0.718L0.387,-0.068L0.528,-0.068L0.528,-0L0.144,-0L0.144,-0.068Z" style="fill:rgb(0,103,165);fill-rule:nonzero;"/>
            </g>
            <g transform="matrix(33.3333,0,0,33.3333,2211.05,1858.95)">
                <rect x="0" y="0.083" width="0.394" height="0.06" style="fill-rule:nonzero;"/>
            </g>
            <g transform="matrix(33.3333,0,0,33.3333,2224.18,1858.95)">
                <path d="M0.708,-0.358C0.708,-0.304 0.7,-0.256 0.683,-0.212C0.666,-0.167 0.642,-0.13 0.611,-0.099C0.58,-0.067 0.542,-0.043 0.499,-0.026C0.456,-0.009 0.408,-0 0.355,-0L0.087,-0L0.087,-0.717L0.355,-0.717C0.408,-0.717 0.456,-0.708 0.499,-0.691C0.542,-0.674 0.58,-0.649 0.611,-0.618C0.642,-0.586 0.666,-0.549 0.683,-0.505C0.7,-0.46 0.708,-0.412 0.708,-0.358ZM0.609,-0.358C0.609,-0.402 0.603,-0.441 0.591,-0.476C0.579,-0.511 0.562,-0.54 0.54,-0.564C0.518,-0.588 0.491,-0.606 0.46,-0.619C0.428,-0.632 0.393,-0.638 0.355,-0.638L0.185,-0.638L0.185,-0.079L0.355,-0.079C0.393,-0.079 0.428,-0.085 0.46,-0.098C0.491,-0.11 0.518,-0.128 0.54,-0.152C0.562,-0.176 0.579,-0.205 0.591,-0.24C0.603,-0.275 0.609,-0.314 0.609,-0.358Z" style="fill:rgb(104,0,90);fill-rule:nonzero;"/>
            </g>
            <g transform="matrix(33.3333,0,0,33.3333,2249.28,1858.95)">
                <path d="M0.301,-0.725C0.331,-0.725 0.359,-0.72 0.386,-0.711C0.412,-0.702 0.435,-0.689 0.454,-0.672C0.473,-0.655 0.488,-0.634 0.499,-0.609C0.51,-0.584 0.516,-0.556 0.516,-0.525C0.516,-0.498 0.511,-0.474 0.504,-0.451C0.496,-0.428 0.485,-0.407 0.471,-0.386C0.457,-0.365 0.442,-0.345 0.424,-0.325C0.406,-0.306 0.387,-0.286 0.367,-0.266L0.179,-0.073C0.192,-0.076 0.205,-0.079 0.219,-0.081C0.233,-0.083 0.246,-0.085 0.259,-0.085L0.499,-0.085C0.508,-0.085 0.516,-0.082 0.522,-0.076C0.527,-0.07 0.53,-0.063 0.53,-0.054L0.53,-0L0.052,-0L0.052,-0.031C0.052,-0.037 0.053,-0.043 0.056,-0.05C0.058,-0.057 0.062,-0.063 0.068,-0.069L0.298,-0.299C0.317,-0.318 0.334,-0.337 0.35,-0.355C0.365,-0.373 0.379,-0.391 0.39,-0.409C0.401,-0.427 0.41,-0.445 0.416,-0.463C0.422,-0.482 0.424,-0.501 0.425,-0.523C0.424,-0.544 0.421,-0.562 0.415,-0.578C0.408,-0.594 0.399,-0.607 0.387,-0.617C0.375,-0.627 0.362,-0.635 0.346,-0.64C0.33,-0.645 0.314,-0.648 0.296,-0.648C0.278,-0.648 0.261,-0.645 0.246,-0.64C0.23,-0.635 0.217,-0.627 0.205,-0.618C0.193,-0.608 0.183,-0.597 0.175,-0.584C0.167,-0.571 0.161,-0.557 0.158,-0.541C0.155,-0.531 0.151,-0.524 0.146,-0.52C0.14,-0.516 0.133,-0.514 0.125,-0.514L0.119,-0.514C0.117,-0.514 0.067,-0.523 0.067,-0.523C0.071,-0.555 0.08,-0.584 0.094,-0.609C0.107,-0.634 0.124,-0.656 0.144,-0.673C0.165,-0.69 0.188,-0.702 0.215,-0.711C0.241,-0.72 0.27,-0.725 0.301,-0.725Z" style="fill:rgb(104,0,90);fill-rule:nonzero;"/>
            </g>
            <g transform="matrix(33.3333,0,0,33.3333,2268.61,1858.95)">
                <path d="M0.044,-0.055C0.044,-0.064 0.046,-0.072 0.049,-0.08C0.052,-0.087 0.056,-0.094 0.062,-0.1C0.067,-0.105 0.074,-0.11 0.082,-0.113C0.089,-0.116 0.097,-0.118 0.106,-0.118C0.115,-0.118 0.123,-0.116 0.131,-0.113C0.138,-0.11 0.145,-0.105 0.151,-0.1C0.156,-0.094 0.161,-0.087 0.164,-0.08C0.167,-0.072 0.169,-0.064 0.169,-0.055C0.169,-0.046 0.167,-0.038 0.164,-0.03C0.161,-0.023 0.156,-0.016 0.151,-0.011C0.145,-0.005 0.138,-0.001 0.131,0.003C0.123,0.006 0.115,0.008 0.106,0.008C0.097,0.008 0.089,0.006 0.082,0.003C0.074,-0.001 0.067,-0.005 0.062,-0.011C0.056,-0.016 0.052,-0.023 0.049,-0.03C0.046,-0.038 0.044,-0.046 0.044,-0.055Z" style="fill-rule:nonzero;"/>
            </g>
            <g transform="matrix(33.3333,0,0,33.3333,2274.65,1858.95)">
                <path d="M0.007,-0.507L0.077,-0.507C0.084,-0.507 0.09,-0.505 0.095,-0.501C0.1,-0.497 0.103,-0.493 0.105,-0.488L0.202,-0.162C0.204,-0.15 0.207,-0.138 0.209,-0.127C0.211,-0.116 0.213,-0.105 0.215,-0.094C0.218,-0.105 0.221,-0.116 0.224,-0.127C0.227,-0.138 0.231,-0.15 0.235,-0.162L0.342,-0.49C0.343,-0.495 0.346,-0.499 0.35,-0.503C0.354,-0.506 0.36,-0.508 0.366,-0.508L0.405,-0.508C0.411,-0.508 0.417,-0.506 0.421,-0.503C0.425,-0.499 0.428,-0.495 0.43,-0.49L0.535,-0.162C0.538,-0.15 0.541,-0.139 0.544,-0.128C0.547,-0.116 0.55,-0.105 0.553,-0.094C0.554,-0.105 0.556,-0.117 0.559,-0.129C0.562,-0.14 0.565,-0.152 0.568,-0.162L0.667,-0.488C0.668,-0.493 0.671,-0.498 0.676,-0.501C0.681,-0.505 0.686,-0.507 0.693,-0.507L0.76,-0.507L0.596,-0L0.525,-0C0.516,-0 0.51,-0.006 0.507,-0.017L0.395,-0.361C0.392,-0.368 0.39,-0.376 0.389,-0.384C0.387,-0.392 0.385,-0.399 0.384,-0.407C0.382,-0.399 0.38,-0.392 0.379,-0.384C0.377,-0.376 0.375,-0.368 0.372,-0.36L0.259,-0.017C0.255,-0.006 0.248,-0 0.238,-0L0.171,-0L0.007,-0.507Z" style="fill-rule:nonzero;"/>
            </g>
            <g transform="matrix(33.3333,0,0,33.3333,2300.18,1858.95)">
                <path d="M0.445,-0L0.406,-0C0.397,-0 0.39,-0.001 0.385,-0.004C0.379,-0.007 0.376,-0.012 0.374,-0.021L0.364,-0.068C0.351,-0.056 0.338,-0.045 0.325,-0.036C0.312,-0.026 0.299,-0.018 0.285,-0.012C0.271,-0.005 0.256,-0 0.24,0.003C0.224,0.006 0.207,0.008 0.188,0.008C0.168,0.008 0.149,0.005 0.132,-0C0.115,-0.006 0.1,-0.014 0.088,-0.025C0.075,-0.036 0.065,-0.05 0.057,-0.067C0.05,-0.084 0.046,-0.103 0.046,-0.127C0.046,-0.147 0.051,-0.166 0.063,-0.184C0.074,-0.203 0.091,-0.219 0.116,-0.234C0.14,-0.248 0.172,-0.26 0.212,-0.269C0.252,-0.278 0.3,-0.283 0.358,-0.285L0.358,-0.324C0.358,-0.363 0.349,-0.393 0.332,-0.413C0.315,-0.433 0.291,-0.444 0.258,-0.444C0.236,-0.444 0.218,-0.441 0.203,-0.435C0.188,-0.43 0.175,-0.424 0.164,-0.417C0.153,-0.41 0.144,-0.404 0.136,-0.398C0.128,-0.393 0.121,-0.39 0.113,-0.39C0.107,-0.39 0.102,-0.392 0.097,-0.395C0.093,-0.398 0.089,-0.402 0.087,-0.407L0.071,-0.435C0.098,-0.462 0.129,-0.482 0.161,-0.496C0.193,-0.509 0.229,-0.516 0.269,-0.516C0.297,-0.516 0.322,-0.511 0.344,-0.502C0.366,-0.492 0.385,-0.479 0.4,-0.463C0.415,-0.446 0.426,-0.426 0.434,-0.402C0.441,-0.378 0.445,-0.352 0.445,-0.324L0.445,-0ZM0.214,-0.055C0.23,-0.055 0.244,-0.056 0.257,-0.059C0.27,-0.062 0.282,-0.067 0.294,-0.073C0.305,-0.079 0.316,-0.086 0.327,-0.094C0.337,-0.102 0.347,-0.112 0.358,-0.123L0.358,-0.228C0.317,-0.227 0.282,-0.223 0.253,-0.218C0.224,-0.213 0.201,-0.206 0.183,-0.198C0.165,-0.19 0.152,-0.18 0.144,-0.169C0.136,-0.157 0.132,-0.145 0.132,-0.131C0.132,-0.117 0.134,-0.106 0.138,-0.096C0.142,-0.086 0.148,-0.078 0.156,-0.072C0.163,-0.066 0.171,-0.062 0.182,-0.059C0.192,-0.056 0.202,-0.055 0.214,-0.055Z" style="fill-rule:nonzero;"/>
            </g>
            <g transform="matrix(33.3333,0,0,33.3333,2316.55,1858.95)">
                <path d="M0.009,-0.507L0.082,-0.507C0.089,-0.507 0.095,-0.505 0.1,-0.501C0.104,-0.497 0.108,-0.493 0.11,-0.488L0.238,-0.162C0.243,-0.15 0.246,-0.138 0.249,-0.126C0.252,-0.114 0.254,-0.102 0.257,-0.091C0.259,-0.102 0.262,-0.114 0.265,-0.126C0.268,-0.138 0.272,-0.15 0.277,-0.162L0.407,-0.488C0.409,-0.493 0.412,-0.498 0.416,-0.501C0.421,-0.505 0.426,-0.507 0.433,-0.507L0.503,-0.507L0.296,-0L0.216,-0L0.009,-0.507Z" style="fill-rule:nonzero;"/>
            </g>
        </g>
    </g>
</svg>
