<?xml version="1.0" encoding="UTF-8" standalone="no"?>
<!DOCTYPE svg PUBLIC "-//W3C//DTD SVG 1.1//EN" "http://www.w3.org/Graphics/SVG/1.1/DTD/svg11.dtd">
<svg width="100%" height="100%" viewBox="0 0 1628 776" version="1.1" xmlns="http://www.w3.org/2000/svg" xmlns:xlink="http://www.w3.org/1999/xlink" xml:space="preserve" xmlns:serif="http://www.serif.com/" style="fill-rule:evenodd;clip-rule:evenodd;stroke-linejoin:round;stroke-miterlimit:2;">
    <g transform="matrix(1,0,0,1,-385.321,-263.323)">
        <rect x="385.321" y="263.323" width="1627.81" height="775.958" style="fill:rgb(223,223,223);"/>
        <g transform="matrix(0.574527,0,0,0.657428,194.841,170.13)">
            <path d="M457.939,586.382L457.939,539.842L2935.05,539.842L2935.05,496.626L3011.13,563.112L2935.05,629.598L2935.05,586.382L457.939,586.382Z" style="fill:rgb(70,70,70);"/>
        </g>
        <g transform="matrix(0.574527,0,0,0.657428,194.841,519.94)">
            <path d="M457.939,586.382L457.939,539.842L2935.05,539.842L2935.05,496.626L3011.13,563.112L2935.05,629.598L2935.05,586.382L457.939,586.382Z" style="fill:rgb(70,70,70);"/>
        </g>
        <g transform="matrix(1,0,0,1,-161.7,245.734)">
            <g transform="matrix(50,0,0,50,618.923,720.99)">
                <path d="M0.364,-0.109C0.39,-0.109 0.413,-0.113 0.434,-0.122C0.454,-0.13 0.472,-0.142 0.486,-0.158C0.5,-0.174 0.511,-0.193 0.518,-0.215C0.526,-0.237 0.53,-0.262 0.53,-0.29L0.53,-0.723L0.664,-0.723L0.664,-0.29C0.664,-0.247 0.657,-0.207 0.643,-0.171C0.629,-0.134 0.61,-0.103 0.584,-0.076C0.558,-0.05 0.526,-0.029 0.489,-0.014C0.452,0.001 0.41,0.008 0.364,0.008C0.318,0.008 0.276,0.001 0.239,-0.014C0.202,-0.029 0.171,-0.05 0.145,-0.076C0.119,-0.103 0.099,-0.134 0.085,-0.171C0.071,-0.207 0.065,-0.247 0.065,-0.29L0.065,-0.723L0.199,-0.723L0.199,-0.291C0.199,-0.263 0.203,-0.238 0.21,-0.216C0.218,-0.193 0.229,-0.174 0.243,-0.158C0.257,-0.142 0.274,-0.13 0.294,-0.122C0.315,-0.113 0.338,-0.109 0.364,-0.109Z" style="fill-rule:nonzero;"/>
            </g>
            <g transform="matrix(50,0,0,50,655.323,720.99)">
                <rect x="0.09" y="-0.723" width="0.135" height="0.723" style="fill-rule:nonzero;"/>
            </g>
            <g transform="matrix(50,0,0,50,680.673,720.99)">
                <path d="M0.583,-0.723L0.583,-0.613L0.365,-0.613L0.365,-0L0.231,-0L0.231,-0.613L0.012,-0.613L0.012,-0.723L0.583,-0.723Z" style="fill-rule:nonzero;"/>
            </g>
            <g transform="matrix(50,0,0,50,710.423,720.99)">
                <path d="M0.683,-0L0.548,-0L0.548,-0.316L0.209,-0.316L0.209,-0L0.073,-0L0.073,-0.723L0.209,-0.723L0.209,-0.412L0.548,-0.412L0.548,-0.723L0.683,-0.723L0.683,-0Z" style="fill-rule:nonzero;"/>
            </g>
            <g transform="matrix(50,0,0,50,748.223,720.99)">
                <path d="M0.212,-0.283L0.212,-0L0.078,-0L0.078,-0.723L0.298,-0.723C0.347,-0.723 0.39,-0.718 0.425,-0.708C0.46,-0.698 0.489,-0.683 0.511,-0.665C0.534,-0.647 0.55,-0.625 0.561,-0.599C0.571,-0.574 0.577,-0.546 0.577,-0.515C0.577,-0.491 0.573,-0.468 0.566,-0.446C0.559,-0.424 0.548,-0.405 0.535,-0.387C0.521,-0.369 0.505,-0.354 0.485,-0.341C0.465,-0.327 0.442,-0.317 0.417,-0.309C0.434,-0.299 0.449,-0.285 0.461,-0.267L0.642,-0L0.521,-0C0.509,-0 0.499,-0.002 0.491,-0.007C0.483,-0.012 0.476,-0.018 0.471,-0.027L0.319,-0.259C0.313,-0.267 0.307,-0.273 0.3,-0.277C0.293,-0.281 0.283,-0.283 0.27,-0.283L0.212,-0.283ZM0.212,-0.379L0.296,-0.379C0.321,-0.379 0.343,-0.382 0.362,-0.389C0.381,-0.395 0.397,-0.404 0.409,-0.415C0.421,-0.426 0.43,-0.439 0.436,-0.455C0.442,-0.47 0.445,-0.487 0.445,-0.505C0.445,-0.542 0.433,-0.57 0.409,-0.59C0.385,-0.609 0.348,-0.619 0.298,-0.619L0.212,-0.619L0.212,-0.379Z" style="fill-rule:nonzero;"/>
            </g>
            <g transform="matrix(50,0,0,50,780.973,720.99)">
                <path d="M0.529,-0.723L0.529,-0.616L0.209,-0.616L0.209,-0.416L0.461,-0.416L0.461,-0.312L0.209,-0.312L0.209,-0.108L0.529,-0.108L0.529,-0L0.073,-0L0.073,-0.723L0.529,-0.723Z" style="fill-rule:nonzero;"/>
            </g>
            <g transform="matrix(50,0,0,50,809.598,720.99)">
                <path d="M0.709,-0L0.605,-0C0.593,-0 0.583,-0.003 0.576,-0.009C0.568,-0.015 0.563,-0.022 0.56,-0.031L0.506,-0.178L0.206,-0.178L0.152,-0.031C0.149,-0.023 0.144,-0.016 0.136,-0.01C0.128,-0.003 0.119,-0 0.108,-0L0.003,-0L0.287,-0.723L0.425,-0.723L0.709,-0ZM0.241,-0.273L0.471,-0.273L0.383,-0.514C0.379,-0.524 0.375,-0.537 0.37,-0.551C0.365,-0.566 0.36,-0.582 0.356,-0.599C0.351,-0.582 0.346,-0.566 0.342,-0.551C0.337,-0.536 0.333,-0.524 0.329,-0.513L0.241,-0.273Z" style="fill-rule:nonzero;"/>
            </g>
            <g transform="matrix(50,0,0,50,845.098,720.99)">
                <path d="M0.715,-0.362C0.715,-0.309 0.706,-0.26 0.689,-0.216C0.671,-0.171 0.646,-0.133 0.614,-0.101C0.582,-0.069 0.544,-0.044 0.499,-0.027C0.454,-0.009 0.404,-0 0.349,-0L0.073,-0L0.073,-0.723L0.349,-0.723C0.404,-0.723 0.454,-0.714 0.499,-0.696C0.544,-0.678 0.582,-0.654 0.614,-0.622C0.646,-0.59 0.671,-0.552 0.689,-0.508C0.706,-0.463 0.715,-0.415 0.715,-0.362ZM0.578,-0.362C0.578,-0.401 0.572,-0.437 0.562,-0.468C0.551,-0.5 0.536,-0.526 0.516,-0.548C0.496,-0.57 0.472,-0.587 0.444,-0.599C0.416,-0.61 0.384,-0.616 0.349,-0.616L0.209,-0.616L0.209,-0.107L0.349,-0.107C0.384,-0.107 0.416,-0.113 0.444,-0.125C0.472,-0.136 0.496,-0.153 0.516,-0.175C0.536,-0.197 0.551,-0.223 0.562,-0.255C0.572,-0.286 0.578,-0.322 0.578,-0.362Z" style="fill-rule:nonzero;"/>
            </g>
        </g>
        <g transform="matrix(1,0,0,1,-161.7,-107.787)">
            <g transform="matrix(50,0,0,50,618.923,720.99)">
                <path d="M0.461,-0.592C0.457,-0.584 0.453,-0.579 0.448,-0.576C0.443,-0.573 0.437,-0.572 0.431,-0.572C0.424,-0.572 0.416,-0.574 0.408,-0.579C0.4,-0.584 0.39,-0.59 0.379,-0.597C0.367,-0.603 0.354,-0.609 0.339,-0.614C0.324,-0.619 0.306,-0.622 0.285,-0.622C0.266,-0.622 0.25,-0.619 0.236,-0.615C0.222,-0.61 0.211,-0.604 0.201,-0.596C0.192,-0.588 0.185,-0.578 0.18,-0.567C0.175,-0.556 0.173,-0.544 0.173,-0.531C0.173,-0.514 0.178,-0.499 0.187,-0.488C0.197,-0.477 0.209,-0.467 0.225,-0.459C0.241,-0.451 0.259,-0.444 0.279,-0.438C0.299,-0.431 0.319,-0.424 0.34,-0.417C0.361,-0.41 0.381,-0.402 0.401,-0.392C0.421,-0.383 0.439,-0.371 0.455,-0.356C0.47,-0.342 0.483,-0.324 0.492,-0.303C0.502,-0.282 0.507,-0.257 0.507,-0.227C0.507,-0.194 0.501,-0.163 0.49,-0.135C0.479,-0.106 0.462,-0.081 0.441,-0.06C0.419,-0.039 0.393,-0.022 0.362,-0.01C0.331,0.002 0.296,0.008 0.256,0.008C0.233,0.008 0.21,0.006 0.188,0.001C0.165,-0.003 0.144,-0.01 0.123,-0.018C0.103,-0.026 0.084,-0.036 0.066,-0.048C0.048,-0.06 0.032,-0.073 0.018,-0.087L0.057,-0.152C0.061,-0.156 0.065,-0.16 0.07,-0.163C0.075,-0.166 0.081,-0.168 0.088,-0.168C0.096,-0.168 0.105,-0.165 0.115,-0.158C0.124,-0.151 0.136,-0.143 0.149,-0.135C0.162,-0.127 0.177,-0.119 0.195,-0.112C0.213,-0.105 0.235,-0.102 0.26,-0.102C0.298,-0.102 0.328,-0.111 0.349,-0.129C0.37,-0.147 0.38,-0.173 0.38,-0.208C0.38,-0.227 0.375,-0.242 0.366,-0.254C0.356,-0.266 0.344,-0.276 0.328,-0.284C0.312,-0.292 0.295,-0.299 0.275,-0.305C0.255,-0.311 0.234,-0.317 0.214,-0.324C0.193,-0.33 0.172,-0.338 0.153,-0.348C0.132,-0.357 0.115,-0.369 0.099,-0.384C0.083,-0.399 0.071,-0.418 0.061,-0.44C0.052,-0.463 0.047,-0.491 0.047,-0.524C0.047,-0.55 0.052,-0.576 0.063,-0.601C0.073,-0.626 0.089,-0.648 0.109,-0.667C0.129,-0.686 0.154,-0.702 0.183,-0.714C0.212,-0.725 0.246,-0.731 0.284,-0.731C0.326,-0.731 0.366,-0.724 0.402,-0.711C0.438,-0.698 0.468,-0.679 0.494,-0.655L0.461,-0.592Z" style="fill-rule:nonzero;"/>
            </g>
            <g transform="matrix(50,0,0,50,645.748,720.99)">
                <path d="M0.767,-0.362C0.767,-0.309 0.758,-0.259 0.74,-0.214C0.722,-0.169 0.698,-0.13 0.666,-0.097C0.634,-0.064 0.595,-0.038 0.55,-0.02C0.505,-0.001 0.455,0.008 0.401,0.008C0.346,0.008 0.296,-0.001 0.251,-0.02C0.206,-0.038 0.167,-0.064 0.135,-0.097C0.103,-0.13 0.078,-0.169 0.06,-0.214C0.042,-0.259 0.034,-0.309 0.034,-0.362C0.034,-0.415 0.042,-0.464 0.06,-0.509C0.078,-0.554 0.103,-0.593 0.135,-0.626C0.167,-0.659 0.206,-0.685 0.251,-0.703C0.296,-0.722 0.346,-0.731 0.401,-0.731C0.455,-0.731 0.505,-0.722 0.55,-0.703C0.595,-0.684 0.634,-0.659 0.666,-0.626C0.698,-0.593 0.722,-0.554 0.74,-0.509C0.758,-0.464 0.767,-0.415 0.767,-0.362ZM0.629,-0.362C0.629,-0.401 0.623,-0.437 0.613,-0.468C0.602,-0.5 0.587,-0.527 0.568,-0.549C0.548,-0.571 0.524,-0.587 0.496,-0.599C0.468,-0.611 0.436,-0.617 0.401,-0.617C0.365,-0.617 0.333,-0.611 0.305,-0.599C0.277,-0.587 0.253,-0.571 0.233,-0.549C0.213,-0.527 0.198,-0.5 0.187,-0.468C0.176,-0.437 0.171,-0.401 0.171,-0.362C0.171,-0.322 0.176,-0.286 0.187,-0.255C0.198,-0.223 0.213,-0.197 0.233,-0.175C0.253,-0.153 0.277,-0.136 0.305,-0.125C0.333,-0.113 0.365,-0.107 0.401,-0.107C0.436,-0.107 0.468,-0.113 0.496,-0.125C0.524,-0.136 0.548,-0.153 0.568,-0.175C0.587,-0.197 0.602,-0.223 0.613,-0.255C0.623,-0.286 0.629,-0.322 0.629,-0.362Z" style="fill-rule:nonzero;"/>
            </g>
            <g transform="matrix(50,0,0,50,685.723,720.99)">
                <path d="M0.364,-0.109C0.39,-0.109 0.413,-0.113 0.434,-0.122C0.454,-0.13 0.472,-0.142 0.486,-0.158C0.5,-0.174 0.511,-0.193 0.518,-0.215C0.526,-0.237 0.53,-0.262 0.53,-0.29L0.53,-0.723L0.664,-0.723L0.664,-0.29C0.664,-0.247 0.657,-0.207 0.643,-0.171C0.629,-0.134 0.61,-0.103 0.584,-0.076C0.558,-0.05 0.526,-0.029 0.489,-0.014C0.452,0.001 0.41,0.008 0.364,0.008C0.318,0.008 0.276,0.001 0.239,-0.014C0.202,-0.029 0.171,-0.05 0.145,-0.076C0.119,-0.103 0.099,-0.134 0.085,-0.171C0.071,-0.207 0.065,-0.247 0.065,-0.29L0.065,-0.723L0.199,-0.723L0.199,-0.291C0.199,-0.263 0.203,-0.238 0.21,-0.216C0.218,-0.193 0.229,-0.174 0.243,-0.158C0.257,-0.142 0.274,-0.13 0.294,-0.122C0.315,-0.113 0.338,-0.109 0.364,-0.109Z" style="fill-rule:nonzero;"/>
            </g>
            <g transform="matrix(50,0,0,50,722.123,720.99)">
                <path d="M0.212,-0.283L0.212,-0L0.078,-0L0.078,-0.723L0.298,-0.723C0.347,-0.723 0.39,-0.718 0.425,-0.708C0.46,-0.698 0.489,-0.683 0.511,-0.665C0.534,-0.647 0.55,-0.625 0.561,-0.599C0.571,-0.574 0.577,-0.546 0.577,-0.515C0.577,-0.491 0.573,-0.468 0.566,-0.446C0.559,-0.424 0.548,-0.405 0.535,-0.387C0.521,-0.369 0.505,-0.354 0.485,-0.341C0.465,-0.327 0.442,-0.317 0.417,-0.309C0.434,-0.299 0.449,-0.285 0.461,-0.267L0.642,-0L0.521,-0C0.509,-0 0.499,-0.002 0.491,-0.007C0.483,-0.012 0.476,-0.018 0.471,-0.027L0.319,-0.259C0.313,-0.267 0.307,-0.273 0.3,-0.277C0.293,-0.281 0.283,-0.283 0.27,-0.283L0.212,-0.283ZM0.212,-0.379L0.296,-0.379C0.321,-0.379 0.343,-0.382 0.362,-0.389C0.381,-0.395 0.397,-0.404 0.409,-0.415C0.421,-0.426 0.43,-0.439 0.436,-0.455C0.442,-0.47 0.445,-0.487 0.445,-0.505C0.445,-0.542 0.433,-0.57 0.409,-0.59C0.385,-0.609 0.348,-0.619 0.298,-0.619L0.212,-0.619L0.212,-0.379Z" style="fill-rule:nonzero;"/>
            </g>
            <g transform="matrix(50,0,0,50,753.673,720.99)">
                <path d="M0.57,-0.171C0.577,-0.171 0.584,-0.168 0.589,-0.162L0.642,-0.105C0.613,-0.068 0.577,-0.04 0.534,-0.021C0.491,-0.002 0.44,0.008 0.38,0.008C0.326,0.008 0.278,-0.001 0.235,-0.02C0.192,-0.038 0.155,-0.063 0.125,-0.096C0.095,-0.129 0.071,-0.168 0.055,-0.213C0.039,-0.258 0.031,-0.308 0.031,-0.362C0.031,-0.416 0.04,-0.466 0.058,-0.511C0.076,-0.556 0.101,-0.595 0.134,-0.628C0.167,-0.66 0.206,-0.686 0.251,-0.704C0.297,-0.722 0.347,-0.731 0.402,-0.731C0.456,-0.731 0.503,-0.722 0.543,-0.705C0.583,-0.688 0.617,-0.665 0.646,-0.637L0.601,-0.575C0.598,-0.571 0.595,-0.567 0.591,-0.564C0.587,-0.561 0.581,-0.56 0.574,-0.56C0.566,-0.56 0.558,-0.563 0.55,-0.569C0.542,-0.575 0.532,-0.581 0.52,-0.588C0.507,-0.595 0.492,-0.602 0.473,-0.608C0.454,-0.614 0.43,-0.617 0.401,-0.617C0.367,-0.617 0.336,-0.611 0.307,-0.599C0.279,-0.587 0.254,-0.57 0.234,-0.548C0.213,-0.526 0.197,-0.499 0.186,-0.468C0.174,-0.436 0.169,-0.401 0.169,-0.362C0.169,-0.321 0.174,-0.285 0.186,-0.253C0.197,-0.221 0.213,-0.195 0.233,-0.173C0.252,-0.151 0.275,-0.135 0.302,-0.123C0.329,-0.112 0.357,-0.106 0.388,-0.106C0.406,-0.106 0.423,-0.107 0.438,-0.109C0.453,-0.111 0.466,-0.114 0.479,-0.119C0.491,-0.123 0.503,-0.128 0.514,-0.135C0.525,-0.142 0.537,-0.151 0.548,-0.161C0.551,-0.164 0.554,-0.166 0.558,-0.168C0.562,-0.17 0.566,-0.171 0.57,-0.171Z" style="fill-rule:nonzero;"/>
            </g>
            <g transform="matrix(50,0,0,50,787.198,720.99)">
                <path d="M0.529,-0.723L0.529,-0.616L0.209,-0.616L0.209,-0.416L0.461,-0.416L0.461,-0.312L0.209,-0.312L0.209,-0.108L0.529,-0.108L0.529,-0L0.073,-0L0.073,-0.723L0.529,-0.723Z" style="fill-rule:nonzero;"/>
            </g>
            <g transform="matrix(50,0,0,50,825.473,720.99)">
                <path d="M0.583,-0.723L0.583,-0.613L0.365,-0.613L0.365,-0L0.231,-0L0.231,-0.613L0.012,-0.613L0.012,-0.723L0.583,-0.723Z" style="fill-rule:nonzero;"/>
            </g>
            <g transform="matrix(50,0,0,50,855.223,720.99)">
                <path d="M0.683,-0L0.548,-0L0.548,-0.316L0.209,-0.316L0.209,-0L0.073,-0L0.073,-0.723L0.209,-0.723L0.209,-0.412L0.548,-0.412L0.548,-0.723L0.683,-0.723L0.683,-0Z" style="fill-rule:nonzero;"/>
            </g>
            <g transform="matrix(50,0,0,50,893.023,720.99)">
                <path d="M0.212,-0.283L0.212,-0L0.078,-0L0.078,-0.723L0.298,-0.723C0.347,-0.723 0.39,-0.718 0.425,-0.708C0.46,-0.698 0.489,-0.683 0.511,-0.665C0.534,-0.647 0.55,-0.625 0.561,-0.599C0.571,-0.574 0.577,-0.546 0.577,-0.515C0.577,-0.491 0.573,-0.468 0.566,-0.446C0.559,-0.424 0.548,-0.405 0.535,-0.387C0.521,-0.369 0.505,-0.354 0.485,-0.341C0.465,-0.327 0.442,-0.317 0.417,-0.309C0.434,-0.299 0.449,-0.285 0.461,-0.267L0.642,-0L0.521,-0C0.509,-0 0.499,-0.002 0.491,-0.007C0.483,-0.012 0.476,-0.018 0.471,-0.027L0.319,-0.259C0.313,-0.267 0.307,-0.273 0.3,-0.277C0.293,-0.281 0.283,-0.283 0.27,-0.283L0.212,-0.283ZM0.212,-0.379L0.296,-0.379C0.321,-0.379 0.343,-0.382 0.362,-0.389C0.381,-0.395 0.397,-0.404 0.409,-0.415C0.421,-0.426 0.43,-0.439 0.436,-0.455C0.442,-0.47 0.445,-0.487 0.445,-0.505C0.445,-0.542 0.433,-0.57 0.409,-0.59C0.385,-0.609 0.348,-0.619 0.298,-0.619L0.212,-0.619L0.212,-0.379Z" style="fill-rule:nonzero;"/>
            </g>
            <g transform="matrix(50,0,0,50,925.773,720.99)">
                <path d="M0.529,-0.723L0.529,-0.616L0.209,-0.616L0.209,-0.416L0.461,-0.416L0.461,-0.312L0.209,-0.312L0.209,-0.108L0.529,-0.108L0.529,-0L0.073,-0L0.073,-0.723L0.529,-0.723Z" style="fill-rule:nonzero;"/>
            </g>
            <g transform="matrix(50,0,0,50,954.398,720.99)">
                <path d="M0.709,-0L0.605,-0C0.593,-0 0.583,-0.003 0.576,-0.009C0.568,-0.015 0.563,-0.022 0.56,-0.031L0.506,-0.178L0.206,-0.178L0.152,-0.031C0.149,-0.023 0.144,-0.016 0.136,-0.01C0.128,-0.003 0.119,-0 0.108,-0L0.003,-0L0.287,-0.723L0.425,-0.723L0.709,-0ZM0.241,-0.273L0.471,-0.273L0.383,-0.514C0.379,-0.524 0.375,-0.537 0.37,-0.551C0.365,-0.566 0.36,-0.582 0.356,-0.599C0.351,-0.582 0.346,-0.566 0.342,-0.551C0.337,-0.536 0.333,-0.524 0.329,-0.513L0.241,-0.273Z" style="fill-rule:nonzero;"/>
            </g>
            <g transform="matrix(50,0,0,50,989.898,720.99)">
                <path d="M0.715,-0.362C0.715,-0.309 0.706,-0.26 0.689,-0.216C0.671,-0.171 0.646,-0.133 0.614,-0.101C0.582,-0.069 0.544,-0.044 0.499,-0.027C0.454,-0.009 0.404,-0 0.349,-0L0.073,-0L0.073,-0.723L0.349,-0.723C0.404,-0.723 0.454,-0.714 0.499,-0.696C0.544,-0.678 0.582,-0.654 0.614,-0.622C0.646,-0.59 0.671,-0.552 0.689,-0.508C0.706,-0.463 0.715,-0.415 0.715,-0.362ZM0.578,-0.362C0.578,-0.401 0.572,-0.437 0.562,-0.468C0.551,-0.5 0.536,-0.526 0.516,-0.548C0.496,-0.57 0.472,-0.587 0.444,-0.599C0.416,-0.61 0.384,-0.616 0.349,-0.616L0.209,-0.616L0.209,-0.107L0.349,-0.107C0.384,-0.107 0.416,-0.113 0.444,-0.125C0.472,-0.136 0.496,-0.153 0.516,-0.175C0.536,-0.197 0.551,-0.223 0.562,-0.255C0.572,-0.286 0.578,-0.322 0.578,-0.362Z" style="fill-rule:nonzero;"/>
            </g>
        </g>
        <g transform="matrix(0.859567,0,0,1,24.6324,-14.0346)">
            <rect x="540.319" y="790.621" width="19.768" height="99.296" style="fill:rgb(70,70,70);"/>
        </g>
        <g transform="matrix(0.859567,0,0,1,895.288,-14.0346)">
            <rect x="540.319" y="790.621" width="19.768" height="99.296" style="fill:rgb(70,70,70);"/>
        </g>
        <g transform="matrix(0.859567,0,0,1,459.96,-14.0346)">
            <rect x="540.319" y="790.621" width="19.768" height="99.296" style="fill:rgb(70,70,70);"/>
        </g>
        <g transform="matrix(0.859567,0,0,1,1330.62,-14.0346)">
            <rect x="540.319" y="790.621" width="19.768" height="99.296" style="fill:rgb(70,70,70);"/>
        </g>
        <g transform="matrix(0.859567,0,0,1,242.296,-14.0346)">
            <rect x="540.319" y="790.621" width="19.768" height="99.296" style="fill:rgb(70,70,70);"/>
        </g>
        <g transform="matrix(0.859567,0,0,1,1112.95,-14.0346)">
            <rect x="540.319" y="790.621" width="19.768" height="99.296" style="fill:rgb(70,70,70);"/>
        </g>
        <g transform="matrix(0.859567,0,0,1,677.624,-14.0346)">
            <rect x="540.319" y="790.621" width="19.768" height="99.296" style="fill:rgb(70,70,70);"/>
        </g>
        <g transform="matrix(1,0,0,1,435.702,0)">
            <path d="M725.943,760.225L725.943,771.111L709.196,754.364L725.943,737.616L725.943,748.502L923.306,748.502L923.306,737.616L940.054,754.364L923.306,771.111L923.306,760.225L725.943,760.225Z" style="fill:rgb(178,178,178);"/>
        </g>
        <g transform="matrix(0.802461,0,0,0.802461,516.454,167.853)">
            <g transform="matrix(50,0,0,50,800.872,692.369)">
                <path d="M0.31,-0.725C0.34,-0.725 0.368,-0.72 0.394,-0.712C0.42,-0.703 0.442,-0.691 0.46,-0.675C0.479,-0.659 0.493,-0.639 0.504,-0.617C0.514,-0.594 0.519,-0.569 0.519,-0.541C0.519,-0.518 0.516,-0.498 0.51,-0.48C0.504,-0.462 0.496,-0.447 0.485,-0.433C0.474,-0.42 0.461,-0.408 0.446,-0.399C0.431,-0.39 0.413,-0.382 0.395,-0.377C0.441,-0.364 0.476,-0.343 0.5,-0.315C0.523,-0.286 0.535,-0.249 0.535,-0.206C0.535,-0.173 0.529,-0.143 0.516,-0.117C0.504,-0.09 0.487,-0.068 0.465,-0.049C0.443,-0.031 0.418,-0.017 0.389,-0.007C0.36,0.003 0.33,0.008 0.297,0.008C0.259,0.008 0.226,0.003 0.199,-0.006C0.172,-0.016 0.149,-0.029 0.131,-0.046C0.112,-0.062 0.097,-0.082 0.085,-0.105C0.073,-0.128 0.062,-0.152 0.054,-0.179L0.092,-0.195C0.099,-0.198 0.106,-0.2 0.113,-0.2C0.12,-0.2 0.126,-0.198 0.131,-0.195C0.136,-0.192 0.14,-0.188 0.143,-0.182C0.143,-0.181 0.146,-0.175 0.147,-0.173C0.151,-0.163 0.157,-0.152 0.164,-0.14C0.17,-0.128 0.179,-0.117 0.191,-0.106C0.202,-0.095 0.216,-0.086 0.233,-0.079C0.25,-0.072 0.271,-0.068 0.296,-0.068C0.321,-0.068 0.342,-0.072 0.361,-0.08C0.38,-0.088 0.396,-0.099 0.408,-0.112C0.421,-0.125 0.43,-0.139 0.437,-0.156C0.443,-0.171 0.446,-0.187 0.446,-0.203C0.446,-0.222 0.443,-0.24 0.438,-0.256C0.433,-0.272 0.424,-0.286 0.41,-0.298C0.397,-0.309 0.378,-0.318 0.354,-0.325C0.33,-0.332 0.3,-0.335 0.263,-0.335L0.263,-0.4C0.293,-0.4 0.319,-0.403 0.34,-0.41C0.362,-0.416 0.379,-0.424 0.393,-0.436C0.407,-0.447 0.417,-0.46 0.423,-0.475C0.429,-0.49 0.432,-0.507 0.432,-0.526C0.432,-0.547 0.429,-0.565 0.422,-0.58C0.416,-0.595 0.407,-0.608 0.396,-0.618C0.384,-0.628 0.371,-0.635 0.355,-0.641C0.34,-0.646 0.323,-0.648 0.305,-0.648C0.287,-0.648 0.27,-0.645 0.255,-0.64C0.24,-0.635 0.226,-0.627 0.214,-0.618C0.202,-0.608 0.193,-0.597 0.185,-0.584C0.177,-0.571 0.171,-0.556 0.167,-0.541C0.164,-0.531 0.16,-0.524 0.155,-0.52C0.149,-0.516 0.142,-0.514 0.134,-0.514C0.132,-0.514 0.131,-0.514 0.129,-0.514C0.127,-0.514 0.125,-0.514 0.123,-0.515L0.076,-0.523C0.081,-0.555 0.09,-0.584 0.103,-0.609C0.116,-0.634 0.133,-0.656 0.154,-0.673C0.174,-0.69 0.198,-0.702 0.224,-0.711C0.251,-0.72 0.279,-0.725 0.31,-0.725Z" style="fill:rgb(161,161,161);fill-rule:nonzero;"/>
            </g>
            <g transform="matrix(50,0,0,50,829.872,692.369)">
                <path d="M0.55,-0.358C0.55,-0.295 0.543,-0.241 0.53,-0.195C0.516,-0.149 0.498,-0.112 0.475,-0.082C0.451,-0.051 0.424,-0.029 0.392,-0.015C0.36,0 0.326,0.008 0.29,0.008C0.253,0.008 0.219,0 0.187,-0.015C0.156,-0.029 0.128,-0.051 0.105,-0.082C0.082,-0.112 0.063,-0.149 0.05,-0.195C0.037,-0.241 0.03,-0.295 0.03,-0.358C0.03,-0.421 0.037,-0.475 0.05,-0.521C0.063,-0.567 0.082,-0.605 0.105,-0.635C0.128,-0.665 0.156,-0.688 0.187,-0.703C0.219,-0.717 0.253,-0.725 0.29,-0.725C0.326,-0.725 0.36,-0.717 0.392,-0.703C0.424,-0.688 0.451,-0.665 0.475,-0.635C0.498,-0.605 0.516,-0.567 0.53,-0.521C0.543,-0.475 0.55,-0.421 0.55,-0.358ZM0.458,-0.358C0.458,-0.413 0.453,-0.459 0.444,-0.496C0.435,-0.533 0.422,-0.563 0.407,-0.586C0.391,-0.608 0.373,-0.624 0.353,-0.634C0.333,-0.644 0.312,-0.649 0.29,-0.649C0.268,-0.649 0.246,-0.644 0.226,-0.634C0.206,-0.624 0.188,-0.608 0.173,-0.586C0.157,-0.563 0.145,-0.533 0.136,-0.496C0.127,-0.459 0.122,-0.413 0.122,-0.358C0.122,-0.303 0.127,-0.258 0.136,-0.221C0.145,-0.184 0.157,-0.154 0.173,-0.131C0.188,-0.108 0.206,-0.092 0.226,-0.082C0.246,-0.072 0.268,-0.068 0.29,-0.068C0.312,-0.068 0.333,-0.072 0.353,-0.082C0.373,-0.092 0.391,-0.108 0.407,-0.131C0.422,-0.154 0.435,-0.184 0.444,-0.221C0.453,-0.258 0.458,-0.303 0.458,-0.358Z" style="fill:rgb(161,161,161);fill-rule:nonzero;"/>
            </g>
            <g transform="matrix(50,0,0,50,858.872,692.369)">
                <path d="M0.093,-0L0.093,-0.431L0.037,-0.437C0.03,-0.439 0.024,-0.441 0.02,-0.445C0.015,-0.448 0.013,-0.453 0.013,-0.46L0.013,-0.497L0.093,-0.497L0.093,-0.546C0.093,-0.575 0.097,-0.6 0.105,-0.623C0.113,-0.645 0.125,-0.664 0.14,-0.68C0.155,-0.695 0.174,-0.707 0.195,-0.715C0.216,-0.723 0.24,-0.727 0.267,-0.727C0.29,-0.727 0.311,-0.724 0.33,-0.717L0.328,-0.673C0.328,-0.666 0.325,-0.662 0.32,-0.661C0.314,-0.659 0.307,-0.659 0.297,-0.659L0.282,-0.659C0.266,-0.659 0.252,-0.657 0.24,-0.653C0.227,-0.649 0.217,-0.642 0.208,-0.633C0.199,-0.624 0.192,-0.612 0.187,-0.598C0.182,-0.583 0.18,-0.565 0.18,-0.543L0.18,-0.497L0.326,-0.497L0.326,-0.432L0.183,-0.432L0.183,-0L0.093,-0Z" style="fill:rgb(161,161,161);fill-rule:nonzero;"/>
            </g>
            <g transform="matrix(50,0,0,50,875.722,692.369)">
                <path d="M0.073,0.172L0.073,-0.507L0.126,-0.507C0.139,-0.507 0.147,-0.5 0.15,-0.488L0.158,-0.428C0.179,-0.454 0.204,-0.476 0.232,-0.492C0.26,-0.507 0.292,-0.516 0.328,-0.516C0.357,-0.516 0.383,-0.51 0.407,-0.499C0.431,-0.488 0.451,-0.471 0.468,-0.449C0.484,-0.427 0.497,-0.4 0.506,-0.368C0.515,-0.336 0.52,-0.299 0.52,-0.257C0.52,-0.219 0.515,-0.184 0.505,-0.152C0.495,-0.12 0.48,-0.092 0.462,-0.069C0.443,-0.045 0.42,-0.027 0.393,-0.013C0.366,0 0.335,0.007 0.301,0.007C0.27,0.007 0.243,0.002 0.221,-0.009C0.199,-0.019 0.179,-0.034 0.162,-0.053L0.162,0.172L0.073,0.172ZM0.299,-0.444C0.27,-0.444 0.244,-0.437 0.222,-0.424C0.2,-0.41 0.18,-0.391 0.162,-0.367L0.162,-0.122C0.178,-0.1 0.196,-0.085 0.216,-0.076C0.235,-0.067 0.257,-0.062 0.281,-0.062C0.328,-0.062 0.364,-0.079 0.39,-0.113C0.415,-0.146 0.428,-0.194 0.428,-0.257C0.428,-0.29 0.425,-0.318 0.419,-0.342C0.413,-0.365 0.405,-0.385 0.394,-0.4C0.383,-0.415 0.369,-0.426 0.353,-0.433C0.337,-0.44 0.319,-0.444 0.299,-0.444Z" style="fill:rgb(161,161,161);fill-rule:nonzero;"/>
            </g>
            <g transform="matrix(50,0,0,50,903.322,692.369)">
                <path d="M0.363,-0.423C0.359,-0.416 0.353,-0.412 0.345,-0.412C0.339,-0.412 0.334,-0.414 0.328,-0.418C0.321,-0.421 0.313,-0.425 0.304,-0.43C0.295,-0.434 0.284,-0.438 0.272,-0.442C0.259,-0.446 0.244,-0.448 0.227,-0.448C0.212,-0.448 0.198,-0.446 0.186,-0.442C0.174,-0.438 0.164,-0.433 0.155,-0.427C0.147,-0.42 0.14,-0.412 0.136,-0.403C0.131,-0.394 0.129,-0.385 0.129,-0.375C0.129,-0.362 0.133,-0.351 0.14,-0.342C0.148,-0.333 0.158,-0.326 0.17,-0.32C0.182,-0.313 0.196,-0.308 0.212,-0.303C0.228,-0.298 0.244,-0.293 0.26,-0.287C0.277,-0.282 0.293,-0.276 0.309,-0.269C0.324,-0.262 0.338,-0.254 0.351,-0.244C0.363,-0.234 0.373,-0.222 0.38,-0.207C0.388,-0.193 0.392,-0.175 0.392,-0.155C0.392,-0.132 0.387,-0.11 0.379,-0.09C0.371,-0.07 0.358,-0.053 0.342,-0.039C0.326,-0.024 0.306,-0.013 0.282,-0.005C0.258,0.004 0.231,0.008 0.2,0.008C0.165,0.008 0.133,0.002 0.104,-0.009C0.075,-0.021 0.051,-0.035 0.031,-0.054L0.052,-0.088C0.055,-0.092 0.058,-0.095 0.062,-0.098C0.065,-0.1 0.07,-0.101 0.076,-0.101C0.082,-0.101 0.088,-0.099 0.095,-0.094C0.102,-0.089 0.11,-0.084 0.119,-0.079C0.129,-0.073 0.14,-0.068 0.154,-0.063C0.167,-0.058 0.184,-0.056 0.205,-0.056C0.222,-0.056 0.237,-0.058 0.25,-0.063C0.263,-0.067 0.274,-0.073 0.283,-0.081C0.291,-0.089 0.298,-0.097 0.302,-0.108C0.306,-0.117 0.308,-0.128 0.308,-0.14C0.308,-0.154 0.304,-0.165 0.297,-0.174C0.289,-0.183 0.279,-0.191 0.267,-0.198C0.255,-0.204 0.241,-0.21 0.225,-0.215C0.209,-0.22 0.193,-0.225 0.176,-0.23C0.16,-0.235 0.144,-0.241 0.128,-0.248C0.112,-0.255 0.098,-0.264 0.086,-0.274C0.073,-0.284 0.063,-0.297 0.056,-0.312C0.048,-0.327 0.045,-0.346 0.045,-0.368C0.045,-0.387 0.048,-0.405 0.057,-0.423C0.065,-0.441 0.076,-0.457 0.092,-0.47C0.107,-0.484 0.126,-0.495 0.148,-0.503C0.17,-0.51 0.196,-0.515 0.225,-0.515C0.258,-0.515 0.288,-0.509 0.314,-0.499C0.341,-0.488 0.364,-0.474 0.383,-0.456L0.363,-0.423Z" style="fill:rgb(161,161,161);fill-rule:nonzero;"/>
            </g>
            <g transform="matrix(50,0,0,50,934.672,692.369)">
                <path d="M0.575,-0.717L0.575,-0.635L0.344,-0.635L0.344,-0L0.247,-0L0.247,-0.635L0.014,-0.635L0.014,-0.717L0.575,-0.717Z" style="fill:rgb(161,161,161);fill-rule:nonzero;"/>
            </g>
            <g transform="matrix(50,0,0,50,964.172,692.369)">
                <path d="M0.172,-0.507L0.172,-0L0.083,-0L0.083,-0.507L0.172,-0.507ZM0.192,-0.666C0.192,-0.657 0.19,-0.649 0.187,-0.641C0.183,-0.634 0.179,-0.627 0.173,-0.621C0.167,-0.615 0.16,-0.611 0.153,-0.608C0.145,-0.604 0.137,-0.603 0.128,-0.603C0.119,-0.603 0.111,-0.604 0.104,-0.608C0.096,-0.611 0.09,-0.615 0.084,-0.621C0.078,-0.627 0.073,-0.634 0.07,-0.641C0.067,-0.649 0.065,-0.657 0.065,-0.666C0.065,-0.674 0.067,-0.682 0.07,-0.69C0.073,-0.698 0.078,-0.705 0.084,-0.711C0.09,-0.717 0.096,-0.721 0.104,-0.725C0.111,-0.728 0.119,-0.73 0.128,-0.73C0.137,-0.73 0.145,-0.728 0.153,-0.725C0.16,-0.721 0.167,-0.717 0.173,-0.711C0.179,-0.705 0.183,-0.698 0.187,-0.69C0.19,-0.682 0.192,-0.674 0.192,-0.666Z" style="fill:rgb(161,161,161);fill-rule:nonzero;"/>
            </g>
            <g transform="matrix(50,0,0,50,976.972,692.369)">
                <path d="M0.073,-0L0.073,-0.507L0.126,-0.507C0.139,-0.507 0.147,-0.5 0.15,-0.488L0.157,-0.436C0.175,-0.459 0.196,-0.478 0.219,-0.493C0.242,-0.507 0.269,-0.515 0.3,-0.515C0.334,-0.515 0.362,-0.505 0.383,-0.486C0.404,-0.467 0.42,-0.441 0.429,-0.409C0.436,-0.427 0.445,-0.443 0.457,-0.457C0.468,-0.47 0.481,-0.481 0.496,-0.49C0.51,-0.498 0.525,-0.505 0.541,-0.509C0.557,-0.513 0.574,-0.515 0.591,-0.515C0.617,-0.515 0.641,-0.51 0.662,-0.502C0.683,-0.493 0.7,-0.481 0.715,-0.465C0.729,-0.448 0.74,-0.428 0.748,-0.404C0.756,-0.38 0.76,-0.353 0.76,-0.323L0.76,-0L0.671,-0L0.671,-0.323C0.671,-0.362 0.662,-0.392 0.645,-0.413C0.627,-0.433 0.602,-0.444 0.569,-0.444C0.554,-0.444 0.54,-0.441 0.527,-0.436C0.514,-0.431 0.503,-0.423 0.493,-0.413C0.483,-0.403 0.475,-0.39 0.469,-0.375C0.463,-0.36 0.46,-0.342 0.46,-0.323L0.46,-0L0.371,-0L0.371,-0.323C0.371,-0.363 0.363,-0.394 0.347,-0.414C0.33,-0.434 0.306,-0.444 0.275,-0.444C0.253,-0.444 0.233,-0.438 0.214,-0.426C0.195,-0.414 0.178,-0.398 0.162,-0.378L0.162,-0L0.073,-0Z" style="fill:rgb(161,161,161);fill-rule:nonzero;"/>
            </g>
            <g transform="matrix(50,0,0,50,1018.02,692.369)">
                <path d="M0.274,-0.515C0.304,-0.515 0.332,-0.509 0.358,-0.499C0.383,-0.489 0.405,-0.474 0.424,-0.455C0.443,-0.436 0.457,-0.412 0.468,-0.384C0.478,-0.356 0.484,-0.324 0.484,-0.288C0.484,-0.274 0.482,-0.265 0.479,-0.26C0.476,-0.255 0.47,-0.253 0.462,-0.253L0.125,-0.253C0.126,-0.221 0.13,-0.193 0.138,-0.17C0.146,-0.146 0.157,-0.126 0.171,-0.11C0.185,-0.094 0.202,-0.083 0.221,-0.075C0.24,-0.067 0.262,-0.063 0.286,-0.063C0.308,-0.063 0.328,-0.066 0.344,-0.071C0.36,-0.076 0.374,-0.082 0.386,-0.088C0.397,-0.094 0.407,-0.099 0.415,-0.104C0.423,-0.109 0.429,-0.112 0.435,-0.112C0.442,-0.112 0.448,-0.109 0.452,-0.104L0.477,-0.071C0.466,-0.058 0.453,-0.046 0.438,-0.036C0.422,-0.026 0.406,-0.018 0.388,-0.012C0.371,-0.006 0.353,-0.001 0.334,0.002C0.315,0.005 0.297,0.007 0.279,0.007C0.244,0.007 0.211,0.001 0.182,-0.011C0.152,-0.023 0.127,-0.04 0.105,-0.063C0.084,-0.086 0.067,-0.114 0.055,-0.148C0.043,-0.181 0.037,-0.22 0.037,-0.264C0.037,-0.299 0.042,-0.332 0.053,-0.363C0.064,-0.393 0.08,-0.42 0.1,-0.442C0.12,-0.465 0.145,-0.482 0.175,-0.495C0.204,-0.508 0.237,-0.515 0.274,-0.515ZM0.276,-0.449C0.233,-0.449 0.199,-0.437 0.174,-0.412C0.149,-0.387 0.134,-0.353 0.128,-0.309L0.404,-0.309C0.404,-0.329 0.401,-0.348 0.395,-0.365C0.389,-0.382 0.381,-0.397 0.37,-0.41C0.359,-0.422 0.346,-0.432 0.33,-0.439C0.314,-0.446 0.296,-0.449 0.276,-0.449Z" style="fill:rgb(161,161,161);fill-rule:nonzero;"/>
            </g>
            <g transform="matrix(50,0,0,50,1044.22,692.369)">
                <path d="M0.073,-0L0.073,-0.507L0.124,-0.507C0.134,-0.507 0.14,-0.505 0.144,-0.501C0.148,-0.497 0.15,-0.491 0.152,-0.482L0.158,-0.403C0.175,-0.438 0.196,-0.466 0.222,-0.486C0.247,-0.506 0.277,-0.516 0.312,-0.516C0.326,-0.516 0.338,-0.514 0.35,-0.511C0.361,-0.508 0.371,-0.503 0.381,-0.498L0.37,-0.431C0.367,-0.423 0.362,-0.419 0.354,-0.419C0.349,-0.419 0.342,-0.42 0.333,-0.423C0.323,-0.426 0.309,-0.428 0.292,-0.428C0.261,-0.428 0.235,-0.419 0.214,-0.401C0.193,-0.383 0.176,-0.357 0.162,-0.323L0.162,-0L0.073,-0Z" style="fill:rgb(161,161,161);fill-rule:nonzero;"/>
            </g>
        </g>
        <g transform="matrix(2.74824,0,0,1.43233,-2502.98,-188.783)">
            <rect x="1418.69" y="429.447" width="8.885" height="98.246" style="fill:rgb(219,124,184);"/>
        </g>
        <g transform="matrix(2.74824,0,0,1.44012,-2420.32,-192.131)">
            <rect x="1418.69" y="429.447" width="8.885" height="98.246" style="fill:rgb(219,124,184);"/>
        </g>
        <g transform="matrix(2.74824,0,0,1,-2479.18,-3.12159)">
            <rect x="1418.69" y="429.447" width="8.885" height="98.246" style="fill:rgb(124,144,219);"/>
        </g>
        <g transform="matrix(2.74824,0,0,1,-2396.52,-3.12159)">
            <rect x="1418.69" y="429.447" width="8.885" height="98.246" style="fill:rgb(124,144,219);"/>
        </g>
        <g transform="matrix(2.74824,0,0,1,-2304.33,348.056)">
            <rect x="1418.69" y="429.447" width="8.885" height="98.246" style="fill:rgb(193,219,124);"/>
        </g>
        <g transform="matrix(1,0,0,1,-21.3686,43.9547)">
            <g transform="matrix(40.123,0,0,40.123,1591.36,719.129)">
                <path d="M0.55,-0.358C0.55,-0.295 0.543,-0.241 0.53,-0.195C0.516,-0.149 0.498,-0.112 0.475,-0.082C0.451,-0.051 0.424,-0.029 0.392,-0.015C0.36,0 0.326,0.008 0.29,0.008C0.253,0.008 0.219,0 0.187,-0.015C0.156,-0.029 0.128,-0.051 0.105,-0.082C0.082,-0.112 0.063,-0.149 0.05,-0.195C0.037,-0.241 0.03,-0.295 0.03,-0.358C0.03,-0.421 0.037,-0.475 0.05,-0.521C0.063,-0.567 0.082,-0.605 0.105,-0.635C0.128,-0.665 0.156,-0.688 0.187,-0.703C0.219,-0.717 0.253,-0.725 0.29,-0.725C0.326,-0.725 0.36,-0.717 0.392,-0.703C0.424,-0.688 0.451,-0.665 0.475,-0.635C0.498,-0.605 0.516,-0.567 0.53,-0.521C0.543,-0.475 0.55,-0.421 0.55,-0.358ZM0.458,-0.358C0.458,-0.413 0.453,-0.459 0.444,-0.496C0.435,-0.533 0.422,-0.563 0.407,-0.586C0.391,-0.608 0.373,-0.624 0.353,-0.634C0.333,-0.644 0.312,-0.649 0.29,-0.649C0.268,-0.649 0.246,-0.644 0.226,-0.634C0.206,-0.624 0.188,-0.608 0.173,-0.586C0.157,-0.563 0.145,-0.533 0.136,-0.496C0.127,-0.459 0.122,-0.413 0.122,-0.358C0.122,-0.303 0.127,-0.258 0.136,-0.221C0.145,-0.184 0.157,-0.154 0.173,-0.131C0.188,-0.108 0.206,-0.092 0.226,-0.082C0.246,-0.072 0.268,-0.068 0.29,-0.068C0.312,-0.068 0.333,-0.072 0.353,-0.082C0.373,-0.092 0.391,-0.108 0.407,-0.131C0.422,-0.154 0.435,-0.184 0.444,-0.221C0.453,-0.258 0.458,-0.303 0.458,-0.358Z" style="fill:rgb(193,219,124);fill-rule:nonzero;"/>
            </g>
            <g transform="matrix(40.123,0,0,40.123,1614.63,719.129)">
                <path d="M0.044,-0.055C0.044,-0.064 0.046,-0.072 0.049,-0.08C0.052,-0.087 0.056,-0.094 0.062,-0.1C0.067,-0.105 0.074,-0.11 0.082,-0.113C0.089,-0.116 0.097,-0.118 0.106,-0.118C0.115,-0.118 0.123,-0.116 0.131,-0.113C0.138,-0.11 0.145,-0.105 0.151,-0.1C0.156,-0.094 0.161,-0.087 0.164,-0.08C0.167,-0.072 0.169,-0.064 0.169,-0.055C0.169,-0.046 0.167,-0.038 0.164,-0.03C0.161,-0.023 0.156,-0.016 0.151,-0.011C0.145,-0.005 0.138,-0 0.131,0.003C0.123,0.006 0.115,0.008 0.106,0.008C0.097,0.008 0.089,0.006 0.082,0.003C0.074,-0 0.067,-0.005 0.062,-0.011C0.056,-0.016 0.052,-0.023 0.049,-0.03C0.046,-0.038 0.044,-0.046 0.044,-0.055Z" style="fill:rgb(193,219,124);fill-rule:nonzero;"/>
            </g>
            <g transform="matrix(40.123,0,0,40.123,1623.13,719.129)">
                <path d="M0.542,-0.717L0.542,-0.677C0.542,-0.665 0.541,-0.656 0.538,-0.649C0.536,-0.641 0.533,-0.635 0.531,-0.63L0.234,-0.032C0.23,-0.023 0.224,-0.015 0.216,-0.009C0.208,-0.003 0.198,-0 0.185,-0L0.122,-0L0.423,-0.591C0.427,-0.599 0.431,-0.607 0.436,-0.614C0.44,-0.621 0.445,-0.628 0.451,-0.634L0.077,-0.634C0.071,-0.634 0.066,-0.636 0.062,-0.641C0.057,-0.645 0.055,-0.65 0.055,-0.656L0.055,-0.717L0.542,-0.717Z" style="fill:rgb(193,219,124);fill-rule:nonzero;"/>
            </g>
        </g>
        <g transform="matrix(1,0,0,1,28.1607,65.0916)">
            <g transform="matrix(40.123,0,0,40.123,1351.46,350.934)">
                <path d="M0.55,-0.358C0.55,-0.295 0.543,-0.241 0.53,-0.195C0.516,-0.149 0.498,-0.112 0.475,-0.082C0.451,-0.051 0.424,-0.029 0.392,-0.015C0.36,0 0.326,0.008 0.29,0.008C0.253,0.008 0.219,0 0.187,-0.015C0.156,-0.029 0.128,-0.051 0.105,-0.082C0.082,-0.112 0.063,-0.149 0.05,-0.195C0.037,-0.241 0.03,-0.295 0.03,-0.358C0.03,-0.421 0.037,-0.475 0.05,-0.521C0.063,-0.567 0.082,-0.605 0.105,-0.635C0.128,-0.665 0.156,-0.688 0.187,-0.703C0.219,-0.717 0.253,-0.725 0.29,-0.725C0.326,-0.725 0.36,-0.717 0.392,-0.703C0.424,-0.688 0.451,-0.665 0.475,-0.635C0.498,-0.605 0.516,-0.567 0.53,-0.521C0.543,-0.475 0.55,-0.421 0.55,-0.358ZM0.458,-0.358C0.458,-0.413 0.453,-0.459 0.444,-0.496C0.435,-0.533 0.422,-0.563 0.407,-0.586C0.391,-0.608 0.373,-0.624 0.353,-0.634C0.333,-0.644 0.312,-0.649 0.29,-0.649C0.268,-0.649 0.246,-0.644 0.226,-0.634C0.206,-0.624 0.188,-0.608 0.173,-0.586C0.157,-0.563 0.145,-0.533 0.136,-0.496C0.127,-0.459 0.122,-0.413 0.122,-0.358C0.122,-0.303 0.127,-0.258 0.136,-0.221C0.145,-0.184 0.157,-0.154 0.173,-0.131C0.188,-0.108 0.206,-0.092 0.226,-0.082C0.246,-0.072 0.268,-0.068 0.29,-0.068C0.312,-0.068 0.333,-0.072 0.353,-0.082C0.373,-0.092 0.391,-0.108 0.407,-0.131C0.422,-0.154 0.435,-0.184 0.444,-0.221C0.453,-0.258 0.458,-0.303 0.458,-0.358Z" style="fill:rgb(219,124,184);fill-rule:nonzero;"/>
            </g>
            <g transform="matrix(40.123,0,0,40.123,1374.74,350.934)">
                <path d="M0.044,-0.055C0.044,-0.064 0.046,-0.072 0.049,-0.08C0.052,-0.087 0.056,-0.094 0.062,-0.1C0.067,-0.105 0.074,-0.11 0.082,-0.113C0.089,-0.116 0.097,-0.118 0.106,-0.118C0.115,-0.118 0.123,-0.116 0.131,-0.113C0.138,-0.11 0.145,-0.105 0.151,-0.1C0.156,-0.094 0.161,-0.087 0.164,-0.08C0.167,-0.072 0.169,-0.064 0.169,-0.055C0.169,-0.046 0.167,-0.038 0.164,-0.03C0.161,-0.023 0.156,-0.016 0.151,-0.011C0.145,-0.005 0.138,-0 0.131,0.003C0.123,0.006 0.115,0.008 0.106,0.008C0.097,0.008 0.089,0.006 0.082,0.003C0.074,-0 0.067,-0.005 0.062,-0.011C0.056,-0.016 0.052,-0.023 0.049,-0.03C0.046,-0.038 0.044,-0.046 0.044,-0.055Z" style="fill:rgb(219,124,184);fill-rule:nonzero;"/>
            </g>
            <g transform="matrix(40.123,0,0,40.123,1383.24,350.934)">
                <path d="M0.489,-0.678C0.489,-0.665 0.485,-0.654 0.477,-0.646C0.469,-0.638 0.456,-0.634 0.437,-0.634L0.212,-0.634L0.179,-0.446C0.216,-0.454 0.25,-0.458 0.282,-0.458C0.319,-0.458 0.352,-0.452 0.381,-0.442C0.409,-0.431 0.433,-0.415 0.453,-0.396C0.472,-0.377 0.486,-0.354 0.496,-0.328C0.506,-0.301 0.511,-0.273 0.511,-0.242C0.511,-0.204 0.504,-0.169 0.491,-0.139C0.478,-0.108 0.459,-0.082 0.436,-0.06C0.413,-0.038 0.386,-0.021 0.355,-0.01C0.323,0.002 0.289,0.008 0.253,0.008C0.232,0.008 0.212,0.006 0.193,0.002C0.173,-0.002 0.155,-0.008 0.139,-0.015C0.122,-0.022 0.106,-0.03 0.092,-0.039C0.078,-0.048 0.065,-0.057 0.054,-0.068L0.081,-0.106C0.087,-0.114 0.095,-0.119 0.105,-0.119C0.111,-0.119 0.119,-0.116 0.127,-0.111C0.136,-0.106 0.146,-0.1 0.158,-0.094C0.17,-0.087 0.184,-0.081 0.2,-0.076C0.216,-0.071 0.236,-0.069 0.258,-0.069C0.283,-0.069 0.306,-0.073 0.326,-0.081C0.345,-0.089 0.363,-0.1 0.377,-0.115C0.391,-0.13 0.402,-0.147 0.41,-0.168C0.417,-0.189 0.421,-0.212 0.421,-0.238C0.421,-0.26 0.418,-0.28 0.411,-0.298C0.405,-0.316 0.395,-0.331 0.382,-0.344C0.369,-0.357 0.352,-0.367 0.333,-0.374C0.313,-0.381 0.29,-0.384 0.264,-0.384C0.246,-0.384 0.227,-0.383 0.208,-0.38C0.188,-0.377 0.168,-0.372 0.148,-0.365L0.092,-0.382L0.15,-0.717L0.489,-0.717L0.489,-0.678Z" style="fill:rgb(219,124,184);fill-rule:nonzero;"/>
            </g>
        </g>
        <g transform="matrix(1,0,0,1,112.301,65.0916)">
            <g transform="matrix(40.123,0,0,40.123,1351.46,350.934)">
                <path d="M0.55,-0.358C0.55,-0.295 0.543,-0.241 0.53,-0.195C0.516,-0.149 0.498,-0.112 0.475,-0.082C0.451,-0.051 0.424,-0.029 0.392,-0.015C0.36,0 0.326,0.008 0.29,0.008C0.253,0.008 0.219,0 0.187,-0.015C0.156,-0.029 0.128,-0.051 0.105,-0.082C0.082,-0.112 0.063,-0.149 0.05,-0.195C0.037,-0.241 0.03,-0.295 0.03,-0.358C0.03,-0.421 0.037,-0.475 0.05,-0.521C0.063,-0.567 0.082,-0.605 0.105,-0.635C0.128,-0.665 0.156,-0.688 0.187,-0.703C0.219,-0.717 0.253,-0.725 0.29,-0.725C0.326,-0.725 0.36,-0.717 0.392,-0.703C0.424,-0.688 0.451,-0.665 0.475,-0.635C0.498,-0.605 0.516,-0.567 0.53,-0.521C0.543,-0.475 0.55,-0.421 0.55,-0.358ZM0.458,-0.358C0.458,-0.413 0.453,-0.459 0.444,-0.496C0.435,-0.533 0.422,-0.563 0.407,-0.586C0.391,-0.608 0.373,-0.624 0.353,-0.634C0.333,-0.644 0.312,-0.649 0.29,-0.649C0.268,-0.649 0.246,-0.644 0.226,-0.634C0.206,-0.624 0.188,-0.608 0.173,-0.586C0.157,-0.563 0.145,-0.533 0.136,-0.496C0.127,-0.459 0.122,-0.413 0.122,-0.358C0.122,-0.303 0.127,-0.258 0.136,-0.221C0.145,-0.184 0.157,-0.154 0.173,-0.131C0.188,-0.108 0.206,-0.092 0.226,-0.082C0.246,-0.072 0.268,-0.068 0.29,-0.068C0.312,-0.068 0.333,-0.072 0.353,-0.082C0.373,-0.092 0.391,-0.108 0.407,-0.131C0.422,-0.154 0.435,-0.184 0.444,-0.221C0.453,-0.258 0.458,-0.303 0.458,-0.358Z" style="fill:rgb(219,124,184);fill-rule:nonzero;"/>
            </g>
            <g transform="matrix(40.123,0,0,40.123,1374.74,350.934)">
                <path d="M0.044,-0.055C0.044,-0.064 0.046,-0.072 0.049,-0.08C0.052,-0.087 0.056,-0.094 0.062,-0.1C0.067,-0.105 0.074,-0.11 0.082,-0.113C0.089,-0.116 0.097,-0.118 0.106,-0.118C0.115,-0.118 0.123,-0.116 0.131,-0.113C0.138,-0.11 0.145,-0.105 0.151,-0.1C0.156,-0.094 0.161,-0.087 0.164,-0.08C0.167,-0.072 0.169,-0.064 0.169,-0.055C0.169,-0.046 0.167,-0.038 0.164,-0.03C0.161,-0.023 0.156,-0.016 0.151,-0.011C0.145,-0.005 0.138,-0 0.131,0.003C0.123,0.006 0.115,0.008 0.106,0.008C0.097,0.008 0.089,0.006 0.082,0.003C0.074,-0 0.067,-0.005 0.062,-0.011C0.056,-0.016 0.052,-0.023 0.049,-0.03C0.046,-0.038 0.044,-0.046 0.044,-0.055Z" style="fill:rgb(219,124,184);fill-rule:nonzero;"/>
            </g>
            <g transform="matrix(40.123,0,0,40.123,1383.24,350.934)">
                <path d="M0.542,-0.717L0.542,-0.677C0.542,-0.665 0.541,-0.656 0.538,-0.649C0.536,-0.641 0.533,-0.635 0.531,-0.63L0.234,-0.032C0.23,-0.023 0.224,-0.015 0.216,-0.009C0.208,-0.003 0.198,-0 0.185,-0L0.122,-0L0.423,-0.591C0.427,-0.599 0.431,-0.607 0.436,-0.614C0.44,-0.621 0.445,-0.628 0.451,-0.634L0.077,-0.634C0.071,-0.634 0.066,-0.636 0.062,-0.641C0.057,-0.645 0.055,-0.65 0.055,-0.656L0.055,-0.717L0.542,-0.717Z" style="fill:rgb(219,124,184);fill-rule:nonzero;"/>
            </g>
        </g>
        <g transform="matrix(0.605689,0.645332,-0.729148,0.684356,991.585,-749.166)">
            <path d="M1430.65,594.477L1430.65,585.88L1636.69,585.88L1636.69,577.897L1650.56,590.179L1636.69,602.46L1636.69,594.477L1430.65,594.477Z" style="fill:rgb(193,219,124);"/>
        </g>
        <g transform="matrix(0.409621,0.635031,-0.740401,0.477589,1358.9,-614.643)">
            <path d="M1430.65,594.477L1430.65,585.88L1636.24,585.88L1636.24,577.897L1650.56,590.179L1636.24,602.46L1636.24,594.477L1430.65,594.477Z" style="fill:rgb(193,219,124);"/>
        </g>
        <g transform="matrix(1,0,0,1,-390.928,-8.16378)">
            <rect x="872.781" y="368.726" width="47.015" height="47.269" style="fill:rgb(219,124,184);"/>
        </g>
        <g transform="matrix(1,0,0,1,-390.928,63.2429)">
            <rect x="872.781" y="368.726" width="47.015" height="47.269" style="fill:rgb(124,144,219);"/>
        </g>
        <g transform="matrix(1,0,0,1,-390.444,322.19)">
            <rect x="872.781" y="368.726" width="47.015" height="47.269" style="fill:rgb(193,219,124);"/>
        </g>
        <g transform="matrix(1,0,0,1,-419.924,10.1196)">
            <g transform="matrix(40.123,0,0,40.123,973.332,390.643)">
                <path d="M0.004,-0.717L0.082,-0.717C0.09,-0.717 0.097,-0.714 0.103,-0.71C0.108,-0.706 0.112,-0.7 0.115,-0.694L0.317,-0.188C0.322,-0.177 0.326,-0.164 0.33,-0.151C0.334,-0.138 0.337,-0.124 0.341,-0.11C0.344,-0.124 0.347,-0.138 0.351,-0.151C0.354,-0.164 0.358,-0.177 0.363,-0.188L0.565,-0.694C0.567,-0.699 0.571,-0.704 0.577,-0.709C0.582,-0.714 0.589,-0.717 0.598,-0.717L0.676,-0.717L0.384,-0L0.296,-0L0.004,-0.717Z" style="fill-rule:nonzero;"/>
            </g>
            <g transform="matrix(40.123,0,0,40.123,998.289,390.643)">
                <path d="M0.445,-0L0.406,-0C0.397,-0 0.39,-0.001 0.385,-0.004C0.379,-0.007 0.376,-0.012 0.374,-0.021L0.364,-0.068C0.351,-0.056 0.338,-0.045 0.325,-0.036C0.312,-0.026 0.299,-0.018 0.285,-0.012C0.271,-0.005 0.256,-0 0.24,0.003C0.224,0.006 0.207,0.008 0.188,0.008C0.168,0.008 0.149,0.005 0.132,-0C0.115,-0.006 0.1,-0.014 0.088,-0.025C0.075,-0.036 0.065,-0.05 0.057,-0.067C0.05,-0.084 0.046,-0.103 0.046,-0.127C0.046,-0.147 0.051,-0.166 0.063,-0.184C0.074,-0.203 0.091,-0.219 0.116,-0.234C0.14,-0.248 0.172,-0.26 0.212,-0.269C0.252,-0.278 0.3,-0.283 0.358,-0.285L0.358,-0.324C0.358,-0.363 0.349,-0.393 0.332,-0.413C0.315,-0.433 0.291,-0.444 0.258,-0.444C0.236,-0.444 0.218,-0.441 0.203,-0.435C0.188,-0.43 0.175,-0.424 0.164,-0.417C0.153,-0.41 0.144,-0.404 0.136,-0.398C0.128,-0.393 0.121,-0.39 0.113,-0.39C0.107,-0.39 0.102,-0.392 0.097,-0.395C0.093,-0.398 0.089,-0.402 0.087,-0.407L0.071,-0.435C0.098,-0.462 0.129,-0.482 0.161,-0.496C0.193,-0.509 0.229,-0.516 0.269,-0.516C0.297,-0.516 0.322,-0.511 0.344,-0.502C0.366,-0.492 0.385,-0.479 0.4,-0.463C0.415,-0.446 0.426,-0.426 0.434,-0.402C0.441,-0.378 0.445,-0.352 0.445,-0.324L0.445,-0ZM0.214,-0.055C0.23,-0.055 0.244,-0.056 0.257,-0.059C0.27,-0.062 0.282,-0.067 0.294,-0.073C0.305,-0.079 0.316,-0.086 0.327,-0.094C0.337,-0.102 0.347,-0.112 0.358,-0.123L0.358,-0.228C0.317,-0.227 0.282,-0.223 0.253,-0.218C0.224,-0.213 0.201,-0.206 0.183,-0.198C0.165,-0.19 0.152,-0.18 0.144,-0.169C0.136,-0.157 0.132,-0.145 0.132,-0.131C0.132,-0.117 0.134,-0.106 0.138,-0.096C0.142,-0.086 0.148,-0.078 0.156,-0.072C0.163,-0.066 0.171,-0.062 0.182,-0.059C0.192,-0.056 0.202,-0.055 0.214,-0.055Z" style="fill-rule:nonzero;"/>
            </g>
            <g transform="matrix(40.123,0,0,40.123,1018.63,390.643)">
                <rect x="0.083" y="-0.737" width="0.089" height="0.737" style="fill-rule:nonzero;"/>
            </g>
            <g transform="matrix(40.123,0,0,40.123,1028.9,390.643)">
                <path d="M0.15,-0.507L0.15,-0.184C0.15,-0.145 0.159,-0.116 0.177,-0.095C0.194,-0.074 0.221,-0.063 0.257,-0.063C0.282,-0.063 0.307,-0.069 0.33,-0.082C0.353,-0.094 0.374,-0.111 0.394,-0.133L0.394,-0.507L0.483,-0.507L0.483,-0L0.43,-0C0.417,-0 0.409,-0.006 0.406,-0.019L0.399,-0.073C0.377,-0.049 0.352,-0.029 0.325,-0.014C0.297,0.001 0.266,0.008 0.231,0.008C0.203,0.008 0.178,0.003 0.157,-0.006C0.136,-0.015 0.118,-0.028 0.104,-0.045C0.09,-0.061 0.079,-0.081 0.072,-0.105C0.065,-0.129 0.061,-0.155 0.061,-0.184L0.061,-0.507L0.15,-0.507Z" style="fill-rule:nonzero;"/>
            </g>
            <g transform="matrix(40.123,0,0,40.123,1051.21,390.643)">
                <path d="M0.274,-0.515C0.304,-0.515 0.332,-0.509 0.358,-0.499C0.383,-0.489 0.405,-0.474 0.424,-0.455C0.443,-0.436 0.457,-0.412 0.468,-0.384C0.478,-0.356 0.484,-0.324 0.484,-0.288C0.484,-0.274 0.482,-0.265 0.479,-0.26C0.476,-0.255 0.47,-0.253 0.462,-0.253L0.125,-0.253C0.126,-0.221 0.13,-0.193 0.138,-0.17C0.146,-0.146 0.157,-0.126 0.171,-0.11C0.185,-0.094 0.202,-0.083 0.221,-0.075C0.24,-0.067 0.262,-0.063 0.286,-0.063C0.308,-0.063 0.328,-0.066 0.344,-0.071C0.36,-0.076 0.374,-0.082 0.386,-0.088C0.397,-0.094 0.407,-0.099 0.415,-0.104C0.423,-0.109 0.429,-0.112 0.435,-0.112C0.442,-0.112 0.448,-0.109 0.452,-0.104L0.477,-0.071C0.466,-0.058 0.453,-0.046 0.438,-0.036C0.422,-0.026 0.406,-0.018 0.388,-0.012C0.371,-0.006 0.353,-0.001 0.334,0.002C0.315,0.005 0.297,0.007 0.279,0.007C0.244,0.007 0.211,0.001 0.182,-0.011C0.152,-0.023 0.127,-0.04 0.105,-0.063C0.084,-0.086 0.067,-0.114 0.055,-0.148C0.043,-0.181 0.037,-0.22 0.037,-0.264C0.037,-0.299 0.042,-0.332 0.053,-0.363C0.064,-0.393 0.08,-0.42 0.1,-0.442C0.12,-0.465 0.145,-0.482 0.175,-0.495C0.204,-0.508 0.237,-0.515 0.274,-0.515ZM0.276,-0.449C0.233,-0.449 0.199,-0.437 0.174,-0.412C0.149,-0.387 0.134,-0.353 0.128,-0.309L0.404,-0.309C0.404,-0.329 0.401,-0.348 0.395,-0.365C0.389,-0.382 0.381,-0.397 0.37,-0.41C0.359,-0.422 0.346,-0.432 0.33,-0.439C0.314,-0.446 0.296,-0.449 0.276,-0.449Z" style="fill-rule:nonzero;"/>
            </g>
            <g transform="matrix(40.123,0,0,40.123,1079.98,390.643)">
                <path d="M0.529,-0.717L0.529,-0.638L0.185,-0.638L0.185,-0.4L0.463,-0.4L0.463,-0.324L0.185,-0.324L0.185,-0.079L0.529,-0.079L0.529,-0L0.087,-0L0.087,-0.717L0.529,-0.717Z" style="fill-rule:nonzero;"/>
            </g>
            <g transform="matrix(40.123,0,0,40.123,1103.29,390.643)">
                <path d="M0.009,-0.507L0.082,-0.507C0.089,-0.507 0.095,-0.505 0.1,-0.501C0.104,-0.497 0.108,-0.493 0.11,-0.488L0.238,-0.162C0.243,-0.15 0.246,-0.138 0.249,-0.126C0.252,-0.114 0.254,-0.102 0.257,-0.091C0.259,-0.102 0.262,-0.114 0.265,-0.126C0.268,-0.138 0.272,-0.15 0.277,-0.162L0.407,-0.488C0.409,-0.493 0.412,-0.498 0.416,-0.501C0.421,-0.505 0.426,-0.507 0.433,-0.507L0.503,-0.507L0.296,-0L0.216,-0L0.009,-0.507Z" style="fill-rule:nonzero;"/>
            </g>
            <g transform="matrix(40.123,0,0,40.123,1123.31,390.643)">
                <path d="M0.274,-0.515C0.304,-0.515 0.332,-0.509 0.358,-0.499C0.383,-0.489 0.405,-0.474 0.424,-0.455C0.443,-0.436 0.457,-0.412 0.468,-0.384C0.478,-0.356 0.484,-0.324 0.484,-0.288C0.484,-0.274 0.482,-0.265 0.479,-0.26C0.476,-0.255 0.47,-0.253 0.462,-0.253L0.125,-0.253C0.126,-0.221 0.13,-0.193 0.138,-0.17C0.146,-0.146 0.157,-0.126 0.171,-0.11C0.185,-0.094 0.202,-0.083 0.221,-0.075C0.24,-0.067 0.262,-0.063 0.286,-0.063C0.308,-0.063 0.328,-0.066 0.344,-0.071C0.36,-0.076 0.374,-0.082 0.386,-0.088C0.397,-0.094 0.407,-0.099 0.415,-0.104C0.423,-0.109 0.429,-0.112 0.435,-0.112C0.442,-0.112 0.448,-0.109 0.452,-0.104L0.477,-0.071C0.466,-0.058 0.453,-0.046 0.438,-0.036C0.422,-0.026 0.406,-0.018 0.388,-0.012C0.371,-0.006 0.353,-0.001 0.334,0.002C0.315,0.005 0.297,0.007 0.279,0.007C0.244,0.007 0.211,0.001 0.182,-0.011C0.152,-0.023 0.127,-0.04 0.105,-0.063C0.084,-0.086 0.067,-0.114 0.055,-0.148C0.043,-0.181 0.037,-0.22 0.037,-0.264C0.037,-0.299 0.042,-0.332 0.053,-0.363C0.064,-0.393 0.08,-0.42 0.1,-0.442C0.12,-0.465 0.145,-0.482 0.175,-0.495C0.204,-0.508 0.237,-0.515 0.274,-0.515ZM0.276,-0.449C0.233,-0.449 0.199,-0.437 0.174,-0.412C0.149,-0.387 0.134,-0.353 0.128,-0.309L0.404,-0.309C0.404,-0.329 0.401,-0.348 0.395,-0.365C0.389,-0.382 0.381,-0.397 0.37,-0.41C0.359,-0.422 0.346,-0.432 0.33,-0.439C0.314,-0.446 0.296,-0.449 0.276,-0.449Z" style="fill-rule:nonzero;"/>
            </g>
            <g transform="matrix(40.123,0,0,40.123,1144.34,390.643)">
                <path d="M0.073,-0L0.073,-0.507L0.126,-0.507C0.139,-0.507 0.147,-0.5 0.15,-0.488L0.157,-0.433C0.179,-0.457 0.204,-0.477 0.231,-0.492C0.258,-0.507 0.289,-0.515 0.325,-0.515C0.353,-0.515 0.377,-0.51 0.398,-0.501C0.419,-0.492 0.437,-0.479 0.451,-0.462C0.465,-0.445 0.476,-0.425 0.484,-0.401C0.491,-0.377 0.495,-0.351 0.495,-0.323L0.495,-0L0.406,-0L0.406,-0.323C0.406,-0.361 0.397,-0.391 0.379,-0.412C0.362,-0.433 0.335,-0.444 0.299,-0.444C0.273,-0.444 0.248,-0.437 0.225,-0.425C0.202,-0.412 0.181,-0.395 0.162,-0.373L0.162,-0L0.073,-0Z" style="fill-rule:nonzero;"/>
            </g>
            <g transform="matrix(40.123,0,0,40.123,1166.64,390.643)">
                <path d="M0.227,0.008C0.187,0.008 0.156,-0.003 0.134,-0.026C0.113,-0.048 0.102,-0.08 0.102,-0.122L0.102,-0.432L0.041,-0.432C0.036,-0.432 0.031,-0.434 0.028,-0.437C0.024,-0.44 0.022,-0.445 0.022,-0.452L0.022,-0.487L0.105,-0.498L0.126,-0.654C0.126,-0.659 0.128,-0.663 0.132,-0.666C0.136,-0.669 0.14,-0.671 0.146,-0.671L0.191,-0.671L0.191,-0.497L0.336,-0.497L0.336,-0.432L0.191,-0.432L0.191,-0.128C0.191,-0.107 0.196,-0.091 0.207,-0.081C0.217,-0.07 0.23,-0.065 0.247,-0.065C0.256,-0.065 0.264,-0.066 0.271,-0.069C0.278,-0.071 0.284,-0.074 0.289,-0.077C0.294,-0.08 0.298,-0.083 0.301,-0.085C0.305,-0.088 0.308,-0.089 0.311,-0.089C0.315,-0.089 0.319,-0.086 0.323,-0.081L0.349,-0.038C0.334,-0.024 0.315,-0.012 0.294,-0.004C0.272,0.004 0.25,0.008 0.227,0.008Z" style="fill-rule:nonzero;"/>
            </g>
            <g transform="matrix(40.123,0,0,40.123,1181.61,390.643)">
                <path d="M0.363,-0.423C0.359,-0.416 0.353,-0.412 0.345,-0.412C0.339,-0.412 0.334,-0.414 0.328,-0.418C0.321,-0.421 0.313,-0.425 0.304,-0.43C0.295,-0.434 0.284,-0.438 0.272,-0.442C0.259,-0.446 0.244,-0.448 0.227,-0.448C0.212,-0.448 0.198,-0.446 0.186,-0.442C0.174,-0.438 0.164,-0.433 0.155,-0.427C0.147,-0.42 0.14,-0.412 0.136,-0.403C0.131,-0.394 0.129,-0.385 0.129,-0.375C0.129,-0.362 0.133,-0.351 0.14,-0.342C0.148,-0.333 0.158,-0.326 0.17,-0.32C0.182,-0.313 0.196,-0.308 0.212,-0.303C0.228,-0.298 0.244,-0.293 0.26,-0.287C0.277,-0.282 0.293,-0.276 0.309,-0.269C0.324,-0.262 0.338,-0.254 0.351,-0.244C0.363,-0.234 0.373,-0.222 0.38,-0.207C0.388,-0.193 0.392,-0.175 0.392,-0.155C0.392,-0.132 0.387,-0.11 0.379,-0.09C0.371,-0.07 0.358,-0.053 0.342,-0.039C0.326,-0.024 0.306,-0.013 0.282,-0.005C0.258,0.004 0.231,0.008 0.2,0.008C0.165,0.008 0.133,0.002 0.104,-0.009C0.075,-0.021 0.051,-0.035 0.031,-0.054L0.052,-0.088C0.055,-0.092 0.058,-0.095 0.062,-0.098C0.065,-0.1 0.07,-0.101 0.076,-0.101C0.082,-0.101 0.088,-0.099 0.095,-0.094C0.102,-0.089 0.11,-0.084 0.119,-0.079C0.129,-0.073 0.14,-0.068 0.154,-0.063C0.167,-0.058 0.184,-0.056 0.205,-0.056C0.222,-0.056 0.237,-0.058 0.25,-0.063C0.263,-0.067 0.274,-0.073 0.283,-0.081C0.291,-0.089 0.298,-0.097 0.302,-0.108C0.306,-0.117 0.308,-0.128 0.308,-0.14C0.308,-0.154 0.304,-0.165 0.297,-0.174C0.289,-0.183 0.279,-0.191 0.267,-0.198C0.255,-0.204 0.241,-0.21 0.225,-0.215C0.209,-0.22 0.193,-0.225 0.176,-0.23C0.16,-0.235 0.144,-0.241 0.128,-0.248C0.112,-0.255 0.098,-0.264 0.086,-0.274C0.073,-0.284 0.063,-0.297 0.056,-0.312C0.048,-0.327 0.045,-0.346 0.045,-0.368C0.045,-0.387 0.048,-0.405 0.057,-0.423C0.065,-0.441 0.076,-0.457 0.092,-0.47C0.107,-0.484 0.126,-0.495 0.148,-0.503C0.17,-0.51 0.196,-0.515 0.225,-0.515C0.258,-0.515 0.288,-0.509 0.314,-0.499C0.341,-0.488 0.364,-0.474 0.383,-0.456L0.363,-0.423Z" style="fill-rule:nonzero;"/>
            </g>
        </g>
        <g transform="matrix(1,0,0,1,-419.924,81.5262)">
            <g transform="matrix(40.123,0,0,40.123,973.332,390.643)">
                <path d="M0.454,-0.605C0.451,-0.6 0.448,-0.596 0.445,-0.593C0.441,-0.591 0.437,-0.59 0.432,-0.59C0.426,-0.59 0.419,-0.592 0.412,-0.598C0.404,-0.604 0.395,-0.61 0.383,-0.617C0.372,-0.624 0.358,-0.63 0.342,-0.636C0.326,-0.641 0.306,-0.644 0.283,-0.644C0.261,-0.644 0.242,-0.641 0.226,-0.635C0.209,-0.629 0.195,-0.622 0.184,-0.612C0.173,-0.602 0.164,-0.59 0.159,-0.576C0.153,-0.563 0.15,-0.548 0.15,-0.533C0.15,-0.513 0.155,-0.496 0.165,-0.483C0.175,-0.47 0.188,-0.458 0.204,-0.449C0.22,-0.44 0.238,-0.432 0.259,-0.425C0.279,-0.418 0.3,-0.411 0.322,-0.404C0.343,-0.396 0.364,-0.388 0.385,-0.379C0.405,-0.37 0.424,-0.358 0.44,-0.344C0.456,-0.33 0.469,-0.313 0.479,-0.293C0.489,-0.272 0.494,-0.247 0.494,-0.218C0.494,-0.186 0.488,-0.157 0.478,-0.129C0.467,-0.102 0.451,-0.078 0.431,-0.058C0.41,-0.037 0.385,-0.021 0.355,-0.01C0.325,0.002 0.292,0.008 0.254,0.008C0.207,0.008 0.165,-0 0.127,-0.017C0.089,-0.034 0.056,-0.057 0.029,-0.086L0.057,-0.132C0.06,-0.135 0.063,-0.138 0.067,-0.141C0.071,-0.143 0.075,-0.145 0.08,-0.145C0.087,-0.145 0.094,-0.141 0.104,-0.133C0.113,-0.126 0.124,-0.117 0.137,-0.109C0.151,-0.099 0.167,-0.091 0.186,-0.084C0.205,-0.076 0.229,-0.073 0.257,-0.073C0.28,-0.073 0.3,-0.076 0.318,-0.082C0.336,-0.088 0.351,-0.097 0.364,-0.109C0.376,-0.12 0.386,-0.134 0.393,-0.15C0.399,-0.166 0.403,-0.184 0.403,-0.204C0.403,-0.225 0.398,-0.243 0.388,-0.257C0.378,-0.271 0.365,-0.282 0.349,-0.292C0.333,-0.301 0.315,-0.309 0.294,-0.315C0.274,-0.322 0.253,-0.328 0.231,-0.335C0.21,-0.342 0.189,-0.35 0.168,-0.359C0.148,-0.368 0.13,-0.38 0.114,-0.394C0.097,-0.408 0.085,-0.426 0.075,-0.448C0.065,-0.469 0.06,-0.496 0.06,-0.528C0.06,-0.553 0.065,-0.577 0.075,-0.601C0.085,-0.625 0.099,-0.646 0.118,-0.664C0.136,-0.682 0.159,-0.697 0.187,-0.708C0.214,-0.719 0.246,-0.725 0.282,-0.725C0.322,-0.725 0.358,-0.718 0.391,-0.706C0.424,-0.693 0.453,-0.675 0.478,-0.651L0.454,-0.605Z" style="fill-rule:nonzero;"/>
            </g>
            <g transform="matrix(40.123,0,0,40.123,994.597,390.643)">
                <path d="M0.222,0.15C0.219,0.156 0.215,0.162 0.21,0.166C0.206,0.17 0.199,0.172 0.19,0.172L0.124,0.172L0.216,-0.03L0.007,-0.507L0.084,-0.507C0.092,-0.507 0.098,-0.505 0.102,-0.501C0.106,-0.497 0.11,-0.493 0.112,-0.488L0.247,-0.169C0.25,-0.162 0.253,-0.154 0.255,-0.147C0.257,-0.14 0.259,-0.132 0.261,-0.125C0.263,-0.132 0.265,-0.14 0.268,-0.147C0.27,-0.154 0.273,-0.162 0.276,-0.17L0.407,-0.488C0.409,-0.493 0.412,-0.498 0.417,-0.501C0.422,-0.505 0.427,-0.507 0.433,-0.507L0.504,-0.507L0.222,0.15Z" style="fill-rule:nonzero;"/>
            </g>
            <g transform="matrix(40.123,0,0,40.123,1015.14,390.643)">
                <path d="M0.073,-0L0.073,-0.507L0.126,-0.507C0.139,-0.507 0.147,-0.5 0.15,-0.488L0.157,-0.433C0.179,-0.457 0.204,-0.477 0.231,-0.492C0.258,-0.507 0.289,-0.515 0.325,-0.515C0.353,-0.515 0.377,-0.51 0.398,-0.501C0.419,-0.492 0.437,-0.479 0.451,-0.462C0.465,-0.445 0.476,-0.425 0.484,-0.401C0.491,-0.377 0.495,-0.351 0.495,-0.323L0.495,-0L0.406,-0L0.406,-0.323C0.406,-0.361 0.397,-0.391 0.379,-0.412C0.362,-0.433 0.335,-0.444 0.299,-0.444C0.273,-0.444 0.248,-0.437 0.225,-0.425C0.202,-0.412 0.181,-0.395 0.162,-0.373L0.162,-0L0.073,-0Z" style="fill-rule:nonzero;"/>
            </g>
            <g transform="matrix(40.123,0,0,40.123,1037.45,390.643)">
                <path d="M0.419,-0.417C0.416,-0.413 0.413,-0.41 0.411,-0.408C0.408,-0.406 0.404,-0.405 0.399,-0.405C0.394,-0.405 0.389,-0.407 0.383,-0.411C0.377,-0.415 0.37,-0.42 0.361,-0.425C0.352,-0.43 0.341,-0.435 0.328,-0.439C0.315,-0.443 0.299,-0.445 0.281,-0.445C0.256,-0.445 0.234,-0.441 0.215,-0.432C0.196,-0.423 0.18,-0.41 0.167,-0.394C0.154,-0.377 0.145,-0.357 0.138,-0.333C0.132,-0.309 0.129,-0.283 0.129,-0.254C0.129,-0.223 0.132,-0.196 0.139,-0.172C0.146,-0.148 0.156,-0.128 0.169,-0.112C0.181,-0.096 0.197,-0.083 0.215,-0.075C0.233,-0.066 0.253,-0.062 0.276,-0.062C0.298,-0.062 0.316,-0.065 0.33,-0.07C0.343,-0.075 0.355,-0.081 0.365,-0.087C0.374,-0.093 0.382,-0.099 0.388,-0.104C0.394,-0.109 0.4,-0.112 0.406,-0.112C0.413,-0.112 0.419,-0.109 0.423,-0.104L0.448,-0.071C0.426,-0.044 0.398,-0.024 0.365,-0.012C0.332,0.001 0.297,0.007 0.261,0.007C0.229,0.007 0.199,0.001 0.172,-0.011C0.145,-0.022 0.122,-0.039 0.102,-0.061C0.082,-0.083 0.066,-0.111 0.054,-0.143C0.043,-0.175 0.037,-0.212 0.037,-0.254C0.037,-0.291 0.042,-0.326 0.053,-0.358C0.063,-0.39 0.079,-0.418 0.099,-0.441C0.119,-0.464 0.144,-0.482 0.174,-0.495C0.203,-0.508 0.237,-0.515 0.276,-0.515C0.311,-0.515 0.342,-0.509 0.37,-0.497C0.397,-0.486 0.421,-0.47 0.442,-0.449L0.419,-0.417Z" style="fill-rule:nonzero;"/>
            </g>
            <g transform="matrix(40.123,0,0,40.123,1056.19,390.643)">
                <path d="M0.073,-0L0.073,-0.737L0.162,-0.737L0.162,-0.439C0.184,-0.462 0.208,-0.48 0.234,-0.494C0.26,-0.508 0.291,-0.515 0.325,-0.515C0.353,-0.515 0.377,-0.51 0.398,-0.501C0.419,-0.492 0.437,-0.479 0.451,-0.462C0.465,-0.445 0.476,-0.425 0.484,-0.401C0.491,-0.377 0.495,-0.351 0.495,-0.323L0.495,-0L0.406,-0L0.406,-0.323C0.406,-0.361 0.397,-0.391 0.379,-0.412C0.362,-0.433 0.335,-0.444 0.299,-0.444C0.273,-0.444 0.248,-0.437 0.225,-0.425C0.202,-0.412 0.181,-0.395 0.162,-0.373L0.162,-0L0.073,-0Z" style="fill-rule:nonzero;"/>
            </g>
            <g transform="matrix(40.123,0,0,40.123,1078.49,390.643)">
                <path d="M0.073,-0L0.073,-0.507L0.124,-0.507C0.134,-0.507 0.14,-0.505 0.144,-0.501C0.148,-0.497 0.15,-0.491 0.152,-0.482L0.158,-0.403C0.175,-0.438 0.196,-0.466 0.222,-0.486C0.247,-0.506 0.277,-0.516 0.312,-0.516C0.326,-0.516 0.338,-0.514 0.35,-0.511C0.361,-0.508 0.371,-0.503 0.381,-0.498L0.37,-0.431C0.367,-0.423 0.362,-0.419 0.354,-0.419C0.349,-0.419 0.342,-0.42 0.333,-0.423C0.323,-0.426 0.309,-0.428 0.292,-0.428C0.261,-0.428 0.235,-0.419 0.214,-0.401C0.193,-0.383 0.176,-0.357 0.162,-0.323L0.162,-0L0.073,-0Z" style="fill-rule:nonzero;"/>
            </g>
            <g transform="matrix(40.123,0,0,40.123,1094.66,390.643)">
                <path d="M0.278,-0.515C0.315,-0.515 0.348,-0.508 0.378,-0.496C0.408,-0.484 0.433,-0.466 0.454,-0.444C0.475,-0.421 0.491,-0.393 0.502,-0.361C0.513,-0.329 0.519,-0.293 0.519,-0.254C0.519,-0.214 0.513,-0.178 0.502,-0.146C0.491,-0.114 0.475,-0.086 0.454,-0.064C0.433,-0.041 0.408,-0.023 0.378,-0.011C0.348,0.001 0.315,0.007 0.278,0.007C0.241,0.007 0.208,0.001 0.178,-0.011C0.148,-0.023 0.123,-0.041 0.102,-0.064C0.081,-0.086 0.064,-0.114 0.053,-0.146C0.042,-0.178 0.036,-0.214 0.036,-0.254C0.036,-0.293 0.042,-0.329 0.053,-0.361C0.064,-0.393 0.081,-0.421 0.102,-0.444C0.123,-0.466 0.148,-0.484 0.178,-0.496C0.208,-0.508 0.241,-0.515 0.278,-0.515ZM0.278,-0.063C0.328,-0.063 0.365,-0.079 0.39,-0.113C0.415,-0.146 0.427,-0.193 0.427,-0.253C0.427,-0.313 0.415,-0.36 0.39,-0.394C0.365,-0.428 0.328,-0.444 0.278,-0.445C0.253,-0.444 0.231,-0.44 0.212,-0.432C0.193,-0.423 0.178,-0.41 0.165,-0.394C0.153,-0.378 0.143,-0.358 0.137,-0.334C0.131,-0.31 0.128,-0.283 0.128,-0.253C0.128,-0.223 0.131,-0.196 0.137,-0.173C0.143,-0.149 0.153,-0.129 0.165,-0.113C0.178,-0.097 0.193,-0.084 0.212,-0.076C0.231,-0.067 0.253,-0.063 0.278,-0.063Z" style="fill-rule:nonzero;"/>
            </g>
            <g transform="matrix(40.123,0,0,40.123,1116.97,390.643)">
                <path d="M0.073,-0L0.073,-0.507L0.126,-0.507C0.139,-0.507 0.147,-0.5 0.15,-0.488L0.157,-0.433C0.179,-0.457 0.204,-0.477 0.231,-0.492C0.258,-0.507 0.289,-0.515 0.325,-0.515C0.353,-0.515 0.377,-0.51 0.398,-0.501C0.419,-0.492 0.437,-0.479 0.451,-0.462C0.465,-0.445 0.476,-0.425 0.484,-0.401C0.491,-0.377 0.495,-0.351 0.495,-0.323L0.495,-0L0.406,-0L0.406,-0.323C0.406,-0.361 0.397,-0.391 0.379,-0.412C0.362,-0.433 0.335,-0.444 0.299,-0.444C0.273,-0.444 0.248,-0.437 0.225,-0.425C0.202,-0.412 0.181,-0.395 0.162,-0.373L0.162,-0L0.073,-0Z" style="fill-rule:nonzero;"/>
            </g>
            <g transform="matrix(40.123,0,0,40.123,1139.28,390.643)">
                <path d="M0.278,-0.515C0.315,-0.515 0.348,-0.508 0.378,-0.496C0.408,-0.484 0.433,-0.466 0.454,-0.444C0.475,-0.421 0.491,-0.393 0.502,-0.361C0.513,-0.329 0.519,-0.293 0.519,-0.254C0.519,-0.214 0.513,-0.178 0.502,-0.146C0.491,-0.114 0.475,-0.086 0.454,-0.064C0.433,-0.041 0.408,-0.023 0.378,-0.011C0.348,0.001 0.315,0.007 0.278,0.007C0.241,0.007 0.208,0.001 0.178,-0.011C0.148,-0.023 0.123,-0.041 0.102,-0.064C0.081,-0.086 0.064,-0.114 0.053,-0.146C0.042,-0.178 0.036,-0.214 0.036,-0.254C0.036,-0.293 0.042,-0.329 0.053,-0.361C0.064,-0.393 0.081,-0.421 0.102,-0.444C0.123,-0.466 0.148,-0.484 0.178,-0.496C0.208,-0.508 0.241,-0.515 0.278,-0.515ZM0.278,-0.063C0.328,-0.063 0.365,-0.079 0.39,-0.113C0.415,-0.146 0.427,-0.193 0.427,-0.253C0.427,-0.313 0.415,-0.36 0.39,-0.394C0.365,-0.428 0.328,-0.444 0.278,-0.445C0.253,-0.444 0.231,-0.44 0.212,-0.432C0.193,-0.423 0.178,-0.41 0.165,-0.394C0.153,-0.378 0.143,-0.358 0.137,-0.334C0.131,-0.31 0.128,-0.283 0.128,-0.253C0.128,-0.223 0.131,-0.196 0.137,-0.173C0.143,-0.149 0.153,-0.129 0.165,-0.113C0.178,-0.097 0.193,-0.084 0.212,-0.076C0.231,-0.067 0.253,-0.063 0.278,-0.063Z" style="fill-rule:nonzero;"/>
            </g>
            <g transform="matrix(40.123,0,0,40.123,1161.59,390.643)">
                <path d="M0.15,-0.507L0.15,-0.184C0.15,-0.145 0.159,-0.116 0.177,-0.095C0.194,-0.074 0.221,-0.063 0.257,-0.063C0.282,-0.063 0.307,-0.069 0.33,-0.082C0.353,-0.094 0.374,-0.111 0.394,-0.133L0.394,-0.507L0.483,-0.507L0.483,-0L0.43,-0C0.417,-0 0.409,-0.006 0.406,-0.019L0.399,-0.073C0.377,-0.049 0.352,-0.029 0.325,-0.014C0.297,0.001 0.266,0.008 0.231,0.008C0.203,0.008 0.178,0.003 0.157,-0.006C0.136,-0.015 0.118,-0.028 0.104,-0.045C0.09,-0.061 0.079,-0.081 0.072,-0.105C0.065,-0.129 0.061,-0.155 0.061,-0.184L0.061,-0.507L0.15,-0.507Z" style="fill-rule:nonzero;"/>
            </g>
            <g transform="matrix(40.123,0,0,40.123,1183.9,390.643)">
                <path d="M0.363,-0.423C0.359,-0.416 0.353,-0.412 0.345,-0.412C0.339,-0.412 0.334,-0.414 0.328,-0.418C0.321,-0.421 0.313,-0.425 0.304,-0.43C0.295,-0.434 0.284,-0.438 0.272,-0.442C0.259,-0.446 0.244,-0.448 0.227,-0.448C0.212,-0.448 0.198,-0.446 0.186,-0.442C0.174,-0.438 0.164,-0.433 0.155,-0.427C0.147,-0.42 0.14,-0.412 0.136,-0.403C0.131,-0.394 0.129,-0.385 0.129,-0.375C0.129,-0.362 0.133,-0.351 0.14,-0.342C0.148,-0.333 0.158,-0.326 0.17,-0.32C0.182,-0.313 0.196,-0.308 0.212,-0.303C0.228,-0.298 0.244,-0.293 0.26,-0.287C0.277,-0.282 0.293,-0.276 0.309,-0.269C0.324,-0.262 0.338,-0.254 0.351,-0.244C0.363,-0.234 0.373,-0.222 0.38,-0.207C0.388,-0.193 0.392,-0.175 0.392,-0.155C0.392,-0.132 0.387,-0.11 0.379,-0.09C0.371,-0.07 0.358,-0.053 0.342,-0.039C0.326,-0.024 0.306,-0.013 0.282,-0.005C0.258,0.004 0.231,0.008 0.2,0.008C0.165,0.008 0.133,0.002 0.104,-0.009C0.075,-0.021 0.051,-0.035 0.031,-0.054L0.052,-0.088C0.055,-0.092 0.058,-0.095 0.062,-0.098C0.065,-0.1 0.07,-0.101 0.076,-0.101C0.082,-0.101 0.088,-0.099 0.095,-0.094C0.102,-0.089 0.11,-0.084 0.119,-0.079C0.129,-0.073 0.14,-0.068 0.154,-0.063C0.167,-0.058 0.184,-0.056 0.205,-0.056C0.222,-0.056 0.237,-0.058 0.25,-0.063C0.263,-0.067 0.274,-0.073 0.283,-0.081C0.291,-0.089 0.298,-0.097 0.302,-0.108C0.306,-0.117 0.308,-0.128 0.308,-0.14C0.308,-0.154 0.304,-0.165 0.297,-0.174C0.289,-0.183 0.279,-0.191 0.267,-0.198C0.255,-0.204 0.241,-0.21 0.225,-0.215C0.209,-0.22 0.193,-0.225 0.176,-0.23C0.16,-0.235 0.144,-0.241 0.128,-0.248C0.112,-0.255 0.098,-0.264 0.086,-0.274C0.073,-0.284 0.063,-0.297 0.056,-0.312C0.048,-0.327 0.045,-0.346 0.045,-0.368C0.045,-0.387 0.048,-0.405 0.057,-0.423C0.065,-0.441 0.076,-0.457 0.092,-0.47C0.107,-0.484 0.126,-0.495 0.148,-0.503C0.17,-0.51 0.196,-0.515 0.225,-0.515C0.258,-0.515 0.288,-0.509 0.314,-0.499C0.341,-0.488 0.364,-0.474 0.383,-0.456L0.363,-0.423Z" style="fill-rule:nonzero;"/>
            </g>
            <g transform="matrix(40.123,0,0,40.123,1209.05,390.643)">
                <path d="M0.592,-0.148C0.597,-0.148 0.602,-0.146 0.607,-0.142L0.645,-0.1C0.615,-0.066 0.58,-0.04 0.538,-0.021C0.496,-0.002 0.446,0.008 0.387,0.008C0.335,0.008 0.288,-0.001 0.246,-0.019C0.204,-0.037 0.168,-0.062 0.139,-0.094C0.109,-0.126 0.086,-0.165 0.07,-0.21C0.053,-0.255 0.045,-0.304 0.045,-0.358C0.045,-0.412 0.054,-0.462 0.071,-0.507C0.089,-0.552 0.113,-0.59 0.145,-0.623C0.177,-0.655 0.215,-0.68 0.259,-0.698C0.303,-0.716 0.352,-0.725 0.405,-0.725C0.458,-0.725 0.503,-0.716 0.541,-0.7C0.579,-0.684 0.613,-0.662 0.643,-0.634L0.612,-0.589C0.609,-0.586 0.607,-0.583 0.604,-0.581C0.6,-0.579 0.596,-0.578 0.591,-0.578C0.586,-0.578 0.582,-0.579 0.577,-0.582C0.572,-0.585 0.566,-0.589 0.56,-0.594C0.553,-0.599 0.545,-0.604 0.536,-0.609C0.527,-0.614 0.516,-0.619 0.504,-0.624C0.492,-0.629 0.477,-0.633 0.461,-0.636C0.445,-0.639 0.426,-0.641 0.405,-0.641C0.366,-0.641 0.331,-0.634 0.299,-0.621C0.267,-0.608 0.24,-0.589 0.217,-0.565C0.194,-0.54 0.176,-0.511 0.163,-0.476C0.15,-0.44 0.144,-0.401 0.144,-0.358C0.144,-0.313 0.15,-0.274 0.163,-0.239C0.176,-0.204 0.194,-0.174 0.216,-0.15C0.238,-0.126 0.264,-0.107 0.295,-0.095C0.325,-0.082 0.358,-0.076 0.393,-0.076C0.414,-0.076 0.433,-0.077 0.45,-0.079C0.467,-0.082 0.483,-0.086 0.497,-0.091C0.512,-0.096 0.525,-0.103 0.538,-0.111C0.55,-0.119 0.563,-0.129 0.576,-0.141C0.581,-0.146 0.587,-0.148 0.592,-0.148Z" style="fill-rule:nonzero;"/>
            </g>
            <g transform="matrix(40.123,0,0,40.123,1236.54,390.643)">
                <path d="M0.445,-0L0.406,-0C0.397,-0 0.39,-0.001 0.385,-0.004C0.379,-0.007 0.376,-0.012 0.374,-0.021L0.364,-0.068C0.351,-0.056 0.338,-0.045 0.325,-0.036C0.312,-0.026 0.299,-0.018 0.285,-0.012C0.271,-0.005 0.256,-0 0.24,0.003C0.224,0.006 0.207,0.008 0.188,0.008C0.168,0.008 0.149,0.005 0.132,-0C0.115,-0.006 0.1,-0.014 0.088,-0.025C0.075,-0.036 0.065,-0.05 0.057,-0.067C0.05,-0.084 0.046,-0.103 0.046,-0.127C0.046,-0.147 0.051,-0.166 0.063,-0.184C0.074,-0.203 0.091,-0.219 0.116,-0.234C0.14,-0.248 0.172,-0.26 0.212,-0.269C0.252,-0.278 0.3,-0.283 0.358,-0.285L0.358,-0.324C0.358,-0.363 0.349,-0.393 0.332,-0.413C0.315,-0.433 0.291,-0.444 0.258,-0.444C0.236,-0.444 0.218,-0.441 0.203,-0.435C0.188,-0.43 0.175,-0.424 0.164,-0.417C0.153,-0.41 0.144,-0.404 0.136,-0.398C0.128,-0.393 0.121,-0.39 0.113,-0.39C0.107,-0.39 0.102,-0.392 0.097,-0.395C0.093,-0.398 0.089,-0.402 0.087,-0.407L0.071,-0.435C0.098,-0.462 0.129,-0.482 0.161,-0.496C0.193,-0.509 0.229,-0.516 0.269,-0.516C0.297,-0.516 0.322,-0.511 0.344,-0.502C0.366,-0.492 0.385,-0.479 0.4,-0.463C0.415,-0.446 0.426,-0.426 0.434,-0.402C0.441,-0.378 0.445,-0.352 0.445,-0.324L0.445,-0ZM0.214,-0.055C0.23,-0.055 0.244,-0.056 0.257,-0.059C0.27,-0.062 0.282,-0.067 0.294,-0.073C0.305,-0.079 0.316,-0.086 0.327,-0.094C0.337,-0.102 0.347,-0.112 0.358,-0.123L0.358,-0.228C0.317,-0.227 0.282,-0.223 0.253,-0.218C0.224,-0.213 0.201,-0.206 0.183,-0.198C0.165,-0.19 0.152,-0.18 0.144,-0.169C0.136,-0.157 0.132,-0.145 0.132,-0.131C0.132,-0.117 0.134,-0.106 0.138,-0.096C0.142,-0.086 0.148,-0.078 0.156,-0.072C0.163,-0.066 0.171,-0.062 0.182,-0.059C0.192,-0.056 0.202,-0.055 0.214,-0.055Z" style="fill-rule:nonzero;"/>
            </g>
            <g transform="matrix(40.123,0,0,40.123,1256.88,390.643)">
                <rect x="0.083" y="-0.737" width="0.089" height="0.737" style="fill-rule:nonzero;"/>
            </g>
            <g transform="matrix(40.123,0,0,40.123,1267.15,390.643)">
                <rect x="0.083" y="-0.737" width="0.089" height="0.737" style="fill-rule:nonzero;"/>
            </g>
            <g transform="matrix(40.123,0,0,40.123,1277.42,390.643)">
                <path d="M0.076,-0L0.076,-0.737L0.166,-0.737L0.166,-0.434C0.187,-0.458 0.211,-0.477 0.238,-0.492C0.265,-0.507 0.296,-0.515 0.331,-0.515C0.36,-0.515 0.387,-0.509 0.411,-0.498C0.434,-0.487 0.454,-0.471 0.471,-0.449C0.488,-0.427 0.501,-0.4 0.51,-0.368C0.519,-0.336 0.523,-0.299 0.523,-0.257C0.523,-0.219 0.518,-0.184 0.508,-0.152C0.498,-0.12 0.484,-0.092 0.465,-0.069C0.446,-0.045 0.423,-0.027 0.396,-0.013C0.369,0 0.338,0.007 0.304,0.007C0.271,0.007 0.244,0.001 0.221,-0.012C0.198,-0.025 0.178,-0.042 0.161,-0.065L0.157,-0.019C0.154,-0.006 0.146,-0 0.134,-0L0.076,-0ZM0.302,-0.444C0.273,-0.444 0.248,-0.437 0.226,-0.424C0.204,-0.41 0.184,-0.391 0.166,-0.367L0.166,-0.122C0.182,-0.1 0.199,-0.085 0.219,-0.076C0.238,-0.067 0.26,-0.062 0.284,-0.062C0.331,-0.062 0.368,-0.079 0.393,-0.113C0.418,-0.146 0.431,-0.194 0.431,-0.257C0.431,-0.29 0.428,-0.318 0.422,-0.342C0.416,-0.365 0.408,-0.385 0.397,-0.4C0.386,-0.415 0.373,-0.426 0.357,-0.433C0.341,-0.44 0.322,-0.444 0.302,-0.444Z" style="fill-rule:nonzero;"/>
            </g>
            <g transform="matrix(40.123,0,0,40.123,1299.85,390.643)">
                <path d="M0.445,-0L0.406,-0C0.397,-0 0.39,-0.001 0.385,-0.004C0.379,-0.007 0.376,-0.012 0.374,-0.021L0.364,-0.068C0.351,-0.056 0.338,-0.045 0.325,-0.036C0.312,-0.026 0.299,-0.018 0.285,-0.012C0.271,-0.005 0.256,-0 0.24,0.003C0.224,0.006 0.207,0.008 0.188,0.008C0.168,0.008 0.149,0.005 0.132,-0C0.115,-0.006 0.1,-0.014 0.088,-0.025C0.075,-0.036 0.065,-0.05 0.057,-0.067C0.05,-0.084 0.046,-0.103 0.046,-0.127C0.046,-0.147 0.051,-0.166 0.063,-0.184C0.074,-0.203 0.091,-0.219 0.116,-0.234C0.14,-0.248 0.172,-0.26 0.212,-0.269C0.252,-0.278 0.3,-0.283 0.358,-0.285L0.358,-0.324C0.358,-0.363 0.349,-0.393 0.332,-0.413C0.315,-0.433 0.291,-0.444 0.258,-0.444C0.236,-0.444 0.218,-0.441 0.203,-0.435C0.188,-0.43 0.175,-0.424 0.164,-0.417C0.153,-0.41 0.144,-0.404 0.136,-0.398C0.128,-0.393 0.121,-0.39 0.113,-0.39C0.107,-0.39 0.102,-0.392 0.097,-0.395C0.093,-0.398 0.089,-0.402 0.087,-0.407L0.071,-0.435C0.098,-0.462 0.129,-0.482 0.161,-0.496C0.193,-0.509 0.229,-0.516 0.269,-0.516C0.297,-0.516 0.322,-0.511 0.344,-0.502C0.366,-0.492 0.385,-0.479 0.4,-0.463C0.415,-0.446 0.426,-0.426 0.434,-0.402C0.441,-0.378 0.445,-0.352 0.445,-0.324L0.445,-0ZM0.214,-0.055C0.23,-0.055 0.244,-0.056 0.257,-0.059C0.27,-0.062 0.282,-0.067 0.294,-0.073C0.305,-0.079 0.316,-0.086 0.327,-0.094C0.337,-0.102 0.347,-0.112 0.358,-0.123L0.358,-0.228C0.317,-0.227 0.282,-0.223 0.253,-0.218C0.224,-0.213 0.201,-0.206 0.183,-0.198C0.165,-0.19 0.152,-0.18 0.144,-0.169C0.136,-0.157 0.132,-0.145 0.132,-0.131C0.132,-0.117 0.134,-0.106 0.138,-0.096C0.142,-0.086 0.148,-0.078 0.156,-0.072C0.163,-0.066 0.171,-0.062 0.182,-0.059C0.192,-0.056 0.202,-0.055 0.214,-0.055Z" style="fill-rule:nonzero;"/>
            </g>
            <g transform="matrix(40.123,0,0,40.123,1320.2,390.643)">
                <path d="M0.419,-0.417C0.416,-0.413 0.413,-0.41 0.411,-0.408C0.408,-0.406 0.404,-0.405 0.399,-0.405C0.394,-0.405 0.389,-0.407 0.383,-0.411C0.377,-0.415 0.37,-0.42 0.361,-0.425C0.352,-0.43 0.341,-0.435 0.328,-0.439C0.315,-0.443 0.299,-0.445 0.281,-0.445C0.256,-0.445 0.234,-0.441 0.215,-0.432C0.196,-0.423 0.18,-0.41 0.167,-0.394C0.154,-0.377 0.145,-0.357 0.138,-0.333C0.132,-0.309 0.129,-0.283 0.129,-0.254C0.129,-0.223 0.132,-0.196 0.139,-0.172C0.146,-0.148 0.156,-0.128 0.169,-0.112C0.181,-0.096 0.197,-0.083 0.215,-0.075C0.233,-0.066 0.253,-0.062 0.276,-0.062C0.298,-0.062 0.316,-0.065 0.33,-0.07C0.343,-0.075 0.355,-0.081 0.365,-0.087C0.374,-0.093 0.382,-0.099 0.388,-0.104C0.394,-0.109 0.4,-0.112 0.406,-0.112C0.413,-0.112 0.419,-0.109 0.423,-0.104L0.448,-0.071C0.426,-0.044 0.398,-0.024 0.365,-0.012C0.332,0.001 0.297,0.007 0.261,0.007C0.229,0.007 0.199,0.001 0.172,-0.011C0.145,-0.022 0.122,-0.039 0.102,-0.061C0.082,-0.083 0.066,-0.111 0.054,-0.143C0.043,-0.175 0.037,-0.212 0.037,-0.254C0.037,-0.291 0.042,-0.326 0.053,-0.358C0.063,-0.39 0.079,-0.418 0.099,-0.441C0.119,-0.464 0.144,-0.482 0.174,-0.495C0.203,-0.508 0.237,-0.515 0.276,-0.515C0.311,-0.515 0.342,-0.509 0.37,-0.497C0.397,-0.486 0.421,-0.47 0.442,-0.449L0.419,-0.417Z" style="fill-rule:nonzero;"/>
            </g>
            <g transform="matrix(40.123,0,0,40.123,1338.93,390.643)">
                <path d="M0.166,-0.737L0.166,-0.303L0.189,-0.303C0.195,-0.303 0.201,-0.304 0.205,-0.306C0.209,-0.308 0.214,-0.311 0.22,-0.317L0.38,-0.489C0.385,-0.494 0.39,-0.498 0.395,-0.502C0.4,-0.505 0.406,-0.507 0.415,-0.507L0.496,-0.507L0.309,-0.308C0.304,-0.302 0.3,-0.297 0.295,-0.293C0.291,-0.289 0.286,-0.285 0.28,-0.282C0.286,-0.278 0.291,-0.273 0.296,-0.268C0.301,-0.263 0.306,-0.257 0.31,-0.25L0.508,-0L0.428,-0C0.421,-0 0.414,-0.001 0.409,-0.004C0.404,-0.007 0.399,-0.012 0.395,-0.018L0.228,-0.225C0.223,-0.232 0.218,-0.237 0.213,-0.239C0.208,-0.241 0.201,-0.242 0.191,-0.242L0.166,-0.242L0.166,-0L0.076,-0L0.076,-0.737L0.166,-0.737Z" style="fill-rule:nonzero;"/>
            </g>
            <g transform="matrix(40.123,0,0,40.123,1359.96,390.643)">
                <path d="M0.363,-0.423C0.359,-0.416 0.353,-0.412 0.345,-0.412C0.339,-0.412 0.334,-0.414 0.328,-0.418C0.321,-0.421 0.313,-0.425 0.304,-0.43C0.295,-0.434 0.284,-0.438 0.272,-0.442C0.259,-0.446 0.244,-0.448 0.227,-0.448C0.212,-0.448 0.198,-0.446 0.186,-0.442C0.174,-0.438 0.164,-0.433 0.155,-0.427C0.147,-0.42 0.14,-0.412 0.136,-0.403C0.131,-0.394 0.129,-0.385 0.129,-0.375C0.129,-0.362 0.133,-0.351 0.14,-0.342C0.148,-0.333 0.158,-0.326 0.17,-0.32C0.182,-0.313 0.196,-0.308 0.212,-0.303C0.228,-0.298 0.244,-0.293 0.26,-0.287C0.277,-0.282 0.293,-0.276 0.309,-0.269C0.324,-0.262 0.338,-0.254 0.351,-0.244C0.363,-0.234 0.373,-0.222 0.38,-0.207C0.388,-0.193 0.392,-0.175 0.392,-0.155C0.392,-0.132 0.387,-0.11 0.379,-0.09C0.371,-0.07 0.358,-0.053 0.342,-0.039C0.326,-0.024 0.306,-0.013 0.282,-0.005C0.258,0.004 0.231,0.008 0.2,0.008C0.165,0.008 0.133,0.002 0.104,-0.009C0.075,-0.021 0.051,-0.035 0.031,-0.054L0.052,-0.088C0.055,-0.092 0.058,-0.095 0.062,-0.098C0.065,-0.1 0.07,-0.101 0.076,-0.101C0.082,-0.101 0.088,-0.099 0.095,-0.094C0.102,-0.089 0.11,-0.084 0.119,-0.079C0.129,-0.073 0.14,-0.068 0.154,-0.063C0.167,-0.058 0.184,-0.056 0.205,-0.056C0.222,-0.056 0.237,-0.058 0.25,-0.063C0.263,-0.067 0.274,-0.073 0.283,-0.081C0.291,-0.089 0.298,-0.097 0.302,-0.108C0.306,-0.117 0.308,-0.128 0.308,-0.14C0.308,-0.154 0.304,-0.165 0.297,-0.174C0.289,-0.183 0.279,-0.191 0.267,-0.198C0.255,-0.204 0.241,-0.21 0.225,-0.215C0.209,-0.22 0.193,-0.225 0.176,-0.23C0.16,-0.235 0.144,-0.241 0.128,-0.248C0.112,-0.255 0.098,-0.264 0.086,-0.274C0.073,-0.284 0.063,-0.297 0.056,-0.312C0.048,-0.327 0.045,-0.346 0.045,-0.368C0.045,-0.387 0.048,-0.405 0.057,-0.423C0.065,-0.441 0.076,-0.457 0.092,-0.47C0.107,-0.484 0.126,-0.495 0.148,-0.503C0.17,-0.51 0.196,-0.515 0.225,-0.515C0.258,-0.515 0.288,-0.509 0.314,-0.499C0.341,-0.488 0.364,-0.474 0.383,-0.456L0.363,-0.423Z" style="fill-rule:nonzero;"/>
            </g>
        </g>
        <g transform="matrix(1,0,0,1,-419.44,340.473)">
            <g transform="matrix(40.123,0,0,40.123,973.332,390.643)">
                <path d="M0.677,-0L0.602,-0C0.593,-0 0.586,-0.002 0.581,-0.007C0.575,-0.011 0.571,-0.016 0.569,-0.023L0.502,-0.196L0.18,-0.196L0.113,-0.023C0.111,-0.017 0.107,-0.012 0.101,-0.007C0.095,-0.002 0.088,-0 0.08,-0L0.005,-0L0.292,-0.717L0.39,-0.717L0.677,-0ZM0.207,-0.266L0.475,-0.266L0.362,-0.558C0.355,-0.576 0.347,-0.598 0.341,-0.625C0.337,-0.611 0.333,-0.599 0.33,-0.587C0.326,-0.576 0.323,-0.566 0.32,-0.557L0.207,-0.266Z" style="fill-rule:nonzero;"/>
            </g>
            <g transform="matrix(40.123,0,0,40.123,1000.62,390.643)">
                <path d="M0.363,-0.423C0.359,-0.416 0.353,-0.412 0.345,-0.412C0.339,-0.412 0.334,-0.414 0.328,-0.418C0.321,-0.421 0.313,-0.425 0.304,-0.43C0.295,-0.434 0.284,-0.438 0.272,-0.442C0.259,-0.446 0.244,-0.448 0.227,-0.448C0.212,-0.448 0.198,-0.446 0.186,-0.442C0.174,-0.438 0.164,-0.433 0.155,-0.427C0.147,-0.42 0.14,-0.412 0.136,-0.403C0.131,-0.394 0.129,-0.385 0.129,-0.375C0.129,-0.362 0.133,-0.351 0.14,-0.342C0.148,-0.333 0.158,-0.326 0.17,-0.32C0.182,-0.313 0.196,-0.308 0.212,-0.303C0.228,-0.298 0.244,-0.293 0.26,-0.287C0.277,-0.282 0.293,-0.276 0.309,-0.269C0.324,-0.262 0.338,-0.254 0.351,-0.244C0.363,-0.234 0.373,-0.222 0.38,-0.207C0.388,-0.193 0.392,-0.175 0.392,-0.155C0.392,-0.132 0.387,-0.11 0.379,-0.09C0.371,-0.07 0.358,-0.053 0.342,-0.039C0.326,-0.024 0.306,-0.013 0.282,-0.005C0.258,0.004 0.231,0.008 0.2,0.008C0.165,0.008 0.133,0.002 0.104,-0.009C0.075,-0.021 0.051,-0.035 0.031,-0.054L0.052,-0.088C0.055,-0.092 0.058,-0.095 0.062,-0.098C0.065,-0.1 0.07,-0.101 0.076,-0.101C0.082,-0.101 0.088,-0.099 0.095,-0.094C0.102,-0.089 0.11,-0.084 0.119,-0.079C0.129,-0.073 0.14,-0.068 0.154,-0.063C0.167,-0.058 0.184,-0.056 0.205,-0.056C0.222,-0.056 0.237,-0.058 0.25,-0.063C0.263,-0.067 0.274,-0.073 0.283,-0.081C0.291,-0.089 0.298,-0.097 0.302,-0.108C0.306,-0.117 0.308,-0.128 0.308,-0.14C0.308,-0.154 0.304,-0.165 0.297,-0.174C0.289,-0.183 0.279,-0.191 0.267,-0.198C0.255,-0.204 0.241,-0.21 0.225,-0.215C0.209,-0.22 0.193,-0.225 0.176,-0.23C0.16,-0.235 0.144,-0.241 0.128,-0.248C0.112,-0.255 0.098,-0.264 0.086,-0.274C0.073,-0.284 0.063,-0.297 0.056,-0.312C0.048,-0.327 0.045,-0.346 0.045,-0.368C0.045,-0.387 0.048,-0.405 0.057,-0.423C0.065,-0.441 0.076,-0.457 0.092,-0.47C0.107,-0.484 0.126,-0.495 0.148,-0.503C0.17,-0.51 0.196,-0.515 0.225,-0.515C0.258,-0.515 0.288,-0.509 0.314,-0.499C0.341,-0.488 0.364,-0.474 0.383,-0.456L0.363,-0.423Z" style="fill-rule:nonzero;"/>
            </g>
            <g transform="matrix(40.123,0,0,40.123,1018.03,390.643)">
                <path d="M0.222,0.15C0.219,0.156 0.215,0.162 0.21,0.166C0.206,0.17 0.199,0.172 0.19,0.172L0.124,0.172L0.216,-0.03L0.007,-0.507L0.084,-0.507C0.092,-0.507 0.098,-0.505 0.102,-0.501C0.106,-0.497 0.11,-0.493 0.112,-0.488L0.247,-0.169C0.25,-0.162 0.253,-0.154 0.255,-0.147C0.257,-0.14 0.259,-0.132 0.261,-0.125C0.263,-0.132 0.265,-0.14 0.268,-0.147C0.27,-0.154 0.273,-0.162 0.276,-0.17L0.407,-0.488C0.409,-0.493 0.412,-0.498 0.417,-0.501C0.422,-0.505 0.427,-0.507 0.433,-0.507L0.504,-0.507L0.222,0.15Z" style="fill-rule:nonzero;"/>
            </g>
            <g transform="matrix(40.123,0,0,40.123,1038.57,390.643)">
                <path d="M0.073,-0L0.073,-0.507L0.126,-0.507C0.139,-0.507 0.147,-0.5 0.15,-0.488L0.157,-0.433C0.179,-0.457 0.204,-0.477 0.231,-0.492C0.258,-0.507 0.289,-0.515 0.325,-0.515C0.353,-0.515 0.377,-0.51 0.398,-0.501C0.419,-0.492 0.437,-0.479 0.451,-0.462C0.465,-0.445 0.476,-0.425 0.484,-0.401C0.491,-0.377 0.495,-0.351 0.495,-0.323L0.495,-0L0.406,-0L0.406,-0.323C0.406,-0.361 0.397,-0.391 0.379,-0.412C0.362,-0.433 0.335,-0.444 0.299,-0.444C0.273,-0.444 0.248,-0.437 0.225,-0.425C0.202,-0.412 0.181,-0.395 0.162,-0.373L0.162,-0L0.073,-0Z" style="fill-rule:nonzero;"/>
            </g>
            <g transform="matrix(40.123,0,0,40.123,1060.88,390.643)">
                <path d="M0.419,-0.417C0.416,-0.413 0.413,-0.41 0.411,-0.408C0.408,-0.406 0.404,-0.405 0.399,-0.405C0.394,-0.405 0.389,-0.407 0.383,-0.411C0.377,-0.415 0.37,-0.42 0.361,-0.425C0.352,-0.43 0.341,-0.435 0.328,-0.439C0.315,-0.443 0.299,-0.445 0.281,-0.445C0.256,-0.445 0.234,-0.441 0.215,-0.432C0.196,-0.423 0.18,-0.41 0.167,-0.394C0.154,-0.377 0.145,-0.357 0.138,-0.333C0.132,-0.309 0.129,-0.283 0.129,-0.254C0.129,-0.223 0.132,-0.196 0.139,-0.172C0.146,-0.148 0.156,-0.128 0.169,-0.112C0.181,-0.096 0.197,-0.083 0.215,-0.075C0.233,-0.066 0.253,-0.062 0.276,-0.062C0.298,-0.062 0.316,-0.065 0.33,-0.07C0.343,-0.075 0.355,-0.081 0.365,-0.087C0.374,-0.093 0.382,-0.099 0.388,-0.104C0.394,-0.109 0.4,-0.112 0.406,-0.112C0.413,-0.112 0.419,-0.109 0.423,-0.104L0.448,-0.071C0.426,-0.044 0.398,-0.024 0.365,-0.012C0.332,0.001 0.297,0.007 0.261,0.007C0.229,0.007 0.199,0.001 0.172,-0.011C0.145,-0.022 0.122,-0.039 0.102,-0.061C0.082,-0.083 0.066,-0.111 0.054,-0.143C0.043,-0.175 0.037,-0.212 0.037,-0.254C0.037,-0.291 0.042,-0.326 0.053,-0.358C0.063,-0.39 0.079,-0.418 0.099,-0.441C0.119,-0.464 0.144,-0.482 0.174,-0.495C0.203,-0.508 0.237,-0.515 0.276,-0.515C0.311,-0.515 0.342,-0.509 0.37,-0.497C0.397,-0.486 0.421,-0.47 0.442,-0.449L0.419,-0.417Z" style="fill-rule:nonzero;"/>
            </g>
            <g transform="matrix(40.123,0,0,40.123,1079.62,390.643)">
                <path d="M0.073,-0L0.073,-0.737L0.162,-0.737L0.162,-0.439C0.184,-0.462 0.208,-0.48 0.234,-0.494C0.26,-0.508 0.291,-0.515 0.325,-0.515C0.353,-0.515 0.377,-0.51 0.398,-0.501C0.419,-0.492 0.437,-0.479 0.451,-0.462C0.465,-0.445 0.476,-0.425 0.484,-0.401C0.491,-0.377 0.495,-0.351 0.495,-0.323L0.495,-0L0.406,-0L0.406,-0.323C0.406,-0.361 0.397,-0.391 0.379,-0.412C0.362,-0.433 0.335,-0.444 0.299,-0.444C0.273,-0.444 0.248,-0.437 0.225,-0.425C0.202,-0.412 0.181,-0.395 0.162,-0.373L0.162,-0L0.073,-0Z" style="fill-rule:nonzero;"/>
            </g>
            <g transform="matrix(40.123,0,0,40.123,1101.93,390.643)">
                <path d="M0.073,-0L0.073,-0.507L0.124,-0.507C0.134,-0.507 0.14,-0.505 0.144,-0.501C0.148,-0.497 0.15,-0.491 0.152,-0.482L0.158,-0.403C0.175,-0.438 0.196,-0.466 0.222,-0.486C0.247,-0.506 0.277,-0.516 0.312,-0.516C0.326,-0.516 0.338,-0.514 0.35,-0.511C0.361,-0.508 0.371,-0.503 0.381,-0.498L0.37,-0.431C0.367,-0.423 0.362,-0.419 0.354,-0.419C0.349,-0.419 0.342,-0.42 0.333,-0.423C0.323,-0.426 0.309,-0.428 0.292,-0.428C0.261,-0.428 0.235,-0.419 0.214,-0.401C0.193,-0.383 0.176,-0.357 0.162,-0.323L0.162,-0L0.073,-0Z" style="fill-rule:nonzero;"/>
            </g>
            <g transform="matrix(40.123,0,0,40.123,1118.1,390.643)">
                <path d="M0.278,-0.515C0.315,-0.515 0.348,-0.508 0.378,-0.496C0.408,-0.484 0.433,-0.466 0.454,-0.444C0.475,-0.421 0.491,-0.393 0.502,-0.361C0.513,-0.329 0.519,-0.293 0.519,-0.254C0.519,-0.214 0.513,-0.178 0.502,-0.146C0.491,-0.114 0.475,-0.086 0.454,-0.064C0.433,-0.041 0.408,-0.023 0.378,-0.011C0.348,0.001 0.315,0.007 0.278,0.007C0.241,0.007 0.208,0.001 0.178,-0.011C0.148,-0.023 0.123,-0.041 0.102,-0.064C0.081,-0.086 0.064,-0.114 0.053,-0.146C0.042,-0.178 0.036,-0.214 0.036,-0.254C0.036,-0.293 0.042,-0.329 0.053,-0.361C0.064,-0.393 0.081,-0.421 0.102,-0.444C0.123,-0.466 0.148,-0.484 0.178,-0.496C0.208,-0.508 0.241,-0.515 0.278,-0.515ZM0.278,-0.063C0.328,-0.063 0.365,-0.079 0.39,-0.113C0.415,-0.146 0.427,-0.193 0.427,-0.253C0.427,-0.313 0.415,-0.36 0.39,-0.394C0.365,-0.428 0.328,-0.444 0.278,-0.445C0.253,-0.444 0.231,-0.44 0.212,-0.432C0.193,-0.423 0.178,-0.41 0.165,-0.394C0.153,-0.378 0.143,-0.358 0.137,-0.334C0.131,-0.31 0.128,-0.283 0.128,-0.253C0.128,-0.223 0.131,-0.196 0.137,-0.173C0.143,-0.149 0.153,-0.129 0.165,-0.113C0.178,-0.097 0.193,-0.084 0.212,-0.076C0.231,-0.067 0.253,-0.063 0.278,-0.063Z" style="fill-rule:nonzero;"/>
            </g>
            <g transform="matrix(40.123,0,0,40.123,1140.4,390.643)">
                <path d="M0.073,-0L0.073,-0.507L0.126,-0.507C0.139,-0.507 0.147,-0.5 0.15,-0.488L0.157,-0.433C0.179,-0.457 0.204,-0.477 0.231,-0.492C0.258,-0.507 0.289,-0.515 0.325,-0.515C0.353,-0.515 0.377,-0.51 0.398,-0.501C0.419,-0.492 0.437,-0.479 0.451,-0.462C0.465,-0.445 0.476,-0.425 0.484,-0.401C0.491,-0.377 0.495,-0.351 0.495,-0.323L0.495,-0L0.406,-0L0.406,-0.323C0.406,-0.361 0.397,-0.391 0.379,-0.412C0.362,-0.433 0.335,-0.444 0.299,-0.444C0.273,-0.444 0.248,-0.437 0.225,-0.425C0.202,-0.412 0.181,-0.395 0.162,-0.373L0.162,-0L0.073,-0Z" style="fill-rule:nonzero;"/>
            </g>
            <g transform="matrix(40.123,0,0,40.123,1162.71,390.643)">
                <path d="M0.278,-0.515C0.315,-0.515 0.348,-0.508 0.378,-0.496C0.408,-0.484 0.433,-0.466 0.454,-0.444C0.475,-0.421 0.491,-0.393 0.502,-0.361C0.513,-0.329 0.519,-0.293 0.519,-0.254C0.519,-0.214 0.513,-0.178 0.502,-0.146C0.491,-0.114 0.475,-0.086 0.454,-0.064C0.433,-0.041 0.408,-0.023 0.378,-0.011C0.348,0.001 0.315,0.007 0.278,0.007C0.241,0.007 0.208,0.001 0.178,-0.011C0.148,-0.023 0.123,-0.041 0.102,-0.064C0.081,-0.086 0.064,-0.114 0.053,-0.146C0.042,-0.178 0.036,-0.214 0.036,-0.254C0.036,-0.293 0.042,-0.329 0.053,-0.361C0.064,-0.393 0.081,-0.421 0.102,-0.444C0.123,-0.466 0.148,-0.484 0.178,-0.496C0.208,-0.508 0.241,-0.515 0.278,-0.515ZM0.278,-0.063C0.328,-0.063 0.365,-0.079 0.39,-0.113C0.415,-0.146 0.427,-0.193 0.427,-0.253C0.427,-0.313 0.415,-0.36 0.39,-0.394C0.365,-0.428 0.328,-0.444 0.278,-0.445C0.253,-0.444 0.231,-0.44 0.212,-0.432C0.193,-0.423 0.178,-0.41 0.165,-0.394C0.153,-0.378 0.143,-0.358 0.137,-0.334C0.131,-0.31 0.128,-0.283 0.128,-0.253C0.128,-0.223 0.131,-0.196 0.137,-0.173C0.143,-0.149 0.153,-0.129 0.165,-0.113C0.178,-0.097 0.193,-0.084 0.212,-0.076C0.231,-0.067 0.253,-0.063 0.278,-0.063Z" style="fill-rule:nonzero;"/>
            </g>
            <g transform="matrix(40.123,0,0,40.123,1185.02,390.643)">
                <path d="M0.15,-0.507L0.15,-0.184C0.15,-0.145 0.159,-0.116 0.177,-0.095C0.194,-0.074 0.221,-0.063 0.257,-0.063C0.282,-0.063 0.307,-0.069 0.33,-0.082C0.353,-0.094 0.374,-0.111 0.394,-0.133L0.394,-0.507L0.483,-0.507L0.483,-0L0.43,-0C0.417,-0 0.409,-0.006 0.406,-0.019L0.399,-0.073C0.377,-0.049 0.352,-0.029 0.325,-0.014C0.297,0.001 0.266,0.008 0.231,0.008C0.203,0.008 0.178,0.003 0.157,-0.006C0.136,-0.015 0.118,-0.028 0.104,-0.045C0.09,-0.061 0.079,-0.081 0.072,-0.105C0.065,-0.129 0.061,-0.155 0.061,-0.184L0.061,-0.507L0.15,-0.507Z" style="fill-rule:nonzero;"/>
            </g>
            <g transform="matrix(40.123,0,0,40.123,1207.33,390.643)">
                <path d="M0.363,-0.423C0.359,-0.416 0.353,-0.412 0.345,-0.412C0.339,-0.412 0.334,-0.414 0.328,-0.418C0.321,-0.421 0.313,-0.425 0.304,-0.43C0.295,-0.434 0.284,-0.438 0.272,-0.442C0.259,-0.446 0.244,-0.448 0.227,-0.448C0.212,-0.448 0.198,-0.446 0.186,-0.442C0.174,-0.438 0.164,-0.433 0.155,-0.427C0.147,-0.42 0.14,-0.412 0.136,-0.403C0.131,-0.394 0.129,-0.385 0.129,-0.375C0.129,-0.362 0.133,-0.351 0.14,-0.342C0.148,-0.333 0.158,-0.326 0.17,-0.32C0.182,-0.313 0.196,-0.308 0.212,-0.303C0.228,-0.298 0.244,-0.293 0.26,-0.287C0.277,-0.282 0.293,-0.276 0.309,-0.269C0.324,-0.262 0.338,-0.254 0.351,-0.244C0.363,-0.234 0.373,-0.222 0.38,-0.207C0.388,-0.193 0.392,-0.175 0.392,-0.155C0.392,-0.132 0.387,-0.11 0.379,-0.09C0.371,-0.07 0.358,-0.053 0.342,-0.039C0.326,-0.024 0.306,-0.013 0.282,-0.005C0.258,0.004 0.231,0.008 0.2,0.008C0.165,0.008 0.133,0.002 0.104,-0.009C0.075,-0.021 0.051,-0.035 0.031,-0.054L0.052,-0.088C0.055,-0.092 0.058,-0.095 0.062,-0.098C0.065,-0.1 0.07,-0.101 0.076,-0.101C0.082,-0.101 0.088,-0.099 0.095,-0.094C0.102,-0.089 0.11,-0.084 0.119,-0.079C0.129,-0.073 0.14,-0.068 0.154,-0.063C0.167,-0.058 0.184,-0.056 0.205,-0.056C0.222,-0.056 0.237,-0.058 0.25,-0.063C0.263,-0.067 0.274,-0.073 0.283,-0.081C0.291,-0.089 0.298,-0.097 0.302,-0.108C0.306,-0.117 0.308,-0.128 0.308,-0.14C0.308,-0.154 0.304,-0.165 0.297,-0.174C0.289,-0.183 0.279,-0.191 0.267,-0.198C0.255,-0.204 0.241,-0.21 0.225,-0.215C0.209,-0.22 0.193,-0.225 0.176,-0.23C0.16,-0.235 0.144,-0.241 0.128,-0.248C0.112,-0.255 0.098,-0.264 0.086,-0.274C0.073,-0.284 0.063,-0.297 0.056,-0.312C0.048,-0.327 0.045,-0.346 0.045,-0.368C0.045,-0.387 0.048,-0.405 0.057,-0.423C0.065,-0.441 0.076,-0.457 0.092,-0.47C0.107,-0.484 0.126,-0.495 0.148,-0.503C0.17,-0.51 0.196,-0.515 0.225,-0.515C0.258,-0.515 0.288,-0.509 0.314,-0.499C0.341,-0.488 0.364,-0.474 0.383,-0.456L0.363,-0.423Z" style="fill-rule:nonzero;"/>
            </g>
            <g transform="matrix(40.123,0,0,40.123,1232.49,390.643)">
                <path d="M0.592,-0.148C0.597,-0.148 0.602,-0.146 0.607,-0.142L0.645,-0.1C0.615,-0.066 0.58,-0.04 0.538,-0.021C0.496,-0.002 0.446,0.008 0.387,0.008C0.335,0.008 0.288,-0.001 0.246,-0.019C0.204,-0.037 0.168,-0.062 0.139,-0.094C0.109,-0.126 0.086,-0.165 0.07,-0.21C0.053,-0.255 0.045,-0.304 0.045,-0.358C0.045,-0.412 0.054,-0.462 0.071,-0.507C0.089,-0.552 0.113,-0.59 0.145,-0.623C0.177,-0.655 0.215,-0.68 0.259,-0.698C0.303,-0.716 0.352,-0.725 0.405,-0.725C0.458,-0.725 0.503,-0.716 0.541,-0.7C0.579,-0.684 0.613,-0.662 0.643,-0.634L0.612,-0.589C0.609,-0.586 0.607,-0.583 0.604,-0.581C0.6,-0.579 0.596,-0.578 0.591,-0.578C0.586,-0.578 0.582,-0.579 0.577,-0.582C0.572,-0.585 0.566,-0.589 0.56,-0.594C0.553,-0.599 0.545,-0.604 0.536,-0.609C0.527,-0.614 0.516,-0.619 0.504,-0.624C0.492,-0.629 0.477,-0.633 0.461,-0.636C0.445,-0.639 0.426,-0.641 0.405,-0.641C0.366,-0.641 0.331,-0.634 0.299,-0.621C0.267,-0.608 0.24,-0.589 0.217,-0.565C0.194,-0.54 0.176,-0.511 0.163,-0.476C0.15,-0.44 0.144,-0.401 0.144,-0.358C0.144,-0.313 0.15,-0.274 0.163,-0.239C0.176,-0.204 0.194,-0.174 0.216,-0.15C0.238,-0.126 0.264,-0.107 0.295,-0.095C0.325,-0.082 0.358,-0.076 0.393,-0.076C0.414,-0.076 0.433,-0.077 0.45,-0.079C0.467,-0.082 0.483,-0.086 0.497,-0.091C0.512,-0.096 0.525,-0.103 0.538,-0.111C0.55,-0.119 0.563,-0.129 0.576,-0.141C0.581,-0.146 0.587,-0.148 0.592,-0.148Z" style="fill-rule:nonzero;"/>
            </g>
            <g transform="matrix(40.123,0,0,40.123,1259.97,390.643)">
                <path d="M0.445,-0L0.406,-0C0.397,-0 0.39,-0.001 0.385,-0.004C0.379,-0.007 0.376,-0.012 0.374,-0.021L0.364,-0.068C0.351,-0.056 0.338,-0.045 0.325,-0.036C0.312,-0.026 0.299,-0.018 0.285,-0.012C0.271,-0.005 0.256,-0 0.24,0.003C0.224,0.006 0.207,0.008 0.188,0.008C0.168,0.008 0.149,0.005 0.132,-0C0.115,-0.006 0.1,-0.014 0.088,-0.025C0.075,-0.036 0.065,-0.05 0.057,-0.067C0.05,-0.084 0.046,-0.103 0.046,-0.127C0.046,-0.147 0.051,-0.166 0.063,-0.184C0.074,-0.203 0.091,-0.219 0.116,-0.234C0.14,-0.248 0.172,-0.26 0.212,-0.269C0.252,-0.278 0.3,-0.283 0.358,-0.285L0.358,-0.324C0.358,-0.363 0.349,-0.393 0.332,-0.413C0.315,-0.433 0.291,-0.444 0.258,-0.444C0.236,-0.444 0.218,-0.441 0.203,-0.435C0.188,-0.43 0.175,-0.424 0.164,-0.417C0.153,-0.41 0.144,-0.404 0.136,-0.398C0.128,-0.393 0.121,-0.39 0.113,-0.39C0.107,-0.39 0.102,-0.392 0.097,-0.395C0.093,-0.398 0.089,-0.402 0.087,-0.407L0.071,-0.435C0.098,-0.462 0.129,-0.482 0.161,-0.496C0.193,-0.509 0.229,-0.516 0.269,-0.516C0.297,-0.516 0.322,-0.511 0.344,-0.502C0.366,-0.492 0.385,-0.479 0.4,-0.463C0.415,-0.446 0.426,-0.426 0.434,-0.402C0.441,-0.378 0.445,-0.352 0.445,-0.324L0.445,-0ZM0.214,-0.055C0.23,-0.055 0.244,-0.056 0.257,-0.059C0.27,-0.062 0.282,-0.067 0.294,-0.073C0.305,-0.079 0.316,-0.086 0.327,-0.094C0.337,-0.102 0.347,-0.112 0.358,-0.123L0.358,-0.228C0.317,-0.227 0.282,-0.223 0.253,-0.218C0.224,-0.213 0.201,-0.206 0.183,-0.198C0.165,-0.19 0.152,-0.18 0.144,-0.169C0.136,-0.157 0.132,-0.145 0.132,-0.131C0.132,-0.117 0.134,-0.106 0.138,-0.096C0.142,-0.086 0.148,-0.078 0.156,-0.072C0.163,-0.066 0.171,-0.062 0.182,-0.059C0.192,-0.056 0.202,-0.055 0.214,-0.055Z" style="fill-rule:nonzero;"/>
            </g>
            <g transform="matrix(40.123,0,0,40.123,1280.31,390.643)">
                <rect x="0.083" y="-0.737" width="0.089" height="0.737" style="fill-rule:nonzero;"/>
            </g>
            <g transform="matrix(40.123,0,0,40.123,1290.58,390.643)">
                <rect x="0.083" y="-0.737" width="0.089" height="0.737" style="fill-rule:nonzero;"/>
            </g>
            <g transform="matrix(40.123,0,0,40.123,1300.86,390.643)">
                <path d="M0.076,-0L0.076,-0.737L0.166,-0.737L0.166,-0.434C0.187,-0.458 0.211,-0.477 0.238,-0.492C0.265,-0.507 0.296,-0.515 0.331,-0.515C0.36,-0.515 0.387,-0.509 0.411,-0.498C0.434,-0.487 0.454,-0.471 0.471,-0.449C0.488,-0.427 0.501,-0.4 0.51,-0.368C0.519,-0.336 0.523,-0.299 0.523,-0.257C0.523,-0.219 0.518,-0.184 0.508,-0.152C0.498,-0.12 0.484,-0.092 0.465,-0.069C0.446,-0.045 0.423,-0.027 0.396,-0.013C0.369,0 0.338,0.007 0.304,0.007C0.271,0.007 0.244,0.001 0.221,-0.012C0.198,-0.025 0.178,-0.042 0.161,-0.065L0.157,-0.019C0.154,-0.006 0.146,-0 0.134,-0L0.076,-0ZM0.302,-0.444C0.273,-0.444 0.248,-0.437 0.226,-0.424C0.204,-0.41 0.184,-0.391 0.166,-0.367L0.166,-0.122C0.182,-0.1 0.199,-0.085 0.219,-0.076C0.238,-0.067 0.26,-0.062 0.284,-0.062C0.331,-0.062 0.368,-0.079 0.393,-0.113C0.418,-0.146 0.431,-0.194 0.431,-0.257C0.431,-0.29 0.428,-0.318 0.422,-0.342C0.416,-0.365 0.408,-0.385 0.397,-0.4C0.386,-0.415 0.373,-0.426 0.357,-0.433C0.341,-0.44 0.322,-0.444 0.302,-0.444Z" style="fill-rule:nonzero;"/>
            </g>
            <g transform="matrix(40.123,0,0,40.123,1323.29,390.643)">
                <path d="M0.445,-0L0.406,-0C0.397,-0 0.39,-0.001 0.385,-0.004C0.379,-0.007 0.376,-0.012 0.374,-0.021L0.364,-0.068C0.351,-0.056 0.338,-0.045 0.325,-0.036C0.312,-0.026 0.299,-0.018 0.285,-0.012C0.271,-0.005 0.256,-0 0.24,0.003C0.224,0.006 0.207,0.008 0.188,0.008C0.168,0.008 0.149,0.005 0.132,-0C0.115,-0.006 0.1,-0.014 0.088,-0.025C0.075,-0.036 0.065,-0.05 0.057,-0.067C0.05,-0.084 0.046,-0.103 0.046,-0.127C0.046,-0.147 0.051,-0.166 0.063,-0.184C0.074,-0.203 0.091,-0.219 0.116,-0.234C0.14,-0.248 0.172,-0.26 0.212,-0.269C0.252,-0.278 0.3,-0.283 0.358,-0.285L0.358,-0.324C0.358,-0.363 0.349,-0.393 0.332,-0.413C0.315,-0.433 0.291,-0.444 0.258,-0.444C0.236,-0.444 0.218,-0.441 0.203,-0.435C0.188,-0.43 0.175,-0.424 0.164,-0.417C0.153,-0.41 0.144,-0.404 0.136,-0.398C0.128,-0.393 0.121,-0.39 0.113,-0.39C0.107,-0.39 0.102,-0.392 0.097,-0.395C0.093,-0.398 0.089,-0.402 0.087,-0.407L0.071,-0.435C0.098,-0.462 0.129,-0.482 0.161,-0.496C0.193,-0.509 0.229,-0.516 0.269,-0.516C0.297,-0.516 0.322,-0.511 0.344,-0.502C0.366,-0.492 0.385,-0.479 0.4,-0.463C0.415,-0.446 0.426,-0.426 0.434,-0.402C0.441,-0.378 0.445,-0.352 0.445,-0.324L0.445,-0ZM0.214,-0.055C0.23,-0.055 0.244,-0.056 0.257,-0.059C0.27,-0.062 0.282,-0.067 0.294,-0.073C0.305,-0.079 0.316,-0.086 0.327,-0.094C0.337,-0.102 0.347,-0.112 0.358,-0.123L0.358,-0.228C0.317,-0.227 0.282,-0.223 0.253,-0.218C0.224,-0.213 0.201,-0.206 0.183,-0.198C0.165,-0.19 0.152,-0.18 0.144,-0.169C0.136,-0.157 0.132,-0.145 0.132,-0.131C0.132,-0.117 0.134,-0.106 0.138,-0.096C0.142,-0.086 0.148,-0.078 0.156,-0.072C0.163,-0.066 0.171,-0.062 0.182,-0.059C0.192,-0.056 0.202,-0.055 0.214,-0.055Z" style="fill-rule:nonzero;"/>
            </g>
            <g transform="matrix(40.123,0,0,40.123,1343.63,390.643)">
                <path d="M0.419,-0.417C0.416,-0.413 0.413,-0.41 0.411,-0.408C0.408,-0.406 0.404,-0.405 0.399,-0.405C0.394,-0.405 0.389,-0.407 0.383,-0.411C0.377,-0.415 0.37,-0.42 0.361,-0.425C0.352,-0.43 0.341,-0.435 0.328,-0.439C0.315,-0.443 0.299,-0.445 0.281,-0.445C0.256,-0.445 0.234,-0.441 0.215,-0.432C0.196,-0.423 0.18,-0.41 0.167,-0.394C0.154,-0.377 0.145,-0.357 0.138,-0.333C0.132,-0.309 0.129,-0.283 0.129,-0.254C0.129,-0.223 0.132,-0.196 0.139,-0.172C0.146,-0.148 0.156,-0.128 0.169,-0.112C0.181,-0.096 0.197,-0.083 0.215,-0.075C0.233,-0.066 0.253,-0.062 0.276,-0.062C0.298,-0.062 0.316,-0.065 0.33,-0.07C0.343,-0.075 0.355,-0.081 0.365,-0.087C0.374,-0.093 0.382,-0.099 0.388,-0.104C0.394,-0.109 0.4,-0.112 0.406,-0.112C0.413,-0.112 0.419,-0.109 0.423,-0.104L0.448,-0.071C0.426,-0.044 0.398,-0.024 0.365,-0.012C0.332,0.001 0.297,0.007 0.261,0.007C0.229,0.007 0.199,0.001 0.172,-0.011C0.145,-0.022 0.122,-0.039 0.102,-0.061C0.082,-0.083 0.066,-0.111 0.054,-0.143C0.043,-0.175 0.037,-0.212 0.037,-0.254C0.037,-0.291 0.042,-0.326 0.053,-0.358C0.063,-0.39 0.079,-0.418 0.099,-0.441C0.119,-0.464 0.144,-0.482 0.174,-0.495C0.203,-0.508 0.237,-0.515 0.276,-0.515C0.311,-0.515 0.342,-0.509 0.37,-0.497C0.397,-0.486 0.421,-0.47 0.442,-0.449L0.419,-0.417Z" style="fill-rule:nonzero;"/>
            </g>
            <g transform="matrix(40.123,0,0,40.123,1362.36,390.643)">
                <path d="M0.166,-0.737L0.166,-0.303L0.189,-0.303C0.195,-0.303 0.201,-0.304 0.205,-0.306C0.209,-0.308 0.214,-0.311 0.22,-0.317L0.38,-0.489C0.385,-0.494 0.39,-0.498 0.395,-0.502C0.4,-0.505 0.406,-0.507 0.415,-0.507L0.496,-0.507L0.309,-0.308C0.304,-0.302 0.3,-0.297 0.295,-0.293C0.291,-0.289 0.286,-0.285 0.28,-0.282C0.286,-0.278 0.291,-0.273 0.296,-0.268C0.301,-0.263 0.306,-0.257 0.31,-0.25L0.508,-0L0.428,-0C0.421,-0 0.414,-0.001 0.409,-0.004C0.404,-0.007 0.399,-0.012 0.395,-0.018L0.228,-0.225C0.223,-0.232 0.218,-0.237 0.213,-0.239C0.208,-0.241 0.201,-0.242 0.191,-0.242L0.166,-0.242L0.166,-0L0.076,-0L0.076,-0.737L0.166,-0.737Z" style="fill-rule:nonzero;"/>
            </g>
            <g transform="matrix(40.123,0,0,40.123,1383.39,390.643)">
                <path d="M0.363,-0.423C0.359,-0.416 0.353,-0.412 0.345,-0.412C0.339,-0.412 0.334,-0.414 0.328,-0.418C0.321,-0.421 0.313,-0.425 0.304,-0.43C0.295,-0.434 0.284,-0.438 0.272,-0.442C0.259,-0.446 0.244,-0.448 0.227,-0.448C0.212,-0.448 0.198,-0.446 0.186,-0.442C0.174,-0.438 0.164,-0.433 0.155,-0.427C0.147,-0.42 0.14,-0.412 0.136,-0.403C0.131,-0.394 0.129,-0.385 0.129,-0.375C0.129,-0.362 0.133,-0.351 0.14,-0.342C0.148,-0.333 0.158,-0.326 0.17,-0.32C0.182,-0.313 0.196,-0.308 0.212,-0.303C0.228,-0.298 0.244,-0.293 0.26,-0.287C0.277,-0.282 0.293,-0.276 0.309,-0.269C0.324,-0.262 0.338,-0.254 0.351,-0.244C0.363,-0.234 0.373,-0.222 0.38,-0.207C0.388,-0.193 0.392,-0.175 0.392,-0.155C0.392,-0.132 0.387,-0.11 0.379,-0.09C0.371,-0.07 0.358,-0.053 0.342,-0.039C0.326,-0.024 0.306,-0.013 0.282,-0.005C0.258,0.004 0.231,0.008 0.2,0.008C0.165,0.008 0.133,0.002 0.104,-0.009C0.075,-0.021 0.051,-0.035 0.031,-0.054L0.052,-0.088C0.055,-0.092 0.058,-0.095 0.062,-0.098C0.065,-0.1 0.07,-0.101 0.076,-0.101C0.082,-0.101 0.088,-0.099 0.095,-0.094C0.102,-0.089 0.11,-0.084 0.119,-0.079C0.129,-0.073 0.14,-0.068 0.154,-0.063C0.167,-0.058 0.184,-0.056 0.205,-0.056C0.222,-0.056 0.237,-0.058 0.25,-0.063C0.263,-0.067 0.274,-0.073 0.283,-0.081C0.291,-0.089 0.298,-0.097 0.302,-0.108C0.306,-0.117 0.308,-0.128 0.308,-0.14C0.308,-0.154 0.304,-0.165 0.297,-0.174C0.289,-0.183 0.279,-0.191 0.267,-0.198C0.255,-0.204 0.241,-0.21 0.225,-0.215C0.209,-0.22 0.193,-0.225 0.176,-0.23C0.16,-0.235 0.144,-0.241 0.128,-0.248C0.112,-0.255 0.098,-0.264 0.086,-0.274C0.073,-0.284 0.063,-0.297 0.056,-0.312C0.048,-0.327 0.045,-0.346 0.045,-0.368C0.045,-0.387 0.048,-0.405 0.057,-0.423C0.065,-0.441 0.076,-0.457 0.092,-0.47C0.107,-0.484 0.126,-0.495 0.148,-0.503C0.17,-0.51 0.196,-0.515 0.225,-0.515C0.258,-0.515 0.288,-0.509 0.314,-0.499C0.341,-0.488 0.364,-0.474 0.383,-0.456L0.363,-0.423Z" style="fill-rule:nonzero;"/>
            </g>
        </g>
    </g>
</svg>
