<?xml version="1.0" encoding="UTF-8" standalone="no"?>
<!DOCTYPE svg PUBLIC "-//W3C//DTD SVG 1.1//EN" "http://www.w3.org/Graphics/SVG/1.1/DTD/svg11.dtd">
<svg width="100%" height="100%" viewBox="0 0 345 94" version="1.1" xmlns="http://www.w3.org/2000/svg" xmlns:xlink="http://www.w3.org/1999/xlink" xml:space="preserve" style="fill-rule:evenodd;clip-rule:evenodd;stroke-linecap:round;stroke-linejoin:round;stroke-miterlimit:1.5;">
    <g transform="matrix(1,0,0,1,-301.439,-156.833)">
        <g>
            <g transform="matrix(1,0,0,1,34.5,3.5)">
                <g transform="matrix(1,0,0,1.375,18,-50.7233)">
                    <rect x="351.333" y="148.405" width="142" height="68" style="fill:rgb(64,112,111);"/>
                </g>
                <g transform="matrix(1,0,0,1,37.5,10)">
                    <path d="M400.188,187.486L398.921,187.486L398.921,176.654L404.934,176.654L404.883,177.774L400.188,177.774L400.188,181.576L404.663,181.576L404.663,182.652L400.188,182.652L400.188,187.486Z" style="fill-rule:nonzero;"/>
                    <path d="M414.287,187.486L412.83,187.486L409.812,182.645L406.714,187.486L405.337,187.486L409.043,181.832L405.579,176.654L407.051,176.654L409.856,180.99L412.771,176.654L414.126,176.654L410.64,181.81L414.287,187.486Z" style="fill-rule:nonzero;"/>
                </g>
                <g transform="matrix(1,0,0,1,-37.5,-193.5)">
                    <path d="M480.153,439.988L480.153,408.488L407.153,408.488L548.153,408.488" style="fill:none;stroke:black;stroke-width:1px;"/>
                </g>
                <g transform="matrix(1.00472,0,0,1,16.3428,8.59771)">
                    <rect x="351.333" y="144.736" width="141.333" height="17.333"/>
                </g>
                <g transform="matrix(1,0,0,1,-17.5,-2)">
                    <path d="M407.589,228.925L408.492,228.925L405.87,236.146L404.991,236.146L402.379,228.925L403.282,228.925L404.888,233.505C405.097,234.1 405.277,234.662 405.43,235.189C405.479,234.945 405.662,234.379 405.977,233.49C406.485,232.035 407.022,230.513 407.589,228.925Z" style="fill-rule:nonzero;"/>
                    <path d="M409.595,233.48C409.595,234.115 409.736,234.624 410.018,235.006C410.299,235.389 410.71,235.58 411.251,235.58C411.785,235.58 412.187,235.39 412.459,235.009C412.731,234.628 412.867,234.115 412.867,233.471C412.867,232.816 412.733,232.301 412.464,231.925C412.196,231.549 411.786,231.361 411.236,231.361C410.702,231.361 410.295,231.553 410.015,231.937C409.735,232.321 409.595,232.836 409.595,233.48ZM413.712,233.466C413.712,234.296 413.49,234.969 413.048,235.485C412.605,236.001 411.993,236.259 411.212,236.259C410.46,236.259 409.862,235.998 409.417,235.477C408.973,234.957 408.751,234.288 408.751,233.471C408.751,232.637 408.974,231.963 409.42,231.449C409.866,230.935 410.478,230.678 411.256,230.678C412.021,230.678 412.621,230.936 413.057,231.452C413.494,231.967 413.712,232.639 413.712,233.466Z" style="fill-rule:nonzero;"/>
                    <path d="M415.826,230.79L415.826,236.146L415.006,236.146L415.006,230.79L415.826,230.79ZM415.826,228.842L415.826,229.808L415.006,229.808L415.006,228.842L415.826,228.842Z" style="fill-rule:nonzero;"/>
                    <path d="M419.625,236.259C418.837,236.259 418.221,236.003 417.777,235.492C417.332,234.981 417.11,234.312 417.11,233.485C417.113,232.652 417.34,231.976 417.791,231.456C418.242,230.937 418.86,230.678 419.644,230.678C419.921,230.678 420.189,230.712 420.447,230.78C420.706,230.848 420.911,230.938 421.06,231.049L420.836,231.683C420.455,231.478 420.053,231.376 419.63,231.376C419.112,231.376 418.703,231.565 418.402,231.942C418.1,232.32 417.95,232.836 417.95,233.49C417.95,234.128 418.099,234.633 418.397,235.006C418.695,235.379 419.107,235.565 419.634,235.565C420.054,235.565 420.484,235.451 420.924,235.223L421.026,235.873C420.671,236.13 420.204,236.259 419.625,236.259Z" style="fill-rule:nonzero;"/>
                    <path d="M424.19,231.351C423.773,231.351 423.433,231.499 423.17,231.793C422.906,232.088 422.751,232.491 422.706,233.002L425.533,233.002C425.533,232.471 425.413,232.064 425.174,231.779C424.935,231.494 424.607,231.351 424.19,231.351ZM424.351,236.259C423.573,236.259 422.96,236.011 422.513,235.516C422.065,235.022 421.842,234.345 421.842,233.485C421.842,232.655 422.058,231.982 422.491,231.466C422.924,230.95 423.494,230.687 424.2,230.678C424.864,230.678 425.391,230.905 425.78,231.359C426.169,231.813 426.363,232.419 426.363,233.178C426.363,233.217 426.362,233.288 426.361,233.392C426.359,233.497 426.358,233.571 426.358,233.617L422.681,233.617C422.691,234.226 422.848,234.7 423.153,235.04C423.457,235.381 423.866,235.551 424.381,235.551C424.947,235.551 425.515,235.401 426.085,235.101L426.212,235.761C425.668,236.093 425.048,236.259 424.351,236.259Z" style="fill-rule:nonzero;"/>
                    <path d="M430.987,236.146L430.142,236.146L430.142,228.925L434.151,228.925L434.117,229.672L430.987,229.672L430.987,232.206L433.97,232.206L433.97,232.924L430.987,232.924L430.987,236.146Z" style="fill-rule:nonzero;"/>
                    <path d="M440.386,236.146L439.415,236.146L437.403,232.919L435.338,236.146L434.42,236.146L436.89,232.377L434.581,228.925L435.562,228.925L437.432,231.815L439.376,228.925L440.279,228.925L437.955,232.362L440.386,236.146Z" style="fill-rule:nonzero;"/>
                </g>
                <g transform="matrix(1,0,0,1,-16,-4.60196e-09)">
                    <path d="M473.438,233.702L471.221,228.546L471.035,228.053L471.07,229.82L471.07,234.146L470.279,234.146L470.279,226.925L471.372,226.925L473.887,232.677L476.377,226.925L477.442,226.925L477.442,234.146L476.621,234.146L476.621,229.801L476.655,228.072L476.475,228.565L474.263,233.702L473.438,233.702Z" style="fill-rule:nonzero;"/>
                    <path d="M480.542,233.599C480.93,233.599 481.271,233.493 481.565,233.28C481.86,233.066 482.049,232.779 482.134,232.418L482.134,231.515C482.118,231.515 482.019,231.523 481.839,231.539C481.658,231.555 481.54,231.565 481.485,231.568C480.778,231.63 480.286,231.746 480.008,231.915C479.729,232.084 479.59,232.356 479.59,232.73C479.59,233.017 479.675,233.233 479.844,233.38C480.013,233.526 480.246,233.599 480.542,233.599ZM482.315,234.146C482.266,233.938 482.219,233.713 482.173,233.473C481.877,233.769 481.599,233.974 481.338,234.088C481.078,234.202 480.772,234.259 480.42,234.259C479.919,234.259 479.516,234.128 479.212,233.866C478.907,233.604 478.755,233.227 478.755,232.735C478.755,232.188 478.963,231.783 479.378,231.519C479.793,231.256 480.391,231.091 481.172,231.026C481.28,231.016 481.441,231.003 481.658,230.985C481.874,230.967 482.036,230.953 482.144,230.943L482.144,230.47C482.144,230.092 482.056,229.812 481.88,229.63C481.704,229.447 481.428,229.356 481.05,229.356C480.523,229.356 479.99,229.487 479.453,229.747C479.437,229.708 479.395,229.595 479.326,229.408C479.258,229.22 479.222,229.124 479.219,229.117C479.457,228.984 479.739,228.877 480.066,228.797C480.393,228.717 480.726,228.678 481.065,228.678C481.732,228.678 482.213,228.823 482.508,229.115C482.802,229.406 482.949,229.902 482.949,230.601L482.949,234.146L482.315,234.146Z" style="fill-rule:nonzero;"/>
                    <path d="M485.952,234.259C485.588,234.259 485.252,234.22 484.944,234.141C484.636,234.063 484.387,233.962 484.195,233.839L484.297,233.15C484.841,233.44 485.375,233.585 485.899,233.585C486.693,233.585 487.101,233.305 487.124,232.745C487.124,232.507 487.04,232.32 486.87,232.183C486.701,232.047 486.369,231.894 485.874,231.724L485.469,231.583C485,231.427 484.666,231.233 484.466,231.002C484.265,230.771 484.164,230.483 484.16,230.138C484.16,229.718 484.329,229.369 484.666,229.093C485.003,228.816 485.464,228.678 486.05,228.678C486.655,228.678 487.207,228.795 487.705,229.029L487.466,229.654C486.961,229.446 486.489,229.342 486.05,229.342C485.708,229.342 485.44,229.409 485.247,229.544C485.053,229.679 484.956,229.869 484.956,230.113C484.956,230.321 485.026,230.481 485.166,230.592C485.306,230.702 485.586,230.829 486.006,230.973C486.113,231.012 486.249,231.057 486.411,231.109C486.952,231.285 487.334,231.493 487.559,231.732C487.783,231.971 487.896,232.294 487.896,232.701C487.889,233.196 487.712,233.579 487.363,233.851C487.015,234.123 486.545,234.259 485.952,234.259Z" style="fill-rule:nonzero;"/>
                    <path d="M490.718,234.244C490.191,234.244 489.816,234.115 489.595,233.858C489.374,233.601 489.256,233.186 489.243,232.613L489.243,229.395L488.447,229.395L488.482,228.858L489.238,228.79L489.517,227.564L490.054,227.545L490.054,228.79L491.543,228.79L491.543,229.395L490.054,229.395L490.054,232.467C490.054,232.874 490.116,233.16 490.239,233.326C490.363,233.492 490.575,233.575 490.874,233.575C490.982,233.575 491.214,233.549 491.572,233.497L491.607,234.141C491.219,234.21 490.923,234.244 490.718,234.244Z" style="fill-rule:nonzero;"/>
                    <path d="M494.527,229.351C494.11,229.351 493.77,229.499 493.506,229.793C493.242,230.088 493.088,230.491 493.042,231.002L495.869,231.002C495.869,230.471 495.75,230.064 495.51,229.779C495.271,229.494 494.943,229.351 494.527,229.351ZM494.688,234.259C493.91,234.259 493.297,234.011 492.849,233.516C492.402,233.022 492.178,232.345 492.178,231.485C492.178,230.655 492.394,229.982 492.827,229.466C493.26,228.95 493.83,228.687 494.536,228.678C495.2,228.678 495.727,228.905 496.116,229.359C496.505,229.813 496.699,230.419 496.699,231.178C496.699,231.217 496.699,231.288 496.697,231.392C496.695,231.497 496.695,231.571 496.695,231.617L493.018,231.617C493.028,232.226 493.185,232.7 493.489,233.04C493.793,233.381 494.203,233.551 494.717,233.551C495.283,233.551 495.851,233.401 496.421,233.101L496.548,233.761C496.004,234.093 495.384,234.259 494.688,234.259Z" style="fill-rule:nonzero;"/>
                    <path d="M500.235,228.741C500.381,228.741 500.515,228.751 500.635,228.77L500.606,229.522C500.456,229.496 500.326,229.483 500.215,229.483C499.759,229.483 499.389,229.642 499.104,229.959C498.819,230.277 498.677,230.67 498.677,231.139L498.677,234.146L497.862,234.146C497.858,230.859 497.857,229.073 497.857,228.79L498.535,228.79L498.613,229.752C498.799,229.449 499.035,229.205 499.321,229.019C499.608,228.834 499.912,228.741 500.235,228.741Z" style="fill-rule:nonzero;"/>
                    <path d="M504.966,234.146L504.121,234.146L504.121,226.925L508.13,226.925L508.096,227.672L504.966,227.672L504.966,230.206L507.949,230.206L507.949,230.924L504.966,230.924L504.966,234.146Z" style="fill-rule:nonzero;"/>
                    <path d="M514.365,234.146L513.394,234.146L511.382,230.919L509.317,234.146L508.399,234.146L510.869,230.377L508.56,226.925L509.541,226.925L511.411,229.815L513.355,226.925L514.258,226.925L511.934,230.362L514.365,234.146Z" style="fill-rule:nonzero;"/>
                </g>
            </g>
            <g transform="matrix(0.735632,0,0,1.44,83.4109,-250.374)">
                <path d="M372.25,318.861L372.25,310.111L391.281,310.111L391.281,301.986L415.75,314.486L391.281,326.986L391.281,318.861L372.25,318.861Z" style="fill:rgb(20,20,20);"/>
            </g>
            <g transform="matrix(0.523333,0,0,0.523333,321.064,202.36)">
                <g transform="matrix(1,0,0,1,-37.5,-37.5)">
                    <g id="g1">
                        <path id="polygon1" d="M39.389,13.769L22.235,28.606L6,28.606L6,47.699L21.989,47.699L39.389,62.75L39.389,13.769Z" style="fill:rgb(17,17,17);fill-rule:nonzero;stroke:rgb(17,17,17);stroke-width:5px;stroke-linecap:butt;stroke-miterlimit:4;"/>
                        <path id="path1" d="M48.24,25.085L48.385,25.101L48.528,25.125L48.67,25.157L48.81,25.198L48.947,25.246L49.081,25.303L49.211,25.367L49.338,25.439L49.46,25.517L49.577,25.603L49.69,25.696L49.796,25.795L49.897,25.9L49.991,26.01L50.079,26.126L50.16,26.247L50.258,26.403L50.36,26.568L50.461,26.735L50.56,26.903L50.658,27.071L50.755,27.241L50.85,27.411L50.944,27.582L51.037,27.755L51.128,27.928L51.218,28.101L51.306,28.276L51.393,28.452L51.478,28.628L51.562,28.806L51.645,28.984L51.726,29.163L51.805,29.343L51.883,29.524L51.96,29.705L52.035,29.888L52.108,30.071L52.18,30.255L52.25,30.439L52.319,30.625L52.387,30.812L52.452,30.998L52.516,31.186L52.579,31.375L52.64,31.564L52.699,31.754L52.756,31.945L52.812,32.137L52.867,32.328L52.92,32.521L52.971,32.715L53.02,32.909L53.068,33.104L53.114,33.3L53.158,33.496L53.201,33.693L53.242,33.89L53.281,34.088L53.318,34.287L53.354,34.487L53.388,34.686L53.42,34.887L53.451,35.088L53.479,35.289L53.506,35.492L53.531,35.695L53.555,35.898L53.576,36.102L53.596,36.307L53.613,36.511L53.629,36.716L53.644,36.922L53.656,37.129L53.666,37.336L53.675,37.543L53.681,37.751L53.686,37.959L53.689,38.168L53.69,38.377L53.689,38.583L53.686,38.789L53.682,38.994L53.675,39.198L53.667,39.402L53.657,39.606L53.645,39.809L53.631,40.012L53.616,40.214L53.598,40.416L53.579,40.618L53.558,40.818L53.535,41.018L53.511,41.218L53.485,41.418L53.457,41.616L53.427,41.814L53.396,42.012L53.363,42.209L53.328,42.405L53.292,42.601L53.254,42.796L53.214,42.991L53.172,43.185L53.129,43.379L53.084,43.571L53.038,43.763L52.99,43.955L52.94,44.146L52.889,44.336L52.836,44.526L52.781,44.714L52.725,44.902L52.667,45.09L52.608,45.276L52.547,45.462L52.485,45.648L52.421,45.832L52.356,46.016L52.289,46.2L52.22,46.382L52.151,46.563L52.079,46.744L52.006,46.924L51.932,47.103L51.856,47.282L51.778,47.46L51.7,47.637L51.619,47.813L51.538,47.987L51.455,48.162L51.37,48.336L51.284,48.509L51.197,48.681L51.109,48.852L51.018,49.022L50.927,49.191L50.832,49.364L50.645,49.694L50.45,50.025L50.261,50.335L50.181,50.456L50.095,50.573L50.002,50.685L49.902,50.791L49.797,50.891L49.686,50.985L49.57,51.073L49.448,51.153L49.323,51.226L49.193,51.292L49.06,51.35L48.923,51.4L48.784,51.442L48.643,51.476L48.499,51.502L48.355,51.52L48.21,51.529L48.065,51.529L47.919,51.521L47.775,51.505L47.632,51.48L47.49,51.447L47.35,51.406L47.214,51.357L47.08,51.3L46.95,51.235L46.823,51.163L46.702,51.083L46.585,50.997L46.473,50.904L46.367,50.804L46.267,50.699L46.173,50.588L46.085,50.472L46.005,50.35L45.932,50.225L45.866,50.095L45.808,49.962L45.758,49.825L45.716,49.686L45.682,49.545L45.656,49.402L45.638,49.257L45.629,49.112L45.629,48.967L45.637,48.821L45.653,48.677L45.678,48.534L45.711,48.392L45.752,48.252L45.801,48.116L45.858,47.982L45.923,47.852L45.995,47.725L46.163,47.451L46.316,47.192L46.467,46.926L46.537,46.799L46.608,46.666L46.679,46.533L46.748,46.399L46.816,46.264L46.884,46.129L46.95,45.994L47.014,45.858L47.078,45.72L47.141,45.583L47.202,45.445L47.263,45.306L47.322,45.167L47.38,45.027L47.437,44.887L47.492,44.746L47.547,44.604L47.6,44.462L47.652,44.32L47.703,44.177L47.753,44.033L47.802,43.889L47.849,43.744L47.895,43.598L47.94,43.453L47.983,43.307L48.026,43.159L48.067,43.012L48.107,42.864L48.146,42.716L48.183,42.567L48.219,42.418L48.254,42.268L48.287,42.118L48.32,41.967L48.351,41.816L48.38,41.664L48.409,41.512L48.436,41.359L48.461,41.206L48.486,41.053L48.509,40.898L48.53,40.744L48.551,40.59L48.57,40.434L48.587,40.278L48.604,40.122L48.618,39.965L48.632,39.809L48.644,39.651L48.655,39.493L48.664,39.335L48.672,39.177L48.678,39.017L48.683,38.858L48.687,38.698L48.689,38.538L48.69,38.377L48.689,38.213L48.687,38.051L48.683,37.888L48.678,37.726L48.671,37.564L48.663,37.403L48.654,37.242L48.643,37.082L48.63,36.921L48.616,36.761L48.601,36.603L48.584,36.444L48.566,36.286L48.547,36.128L48.526,35.971L48.504,35.814L48.48,35.658L48.455,35.502L48.428,35.346L48.401,35.191L48.372,35.037L48.341,34.883L48.309,34.729L48.276,34.576L48.242,34.424L48.206,34.272L48.169,34.12L48.13,33.969L48.091,33.818L48.05,33.669L48.007,33.519L47.964,33.37L47.919,33.222L47.873,33.074L47.826,32.927L47.777,32.78L47.727,32.634L47.676,32.488L47.623,32.343L47.57,32.199L47.515,32.055L47.459,31.911L47.402,31.768L47.343,31.626L47.284,31.485L47.223,31.344L47.161,31.203L47.098,31.064L47.034,30.925L46.968,30.786L46.901,30.648L46.833,30.511L46.764,30.374L46.694,30.238L46.623,30.103L46.551,29.969L46.477,29.835L46.403,29.701L46.327,29.569L46.25,29.437L46.172,29.305L46.093,29.175L46.013,29.045L45.926,28.907L45.852,28.782L45.786,28.652L45.727,28.519L45.676,28.383L45.634,28.244L45.599,28.103L45.572,27.96L45.554,27.815L45.545,27.67L45.544,27.525L45.551,27.38L45.567,27.235L45.591,27.092L45.623,26.95L45.664,26.81L45.712,26.673L45.769,26.539L45.833,26.409L45.905,26.282L45.983,26.16L46.069,26.043L46.162,25.93L46.261,25.824L46.366,25.723L46.476,25.629L46.592,25.541L46.713,25.46L46.839,25.386L46.968,25.32L47.101,25.261L47.237,25.21L47.376,25.168L47.517,25.133L47.66,25.106L47.805,25.088L47.95,25.079L48.095,25.078L48.24,25.085Z" style="fill:rgb(17,17,17);"/>
                        <path id="path2" d="M55.183,18.039L55.369,18.054L55.554,18.082L55.736,18.124L55.915,18.18L56.088,18.248L56.257,18.33L56.418,18.424L56.572,18.53L56.718,18.647L56.855,18.774L56.982,18.912L57.098,19.058L57.277,19.303L57.461,19.558L57.643,19.816L57.822,20.076L57.998,20.337L58.172,20.6L58.344,20.865L58.513,21.132L58.68,21.401L58.844,21.671L59.006,21.943L59.165,22.217L59.321,22.492L59.475,22.769L59.626,23.048L59.775,23.329L59.921,23.61L60.064,23.894L60.205,24.179L60.342,24.466L60.478,24.754L60.61,25.044L60.74,25.336L60.867,25.629L60.991,25.923L61.112,26.219L61.23,26.516L61.346,26.815L61.459,27.115L61.568,27.417L61.675,27.72L61.779,28.024L61.88,28.329L61.978,28.636L62.074,28.945L62.166,29.255L62.255,29.566L62.341,29.878L62.424,30.191L62.504,30.506L62.581,30.822L62.655,31.139L62.726,31.457L62.794,31.776L62.858,32.097L62.92,32.418L62.978,32.741L63.033,33.065L63.085,33.39L63.133,33.716L63.179,34.043L63.221,34.371L63.26,34.699L63.295,35.029L63.328,35.36L63.356,35.692L63.382,36.024L63.404,36.358L63.423,36.693L63.438,37.028L63.45,37.364L63.459,37.701L63.464,38.039L63.466,38.377L63.464,38.712L63.459,39.047L63.451,39.381L63.439,39.714L63.424,40.046L63.405,40.377L63.383,40.708L63.358,41.038L63.33,41.366L63.298,41.694L63.263,42.021L63.225,42.347L63.184,42.672L63.139,42.996L63.091,43.319L63.04,43.641L62.986,43.962L62.929,44.282L62.869,44.601L62.805,44.919L62.739,45.235L62.669,45.551L62.596,45.865L62.521,46.178L62.442,46.49L62.36,46.801L62.276,47.111L62.188,47.419L62.097,47.726L62.003,48.032L61.907,48.336L61.808,48.639L61.705,48.941L61.6,49.242L61.492,49.541L61.381,49.839L61.268,50.135L61.151,50.431L61.032,50.724L60.91,51.016L60.785,51.307L60.657,51.596L60.527,51.884L60.394,52.17L60.259,52.455L60.12,52.738L59.979,53.02L59.836,53.3L59.69,53.578L59.541,53.855L59.39,54.131L59.236,54.404L59.079,54.676L58.92,54.946L58.759,55.215L58.595,55.482L58.428,55.747L58.259,56.01L58.088,56.272L57.914,56.532L57.737,56.791L57.559,57.047L57.378,57.301L57.201,57.545L57.086,57.692L56.96,57.83L56.824,57.958L56.678,58.076L56.525,58.182L56.364,58.277L56.196,58.359L56.022,58.429L55.844,58.486L55.662,58.529L55.477,58.558L55.291,58.573L55.104,58.575L54.918,58.562L54.733,58.536L54.55,58.496L54.371,58.442L54.196,58.375L54.027,58.295L53.865,58.203L53.709,58.099L53.562,57.984L53.424,57.858L53.296,57.722L53.178,57.576L53.072,57.423L52.977,57.262L52.895,57.094L52.825,56.92L52.768,56.742L52.725,56.56L52.696,56.376L52.681,56.189L52.679,56.002L52.692,55.816L52.718,55.631L52.758,55.448L52.812,55.269L52.879,55.094L52.959,54.925L53.051,54.763L53.155,54.607L53.317,54.384L53.47,54.168L53.622,53.951L53.771,53.732L53.918,53.513L54.063,53.291L54.206,53.068L54.347,52.843L54.486,52.618L54.623,52.39L54.757,52.162L54.89,51.931L55.02,51.7L55.148,51.467L55.274,51.233L55.397,50.998L55.519,50.761L55.638,50.522L55.755,50.283L55.87,50.042L55.982,49.8L56.092,49.557L56.2,49.312L56.305,49.067L56.409,48.82L56.509,48.572L56.608,48.322L56.704,48.072L56.798,47.82L56.889,47.567L56.978,47.314L57.064,47.059L57.148,46.802L57.23,46.545L57.309,46.286L57.385,46.027L57.459,45.767L57.531,45.505L57.6,45.243L57.667,44.979L57.731,44.714L57.792,44.449L57.851,44.182L57.907,43.915L57.961,43.646L58.012,43.377L58.06,43.106L58.106,42.835L58.149,42.563L58.189,42.29L58.227,42.015L58.262,41.741L58.294,41.465L58.324,41.188L58.351,40.911L58.375,40.632L58.396,40.353L58.414,40.073L58.43,39.793L58.443,39.511L58.453,39.229L58.46,38.945L58.465,38.662L58.466,38.377L58.464,38.09L58.46,37.803L58.453,37.517L58.443,37.232L58.429,36.948L58.414,36.665L58.395,36.382L58.373,36.1L58.349,35.819L58.321,35.54L58.291,35.26L58.258,34.982L58.223,34.704L58.184,34.428L58.143,34.152L58.099,33.878L58.053,33.604L58.004,33.331L57.952,33.059L57.897,32.788L57.84,32.518L57.78,32.249L57.718,31.981L57.653,31.714L57.585,31.449L57.515,31.184L57.442,30.92L57.367,30.657L57.289,30.396L57.208,30.135L57.125,29.876L57.04,29.617L56.952,29.36L56.862,29.104L56.769,28.849L56.674,28.596L56.576,28.343L56.476,28.092L56.373,27.842L56.268,27.593L56.161,27.345L56.052,27.099L55.94,26.854L55.826,26.61L55.709,26.368L55.59,26.126L55.469,25.887L55.345,25.648L55.22,25.411L55.092,25.175L54.962,24.94L54.829,24.708L54.695,24.476L54.558,24.246L54.419,24.017L54.278,23.79L54.135,23.564L53.989,23.34L53.842,23.117L53.692,22.895L53.541,22.676L53.387,22.457L53.231,22.241L53.066,22.016L52.961,21.861L52.868,21.699L52.788,21.53L52.72,21.356L52.665,21.177L52.624,20.995L52.597,20.81L52.584,20.623L52.584,20.436L52.599,20.25L52.627,20.065L52.669,19.883L52.725,19.704L52.794,19.531L52.875,19.362L52.969,19.201L53.075,19.047L53.192,18.901L53.319,18.764L53.457,18.637L53.603,18.521L53.758,18.416L53.92,18.323L54.089,18.243L54.263,18.175L54.442,18.12L54.624,18.079L54.809,18.052L54.996,18.038L55.183,18.039Z" style="fill:rgb(17,17,17);"/>
                        <path id="path11" d="M61.903,11.527L62.118,11.562L62.329,11.616L62.535,11.688L62.734,11.777L62.924,11.884L63.105,12.007L63.274,12.145L63.43,12.297L63.572,12.462L63.828,12.787L64.089,13.124L64.346,13.464L64.6,13.807L64.85,14.153L65.097,14.501L65.34,14.852L65.58,15.205L65.816,15.561L66.049,15.92L66.279,16.281L66.504,16.644L66.726,17.01L66.945,17.379L67.159,17.75L67.37,18.123L67.578,18.499L67.781,18.877L67.981,19.258L68.177,19.64L68.369,20.026L68.557,20.413L68.741,20.803L68.922,21.194L69.098,21.588L69.271,21.984L69.439,22.383L69.604,22.783L69.764,23.185L69.92,23.59L70.073,23.996L70.221,24.405L70.365,24.816L70.505,25.228L70.64,25.642L70.772,26.059L70.899,26.477L71.022,26.897L71.14,27.319L71.254,27.742L71.364,28.168L71.47,28.595L71.571,29.024L71.667,29.454L71.759,29.887L71.847,30.32L71.93,30.756L72.009,31.193L72.083,31.631L72.152,32.072L72.217,32.513L72.277,32.956L72.333,33.401L72.384,33.847L72.43,34.294L72.471,34.743L72.508,35.193L72.539,35.644L72.566,36.097L72.589,36.551L72.606,37.006L72.618,37.462L72.626,37.919L72.628,38.378L72.626,38.833L72.618,39.288L72.606,39.741L72.589,40.193L72.567,40.644L72.541,41.093L72.509,41.541L72.473,41.989L72.432,42.434L72.387,42.878L72.337,43.321L72.282,43.763L72.222,44.203L72.158,44.642L72.09,45.079L72.017,45.515L71.939,45.949L71.857,46.382L71.77,46.813L71.679,47.243L71.584,47.671L71.484,48.097L71.38,48.521L71.272,48.944L71.159,49.365L71.042,49.785L70.92,50.202L70.795,50.618L70.665,51.032L70.531,51.444L70.393,51.854L70.251,52.262L70.104,52.668L69.954,53.073L69.799,53.475L69.641,53.875L69.478,54.274L69.312,54.67L69.141,55.064L68.967,55.455L68.789,55.845L68.607,56.233L68.421,56.618L68.231,57.002L68.037,57.383L67.84,57.761L67.639,58.137L67.434,58.511L67.225,58.883L67.013,59.252L66.797,59.62L66.578,59.984L66.355,60.346L66.128,60.706L65.898,61.063L65.665,61.417L65.427,61.77L65.187,62.119L64.943,62.466L64.695,62.81L64.444,63.152L64.19,63.491L63.933,63.827L63.679,64.151L63.538,64.317L63.382,64.47L63.214,64.608L63.034,64.732L62.844,64.839L62.645,64.929L62.44,65.002L62.229,65.057L62.014,65.092L61.796,65.11L61.578,65.107L61.361,65.086L61.146,65.047L60.936,64.988L60.732,64.912L60.535,64.818L60.347,64.707L60.17,64.58L60.004,64.439L59.851,64.283L59.713,64.115L59.589,63.935L59.482,63.745L59.392,63.546L59.319,63.341L59.264,63.13L59.228,62.914L59.211,62.697L59.213,62.479L59.234,62.262L59.274,62.047L59.333,61.837L59.409,61.633L59.503,61.436L59.614,61.248L59.741,61.071L59.978,60.767L60.205,60.471L60.429,60.172L60.65,59.871L60.868,59.568L61.083,59.263L61.295,58.955L61.503,58.645L61.709,58.333L61.912,58.019L62.111,57.702L62.307,57.383L62.501,57.062L62.691,56.74L62.877,56.415L63.061,56.088L63.241,55.758L63.418,55.427L63.592,55.094L63.762,54.759L63.929,54.422L64.092,54.083L64.252,53.742L64.409,53.4L64.562,53.055L64.712,52.708L64.859,52.36L65.002,52.01L65.141,51.658L65.277,51.304L65.409,50.949L65.538,50.592L65.663,50.233L65.784,49.873L65.902,49.511L66.016,49.147L66.126,48.782L66.233,48.415L66.336,48.046L66.435,47.676L66.53,47.305L66.622,46.931L66.71,46.556L66.793,46.181L66.873,45.803L66.95,45.424L67.022,45.044L67.09,44.661L67.154,44.278L67.215,43.894L67.271,43.508L67.323,43.121L67.371,42.732L67.416,42.343L67.456,41.951L67.492,41.559L67.523,41.166L67.551,40.771L67.574,40.375L67.594,39.978L67.609,39.579L67.619,39.18L67.626,38.78L67.628,38.378L67.626,37.974L67.619,37.57L67.608,37.168L67.593,36.767L67.574,36.367L67.55,35.968L67.522,35.571L67.49,35.175L67.453,34.78L67.413,34.386L67.368,33.994L67.319,33.603L67.266,33.213L67.209,32.825L67.148,32.437L67.083,32.051L67.014,31.667L66.941,31.285L66.864,30.903L66.783,30.523L66.698,30.144L66.609,29.768L66.516,29.392L66.42,29.018L66.319,28.646L66.215,28.275L66.107,27.906L65.996,27.538L65.88,27.172L65.761,26.808L65.638,26.446L65.511,26.085L65.381,25.726L65.247,25.368L65.11,25.013L64.969,24.659L64.824,24.307L64.676,23.957L64.524,23.608L64.369,23.262L64.211,22.917L64.048,22.575L63.883,22.234L63.714,21.896L63.542,21.559L63.366,21.224L63.187,20.891L63.005,20.561L62.819,20.232L62.63,19.906L62.438,19.581L62.242,19.259L62.044,18.939L61.842,18.621L61.637,18.306L61.429,17.992L61.218,17.681L61.003,17.372L60.786,17.066L60.566,16.761L60.342,16.459L60.116,16.16L59.886,15.863L59.646,15.558L59.518,15.381L59.407,15.194L59.312,14.997L59.235,14.793L59.176,14.583L59.135,14.369L59.113,14.152L59.11,13.934L59.126,13.716L59.161,13.501L59.215,13.29L59.287,13.084L59.376,12.885L59.483,12.695L59.606,12.514L59.744,12.345L59.896,12.189L60.061,12.047L60.238,11.919L60.425,11.808L60.622,11.713L60.826,11.636L61.036,11.577L61.25,11.536L61.467,11.514L61.685,11.511L61.903,11.527Z" style="fill:rgb(17,17,17);"/>
                    </g>
                </g>
            </g>
            <g transform="matrix(0.523333,0,0,0.523333,626.064,202.36)">
                <g transform="matrix(1,0,0,1,-37.5,-37.5)">
                    <g id="g11">
                        <path id="polygon11" d="M39.389,13.769L22.235,28.606L6,28.606L6,47.699L21.989,47.699L39.389,62.75L39.389,13.769Z" style="fill:rgb(17,17,17);fill-rule:nonzero;stroke:rgb(17,17,17);stroke-width:5px;stroke-linecap:butt;stroke-miterlimit:4;"/>
                        <path id="path12" d="M48.241,25.085L48.386,25.101L48.529,25.125L48.671,25.157L48.811,25.198L48.948,25.246L49.082,25.303L49.212,25.367L49.339,25.439L49.461,25.518L49.578,25.604L49.69,25.696L49.797,25.795L49.897,25.9L49.992,26.011L50.08,26.127L50.16,26.248L50.258,26.403L50.36,26.568L50.461,26.735L50.56,26.903L50.658,27.071L50.755,27.241L50.851,27.411L50.945,27.583L51.037,27.754L51.128,27.927L51.218,28.101L51.306,28.276L51.393,28.452L51.478,28.628L51.562,28.806L51.645,28.984L51.725,29.162L51.805,29.343L51.883,29.524L51.96,29.705L52.035,29.887L52.108,30.07L52.18,30.255L52.25,30.44L52.319,30.624L52.387,30.812L52.452,30.999L52.516,31.186L52.579,31.375L52.639,31.564L52.699,31.754L52.756,31.945L52.812,32.136L52.867,32.329L52.919,32.521L52.971,32.715L53.02,32.909L53.068,33.104L53.114,33.3L53.158,33.496L53.201,33.692L53.242,33.89L53.281,34.088L53.318,34.287L53.354,34.486L53.388,34.686L53.42,34.887L53.451,35.088L53.479,35.29L53.506,35.491L53.531,35.694L53.555,35.899L53.576,36.102L53.596,36.306L53.613,36.51L53.63,36.717L53.644,36.923L53.656,37.128L53.666,37.336L53.675,37.543L53.682,37.751L53.686,37.96L53.689,38.167L53.69,38.377L53.689,38.583L53.686,38.788L53.682,38.994L53.675,39.198L53.667,39.402L53.657,39.605L53.645,39.81L53.631,40.013L53.615,40.214L53.598,40.416L53.579,40.617L53.558,40.817L53.536,41.018L53.511,41.219L53.485,41.418L53.457,41.616L53.427,41.814L53.396,42.012L53.363,42.208L53.328,42.405L53.292,42.602L53.253,42.797L53.214,42.991L53.172,43.185L53.129,43.379L53.084,43.571L53.038,43.763L52.99,43.955L52.94,44.146L52.889,44.336L52.836,44.525L52.781,44.714L52.725,44.902L52.668,45.09L52.608,45.276L52.547,45.463L52.485,45.648L52.421,45.832L52.356,46.016L52.289,46.199L52.22,46.382L52.15,46.564L52.079,46.744L52.006,46.924L51.932,47.103L51.856,47.282L51.778,47.46L51.7,47.636L51.62,47.813L51.538,47.988L51.455,48.162L51.37,48.336L51.285,48.508L51.197,48.681L51.108,48.852L51.018,49.022L50.927,49.191L50.832,49.364L50.645,49.694L50.45,50.025L50.261,50.334L50.181,50.456L50.095,50.573L50.002,50.685L49.903,50.791L49.797,50.891L49.686,50.985L49.57,51.072L49.449,51.153L49.323,51.226L49.193,51.292L49.06,51.35L48.924,51.4L48.784,51.442L48.643,51.476L48.5,51.502L48.356,51.52L48.21,51.529L48.065,51.529L47.92,51.521L47.775,51.505L47.632,51.48L47.49,51.447L47.351,51.406L47.214,51.357L47.08,51.3L46.95,51.235L46.824,51.163L46.702,51.083L46.585,50.997L46.473,50.904L46.367,50.805L46.267,50.699L46.173,50.588L46.086,50.472L46.005,50.351L45.932,50.225L45.866,50.095L45.808,49.962L45.758,49.826L45.716,49.686L45.682,49.545L45.656,49.402L45.638,49.258L45.629,49.112L45.629,48.967L45.637,48.822L45.653,48.677L45.678,48.534L45.711,48.392L45.752,48.253L45.801,48.116L45.858,47.982L45.923,47.852L45.995,47.726L46.163,47.452L46.316,47.192L46.467,46.926L46.537,46.799L46.608,46.666L46.679,46.532L46.748,46.399L46.816,46.265L46.884,46.129L46.95,45.994L47.014,45.857L47.078,45.72L47.14,45.584L47.202,45.444L47.263,45.306L47.322,45.167L47.38,45.027L47.437,44.887L47.493,44.745L47.547,44.604L47.6,44.462L47.652,44.32L47.703,44.177L47.753,44.033L47.802,43.888L47.849,43.744L47.895,43.599L47.94,43.453L47.983,43.307L48.026,43.16L48.067,43.012L48.107,42.864L48.146,42.716L48.183,42.568L48.219,42.418L48.254,42.268L48.287,42.118L48.32,41.967L48.351,41.815L48.38,41.664L48.409,41.512L48.435,41.36L48.461,41.206L48.486,41.053L48.509,40.899L48.53,40.744L48.551,40.589L48.57,40.434L48.587,40.279L48.603,40.122L48.618,39.965L48.632,39.809L48.644,39.65L48.655,39.493L48.664,39.335L48.672,39.177L48.678,39.017L48.683,38.858L48.687,38.698L48.689,38.537L48.69,38.377L48.689,38.214L48.687,38.05L48.683,37.888L48.678,37.726L48.671,37.563L48.663,37.403L48.654,37.242L48.643,37.081L48.63,36.922L48.616,36.762L48.601,36.602L48.584,36.443L48.566,36.286L48.547,36.128L48.526,35.971L48.504,35.814L48.48,35.657L48.455,35.502L48.428,35.346L48.401,35.191L48.372,35.037L48.341,34.883L48.309,34.729L48.276,34.576L48.242,34.424L48.206,34.272L48.169,34.12L48.13,33.969L48.091,33.818L48.049,33.668L48.008,33.519L47.964,33.371L47.919,33.222L47.873,33.074L47.825,32.927L47.777,32.78L47.727,32.633L47.676,32.488L47.624,32.344L47.57,32.198L47.515,32.054L47.459,31.912L47.402,31.769L47.343,31.626L47.284,31.485L47.223,31.344L47.161,31.204L47.098,31.064L47.034,30.925L46.968,30.787L46.901,30.648L46.833,30.511L46.765,30.375L46.694,30.239L46.623,30.103L46.55,29.968L46.477,29.835L46.403,29.701L46.327,29.569L46.25,29.437L46.172,29.305L46.093,29.176L46.013,29.045L45.926,28.906L45.852,28.781L45.786,28.651L45.727,28.518L45.676,28.382L45.633,28.243L45.599,28.102L45.572,27.959L45.554,27.815L45.545,27.669L45.544,27.524L45.551,27.379L45.567,27.234L45.591,27.091L45.623,26.949L45.664,26.809L45.712,26.672L45.769,26.538L45.833,26.408L45.905,26.281L45.984,26.159L46.07,26.042L46.162,25.93L46.261,25.823L46.366,25.723L46.477,25.628L46.593,25.54L46.714,25.46L46.839,25.386L46.969,25.32L47.102,25.261L47.238,25.21L47.377,25.167L47.518,25.133L47.661,25.106L47.806,25.088L47.951,25.079L48.096,25.078L48.241,25.085Z" style="fill:rgb(17,17,17);"/>
                        <path id="path21" d="M55.182,18.039L55.369,18.053L55.553,18.082L55.736,18.124L55.914,18.18L56.088,18.248L56.256,18.33L56.418,18.424L56.572,18.53L56.718,18.647L56.855,18.774L56.981,18.911L57.098,19.058L57.277,19.302L57.461,19.558L57.643,19.816L57.822,20.076L57.998,20.337L58.172,20.6L58.344,20.865L58.513,21.132L58.68,21.401L58.844,21.671L59.006,21.943L59.165,22.216L59.321,22.492L59.475,22.769L59.626,23.048L59.775,23.329L59.921,23.61L60.064,23.894L60.205,24.179L60.343,24.466L60.478,24.754L60.61,25.044L60.74,25.336L60.867,25.629L60.991,25.923L61.112,26.219L61.23,26.516L61.346,26.815L61.459,27.115L61.568,27.417L61.675,27.72L61.779,28.024L61.88,28.329L61.979,28.637L62.074,28.945L62.166,29.254L62.255,29.566L62.341,29.878L62.424,30.191L62.504,30.506L62.581,30.821L62.655,31.139L62.726,31.457L62.794,31.776L62.858,32.096L62.92,32.418L62.978,32.742L63.033,33.065L63.085,33.39L63.133,33.716L63.179,34.043L63.221,34.371L63.26,34.699L63.295,35.029L63.328,35.36L63.356,35.692L63.382,36.025L63.404,36.358L63.423,36.692L63.439,37.028L63.451,37.364L63.459,37.701L63.464,38.038L63.466,38.377L63.464,38.713L63.459,39.047L63.451,39.38L63.439,39.714L63.424,40.046L63.405,40.377L63.383,40.708L63.358,41.038L63.33,41.367L63.298,41.694L63.263,42.021L63.225,42.347L63.184,42.672L63.139,42.996L63.091,43.319L63.04,43.641L62.986,43.962L62.929,44.282L62.869,44.601L62.805,44.919L62.739,45.236L62.669,45.551L62.596,45.865L62.521,46.178L62.442,46.49L62.36,46.801L62.275,47.111L62.188,47.419L62.097,47.726L62.004,48.032L61.907,48.337L61.808,48.639L61.705,48.941L61.6,49.242L61.492,49.541L61.381,49.839L61.268,50.136L61.151,50.43L61.032,50.724L60.91,51.017L60.785,51.307L60.658,51.596L60.527,51.884L60.394,52.17L60.259,52.455L60.12,52.738L59.98,53.02L59.836,53.3L59.69,53.579L59.541,53.856L59.39,54.13L59.236,54.404L59.079,54.676L58.92,54.946L58.758,55.215L58.594,55.482L58.428,55.747L58.259,56.011L58.088,56.272L57.914,56.532L57.737,56.79L57.559,57.047L57.378,57.301L57.201,57.544L57.086,57.691L56.96,57.829L56.824,57.958L56.679,58.075L56.525,58.182L56.364,58.277L56.196,58.359L56.023,58.429L55.844,58.486L55.663,58.529L55.478,58.558L55.292,58.573L55.105,58.575L54.918,58.562L54.733,58.536L54.55,58.496L54.371,58.442L54.197,58.375L54.028,58.296L53.865,58.203L53.71,58.099L53.563,57.984L53.425,57.858L53.296,57.722L53.179,57.577L53.072,57.423L52.977,57.262L52.895,57.094L52.825,56.921L52.769,56.742L52.725,56.561L52.696,56.376L52.681,56.19L52.679,56.003L52.692,55.816L52.718,55.631L52.758,55.448L52.812,55.269L52.879,55.095L52.958,54.926L53.051,54.763L53.155,54.608L53.317,54.384L53.47,54.168L53.622,53.951L53.771,53.733L53.918,53.513L54.063,53.291L54.206,53.068L54.347,52.843L54.486,52.617L54.623,52.39L54.757,52.162L54.89,51.931L55.02,51.7L55.148,51.467L55.274,51.233L55.398,50.997L55.519,50.761L55.638,50.522L55.755,50.283L55.87,50.042L55.982,49.8L56.092,49.557L56.2,49.312L56.306,49.067L56.409,48.82L56.509,48.572L56.608,48.322L56.704,48.072L56.798,47.82L56.889,47.567L56.978,47.314L57.064,47.059L57.148,46.802L57.23,46.545L57.309,46.287L57.385,46.027L57.459,45.767L57.531,45.505L57.6,45.243L57.667,44.979L57.73,44.715L57.792,44.449L57.851,44.182L57.907,43.915L57.961,43.646L58.012,43.377L58.06,43.106L58.106,42.835L58.149,42.563L58.189,42.289L58.227,42.015L58.262,41.741L58.294,41.465L58.324,41.188L58.351,40.91L58.375,40.632L58.396,40.353L58.414,40.073L58.43,39.792L58.443,39.511L58.453,39.229L58.46,38.945L58.465,38.661L58.466,38.377L58.465,38.09L58.46,37.803L58.453,37.517L58.443,37.233L58.429,36.949L58.413,36.665L58.395,36.382L58.373,36.101L58.349,35.819L58.321,35.54L58.291,35.26L58.258,34.982L58.223,34.705L58.184,34.428L58.143,34.153L58.099,33.878L58.053,33.603L58.004,33.331L57.952,33.059L57.897,32.788L57.84,32.518L57.78,32.249L57.718,31.982L57.653,31.715L57.585,31.449L57.515,31.184L57.442,30.92L57.367,30.657L57.289,30.396L57.208,30.135L57.125,29.876L57.04,29.618L56.952,29.36L56.862,29.104L56.769,28.849L56.674,28.596L56.576,28.343L56.476,28.092L56.373,27.841L56.268,27.593L56.161,27.345L56.052,27.099L55.94,26.854L55.825,26.61L55.709,26.367L55.59,26.127L55.469,25.887L55.345,25.648L55.22,25.411L55.092,25.175L54.962,24.941L54.83,24.708L54.695,24.476L54.558,24.246L54.419,24.017L54.278,23.79L54.135,23.564L53.99,23.34L53.842,23.117L53.692,22.895L53.541,22.675L53.387,22.457L53.231,22.241L53.066,22.016L52.962,21.861L52.868,21.699L52.788,21.53L52.72,21.356L52.665,21.177L52.624,20.995L52.597,20.81L52.583,20.624L52.584,20.437L52.598,20.25L52.627,20.065L52.669,19.883L52.725,19.705L52.793,19.531L52.875,19.363L52.969,19.201L53.075,19.047L53.192,18.901L53.319,18.764L53.456,18.638L53.603,18.521L53.758,18.417L53.92,18.324L54.089,18.243L54.263,18.175L54.442,18.12L54.624,18.079L54.809,18.052L54.995,18.038L55.182,18.039Z" style="fill:rgb(17,17,17);"/>
                        <path id="path13" d="M61.903,11.527L62.118,11.562L62.33,11.616L62.536,11.688L62.734,11.778L62.925,11.884L63.105,12.007L63.274,12.145L63.43,12.297L63.572,12.462L63.828,12.787L64.089,13.124L64.346,13.464L64.6,13.807L64.85,14.153L65.097,14.501L65.34,14.852L65.58,15.205L65.817,15.561L66.049,15.92L66.279,16.281L66.504,16.644L66.726,17.01L66.945,17.379L67.159,17.75L67.37,18.123L67.578,18.499L67.781,18.877L67.981,19.258L68.177,19.641L68.369,20.026L68.557,20.413L68.741,20.802L68.922,21.194L69.098,21.588L69.271,21.984L69.439,22.383L69.604,22.783L69.764,23.186L69.92,23.59L70.073,23.996L70.221,24.405L70.365,24.816L70.505,25.228L70.64,25.642L70.772,26.059L70.899,26.477L71.022,26.897L71.14,27.319L71.254,27.742L71.364,28.168L71.47,28.595L71.571,29.024L71.667,29.454L71.76,29.887L71.847,30.321L71.93,30.756L72.009,31.193L72.083,31.632L72.152,32.072L72.217,32.513L72.277,32.956L72.333,33.401L72.384,33.847L72.43,34.294L72.471,34.743L72.508,35.193L72.539,35.644L72.566,36.097L72.589,36.551L72.606,37.006L72.618,37.462L72.626,37.919L72.628,38.378L72.626,38.834L72.618,39.288L72.606,39.741L72.589,40.193L72.567,40.644L72.541,41.093L72.509,41.542L72.473,41.988L72.432,42.434L72.387,42.878L72.337,43.322L72.282,43.763L72.222,44.203L72.158,44.642L72.09,45.08L72.017,45.515L71.939,45.949L71.857,46.382L71.77,46.813L71.679,47.243L71.584,47.671L71.484,48.097L71.38,48.522L71.272,48.944L71.159,49.365L71.042,49.785L70.92,50.202L70.795,50.618L70.665,51.032L70.531,51.444L70.393,51.854L70.251,52.262L70.104,52.668L69.954,53.073L69.799,53.475L69.641,53.875L69.478,54.274L69.312,54.67L69.141,55.064L68.967,55.455L68.789,55.845L68.607,56.233L68.421,56.618L68.231,57.001L68.037,57.383L67.84,57.761L67.639,58.137L67.434,58.511L67.225,58.883L67.013,59.253L66.797,59.619L66.578,59.984L66.355,60.346L66.128,60.706L65.898,61.063L65.664,61.417L65.427,61.769L65.187,62.119L64.943,62.466L64.695,62.81L64.444,63.152L64.19,63.491L63.933,63.827L63.68,64.151L63.538,64.317L63.382,64.469L63.214,64.608L63.034,64.732L62.844,64.839L62.646,64.929L62.44,65.002L62.229,65.057L62.014,65.092L61.796,65.109L61.578,65.108L61.361,65.087L61.147,65.047L60.937,64.988L60.732,64.912L60.536,64.818L60.348,64.707L60.17,64.581L60.004,64.439L59.852,64.283L59.713,64.115L59.589,63.935L59.482,63.745L59.392,63.547L59.319,63.341L59.264,63.13L59.229,62.915L59.212,62.697L59.214,62.479L59.234,62.262L59.274,62.048L59.333,61.838L59.409,61.633L59.503,61.437L59.614,61.249L59.74,61.071L59.978,60.767L60.205,60.471L60.429,60.172L60.65,59.871L60.868,59.568L61.083,59.263L61.295,58.955L61.503,58.645L61.709,58.333L61.912,58.019L62.111,57.702L62.307,57.383L62.5,57.063L62.691,56.739L62.877,56.415L63.061,56.088L63.241,55.758L63.418,55.427L63.592,55.094L63.762,54.759L63.929,54.422L64.092,54.083L64.253,53.742L64.409,53.4L64.562,53.055L64.712,52.708L64.859,52.36L65.002,52.01L65.141,51.658L65.277,51.305L65.409,50.949L65.538,50.592L65.663,50.233L65.784,49.873L65.902,49.511L66.016,49.147L66.126,48.782L66.233,48.415L66.336,48.046L66.435,47.676L66.53,47.304L66.622,46.931L66.71,46.557L66.793,46.181L66.873,45.803L66.95,45.424L67.022,45.044L67.09,44.662L67.154,44.278L67.215,43.894L67.271,43.508L67.323,43.121L67.371,42.732L67.416,42.343L67.456,41.952L67.491,41.559L67.523,41.165L67.551,40.771L67.574,40.375L67.594,39.978L67.609,39.58L67.619,39.18L67.626,38.779L67.628,38.378L67.626,37.974L67.619,37.57L67.608,37.168L67.593,36.767L67.574,36.367L67.55,35.969L67.522,35.571L67.49,35.175L67.453,34.78L67.413,34.386L67.368,33.994L67.319,33.603L67.266,33.213L67.209,32.824L67.148,32.437L67.083,32.052L67.014,31.667L66.941,31.284L66.864,30.903L66.783,30.523L66.698,30.145L66.609,29.768L66.516,29.392L66.42,29.018L66.319,28.646L66.215,28.275L66.107,27.906L65.996,27.538L65.88,27.173L65.761,26.808L65.638,26.446L65.511,26.085L65.381,25.726L65.247,25.368L65.11,25.013L64.969,24.659L64.824,24.307L64.676,23.957L64.524,23.608L64.369,23.262L64.211,22.918L64.048,22.575L63.883,22.234L63.714,21.895L63.542,21.559L63.366,21.224L63.187,20.891L63.005,20.561L62.819,20.232L62.63,19.905L62.438,19.581L62.242,19.259L62.044,18.939L61.842,18.621L61.637,18.306L61.429,17.992L61.218,17.681L61.003,17.372L60.786,17.066L60.566,16.761L60.342,16.459L60.116,16.16L59.886,15.863L59.646,15.558L59.518,15.381L59.407,15.193L59.312,14.997L59.235,14.793L59.176,14.583L59.135,14.369L59.113,14.152L59.11,13.934L59.126,13.716L59.161,13.501L59.215,13.289L59.287,13.083L59.377,12.885L59.483,12.694L59.606,12.514L59.744,12.345L59.896,12.189L60.061,12.047L60.238,11.919L60.426,11.808L60.622,11.713L60.826,11.636L61.036,11.577L61.25,11.536L61.467,11.514L61.685,11.511L61.903,11.527Z" style="fill:rgb(17,17,17);"/>
                    </g>
                </g>
            </g>
            <g transform="matrix(0.735632,0,0,1.44,288.411,-250.374)">
                <path d="M372.25,318.861L372.25,310.111L391.281,310.111L391.281,301.986L415.75,314.486L391.281,326.986L391.281,318.861L372.25,318.861Z" style="fill:rgb(20,20,20);"/>
            </g>
            <g transform="matrix(1,0,0,1,48.5,7.33333)">
                <path d="M390.132,202.75L391.014,202.75L391.014,200.764C391.224,200.56 391.38,200.452 391.62,200.452C391.944,200.452 392.058,200.632 392.058,201.028L392.058,202.75L392.94,202.75L392.94,200.914C392.94,200.164 392.64,199.702 391.974,199.702C391.524,199.702 391.206,199.918 390.984,200.146L390.966,200.146L391.014,199.576L391.014,198.544L390.132,198.544L390.132,202.75Z" style="fill:rgb(164,164,164);fill-rule:nonzero;"/>
                <path d="M394.968,202.75L395.85,202.75L395.85,199.774L393.774,199.774L393.774,200.464L394.968,200.464L394.968,202.75ZM395.37,199.306C395.712,199.306 395.958,199.096 395.958,198.772C395.958,198.448 395.712,198.22 395.37,198.22C395.028,198.22 394.782,198.448 394.782,198.772C394.782,199.096 395.028,199.306 395.37,199.306Z" style="fill:rgb(164,164,164);fill-rule:nonzero;"/>
                <path d="M398.676,202.822C399.63,202.822 400.14,202.402 400.14,201.862C400.14,201.376 399.888,201.118 398.97,200.908C398.466,200.794 398.28,200.758 398.28,200.59C398.28,200.452 398.418,200.356 398.694,200.356C399.024,200.356 399.366,200.458 399.666,200.638L400.062,200.11C399.75,199.912 399.306,199.702 398.772,199.702C397.926,199.702 397.404,200.08 397.404,200.632C397.404,201.094 397.728,201.388 398.538,201.562C399.12,201.688 399.27,201.748 399.27,201.916C399.27,202.06 399.12,202.168 398.796,202.168C398.37,202.168 397.962,202.042 397.596,201.814L397.218,202.366C397.596,202.618 398.142,202.822 398.676,202.822Z" style="fill:rgb(164,164,164);fill-rule:nonzero;"/>
                <path d="M402.48,202.822C402.876,202.822 403.32,202.69 403.662,202.474L403.368,201.94C403.104,202.078 402.87,202.15 402.6,202.15C402.114,202.15 401.796,201.958 401.712,201.526L403.74,201.526C403.752,201.454 403.782,201.292 403.782,201.13C403.782,200.32 403.296,199.702 402.378,199.702C401.58,199.702 400.83,200.284 400.83,201.262C400.83,202.252 401.55,202.822 402.48,202.822ZM402.408,200.374C402.75,200.374 402.954,200.566 402.996,200.932L401.724,200.932C401.814,200.56 402.06,200.374 402.408,200.374Z" style="fill:rgb(164,164,164);fill-rule:nonzero;"/>
                <path d="M405.9,200.884C406.314,200.884 406.596,200.578 406.596,200.182C406.596,199.786 406.314,199.474 405.9,199.474C405.486,199.474 405.204,199.786 405.204,200.182C405.204,200.578 405.486,200.884 405.9,200.884ZM405.9,202.822C406.314,202.822 406.596,202.516 406.596,202.12C406.596,201.724 406.314,201.412 405.9,201.412C405.486,201.412 405.204,201.724 405.204,202.12C405.204,202.516 405.486,202.822 405.9,202.822Z" style="fill:rgb(164,164,164);fill-rule:nonzero;"/>
                <path d="M409.5,200.884C409.914,200.884 410.196,200.578 410.196,200.182C410.196,199.786 409.914,199.474 409.5,199.474C409.086,199.474 408.804,199.786 408.804,200.182C408.804,200.578 409.086,200.884 409.5,200.884ZM409.5,202.822C409.914,202.822 410.196,202.516 410.196,202.12C410.196,201.724 409.914,201.412 409.5,201.412C409.086,201.412 408.804,201.724 408.804,202.12C408.804,202.516 409.086,202.822 409.5,202.822Z" style="fill:rgb(164,164,164);fill-rule:nonzero;"/>
                <path d="M411.852,202.75L414.504,202.75L414.504,202.006L412.74,202.006L412.74,201.106L414.186,201.106L414.186,200.368L412.74,200.368L412.74,199.582L414.444,199.582L414.444,198.838L411.852,198.838L411.852,202.75Z" style="fill:rgb(164,164,164);fill-rule:nonzero;"/>
                <path d="M416.178,202.75L417.06,202.75L417.06,200.464L418.086,200.464L418.086,199.774L417.06,199.774L417.06,199.69C417.06,199.33 417.24,199.168 417.618,199.168C417.846,199.168 418.056,199.21 418.242,199.282L418.41,198.634C418.158,198.55 417.852,198.472 417.51,198.472C416.58,198.472 416.178,199.012 416.178,199.696L416.178,199.774L415.392,199.81L415.392,200.464L416.178,200.464L416.178,202.75Z" style="fill:rgb(164,164,164);fill-rule:nonzero;"/>
                <path d="M419.778,202.75L420.66,202.75L420.66,200.464L421.686,200.464L421.686,199.774L420.66,199.774L420.66,199.69C420.66,199.33 420.84,199.168 421.218,199.168C421.446,199.168 421.656,199.21 421.842,199.282L422.01,198.634C421.758,198.55 421.452,198.472 421.11,198.472C420.18,198.472 419.778,199.012 419.778,199.696L419.778,199.774L418.992,199.81L418.992,200.464L419.778,200.464L419.778,202.75Z" style="fill:rgb(164,164,164);fill-rule:nonzero;"/>
                <path d="M424.08,202.822C424.476,202.822 424.92,202.69 425.262,202.474L424.968,201.94C424.704,202.078 424.47,202.15 424.2,202.15C423.714,202.15 423.396,201.958 423.312,201.526L425.34,201.526C425.352,201.454 425.382,201.292 425.382,201.13C425.382,200.32 424.896,199.702 423.978,199.702C423.18,199.702 422.43,200.284 422.43,201.262C422.43,202.252 423.15,202.822 424.08,202.822ZM424.008,200.374C424.35,200.374 424.554,200.566 424.596,200.932L423.324,200.932C423.414,200.56 423.66,200.374 424.008,200.374Z" style="fill:rgb(164,164,164);fill-rule:nonzero;"/>
                <path d="M427.758,202.822C428.166,202.822 428.622,202.684 428.982,202.384L428.628,201.826C428.412,201.976 428.154,202.108 427.842,202.108C427.35,202.108 427.008,201.778 427.008,201.262C427.008,200.746 427.362,200.416 427.872,200.416C428.094,200.416 428.304,200.488 428.532,200.65L428.94,200.104C428.688,199.87 428.292,199.702 427.824,199.702C426.906,199.702 426.102,200.272 426.102,201.262C426.102,202.252 426.822,202.822 427.758,202.822Z" style="fill:rgb(164,164,164);fill-rule:nonzero;"/>
                <path d="M431.628,202.822C432.024,202.822 432.336,202.738 432.6,202.66L432.444,202.024C432.264,202.084 432.078,202.132 431.856,202.132C431.418,202.132 431.226,201.958 431.226,201.508L431.226,200.464L432.486,200.464L432.486,199.774L431.226,199.774L431.226,198.862L430.5,198.862L430.386,199.774L429.594,199.81L429.594,200.464L430.344,200.464L430.344,201.514C430.344,202.294 430.68,202.822 431.628,202.822Z" style="fill:rgb(164,164,164);fill-rule:nonzero;"/>
                <path d="M433.35,202.75L434.232,202.75L434.232,201.424L434.736,201.424C435.564,201.424 436.266,201.016 436.266,200.098C436.266,199.15 435.582,198.838 434.736,198.838L433.35,198.838L433.35,202.75ZM434.232,200.722L434.232,199.54L434.682,199.54C435.15,199.54 435.402,199.69 435.402,200.098C435.402,200.506 435.168,200.722 434.682,200.722L434.232,200.722Z" style="fill:rgb(164,164,164);fill-rule:nonzero;"/>
                <path d="M437.196,202.75L438.078,202.75L438.078,201.202C438.33,200.668 438.714,200.476 439.08,200.476C439.302,200.476 439.422,200.506 439.608,200.56L439.788,199.822C439.614,199.744 439.476,199.702 439.212,199.702C438.738,199.702 438.3,199.936 438.006,200.422L437.988,200.422L437.916,199.774L437.196,199.774L437.196,202.75Z" style="fill:rgb(164,164,164);fill-rule:nonzero;"/>
                <path d="M441.9,202.822C442.686,202.822 443.418,202.252 443.418,201.262C443.418,200.272 442.686,199.702 441.9,199.702C441.114,199.702 440.382,200.272 440.382,201.262C440.382,202.252 441.114,202.822 441.9,202.822ZM441.9,202.108C441.492,202.108 441.288,201.778 441.288,201.262C441.288,200.746 441.492,200.416 441.9,200.416C442.308,200.416 442.512,200.746 442.512,201.262C442.512,201.778 442.308,202.108 441.9,202.108Z" style="fill:rgb(164,164,164);fill-rule:nonzero;"/>
                <path d="M445.758,202.822C446.166,202.822 446.622,202.684 446.982,202.384L446.628,201.826C446.412,201.976 446.154,202.108 445.842,202.108C445.35,202.108 445.008,201.778 445.008,201.262C445.008,200.746 445.362,200.416 445.872,200.416C446.094,200.416 446.304,200.488 446.532,200.65L446.94,200.104C446.688,199.87 446.292,199.702 445.824,199.702C444.906,199.702 444.102,200.272 444.102,201.262C444.102,202.252 444.822,202.822 445.758,202.822Z" style="fill:rgb(164,164,164);fill-rule:nonzero;"/>
                <path d="M449.28,202.822C449.676,202.822 450.12,202.69 450.462,202.474L450.168,201.94C449.904,202.078 449.67,202.15 449.4,202.15C448.914,202.15 448.596,201.958 448.512,201.526L450.54,201.526C450.552,201.454 450.582,201.292 450.582,201.13C450.582,200.32 450.096,199.702 449.178,199.702C448.38,199.702 447.63,200.284 447.63,201.262C447.63,202.252 448.35,202.822 449.28,202.822ZM449.208,200.374C449.55,200.374 449.754,200.566 449.796,200.932L448.524,200.932C448.614,200.56 448.86,200.374 449.208,200.374Z" style="fill:rgb(164,164,164);fill-rule:nonzero;"/>
                <path d="M452.676,202.822C453.63,202.822 454.14,202.402 454.14,201.862C454.14,201.376 453.888,201.118 452.97,200.908C452.466,200.794 452.28,200.758 452.28,200.59C452.28,200.452 452.418,200.356 452.694,200.356C453.024,200.356 453.366,200.458 453.666,200.638L454.062,200.11C453.75,199.912 453.306,199.702 452.772,199.702C451.926,199.702 451.404,200.08 451.404,200.632C451.404,201.094 451.728,201.388 452.538,201.562C453.12,201.688 453.27,201.748 453.27,201.916C453.27,202.06 453.12,202.168 452.796,202.168C452.37,202.168 451.962,202.042 451.596,201.814L451.218,202.366C451.596,202.618 452.142,202.822 452.676,202.822Z" style="fill:rgb(164,164,164);fill-rule:nonzero;"/>
                <path d="M456.276,202.822C457.23,202.822 457.74,202.402 457.74,201.862C457.74,201.376 457.488,201.118 456.57,200.908C456.066,200.794 455.88,200.758 455.88,200.59C455.88,200.452 456.018,200.356 456.294,200.356C456.624,200.356 456.966,200.458 457.266,200.638L457.662,200.11C457.35,199.912 456.906,199.702 456.372,199.702C455.526,199.702 455.004,200.08 455.004,200.632C455.004,201.094 455.328,201.388 456.138,201.562C456.72,201.688 456.87,201.748 456.87,201.916C456.87,202.06 456.72,202.168 456.396,202.168C455.97,202.168 455.562,202.042 455.196,201.814L454.818,202.366C455.196,202.618 455.742,202.822 456.276,202.822Z" style="fill:rgb(164,164,164);fill-rule:nonzero;"/>
                <path d="M459.9,202.822C460.686,202.822 461.418,202.252 461.418,201.262C461.418,200.272 460.686,199.702 459.9,199.702C459.114,199.702 458.382,200.272 458.382,201.262C458.382,202.252 459.114,202.822 459.9,202.822ZM459.9,202.108C459.492,202.108 459.288,201.778 459.288,201.262C459.288,200.746 459.492,200.416 459.9,200.416C460.308,200.416 460.512,200.746 460.512,201.262C460.512,201.778 460.308,202.108 459.9,202.108Z" style="fill:rgb(164,164,164);fill-rule:nonzero;"/>
                <path d="M462.396,202.75L463.278,202.75L463.278,201.202C463.53,200.668 463.914,200.476 464.28,200.476C464.502,200.476 464.622,200.506 464.808,200.56L464.988,199.822C464.814,199.744 464.676,199.702 464.412,199.702C463.938,199.702 463.5,199.936 463.206,200.422L463.188,200.422L463.116,199.774L462.396,199.774L462.396,202.75Z" style="fill:rgb(164,164,164);fill-rule:nonzero;"/>
            </g>
        </g>
    </g>
</svg>
