<?xml version="1.0" encoding="UTF-8" standalone="no"?>
<!DOCTYPE svg PUBLIC "-//W3C//DTD SVG 1.1//EN" "http://www.w3.org/Graphics/SVG/1.1/DTD/svg11.dtd">
<svg width="100%" height="100%" viewBox="0 0 1182 1182" version="1.1" xmlns="http://www.w3.org/2000/svg" xmlns:xlink="http://www.w3.org/1999/xlink" xml:space="preserve" xmlns:serif="http://www.serif.com/" style="fill-rule:evenodd;clip-rule:evenodd;stroke-linecap:round;stroke-linejoin:round;stroke-miterlimit:1.5;">
    <circle cx="593.056" cy="580.211" r="547.535" style="fill:none;stroke:black;stroke-width:48.69px;"/>
    <circle cx="593.056" cy="580.211" r="490.563"/>
    <path d="M228.485,701.036L273.779,701.036L273.779,596.419L392.928,596.419L392.928,701.036L438.221,701.036L438.221,463.678L392.928,463.678L392.928,558.235L273.779,558.235L273.779,463.678L228.485,463.678L228.485,701.036Z" style="fill:white;fill-rule:nonzero;stroke:white;stroke-width:1px;stroke-linecap:butt;stroke-miterlimit:1.41421;"/>
    <rect x="494.04" y="463.678" width="45.294" height="237.358" style="fill:white;fill-rule:nonzero;stroke:white;stroke-width:1px;stroke-linecap:butt;stroke-miterlimit:1.41421;"/>
    <path d="M753.075,482.093C733.303,464.676 706.7,457.642 680.056,457.642C632.891,457.642 586.157,480.418 586.157,529.365C586.157,614.219 707.06,584.369 707.06,636.355C707.06,658.155 683.296,668.888 662.413,668.888C642.251,668.888 623.184,659.832 612.04,644.069L577.881,674.917C598.739,698.028 629.655,707.071 661.333,707.071C711.374,707.071 754.513,682.286 754.513,631.324C754.513,546.805 633.609,573.972 633.609,526.346C633.609,504.545 654.492,495.826 675.375,495.826C693.018,495.826 710.295,501.862 720.001,514.607L753.075,482.093Z" style="fill:white;fill-rule:nonzero;stroke:white;stroke-width:1px;stroke-linecap:butt;stroke-miterlimit:1.41421;"/>
    <path d="M801.695,701.036L976.888,701.036L976.888,662.852L846.989,662.852L846.989,598.431L963.934,598.431L963.934,560.247L846.989,560.247L846.989,501.861L970.411,501.861L970.411,463.678L801.695,463.678L801.695,701.036Z" style="fill:white;fill-rule:nonzero;stroke:white;stroke-width:1px;stroke-linecap:butt;stroke-miterlimit:1.41421;"/>
</svg>
