<?xml version="1.0" encoding="UTF-8" standalone="no"?>
<!DOCTYPE svg PUBLIC "-//W3C//DTD SVG 1.1//EN" "http://www.w3.org/Graphics/SVG/1.1/DTD/svg11.dtd">
<svg width="100%" height="100%" viewBox="0 0 347 102" version="1.1" xmlns="http://www.w3.org/2000/svg" xmlns:xlink="http://www.w3.org/1999/xlink" xml:space="preserve" style="fill-rule:evenodd;clip-rule:evenodd;stroke-linecap:round;stroke-linejoin:round;stroke-miterlimit:1.5;">
    <g transform="matrix(1,0,0,1,-306.664,-339.333)">
        <g transform="matrix(1,0,0,1,2.66667,182.5)">
            <g transform="matrix(1,0,0,1,34.5,3.5)">
                <g transform="matrix(1,0,0,1.48039,18,-66.364)">
                    <rect x="351.333" y="148.405" width="142" height="68" style="fill:rgb(219,102,70);"/>
                </g>
                <g transform="matrix(1,0,0,1,37.5,10)">
                    <path d="M361.026,186.82L357.7,179.085L357.422,178.346L357.473,180.997L357.473,187.486L356.287,187.486L356.287,176.654L357.927,176.654L361.699,185.282L365.435,176.654L367.031,176.654L367.031,187.486L365.801,187.486L365.801,180.968L365.852,178.375L365.581,179.115L362.263,186.82L361.026,186.82Z" style="fill-rule:nonzero;"/>
                    <rect x="369.646" y="176.654" width="1.267" height="10.833" style="fill-rule:nonzero;"/>
                    <path d="M381.094,182.096C381.094,180.582 380.703,179.481 379.922,178.792C379.141,178.104 378.003,177.76 376.509,177.76L374.81,177.76L374.81,186.38L376.721,186.38C378.147,186.38 379.232,186.02 379.977,185.3C380.722,184.58 381.094,183.512 381.094,182.096ZM382.449,182.059C382.449,183.822 381.948,185.167 380.948,186.095C379.947,187.022 378.55,187.486 376.758,187.486L373.543,187.486L373.543,176.654L376.546,176.654C377.449,176.654 378.257,176.76 378.97,176.972C379.683,177.185 380.302,177.507 380.827,177.939C381.352,178.371 381.753,178.935 382.031,179.631C382.31,180.327 382.449,181.136 382.449,182.059Z" style="fill-rule:nonzero;"/>
                    <rect x="384.602" y="176.654" width="1.267" height="10.833" style="fill-rule:nonzero;"/>
                    <path d="M393.333,187.486L392.036,187.486L392.036,176.529L395.567,176.529C396.104,176.529 396.59,176.585 397.024,176.698C397.459,176.81 397.844,176.981 398.181,177.21C398.518,177.44 398.78,177.748 398.965,178.133C399.151,178.519 399.243,178.968 399.243,179.481C399.243,179.906 399.204,180.285 399.126,180.62C399.048,180.954 398.914,181.268 398.723,181.561C398.533,181.854 398.284,182.097 397.976,182.29C397.669,182.483 397.274,182.634 396.793,182.744C396.312,182.854 395.755,182.909 395.12,182.909C394.617,182.909 394.021,182.877 393.333,182.813L393.333,187.486ZM395.244,181.788C395.723,181.788 396.133,181.742 396.475,181.649C396.817,181.556 397.079,181.441 397.262,181.305C397.445,181.168 397.589,180.99 397.694,180.77C397.799,180.55 397.864,180.349 397.888,180.166C397.913,179.983 397.925,179.762 397.925,179.503C397.925,178.883 397.716,178.426 397.299,178.133C396.881,177.84 396.314,177.694 395.596,177.694L393.333,177.694L393.333,181.773C394.275,181.783 394.912,181.788 395.244,181.788Z" style="fill-rule:nonzero;"/>
                    <path d="M404.107,179.378C404.326,179.378 404.527,179.393 404.707,179.422L404.663,180.55C404.439,180.511 404.243,180.492 404.077,180.492C403.394,180.492 402.838,180.73 402.411,181.206C401.984,181.682 401.77,182.271 401.77,182.975L401.77,187.486L400.547,187.486C400.542,182.555 400.54,179.876 400.54,179.452L401.558,179.452L401.675,180.894C401.953,180.44 402.307,180.074 402.737,179.796C403.167,179.518 403.623,179.378 404.107,179.378Z" style="fill-rule:nonzero;"/>
                    <path d="M406.714,183.487C406.714,184.439 406.925,185.202 407.348,185.776C407.77,186.35 408.386,186.637 409.197,186.637C409.998,186.637 410.602,186.351 411.01,185.78C411.417,185.208 411.621,184.439 411.621,183.473C411.621,182.491 411.42,181.718 411.017,181.154C410.614,180.591 410,180.309 409.175,180.309C408.374,180.309 407.764,180.597 407.344,181.173C406.924,181.749 406.714,182.52 406.714,183.487ZM412.888,183.465C412.888,184.71 412.556,185.72 411.892,186.494C411.228,187.268 410.31,187.655 409.138,187.655C408.01,187.655 407.113,187.264 406.447,186.483C405.78,185.702 405.447,184.698 405.447,183.473C405.447,182.223 405.781,181.212 406.45,180.44C407.119,179.669 408.037,179.283 409.204,179.283C410.352,179.283 411.253,179.67 411.907,180.444C412.561,181.218 412.888,182.225 412.888,183.465Z" style="fill-rule:nonzero;"/>
                    <path d="M418.015,187.655C416.834,187.655 415.91,187.271 415.243,186.505C414.577,185.738 414.243,184.735 414.243,183.495C414.248,182.245 414.589,181.23 415.265,180.451C415.941,179.673 416.868,179.283 418.045,179.283C418.46,179.283 418.861,179.334 419.25,179.437C419.638,179.539 419.944,179.674 420.169,179.84L419.832,180.792C419.26,180.484 418.657,180.331 418.023,180.331C417.246,180.331 416.632,180.614 416.181,181.18C415.729,181.747 415.503,182.52 415.503,183.502C415.503,184.459 415.727,185.217 416.173,185.776C416.62,186.335 417.239,186.615 418.03,186.615C418.66,186.615 419.304,186.444 419.964,186.102L420.117,187.076C419.585,187.462 418.885,187.655 418.015,187.655Z" style="fill-rule:nonzero;"/>
                    <path d="M424.864,180.294C424.239,180.294 423.728,180.515 423.333,180.957C422.937,181.399 422.705,182.003 422.637,182.769L426.878,182.769C426.878,181.974 426.698,181.362 426.339,180.935C425.98,180.508 425.489,180.294 424.864,180.294ZM425.105,187.655C423.938,187.655 423.019,187.284 422.348,186.541C421.676,185.799 421.341,184.784 421.341,183.495C421.341,182.249 421.665,181.24 422.315,180.466C422.964,179.692 423.819,179.298 424.878,179.283C425.874,179.283 426.664,179.624 427.248,180.305C427.831,180.986 428.123,181.895 428.123,183.033C428.123,183.092 428.122,183.199 428.119,183.355C428.117,183.512 428.115,183.624 428.115,183.692L422.6,183.692C422.615,184.605 422.851,185.317 423.307,185.827C423.764,186.338 424.378,186.593 425.149,186.593C425.999,186.593 426.851,186.368 427.705,185.919L427.896,186.908C427.08,187.406 426.15,187.655 425.105,187.655Z" style="fill-rule:nonzero;"/>
                    <path d="M432.217,187.655C431.67,187.655 431.166,187.596 430.705,187.479C430.243,187.362 429.868,187.21 429.58,187.025L429.734,185.992C430.55,186.427 431.35,186.644 432.136,186.644C433.328,186.644 433.941,186.224 433.975,185.384C433.975,185.028 433.848,184.747 433.594,184.542C433.34,184.337 432.842,184.107 432.1,183.853L431.492,183.641C430.789,183.407 430.287,183.116 429.987,182.769C429.687,182.423 429.534,181.991 429.529,181.473C429.529,180.843 429.782,180.321 430.287,179.906C430.792,179.491 431.485,179.283 432.364,179.283C433.272,179.283 434.099,179.459 434.846,179.81L434.488,180.748C433.731,180.435 433.023,180.279 432.364,180.279C431.851,180.279 431.449,180.381 431.159,180.583C430.868,180.786 430.723,181.07 430.723,181.436C430.723,181.749 430.828,181.988 431.038,182.154C431.248,182.32 431.668,182.511 432.298,182.726C432.459,182.784 432.661,182.852 432.906,182.931C433.716,183.194 434.29,183.506 434.627,183.864C434.964,184.223 435.132,184.708 435.132,185.318C435.122,186.06 434.856,186.635 434.334,187.043C433.811,187.451 433.106,187.655 432.217,187.655Z" style="fill-rule:nonzero;"/>
                    <path d="M439.197,187.655C438.65,187.655 438.146,187.596 437.685,187.479C437.223,187.362 436.848,187.21 436.56,187.025L436.714,185.992C437.53,186.427 438.33,186.644 439.116,186.644C440.308,186.644 440.921,186.224 440.955,185.384C440.955,185.028 440.828,184.747 440.574,184.542C440.32,184.337 439.822,184.107 439.08,183.853L438.472,183.641C437.769,183.407 437.267,183.116 436.967,182.769C436.666,182.423 436.514,181.991 436.509,181.473C436.509,180.843 436.762,180.321 437.267,179.906C437.772,179.491 438.465,179.283 439.343,179.283C440.252,179.283 441.079,179.459 441.826,179.81L441.468,180.748C440.711,180.435 440.003,180.279 439.343,180.279C438.831,180.279 438.429,180.381 438.139,180.583C437.848,180.786 437.703,181.07 437.703,181.436C437.703,181.749 437.808,181.988 438.018,182.154C438.228,182.32 438.648,182.511 439.278,182.726C439.439,182.784 439.641,182.852 439.885,182.931C440.696,183.194 441.27,183.506 441.607,183.864C441.944,184.223 442.112,184.708 442.112,185.318C442.102,186.06 441.836,186.635 441.314,187.043C440.791,187.451 440.086,187.655 439.197,187.655Z" style="fill-rule:nonzero;"/>
                    <path d="M444.676,183.487C444.676,184.439 444.887,185.202 445.309,185.776C445.731,186.35 446.348,186.637 447.158,186.637C447.959,186.637 448.563,186.351 448.971,185.78C449.379,185.208 449.583,184.439 449.583,183.473C449.583,182.491 449.381,181.718 448.979,181.154C448.576,180.591 447.962,180.309 447.136,180.309C446.336,180.309 445.725,180.597 445.305,181.173C444.885,181.749 444.676,182.52 444.676,183.487ZM450.85,183.465C450.85,184.71 450.518,185.72 449.854,186.494C449.19,187.268 448.272,187.655 447.1,187.655C445.972,187.655 445.075,187.264 444.408,186.483C443.742,185.702 443.408,184.698 443.408,183.473C443.408,182.223 443.743,181.212 444.412,180.44C445.081,179.669 445.999,179.283 447.166,179.283C448.313,179.283 449.214,179.67 449.868,180.444C450.523,181.218 450.85,182.225 450.85,183.465Z" style="fill-rule:nonzero;"/>
                    <path d="M456.182,179.378C456.402,179.378 456.602,179.393 456.782,179.422L456.739,180.55C456.514,180.511 456.319,180.492 456.153,180.492C455.469,180.492 454.914,180.73 454.486,181.206C454.059,181.682 453.845,182.271 453.845,182.975L453.845,187.486L452.622,187.486C452.617,182.555 452.615,179.876 452.615,179.452L453.633,179.452L453.75,180.894C454.029,180.44 454.383,180.074 454.812,179.796C455.242,179.518 455.698,179.378 456.182,179.378Z" style="fill-rule:nonzero;"/>
                </g>
                <g transform="matrix(1.00472,0,0,1,16.3428,8.59771)">
                    <rect x="351.333" y="144.736" width="141.333" height="17.333"/>
                </g>
            </g>
            <g transform="matrix(0.735632,0,0,1.44,289.411,-245.874)">
                <path d="M372.25,318.861L372.25,310.111L391.281,310.111L391.281,301.986L415.75,314.486L391.281,326.986L391.281,318.861L372.25,318.861Z" style="fill:rgb(112,112,112);"/>
                <clipPath id="_clip1">
                    <path d="M372.25,318.861L372.25,310.111L391.281,310.111L391.281,301.986L415.75,314.486L391.281,326.986L391.281,318.861L372.25,318.861Z"/>
                </clipPath>
                <g clip-path="url(#_clip1)">
                    <g transform="matrix(1.35937,0,0,0.694444,-397.043,44.0097)">
                        <path d="M480.153,439.988L480.153,408.488L407.153,408.488L548.153,408.488" style="fill:none;stroke:black;stroke-width:1px;"/>
                    </g>
                </g>
            </g>
            <g transform="matrix(1,0,0,1,-2.66667,-182.5)">
                <path d="M480.153,439.988L480.153,408.488L407.153,408.488L548.153,408.488" style="fill:none;stroke:black;stroke-width:1px;"/>
            </g>
            <g transform="matrix(0.00427385,0,0,-0.00427385,303.57,206.472)">
                <g>
                    <path d="M4561,4807.5C3633.8,4725.1 2741,4370.7 1972.8,3778.7C1599.2,3491.3 1116.5,2953 834.8,2510.5C714.1,2322.8 480.4,1841.9 392.3,1602.4C168.2,997.1 64.7,255.7 110.7,-388C135.6,-752 172,-968.5 258.2,-1313.3C346.3,-1654.3 432.5,-1886.1 612.6,-2250.1C865.5,-2763.5 1145.2,-3154.3 1553.2,-3556.7C2095.4,-4091.2 2660.5,-4443.7 3409.6,-4711.9L3616.5,-4786.6L3689.3,-4648.7C3865.5,-4307.7 4156.7,-3972.4 4392.4,-3832.6C4610.8,-3704.3 4733.4,-3669.8 4990.1,-3669.8C5246.8,-3669.8 5369.4,-3704.3 5587.8,-3832.6C5823.4,-3972.5 6135.7,-4338.4 6300.5,-4667.9C6367.6,-4803.9 6333,-4802 6666.4,-4685.1C6951.9,-4583.6 7442.3,-4338.4 7700.9,-4165.9C8260.3,-3794.2 8741.2,-3309.5 9105.1,-2757.8C9258.4,-2524.1 9507.4,-2026 9607,-1754C9829.2,-1146.7 9936.5,-395.7 9888.6,244.1C9798.6,1495.1 9281.3,2598.6 8382.8,3462.6C7365.7,4441.6 5969.1,4932.1 4561,4807.5ZM5580.2,4395.7C6568.7,4278.8 7503.6,3807.6 8229.7,3064.2C8936.6,2336.2 9361.9,1445.4 9482.6,431.9C9515.2,171.4 9509.4,-372.7 9473,-660.1C9270,-2230.9 8243.1,-3591.1 6787.1,-4215.7C6572.5,-4307.7 6561,-4311.5 6536.1,-4277C6197,-3790.4 5971,-3579.7 5605,-3409.2C5373.2,-3300 5197,-3267.4 4915.3,-3280.8C4750.5,-3286.5 4647.1,-3301.9 4559,-3332.5C4152.9,-3466.6 3804.2,-3744.4 3532.1,-4150.5L3426.7,-4305.7L3279.2,-4246.3C2913.3,-4096.9 2511,-3861.2 2177.6,-3594.9C1279.3,-2880.4 677.8,-1811.4 526.4,-660C490,-389.9 484.3,179.1 514.9,432C614.5,1244.3 905.7,1978 1386.6,2621.7C1576.3,2876.5 2036,3340.1 2279.3,3522.1C2664.4,3809.5 3072.4,4027.9 3492,4175.4C4189.4,4418.6 4821.6,4485.7 5580.2,4395.7Z" style="fill:rgb(170,170,170);fill-rule:nonzero;"/>
                    <path d="M4712.4,3771.1C4428.9,3671.5 4223.9,3445.4 4147.3,3148.5C3992,2554.6 4520.8,1974.1 5130,2069.9C5886.7,2188.7 6141.5,3142.7 5545.7,3627.4C5384.8,3755.8 5262.2,3797.9 5028.4,3807.5C4865.6,3813.3 4817.7,3807.5 4712.4,3771.1ZM5222,3376.5C5312,3330.5 5415.5,3221.3 5450,3135.1C5532.4,2935.9 5492.1,2746.2 5338.9,2596.8C5199,2460.8 5030.5,2418.6 4842.7,2476.1C4756.5,2501 4609,2623.6 4568.7,2702.2C4428.9,2972.3 4555.3,3298 4838.8,3403.4C4938.4,3439.7 5122.3,3428.2 5222,3376.5Z" style="fill:rgb(170,170,170);fill-rule:nonzero;"/>
                    <path d="M2652.9,2918.6C2329.1,2803.6 2126.1,2569.9 2057.1,2236.6C1972.8,1838.1 2210.4,1407.1 2591.6,1261.5C2833,1169.5 3074.4,1181.1 3308.1,1296C3486.3,1382.2 3618.5,1516.3 3710.4,1702.1C3773.6,1828.5 3783.2,1864.9 3788.9,2022C3806.2,2407.1 3620.3,2719.3 3281.2,2880.3C3164.3,2934 3129.9,2941.6 2949.8,2945.4C2794.7,2951.2 2727.6,2943.5 2652.9,2918.6ZM3130,2520.1C3432.7,2374.5 3501.7,1970.3 3266,1732.7C3089.7,1558.4 2794.7,1546.9 2601.2,1705.9C2562.9,1738.5 2509.2,1807.4 2482.4,1863C2354,2119.7 2478.6,2439.6 2748.7,2539.3C2848.3,2575.7 3034.2,2566.1 3130,2520.1Z" style="fill:rgb(170,170,170);fill-rule:nonzero;"/>
                    <path d="M6810.1,2918.6C6662.6,2865 6551.5,2792.2 6442.3,2679.1C6266,2491.4 6197.1,2299.8 6210.5,2022C6216.2,1864.9 6225.8,1828.5 6289,1700.2C6446.1,1382.2 6727.7,1204 7078.3,1202.1C7568.7,1198.3 7959.5,1589.1 7955.7,2079.5C7953.8,2432 7775.6,2711.7 7455.7,2868.8C7319.7,2937.8 7298.6,2941.6 7108.9,2947.3C6951.9,2951.2 6884.9,2943.5 6810.1,2918.6ZM7243.1,2539.3C7672.2,2391.8 7672.2,1767.2 7243.1,1619.7C6921.3,1510.5 6589.8,1742.3 6589.8,2079.5C6589.8,2412.8 6923.2,2648.5 7243.1,2539.3Z" style="fill:rgb(170,170,170);fill-rule:nonzero;"/>
                    <path d="M1877.1,861.1C1735.3,834.3 1549.5,730.8 1434.6,615.9C1105.1,286.4 1093.6,-255.8 1407.8,-591C1810.1,-1022 2480.6,-964.6 2798.6,-474.1C2898.2,-318.9 2938.4,-158 2926.9,52.7C2921.2,200.2 2909.7,244.3 2848.4,372.6C2672.1,742.3 2281.3,939.6 1877.1,861.1ZM2269.8,433.9C2430.7,359.2 2526.5,221.2 2541.8,35.4C2561,-158.1 2451.8,-349.6 2271.7,-445.4C2162.5,-502.9 1955.6,-502.9 1846.4,-445.4C1478.6,-250 1478.6,255.8 1848.3,439.7C1959.4,495.2 2145.3,493.3 2269.8,433.9Z" style="fill:rgb(170,170,170);fill-rule:nonzero;"/>
                    <path d="M7735.4,851.5C7061.1,688.7 6835,-177.2 7344.6,-646.6C7637.7,-916.7 8078.3,-958.9 8407.9,-748.2C8884.9,-441.7 8959.6,219.3 8565,615.8C8342.7,838.1 8034.3,924.3 7735.4,851.5ZM8128.2,451.1C8358.1,355.3 8480.7,89 8406,-156.2C8377.3,-252 8256.6,-389.9 8153.1,-445.5C8043.9,-503 7837,-503 7727.8,-445.5C7363.8,-253.9 7363.8,265.2 7729.7,433.8C7842.7,487.5 8022.8,495.2 8128.2,451.1Z" style="fill:rgb(170,170,170);fill-rule:nonzero;"/>
                </g>
            </g>
            <g transform="matrix(0.00427385,0,0,-0.00427385,608.57,206.472)">
                <g>
                    <g>
                        <path d="M4561,4807.5C3633.8,4725.1 2741,4370.7 1972.8,3778.7C1599.2,3491.3 1116.5,2953 834.8,2510.5C714.1,2322.8 480.4,1841.9 392.3,1602.4C168.2,997.1 64.7,255.7 110.7,-388C135.6,-752 172,-968.5 258.2,-1313.3C346.3,-1654.3 432.5,-1886.1 612.6,-2250.1C865.5,-2763.5 1145.2,-3154.3 1553.2,-3556.7C2095.4,-4091.2 2660.5,-4443.7 3409.6,-4711.9L3616.5,-4786.6L3689.3,-4648.7C3865.5,-4307.7 4156.7,-3972.4 4392.4,-3832.6C4610.8,-3704.3 4733.4,-3669.8 4990.1,-3669.8C5246.8,-3669.8 5369.4,-3704.3 5587.8,-3832.6C5823.4,-3972.5 6135.7,-4338.4 6300.5,-4667.9C6367.6,-4803.9 6333,-4802 6666.4,-4685.1C6951.9,-4583.6 7442.3,-4338.4 7700.9,-4165.9C8260.3,-3794.2 8741.2,-3309.5 9105.1,-2757.8C9258.4,-2524.1 9507.4,-2026 9607,-1754C9829.2,-1146.7 9936.5,-395.7 9888.6,244.1C9798.6,1495.1 9281.3,2598.6 8382.8,3462.6C7365.7,4441.6 5969.1,4932.1 4561,4807.5ZM5580.2,4395.7C6568.7,4278.8 7503.6,3807.6 8229.7,3064.2C8936.6,2336.2 9361.9,1445.4 9482.6,431.9C9515.2,171.4 9509.4,-372.7 9473,-660.1C9270,-2230.9 8243.1,-3591.1 6787.1,-4215.7C6572.5,-4307.7 6561,-4311.5 6536.1,-4277C6197,-3790.4 5971,-3579.7 5605,-3409.2C5373.2,-3300 5197,-3267.4 4915.3,-3280.8C4750.5,-3286.5 4647.1,-3301.9 4559,-3332.5C4152.9,-3466.6 3804.2,-3744.4 3532.1,-4150.5L3426.7,-4305.7L3279.2,-4246.3C2913.3,-4096.9 2511,-3861.2 2177.6,-3594.9C1279.3,-2880.4 677.8,-1811.4 526.4,-660C490,-389.9 484.3,179.1 514.9,432C614.5,1244.3 905.7,1978 1386.6,2621.7C1576.3,2876.5 2036,3340.1 2279.3,3522.1C2664.4,3809.5 3072.4,4027.9 3492,4175.4C4189.4,4418.6 4821.6,4485.7 5580.2,4395.7Z" style="fill:rgb(170,170,170);fill-rule:nonzero;"/>
                        <path d="M4712.4,3771.1C4428.9,3671.5 4223.9,3445.4 4147.3,3148.5C3992,2554.6 4520.8,1974.1 5130,2069.9C5886.7,2188.7 6141.5,3142.7 5545.7,3627.4C5384.8,3755.8 5262.2,3797.9 5028.4,3807.5C4865.6,3813.3 4817.7,3807.5 4712.4,3771.1ZM5222,3376.5C5312,3330.5 5415.5,3221.3 5450,3135.1C5532.4,2935.9 5492.1,2746.2 5338.9,2596.8C5199,2460.8 5030.5,2418.6 4842.7,2476.1C4756.5,2501 4609,2623.6 4568.7,2702.2C4428.9,2972.3 4555.3,3298 4838.8,3403.4C4938.4,3439.7 5122.3,3428.2 5222,3376.5Z" style="fill:rgb(170,170,170);fill-rule:nonzero;"/>
                        <path d="M2652.9,2918.6C2329.1,2803.6 2126.1,2569.9 2057.1,2236.6C1972.8,1838.1 2210.4,1407.1 2591.6,1261.5C2833,1169.5 3074.4,1181.1 3308.1,1296C3486.3,1382.2 3618.5,1516.3 3710.4,1702.1C3773.6,1828.5 3783.2,1864.9 3788.9,2022C3806.2,2407.1 3620.3,2719.3 3281.2,2880.3C3164.3,2934 3129.9,2941.6 2949.8,2945.4C2794.7,2951.2 2727.6,2943.5 2652.9,2918.6ZM3130,2520.1C3432.7,2374.5 3501.7,1970.3 3266,1732.7C3089.7,1558.4 2794.7,1546.9 2601.2,1705.9C2562.9,1738.5 2509.2,1807.4 2482.4,1863C2354,2119.7 2478.6,2439.6 2748.7,2539.3C2848.3,2575.7 3034.2,2566.1 3130,2520.1Z" style="fill:rgb(170,170,170);fill-rule:nonzero;"/>
                        <path d="M6810.1,2918.6C6662.6,2865 6551.5,2792.2 6442.3,2679.1C6266,2491.4 6197.1,2299.8 6210.5,2022C6216.2,1864.9 6225.8,1828.5 6289,1700.2C6446.1,1382.2 6727.7,1204 7078.3,1202.1C7568.7,1198.3 7959.5,1589.1 7955.7,2079.5C7953.8,2432 7775.6,2711.7 7455.7,2868.8C7319.7,2937.8 7298.6,2941.6 7108.9,2947.3C6951.9,2951.2 6884.9,2943.5 6810.1,2918.6ZM7243.1,2539.3C7672.2,2391.8 7672.2,1767.2 7243.1,1619.7C6921.3,1510.5 6589.8,1742.3 6589.8,2079.5C6589.8,2412.8 6923.2,2648.5 7243.1,2539.3Z" style="fill:rgb(170,170,170);fill-rule:nonzero;"/>
                        <path d="M1877.1,861.1C1735.3,834.3 1549.5,730.8 1434.6,615.9C1105.1,286.4 1093.6,-255.8 1407.8,-591C1810.1,-1022 2480.6,-964.6 2798.6,-474.1C2898.2,-318.9 2938.4,-158 2926.9,52.7C2921.2,200.2 2909.7,244.3 2848.4,372.6C2672.1,742.3 2281.3,939.6 1877.1,861.1ZM2269.8,433.9C2430.7,359.2 2526.5,221.2 2541.8,35.4C2561,-158.1 2451.8,-349.6 2271.7,-445.4C2162.5,-502.9 1955.6,-502.9 1846.4,-445.4C1478.6,-250 1478.6,255.8 1848.3,439.7C1959.4,495.2 2145.3,493.3 2269.8,433.9Z" style="fill:rgb(170,170,170);fill-rule:nonzero;"/>
                        <path d="M7735.4,851.5C7061.1,688.7 6835,-177.2 7344.6,-646.6C7637.7,-916.7 8078.3,-958.9 8407.9,-748.2C8884.9,-441.7 8959.6,219.3 8565,615.8C8342.7,838.1 8034.3,924.3 7735.4,851.5ZM8128.2,451.1C8358.1,355.3 8480.7,89 8406,-156.2C8377.3,-252 8256.6,-389.9 8153.1,-445.5C8043.9,-503 7837,-503 7727.8,-445.5C7363.8,-253.9 7363.8,265.2 7729.7,433.8C7842.7,487.5 8022.8,495.2 8128.2,451.1Z" style="fill:rgb(170,170,170);fill-rule:nonzero;"/>
                    </g>
                </g>
            </g>
            <g transform="matrix(0.735632,0,0,1.44,84.4109,-245.874)">
                <path d="M372.25,318.861L372.25,310.111L391.281,310.111L391.281,301.986L415.75,314.486L391.281,326.986L391.281,318.861L372.25,318.861Z" style="fill:rgb(112,112,112);"/>
            </g>
            <g transform="matrix(1,0,0,1,26.3333,-173.5)">
                <path d="M407.71,410.086C406.894,410.086 406.192,410.283 405.604,410.679C405.016,411.074 404.577,411.607 404.289,412.276C404.001,412.944 403.857,413.713 403.857,414.583C403.857,415.232 403.935,415.824 404.092,416.359C404.248,416.893 404.482,417.362 404.795,417.765C405.107,418.168 405.514,418.48 406.014,418.703C406.515,418.925 407.09,419.036 407.739,419.036C408.574,419.036 409.438,418.818 410.332,418.384L410.544,419.461C409.817,419.92 408.833,420.149 407.593,420.149C406.777,420.149 406.046,420.014 405.399,419.743C404.752,419.472 404.217,419.088 403.795,418.593C403.373,418.097 403.052,417.506 402.832,416.82C402.612,416.134 402.502,415.371 402.502,414.531C402.502,413.721 402.622,412.974 402.861,412.29C403.1,411.607 403.438,411.019 403.875,410.529C404.312,410.038 404.858,409.656 405.512,409.382C406.167,409.109 406.894,408.972 407.695,408.972C408.911,408.972 409.936,409.241 410.771,409.778L410.273,410.811C409.472,410.327 408.618,410.086 407.71,410.086Z" style="fill-rule:nonzero;"/>
                <path d="M415.796,414.729L418.652,414.729L418.652,415.725L415.788,415.725L415.788,418.867L414.785,418.867L414.785,415.725L411.877,415.725L411.877,414.729L414.792,414.729L414.792,411.624L415.796,411.624L415.796,414.729Z" style="fill-rule:nonzero;"/>
                <path d="M424.043,414.729L426.899,414.729L426.899,415.725L424.035,415.725L424.035,418.867L423.032,418.867L423.032,415.725L420.124,415.725L420.124,414.729L423.039,414.729L423.039,411.624L424.043,411.624L424.043,414.729Z" style="fill-rule:nonzero;"/>
            </g>
            <g transform="matrix(1,0,0,1,9.33333,-176)">
                <path d="M477.753,415.027L477.65,412.615L478.387,412.615L478.246,415.027L477.753,415.027ZM476.356,415.027L476.254,412.615L476.991,412.615L476.849,415.027L476.356,415.027Z" style="fill-rule:nonzero;"/>
                <path d="M480.145,419.104L480.145,412.683L481.01,412.683L481.01,418.811C481.01,419.049 481.005,419.249 480.995,419.412C480.985,419.574 480.966,419.74 480.936,419.907C480.907,420.075 480.864,420.213 480.807,420.32C480.75,420.427 480.676,420.531 480.585,420.63C480.494,420.729 480.38,420.806 480.245,420.859C480.11,420.913 479.95,420.956 479.764,420.986C479.579,421.017 479.364,421.033 479.12,421.033L478.949,421.033L478.846,420.339L479.208,420.339C479.38,420.339 479.526,420.318 479.645,420.276C479.764,420.234 479.856,420.181 479.921,420.117C479.986,420.054 480.035,419.963 480.07,419.846C480.104,419.729 480.125,419.619 480.133,419.517C480.141,419.414 480.145,419.277 480.145,419.104Z" style="fill-rule:nonzero;"/>
                <path d="M483.973,419.441C484.361,419.441 484.702,419.334 484.996,419.121C485.291,418.908 485.481,418.621 485.565,418.259L485.565,417.356C485.549,417.356 485.45,417.364 485.27,417.38C485.089,417.397 484.971,417.407 484.916,417.41C484.209,417.472 483.717,417.587 483.439,417.756C483.16,417.926 483.021,418.198 483.021,418.572C483.021,418.858 483.106,419.075 483.275,419.221C483.444,419.368 483.677,419.441 483.973,419.441ZM485.746,419.988C485.697,419.78 485.65,419.555 485.604,419.314C485.308,419.61 485.03,419.815 484.769,419.929C484.509,420.043 484.203,420.1 483.851,420.1C483.35,420.1 482.947,419.969 482.643,419.707C482.338,419.445 482.186,419.068 482.186,418.577C482.186,418.03 482.394,417.625 482.809,417.361C483.224,417.097 483.822,416.933 484.603,416.868C484.711,416.858 484.873,416.844 485.089,416.826C485.306,416.808 485.468,416.795 485.575,416.785L485.575,416.311C485.575,415.934 485.487,415.654 485.311,415.471C485.136,415.289 484.859,415.198 484.481,415.198C483.954,415.198 483.422,415.328 482.885,415.588C482.868,415.549 482.826,415.436 482.758,415.249C482.689,415.062 482.653,414.965 482.65,414.959C482.888,414.825 483.17,414.719 483.497,414.639C483.824,414.559 484.157,414.519 484.496,414.519C485.163,414.519 485.644,414.665 485.939,414.956C486.233,415.248 486.381,415.743 486.381,416.443L486.381,419.988L485.746,419.988Z" style="fill-rule:nonzero;"/>
                <path d="M489.159,419.988L487.084,414.631L487.958,414.631L489.139,417.815C489.139,417.815 489.302,418.268 489.628,419.172C489.738,418.824 489.891,418.375 490.087,417.825C490.334,417.131 490.718,416.067 491.239,414.631L492.108,414.631L490.048,419.988L489.159,419.988Z" style="fill-rule:nonzero;"/>
                <path d="M494.301,419.441C494.688,419.441 495.029,419.334 495.323,419.121C495.618,418.908 495.808,418.621 495.892,418.259L495.892,417.356C495.876,417.356 495.778,417.364 495.597,417.38C495.416,417.397 495.298,417.407 495.243,417.41C494.537,417.472 494.044,417.587 493.766,417.756C493.488,417.926 493.348,418.198 493.348,418.572C493.348,418.858 493.433,419.075 493.602,419.221C493.772,419.368 494.004,419.441 494.301,419.441ZM496.073,419.988C496.024,419.78 495.977,419.555 495.931,419.314C495.635,419.61 495.357,419.815 495.096,419.929C494.836,420.043 494.53,420.1 494.178,420.1C493.677,420.1 493.274,419.969 492.97,419.707C492.666,419.445 492.513,419.068 492.513,418.577C492.513,418.03 492.721,417.625 493.136,417.361C493.551,417.097 494.149,416.933 494.93,416.868C495.038,416.858 495.2,416.844 495.416,416.826C495.633,416.808 495.795,416.795 495.902,416.785L495.902,416.311C495.902,415.934 495.814,415.654 495.638,415.471C495.463,415.289 495.186,415.198 494.808,415.198C494.281,415.198 493.749,415.328 493.212,415.588C493.195,415.549 493.153,415.436 493.085,415.249C493.016,415.062 492.981,414.965 492.977,414.959C493.215,414.825 493.497,414.719 493.824,414.639C494.152,414.559 494.484,414.519 494.823,414.519C495.49,414.519 495.971,414.665 496.266,414.956C496.56,415.248 496.708,415.743 496.708,416.443L496.708,419.988L496.073,419.988Z" style="fill-rule:nonzero;"/>
                <path d="M499.711,420.1C499.346,420.1 499.01,420.061 498.702,419.983C498.395,419.905 498.145,419.804 497.953,419.68L498.055,418.992C498.599,419.282 499.133,419.426 499.657,419.426C500.451,419.426 500.86,419.146 500.883,418.587C500.883,418.349 500.798,418.162 500.629,418.025C500.459,417.888 500.127,417.735 499.633,417.566L499.227,417.424C498.759,417.268 498.424,417.074 498.224,416.843C498.024,416.612 497.922,416.324 497.919,415.979C497.919,415.559 498.087,415.211 498.424,414.934C498.761,414.658 499.222,414.519 499.808,414.519C500.414,414.519 500.966,414.636 501.464,414.871L501.224,415.496C500.72,415.287 500.248,415.183 499.808,415.183C499.467,415.183 499.199,415.251 499.005,415.386C498.811,415.521 498.715,415.711 498.715,415.955C498.715,416.163 498.785,416.323 498.925,416.433C499.065,416.544 499.344,416.671 499.764,416.814C499.872,416.853 500.007,416.899 500.17,416.951C500.71,417.127 501.093,417.334 501.317,417.573C501.542,417.813 501.654,418.136 501.654,418.543C501.648,419.037 501.47,419.421 501.122,419.692C500.774,419.964 500.303,420.1 499.711,420.1Z" style="fill-rule:nonzero;"/>
                <path d="M505.033,420.1C504.245,420.1 503.629,419.845 503.185,419.334C502.74,418.823 502.518,418.154 502.518,417.327C502.522,416.493 502.749,415.817 503.199,415.298C503.65,414.779 504.268,414.519 505.052,414.519C505.329,414.519 505.597,414.553 505.856,414.622C506.115,414.69 506.319,414.78 506.469,414.89L506.244,415.525C505.863,415.32 505.461,415.217 505.038,415.217C504.52,415.217 504.111,415.406 503.81,415.784C503.509,416.161 503.358,416.677 503.358,417.332C503.358,417.97 503.507,418.475 503.805,418.848C504.103,419.22 504.515,419.407 505.043,419.407C505.463,419.407 505.892,419.293 506.332,419.065L506.434,419.714C506.08,419.972 505.612,420.1 505.033,420.1Z" style="fill-rule:nonzero;"/>
                <path d="M509.896,414.583C510.043,414.583 510.176,414.592 510.297,414.612L510.267,415.364C510.118,415.338 509.987,415.325 509.877,415.325C509.421,415.325 509.051,415.484 508.766,415.801C508.481,416.118 508.339,416.511 508.339,416.98L508.339,419.988L507.523,419.988C507.52,416.7 507.518,414.915 507.518,414.631L508.197,414.631L508.275,415.593C508.461,415.291 508.697,415.046 508.983,414.861C509.27,414.675 509.574,414.583 509.896,414.583Z" style="fill-rule:nonzero;"/>
                <path d="M512.098,414.631L512.098,419.988L511.278,419.988L511.278,414.631L512.098,414.631ZM512.098,412.683L512.098,413.65L511.278,413.65L511.278,412.683L512.098,412.683Z" style="fill-rule:nonzero;"/>
                <path d="M513.632,422.312L513.632,414.631L514.349,414.631L514.427,415.359C514.896,414.799 515.459,414.519 516.117,414.519C516.605,414.519 517.019,414.641 517.357,414.885C517.696,415.13 517.946,415.46 518.107,415.877C518.268,416.293 518.348,416.78 518.348,417.337C518.348,417.87 518.261,418.345 518.085,418.76C517.909,419.175 517.651,419.502 517.311,419.741C516.971,419.981 516.573,420.1 516.117,420.1C515.772,420.1 515.448,420.023 515.145,419.868C514.843,419.714 514.6,419.509 514.418,419.255C514.437,419.607 514.447,419.949 514.447,420.281L514.447,422.258L513.632,422.312ZM516.005,419.412C516.252,419.412 516.473,419.356 516.669,419.243C516.864,419.131 517.022,418.977 517.142,418.782C517.263,418.587 517.354,418.364 517.416,418.115C517.478,417.866 517.509,417.597 517.509,417.307C517.509,416.695 517.38,416.193 517.123,415.801C516.866,415.409 516.49,415.213 515.995,415.213C514.96,415.213 514.442,415.881 514.442,417.219C514.442,417.945 514.563,418.492 514.806,418.86C515.048,419.228 515.448,419.412 516.005,419.412Z" style="fill-rule:nonzero;"/>
                <path d="M521.205,420.086C520.677,420.086 520.303,419.957 520.082,419.7C519.86,419.443 519.743,419.028 519.73,418.455L519.73,415.237L518.934,415.237L518.969,414.7L519.725,414.631L520.004,413.406L520.541,413.386L520.541,414.631L522.03,414.631L522.03,415.237L520.541,415.237L520.541,418.308C520.541,418.715 520.603,419.002 520.726,419.168C520.85,419.334 521.062,419.417 521.361,419.417C521.469,419.417 521.701,419.391 522.059,419.338L522.094,419.983C521.706,420.051 521.41,420.086 521.205,420.086Z" style="fill-rule:nonzero;"/>
                <path d="M524.442,415.027L524.34,412.615L525.077,412.615L524.935,415.027L524.442,415.027ZM523.046,415.027L522.943,412.615L523.68,412.615L523.539,415.027L523.046,415.027Z" style="fill-rule:nonzero;"/>
            </g>
            <g transform="matrix(1.10594,0,0,1.10594,6.66803,-13.0333)">
                <path d="M393.732,202.75L394.614,202.75L394.614,200.764C394.824,200.56 394.98,200.452 395.22,200.452C395.544,200.452 395.658,200.632 395.658,201.028L395.658,202.75L396.54,202.75L396.54,200.914C396.54,200.164 396.24,199.702 395.574,199.702C395.124,199.702 394.806,199.918 394.584,200.146L394.566,200.146L394.614,199.576L394.614,198.544L393.732,198.544L393.732,202.75Z" style="fill:white;fill-rule:nonzero;"/>
                <path d="M398.568,202.75L399.45,202.75L399.45,199.774L397.374,199.774L397.374,200.464L398.568,200.464L398.568,202.75ZM398.97,199.306C399.312,199.306 399.558,199.096 399.558,198.772C399.558,198.448 399.312,198.22 398.97,198.22C398.628,198.22 398.382,198.448 398.382,198.772C398.382,199.096 398.628,199.306 398.97,199.306Z" style="fill:white;fill-rule:nonzero;"/>
                <path d="M402.276,202.822C403.23,202.822 403.74,202.402 403.74,201.862C403.74,201.376 403.488,201.118 402.57,200.908C402.066,200.794 401.88,200.758 401.88,200.59C401.88,200.452 402.018,200.356 402.294,200.356C402.624,200.356 402.966,200.458 403.266,200.638L403.662,200.11C403.35,199.912 402.906,199.702 402.372,199.702C401.526,199.702 401.004,200.08 401.004,200.632C401.004,201.094 401.328,201.388 402.138,201.562C402.72,201.688 402.87,201.748 402.87,201.916C402.87,202.06 402.72,202.168 402.396,202.168C401.97,202.168 401.562,202.042 401.196,201.814L400.818,202.366C401.196,202.618 401.742,202.822 402.276,202.822Z" style="fill:white;fill-rule:nonzero;"/>
                <path d="M406.08,202.822C406.476,202.822 406.92,202.69 407.262,202.474L406.968,201.94C406.704,202.078 406.47,202.15 406.2,202.15C405.714,202.15 405.396,201.958 405.312,201.526L407.34,201.526C407.352,201.454 407.382,201.292 407.382,201.13C407.382,200.32 406.896,199.702 405.978,199.702C405.18,199.702 404.43,200.284 404.43,201.262C404.43,202.252 405.15,202.822 406.08,202.822ZM406.008,200.374C406.35,200.374 406.554,200.566 406.596,200.932L405.324,200.932C405.414,200.56 405.66,200.374 406.008,200.374Z" style="fill:white;fill-rule:nonzero;"/>
                <path d="M409.5,200.884C409.914,200.884 410.196,200.578 410.196,200.182C410.196,199.786 409.914,199.474 409.5,199.474C409.086,199.474 408.804,199.786 408.804,200.182C408.804,200.578 409.086,200.884 409.5,200.884ZM409.5,202.822C409.914,202.822 410.196,202.516 410.196,202.12C410.196,201.724 409.914,201.412 409.5,201.412C409.086,201.412 408.804,201.724 408.804,202.12C408.804,202.516 409.086,202.822 409.5,202.822Z" style="fill:white;fill-rule:nonzero;"/>
                <path d="M413.1,200.884C413.514,200.884 413.796,200.578 413.796,200.182C413.796,199.786 413.514,199.474 413.1,199.474C412.686,199.474 412.404,199.786 412.404,200.182C412.404,200.578 412.686,200.884 413.1,200.884ZM413.1,202.822C413.514,202.822 413.796,202.516 413.796,202.12C413.796,201.724 413.514,201.412 413.1,201.412C412.686,201.412 412.404,201.724 412.404,202.12C412.404,202.516 412.686,202.822 413.1,202.822Z" style="fill:white;fill-rule:nonzero;"/>
                <path d="M415.248,202.75L415.98,202.75L415.98,201.538C415.98,201.1 415.908,200.146 415.866,199.726L415.884,199.726L416.166,200.77L416.472,201.712L416.904,201.712L417.204,200.77L417.504,199.726L417.522,199.726C417.486,200.146 417.408,201.1 417.408,201.538L417.408,202.75L418.152,202.75L418.152,198.838L417.228,198.838L416.844,200.224L416.712,200.764L416.688,200.764L416.556,200.224L416.172,198.838L415.248,198.838L415.248,202.75Z" style="fill:white;fill-rule:nonzero;"/>
                <path d="M420.168,202.75L421.05,202.75L421.05,199.774L418.974,199.774L418.974,200.464L420.168,200.464L420.168,202.75ZM420.57,199.306C420.912,199.306 421.158,199.096 421.158,198.772C421.158,198.448 420.912,198.22 420.57,198.22C420.228,198.22 419.982,198.448 419.982,198.772C419.982,199.096 420.228,199.306 420.57,199.306Z" style="fill:white;fill-rule:nonzero;"/>
                <path d="M423.636,202.822C423.936,202.822 424.242,202.66 424.464,202.444L424.482,202.444L424.548,202.75L425.268,202.75L425.268,198.544L424.386,198.544L424.386,199.558L424.428,200.02L424.404,200.02C424.206,199.816 423.984,199.702 423.654,199.702C423.006,199.702 422.382,200.29 422.382,201.262C422.382,202.234 422.88,202.822 423.636,202.822ZM423.864,202.102C423.498,202.102 423.288,201.838 423.288,201.25C423.288,200.686 423.564,200.422 423.888,200.422C424.062,200.422 424.224,200.476 424.386,200.62L424.386,201.826C424.23,202.024 424.062,202.102 423.864,202.102Z" style="fill:white;fill-rule:nonzero;"/>
                <path d="M427.368,202.75L428.25,202.75L428.25,199.774L426.174,199.774L426.174,200.464L427.368,200.464L427.368,202.75ZM427.77,199.306C428.112,199.306 428.358,199.096 428.358,198.772C428.358,198.448 428.112,198.22 427.77,198.22C427.428,198.22 427.182,198.448 427.182,198.772C427.182,199.096 427.428,199.306 427.77,199.306Z" style="fill:white;fill-rule:nonzero;"/>
                <path d="M429.75,202.75L430.632,202.75L430.632,201.424L431.136,201.424C431.964,201.424 432.666,201.016 432.666,200.098C432.666,199.15 431.982,198.838 431.136,198.838L429.75,198.838L429.75,202.75ZM430.632,200.722L430.632,199.54L431.082,199.54C431.55,199.54 431.802,199.69 431.802,200.098C431.802,200.506 431.568,200.722 431.082,200.722L430.632,200.722Z" style="fill:white;fill-rule:nonzero;"/>
                <path d="M433.596,202.75L434.478,202.75L434.478,201.202C434.73,200.668 435.114,200.476 435.48,200.476C435.702,200.476 435.822,200.506 436.008,200.56L436.188,199.822C436.014,199.744 435.876,199.702 435.612,199.702C435.138,199.702 434.7,199.936 434.406,200.422L434.388,200.422L434.316,199.774L433.596,199.774L433.596,202.75Z" style="fill:white;fill-rule:nonzero;"/>
                <path d="M438.3,202.822C439.086,202.822 439.818,202.252 439.818,201.262C439.818,200.272 439.086,199.702 438.3,199.702C437.514,199.702 436.782,200.272 436.782,201.262C436.782,202.252 437.514,202.822 438.3,202.822ZM438.3,202.108C437.892,202.108 437.688,201.778 437.688,201.262C437.688,200.746 437.892,200.416 438.3,200.416C438.708,200.416 438.912,200.746 438.912,201.262C438.912,201.778 438.708,202.108 438.3,202.108Z" style="fill:white;fill-rule:nonzero;"/>
                <path d="M442.158,202.822C442.566,202.822 443.022,202.684 443.382,202.384L443.028,201.826C442.812,201.976 442.554,202.108 442.242,202.108C441.75,202.108 441.408,201.778 441.408,201.262C441.408,200.746 441.762,200.416 442.272,200.416C442.494,200.416 442.704,200.488 442.932,200.65L443.34,200.104C443.088,199.87 442.692,199.702 442.224,199.702C441.306,199.702 440.502,200.272 440.502,201.262C440.502,202.252 441.222,202.822 442.158,202.822Z" style="fill:white;fill-rule:nonzero;"/>
                <path d="M445.68,202.822C446.076,202.822 446.52,202.69 446.862,202.474L446.568,201.94C446.304,202.078 446.07,202.15 445.8,202.15C445.314,202.15 444.996,201.958 444.912,201.526L446.94,201.526C446.952,201.454 446.982,201.292 446.982,201.13C446.982,200.32 446.496,199.702 445.578,199.702C444.78,199.702 444.03,200.284 444.03,201.262C444.03,202.252 444.75,202.822 445.68,202.822ZM445.608,200.374C445.95,200.374 446.154,200.566 446.196,200.932L444.924,200.932C445.014,200.56 445.26,200.374 445.608,200.374Z" style="fill:white;fill-rule:nonzero;"/>
                <path d="M449.076,202.822C450.03,202.822 450.54,202.402 450.54,201.862C450.54,201.376 450.288,201.118 449.37,200.908C448.866,200.794 448.68,200.758 448.68,200.59C448.68,200.452 448.818,200.356 449.094,200.356C449.424,200.356 449.766,200.458 450.066,200.638L450.462,200.11C450.15,199.912 449.706,199.702 449.172,199.702C448.326,199.702 447.804,200.08 447.804,200.632C447.804,201.094 448.128,201.388 448.938,201.562C449.52,201.688 449.67,201.748 449.67,201.916C449.67,202.06 449.52,202.168 449.196,202.168C448.77,202.168 448.362,202.042 447.996,201.814L447.618,202.366C447.996,202.618 448.542,202.822 449.076,202.822Z" style="fill:white;fill-rule:nonzero;"/>
                <path d="M452.676,202.822C453.63,202.822 454.14,202.402 454.14,201.862C454.14,201.376 453.888,201.118 452.97,200.908C452.466,200.794 452.28,200.758 452.28,200.59C452.28,200.452 452.418,200.356 452.694,200.356C453.024,200.356 453.366,200.458 453.666,200.638L454.062,200.11C453.75,199.912 453.306,199.702 452.772,199.702C451.926,199.702 451.404,200.08 451.404,200.632C451.404,201.094 451.728,201.388 452.538,201.562C453.12,201.688 453.27,201.748 453.27,201.916C453.27,202.06 453.12,202.168 452.796,202.168C452.37,202.168 451.962,202.042 451.596,201.814L451.218,202.366C451.596,202.618 452.142,202.822 452.676,202.822Z" style="fill:white;fill-rule:nonzero;"/>
                <path d="M456.3,202.822C457.086,202.822 457.818,202.252 457.818,201.262C457.818,200.272 457.086,199.702 456.3,199.702C455.514,199.702 454.782,200.272 454.782,201.262C454.782,202.252 455.514,202.822 456.3,202.822ZM456.3,202.108C455.892,202.108 455.688,201.778 455.688,201.262C455.688,200.746 455.892,200.416 456.3,200.416C456.708,200.416 456.912,200.746 456.912,201.262C456.912,201.778 456.708,202.108 456.3,202.108Z" style="fill:white;fill-rule:nonzero;"/>
                <path d="M458.796,202.75L459.678,202.75L459.678,201.202C459.93,200.668 460.314,200.476 460.68,200.476C460.902,200.476 461.022,200.506 461.208,200.56L461.388,199.822C461.214,199.744 461.076,199.702 460.812,199.702C460.338,199.702 459.9,199.936 459.606,200.422L459.588,200.422L459.516,199.774L458.796,199.774L458.796,202.75Z" style="fill:white;fill-rule:nonzero;"/>
            </g>
        </g>
    </g>
</svg>
