<?xml version="1.0" encoding="UTF-8" standalone="no"?>
<!DOCTYPE svg PUBLIC "-//W3C//DTD SVG 1.1//EN" "http://www.w3.org/Graphics/SVG/1.1/DTD/svg11.dtd">
<svg width="100%" height="100%" viewBox="0 0 408 95" version="1.1" xmlns="http://www.w3.org/2000/svg" xmlns:xlink="http://www.w3.org/1999/xlink" xml:space="preserve" style="fill-rule:evenodd;clip-rule:evenodd;stroke-linecap:round;stroke-linejoin:round;stroke-miterlimit:1.5;">
    <g transform="matrix(1,0,0,1,-302.164,-511.833)">
        <g transform="matrix(1,0,0,1,0,355)">
            <g transform="matrix(1,0,0,1,34.5,3.5)">
                <g transform="matrix(1.42723,0,0,1.375,-132.1,-50.7233)">
                    <rect x="351.333" y="148.405" width="142" height="68" style="fill:rgb(200,155,29);"/>
                </g>
                <g transform="matrix(1.43396,0,0,1,-134.465,8.59771)">
                    <rect x="351.333" y="144.736" width="141.333" height="17.333"/>
                </g>
                <g transform="matrix(1,0,0,1,64.6667,11.3333)">
                    <path d="M373.22,186.82L369.895,179.085L369.617,178.346L369.668,180.997L369.668,187.486L368.482,187.486L368.482,176.654L370.122,176.654L373.894,185.282L377.63,176.654L379.226,176.654L379.226,187.486L377.996,187.486L377.996,180.968L378.047,178.375L377.776,179.115L374.458,186.82L373.22,186.82Z" style="fill-rule:nonzero;"/>
                    <path d="M382.449,183.487C382.449,184.439 382.66,185.202 383.083,185.776C383.505,186.35 384.121,186.637 384.932,186.637C385.733,186.637 386.337,186.351 386.745,185.78C387.152,185.208 387.356,184.439 387.356,183.473C387.356,182.491 387.155,181.718 386.752,181.154C386.349,180.591 385.735,180.309 384.91,180.309C384.109,180.309 383.499,180.597 383.079,181.173C382.659,181.749 382.449,182.52 382.449,183.487ZM388.623,183.465C388.623,184.71 388.291,185.72 387.627,186.494C386.963,187.268 386.045,187.655 384.873,187.655C383.745,187.655 382.848,187.264 382.182,186.483C381.515,185.702 381.182,184.698 381.182,183.473C381.182,182.223 381.516,181.212 382.185,180.44C382.854,179.669 383.772,179.283 384.939,179.283C386.087,179.283 386.988,179.67 387.642,180.444C388.296,181.218 388.623,182.225 388.623,183.465Z" style="fill-rule:nonzero;"/>
                    <path d="M393.487,186.6C394.292,186.6 394.892,186.341 395.285,185.824C395.678,185.306 395.874,184.566 395.874,183.604C395.874,182.52 395.685,181.704 395.307,181.154C394.928,180.605 394.317,180.331 393.472,180.331C393.096,180.331 392.764,180.411 392.476,180.572C392.188,180.733 391.956,180.958 391.78,181.246C391.604,181.534 391.471,181.865 391.381,182.238C391.291,182.612 391.245,183.021 391.245,183.465C391.245,184.09 391.322,184.632 391.476,185.091C391.63,185.55 391.878,185.916 392.219,186.19C392.561,186.463 392.984,186.6 393.487,186.6ZM395.896,186.322C395.633,186.727 395.281,187.049 394.842,187.289C394.402,187.528 393.911,187.647 393.369,187.647C392.31,187.647 391.48,187.27 390.879,186.516C390.279,185.761 389.978,184.735 389.978,183.436C389.978,182.196 390.283,181.194 390.894,180.429C391.504,179.665 392.322,179.283 393.347,179.283C393.88,179.283 394.381,179.399 394.853,179.631C395.324,179.863 395.677,180.174 395.911,180.565L395.889,179.869L395.889,176.331L397.097,176.258L397.097,187.486L396.057,187.486L395.896,186.322Z" style="fill-rule:nonzero;"/>
                    <path d="M398.943,184.806L398.943,179.452L400.174,179.452L400.174,184.82C400.174,185.172 400.224,185.47 400.324,185.714C400.424,185.958 400.568,186.147 400.756,186.281C400.944,186.416 401.156,186.512 401.393,186.571C401.63,186.629 401.902,186.659 402.21,186.659C402.844,186.659 403.339,186.519 403.693,186.241C404.047,185.963 404.224,185.489 404.224,184.82L404.224,179.452L405.454,179.452L405.454,184.806C405.454,185.216 405.396,185.584 405.279,185.912C405.161,186.239 405.004,186.511 404.806,186.728C404.608,186.946 404.37,187.125 404.092,187.267C403.814,187.408 403.52,187.511 403.209,187.574C402.899,187.638 402.566,187.669 402.21,187.669C401.858,187.669 401.526,187.638 401.214,187.574C400.901,187.511 400.604,187.407 400.324,187.263C400.043,187.119 399.801,186.938 399.599,186.721C399.396,186.504 399.236,186.231 399.119,185.904C399.002,185.577 398.943,185.211 398.943,184.806Z" style="fill-rule:nonzero;"/>
                    <path d="M409.439,187.633C408.657,187.633 408.104,187.423 407.78,187.003C407.455,186.583 407.293,185.853 407.293,184.813L407.293,176.331L408.509,176.258L408.509,184.33C408.509,184.662 408.512,184.928 408.52,185.128C408.527,185.328 408.545,185.525 408.574,185.717C408.604,185.91 408.643,186.056 408.692,186.153C408.74,186.251 408.811,186.34 408.904,186.421C408.997,186.501 409.108,186.555 409.237,186.582C409.367,186.609 409.527,186.622 409.717,186.622C409.873,186.622 410.181,186.593 410.64,186.534L410.706,187.508C410.203,187.591 409.781,187.633 409.439,187.633Z" style="fill-rule:nonzero;"/>
                    <path d="M413.767,186.666C414.348,186.666 414.86,186.506 415.302,186.186C415.744,185.866 416.028,185.435 416.155,184.894L416.155,183.539C416.131,183.539 415.983,183.551 415.712,183.575C415.441,183.6 415.264,183.614 415.181,183.619C414.121,183.712 413.383,183.885 412.965,184.139C412.548,184.393 412.339,184.801 412.339,185.362C412.339,185.792 412.466,186.117 412.72,186.336C412.974,186.556 413.323,186.666 413.767,186.666ZM416.426,187.486C416.353,187.174 416.282,186.837 416.214,186.476C415.769,186.92 415.352,187.227 414.961,187.398C414.571,187.569 414.112,187.655 413.584,187.655C412.832,187.655 412.228,187.458 411.771,187.065C411.315,186.672 411.087,186.107 411.087,185.37C411.087,184.549 411.398,183.941 412.021,183.546C412.643,183.15 413.54,182.904 414.712,182.806C414.873,182.791 415.116,182.771 415.441,182.744C415.766,182.717 416.009,182.696 416.17,182.682L416.17,181.971C416.17,181.405 416.038,180.985 415.774,180.711C415.51,180.438 415.095,180.301 414.529,180.301C413.738,180.301 412.94,180.497 412.134,180.887C412.11,180.829 412.046,180.659 411.944,180.378C411.841,180.097 411.787,179.952 411.782,179.942C412.139,179.742 412.562,179.582 413.053,179.463C413.544,179.343 414.043,179.283 414.551,179.283C415.552,179.283 416.273,179.502 416.715,179.939C417.157,180.376 417.378,181.119 417.378,182.169L417.378,187.486L416.426,187.486Z" style="fill-rule:nonzero;"/>
                    <path d="M422.051,187.633C421.26,187.633 420.698,187.44 420.366,187.054C420.034,186.668 419.859,186.046 419.839,185.186L419.839,180.36L418.645,180.36L418.697,179.554L419.832,179.452L420.249,177.613L421.055,177.584L421.055,179.452L423.289,179.452L423.289,180.36L421.055,180.36L421.055,184.967C421.055,185.577 421.148,186.007 421.333,186.256C421.519,186.505 421.836,186.629 422.285,186.629C422.447,186.629 422.796,186.59 423.333,186.512L423.384,187.479C422.803,187.581 422.359,187.633 422.051,187.633Z" style="fill-rule:nonzero;"/>
                    <path d="M425.501,183.487C425.501,184.439 425.712,185.202 426.134,185.776C426.557,186.35 427.173,186.637 427.984,186.637C428.784,186.637 429.389,186.351 429.796,185.78C430.204,185.208 430.408,184.439 430.408,183.473C430.408,182.491 430.207,181.718 429.804,181.154C429.401,180.591 428.787,180.309 427.962,180.309C427.161,180.309 426.551,180.597 426.131,181.173C425.711,181.749 425.501,182.52 425.501,183.487ZM431.675,183.465C431.675,184.71 431.343,185.72 430.679,186.494C430.015,187.268 429.097,187.655 427.925,187.655C426.797,187.655 425.9,187.264 425.233,186.483C424.567,185.702 424.234,184.698 424.234,183.473C424.234,182.223 424.568,181.212 425.237,180.44C425.906,179.669 426.824,179.283 427.991,179.283C429.138,179.283 430.039,179.67 430.694,180.444C431.348,181.218 431.675,182.225 431.675,183.465Z" style="fill-rule:nonzero;"/>
                    <path d="M437.007,179.378C437.227,179.378 437.427,179.393 437.608,179.422L437.564,180.55C437.339,180.511 437.144,180.492 436.978,180.492C436.294,180.492 435.739,180.73 435.312,181.206C434.884,181.682 434.671,182.271 434.671,182.975L434.671,187.486L433.448,187.486C433.443,182.555 433.44,179.876 433.44,179.452L434.458,179.452L434.575,180.894C434.854,180.44 435.208,180.074 435.637,179.796C436.067,179.518 436.524,179.378 437.007,179.378Z" style="fill-rule:nonzero;"/>
                    <path d="M441.262,187.655C440.716,187.655 440.211,187.596 439.75,187.479C439.289,187.362 438.914,187.21 438.626,187.025L438.78,185.992C439.595,186.427 440.396,186.644 441.182,186.644C442.373,186.644 442.986,186.224 443.02,185.384C443.02,185.028 442.893,184.747 442.639,184.542C442.385,184.337 441.887,184.107 441.145,183.853L440.537,183.641C439.834,183.407 439.333,183.116 439.032,182.769C438.732,182.423 438.579,181.991 438.574,181.473C438.574,180.843 438.827,180.321 439.333,179.906C439.838,179.491 440.53,179.283 441.409,179.283C442.317,179.283 443.145,179.459 443.892,179.81L443.533,180.748C442.776,180.435 442.068,180.279 441.409,180.279C440.896,180.279 440.495,180.381 440.204,180.583C439.914,180.786 439.768,181.07 439.768,181.436C439.768,181.749 439.873,181.988 440.083,182.154C440.293,182.32 440.713,182.511 441.343,182.726C441.504,182.784 441.707,182.852 441.951,182.931C442.761,183.194 443.335,183.506 443.672,183.864C444.009,184.223 444.177,184.708 444.177,185.318C444.168,186.06 443.902,186.635 443.379,187.043C442.857,187.451 442.151,187.655 441.262,187.655Z" style="fill-rule:nonzero;"/>
                </g>
                <g transform="matrix(1,0,0,1,28.9484,-335.692)">
                    <path d="M417.237,575.005L416.387,575.005L416.387,568.53L414.165,568.53L414.165,567.783L419.458,567.783L419.458,568.53L417.237,568.53L417.237,575.005Z" style="fill-rule:nonzero;"/>
                    <path d="M421.158,569.648L421.158,575.005L420.337,575.005L420.337,569.648L421.158,569.648ZM421.158,567.7L421.158,568.667L420.337,568.667L420.337,567.7L421.158,567.7Z" style="fill-rule:nonzero;"/>
                    <path d="M429.493,575.005L429.493,572.216C429.493,571.956 429.487,571.738 429.475,571.562C429.464,571.386 429.438,571.207 429.397,571.025C429.357,570.843 429.3,570.699 429.226,570.593C429.153,570.487 429.051,570.401 428.921,570.334C428.791,570.267 428.635,570.234 428.452,570.234C428.094,570.234 427.789,570.33 427.537,570.522C427.285,570.714 427.105,570.984 426.997,571.333C426.968,571.567 426.953,571.818 426.953,572.085L426.953,575.005L426.138,575.005L426.138,572.129C426.138,571.888 426.13,571.679 426.114,571.501C426.097,571.324 426.066,571.151 426.021,570.984C425.975,570.816 425.914,570.68 425.838,570.576C425.761,570.472 425.66,570.389 425.533,570.327C425.406,570.265 425.254,570.234 425.078,570.234C424.688,570.234 424.36,570.333 424.095,570.532C423.829,570.73 423.651,570.994 423.56,571.323C423.531,571.574 423.516,571.845 423.516,572.138L423.516,575.005L422.701,575.005C422.694,571.655 422.691,569.869 422.691,569.648L423.374,569.648L423.477,570.415C423.64,570.167 423.871,569.959 424.17,569.79C424.47,569.62 424.81,569.536 425.191,569.536C425.389,569.536 425.572,569.556 425.74,569.597C425.908,569.638 426.048,569.689 426.16,569.751C426.272,569.813 426.372,569.887 426.46,569.973C426.548,570.059 426.617,570.144 426.665,570.227C426.714,570.31 426.755,570.397 426.787,570.488C427.178,569.853 427.775,569.536 428.579,569.536C429.175,569.536 429.612,569.706 429.89,570.046C430.169,570.386 430.308,570.89 430.308,571.557L430.308,575.005L429.493,575.005Z" style="fill-rule:nonzero;"/>
                    <path d="M433.452,570.21C433.036,570.21 432.696,570.357 432.432,570.652C432.168,570.946 432.014,571.349 431.968,571.86L434.795,571.86C434.795,571.329 434.676,570.922 434.436,570.637C434.197,570.352 433.869,570.21 433.452,570.21ZM433.614,575.117C432.836,575.117 432.223,574.869 431.775,574.375C431.328,573.88 431.104,573.203 431.104,572.343C431.104,571.513 431.32,570.84 431.753,570.324C432.186,569.808 432.756,569.546 433.462,569.536C434.126,569.536 434.653,569.763 435.042,570.217C435.431,570.671 435.625,571.277 435.625,572.036C435.625,572.075 435.625,572.146 435.623,572.251C435.621,572.355 435.62,572.43 435.62,572.475L431.944,572.475C431.953,573.084 432.111,573.558 432.415,573.899C432.719,574.239 433.129,574.409 433.643,574.409C434.209,574.409 434.777,574.259 435.347,573.96L435.474,574.619C434.93,574.951 434.31,575.117 433.614,575.117Z" style="fill-rule:nonzero;"/>
                    <path d="M438.13,575.005L436.055,569.648L436.929,569.648L438.111,572.832C438.111,572.832 438.273,573.284 438.599,574.189C438.71,573.841 438.863,573.392 439.058,572.841C439.305,572.148 439.689,571.084 440.21,569.648L441.079,569.648L439.019,575.005L438.13,575.005Z" style="fill-rule:nonzero;"/>
                    <path d="M443.272,574.458C443.659,574.458 444,574.351 444.295,574.138C444.589,573.925 444.779,573.637 444.864,573.276L444.864,572.373C444.847,572.373 444.749,572.381 444.568,572.397C444.388,572.413 444.27,572.423 444.214,572.426C443.508,572.488 443.015,572.604 442.737,572.773C442.459,572.942 442.32,573.214 442.32,573.589C442.32,573.875 442.404,574.091 442.574,574.238C442.743,574.384 442.976,574.458 443.272,574.458ZM445.044,575.005C444.995,574.796 444.948,574.572 444.903,574.331C444.606,574.627 444.328,574.832 444.068,574.946C443.807,575.06 443.501,575.117 443.15,575.117C442.648,575.117 442.246,574.986 441.941,574.724C441.637,574.462 441.485,574.085 441.485,573.593C441.485,573.047 441.692,572.641 442.107,572.378C442.522,572.114 443.12,571.95 443.902,571.884C444.009,571.875 444.171,571.861 444.388,571.843C444.604,571.825 444.766,571.811 444.873,571.801L444.873,571.328C444.873,570.95 444.785,570.67 444.61,570.488C444.434,570.306 444.157,570.215 443.78,570.215C443.252,570.215 442.72,570.345 442.183,570.605C442.167,570.566 442.124,570.453 442.056,570.266C441.988,570.079 441.952,569.982 441.949,569.975C442.186,569.842 442.469,569.735 442.796,569.655C443.123,569.576 443.456,569.536 443.794,569.536C444.462,569.536 444.943,569.681 445.237,569.973C445.532,570.264 445.679,570.76 445.679,571.46L445.679,575.005L445.044,575.005Z" style="fill-rule:nonzero;"/>
                    <path d="M449.488,569.599C449.634,569.599 449.768,569.609 449.888,569.629L449.859,570.381C449.709,570.355 449.579,570.341 449.468,570.341C449.012,570.341 448.642,570.5 448.357,570.818C448.072,571.135 447.93,571.528 447.93,571.997L447.93,575.005L447.115,575.005C447.111,571.717 447.11,569.931 447.11,569.648L447.788,569.648L447.867,570.61C448.052,570.307 448.288,570.063 448.575,569.878C448.861,569.692 449.165,569.599 449.488,569.599Z" style="fill-rule:nonzero;"/>
                    <path d="M451.69,569.648L451.69,575.005L450.869,575.005L450.869,569.648L451.69,569.648ZM451.69,567.7L451.69,568.667L450.869,568.667L450.869,567.7L451.69,567.7Z" style="fill-rule:nonzero;"/>
                    <path d="M454.771,574.458C455.158,574.458 455.499,574.351 455.794,574.138C456.088,573.925 456.278,573.637 456.363,573.276L456.363,572.373C456.346,572.373 456.248,572.381 456.067,572.397C455.887,572.413 455.769,572.423 455.713,572.426C455.007,572.488 454.514,572.604 454.236,572.773C453.958,572.942 453.819,573.214 453.819,573.589C453.819,573.875 453.903,574.091 454.073,574.238C454.242,574.384 454.475,574.458 454.771,574.458ZM456.543,575.005C456.494,574.796 456.447,574.572 456.402,574.331C456.105,574.627 455.827,574.832 455.567,574.946C455.306,575.06 455,575.117 454.649,575.117C454.147,575.117 453.745,574.986 453.44,574.724C453.136,574.462 452.984,574.085 452.984,573.593C452.984,573.047 453.191,572.641 453.606,572.378C454.021,572.114 454.619,571.95 455.401,571.884C455.508,571.875 455.67,571.861 455.887,571.843C456.103,571.825 456.265,571.811 456.372,571.801L456.372,571.328C456.372,570.95 456.285,570.67 456.109,570.488C455.933,570.306 455.656,570.215 455.279,570.215C454.751,570.215 454.219,570.345 453.682,570.605C453.666,570.566 453.623,570.453 453.555,570.266C453.487,570.079 453.451,569.982 453.448,569.975C453.685,569.842 453.968,569.735 454.295,569.655C454.622,569.576 454.955,569.536 455.293,569.536C455.961,569.536 456.442,569.681 456.736,569.973C457.031,570.264 457.178,570.76 457.178,571.46L457.178,575.005L456.543,575.005Z" style="fill-rule:nonzero;"/>
                    <path d="M458.584,575.005L458.584,569.648L459.268,569.648L459.37,570.415C459.582,570.151 459.847,569.939 460.164,569.778C460.481,569.616 460.824,569.536 461.192,569.536C461.81,569.536 462.268,569.709 462.564,570.056C462.86,570.403 463.008,570.936 463.008,571.655L463.008,575.005L462.193,575.005C462.193,572.856 462.191,571.705 462.188,571.552C462.175,571.097 462.083,570.763 461.912,570.551C461.741,570.34 461.455,570.234 461.055,570.234C460.635,570.234 460.285,570.335 460.005,570.537C459.725,570.739 459.543,571.001 459.458,571.323C459.426,571.541 459.41,571.792 459.41,572.075L459.41,575.005L458.584,575.005Z" style="fill-rule:nonzero;"/>
                    <path d="M466.075,575.102C465.547,575.102 465.173,574.974 464.951,574.716C464.73,574.459 464.613,574.044 464.6,573.471L464.6,570.254L463.804,570.254L463.838,569.716L464.595,569.648L464.873,568.423L465.41,568.403L465.41,569.648L466.9,569.648L466.9,570.254L465.41,570.254L465.41,573.325C465.41,573.732 465.472,574.018 465.596,574.184C465.72,574.35 465.931,574.433 466.231,574.433C466.338,574.433 466.571,574.407 466.929,574.355L466.963,575C466.576,575.068 466.28,575.102 466.075,575.102Z" style="fill-rule:nonzero;"/>
                </g>
                <g transform="matrix(1,0,0,1,-21,3.16667)">
                    <path d="M404.117,228.925L405.02,228.925L402.398,236.146L401.519,236.146L398.907,228.925L399.81,228.925L401.417,233.505C401.625,234.1 401.806,234.662 401.959,235.189C402.008,234.945 402.19,234.379 402.506,233.49C403.013,232.035 403.551,230.513 404.117,228.925Z" style="fill-rule:nonzero;"/>
                    <path d="M406.124,233.48C406.124,234.115 406.265,234.624 406.546,235.006C406.828,235.389 407.239,235.58 407.779,235.58C408.313,235.58 408.716,235.39 408.988,235.009C409.259,234.628 409.395,234.115 409.395,233.471C409.395,232.816 409.261,232.301 408.992,231.925C408.724,231.549 408.315,231.361 407.764,231.361C407.231,231.361 406.824,231.553 406.544,231.937C406.264,232.321 406.124,232.836 406.124,233.48ZM410.24,233.466C410.24,234.296 410.019,234.969 409.576,235.485C409.133,236.001 408.521,236.259 407.74,236.259C406.988,236.259 406.39,235.998 405.946,235.477C405.501,234.957 405.279,234.288 405.279,233.471C405.279,232.637 405.502,231.963 405.948,231.449C406.394,230.935 407.006,230.678 407.784,230.678C408.549,230.678 409.149,230.936 409.586,231.452C410.022,231.967 410.24,232.639 410.24,233.466Z" style="fill-rule:nonzero;"/>
                    <path d="M412.354,230.79L412.354,236.146L411.534,236.146L411.534,230.79L412.354,230.79ZM412.354,228.842L412.354,229.808L411.534,229.808L411.534,228.842L412.354,228.842Z" style="fill-rule:nonzero;"/>
                    <path d="M416.153,236.259C415.365,236.259 414.749,236.003 414.305,235.492C413.861,234.981 413.638,234.312 413.638,233.485C413.642,232.652 413.869,231.976 414.32,231.456C414.77,230.937 415.388,230.678 416.173,230.678C416.449,230.678 416.717,230.712 416.976,230.78C417.235,230.848 417.439,230.938 417.589,231.049L417.364,231.683C416.983,231.478 416.581,231.376 416.158,231.376C415.64,231.376 415.231,231.565 414.93,231.942C414.629,232.32 414.478,232.836 414.478,233.49C414.478,234.128 414.627,234.633 414.925,235.006C415.223,235.379 415.635,235.565 416.163,235.565C416.583,235.565 417.012,235.451 417.452,235.223L417.554,235.873C417.2,236.13 416.732,236.259 416.153,236.259Z" style="fill-rule:nonzero;"/>
                    <path d="M420.718,231.351C420.302,231.351 419.962,231.499 419.698,231.793C419.434,232.088 419.28,232.491 419.234,233.002L422.061,233.002C422.061,232.471 421.942,232.064 421.702,231.779C421.463,231.494 421.135,231.351 420.718,231.351ZM420.88,236.259C420.102,236.259 419.489,236.011 419.041,235.516C418.594,235.022 418.37,234.345 418.37,233.485C418.37,232.655 418.586,231.982 419.019,231.466C419.452,230.95 420.022,230.687 420.728,230.678C421.392,230.678 421.919,230.905 422.308,231.359C422.697,231.813 422.891,232.419 422.891,233.178C422.891,233.217 422.891,233.288 422.889,233.392C422.887,233.497 422.886,233.571 422.886,233.617L419.21,233.617C419.219,234.226 419.377,234.7 419.681,235.04C419.985,235.381 420.395,235.551 420.909,235.551C421.475,235.551 422.043,235.401 422.613,235.101L422.74,235.761C422.196,236.093 421.576,236.259 420.88,236.259Z" style="fill-rule:nonzero;"/>
                    <path d="M425.621,236.259C425.256,236.259 424.92,236.22 424.613,236.141C424.305,236.063 424.055,235.962 423.863,235.839L423.966,235.15C424.509,235.44 425.043,235.585 425.567,235.585C426.361,235.585 426.77,235.305 426.793,234.745C426.793,234.507 426.708,234.32 426.539,234.183C426.37,234.047 426.037,233.894 425.543,233.724L425.137,233.583C424.669,233.427 424.334,233.233 424.134,233.002C423.934,232.771 423.832,232.483 423.829,232.138C423.829,231.718 423.997,231.369 424.334,231.093C424.671,230.816 425.133,230.678 425.718,230.678C426.324,230.678 426.876,230.795 427.374,231.029L427.134,231.654C426.63,231.446 426.158,231.342 425.718,231.342C425.377,231.342 425.109,231.409 424.915,231.544C424.722,231.679 424.625,231.869 424.625,232.113C424.625,232.321 424.695,232.481 424.835,232.592C424.975,232.702 425.255,232.829 425.675,232.973C425.782,233.012 425.917,233.057 426.08,233.109C426.62,233.285 427.003,233.493 427.227,233.732C427.452,233.971 427.564,234.294 427.564,234.701C427.558,235.196 427.38,235.579 427.032,235.851C426.684,236.123 426.213,236.259 425.621,236.259Z" style="fill-rule:nonzero;"/>
                    <path d="M430.386,236.244C429.859,236.244 429.485,236.115 429.263,235.858C429.042,235.601 428.925,235.186 428.912,234.613L428.912,231.395L428.116,231.395L428.15,230.858L428.907,230.79L429.185,229.564L429.722,229.545L429.722,230.79L431.212,230.79L431.212,231.395L429.722,231.395L429.722,234.467C429.722,234.874 429.784,235.16 429.908,235.326C430.032,235.492 430.243,235.575 430.543,235.575C430.65,235.575 430.883,235.549 431.241,235.497L431.275,236.141C430.888,236.21 430.592,236.244 430.386,236.244Z" style="fill-rule:nonzero;"/>
                    <path d="M433.677,235.599C434.065,235.599 434.406,235.493 434.7,235.28C434.995,235.066 435.185,234.779 435.269,234.418L435.269,233.515C435.253,233.515 435.155,233.523 434.974,233.539C434.793,233.555 434.675,233.565 434.62,233.568C433.913,233.63 433.421,233.746 433.143,233.915C432.864,234.084 432.725,234.356 432.725,234.73C432.725,235.017 432.81,235.233 432.979,235.38C433.148,235.526 433.381,235.599 433.677,235.599ZM435.45,236.146C435.401,235.938 435.354,235.713 435.308,235.473C435.012,235.769 434.734,235.974 434.473,236.088C434.213,236.202 433.907,236.259 433.555,236.259C433.054,236.259 432.651,236.128 432.347,235.866C432.043,235.604 431.89,235.227 431.89,234.735C431.89,234.188 432.098,233.783 432.513,233.519C432.928,233.256 433.526,233.091 434.307,233.026C434.415,233.016 434.577,233.003 434.793,232.985C435.01,232.967 435.172,232.953 435.279,232.943L435.279,232.47C435.279,232.092 435.191,231.812 435.015,231.63C434.84,231.447 434.563,231.356 434.185,231.356C433.658,231.356 433.126,231.487 432.589,231.747C432.572,231.708 432.53,231.595 432.462,231.408C432.393,231.22 432.357,231.124 432.354,231.117C432.592,230.984 432.874,230.877 433.201,230.797C433.529,230.717 433.861,230.678 434.2,230.678C434.867,230.678 435.348,230.823 435.643,231.115C435.937,231.406 436.085,231.902 436.085,232.601L436.085,236.146L435.45,236.146Z" style="fill-rule:nonzero;"/>
                    <path d="M439.893,230.741C440.04,230.741 440.173,230.751 440.294,230.77L440.264,231.522C440.115,231.496 439.984,231.483 439.874,231.483C439.418,231.483 439.048,231.642 438.763,231.959C438.478,232.277 438.336,232.67 438.336,233.139L438.336,236.146L437.52,236.146C437.517,232.859 437.515,231.073 437.515,230.79L438.194,230.79L438.272,231.752C438.458,231.449 438.694,231.205 438.98,231.019C439.267,230.834 439.571,230.741 439.893,230.741Z" style="fill-rule:nonzero;"/>
                    <path d="M442.842,236.244C442.315,236.244 441.941,236.115 441.719,235.858C441.498,235.601 441.381,235.186 441.368,234.613L441.368,231.395L440.572,231.395L440.606,230.858L441.363,230.79L441.641,229.564L442.178,229.545L442.178,230.79L443.668,230.79L443.668,231.395L442.178,231.395L442.178,234.467C442.178,234.874 442.24,235.16 442.364,235.326C442.488,235.492 442.699,235.575 442.999,235.575C443.106,235.575 443.339,235.549 443.697,235.497L443.731,236.141C443.344,236.21 443.048,236.244 442.842,236.244Z" style="fill-rule:nonzero;"/>
                </g>
                <g transform="matrix(1,0,0,1,47.5,5.16667)">
                    <path d="M471.936,234.146L471.936,226.925L476.077,226.925L476.043,227.672L472.781,227.672L472.781,230.035L475.882,230.035L475.882,230.772L472.781,230.772L472.781,233.399L476.15,233.399L476.111,234.146L471.936,234.146Z" style="fill-rule:nonzero;"/>
                    <path d="M477.366,234.146L477.366,228.79L478.05,228.79L478.152,229.557C478.364,229.293 478.628,229.08 478.946,228.919C479.263,228.758 479.606,228.678 479.973,228.678C480.592,228.678 481.049,228.851 481.345,229.198C481.642,229.544 481.79,230.077 481.79,230.797L481.79,234.146L480.974,234.146C480.974,231.998 480.973,230.847 480.969,230.694C480.956,230.238 480.864,229.905 480.694,229.693C480.523,229.482 480.237,229.376 479.837,229.376C479.417,229.376 479.067,229.477 478.787,229.679C478.507,229.88 478.325,230.142 478.24,230.465C478.207,230.683 478.191,230.933 478.191,231.217L478.191,234.146L477.366,234.146Z" style="fill-rule:nonzero;"/>
                    <path d="M484.519,234.146L482.444,228.79L483.318,228.79L484.5,231.973C484.5,231.973 484.662,232.426 484.988,233.331C485.099,232.983 485.252,232.533 485.447,231.983C485.694,231.29 486.078,230.225 486.599,228.79L487.468,228.79L485.408,234.146L484.519,234.146Z" style="fill-rule:nonzero;"/>
                    <path d="M490.222,229.351C489.806,229.351 489.466,229.499 489.202,229.793C488.938,230.088 488.784,230.491 488.738,231.002L491.565,231.002C491.565,230.471 491.446,230.064 491.206,229.779C490.967,229.494 490.639,229.351 490.222,229.351ZM490.384,234.259C489.606,234.259 488.993,234.011 488.545,233.516C488.098,233.022 487.874,232.345 487.874,231.485C487.874,230.655 488.09,229.982 488.523,229.466C488.956,228.95 489.526,228.687 490.232,228.678C490.896,228.678 491.423,228.905 491.812,229.359C492.201,229.813 492.395,230.419 492.395,231.178C492.395,231.217 492.394,231.288 492.393,231.392C492.391,231.497 492.39,231.571 492.39,231.617L488.714,231.617C488.723,232.226 488.88,232.7 489.185,233.04C489.489,233.381 489.898,233.551 490.413,233.551C490.979,233.551 491.547,233.401 492.117,233.101L492.244,233.761C491.7,234.093 491.08,234.259 490.384,234.259Z" style="fill-rule:nonzero;"/>
                    <path d="M494.968,234.244C494.448,234.244 494.079,234.104 493.863,233.824C493.646,233.544 493.538,233.057 493.538,232.364L493.538,226.71L494.348,226.661L494.348,232.042C494.348,232.263 494.351,232.441 494.356,232.574C494.361,232.708 494.373,232.839 494.392,232.967C494.412,233.096 494.438,233.193 494.47,233.258C494.503,233.323 494.55,233.382 494.612,233.436C494.674,233.49 494.748,233.525 494.834,233.543C494.92,233.561 495.027,233.57 495.154,233.57C495.258,233.57 495.463,233.551 495.769,233.512L495.813,234.161C495.478,234.216 495.196,234.244 494.968,234.244Z" style="fill-rule:nonzero;"/>
                    <path d="M496.902,231.48C496.902,232.115 497.043,232.624 497.324,233.006C497.606,233.389 498.017,233.58 498.557,233.58C499.091,233.58 499.494,233.39 499.766,233.009C500.038,232.628 500.174,232.115 500.174,231.471C500.174,230.816 500.039,230.301 499.771,229.925C499.502,229.549 499.093,229.361 498.543,229.361C498.009,229.361 497.602,229.553 497.322,229.937C497.042,230.321 496.902,230.836 496.902,231.48ZM501.018,231.466C501.018,232.296 500.797,232.969 500.354,233.485C499.912,234.001 499.3,234.259 498.518,234.259C497.766,234.259 497.168,233.998 496.724,233.477C496.28,232.957 496.057,232.288 496.057,231.471C496.057,230.637 496.28,229.963 496.726,229.449C497.172,228.935 497.784,228.678 498.562,228.678C499.327,228.678 499.928,228.936 500.364,229.452C500.8,229.967 501.018,230.639 501.018,231.466Z" style="fill-rule:nonzero;"/>
                    <path d="M502.171,236.471L502.171,228.79L502.888,228.79L502.967,229.517C503.435,228.958 503.998,228.678 504.656,228.678C505.144,228.678 505.558,228.8 505.896,229.044C506.235,229.288 506.485,229.618 506.646,230.035C506.807,230.452 506.887,230.938 506.887,231.495C506.887,232.029 506.8,232.503 506.624,232.918C506.448,233.333 506.19,233.661 505.85,233.9C505.51,234.139 505.112,234.259 504.656,234.259C504.311,234.259 503.987,234.181 503.684,234.027C503.382,233.872 503.139,233.668 502.957,233.414C502.976,233.765 502.986,234.107 502.986,234.439L502.986,236.417L502.171,236.471ZM504.544,233.57C504.791,233.57 505.012,233.514 505.208,233.402C505.403,233.289 505.561,233.136 505.681,232.94C505.802,232.745 505.893,232.523 505.955,232.274C506.017,232.025 506.048,231.755 506.048,231.466C506.048,230.854 505.919,230.352 505.662,229.959C505.405,229.567 505.029,229.371 504.534,229.371C503.499,229.371 502.981,230.04 502.981,231.378C502.981,232.104 503.102,232.651 503.345,233.018C503.587,233.386 503.987,233.57 504.544,233.57Z" style="fill-rule:nonzero;"/>
                    <path d="M510.139,229.351C509.723,229.351 509.383,229.499 509.119,229.793C508.855,230.088 508.701,230.491 508.655,231.002L511.482,231.002C511.482,230.471 511.363,230.064 511.123,229.779C510.884,229.494 510.556,229.351 510.139,229.351ZM510.301,234.259C509.523,234.259 508.91,234.011 508.462,233.516C508.015,233.022 507.791,232.345 507.791,231.485C507.791,230.655 508.007,229.982 508.44,229.466C508.873,228.95 509.443,228.687 510.149,228.678C510.813,228.678 511.34,228.905 511.729,229.359C512.118,229.813 512.312,230.419 512.312,231.178C512.312,231.217 512.311,231.288 512.31,231.392C512.308,231.497 512.307,231.571 512.307,231.617L508.631,231.617C508.64,232.226 508.797,232.7 509.102,233.04C509.406,233.381 509.815,233.551 510.33,233.551C510.896,233.551 511.464,233.401 512.034,233.101L512.161,233.761C511.617,234.093 510.997,234.259 510.301,234.259Z" style="fill-rule:nonzero;"/>
                </g>
            </g>
            <g transform="matrix(0.735632,0,0,1.44,83.4109,-250.374)">
                <path d="M372.25,318.861L372.25,310.111L391.281,310.111L391.281,301.986L415.75,314.486L391.281,326.986L391.281,318.861L372.25,318.861Z" style="fill:rgb(141,141,141);"/>
            </g>
            <g transform="matrix(0.00427385,0,0,-0.00427385,301.737,202.472)">
                <g>
                    <g>
                        <path d="M4561,4807.5C3633.8,4725.1 2741,4370.7 1972.8,3778.7C1599.2,3491.3 1116.5,2953 834.8,2510.5C714.1,2322.8 480.4,1841.9 392.3,1602.4C168.2,997.1 64.7,255.7 110.7,-388C135.6,-752 172,-968.5 258.2,-1313.3C346.3,-1654.3 432.5,-1886.1 612.6,-2250.1C865.5,-2763.5 1145.2,-3154.3 1553.2,-3556.7C2095.4,-4091.2 2660.5,-4443.7 3409.6,-4711.9L3616.5,-4786.6L3689.3,-4648.7C3865.5,-4307.7 4156.7,-3972.4 4392.4,-3832.6C4610.8,-3704.3 4733.4,-3669.8 4990.1,-3669.8C5246.8,-3669.8 5369.4,-3704.3 5587.8,-3832.6C5823.4,-3972.5 6135.7,-4338.4 6300.5,-4667.9C6367.6,-4803.9 6333,-4802 6666.4,-4685.1C6951.9,-4583.6 7442.3,-4338.4 7700.9,-4165.9C8260.3,-3794.2 8741.2,-3309.5 9105.1,-2757.8C9258.4,-2524.1 9507.4,-2026 9607,-1754C9829.2,-1146.7 9936.5,-395.7 9888.6,244.1C9798.6,1495.1 9281.3,2598.6 8382.8,3462.6C7365.7,4441.6 5969.1,4932.1 4561,4807.5ZM5580.2,4395.7C6568.7,4278.8 7503.6,3807.6 8229.7,3064.2C8936.6,2336.2 9361.9,1445.4 9482.6,431.9C9515.2,171.4 9509.4,-372.7 9473,-660.1C9270,-2230.9 8243.1,-3591.1 6787.1,-4215.7C6572.5,-4307.7 6561,-4311.5 6536.1,-4277C6197,-3790.4 5971,-3579.7 5605,-3409.2C5373.2,-3300 5197,-3267.4 4915.3,-3280.8C4750.5,-3286.5 4647.1,-3301.9 4559,-3332.5C4152.9,-3466.6 3804.2,-3744.4 3532.1,-4150.5L3426.7,-4305.7L3279.2,-4246.3C2913.3,-4096.9 2511,-3861.2 2177.6,-3594.9C1279.3,-2880.4 677.8,-1811.4 526.4,-660C490,-389.9 484.3,179.1 514.9,432C614.5,1244.3 905.7,1978 1386.6,2621.7C1576.3,2876.5 2036,3340.1 2279.3,3522.1C2664.4,3809.5 3072.4,4027.9 3492,4175.4C4189.4,4418.6 4821.6,4485.7 5580.2,4395.7Z" style="fill:rgb(141,141,141);fill-rule:nonzero;"/>
                        <path d="M4712.4,3771.1C4428.9,3671.5 4223.9,3445.4 4147.3,3148.5C3992,2554.6 4520.8,1974.1 5130,2069.9C5886.7,2188.7 6141.5,3142.7 5545.7,3627.4C5384.8,3755.8 5262.2,3797.9 5028.4,3807.5C4865.6,3813.3 4817.7,3807.5 4712.4,3771.1ZM5222,3376.5C5312,3330.5 5415.5,3221.3 5450,3135.1C5532.4,2935.9 5492.1,2746.2 5338.9,2596.8C5199,2460.8 5030.5,2418.6 4842.7,2476.1C4756.5,2501 4609,2623.6 4568.7,2702.2C4428.9,2972.3 4555.3,3298 4838.8,3403.4C4938.4,3439.7 5122.3,3428.2 5222,3376.5Z" style="fill:rgb(141,141,141);fill-rule:nonzero;"/>
                        <path d="M2652.9,2918.6C2329.1,2803.6 2126.1,2569.9 2057.1,2236.6C1972.8,1838.1 2210.4,1407.1 2591.6,1261.5C2833,1169.5 3074.4,1181.1 3308.1,1296C3486.3,1382.2 3618.5,1516.3 3710.4,1702.1C3773.6,1828.5 3783.2,1864.9 3788.9,2022C3806.2,2407.1 3620.3,2719.3 3281.2,2880.3C3164.3,2934 3129.9,2941.6 2949.8,2945.4C2794.7,2951.2 2727.6,2943.5 2652.9,2918.6ZM3130,2520.1C3432.7,2374.5 3501.7,1970.3 3266,1732.7C3089.7,1558.4 2794.7,1546.9 2601.2,1705.9C2562.9,1738.5 2509.2,1807.4 2482.4,1863C2354,2119.7 2478.6,2439.6 2748.7,2539.3C2848.3,2575.7 3034.2,2566.1 3130,2520.1Z" style="fill:rgb(141,141,141);fill-rule:nonzero;"/>
                        <path d="M6810.1,2918.6C6662.6,2865 6551.5,2792.2 6442.3,2679.1C6266,2491.4 6197.1,2299.8 6210.5,2022C6216.2,1864.9 6225.8,1828.5 6289,1700.2C6446.1,1382.2 6727.7,1204 7078.3,1202.1C7568.7,1198.3 7959.5,1589.1 7955.7,2079.5C7953.8,2432 7775.6,2711.7 7455.7,2868.8C7319.7,2937.8 7298.6,2941.6 7108.9,2947.3C6951.9,2951.2 6884.9,2943.5 6810.1,2918.6ZM7243.1,2539.3C7672.2,2391.8 7672.2,1767.2 7243.1,1619.7C6921.3,1510.5 6589.8,1742.3 6589.8,2079.5C6589.8,2412.8 6923.2,2648.5 7243.1,2539.3Z" style="fill:rgb(141,141,141);fill-rule:nonzero;"/>
                        <path d="M1877.1,861.1C1735.3,834.3 1549.5,730.8 1434.6,615.9C1105.1,286.4 1093.6,-255.8 1407.8,-591C1810.1,-1022 2480.6,-964.6 2798.6,-474.1C2898.2,-318.9 2938.4,-158 2926.9,52.7C2921.2,200.2 2909.7,244.3 2848.4,372.6C2672.1,742.3 2281.3,939.6 1877.1,861.1ZM2269.8,433.9C2430.7,359.2 2526.5,221.2 2541.8,35.4C2561,-158.1 2451.8,-349.6 2271.7,-445.4C2162.5,-502.9 1955.6,-502.9 1846.4,-445.4C1478.6,-250 1478.6,255.8 1848.3,439.7C1959.4,495.2 2145.3,493.3 2269.8,433.9Z" style="fill:rgb(141,141,141);fill-rule:nonzero;"/>
                        <path d="M7735.4,851.5C7061.1,688.7 6835,-177.2 7344.6,-646.6C7637.7,-916.7 8078.3,-958.9 8407.9,-748.2C8884.9,-441.7 8959.6,219.3 8565,615.8C8342.7,838.1 8034.3,924.3 7735.4,851.5ZM8128.2,451.1C8358.1,355.3 8480.7,89 8406,-156.2C8377.3,-252 8256.6,-389.9 8153.1,-445.5C8043.9,-503 7837,-503 7727.8,-445.5C7363.8,-253.9 7363.8,265.2 7729.7,433.8C7842.7,487.5 8022.8,495.2 8128.2,451.1Z" style="fill:rgb(141,141,141);fill-rule:nonzero;"/>
                    </g>
                </g>
            </g>
            <g transform="matrix(0.776786,0,0,1.40741,138.563,-565.964)">
                <path d="M679,559.547L683,532.547L689,542.047L708.5,542.547C708.5,542.547 713,557.547 735,557.547" style="fill:rgb(141,141,141);"/>
            </g>
            <g transform="matrix(0.735632,0,0,1.44,342.411,-250.374)">
                <path d="M372.25,318.861L372.25,310.111L391.281,310.111L391.281,301.986L415.75,314.486L391.281,326.986L391.281,318.861L372.25,318.861Z" style="fill:rgb(141,141,141);"/>
            </g>
            <g transform="matrix(1.14841,0,0,1.14841,14.0602,-20.9668)">
                <path d="M400.932,202.75L401.814,202.75L401.814,200.764C402.024,200.56 402.18,200.452 402.42,200.452C402.744,200.452 402.858,200.632 402.858,201.028L402.858,202.75L403.74,202.75L403.74,200.914C403.74,200.164 403.44,199.702 402.774,199.702C402.324,199.702 402.006,199.918 401.784,200.146L401.766,200.146L401.814,199.576L401.814,198.544L400.932,198.544L400.932,202.75Z" style="fill:rgb(46,46,46);fill-rule:nonzero;"/>
                <path d="M405.768,202.75L406.65,202.75L406.65,199.774L404.574,199.774L404.574,200.464L405.768,200.464L405.768,202.75ZM406.17,199.306C406.512,199.306 406.758,199.096 406.758,198.772C406.758,198.448 406.512,198.22 406.17,198.22C405.828,198.22 405.582,198.448 405.582,198.772C405.582,199.096 405.828,199.306 406.17,199.306Z" style="fill:rgb(46,46,46);fill-rule:nonzero;"/>
                <path d="M409.476,202.822C410.43,202.822 410.94,202.402 410.94,201.862C410.94,201.376 410.688,201.118 409.77,200.908C409.266,200.794 409.08,200.758 409.08,200.59C409.08,200.452 409.218,200.356 409.494,200.356C409.824,200.356 410.166,200.458 410.466,200.638L410.862,200.11C410.55,199.912 410.106,199.702 409.572,199.702C408.726,199.702 408.204,200.08 408.204,200.632C408.204,201.094 408.528,201.388 409.338,201.562C409.92,201.688 410.07,201.748 410.07,201.916C410.07,202.06 409.92,202.168 409.596,202.168C409.17,202.168 408.762,202.042 408.396,201.814L408.018,202.366C408.396,202.618 408.942,202.822 409.476,202.822Z" style="fill:rgb(46,46,46);fill-rule:nonzero;"/>
                <path d="M413.28,202.822C413.676,202.822 414.12,202.69 414.462,202.474L414.168,201.94C413.904,202.078 413.67,202.15 413.4,202.15C412.914,202.15 412.596,201.958 412.512,201.526L414.54,201.526C414.552,201.454 414.582,201.292 414.582,201.13C414.582,200.32 414.096,199.702 413.178,199.702C412.38,199.702 411.63,200.284 411.63,201.262C411.63,202.252 412.35,202.822 413.28,202.822ZM413.208,200.374C413.55,200.374 413.754,200.566 413.796,200.932L412.524,200.932C412.614,200.56 412.86,200.374 413.208,200.374Z" style="fill:rgb(46,46,46);fill-rule:nonzero;"/>
                <path d="M416.7,200.884C417.114,200.884 417.396,200.578 417.396,200.182C417.396,199.786 417.114,199.474 416.7,199.474C416.286,199.474 416.004,199.786 416.004,200.182C416.004,200.578 416.286,200.884 416.7,200.884ZM416.7,202.822C417.114,202.822 417.396,202.516 417.396,202.12C417.396,201.724 417.114,201.412 416.7,201.412C416.286,201.412 416.004,201.724 416.004,202.12C416.004,202.516 416.286,202.822 416.7,202.822Z" style="fill:rgb(46,46,46);fill-rule:nonzero;"/>
                <path d="M420.3,200.884C420.714,200.884 420.996,200.578 420.996,200.182C420.996,199.786 420.714,199.474 420.3,199.474C419.886,199.474 419.604,199.786 419.604,200.182C419.604,200.578 419.886,200.884 420.3,200.884ZM420.3,202.822C420.714,202.822 420.996,202.516 420.996,202.12C420.996,201.724 420.714,201.412 420.3,201.412C419.886,201.412 419.604,201.724 419.604,202.12C419.604,202.516 419.886,202.822 420.3,202.822Z" style="fill:rgb(46,46,46);fill-rule:nonzero;"/>
                <path d="M422.448,202.75L423.18,202.75L423.18,201.538C423.18,201.1 423.108,200.146 423.066,199.726L423.084,199.726L423.366,200.77L423.672,201.712L424.104,201.712L424.404,200.77L424.704,199.726L424.722,199.726C424.686,200.146 424.608,201.1 424.608,201.538L424.608,202.75L425.352,202.75L425.352,198.838L424.428,198.838L424.044,200.224L423.912,200.764L423.888,200.764L423.756,200.224L423.372,198.838L422.448,198.838L422.448,202.75Z" style="fill:rgb(46,46,46);fill-rule:nonzero;"/>
                <path d="M427.5,202.822C428.286,202.822 429.018,202.252 429.018,201.262C429.018,200.272 428.286,199.702 427.5,199.702C426.714,199.702 425.982,200.272 425.982,201.262C425.982,202.252 426.714,202.822 427.5,202.822ZM427.5,202.108C427.092,202.108 426.888,201.778 426.888,201.262C426.888,200.746 427.092,200.416 427.5,200.416C427.908,200.416 428.112,200.746 428.112,201.262C428.112,201.778 427.908,202.108 427.5,202.108Z" style="fill:rgb(46,46,46);fill-rule:nonzero;"/>
                <path d="M430.836,202.822C431.136,202.822 431.442,202.66 431.664,202.444L431.682,202.444L431.748,202.75L432.468,202.75L432.468,198.544L431.586,198.544L431.586,199.558L431.628,200.02L431.604,200.02C431.406,199.816 431.184,199.702 430.854,199.702C430.206,199.702 429.582,200.29 429.582,201.262C429.582,202.234 430.08,202.822 430.836,202.822ZM431.064,202.102C430.698,202.102 430.488,201.838 430.488,201.25C430.488,200.686 430.764,200.422 431.088,200.422C431.262,200.422 431.424,200.476 431.586,200.62L431.586,201.826C431.43,202.024 431.262,202.102 431.064,202.102Z" style="fill:rgb(46,46,46);fill-rule:nonzero;"/>
                <path d="M434.238,202.822C434.664,202.822 434.976,202.624 435.24,202.324L435.264,202.324L435.33,202.75L436.05,202.75L436.05,199.774L435.168,199.774L435.168,201.73C434.964,201.994 434.808,202.072 434.586,202.072C434.256,202.072 434.154,201.892 434.154,201.496L434.154,199.774L433.272,199.774L433.272,201.61C433.272,202.36 433.56,202.822 434.238,202.822Z" style="fill:rgb(46,46,46);fill-rule:nonzero;"/>
                <path d="M438.87,202.822C439.242,202.822 439.452,202.762 439.764,202.66L439.566,202.012C439.386,202.084 439.242,202.108 439.104,202.108C438.852,202.108 438.618,201.988 438.618,201.622L438.618,198.544L436.866,198.544L436.866,199.24L437.736,199.24L437.736,201.586C437.736,202.342 438.126,202.822 438.87,202.822Z" style="fill:rgb(46,46,46);fill-rule:nonzero;"/>
                <path d="M441.444,202.822C441.828,202.822 442.2,202.642 442.5,202.414L442.524,202.414L442.59,202.75L443.31,202.75L443.31,201.046C443.31,200.134 442.8,199.702 441.966,199.702C441.456,199.702 440.982,199.87 440.574,200.104L440.886,200.68C441.222,200.512 441.504,200.404 441.792,200.404C442.194,200.404 442.398,200.566 442.428,200.836C441.018,200.92 440.466,201.256 440.466,201.922C440.466,202.426 440.844,202.822 441.444,202.822ZM441.726,202.138C441.474,202.138 441.312,202.048 441.312,201.856C441.312,201.598 441.552,201.412 442.428,201.364L442.428,201.856C442.218,202.018 441.99,202.138 441.726,202.138Z" style="fill:rgb(46,46,46);fill-rule:nonzero;"/>
                <path d="M446.028,202.822C446.424,202.822 446.736,202.738 447,202.66L446.844,202.024C446.664,202.084 446.478,202.132 446.256,202.132C445.818,202.132 445.626,201.958 445.626,201.508L445.626,200.464L446.886,200.464L446.886,199.774L445.626,199.774L445.626,198.862L444.9,198.862L444.786,199.774L443.994,199.81L443.994,200.464L444.744,200.464L444.744,201.514C444.744,202.294 445.08,202.822 446.028,202.822Z" style="fill:rgb(46,46,46);fill-rule:nonzero;"/>
                <path d="M449.1,202.822C449.886,202.822 450.618,202.252 450.618,201.262C450.618,200.272 449.886,199.702 449.1,199.702C448.314,199.702 447.582,200.272 447.582,201.262C447.582,202.252 448.314,202.822 449.1,202.822ZM449.1,202.108C448.692,202.108 448.488,201.778 448.488,201.262C448.488,200.746 448.692,200.416 449.1,200.416C449.508,200.416 449.712,200.746 449.712,201.262C449.712,201.778 449.508,202.108 449.1,202.108Z" style="fill:rgb(46,46,46);fill-rule:nonzero;"/>
                <path d="M451.596,202.75L452.478,202.75L452.478,201.202C452.73,200.668 453.114,200.476 453.48,200.476C453.702,200.476 453.822,200.506 454.008,200.56L454.188,199.822C454.014,199.744 453.876,199.702 453.612,199.702C453.138,199.702 452.7,199.936 452.406,200.422L452.388,200.422L452.316,199.774L451.596,199.774L451.596,202.75Z" style="fill:rgb(46,46,46);fill-rule:nonzero;"/>
            </g>
            <g transform="matrix(1,0,0,1,0,-355)">
                <path d="M405.237,582.443L606.737,582.443L543.737,582.443L543.737,605.443L543.737,582.443L467.237,582.443L467.237,605.443" style="fill:none;stroke:black;stroke-width:1px;"/>
            </g>
        </g>
    </g>
</svg>
