<?xml version="1.0" encoding="UTF-8" standalone="no"?>
<!DOCTYPE svg PUBLIC "-//W3C//DTD SVG 1.1//EN" "http://www.w3.org/Graphics/SVG/1.1/DTD/svg11.dtd">
<svg width="100%" height="100%" viewBox="0 0 469 316" version="1.1" xmlns="http://www.w3.org/2000/svg" xmlns:xlink="http://www.w3.org/1999/xlink" xml:space="preserve" style="fill-rule:evenodd;clip-rule:evenodd;stroke-miterlimit:1.41421;">
    <g>
        <path d="M191.998,187.124L193.758,188.884L111.483,271.159L113.117,272.794L108.088,272.794L108.088,267.764L109.722,269.399L191.998,187.124Z" style="fill:rgb(129,129,129);stroke:rgb(94,94,94);stroke-width:2.5px;"/>
        <path d="M191.926,189.195L191.926,187.181L353.284,187.181L353.284,185.31L356.162,188.188L353.284,191.066L353.284,189.195L191.926,189.195Z" style="fill:rgb(129,129,129);stroke:rgb(94,94,94);stroke-width:2.5px;"/>
        <path d="M193.7,188.956L191.686,188.956L191.686,27.597L189.815,27.597L192.693,24.719L195.571,27.597L193.7,27.597L193.7,188.956Z" style="fill:rgb(129,129,129);stroke:rgb(94,94,94);stroke-width:2.5px;"/>
    </g>
    <g>
        <path d="M369.619,193.109L369.619,181.663L371.869,181.663C372.275,182.299 373.101,183.58 374.345,185.507C375.59,187.434 376.348,188.606 376.619,189.023C376.697,189.143 376.831,189.344 377.021,189.628C377.211,189.912 377.345,190.114 377.423,190.234C377.387,188.447 377.369,187.52 377.369,187.452L377.369,181.663L379.298,181.663L379.298,193.109L377.017,193.109L371.853,185.062L371.478,184.445C371.52,185.82 371.541,186.786 371.541,187.343L371.541,193.109L369.619,193.109Z" style="fill:rgb(129,129,129);"/>
        <path d="M385.306,191.718C385.999,191.718 386.52,191.465 386.869,190.96C387.218,190.455 387.392,189.731 387.392,188.788C387.392,187.835 387.218,187.109 386.869,186.609C386.52,186.109 385.994,185.859 385.291,185.859C384.598,185.859 384.076,186.11 383.724,186.613C383.373,187.115 383.197,187.843 383.197,188.796C383.197,189.734 383.374,190.455 383.728,190.96C384.082,191.465 384.608,191.718 385.306,191.718ZM385.252,193.273C383.981,193.273 382.981,192.861 382.252,192.038C381.522,191.215 381.158,190.132 381.158,188.788C381.158,187.403 381.522,186.311 382.252,185.511C382.981,184.712 384.009,184.312 385.337,184.312C386.619,184.312 387.623,184.719 388.349,185.534C389.076,186.35 389.439,187.434 389.439,188.788C389.439,190.158 389.072,191.248 388.337,192.058C387.603,192.868 386.574,193.273 385.252,193.273Z" style="fill:rgb(129,129,129);"/>
        <path d="M394.541,193.226C393.957,193.226 393.472,193.157 393.084,193.019C392.696,192.881 392.392,192.663 392.173,192.367C391.955,192.07 391.8,191.719 391.709,191.316C391.617,190.912 391.572,190.413 391.572,189.82L391.572,185.765L390.166,185.765L390.244,184.656L391.712,184.523L392.369,182.195L393.619,182.187L393.619,184.523L395.752,184.523L395.752,185.765L393.619,185.765L393.619,189.859C393.619,190.51 393.712,190.973 393.9,191.249C394.087,191.525 394.434,191.663 394.939,191.663C395.236,191.663 395.554,191.637 395.892,191.585L395.947,193.054C395.936,193.054 395.873,193.066 395.755,193.089C395.638,193.113 395.526,193.133 395.42,193.152C395.313,193.17 395.176,193.187 395.009,193.202C394.843,193.218 394.686,193.226 394.541,193.226Z" style="fill:rgb(129,129,129);"/>
        <path d="M401.283,193.273C399.903,193.273 398.828,192.876 398.06,192.081C397.292,191.287 396.908,190.189 396.908,188.788C396.908,187.424 397.27,186.338 397.994,185.531C398.718,184.723 399.705,184.317 400.955,184.312C402.137,184.312 403.055,184.682 403.709,185.421C404.362,186.161 404.689,187.143 404.689,188.367C404.689,188.455 404.688,188.598 404.685,188.796C404.683,188.994 404.681,189.14 404.681,189.234L398.97,189.234C398.991,190.036 399.211,190.657 399.63,191.097C400.05,191.537 400.627,191.757 401.361,191.757C402.298,191.757 403.199,191.512 404.064,191.023L404.353,192.476C403.494,193.007 402.47,193.273 401.283,193.273ZM399.009,187.945L402.759,187.945C402.759,187.247 402.601,186.71 402.283,186.335C401.965,185.96 401.525,185.773 400.962,185.773C400.436,185.773 399.992,185.955 399.63,186.32C399.268,186.684 399.061,187.226 399.009,187.945Z" style="fill:rgb(129,129,129);"/>
        <path d="M410.58,193.109L410.58,184.523L412.228,184.523L412.455,185.609C413.33,184.744 414.301,184.312 415.369,184.312C416.369,184.312 417.117,184.6 417.615,185.175C418.112,185.751 418.361,186.585 418.361,187.679L418.361,193.109L416.306,193.109L416.306,187.929C416.301,187.236 416.189,186.718 415.97,186.374C415.752,186.031 415.358,185.859 414.791,185.859C414.348,185.859 413.943,185.972 413.576,186.199C413.209,186.425 412.942,186.71 412.775,187.054C412.676,187.46 412.627,188.085 412.627,188.929L412.627,193.109L410.58,193.109Z" style="fill:rgb(129,129,129);"/>
        <path d="M423.877,193.273C422.762,193.273 421.865,192.994 421.185,192.437C420.505,191.88 420.166,191.062 420.166,189.984L420.166,184.523L422.22,184.523L422.22,189.906C422.22,190.546 422.354,191.01 422.623,191.296C422.891,191.583 423.317,191.726 423.9,191.726C424.473,191.726 424.891,191.584 425.154,191.3C425.417,191.016 425.548,190.551 425.548,189.906L425.548,184.523L427.595,184.523L427.595,189.984C427.595,191.057 427.254,191.873 426.572,192.433C425.89,192.993 424.991,193.273 423.877,193.273Z" style="fill:rgb(129,129,129);"/>
        <path d="M429.462,193.109L429.462,184.523L431.119,184.523L431.353,185.617C431.457,185.486 431.558,185.37 431.654,185.269C431.75,185.167 431.883,185.053 432.052,184.925C432.222,184.797 432.401,184.692 432.591,184.609C432.781,184.525 433.016,184.455 433.295,184.398C433.573,184.34 433.871,184.312 434.189,184.312C434.871,184.312 435.417,184.45 435.826,184.726C436.235,185.002 436.522,185.325 436.689,185.695C436.996,185.252 437.395,184.911 437.884,184.671C438.374,184.432 438.918,184.312 439.517,184.312C440.502,184.312 441.224,184.59 441.685,185.148C442.146,185.705 442.377,186.531 442.377,187.624L442.377,193.109L440.322,193.109L440.322,188.234C440.322,187.395 440.229,186.79 440.045,186.417C439.86,186.045 439.507,185.859 438.986,185.859C438.189,185.859 437.616,186.218 437.267,186.937C437.121,187.255 437.022,187.637 436.97,188.085L436.97,193.109L434.923,193.109L434.923,188.14C434.923,187.374 434.822,186.804 434.619,186.429C434.416,186.054 434.048,185.867 433.517,185.867C433.085,185.867 432.712,185.976 432.4,186.195C432.087,186.413 431.851,186.7 431.689,187.054C431.569,187.58 431.509,188.21 431.509,188.945L431.509,193.109L429.462,193.109Z" style="fill:rgb(129,129,129);"/>
        <path d="M448.994,193.273C448.41,193.273 447.88,193.144 447.404,192.886C446.927,192.628 446.582,192.335 446.369,192.007L446.166,193.101L444.392,193.101L444.392,181.359L446.439,181.226L446.439,183.882C446.439,184.398 446.423,184.984 446.392,185.64C447.069,184.755 447.952,184.312 449.041,184.312C450.134,184.312 450.992,184.718 451.615,185.531C452.237,186.343 452.548,187.406 452.548,188.718C452.548,190.083 452.227,191.183 451.584,192.019C450.94,192.855 450.077,193.273 448.994,193.273ZM448.502,191.718C449.111,191.718 449.598,191.46 449.962,190.945C450.327,190.429 450.509,189.697 450.509,188.749C450.509,187.796 450.331,187.075 449.974,186.585C449.617,186.096 449.134,185.851 448.525,185.851C447.14,185.851 446.439,186.786 446.423,188.656C446.423,189.708 446.598,190.481 446.947,190.976C447.296,191.471 447.814,191.718 448.502,191.718Z" style="fill:rgb(129,129,129);"/>
        <path d="M458.189,193.273C456.809,193.273 455.735,192.876 454.966,192.081C454.198,191.287 453.814,190.189 453.814,188.788C453.814,187.424 454.176,186.338 454.9,185.531C455.624,184.723 456.611,184.317 457.861,184.312C459.043,184.312 459.961,184.682 460.615,185.421C461.268,186.161 461.595,187.143 461.595,188.367C461.595,188.455 461.594,188.598 461.591,188.796C461.589,188.994 461.587,189.14 461.587,189.234L455.877,189.234C455.897,190.036 456.117,190.657 456.537,191.097C456.956,191.537 457.533,191.757 458.267,191.757C459.205,191.757 460.106,191.512 460.97,191.023L461.259,192.476C460.4,193.007 459.377,193.273 458.189,193.273ZM455.916,187.945L459.666,187.945C459.666,187.247 459.507,186.71 459.189,186.335C458.871,185.96 458.431,185.773 457.869,185.773C457.343,185.773 456.899,185.955 456.537,186.32C456.175,186.684 455.968,187.226 455.916,187.945Z" style="fill:rgb(129,129,129);"/>
        <path d="M463.267,193.109L463.267,184.523L464.986,184.523L465.252,185.835C465.814,184.934 466.629,184.484 467.697,184.484C467.921,184.484 468.103,184.494 468.244,184.515L468.212,186.226C468.004,186.195 467.788,186.179 467.564,186.179C466.809,186.179 466.245,186.38 465.873,186.781C465.5,187.182 465.314,187.739 465.314,188.452L465.314,193.109L463.267,193.109Z" style="fill:rgb(129,129,129);"/>
        <path d="M369.619,193.109L369.619,181.663L371.869,181.663C372.275,182.299 373.101,183.58 374.345,185.507C375.59,187.434 376.348,188.606 376.619,189.023C376.697,189.143 376.831,189.344 377.021,189.628C377.211,189.912 377.345,190.114 377.423,190.234C377.387,188.447 377.369,187.52 377.369,187.452L377.369,181.663L379.298,181.663L379.298,193.109L377.017,193.109L371.853,185.062L371.478,184.445C371.52,185.82 371.541,186.786 371.541,187.343L371.541,193.109L369.619,193.109Z" style="fill:rgb(129,129,129);fill-rule:nonzero;"/>
        <path d="M385.306,191.718C385.999,191.718 386.52,191.465 386.869,190.96C387.218,190.455 387.392,189.731 387.392,188.788C387.392,187.835 387.218,187.109 386.869,186.609C386.52,186.109 385.994,185.859 385.291,185.859C384.598,185.859 384.076,186.11 383.724,186.613C383.373,187.115 383.197,187.843 383.197,188.796C383.197,189.734 383.374,190.455 383.728,190.96C384.082,191.465 384.608,191.718 385.306,191.718ZM385.252,193.273C383.981,193.273 382.981,192.861 382.252,192.038C381.522,191.215 381.158,190.132 381.158,188.788C381.158,187.403 381.522,186.311 382.252,185.511C382.981,184.712 384.009,184.312 385.337,184.312C386.619,184.312 387.623,184.719 388.349,185.534C389.076,186.35 389.439,187.434 389.439,188.788C389.439,190.158 389.072,191.248 388.337,192.058C387.603,192.868 386.574,193.273 385.252,193.273Z" style="fill:rgb(129,129,129);fill-rule:nonzero;"/>
        <path d="M394.541,193.226C393.957,193.226 393.472,193.157 393.084,193.019C392.696,192.881 392.392,192.663 392.173,192.367C391.955,192.07 391.8,191.719 391.709,191.316C391.617,190.912 391.572,190.413 391.572,189.82L391.572,185.765L390.166,185.765L390.244,184.656L391.712,184.523L392.369,182.195L393.619,182.187L393.619,184.523L395.752,184.523L395.752,185.765L393.619,185.765L393.619,189.859C393.619,190.51 393.712,190.973 393.9,191.249C394.087,191.525 394.434,191.663 394.939,191.663C395.236,191.663 395.554,191.637 395.892,191.585L395.947,193.054C395.936,193.054 395.873,193.066 395.755,193.089C395.638,193.113 395.526,193.133 395.42,193.152C395.313,193.17 395.176,193.187 395.009,193.202C394.843,193.218 394.686,193.226 394.541,193.226Z" style="fill:rgb(129,129,129);fill-rule:nonzero;"/>
        <path d="M401.283,193.273C399.903,193.273 398.828,192.876 398.06,192.081C397.292,191.287 396.908,190.189 396.908,188.788C396.908,187.424 397.27,186.338 397.994,185.531C398.718,184.723 399.705,184.317 400.955,184.312C402.137,184.312 403.055,184.682 403.709,185.421C404.362,186.161 404.689,187.143 404.689,188.367C404.689,188.455 404.688,188.598 404.685,188.796C404.683,188.994 404.681,189.14 404.681,189.234L398.97,189.234C398.991,190.036 399.211,190.657 399.63,191.097C400.05,191.537 400.627,191.757 401.361,191.757C402.298,191.757 403.199,191.512 404.064,191.023L404.353,192.476C403.494,193.007 402.47,193.273 401.283,193.273ZM399.009,187.945L402.759,187.945C402.759,187.247 402.601,186.71 402.283,186.335C401.965,185.96 401.525,185.773 400.962,185.773C400.436,185.773 399.992,185.955 399.63,186.32C399.268,186.684 399.061,187.226 399.009,187.945Z" style="fill:rgb(129,129,129);fill-rule:nonzero;"/>
        <path d="M410.58,193.109L410.58,184.523L412.228,184.523L412.455,185.609C413.33,184.744 414.301,184.312 415.369,184.312C416.369,184.312 417.117,184.6 417.615,185.175C418.112,185.751 418.361,186.585 418.361,187.679L418.361,193.109L416.306,193.109L416.306,187.929C416.301,187.236 416.189,186.718 415.97,186.374C415.752,186.031 415.358,185.859 414.791,185.859C414.348,185.859 413.943,185.972 413.576,186.199C413.209,186.425 412.942,186.71 412.775,187.054C412.676,187.46 412.627,188.085 412.627,188.929L412.627,193.109L410.58,193.109Z" style="fill:rgb(129,129,129);fill-rule:nonzero;"/>
        <path d="M423.877,193.273C422.762,193.273 421.865,192.994 421.185,192.437C420.505,191.88 420.166,191.062 420.166,189.984L420.166,184.523L422.22,184.523L422.22,189.906C422.22,190.546 422.354,191.01 422.623,191.296C422.891,191.583 423.317,191.726 423.9,191.726C424.473,191.726 424.891,191.584 425.154,191.3C425.417,191.016 425.548,190.551 425.548,189.906L425.548,184.523L427.595,184.523L427.595,189.984C427.595,191.057 427.254,191.873 426.572,192.433C425.89,192.993 424.991,193.273 423.877,193.273Z" style="fill:rgb(129,129,129);fill-rule:nonzero;"/>
        <path d="M429.462,193.109L429.462,184.523L431.119,184.523L431.353,185.617C431.457,185.486 431.558,185.37 431.654,185.269C431.75,185.167 431.883,185.053 432.052,184.925C432.222,184.797 432.401,184.692 432.591,184.609C432.781,184.525 433.016,184.455 433.295,184.398C433.573,184.34 433.871,184.312 434.189,184.312C434.871,184.312 435.417,184.45 435.826,184.726C436.235,185.002 436.522,185.325 436.689,185.695C436.996,185.252 437.395,184.911 437.884,184.671C438.374,184.432 438.918,184.312 439.517,184.312C440.502,184.312 441.224,184.59 441.685,185.148C442.146,185.705 442.377,186.531 442.377,187.624L442.377,193.109L440.322,193.109L440.322,188.234C440.322,187.395 440.229,186.79 440.045,186.417C439.86,186.045 439.507,185.859 438.986,185.859C438.189,185.859 437.616,186.218 437.267,186.937C437.121,187.255 437.022,187.637 436.97,188.085L436.97,193.109L434.923,193.109L434.923,188.14C434.923,187.374 434.822,186.804 434.619,186.429C434.416,186.054 434.048,185.867 433.517,185.867C433.085,185.867 432.712,185.976 432.4,186.195C432.087,186.413 431.851,186.7 431.689,187.054C431.569,187.58 431.509,188.21 431.509,188.945L431.509,193.109L429.462,193.109Z" style="fill:rgb(129,129,129);fill-rule:nonzero;"/>
        <path d="M448.994,193.273C448.41,193.273 447.88,193.144 447.404,192.886C446.927,192.628 446.582,192.335 446.369,192.007L446.166,193.101L444.392,193.101L444.392,181.359L446.439,181.226L446.439,183.882C446.439,184.398 446.423,184.984 446.392,185.64C447.069,184.755 447.952,184.312 449.041,184.312C450.134,184.312 450.992,184.718 451.615,185.531C452.237,186.343 452.548,187.406 452.548,188.718C452.548,190.083 452.227,191.183 451.584,192.019C450.94,192.855 450.077,193.273 448.994,193.273ZM448.502,191.718C449.111,191.718 449.598,191.46 449.962,190.945C450.327,190.429 450.509,189.697 450.509,188.749C450.509,187.796 450.331,187.075 449.974,186.585C449.617,186.096 449.134,185.851 448.525,185.851C447.14,185.851 446.439,186.786 446.423,188.656C446.423,189.708 446.598,190.481 446.947,190.976C447.296,191.471 447.814,191.718 448.502,191.718Z" style="fill:rgb(129,129,129);fill-rule:nonzero;"/>
        <path d="M458.189,193.273C456.809,193.273 455.735,192.876 454.966,192.081C454.198,191.287 453.814,190.189 453.814,188.788C453.814,187.424 454.176,186.338 454.9,185.531C455.624,184.723 456.611,184.317 457.861,184.312C459.043,184.312 459.961,184.682 460.615,185.421C461.268,186.161 461.595,187.143 461.595,188.367C461.595,188.455 461.594,188.598 461.591,188.796C461.589,188.994 461.587,189.14 461.587,189.234L455.877,189.234C455.897,190.036 456.117,190.657 456.537,191.097C456.956,191.537 457.533,191.757 458.267,191.757C459.205,191.757 460.106,191.512 460.97,191.023L461.259,192.476C460.4,193.007 459.377,193.273 458.189,193.273ZM455.916,187.945L459.666,187.945C459.666,187.247 459.507,186.71 459.189,186.335C458.871,185.96 458.431,185.773 457.869,185.773C457.343,185.773 456.899,185.955 456.537,186.32C456.175,186.684 455.968,187.226 455.916,187.945Z" style="fill:rgb(129,129,129);fill-rule:nonzero;"/>
        <path d="M463.267,193.109L463.267,184.523L464.986,184.523L465.252,185.835C465.814,184.934 466.629,184.484 467.697,184.484C467.921,184.484 468.103,184.494 468.244,184.515L468.212,186.226C468.004,186.195 467.788,186.179 467.564,186.179C466.809,186.179 466.245,186.38 465.873,186.781C465.5,187.182 465.314,187.739 465.314,188.452L465.314,193.109L463.267,193.109Z" style="fill:rgb(129,129,129);fill-rule:nonzero;"/>
    </g>
    <g>
        <path d="M168.226,11.883L164.062,0.437L166.242,0.437L168.664,7.508C168.757,7.752 168.973,8.469 169.312,9.656C169.333,9.573 169.429,9.23 169.601,8.629C169.773,8.027 169.885,7.659 169.937,7.523C169.999,7.346 170.395,6.17 171.124,3.996C171.854,1.821 172.252,0.635 172.32,0.437L174.476,0.437L170.367,11.883L168.226,11.883Z" style="fill:rgb(129,129,129);"/>
        <path d="M179.148,12.047C177.768,12.047 176.693,11.65 175.925,10.855C175.157,10.061 174.773,8.963 174.773,7.562C174.773,6.198 175.135,5.112 175.859,4.305C176.583,3.497 177.57,3.091 178.82,3.086C180.002,3.086 180.92,3.456 181.574,4.195C182.227,4.935 182.554,5.917 182.554,7.141C182.554,7.229 182.553,7.372 182.55,7.57C182.548,7.768 182.546,7.914 182.546,8.008L176.835,8.008C176.856,8.81 177.076,9.431 177.496,9.871C177.915,10.311 178.492,10.531 179.226,10.531C180.164,10.531 181.065,10.286 181.929,9.797L182.218,11.25C181.359,11.781 180.335,12.047 179.148,12.047ZM176.874,6.719L180.624,6.719C180.624,6.021 180.466,5.484 180.148,5.109C179.83,4.734 179.39,4.547 178.828,4.547C178.302,4.547 177.858,4.729 177.496,5.094C177.134,5.458 176.927,6 176.874,6.719Z" style="fill:rgb(129,129,129);"/>
        <path d="M187.226,12C186.638,12 186.149,11.931 185.761,11.793C185.373,11.655 185.067,11.435 184.843,11.133C184.619,10.831 184.463,10.471 184.374,10.055C184.286,9.638 184.242,9.12 184.242,8.5L184.242,0.133L186.289,0L186.289,8.461C186.289,9.232 186.38,9.754 186.562,10.027C186.744,10.301 187.098,10.437 187.624,10.437C187.885,10.437 188.216,10.409 188.617,10.351L188.671,11.812C188.666,11.812 188.602,11.825 188.48,11.851C188.358,11.877 188.24,11.9 188.128,11.918C188.016,11.936 187.874,11.954 187.703,11.973C187.531,11.991 187.372,12 187.226,12Z" style="fill:rgb(129,129,129);"/>
        <path d="M193.382,10.492C194.075,10.492 194.596,10.239 194.945,9.734C195.294,9.229 195.468,8.505 195.468,7.562C195.468,6.609 195.294,5.883 194.945,5.383C194.596,4.883 194.07,4.633 193.367,4.633C192.674,4.633 192.152,4.884 191.8,5.387C191.449,5.889 191.273,6.617 191.273,7.57C191.273,8.508 191.45,9.229 191.804,9.734C192.158,10.239 192.684,10.492 193.382,10.492ZM193.328,12.047C192.057,12.047 191.057,11.635 190.328,10.812C189.598,9.989 189.234,8.906 189.234,7.562C189.234,6.177 189.598,5.085 190.328,4.285C191.057,3.486 192.085,3.086 193.414,3.086C194.695,3.086 195.699,3.493 196.425,4.308C197.152,5.124 197.515,6.208 197.515,7.562C197.515,8.932 197.148,10.022 196.414,10.832C195.679,11.642 194.651,12.047 193.328,12.047Z" style="fill:rgb(129,129,129);"/>
        <path d="M202.945,12.047C201.632,12.047 200.61,11.656 199.878,10.875C199.147,10.094 198.781,8.976 198.781,7.523C198.781,6.117 199.165,5.026 199.933,4.25C200.701,3.474 201.713,3.086 202.968,3.086C203.973,3.086 204.822,3.302 205.515,3.734L205.031,5.195C204.322,4.825 203.664,4.641 203.054,4.641C202.361,4.641 201.816,4.888 201.417,5.383C201.019,5.877 200.82,6.599 200.82,7.547C200.82,8.505 201.016,9.234 201.41,9.734C201.803,10.234 202.359,10.484 203.078,10.484C203.828,10.484 204.549,10.263 205.242,9.82L205.437,11.375C205.078,11.614 204.705,11.786 204.32,11.891C203.934,11.995 203.476,12.047 202.945,12.047Z" style="fill:rgb(129,129,129);"/>
        <path d="M207.109,11.883L207.109,3.297L209.156,3.297L209.156,11.883L207.109,11.883ZM207.109,2.047L207.109,0.297L209.164,0.297L209.164,2.047L207.109,2.047Z" style="fill:rgb(129,129,129);"/>
        <path d="M214.718,12C214.135,12 213.649,11.931 213.261,11.793C212.873,11.655 212.57,11.437 212.351,11.141C212.132,10.844 211.977,10.493 211.886,10.09C211.795,9.686 211.749,9.187 211.749,8.594L211.749,4.539L210.343,4.539L210.421,3.43L211.89,3.297L212.546,0.969L213.796,0.961L213.796,3.297L215.929,3.297L215.929,4.539L213.796,4.539L213.796,8.633C213.796,9.284 213.89,9.747 214.078,10.023C214.265,10.299 214.611,10.437 215.117,10.437C215.414,10.437 215.731,10.411 216.07,10.359L216.124,11.828C216.114,11.828 216.05,11.84 215.933,11.863C215.816,11.887 215.704,11.907 215.597,11.926C215.49,11.944 215.354,11.961 215.187,11.976C215.02,11.992 214.864,12 214.718,12Z" style="fill:rgb(129,129,129);"/>
        <path d="M218.015,15.5C217.682,15.5 217.328,15.479 216.953,15.437L216.851,13.851C217.091,13.877 217.395,13.891 217.765,13.891C218.239,13.891 218.619,13.797 218.906,13.609C219.192,13.422 219.429,13.088 219.617,12.609C219.638,12.557 219.742,12.263 219.929,11.726L216.476,3.297L218.664,3.297L220.921,9.523C221.088,8.904 221.462,7.752 222.042,6.07C222.623,4.388 222.942,3.463 222.999,3.297L225.187,3.297C222.807,9.588 221.606,12.76 221.585,12.812C221.216,13.776 220.749,14.465 220.187,14.879C219.624,15.293 218.901,15.5 218.015,15.5Z" style="fill:rgb(129,129,129);"/>
        <path d="M168.226,11.883L164.062,0.437L166.242,0.437L168.664,7.508C168.757,7.752 168.973,8.469 169.312,9.656C169.333,9.573 169.429,9.23 169.601,8.629C169.773,8.027 169.885,7.659 169.937,7.523C169.999,7.346 170.395,6.17 171.124,3.996C171.854,1.821 172.252,0.635 172.32,0.437L174.476,0.437L170.367,11.883L168.226,11.883Z" style="fill:rgb(129,129,129);fill-rule:nonzero;"/>
        <path d="M179.148,12.047C177.768,12.047 176.693,11.65 175.925,10.855C175.157,10.061 174.773,8.963 174.773,7.562C174.773,6.198 175.135,5.112 175.859,4.305C176.583,3.497 177.57,3.091 178.82,3.086C180.002,3.086 180.92,3.456 181.574,4.195C182.227,4.935 182.554,5.917 182.554,7.141C182.554,7.229 182.553,7.372 182.55,7.57C182.548,7.768 182.546,7.914 182.546,8.008L176.835,8.008C176.856,8.81 177.076,9.431 177.496,9.871C177.915,10.311 178.492,10.531 179.226,10.531C180.164,10.531 181.065,10.286 181.929,9.797L182.218,11.25C181.359,11.781 180.335,12.047 179.148,12.047ZM176.874,6.719L180.624,6.719C180.624,6.021 180.466,5.484 180.148,5.109C179.83,4.734 179.39,4.547 178.828,4.547C178.302,4.547 177.858,4.729 177.496,5.094C177.134,5.458 176.927,6 176.874,6.719Z" style="fill:rgb(129,129,129);fill-rule:nonzero;"/>
        <path d="M187.226,12C186.638,12 186.149,11.931 185.761,11.793C185.373,11.655 185.067,11.435 184.843,11.133C184.619,10.831 184.463,10.471 184.374,10.055C184.286,9.638 184.242,9.12 184.242,8.5L184.242,0.133L186.289,0L186.289,8.461C186.289,9.232 186.38,9.754 186.562,10.027C186.744,10.301 187.098,10.437 187.624,10.437C187.885,10.437 188.216,10.409 188.617,10.351L188.671,11.812C188.666,11.812 188.602,11.825 188.48,11.851C188.358,11.877 188.24,11.9 188.128,11.918C188.016,11.936 187.874,11.954 187.703,11.973C187.531,11.991 187.372,12 187.226,12Z" style="fill:rgb(129,129,129);fill-rule:nonzero;"/>
        <path d="M193.382,10.492C194.075,10.492 194.596,10.239 194.945,9.734C195.294,9.229 195.468,8.505 195.468,7.562C195.468,6.609 195.294,5.883 194.945,5.383C194.596,4.883 194.07,4.633 193.367,4.633C192.674,4.633 192.152,4.884 191.8,5.387C191.449,5.889 191.273,6.617 191.273,7.57C191.273,8.508 191.45,9.229 191.804,9.734C192.158,10.239 192.684,10.492 193.382,10.492ZM193.328,12.047C192.057,12.047 191.057,11.635 190.328,10.812C189.598,9.989 189.234,8.906 189.234,7.562C189.234,6.177 189.598,5.085 190.328,4.285C191.057,3.486 192.085,3.086 193.414,3.086C194.695,3.086 195.699,3.493 196.425,4.308C197.152,5.124 197.515,6.208 197.515,7.562C197.515,8.932 197.148,10.022 196.414,10.832C195.679,11.642 194.651,12.047 193.328,12.047Z" style="fill:rgb(129,129,129);fill-rule:nonzero;"/>
        <path d="M202.945,12.047C201.632,12.047 200.61,11.656 199.878,10.875C199.147,10.094 198.781,8.976 198.781,7.523C198.781,6.117 199.165,5.026 199.933,4.25C200.701,3.474 201.713,3.086 202.968,3.086C203.973,3.086 204.822,3.302 205.515,3.734L205.031,5.195C204.322,4.825 203.664,4.641 203.054,4.641C202.361,4.641 201.816,4.888 201.417,5.383C201.019,5.877 200.82,6.599 200.82,7.547C200.82,8.505 201.016,9.234 201.41,9.734C201.803,10.234 202.359,10.484 203.078,10.484C203.828,10.484 204.549,10.263 205.242,9.82L205.437,11.375C205.078,11.614 204.705,11.786 204.32,11.891C203.934,11.995 203.476,12.047 202.945,12.047Z" style="fill:rgb(129,129,129);fill-rule:nonzero;"/>
        <path d="M207.109,11.883L207.109,3.297L209.156,3.297L209.156,11.883L207.109,11.883ZM207.109,2.047L207.109,0.297L209.164,0.297L209.164,2.047L207.109,2.047Z" style="fill:rgb(129,129,129);fill-rule:nonzero;"/>
        <path d="M214.718,12C214.135,12 213.649,11.931 213.261,11.793C212.873,11.655 212.57,11.437 212.351,11.141C212.132,10.844 211.977,10.493 211.886,10.09C211.795,9.686 211.749,9.187 211.749,8.594L211.749,4.539L210.343,4.539L210.421,3.43L211.89,3.297L212.546,0.969L213.796,0.961L213.796,3.297L215.929,3.297L215.929,4.539L213.796,4.539L213.796,8.633C213.796,9.284 213.89,9.747 214.078,10.023C214.265,10.299 214.611,10.437 215.117,10.437C215.414,10.437 215.731,10.411 216.07,10.359L216.124,11.828C216.114,11.828 216.05,11.84 215.933,11.863C215.816,11.887 215.704,11.907 215.597,11.926C215.49,11.944 215.354,11.961 215.187,11.976C215.02,11.992 214.864,12 214.718,12Z" style="fill:rgb(129,129,129);fill-rule:nonzero;"/>
        <path d="M218.015,15.5C217.682,15.5 217.328,15.479 216.953,15.437L216.851,13.851C217.091,13.877 217.395,13.891 217.765,13.891C218.239,13.891 218.619,13.797 218.906,13.609C219.192,13.422 219.429,13.088 219.617,12.609C219.638,12.557 219.742,12.263 219.929,11.726L216.476,3.297L218.664,3.297L220.921,9.523C221.088,8.904 221.462,7.752 222.042,6.07C222.623,4.388 222.942,3.463 222.999,3.297L225.187,3.297C222.807,9.588 221.606,12.76 221.585,12.812C221.216,13.776 220.749,14.465 220.187,14.879C219.624,15.293 218.901,15.5 218.015,15.5Z" style="fill:rgb(129,129,129);fill-rule:nonzero;"/>
    </g>
    <g>
        <path d="M65.75,295.858L65.75,284.381L69.992,284.381C70.571,284.381 71.072,284.407 71.496,284.46C71.921,284.512 72.324,284.607 72.707,284.745C73.09,284.883 73.4,285.069 73.637,285.303C73.874,285.538 74.061,285.844 74.199,286.221C74.338,286.599 74.407,287.045 74.407,287.561C74.407,289.082 73.716,290.082 72.336,290.561C72.617,290.879 72.966,291.467 73.383,292.327L75.086,295.858L72.774,295.858L71.438,292.866C70.933,291.793 70.62,291.157 70.5,290.96C70.412,290.954 70.117,290.952 69.617,290.952L67.844,290.936L67.844,295.858L65.75,295.858ZM70.18,289.42C70.992,289.42 71.576,289.276 71.93,288.987C72.284,288.698 72.461,288.233 72.461,287.592C72.461,287.03 72.282,286.616 71.922,286.35C71.563,286.085 71.013,285.952 70.274,285.952L67.844,285.952L67.844,289.413C67.922,289.413 68.31,289.414 69.008,289.417C69.706,289.419 70.097,289.42 70.18,289.42Z" style="fill:rgb(129,129,129);"/>
        <path d="M76.555,295.858L76.555,284.381L80.797,284.381C81.375,284.381 81.877,284.407 82.301,284.46C82.726,284.512 83.129,284.607 83.512,284.745C83.895,284.883 84.205,285.069 84.442,285.303C84.679,285.538 84.866,285.844 85.004,286.221C85.142,286.599 85.211,287.045 85.211,287.561C85.211,289.082 84.521,290.082 83.141,290.561C83.422,290.879 83.771,291.467 84.188,292.327L85.891,295.858L83.578,295.858L82.242,292.866C81.737,291.793 81.425,291.157 81.305,290.96C81.216,290.954 80.922,290.952 80.422,290.952L78.649,290.936L78.649,295.858L76.555,295.858ZM80.985,289.42C81.797,289.42 82.38,289.276 82.735,288.987C83.089,288.698 83.266,288.233 83.266,287.592C83.266,287.03 83.086,286.616 82.727,286.35C82.367,286.085 81.818,285.952 81.078,285.952L78.649,285.952L78.649,289.413C78.727,289.413 79.115,289.414 79.813,289.417C80.511,289.419 80.901,289.42 80.985,289.42Z" style="fill:rgb(129,129,129);"/>
        <path d="M92.578,296.022C90.834,296.022 89.47,295.496 88.489,294.444C87.507,293.392 87.016,291.952 87.016,290.124C87.016,288.962 87.245,287.94 87.703,287.057C88.162,286.174 88.836,285.486 89.727,284.991C90.617,284.496 91.67,284.249 92.883,284.249C94.274,284.249 95.466,284.548 96.461,285.147L95.774,286.725C94.826,286.215 93.875,285.96 92.922,285.96C91.766,285.96 90.857,286.335 90.196,287.085C89.534,287.835 89.203,288.855 89.203,290.147C89.203,291.428 89.498,292.441 90.086,293.186C90.675,293.931 91.537,294.303 92.672,294.303C93.401,294.303 94.063,294.189 94.657,293.96L94.657,291.303L92.258,291.303L92.274,289.639L96.649,289.639L96.649,295.163C95.94,295.454 95.27,295.67 94.637,295.811C94.004,295.952 93.318,296.022 92.578,296.022Z" style="fill:rgb(129,129,129);"/>
        <path d="M98.735,295.858L98.735,287.272L100.453,287.272L100.719,288.585C101.282,287.684 102.097,287.233 103.164,287.233C103.388,287.233 103.571,287.243 103.711,287.264L103.68,288.975C103.472,288.944 103.255,288.928 103.032,288.928C102.276,288.928 101.713,289.129 101.34,289.53C100.968,289.931 100.782,290.488 100.782,291.202L100.782,295.858L98.735,295.858Z" style="fill:rgb(129,129,129);"/>
        <path d="M108.625,294.467C109.318,294.467 109.839,294.215 110.188,293.71C110.537,293.204 110.711,292.48 110.711,291.538C110.711,290.585 110.537,289.858 110.188,289.358C109.839,288.858 109.313,288.608 108.61,288.608C107.917,288.608 107.395,288.859 107.043,289.362C106.692,289.865 106.516,290.592 106.516,291.545C106.516,292.483 106.693,293.204 107.047,293.71C107.401,294.215 107.927,294.467 108.625,294.467ZM108.571,296.022C107.3,296.022 106.3,295.611 105.571,294.788C104.841,293.965 104.477,292.881 104.477,291.538C104.477,290.152 104.841,289.06 105.571,288.26C106.3,287.461 107.328,287.061 108.657,287.061C109.938,287.061 110.942,287.469 111.668,288.284C112.395,289.099 112.758,290.184 112.758,291.538C112.758,292.907 112.391,293.997 111.657,294.807C110.922,295.617 109.893,296.022 108.571,296.022Z" style="fill:rgb(129,129,129);"/>
        <path d="M117.93,296.022C116.815,296.022 115.918,295.743 115.239,295.186C114.559,294.629 114.219,293.811 114.219,292.733L114.219,287.272L116.274,287.272L116.274,292.655C116.274,293.295 116.408,293.759 116.676,294.045C116.944,294.332 117.37,294.475 117.953,294.475C118.526,294.475 118.944,294.333 119.207,294.049C119.47,293.766 119.602,293.301 119.602,292.655L119.602,287.272L121.649,287.272L121.649,292.733C121.649,293.806 121.308,294.622 120.625,295.182C119.943,295.742 119.045,296.022 117.93,296.022Z" style="fill:rgb(129,129,129);"/>
        <path d="M123.516,299.428L123.516,287.272L125.274,287.272L125.492,288.475C125.774,288.022 126.147,287.672 126.614,287.424C127.08,287.177 127.599,287.053 128.172,287.053C128.875,287.053 129.494,287.249 130.028,287.639C130.561,288.03 130.966,288.562 131.242,289.237C131.518,289.911 131.657,290.673 131.657,291.522C131.657,292.85 131.335,293.932 130.692,294.768C130.048,295.604 129.177,296.022 128.078,296.022C127.537,296.022 127.046,295.914 126.606,295.698C126.166,295.482 125.797,295.189 125.5,294.819C125.542,295.569 125.563,295.991 125.563,296.085L125.563,299.327L123.516,299.428ZM127.641,294.46C128.25,294.46 128.731,294.204 129.082,293.694C129.434,293.184 129.61,292.454 129.61,291.506C129.61,290.543 129.433,289.819 129.078,289.335C128.724,288.85 128.232,288.608 127.602,288.608C126.248,288.608 125.563,289.53 125.547,291.374C125.547,292.436 125.723,293.216 126.074,293.713C126.426,294.211 126.948,294.46 127.641,294.46Z" style="fill:rgb(129,129,129);"/>
        <path d="M2.211,314.014C0.737,311.999 0,309.725 0,307.194C0,304.611 0.735,302.29 2.203,300.233L4.047,300.233C3.526,300.978 3.045,302.003 2.602,303.307C2.159,304.612 1.938,305.902 1.938,307.178C1.938,308.428 2.16,309.699 2.606,310.991C3.051,312.282 3.529,313.29 4.039,314.014L2.211,314.014Z" style="fill:rgb(129,129,129);"/>
        <path d="M9.133,310.467C9.826,310.467 10.347,310.215 10.696,309.71C11.045,309.204 11.219,308.48 11.219,307.538C11.219,306.585 11.045,305.858 10.696,305.358C10.347,304.858 9.821,304.608 9.117,304.608C8.425,304.608 7.903,304.859 7.551,305.362C7.199,305.865 7.024,306.592 7.024,307.545C7.024,308.483 7.201,309.204 7.555,309.71C7.909,310.215 8.435,310.467 9.133,310.467ZM9.078,312.022C7.808,312.022 6.808,311.611 6.078,310.788C5.349,309.965 4.985,308.881 4.985,307.538C4.985,306.152 5.349,305.06 6.078,304.26C6.808,303.461 7.836,303.061 9.164,303.061C10.446,303.061 11.449,303.469 12.176,304.284C12.903,305.099 13.266,306.184 13.266,307.538C13.266,308.907 12.899,309.997 12.164,310.807C11.43,311.617 10.401,312.022 9.078,312.022Z" style="fill:rgb(129,129,129);"/>
        <path d="M14.946,311.858L14.946,303.272L16.664,303.272L16.93,304.585C17.492,303.684 18.308,303.233 19.375,303.233C19.599,303.233 19.782,303.243 19.922,303.264L19.891,304.975C19.683,304.944 19.466,304.928 19.242,304.928C18.487,304.928 17.923,305.129 17.551,305.53C17.179,305.931 16.992,306.488 16.992,307.202L16.992,311.858L14.946,311.858Z" style="fill:rgb(129,129,129);"/>
        <path d="M27.664,312.022C26.867,312.022 26.223,311.802 25.731,311.362C25.239,310.922 24.992,310.288 24.992,309.46C24.992,308.569 25.284,307.909 25.867,307.479C26.451,307.049 27.331,306.777 28.508,306.663C28.67,306.642 28.844,306.621 29.032,306.6C29.219,306.579 29.43,306.559 29.664,306.538C29.899,306.517 30.084,306.499 30.219,306.483L30.219,306.03C30.219,305.509 30.099,305.13 29.86,304.893C29.62,304.656 29.255,304.538 28.766,304.538C28.068,304.538 27.206,304.733 26.18,305.124C26.175,305.108 26.089,304.871 25.922,304.413C25.755,303.954 25.67,303.72 25.664,303.71C26.675,303.277 27.768,303.061 28.946,303.061C30.102,303.061 30.943,303.312 31.469,303.815C31.995,304.318 32.258,305.131 32.258,306.256L32.258,311.858L30.742,311.858C30.737,311.837 30.68,311.663 30.571,311.335C30.461,311.006 30.407,310.832 30.407,310.811C29.979,311.228 29.561,311.534 29.153,311.729C28.744,311.924 28.248,312.022 27.664,312.022ZM28.219,310.569C28.693,310.569 29.106,310.456 29.457,310.229C29.809,310.003 30.06,309.728 30.211,309.405L30.211,307.749C30.196,307.749 30.059,307.759 29.801,307.78C29.543,307.801 29.404,307.811 29.383,307.811C28.555,307.884 27.948,308.04 27.563,308.28C27.177,308.519 26.985,308.905 26.985,309.436C26.985,309.801 27.091,310.081 27.305,310.276C27.518,310.471 27.823,310.569 28.219,310.569Z" style="fill:rgb(129,129,129);"/>
        <path d="M34.321,311.858L34.321,303.272L35.969,303.272L36.196,304.358C37.071,303.493 38.042,303.061 39.11,303.061C40.11,303.061 40.858,303.349 41.356,303.924C41.853,304.5 42.102,305.335 42.102,306.428L42.102,311.858L40.047,311.858L40.047,306.678C40.042,305.986 39.93,305.467 39.711,305.124C39.492,304.78 39.099,304.608 38.532,304.608C38.089,304.608 37.684,304.721 37.317,304.948C36.949,305.174 36.683,305.46 36.516,305.803C36.417,306.21 36.367,306.835 36.367,307.678L36.367,311.858L34.321,311.858Z" style="fill:rgb(129,129,129);"/>
        <path d="M44.532,315.475C44.198,315.475 43.844,315.454 43.469,315.413L43.367,313.827C43.607,313.853 43.912,313.866 44.282,313.866C44.755,313.866 45.136,313.772 45.422,313.585C45.709,313.397 45.946,313.064 46.133,312.585C46.154,312.532 46.258,312.238 46.446,311.702L42.992,303.272L45.18,303.272L47.438,309.499C47.604,308.879 47.978,307.728 48.559,306.045C49.14,304.363 49.459,303.439 49.516,303.272L51.703,303.272C49.323,309.564 48.123,312.736 48.102,312.788C47.732,313.751 47.266,314.44 46.703,314.854C46.141,315.268 45.417,315.475 44.532,315.475Z" style="fill:rgb(129,129,129);"/>
        <path d="M56.227,311.975C55.643,311.975 55.158,311.906 54.77,311.768C54.382,311.63 54.078,311.413 53.86,311.116C53.641,310.819 53.486,310.469 53.395,310.065C53.304,309.661 53.258,309.163 53.258,308.569L53.258,304.514L51.852,304.514L51.93,303.405L53.399,303.272L54.055,300.944L55.305,300.936L55.305,303.272L57.438,303.272L57.438,304.514L55.305,304.514L55.305,308.608C55.305,309.259 55.399,309.723 55.586,309.999C55.774,310.275 56.12,310.413 56.625,310.413C56.922,310.413 57.24,310.387 57.578,310.335L57.633,311.803C57.623,311.803 57.559,311.815 57.442,311.838C57.324,311.862 57.213,311.883 57.106,311.901C56.999,311.919 56.862,311.936 56.696,311.952C56.529,311.967 56.373,311.975 56.227,311.975Z" style="fill:rgb(129,129,129);"/>
        <path d="M59.071,311.858L59.071,300.108L61.117,299.975L61.117,302.452C61.117,302.572 61.11,302.904 61.094,303.448C61.078,303.992 61.071,304.269 61.071,304.28C61.753,303.467 62.67,303.061 63.821,303.061C64.779,303.061 65.522,303.336 66.051,303.885C66.58,304.435 66.844,305.28 66.844,306.42L66.844,311.858L64.797,311.858L64.797,306.647C64.797,305.944 64.685,305.428 64.461,305.1C64.237,304.772 63.857,304.608 63.321,304.608C62.862,304.608 62.456,304.724 62.102,304.956C61.748,305.187 61.482,305.486 61.305,305.85C61.18,306.329 61.117,306.954 61.117,307.725L61.117,311.858L59.071,311.858Z" style="fill:rgb(129,129,129);"/>
        <path d="M68.907,311.858L68.907,303.272L70.953,303.272L70.953,311.858L68.907,311.858ZM68.907,302.022L68.907,300.272L70.961,300.272L70.961,302.022L68.907,302.022Z" style="fill:rgb(129,129,129);"/>
        <path d="M73.086,311.858L73.086,303.272L74.735,303.272L74.961,304.358C75.836,303.493 76.808,303.061 77.875,303.061C78.875,303.061 79.624,303.349 80.121,303.924C80.619,304.5 80.867,305.335 80.867,306.428L80.867,311.858L78.813,311.858L78.813,306.678C78.808,305.986 78.696,305.467 78.477,305.124C78.258,304.78 77.865,304.608 77.297,304.608C76.854,304.608 76.449,304.721 76.082,304.948C75.715,305.174 75.448,305.46 75.282,305.803C75.183,306.21 75.133,306.835 75.133,307.678L75.133,311.858L73.086,311.858Z" style="fill:rgb(129,129,129);"/>
        <path d="M84.602,315.702L84.485,314.045L85.524,314.045C86.727,314.045 87.568,313.885 88.047,313.565C88.526,313.245 88.766,312.657 88.766,311.803C88.766,311.454 88.75,311.077 88.719,310.67C88.584,310.858 88.455,311.013 88.332,311.135C88.21,311.258 88.056,311.379 87.871,311.499C87.686,311.618 87.465,311.708 87.207,311.768C86.949,311.828 86.657,311.858 86.328,311.858C85.193,311.858 84.259,311.449 83.528,310.631C82.796,309.814 82.43,308.759 82.43,307.467C82.43,306.78 82.532,306.154 82.735,305.588C82.938,305.023 83.214,304.559 83.563,304.194C83.912,303.829 84.314,303.549 84.77,303.354C85.226,303.159 85.711,303.061 86.227,303.061C87.378,303.061 88.235,303.48 88.797,304.319L88.938,303.272L90.766,303.272L90.766,311.249C90.766,311.676 90.745,312.06 90.703,312.401C90.662,312.742 90.589,313.07 90.485,313.385C90.38,313.7 90.244,313.975 90.074,314.21C89.905,314.444 89.693,314.657 89.438,314.85C89.183,315.043 88.882,315.2 88.535,315.323C88.189,315.445 87.787,315.539 87.328,315.604C86.87,315.669 86.354,315.702 85.782,315.702L84.602,315.702ZM86.657,310.428C88.068,310.428 88.782,309.483 88.797,307.592L88.797,307.295C88.787,306.447 88.61,305.79 88.266,305.327C87.922,304.863 87.42,304.629 86.758,304.624C86.008,304.624 85.44,304.88 85.055,305.393C84.67,305.906 84.477,306.598 84.477,307.467C84.477,308.306 84.671,309.009 85.059,309.577C85.447,310.144 85.979,310.428 86.657,310.428Z" style="fill:rgb(129,129,129);"/>
        <path d="M100.977,312.022C99.597,312.022 98.522,311.625 97.754,310.831C96.986,310.036 96.602,308.939 96.602,307.538C96.602,306.173 96.964,305.087 97.688,304.28C98.412,303.473 99.399,303.066 100.649,303.061C101.831,303.061 102.749,303.431 103.403,304.17C104.056,304.91 104.383,305.892 104.383,307.116C104.383,307.204 104.382,307.348 104.379,307.545C104.377,307.743 104.375,307.889 104.375,307.983L98.664,307.983C98.685,308.785 98.905,309.406 99.324,309.846C99.744,310.286 100.321,310.506 101.055,310.506C101.992,310.506 102.893,310.262 103.758,309.772L104.047,311.225C103.188,311.756 102.164,312.022 100.977,312.022ZM98.703,306.694L102.453,306.694C102.453,305.996 102.295,305.46 101.977,305.085C101.659,304.71 101.219,304.522 100.657,304.522C100.13,304.522 99.686,304.704 99.324,305.069C98.963,305.434 98.755,305.975 98.703,306.694Z" style="fill:rgb(129,129,129);"/>
        <path d="M109.055,311.975C108.466,311.975 107.978,311.906 107.59,311.768C107.202,311.63 106.896,311.41 106.672,311.108C106.448,310.806 106.292,310.447 106.203,310.03C106.115,309.613 106.071,309.095 106.071,308.475L106.071,300.108L108.117,299.975L108.117,308.436C108.117,309.207 108.209,309.729 108.391,310.003C108.573,310.276 108.927,310.413 109.453,310.413C109.714,310.413 110.045,310.384 110.446,310.327L110.5,311.788C110.495,311.788 110.431,311.801 110.309,311.827C110.186,311.853 110.069,311.875 109.957,311.893C109.845,311.911 109.703,311.93 109.532,311.948C109.36,311.966 109.201,311.975 109.055,311.975Z" style="fill:rgb(129,129,129);"/>
        <path d="M114.258,312.014C112.992,312.014 111.979,311.798 111.219,311.366L111.43,309.827C111.774,310.014 112.211,310.182 112.742,310.331C113.274,310.479 113.758,310.553 114.196,310.553C114.649,310.553 115.002,310.469 115.254,310.299C115.507,310.13 115.636,309.881 115.641,309.553C115.641,309.256 115.522,309.022 115.285,308.85C115.048,308.678 114.597,308.465 113.93,308.21C113.701,308.126 113.552,308.072 113.485,308.045C112.693,307.738 112.123,307.396 111.774,307.018C111.425,306.641 111.25,306.129 111.25,305.483C111.25,304.702 111.533,304.103 112.098,303.686C112.663,303.269 113.451,303.061 114.461,303.061C115.555,303.061 116.516,303.267 117.344,303.678L116.836,305.092C116.018,304.712 115.24,304.522 114.5,304.522C114.089,304.522 113.767,304.591 113.535,304.729C113.304,304.867 113.188,305.077 113.188,305.358C113.188,305.624 113.3,305.831 113.524,305.979C113.748,306.128 114.185,306.322 114.836,306.561C114.857,306.566 114.925,306.59 115.039,306.631C115.154,306.673 115.242,306.707 115.305,306.733C116.091,307.019 116.67,307.362 117.039,307.76C117.409,308.159 117.594,308.678 117.594,309.319C117.589,310.178 117.297,310.842 116.719,311.311C116.141,311.78 115.321,312.014 114.258,312.014Z" style="fill:rgb(129,129,129);"/>
        <path d="M123.18,312.022C121.8,312.022 120.726,311.625 119.957,310.831C119.189,310.036 118.805,308.939 118.805,307.538C118.805,306.173 119.167,305.087 119.891,304.28C120.615,303.473 121.602,303.066 122.852,303.061C124.034,303.061 124.952,303.431 125.606,304.17C126.259,304.91 126.586,305.892 126.586,307.116C126.586,307.204 126.585,307.348 126.582,307.545C126.58,307.743 126.578,307.889 126.578,307.983L120.867,307.983C120.888,308.785 121.108,309.406 121.528,309.846C121.947,310.286 122.524,310.506 123.258,310.506C124.196,310.506 125.097,310.262 125.961,309.772L126.25,311.225C125.391,311.756 124.367,312.022 123.18,312.022ZM120.907,306.694L124.657,306.694C124.657,305.996 124.498,305.46 124.18,305.085C123.862,304.71 123.422,304.522 122.86,304.522C122.334,304.522 121.89,304.704 121.528,305.069C121.166,305.434 120.959,305.975 120.907,306.694Z" style="fill:rgb(129,129,129);"/>
        <path d="M127.532,314.014C127.844,313.566 128.151,313.005 128.453,312.331C128.755,311.656 129.026,310.844 129.266,309.893C129.505,308.943 129.625,308.038 129.625,307.178C129.625,305.907 129.405,304.62 128.965,303.315C128.525,302.01 128.045,300.983 127.524,300.233L129.36,300.233C130.834,302.311 131.571,304.631 131.571,307.194C131.571,309.715 130.831,311.988 129.352,314.014L127.532,314.014Z" style="fill:rgb(129,129,129);"/>
        <path d="M65.75,295.858L65.75,284.381L69.992,284.381C70.571,284.381 71.072,284.407 71.496,284.46C71.921,284.512 72.324,284.607 72.707,284.745C73.09,284.883 73.4,285.069 73.637,285.303C73.874,285.538 74.061,285.844 74.199,286.221C74.338,286.599 74.407,287.045 74.407,287.561C74.407,289.082 73.716,290.082 72.336,290.561C72.617,290.879 72.966,291.467 73.383,292.327L75.086,295.858L72.774,295.858L71.438,292.866C70.933,291.793 70.62,291.157 70.5,290.96C70.412,290.954 70.117,290.952 69.617,290.952L67.844,290.936L67.844,295.858L65.75,295.858ZM70.18,289.42C70.992,289.42 71.576,289.276 71.93,288.987C72.284,288.698 72.461,288.233 72.461,287.592C72.461,287.03 72.282,286.616 71.922,286.35C71.563,286.085 71.013,285.952 70.274,285.952L67.844,285.952L67.844,289.413C67.922,289.413 68.31,289.414 69.008,289.417C69.706,289.419 70.097,289.42 70.18,289.42Z" style="fill:rgb(129,129,129);fill-rule:nonzero;"/>
        <path d="M76.555,295.858L76.555,284.381L80.797,284.381C81.375,284.381 81.877,284.407 82.301,284.46C82.726,284.512 83.129,284.607 83.512,284.745C83.895,284.883 84.205,285.069 84.442,285.303C84.679,285.538 84.866,285.844 85.004,286.221C85.142,286.599 85.211,287.045 85.211,287.561C85.211,289.082 84.521,290.082 83.141,290.561C83.422,290.879 83.771,291.467 84.188,292.327L85.891,295.858L83.578,295.858L82.242,292.866C81.737,291.793 81.425,291.157 81.305,290.96C81.216,290.954 80.922,290.952 80.422,290.952L78.649,290.936L78.649,295.858L76.555,295.858ZM80.985,289.42C81.797,289.42 82.38,289.276 82.735,288.987C83.089,288.698 83.266,288.233 83.266,287.592C83.266,287.03 83.086,286.616 82.727,286.35C82.367,286.085 81.818,285.952 81.078,285.952L78.649,285.952L78.649,289.413C78.727,289.413 79.115,289.414 79.813,289.417C80.511,289.419 80.901,289.42 80.985,289.42Z" style="fill:rgb(129,129,129);fill-rule:nonzero;"/>
        <path d="M92.578,296.022C90.834,296.022 89.47,295.496 88.489,294.444C87.507,293.392 87.016,291.952 87.016,290.124C87.016,288.962 87.245,287.94 87.703,287.057C88.162,286.174 88.836,285.486 89.727,284.991C90.617,284.496 91.67,284.249 92.883,284.249C94.274,284.249 95.466,284.548 96.461,285.147L95.774,286.725C94.826,286.215 93.875,285.96 92.922,285.96C91.766,285.96 90.857,286.335 90.196,287.085C89.534,287.835 89.203,288.855 89.203,290.147C89.203,291.428 89.498,292.441 90.086,293.186C90.675,293.931 91.537,294.303 92.672,294.303C93.401,294.303 94.063,294.189 94.657,293.96L94.657,291.303L92.258,291.303L92.274,289.639L96.649,289.639L96.649,295.163C95.94,295.454 95.27,295.67 94.637,295.811C94.004,295.952 93.318,296.022 92.578,296.022Z" style="fill:rgb(129,129,129);fill-rule:nonzero;"/>
        <path d="M98.735,295.858L98.735,287.272L100.453,287.272L100.719,288.585C101.282,287.684 102.097,287.233 103.164,287.233C103.388,287.233 103.571,287.243 103.711,287.264L103.68,288.975C103.472,288.944 103.255,288.928 103.032,288.928C102.276,288.928 101.713,289.129 101.34,289.53C100.968,289.931 100.782,290.488 100.782,291.202L100.782,295.858L98.735,295.858Z" style="fill:rgb(129,129,129);fill-rule:nonzero;"/>
        <path d="M108.625,294.467C109.318,294.467 109.839,294.215 110.188,293.71C110.537,293.204 110.711,292.48 110.711,291.538C110.711,290.585 110.537,289.858 110.188,289.358C109.839,288.858 109.313,288.608 108.61,288.608C107.917,288.608 107.395,288.859 107.043,289.362C106.692,289.865 106.516,290.592 106.516,291.545C106.516,292.483 106.693,293.204 107.047,293.71C107.401,294.215 107.927,294.467 108.625,294.467ZM108.571,296.022C107.3,296.022 106.3,295.611 105.571,294.788C104.841,293.965 104.477,292.881 104.477,291.538C104.477,290.152 104.841,289.06 105.571,288.26C106.3,287.461 107.328,287.061 108.657,287.061C109.938,287.061 110.942,287.469 111.668,288.284C112.395,289.099 112.758,290.184 112.758,291.538C112.758,292.907 112.391,293.997 111.657,294.807C110.922,295.617 109.893,296.022 108.571,296.022Z" style="fill:rgb(129,129,129);fill-rule:nonzero;"/>
        <path d="M117.93,296.022C116.815,296.022 115.918,295.743 115.239,295.186C114.559,294.629 114.219,293.811 114.219,292.733L114.219,287.272L116.274,287.272L116.274,292.655C116.274,293.295 116.408,293.759 116.676,294.045C116.944,294.332 117.37,294.475 117.953,294.475C118.526,294.475 118.944,294.333 119.207,294.049C119.47,293.766 119.602,293.301 119.602,292.655L119.602,287.272L121.649,287.272L121.649,292.733C121.649,293.806 121.308,294.622 120.625,295.182C119.943,295.742 119.045,296.022 117.93,296.022Z" style="fill:rgb(129,129,129);fill-rule:nonzero;"/>
        <path d="M123.516,299.428L123.516,287.272L125.274,287.272L125.492,288.475C125.774,288.022 126.147,287.672 126.614,287.424C127.08,287.177 127.599,287.053 128.172,287.053C128.875,287.053 129.494,287.249 130.028,287.639C130.561,288.03 130.966,288.562 131.242,289.237C131.518,289.911 131.657,290.673 131.657,291.522C131.657,292.85 131.335,293.932 130.692,294.768C130.048,295.604 129.177,296.022 128.078,296.022C127.537,296.022 127.046,295.914 126.606,295.698C126.166,295.482 125.797,295.189 125.5,294.819C125.542,295.569 125.563,295.991 125.563,296.085L125.563,299.327L123.516,299.428ZM127.641,294.46C128.25,294.46 128.731,294.204 129.082,293.694C129.434,293.184 129.61,292.454 129.61,291.506C129.61,290.543 129.433,289.819 129.078,289.335C128.724,288.85 128.232,288.608 127.602,288.608C126.248,288.608 125.563,289.53 125.547,291.374C125.547,292.436 125.723,293.216 126.074,293.713C126.426,294.211 126.948,294.46 127.641,294.46Z" style="fill:rgb(129,129,129);fill-rule:nonzero;"/>
        <path d="M2.211,314.014C0.737,311.999 0,309.725 0,307.194C0,304.611 0.735,302.29 2.203,300.233L4.047,300.233C3.526,300.978 3.045,302.003 2.602,303.307C2.159,304.612 1.938,305.902 1.938,307.178C1.938,308.428 2.16,309.699 2.606,310.991C3.051,312.282 3.529,313.29 4.039,314.014L2.211,314.014Z" style="fill:rgb(129,129,129);fill-rule:nonzero;"/>
        <path d="M9.133,310.467C9.826,310.467 10.347,310.215 10.696,309.71C11.045,309.204 11.219,308.48 11.219,307.538C11.219,306.585 11.045,305.858 10.696,305.358C10.347,304.858 9.821,304.608 9.117,304.608C8.425,304.608 7.903,304.859 7.551,305.362C7.199,305.865 7.024,306.592 7.024,307.545C7.024,308.483 7.201,309.204 7.555,309.71C7.909,310.215 8.435,310.467 9.133,310.467ZM9.078,312.022C7.808,312.022 6.808,311.611 6.078,310.788C5.349,309.965 4.985,308.881 4.985,307.538C4.985,306.152 5.349,305.06 6.078,304.26C6.808,303.461 7.836,303.061 9.164,303.061C10.446,303.061 11.449,303.469 12.176,304.284C12.903,305.099 13.266,306.184 13.266,307.538C13.266,308.907 12.899,309.997 12.164,310.807C11.43,311.617 10.401,312.022 9.078,312.022Z" style="fill:rgb(129,129,129);fill-rule:nonzero;"/>
        <path d="M14.946,311.858L14.946,303.272L16.664,303.272L16.93,304.585C17.492,303.684 18.308,303.233 19.375,303.233C19.599,303.233 19.782,303.243 19.922,303.264L19.891,304.975C19.683,304.944 19.466,304.928 19.242,304.928C18.487,304.928 17.923,305.129 17.551,305.53C17.179,305.931 16.992,306.488 16.992,307.202L16.992,311.858L14.946,311.858Z" style="fill:rgb(129,129,129);fill-rule:nonzero;"/>
        <path d="M27.664,312.022C26.867,312.022 26.223,311.802 25.731,311.362C25.239,310.922 24.992,310.288 24.992,309.46C24.992,308.569 25.284,307.909 25.867,307.479C26.451,307.049 27.331,306.777 28.508,306.663C28.67,306.642 28.844,306.621 29.032,306.6C29.219,306.579 29.43,306.559 29.664,306.538C29.899,306.517 30.084,306.499 30.219,306.483L30.219,306.03C30.219,305.509 30.099,305.13 29.86,304.893C29.62,304.656 29.255,304.538 28.766,304.538C28.068,304.538 27.206,304.733 26.18,305.124C26.175,305.108 26.089,304.871 25.922,304.413C25.755,303.954 25.67,303.72 25.664,303.71C26.675,303.277 27.768,303.061 28.946,303.061C30.102,303.061 30.943,303.312 31.469,303.815C31.995,304.318 32.258,305.131 32.258,306.256L32.258,311.858L30.742,311.858C30.737,311.837 30.68,311.663 30.571,311.335C30.461,311.006 30.407,310.832 30.407,310.811C29.979,311.228 29.561,311.534 29.153,311.729C28.744,311.924 28.248,312.022 27.664,312.022ZM28.219,310.569C28.693,310.569 29.106,310.456 29.457,310.229C29.809,310.003 30.06,309.728 30.211,309.405L30.211,307.749C30.196,307.749 30.059,307.759 29.801,307.78C29.543,307.801 29.404,307.811 29.383,307.811C28.555,307.884 27.948,308.04 27.563,308.28C27.177,308.519 26.985,308.905 26.985,309.436C26.985,309.801 27.091,310.081 27.305,310.276C27.518,310.471 27.823,310.569 28.219,310.569Z" style="fill:rgb(129,129,129);fill-rule:nonzero;"/>
        <path d="M34.321,311.858L34.321,303.272L35.969,303.272L36.196,304.358C37.071,303.493 38.042,303.061 39.11,303.061C40.11,303.061 40.858,303.349 41.356,303.924C41.853,304.5 42.102,305.335 42.102,306.428L42.102,311.858L40.047,311.858L40.047,306.678C40.042,305.986 39.93,305.467 39.711,305.124C39.492,304.78 39.099,304.608 38.532,304.608C38.089,304.608 37.684,304.721 37.317,304.948C36.949,305.174 36.683,305.46 36.516,305.803C36.417,306.21 36.367,306.835 36.367,307.678L36.367,311.858L34.321,311.858Z" style="fill:rgb(129,129,129);fill-rule:nonzero;"/>
        <path d="M44.532,315.475C44.198,315.475 43.844,315.454 43.469,315.413L43.367,313.827C43.607,313.853 43.912,313.866 44.282,313.866C44.755,313.866 45.136,313.772 45.422,313.585C45.709,313.397 45.946,313.064 46.133,312.585C46.154,312.532 46.258,312.238 46.446,311.702L42.992,303.272L45.18,303.272L47.438,309.499C47.604,308.879 47.978,307.728 48.559,306.045C49.14,304.363 49.459,303.439 49.516,303.272L51.703,303.272C49.323,309.564 48.123,312.736 48.102,312.788C47.732,313.751 47.266,314.44 46.703,314.854C46.141,315.268 45.417,315.475 44.532,315.475Z" style="fill:rgb(129,129,129);fill-rule:nonzero;"/>
        <path d="M56.227,311.975C55.643,311.975 55.158,311.906 54.77,311.768C54.382,311.63 54.078,311.413 53.86,311.116C53.641,310.819 53.486,310.469 53.395,310.065C53.304,309.661 53.258,309.163 53.258,308.569L53.258,304.514L51.852,304.514L51.93,303.405L53.399,303.272L54.055,300.944L55.305,300.936L55.305,303.272L57.438,303.272L57.438,304.514L55.305,304.514L55.305,308.608C55.305,309.259 55.399,309.723 55.586,309.999C55.774,310.275 56.12,310.413 56.625,310.413C56.922,310.413 57.24,310.387 57.578,310.335L57.633,311.803C57.623,311.803 57.559,311.815 57.442,311.838C57.324,311.862 57.213,311.883 57.106,311.901C56.999,311.919 56.862,311.936 56.696,311.952C56.529,311.967 56.373,311.975 56.227,311.975Z" style="fill:rgb(129,129,129);fill-rule:nonzero;"/>
        <path d="M59.071,311.858L59.071,300.108L61.117,299.975L61.117,302.452C61.117,302.572 61.11,302.904 61.094,303.448C61.078,303.992 61.071,304.269 61.071,304.28C61.753,303.467 62.67,303.061 63.821,303.061C64.779,303.061 65.522,303.336 66.051,303.885C66.58,304.435 66.844,305.28 66.844,306.42L66.844,311.858L64.797,311.858L64.797,306.647C64.797,305.944 64.685,305.428 64.461,305.1C64.237,304.772 63.857,304.608 63.321,304.608C62.862,304.608 62.456,304.724 62.102,304.956C61.748,305.187 61.482,305.486 61.305,305.85C61.18,306.329 61.117,306.954 61.117,307.725L61.117,311.858L59.071,311.858Z" style="fill:rgb(129,129,129);fill-rule:nonzero;"/>
        <path d="M68.907,311.858L68.907,303.272L70.953,303.272L70.953,311.858L68.907,311.858ZM68.907,302.022L68.907,300.272L70.961,300.272L70.961,302.022L68.907,302.022Z" style="fill:rgb(129,129,129);fill-rule:nonzero;"/>
        <path d="M73.086,311.858L73.086,303.272L74.735,303.272L74.961,304.358C75.836,303.493 76.808,303.061 77.875,303.061C78.875,303.061 79.624,303.349 80.121,303.924C80.619,304.5 80.867,305.335 80.867,306.428L80.867,311.858L78.813,311.858L78.813,306.678C78.808,305.986 78.696,305.467 78.477,305.124C78.258,304.78 77.865,304.608 77.297,304.608C76.854,304.608 76.449,304.721 76.082,304.948C75.715,305.174 75.448,305.46 75.282,305.803C75.183,306.21 75.133,306.835 75.133,307.678L75.133,311.858L73.086,311.858Z" style="fill:rgb(129,129,129);fill-rule:nonzero;"/>
        <path d="M84.602,315.702L84.485,314.045L85.524,314.045C86.727,314.045 87.568,313.885 88.047,313.565C88.526,313.245 88.766,312.657 88.766,311.803C88.766,311.454 88.75,311.077 88.719,310.67C88.584,310.858 88.455,311.013 88.332,311.135C88.21,311.258 88.056,311.379 87.871,311.499C87.686,311.618 87.465,311.708 87.207,311.768C86.949,311.828 86.657,311.858 86.328,311.858C85.193,311.858 84.259,311.449 83.528,310.631C82.796,309.814 82.43,308.759 82.43,307.467C82.43,306.78 82.532,306.154 82.735,305.588C82.938,305.023 83.214,304.559 83.563,304.194C83.912,303.829 84.314,303.549 84.77,303.354C85.226,303.159 85.711,303.061 86.227,303.061C87.378,303.061 88.235,303.48 88.797,304.319L88.938,303.272L90.766,303.272L90.766,311.249C90.766,311.676 90.745,312.06 90.703,312.401C90.662,312.742 90.589,313.07 90.485,313.385C90.38,313.7 90.244,313.975 90.074,314.21C89.905,314.444 89.693,314.657 89.438,314.85C89.183,315.043 88.882,315.2 88.535,315.323C88.189,315.445 87.787,315.539 87.328,315.604C86.87,315.669 86.354,315.702 85.782,315.702L84.602,315.702ZM86.657,310.428C88.068,310.428 88.782,309.483 88.797,307.592L88.797,307.295C88.787,306.447 88.61,305.79 88.266,305.327C87.922,304.863 87.42,304.629 86.758,304.624C86.008,304.624 85.44,304.88 85.055,305.393C84.67,305.906 84.477,306.598 84.477,307.467C84.477,308.306 84.671,309.009 85.059,309.577C85.447,310.144 85.979,310.428 86.657,310.428Z" style="fill:rgb(129,129,129);fill-rule:nonzero;"/>
        <path d="M100.977,312.022C99.597,312.022 98.522,311.625 97.754,310.831C96.986,310.036 96.602,308.939 96.602,307.538C96.602,306.173 96.964,305.087 97.688,304.28C98.412,303.473 99.399,303.066 100.649,303.061C101.831,303.061 102.749,303.431 103.403,304.17C104.056,304.91 104.383,305.892 104.383,307.116C104.383,307.204 104.382,307.348 104.379,307.545C104.377,307.743 104.375,307.889 104.375,307.983L98.664,307.983C98.685,308.785 98.905,309.406 99.324,309.846C99.744,310.286 100.321,310.506 101.055,310.506C101.992,310.506 102.893,310.262 103.758,309.772L104.047,311.225C103.188,311.756 102.164,312.022 100.977,312.022ZM98.703,306.694L102.453,306.694C102.453,305.996 102.295,305.46 101.977,305.085C101.659,304.71 101.219,304.522 100.657,304.522C100.13,304.522 99.686,304.704 99.324,305.069C98.963,305.434 98.755,305.975 98.703,306.694Z" style="fill:rgb(129,129,129);fill-rule:nonzero;"/>
        <path d="M109.055,311.975C108.466,311.975 107.978,311.906 107.59,311.768C107.202,311.63 106.896,311.41 106.672,311.108C106.448,310.806 106.292,310.447 106.203,310.03C106.115,309.613 106.071,309.095 106.071,308.475L106.071,300.108L108.117,299.975L108.117,308.436C108.117,309.207 108.209,309.729 108.391,310.003C108.573,310.276 108.927,310.413 109.453,310.413C109.714,310.413 110.045,310.384 110.446,310.327L110.5,311.788C110.495,311.788 110.431,311.801 110.309,311.827C110.186,311.853 110.069,311.875 109.957,311.893C109.845,311.911 109.703,311.93 109.532,311.948C109.36,311.966 109.201,311.975 109.055,311.975Z" style="fill:rgb(129,129,129);fill-rule:nonzero;"/>
        <path d="M114.258,312.014C112.992,312.014 111.979,311.798 111.219,311.366L111.43,309.827C111.774,310.014 112.211,310.182 112.742,310.331C113.274,310.479 113.758,310.553 114.196,310.553C114.649,310.553 115.002,310.469 115.254,310.299C115.507,310.13 115.636,309.881 115.641,309.553C115.641,309.256 115.522,309.022 115.285,308.85C115.048,308.678 114.597,308.465 113.93,308.21C113.701,308.126 113.552,308.072 113.485,308.045C112.693,307.738 112.123,307.396 111.774,307.018C111.425,306.641 111.25,306.129 111.25,305.483C111.25,304.702 111.533,304.103 112.098,303.686C112.663,303.269 113.451,303.061 114.461,303.061C115.555,303.061 116.516,303.267 117.344,303.678L116.836,305.092C116.018,304.712 115.24,304.522 114.5,304.522C114.089,304.522 113.767,304.591 113.535,304.729C113.304,304.867 113.188,305.077 113.188,305.358C113.188,305.624 113.3,305.831 113.524,305.979C113.748,306.128 114.185,306.322 114.836,306.561C114.857,306.566 114.925,306.59 115.039,306.631C115.154,306.673 115.242,306.707 115.305,306.733C116.091,307.019 116.67,307.362 117.039,307.76C117.409,308.159 117.594,308.678 117.594,309.319C117.589,310.178 117.297,310.842 116.719,311.311C116.141,311.78 115.321,312.014 114.258,312.014Z" style="fill:rgb(129,129,129);fill-rule:nonzero;"/>
        <path d="M123.18,312.022C121.8,312.022 120.726,311.625 119.957,310.831C119.189,310.036 118.805,308.939 118.805,307.538C118.805,306.173 119.167,305.087 119.891,304.28C120.615,303.473 121.602,303.066 122.852,303.061C124.034,303.061 124.952,303.431 125.606,304.17C126.259,304.91 126.586,305.892 126.586,307.116C126.586,307.204 126.585,307.348 126.582,307.545C126.58,307.743 126.578,307.889 126.578,307.983L120.867,307.983C120.888,308.785 121.108,309.406 121.528,309.846C121.947,310.286 122.524,310.506 123.258,310.506C124.196,310.506 125.097,310.262 125.961,309.772L126.25,311.225C125.391,311.756 124.367,312.022 123.18,312.022ZM120.907,306.694L124.657,306.694C124.657,305.996 124.498,305.46 124.18,305.085C123.862,304.71 123.422,304.522 122.86,304.522C122.334,304.522 121.89,304.704 121.528,305.069C121.166,305.434 120.959,305.975 120.907,306.694Z" style="fill:rgb(129,129,129);fill-rule:nonzero;"/>
        <path d="M127.532,314.014C127.844,313.566 128.151,313.005 128.453,312.331C128.755,311.656 129.026,310.844 129.266,309.893C129.505,308.943 129.625,308.038 129.625,307.178C129.625,305.907 129.405,304.62 128.965,303.315C128.525,302.01 128.045,300.983 127.524,300.233L129.36,300.233C130.834,302.311 131.571,304.631 131.571,307.194C131.571,309.715 130.831,311.988 129.352,314.014L127.532,314.014Z" style="fill:rgb(129,129,129);fill-rule:nonzero;"/>
    </g>
</svg>
