<?xml version="1.0" encoding="UTF-8" standalone="no"?>
<!DOCTYPE svg PUBLIC "-//W3C//DTD SVG 1.1//EN" "http://www.w3.org/Graphics/SVG/1.1/DTD/svg11.dtd">
<svg width="100%" height="100%" viewBox="0 0 651 498" version="1.1" xmlns="http://www.w3.org/2000/svg" xmlns:xlink="http://www.w3.org/1999/xlink" xml:space="preserve" style="fill-rule:evenodd;clip-rule:evenodd;stroke-linejoin:round;stroke-miterlimit:1.41421;">
    <g transform="matrix(1,0,0,1,-258.294,-59.4009)">
        <g>
            <g transform="matrix(1,0,0,1,-126.667,64)">
                <g transform="matrix(-0.44549,0.44549,-0.273054,-0.273054,881.526,238.277)">
                    <path d="M341.917,319.217L341.917,308.017L662.776,308.017L662.776,297.617L672.583,313.617L662.776,329.617L662.776,319.217L341.917,319.217Z" style="fill:rgb(198,198,198);"/>
                </g>
                <g transform="matrix(0.862903,0,0,0.3125,346.876,207.278)">
                    <path d="M341.917,319.217L341.917,308.017L666.789,308.017L666.789,297.617L672.583,313.617L666.789,329.617L666.789,319.217L341.917,319.217Z" style="fill:rgb(198,198,198);"/>
                </g>
                <g transform="matrix(5.28376e-17,-0.862903,0.3125,1.91351e-17,545.245,601.658)">
                    <path d="M341.917,319.217L341.917,308.017L666.789,308.017L666.789,297.617L672.583,313.617L666.789,329.617L666.789,319.217L341.917,319.217Z" style="fill:rgb(198,198,198);"/>
                </g>
            </g>
            <g transform="matrix(1,0,0,1,86.6667,6.66667)">
                <path d="M723.081,367.284L723.081,355.838L725.331,355.838C725.737,356.474 726.563,357.755 727.807,359.682C729.052,361.609 729.81,362.781 730.081,363.198C730.159,363.318 730.293,363.519 730.483,363.803C730.673,364.087 730.807,364.289 730.885,364.409C730.849,362.622 730.831,361.695 730.831,361.627L730.831,355.838L732.76,355.838L732.76,367.284L730.479,367.284L725.315,359.237L724.94,358.62C724.982,359.995 725.003,360.961 725.003,361.518L725.003,367.284L723.081,367.284Z" style="fill:none;"/>
                <path d="M738.768,365.893C739.461,365.893 739.982,365.64 740.331,365.135C740.68,364.63 740.854,363.906 740.854,362.963C740.854,362.01 740.68,361.284 740.331,360.784C739.982,360.284 739.456,360.034 738.753,360.034C738.06,360.034 737.538,360.285 737.186,360.788C736.835,361.29 736.659,362.018 736.659,362.971C736.659,363.909 736.836,364.63 737.19,365.135C737.544,365.64 738.07,365.893 738.768,365.893ZM738.714,367.448C737.443,367.448 736.443,367.036 735.714,366.213C734.984,365.39 734.62,364.307 734.62,362.963C734.62,361.578 734.984,360.486 735.714,359.686C736.443,358.887 737.471,358.487 738.799,358.487C740.081,358.487 741.085,358.894 741.811,359.709C742.538,360.525 742.901,361.609 742.901,362.963C742.901,364.333 742.534,365.423 741.799,366.233C741.065,367.043 740.036,367.448 738.714,367.448Z" style="fill:none;"/>
                <path d="M748.003,367.401C747.419,367.401 746.934,367.332 746.546,367.194C746.158,367.056 745.854,366.838 745.635,366.542C745.417,366.245 745.262,365.894 745.171,365.491C745.079,365.087 745.034,364.588 745.034,363.995L745.034,359.94L743.628,359.94L743.706,358.831L745.174,358.698L745.831,356.37L747.081,356.362L747.081,358.698L749.214,358.698L749.214,359.94L747.081,359.94L747.081,364.034C747.081,364.685 747.174,365.148 747.362,365.424C747.549,365.7 747.896,365.838 748.401,365.838C748.698,365.838 749.016,365.812 749.354,365.76L749.409,367.229C749.398,367.229 749.335,367.241 749.217,367.264C749.1,367.288 748.988,367.308 748.882,367.327C748.775,367.345 748.638,367.362 748.471,367.377C748.305,367.393 748.148,367.401 748.003,367.401Z" style="fill:none;"/>
                <path d="M754.745,367.448C753.365,367.448 752.29,367.051 751.522,366.256C750.754,365.462 750.37,364.364 750.37,362.963C750.37,361.599 750.732,360.513 751.456,359.706C752.18,358.898 753.167,358.492 754.417,358.487C755.599,358.487 756.517,358.857 757.171,359.596C757.824,360.336 758.151,361.318 758.151,362.542C758.151,362.63 758.15,362.773 758.147,362.971C758.145,363.169 758.143,363.315 758.143,363.409L752.432,363.409C752.453,364.211 752.673,364.832 753.092,365.272C753.512,365.712 754.089,365.932 754.823,365.932C755.76,365.932 756.661,365.687 757.526,365.198L757.815,366.651C756.956,367.182 755.932,367.448 754.745,367.448ZM752.471,362.12L756.221,362.12C756.221,361.422 756.063,360.885 755.745,360.51C755.427,360.135 754.987,359.948 754.424,359.948C753.898,359.948 753.454,360.13 753.092,360.495C752.73,360.859 752.523,361.401 752.471,362.12Z" style="fill:none;"/>
                <path d="M764.042,367.284L764.042,358.698L765.69,358.698L765.917,359.784C766.792,358.919 767.763,358.487 768.831,358.487C769.831,358.487 770.579,358.775 771.077,359.35C771.574,359.926 771.823,360.76 771.823,361.854L771.823,367.284L769.768,367.284L769.768,362.104C769.763,361.411 769.651,360.893 769.432,360.549C769.214,360.206 768.82,360.034 768.253,360.034C767.81,360.034 767.405,360.147 767.038,360.374C766.671,360.6 766.404,360.885 766.237,361.229C766.138,361.635 766.089,362.26 766.089,363.104L766.089,367.284L764.042,367.284Z" style="fill:none;"/>
                <path d="M777.339,367.448C776.224,367.448 775.327,367.169 774.647,366.612C773.967,366.055 773.628,365.237 773.628,364.159L773.628,358.698L775.682,358.698L775.682,364.081C775.682,364.721 775.816,365.185 776.085,365.471C776.353,365.758 776.779,365.901 777.362,365.901C777.935,365.901 778.353,365.759 778.616,365.475C778.879,365.191 779.01,364.726 779.01,364.081L779.01,358.698L781.057,358.698L781.057,364.159C781.057,365.232 780.716,366.048 780.034,366.608C779.352,367.168 778.453,367.448 777.339,367.448Z" style="fill:none;"/>
                <path d="M782.924,367.284L782.924,358.698L784.581,358.698L784.815,359.792C784.919,359.661 785.02,359.545 785.116,359.444C785.212,359.342 785.345,359.228 785.514,359.1C785.684,358.972 785.863,358.867 786.053,358.784C786.243,358.7 786.478,358.63 786.757,358.573C787.035,358.515 787.333,358.487 787.651,358.487C788.333,358.487 788.879,358.625 789.288,358.901C789.697,359.177 789.984,359.5 790.151,359.87C790.458,359.427 790.857,359.086 791.346,358.846C791.836,358.607 792.38,358.487 792.979,358.487C793.964,358.487 794.686,358.765 795.147,359.323C795.608,359.88 795.839,360.706 795.839,361.799L795.839,367.284L793.784,367.284L793.784,362.409C793.784,361.57 793.691,360.965 793.507,360.592C793.322,360.22 792.969,360.034 792.448,360.034C791.651,360.034 791.078,360.393 790.729,361.112C790.583,361.43 790.484,361.812 790.432,362.26L790.432,367.284L788.385,367.284L788.385,362.315C788.385,361.549 788.284,360.979 788.081,360.604C787.878,360.229 787.51,360.042 786.979,360.042C786.547,360.042 786.174,360.151 785.862,360.37C785.549,360.588 785.313,360.875 785.151,361.229C785.031,361.755 784.971,362.385 784.971,363.12L784.971,367.284L782.924,367.284Z" style="fill:none;"/>
                <path d="M802.456,367.448C801.872,367.448 801.342,367.319 800.866,367.061C800.389,366.803 800.044,366.51 799.831,366.182L799.628,367.276L797.854,367.276L797.854,355.534L799.901,355.401L799.901,358.057C799.901,358.573 799.885,359.159 799.854,359.815C800.531,358.93 801.414,358.487 802.503,358.487C803.596,358.487 804.454,358.893 805.077,359.706C805.699,360.518 806.01,361.581 806.01,362.893C806.01,364.258 805.689,365.358 805.046,366.194C804.402,367.03 803.539,367.448 802.456,367.448ZM801.964,365.893C802.573,365.893 803.06,365.635 803.424,365.12C803.789,364.604 803.971,363.872 803.971,362.924C803.971,361.971 803.793,361.25 803.436,360.76C803.079,360.271 802.596,360.026 801.987,360.026C800.602,360.026 799.901,360.961 799.885,362.831C799.885,363.883 800.06,364.656 800.409,365.151C800.758,365.646 801.276,365.893 801.964,365.893Z" style="fill:none;"/>
                <path d="M811.651,367.448C810.271,367.448 809.197,367.051 808.428,366.256C807.66,365.462 807.276,364.364 807.276,362.963C807.276,361.599 807.638,360.513 808.362,359.706C809.086,358.898 810.073,358.492 811.323,358.487C812.505,358.487 813.423,358.857 814.077,359.596C814.73,360.336 815.057,361.318 815.057,362.542C815.057,362.63 815.056,362.773 815.053,362.971C815.051,363.169 815.049,363.315 815.049,363.409L809.339,363.409C809.359,364.211 809.579,364.832 809.999,365.272C810.418,365.712 810.995,365.932 811.729,365.932C812.667,365.932 813.568,365.687 814.432,365.198L814.721,366.651C813.862,367.182 812.839,367.448 811.651,367.448ZM809.378,362.12L813.128,362.12C813.128,361.422 812.969,360.885 812.651,360.51C812.333,360.135 811.893,359.948 811.331,359.948C810.805,359.948 810.361,360.13 809.999,360.495C809.637,360.859 809.43,361.401 809.378,362.12Z" style="fill:none;"/>
                <path d="M816.729,367.284L816.729,358.698L818.448,358.698L818.714,360.01C819.276,359.109 820.091,358.659 821.159,358.659C821.383,358.659 821.565,358.669 821.706,358.69L821.674,360.401C821.466,360.37 821.25,360.354 821.026,360.354C820.271,360.354 819.707,360.555 819.335,360.956C818.962,361.357 818.776,361.914 818.776,362.627L818.776,367.284L816.729,367.284Z" style="fill:none;"/>
                <path d="M723.081,367.284L723.081,355.838L725.331,355.838C725.737,356.474 726.563,357.755 727.807,359.682C729.052,361.609 729.81,362.781 730.081,363.198C730.159,363.318 730.293,363.519 730.483,363.803C730.673,364.087 730.807,364.289 730.885,364.409C730.849,362.622 730.831,361.695 730.831,361.627L730.831,355.838L732.76,355.838L732.76,367.284L730.479,367.284L725.315,359.237L724.94,358.62C724.982,359.995 725.003,360.961 725.003,361.518L725.003,367.284L723.081,367.284Z" style="fill:rgb(162,162,162);fill-rule:nonzero;"/>
                <path d="M738.768,365.893C739.461,365.893 739.982,365.64 740.331,365.135C740.68,364.63 740.854,363.906 740.854,362.963C740.854,362.01 740.68,361.284 740.331,360.784C739.982,360.284 739.456,360.034 738.753,360.034C738.06,360.034 737.538,360.285 737.186,360.788C736.835,361.29 736.659,362.018 736.659,362.971C736.659,363.909 736.836,364.63 737.19,365.135C737.544,365.64 738.07,365.893 738.768,365.893ZM738.714,367.448C737.443,367.448 736.443,367.036 735.714,366.213C734.984,365.39 734.62,364.307 734.62,362.963C734.62,361.578 734.984,360.486 735.714,359.686C736.443,358.887 737.471,358.487 738.799,358.487C740.081,358.487 741.085,358.894 741.811,359.709C742.538,360.525 742.901,361.609 742.901,362.963C742.901,364.333 742.534,365.423 741.799,366.233C741.065,367.043 740.036,367.448 738.714,367.448Z" style="fill:rgb(162,162,162);fill-rule:nonzero;"/>
                <path d="M748.003,367.401C747.419,367.401 746.934,367.332 746.546,367.194C746.158,367.056 745.854,366.838 745.635,366.542C745.417,366.245 745.262,365.894 745.171,365.491C745.079,365.087 745.034,364.588 745.034,363.995L745.034,359.94L743.628,359.94L743.706,358.831L745.174,358.698L745.831,356.37L747.081,356.362L747.081,358.698L749.214,358.698L749.214,359.94L747.081,359.94L747.081,364.034C747.081,364.685 747.174,365.148 747.362,365.424C747.549,365.7 747.896,365.838 748.401,365.838C748.698,365.838 749.016,365.812 749.354,365.76L749.409,367.229C749.398,367.229 749.335,367.241 749.217,367.264C749.1,367.288 748.988,367.308 748.882,367.327C748.775,367.345 748.638,367.362 748.471,367.377C748.305,367.393 748.148,367.401 748.003,367.401Z" style="fill:rgb(162,162,162);fill-rule:nonzero;"/>
                <path d="M754.745,367.448C753.365,367.448 752.29,367.051 751.522,366.256C750.754,365.462 750.37,364.364 750.37,362.963C750.37,361.599 750.732,360.513 751.456,359.706C752.18,358.898 753.167,358.492 754.417,358.487C755.599,358.487 756.517,358.857 757.171,359.596C757.824,360.336 758.151,361.318 758.151,362.542C758.151,362.63 758.15,362.773 758.147,362.971C758.145,363.169 758.143,363.315 758.143,363.409L752.432,363.409C752.453,364.211 752.673,364.832 753.092,365.272C753.512,365.712 754.089,365.932 754.823,365.932C755.76,365.932 756.661,365.687 757.526,365.198L757.815,366.651C756.956,367.182 755.932,367.448 754.745,367.448ZM752.471,362.12L756.221,362.12C756.221,361.422 756.063,360.885 755.745,360.51C755.427,360.135 754.987,359.948 754.424,359.948C753.898,359.948 753.454,360.13 753.092,360.495C752.73,360.859 752.523,361.401 752.471,362.12Z" style="fill:rgb(162,162,162);fill-rule:nonzero;"/>
                <path d="M764.042,367.284L764.042,358.698L765.69,358.698L765.917,359.784C766.792,358.919 767.763,358.487 768.831,358.487C769.831,358.487 770.579,358.775 771.077,359.35C771.574,359.926 771.823,360.76 771.823,361.854L771.823,367.284L769.768,367.284L769.768,362.104C769.763,361.411 769.651,360.893 769.432,360.549C769.214,360.206 768.82,360.034 768.253,360.034C767.81,360.034 767.405,360.147 767.038,360.374C766.671,360.6 766.404,360.885 766.237,361.229C766.138,361.635 766.089,362.26 766.089,363.104L766.089,367.284L764.042,367.284Z" style="fill:rgb(162,162,162);fill-rule:nonzero;"/>
                <path d="M777.339,367.448C776.224,367.448 775.327,367.169 774.647,366.612C773.967,366.055 773.628,365.237 773.628,364.159L773.628,358.698L775.682,358.698L775.682,364.081C775.682,364.721 775.816,365.185 776.085,365.471C776.353,365.758 776.779,365.901 777.362,365.901C777.935,365.901 778.353,365.759 778.616,365.475C778.879,365.191 779.01,364.726 779.01,364.081L779.01,358.698L781.057,358.698L781.057,364.159C781.057,365.232 780.716,366.048 780.034,366.608C779.352,367.168 778.453,367.448 777.339,367.448Z" style="fill:rgb(162,162,162);fill-rule:nonzero;"/>
                <path d="M782.924,367.284L782.924,358.698L784.581,358.698L784.815,359.792C784.919,359.661 785.02,359.545 785.116,359.444C785.212,359.342 785.345,359.228 785.514,359.1C785.684,358.972 785.863,358.867 786.053,358.784C786.243,358.7 786.478,358.63 786.757,358.573C787.035,358.515 787.333,358.487 787.651,358.487C788.333,358.487 788.879,358.625 789.288,358.901C789.697,359.177 789.984,359.5 790.151,359.87C790.458,359.427 790.857,359.086 791.346,358.846C791.836,358.607 792.38,358.487 792.979,358.487C793.964,358.487 794.686,358.765 795.147,359.323C795.608,359.88 795.839,360.706 795.839,361.799L795.839,367.284L793.784,367.284L793.784,362.409C793.784,361.57 793.691,360.965 793.507,360.592C793.322,360.22 792.969,360.034 792.448,360.034C791.651,360.034 791.078,360.393 790.729,361.112C790.583,361.43 790.484,361.812 790.432,362.26L790.432,367.284L788.385,367.284L788.385,362.315C788.385,361.549 788.284,360.979 788.081,360.604C787.878,360.229 787.51,360.042 786.979,360.042C786.547,360.042 786.174,360.151 785.862,360.37C785.549,360.588 785.313,360.875 785.151,361.229C785.031,361.755 784.971,362.385 784.971,363.12L784.971,367.284L782.924,367.284Z" style="fill:rgb(162,162,162);fill-rule:nonzero;"/>
                <path d="M802.456,367.448C801.872,367.448 801.342,367.319 800.866,367.061C800.389,366.803 800.044,366.51 799.831,366.182L799.628,367.276L797.854,367.276L797.854,355.534L799.901,355.401L799.901,358.057C799.901,358.573 799.885,359.159 799.854,359.815C800.531,358.93 801.414,358.487 802.503,358.487C803.596,358.487 804.454,358.893 805.077,359.706C805.699,360.518 806.01,361.581 806.01,362.893C806.01,364.258 805.689,365.358 805.046,366.194C804.402,367.03 803.539,367.448 802.456,367.448ZM801.964,365.893C802.573,365.893 803.06,365.635 803.424,365.12C803.789,364.604 803.971,363.872 803.971,362.924C803.971,361.971 803.793,361.25 803.436,360.76C803.079,360.271 802.596,360.026 801.987,360.026C800.602,360.026 799.901,360.961 799.885,362.831C799.885,363.883 800.06,364.656 800.409,365.151C800.758,365.646 801.276,365.893 801.964,365.893Z" style="fill:rgb(162,162,162);fill-rule:nonzero;"/>
                <path d="M811.651,367.448C810.271,367.448 809.197,367.051 808.428,366.256C807.66,365.462 807.276,364.364 807.276,362.963C807.276,361.599 807.638,360.513 808.362,359.706C809.086,358.898 810.073,358.492 811.323,358.487C812.505,358.487 813.423,358.857 814.077,359.596C814.73,360.336 815.057,361.318 815.057,362.542C815.057,362.63 815.056,362.773 815.053,362.971C815.051,363.169 815.049,363.315 815.049,363.409L809.339,363.409C809.359,364.211 809.579,364.832 809.999,365.272C810.418,365.712 810.995,365.932 811.729,365.932C812.667,365.932 813.568,365.687 814.432,365.198L814.721,366.651C813.862,367.182 812.839,367.448 811.651,367.448ZM809.378,362.12L813.128,362.12C813.128,361.422 812.969,360.885 812.651,360.51C812.333,360.135 811.893,359.948 811.331,359.948C810.805,359.948 810.361,360.13 809.999,360.495C809.637,360.859 809.43,361.401 809.378,362.12Z" style="fill:rgb(162,162,162);fill-rule:nonzero;"/>
                <path d="M816.729,367.284L816.729,358.698L818.448,358.698L818.714,360.01C819.276,359.109 820.091,358.659 821.159,358.659C821.383,358.659 821.565,358.669 821.706,358.69L821.674,360.401C821.466,360.37 821.25,360.354 821.026,360.354C820.271,360.354 819.707,360.555 819.335,360.956C818.962,361.357 818.776,361.914 818.776,362.627L818.776,367.284L816.729,367.284Z" style="fill:rgb(162,162,162);fill-rule:nonzero;"/>
            </g>
            <g transform="matrix(1,0,0,1,-274.667,-296)">
                <path d="M764.901,367.284L760.737,355.838L762.917,355.838L765.339,362.909C765.432,363.153 765.648,363.87 765.987,365.057C766.008,364.974 766.104,364.631 766.276,364.03C766.448,363.428 766.56,363.06 766.612,362.924C766.674,362.747 767.07,361.571 767.799,359.397C768.529,357.222 768.927,356.036 768.995,355.838L771.151,355.838L767.042,367.284L764.901,367.284Z" style="fill:none;"/>
                <path d="M775.823,367.448C774.443,367.448 773.368,367.051 772.6,366.256C771.832,365.462 771.448,364.364 771.448,362.963C771.448,361.599 771.81,360.513 772.534,359.706C773.258,358.898 774.245,358.492 775.495,358.487C776.677,358.487 777.595,358.857 778.249,359.596C778.902,360.336 779.229,361.318 779.229,362.542C779.229,362.63 779.228,362.773 779.225,362.971C779.223,363.169 779.221,363.315 779.221,363.409L773.51,363.409C773.531,364.211 773.751,364.832 774.171,365.272C774.59,365.712 775.167,365.932 775.901,365.932C776.839,365.932 777.74,365.687 778.604,365.198L778.893,366.651C778.034,367.182 777.01,367.448 775.823,367.448ZM773.549,362.12L777.299,362.12C777.299,361.422 777.141,360.885 776.823,360.51C776.505,360.135 776.065,359.948 775.503,359.948C774.977,359.948 774.533,360.13 774.171,360.495C773.809,360.859 773.602,361.401 773.549,362.12Z" style="fill:none;"/>
                <path d="M783.901,367.401C783.313,367.401 782.824,367.332 782.436,367.194C782.048,367.056 781.742,366.836 781.518,366.534C781.294,366.232 781.138,365.872 781.049,365.456C780.961,365.039 780.917,364.521 780.917,363.901L780.917,355.534L782.964,355.401L782.964,363.862C782.964,364.633 783.055,365.155 783.237,365.428C783.419,365.702 783.773,365.838 784.299,365.838C784.56,365.838 784.891,365.81 785.292,365.752L785.346,367.213C785.341,367.213 785.277,367.226 785.155,367.252C785.033,367.278 784.915,367.301 784.803,367.319C784.691,367.337 784.549,367.355 784.378,367.374C784.206,367.392 784.047,367.401 783.901,367.401Z" style="fill:none;"/>
                <path d="M790.057,365.893C790.75,365.893 791.271,365.64 791.62,365.135C791.969,364.63 792.143,363.906 792.143,362.963C792.143,362.01 791.969,361.284 791.62,360.784C791.271,360.284 790.745,360.034 790.042,360.034C789.349,360.034 788.827,360.285 788.475,360.788C788.124,361.29 787.948,362.018 787.948,362.971C787.948,363.909 788.125,364.63 788.479,365.135C788.833,365.64 789.359,365.893 790.057,365.893ZM790.003,367.448C788.732,367.448 787.732,367.036 787.003,366.213C786.273,365.39 785.909,364.307 785.909,362.963C785.909,361.578 786.273,360.486 787.003,359.686C787.732,358.887 788.76,358.487 790.089,358.487C791.37,358.487 792.374,358.894 793.1,359.709C793.827,360.525 794.19,361.609 794.19,362.963C794.19,364.333 793.823,365.423 793.089,366.233C792.354,367.043 791.326,367.448 790.003,367.448Z" style="fill:none;"/>
                <path d="M799.62,367.448C798.307,367.448 797.285,367.057 796.553,366.276C795.822,365.495 795.456,364.377 795.456,362.924C795.456,361.518 795.84,360.427 796.608,359.651C797.376,358.875 798.388,358.487 799.643,358.487C800.648,358.487 801.497,358.703 802.19,359.135L801.706,360.596C800.997,360.226 800.339,360.042 799.729,360.042C799.036,360.042 798.491,360.289 798.092,360.784C797.694,361.278 797.495,362 797.495,362.948C797.495,363.906 797.691,364.635 798.085,365.135C798.478,365.635 799.034,365.885 799.753,365.885C800.503,365.885 801.224,365.664 801.917,365.221L802.112,366.776C801.753,367.015 801.38,367.187 800.995,367.292C800.609,367.396 800.151,367.448 799.62,367.448Z" style="fill:none;"/>
                <path d="M803.784,367.284L803.784,358.698L805.831,358.698L805.831,367.284L803.784,367.284ZM803.784,357.448L803.784,355.698L805.839,355.698L805.839,357.448L803.784,357.448Z" style="fill:none;"/>
                <path d="M811.393,367.401C810.81,367.401 810.324,367.332 809.936,367.194C809.548,367.056 809.245,366.838 809.026,366.542C808.807,366.245 808.652,365.894 808.561,365.491C808.47,365.087 808.424,364.588 808.424,363.995L808.424,359.94L807.018,359.94L807.096,358.831L808.565,358.698L809.221,356.37L810.471,356.362L810.471,358.698L812.604,358.698L812.604,359.94L810.471,359.94L810.471,364.034C810.471,364.685 810.565,365.148 810.753,365.424C810.94,365.7 811.286,365.838 811.792,365.838C812.089,365.838 812.406,365.812 812.745,365.76L812.799,367.229C812.789,367.229 812.725,367.241 812.608,367.264C812.491,367.288 812.379,367.308 812.272,367.327C812.165,367.345 812.029,367.362 811.862,367.377C811.695,367.393 811.539,367.401 811.393,367.401Z" style="fill:none;"/>
                <path d="M814.69,370.901C814.357,370.901 814.003,370.88 813.628,370.838L813.526,369.252C813.766,369.278 814.07,369.292 814.44,369.292C814.914,369.292 815.294,369.198 815.581,369.01C815.867,368.823 816.104,368.489 816.292,368.01C816.313,367.958 816.417,367.664 816.604,367.127L813.151,358.698L815.339,358.698L817.596,364.924C817.763,364.305 818.137,363.153 818.717,361.471C819.298,359.789 819.617,358.864 819.674,358.698L821.862,358.698C819.482,364.989 818.281,368.161 818.26,368.213C817.891,369.177 817.424,369.866 816.862,370.28C816.299,370.694 815.576,370.901 814.69,370.901Z" style="fill:none;"/>
                <path d="M764.901,367.284L760.737,355.838L762.917,355.838L765.339,362.909C765.432,363.153 765.648,363.87 765.987,365.057C766.008,364.974 766.104,364.631 766.276,364.03C766.448,363.428 766.56,363.06 766.612,362.924C766.674,362.747 767.07,361.571 767.799,359.397C768.529,357.222 768.927,356.036 768.995,355.838L771.151,355.838L767.042,367.284L764.901,367.284Z" style="fill:rgb(162,162,162);fill-rule:nonzero;"/>
                <path d="M775.823,367.448C774.443,367.448 773.368,367.051 772.6,366.256C771.832,365.462 771.448,364.364 771.448,362.963C771.448,361.599 771.81,360.513 772.534,359.706C773.258,358.898 774.245,358.492 775.495,358.487C776.677,358.487 777.595,358.857 778.249,359.596C778.902,360.336 779.229,361.318 779.229,362.542C779.229,362.63 779.228,362.773 779.225,362.971C779.223,363.169 779.221,363.315 779.221,363.409L773.51,363.409C773.531,364.211 773.751,364.832 774.171,365.272C774.59,365.712 775.167,365.932 775.901,365.932C776.839,365.932 777.74,365.687 778.604,365.198L778.893,366.651C778.034,367.182 777.01,367.448 775.823,367.448ZM773.549,362.12L777.299,362.12C777.299,361.422 777.141,360.885 776.823,360.51C776.505,360.135 776.065,359.948 775.503,359.948C774.977,359.948 774.533,360.13 774.171,360.495C773.809,360.859 773.602,361.401 773.549,362.12Z" style="fill:rgb(162,162,162);fill-rule:nonzero;"/>
                <path d="M783.901,367.401C783.313,367.401 782.824,367.332 782.436,367.194C782.048,367.056 781.742,366.836 781.518,366.534C781.294,366.232 781.138,365.872 781.049,365.456C780.961,365.039 780.917,364.521 780.917,363.901L780.917,355.534L782.964,355.401L782.964,363.862C782.964,364.633 783.055,365.155 783.237,365.428C783.419,365.702 783.773,365.838 784.299,365.838C784.56,365.838 784.891,365.81 785.292,365.752L785.346,367.213C785.341,367.213 785.277,367.226 785.155,367.252C785.033,367.278 784.915,367.301 784.803,367.319C784.691,367.337 784.549,367.355 784.378,367.374C784.206,367.392 784.047,367.401 783.901,367.401Z" style="fill:rgb(162,162,162);fill-rule:nonzero;"/>
                <path d="M790.057,365.893C790.75,365.893 791.271,365.64 791.62,365.135C791.969,364.63 792.143,363.906 792.143,362.963C792.143,362.01 791.969,361.284 791.62,360.784C791.271,360.284 790.745,360.034 790.042,360.034C789.349,360.034 788.827,360.285 788.475,360.788C788.124,361.29 787.948,362.018 787.948,362.971C787.948,363.909 788.125,364.63 788.479,365.135C788.833,365.64 789.359,365.893 790.057,365.893ZM790.003,367.448C788.732,367.448 787.732,367.036 787.003,366.213C786.273,365.39 785.909,364.307 785.909,362.963C785.909,361.578 786.273,360.486 787.003,359.686C787.732,358.887 788.76,358.487 790.089,358.487C791.37,358.487 792.374,358.894 793.1,359.709C793.827,360.525 794.19,361.609 794.19,362.963C794.19,364.333 793.823,365.423 793.089,366.233C792.354,367.043 791.326,367.448 790.003,367.448Z" style="fill:rgb(162,162,162);fill-rule:nonzero;"/>
                <path d="M799.62,367.448C798.307,367.448 797.285,367.057 796.553,366.276C795.822,365.495 795.456,364.377 795.456,362.924C795.456,361.518 795.84,360.427 796.608,359.651C797.376,358.875 798.388,358.487 799.643,358.487C800.648,358.487 801.497,358.703 802.19,359.135L801.706,360.596C800.997,360.226 800.339,360.042 799.729,360.042C799.036,360.042 798.491,360.289 798.092,360.784C797.694,361.278 797.495,362 797.495,362.948C797.495,363.906 797.691,364.635 798.085,365.135C798.478,365.635 799.034,365.885 799.753,365.885C800.503,365.885 801.224,365.664 801.917,365.221L802.112,366.776C801.753,367.015 801.38,367.187 800.995,367.292C800.609,367.396 800.151,367.448 799.62,367.448Z" style="fill:rgb(162,162,162);fill-rule:nonzero;"/>
                <path d="M803.784,367.284L803.784,358.698L805.831,358.698L805.831,367.284L803.784,367.284ZM803.784,357.448L803.784,355.698L805.839,355.698L805.839,357.448L803.784,357.448Z" style="fill:rgb(162,162,162);fill-rule:nonzero;"/>
                <path d="M811.393,367.401C810.81,367.401 810.324,367.332 809.936,367.194C809.548,367.056 809.245,366.838 809.026,366.542C808.807,366.245 808.652,365.894 808.561,365.491C808.47,365.087 808.424,364.588 808.424,363.995L808.424,359.94L807.018,359.94L807.096,358.831L808.565,358.698L809.221,356.37L810.471,356.362L810.471,358.698L812.604,358.698L812.604,359.94L810.471,359.94L810.471,364.034C810.471,364.685 810.565,365.148 810.753,365.424C810.94,365.7 811.286,365.838 811.792,365.838C812.089,365.838 812.406,365.812 812.745,365.76L812.799,367.229C812.789,367.229 812.725,367.241 812.608,367.264C812.491,367.288 812.379,367.308 812.272,367.327C812.165,367.345 812.029,367.362 811.862,367.377C811.695,367.393 811.539,367.401 811.393,367.401Z" style="fill:rgb(162,162,162);fill-rule:nonzero;"/>
                <path d="M814.69,370.901C814.357,370.901 814.003,370.88 813.628,370.838L813.526,369.252C813.766,369.278 814.07,369.292 814.44,369.292C814.914,369.292 815.294,369.198 815.581,369.01C815.867,368.823 816.104,368.489 816.292,368.01C816.313,367.958 816.417,367.664 816.604,367.127L813.151,358.698L815.339,358.698L817.596,364.924C817.763,364.305 818.137,363.153 818.717,361.471C819.298,359.789 819.617,358.864 819.674,358.698L821.862,358.698C819.482,364.989 818.281,368.161 818.26,368.213C817.891,369.177 817.424,369.866 816.862,370.28C816.299,370.694 815.576,370.901 814.69,370.901Z" style="fill:rgb(162,162,162);fill-rule:nonzero;"/>
            </g>
            <g transform="matrix(1,0,0,1,90,-15)">
                <path d="M234.044,552.285L234.044,540.808L238.286,540.808C238.865,540.808 239.366,540.834 239.79,540.887C240.215,540.939 240.618,541.034 241.001,541.172C241.384,541.31 241.694,541.496 241.931,541.73C242.168,541.965 242.355,542.271 242.493,542.648C242.632,543.026 242.701,543.472 242.701,543.988C242.701,545.509 242.01,546.509 240.63,546.988C240.911,547.306 241.26,547.894 241.677,548.754L243.38,552.285L241.068,552.285L239.732,549.293C239.227,548.22 238.914,547.584 238.794,547.387C238.706,547.381 238.411,547.379 237.911,547.379L236.138,547.363L236.138,552.285L234.044,552.285ZM238.474,545.847C239.286,545.847 239.87,545.703 240.224,545.414C240.578,545.125 240.755,544.66 240.755,544.019C240.755,543.457 240.576,543.043 240.216,542.777C239.857,542.512 239.307,542.379 238.568,542.379L236.138,542.379L236.138,545.84C236.216,545.84 236.604,545.841 237.302,545.844C238,545.846 238.391,545.847 238.474,545.847Z" style="fill:none;"/>
                <path d="M244.849,552.285L244.849,540.808L249.091,540.808C249.669,540.808 250.171,540.834 250.595,540.887C251.02,540.939 251.423,541.034 251.806,541.172C252.189,541.31 252.499,541.496 252.736,541.73C252.973,541.965 253.16,542.271 253.298,542.648C253.436,543.026 253.505,543.472 253.505,543.988C253.505,545.509 252.815,546.509 251.435,546.988C251.716,547.306 252.065,547.894 252.482,548.754L254.185,552.285L251.872,552.285L250.536,549.293C250.031,548.22 249.719,547.584 249.599,547.387C249.51,547.381 249.216,547.379 248.716,547.379L246.943,547.363L246.943,552.285L244.849,552.285ZM249.279,545.847C250.091,545.847 250.674,545.703 251.029,545.414C251.383,545.125 251.56,544.66 251.56,544.019C251.56,543.457 251.38,543.043 251.021,542.777C250.661,542.512 250.112,542.379 249.372,542.379L246.943,542.379L246.943,545.84C247.021,545.84 247.409,545.841 248.107,545.844C248.805,545.846 249.195,545.847 249.279,545.847Z" style="fill:none;"/>
                <path d="M260.872,552.449C259.128,552.449 257.764,551.923 256.783,550.871C255.801,549.819 255.31,548.379 255.31,546.551C255.31,545.389 255.539,544.367 255.997,543.484C256.456,542.601 257.13,541.913 258.021,541.418C258.911,540.923 259.964,540.676 261.177,540.676C262.568,540.676 263.76,540.975 264.755,541.574L264.068,543.152C263.12,542.642 262.169,542.387 261.216,542.387C260.06,542.387 259.151,542.762 258.49,543.512C257.828,544.262 257.497,545.282 257.497,546.574C257.497,547.855 257.792,548.868 258.38,549.613C258.969,550.358 259.831,550.73 260.966,550.73C261.695,550.73 262.357,550.616 262.951,550.387L262.951,547.73L260.552,547.73L260.568,546.066L264.943,546.066L264.943,551.59C264.234,551.881 263.564,552.097 262.931,552.238C262.298,552.379 261.612,552.449 260.872,552.449Z" style="fill:none;"/>
                <path d="M267.029,552.285L267.029,543.699L268.747,543.699L269.013,545.012C269.576,544.111 270.391,543.66 271.458,543.66C271.682,543.66 271.865,543.67 272.005,543.691L271.974,545.402C271.766,545.371 271.549,545.355 271.326,545.355C270.57,545.355 270.007,545.556 269.634,545.957C269.262,546.358 269.076,546.915 269.076,547.629L269.076,552.285L267.029,552.285Z" style="fill:none;"/>
                <path d="M276.919,550.894C277.612,550.894 278.133,550.642 278.482,550.137C278.831,549.631 279.005,548.907 279.005,547.965C279.005,547.012 278.831,546.285 278.482,545.785C278.133,545.285 277.607,545.035 276.904,545.035C276.211,545.035 275.689,545.286 275.337,545.789C274.986,546.292 274.81,547.019 274.81,547.972C274.81,548.91 274.987,549.631 275.341,550.137C275.695,550.642 276.221,550.894 276.919,550.894ZM276.865,552.449C275.594,552.449 274.594,552.038 273.865,551.215C273.135,550.392 272.771,549.308 272.771,547.965C272.771,546.579 273.135,545.487 273.865,544.687C274.594,543.888 275.622,543.488 276.951,543.488C278.232,543.488 279.236,543.896 279.962,544.711C280.689,545.526 281.052,546.611 281.052,547.965C281.052,549.334 280.685,550.424 279.951,551.234C279.216,552.044 278.187,552.449 276.865,552.449Z" style="fill:none;"/>
                <path d="M286.224,552.449C285.109,552.449 284.212,552.17 283.533,551.613C282.853,551.056 282.513,550.238 282.513,549.16L282.513,543.699L284.568,543.699L284.568,549.082C284.568,549.722 284.702,550.186 284.97,550.472C285.238,550.759 285.664,550.902 286.247,550.902C286.82,550.902 287.238,550.76 287.501,550.476C287.764,550.193 287.896,549.728 287.896,549.082L287.896,543.699L289.943,543.699L289.943,549.16C289.943,550.233 289.602,551.049 288.919,551.609C288.237,552.169 287.339,552.449 286.224,552.449Z" style="fill:none;"/>
                <path d="M291.81,555.855L291.81,543.699L293.568,543.699L293.786,544.902C294.068,544.449 294.441,544.099 294.908,543.851C295.374,543.604 295.893,543.48 296.466,543.48C297.169,543.48 297.788,543.676 298.322,544.066C298.855,544.457 299.26,544.989 299.536,545.664C299.812,546.338 299.951,547.1 299.951,547.949C299.951,549.277 299.629,550.359 298.986,551.195C298.342,552.031 297.471,552.449 296.372,552.449C295.831,552.449 295.34,552.341 294.9,552.125C294.46,551.909 294.091,551.616 293.794,551.246C293.836,551.996 293.857,552.418 293.857,552.512L293.857,555.754L291.81,555.855ZM295.935,550.887C296.544,550.887 297.025,550.631 297.376,550.121C297.728,549.611 297.904,548.881 297.904,547.933C297.904,546.97 297.727,546.246 297.372,545.762C297.018,545.277 296.526,545.035 295.896,545.035C294.542,545.035 293.857,545.957 293.841,547.801C293.841,548.863 294.017,549.643 294.368,550.14C294.72,550.638 295.242,550.887 295.935,550.887Z" style="fill:none;"/>
                <path d="M170.505,570.441C169.031,568.426 168.294,566.152 168.294,563.621C168.294,561.038 169.029,558.717 170.497,556.66L172.341,556.66C171.82,557.405 171.339,558.43 170.896,559.734C170.453,561.039 170.232,562.329 170.232,563.605C170.232,564.855 170.454,566.126 170.9,567.418C171.345,568.709 171.823,569.717 172.333,570.441L170.505,570.441Z" style="fill:none;"/>
                <path d="M177.427,566.894C178.12,566.894 178.641,566.642 178.99,566.137C179.339,565.631 179.513,564.907 179.513,563.965C179.513,563.012 179.339,562.285 178.99,561.785C178.641,561.285 178.115,561.035 177.411,561.035C176.719,561.035 176.197,561.286 175.845,561.789C175.493,562.292 175.318,563.019 175.318,563.972C175.318,564.91 175.495,565.631 175.849,566.137C176.203,566.642 176.729,566.894 177.427,566.894ZM177.372,568.449C176.102,568.449 175.102,568.038 174.372,567.215C173.643,566.392 173.279,565.308 173.279,563.965C173.279,562.579 173.643,561.487 174.372,560.687C175.102,559.888 176.13,559.488 177.458,559.488C178.74,559.488 179.743,559.896 180.47,560.711C181.197,561.526 181.56,562.611 181.56,563.965C181.56,565.334 181.193,566.424 180.458,567.234C179.724,568.044 178.695,568.449 177.372,568.449Z" style="fill:none;"/>
                <path d="M183.24,568.285L183.24,559.699L184.958,559.699L185.224,561.012C185.786,560.111 186.602,559.66 187.669,559.66C187.893,559.66 188.076,559.67 188.216,559.691L188.185,561.402C187.977,561.371 187.76,561.355 187.536,561.355C186.781,561.355 186.217,561.556 185.845,561.957C185.473,562.358 185.286,562.915 185.286,563.629L185.286,568.285L183.24,568.285Z" style="fill:none;"/>
                <path d="M195.958,568.449C195.161,568.449 194.517,568.229 194.025,567.789C193.533,567.349 193.286,566.715 193.286,565.887C193.286,564.996 193.578,564.336 194.161,563.906C194.745,563.476 195.625,563.204 196.802,563.09C196.964,563.069 197.138,563.048 197.326,563.027C197.513,563.006 197.724,562.986 197.958,562.965C198.193,562.944 198.378,562.926 198.513,562.91L198.513,562.457C198.513,561.936 198.393,561.557 198.154,561.32C197.914,561.083 197.549,560.965 197.06,560.965C196.362,560.965 195.5,561.16 194.474,561.551C194.469,561.535 194.383,561.298 194.216,560.84C194.049,560.381 193.964,560.147 193.958,560.137C194.969,559.704 196.062,559.488 197.24,559.488C198.396,559.488 199.237,559.739 199.763,560.242C200.289,560.745 200.552,561.558 200.552,562.683L200.552,568.285L199.036,568.285C199.031,568.264 198.974,568.09 198.865,567.762C198.755,567.433 198.701,567.259 198.701,567.238C198.273,567.655 197.855,567.961 197.447,568.156C197.038,568.351 196.542,568.449 195.958,568.449ZM196.513,566.996C196.987,566.996 197.4,566.883 197.751,566.656C198.103,566.43 198.354,566.155 198.505,565.832L198.505,564.176C198.49,564.176 198.353,564.186 198.095,564.207C197.837,564.228 197.698,564.238 197.677,564.238C196.849,564.311 196.242,564.467 195.857,564.707C195.471,564.946 195.279,565.332 195.279,565.863C195.279,566.228 195.385,566.508 195.599,566.703C195.812,566.898 196.117,566.996 196.513,566.996Z" style="fill:none;"/>
                <path d="M202.615,568.285L202.615,559.699L204.263,559.699L204.49,560.785C205.365,559.92 206.336,559.488 207.404,559.488C208.404,559.488 209.152,559.776 209.65,560.351C210.147,560.927 210.396,561.762 210.396,562.855L210.396,568.285L208.341,568.285L208.341,563.105C208.336,562.413 208.224,561.894 208.005,561.551C207.786,561.207 207.393,561.035 206.826,561.035C206.383,561.035 205.978,561.148 205.611,561.375C205.243,561.601 204.977,561.887 204.81,562.23C204.711,562.637 204.661,563.262 204.661,564.105L204.661,568.285L202.615,568.285Z" style="fill:none;"/>
                <path d="M212.826,571.902C212.492,571.902 212.138,571.881 211.763,571.84L211.661,570.254C211.901,570.28 212.206,570.293 212.576,570.293C213.049,570.293 213.43,570.199 213.716,570.012C214.003,569.824 214.24,569.491 214.427,569.012C214.448,568.959 214.552,568.665 214.74,568.129L211.286,559.699L213.474,559.699L215.732,565.926C215.898,565.306 216.272,564.155 216.853,562.472C217.434,560.79 217.753,559.866 217.81,559.699L219.997,559.699C217.617,565.991 216.417,569.163 216.396,569.215C216.026,570.178 215.56,570.867 214.997,571.281C214.435,571.695 213.711,571.902 212.826,571.902Z" style="fill:none;"/>
                <path d="M224.521,568.402C223.937,568.402 223.452,568.333 223.064,568.195C222.676,568.057 222.372,567.84 222.154,567.543C221.935,567.246 221.78,566.896 221.689,566.492C221.598,566.088 221.552,565.59 221.552,564.996L221.552,560.941L220.146,560.941L220.224,559.832L221.693,559.699L222.349,557.371L223.599,557.363L223.599,559.699L225.732,559.699L225.732,560.941L223.599,560.941L223.599,565.035C223.599,565.686 223.693,566.15 223.88,566.426C224.068,566.702 224.414,566.84 224.919,566.84C225.216,566.84 225.534,566.814 225.872,566.762L225.927,568.23C225.917,568.23 225.853,568.242 225.736,568.265C225.618,568.289 225.507,568.31 225.4,568.328C225.293,568.346 225.156,568.363 224.99,568.379C224.823,568.394 224.667,568.402 224.521,568.402Z" style="fill:none;"/>
                <path d="M227.365,568.285L227.365,556.535L229.411,556.402L229.411,558.879C229.411,558.999 229.404,559.331 229.388,559.875C229.372,560.419 229.365,560.696 229.365,560.707C230.047,559.894 230.964,559.488 232.115,559.488C233.073,559.488 233.816,559.763 234.345,560.312C234.874,560.862 235.138,561.707 235.138,562.847L235.138,568.285L233.091,568.285L233.091,563.074C233.091,562.371 232.979,561.855 232.755,561.527C232.531,561.199 232.151,561.035 231.615,561.035C231.156,561.035 230.75,561.151 230.396,561.383C230.042,561.614 229.776,561.913 229.599,562.277C229.474,562.756 229.411,563.381 229.411,564.152L229.411,568.285L227.365,568.285Z" style="fill:none;"/>
                <path d="M237.201,568.285L237.201,559.699L239.247,559.699L239.247,568.285L237.201,568.285ZM237.201,558.449L237.201,556.699L239.255,556.699L239.255,558.449L237.201,558.449Z" style="fill:none;"/>
                <path d="M241.38,568.285L241.38,559.699L243.029,559.699L243.255,560.785C244.13,559.92 245.102,559.488 246.169,559.488C247.169,559.488 247.918,559.776 248.415,560.351C248.913,560.927 249.161,561.762 249.161,562.855L249.161,568.285L247.107,568.285L247.107,563.105C247.102,562.413 246.99,561.894 246.771,561.551C246.552,561.207 246.159,561.035 245.591,561.035C245.148,561.035 244.743,561.148 244.376,561.375C244.009,561.601 243.742,561.887 243.576,562.23C243.477,562.637 243.427,563.262 243.427,564.105L243.427,568.285L241.38,568.285Z" style="fill:none;"/>
                <path d="M252.896,572.129L252.779,570.472L253.818,570.472C255.021,570.472 255.862,570.312 256.341,569.992C256.82,569.672 257.06,569.084 257.06,568.23C257.06,567.881 257.044,567.504 257.013,567.097C256.878,567.285 256.749,567.44 256.626,567.562C256.504,567.685 256.35,567.806 256.165,567.926C255.98,568.045 255.759,568.135 255.501,568.195C255.243,568.255 254.951,568.285 254.622,568.285C253.487,568.285 252.553,567.876 251.822,567.058C251.09,566.241 250.724,565.186 250.724,563.894C250.724,563.207 250.826,562.581 251.029,562.015C251.232,561.45 251.508,560.986 251.857,560.621C252.206,560.256 252.608,559.976 253.064,559.781C253.52,559.586 254.005,559.488 254.521,559.488C255.672,559.488 256.529,559.907 257.091,560.746L257.232,559.699L259.06,559.699L259.06,567.676C259.06,568.103 259.039,568.487 258.997,568.828C258.956,569.169 258.883,569.497 258.779,569.812C258.674,570.127 258.538,570.402 258.368,570.637C258.199,570.871 257.987,571.084 257.732,571.277C257.477,571.47 257.176,571.627 256.829,571.75C256.483,571.872 256.081,571.966 255.622,572.031C255.164,572.096 254.648,572.129 254.076,572.129L252.896,572.129ZM254.951,566.855C256.362,566.855 257.076,565.91 257.091,564.019L257.091,563.722C257.081,562.874 256.904,562.217 256.56,561.754C256.216,561.29 255.714,561.056 255.052,561.051C254.302,561.051 253.734,561.307 253.349,561.82C252.964,562.333 252.771,563.025 252.771,563.894C252.771,564.733 252.965,565.436 253.353,566.004C253.741,566.571 254.273,566.855 254.951,566.855Z" style="fill:none;"/>
                <path d="M269.271,568.449C267.891,568.449 266.816,568.052 266.048,567.258C265.28,566.463 264.896,565.366 264.896,563.965C264.896,562.6 265.258,561.514 265.982,560.707C266.706,559.9 267.693,559.493 268.943,559.488C270.125,559.488 271.043,559.858 271.697,560.597C272.35,561.337 272.677,562.319 272.677,563.543C272.677,563.631 272.676,563.775 272.673,563.972C272.671,564.17 272.669,564.316 272.669,564.41L266.958,564.41C266.979,565.212 267.199,565.833 267.618,566.273C268.038,566.713 268.615,566.933 269.349,566.933C270.286,566.933 271.187,566.689 272.052,566.199L272.341,567.652C271.482,568.183 270.458,568.449 269.271,568.449ZM266.997,563.121L270.747,563.121C270.747,562.423 270.589,561.887 270.271,561.512C269.953,561.137 269.513,560.949 268.951,560.949C268.424,560.949 267.98,561.131 267.618,561.496C267.257,561.861 267.049,562.402 266.997,563.121Z" style="fill:none;"/>
                <path d="M277.349,568.402C276.76,568.402 276.272,568.333 275.884,568.195C275.496,568.057 275.19,567.837 274.966,567.535C274.742,567.233 274.586,566.874 274.497,566.457C274.409,566.04 274.365,565.522 274.365,564.902L274.365,556.535L276.411,556.402L276.411,564.863C276.411,565.634 276.503,566.156 276.685,566.43C276.867,566.703 277.221,566.84 277.747,566.84C278.008,566.84 278.339,566.811 278.74,566.754L278.794,568.215C278.789,568.215 278.725,568.228 278.603,568.254C278.48,568.28 278.363,568.302 278.251,568.32C278.139,568.338 277.997,568.357 277.826,568.375C277.654,568.393 277.495,568.402 277.349,568.402Z" style="fill:none;"/>
                <path d="M282.552,568.441C281.286,568.441 280.273,568.225 279.513,567.793L279.724,566.254C280.068,566.441 280.505,566.609 281.036,566.758C281.568,566.906 282.052,566.98 282.49,566.98C282.943,566.98 283.296,566.896 283.548,566.726C283.801,566.557 283.93,566.308 283.935,565.98C283.935,565.683 283.816,565.449 283.579,565.277C283.342,565.105 282.891,564.892 282.224,564.637C281.995,564.553 281.846,564.499 281.779,564.472C280.987,564.165 280.417,563.823 280.068,563.445C279.719,563.068 279.544,562.556 279.544,561.91C279.544,561.129 279.827,560.53 280.392,560.113C280.957,559.696 281.745,559.488 282.755,559.488C283.849,559.488 284.81,559.694 285.638,560.105L285.13,561.519C284.312,561.139 283.534,560.949 282.794,560.949C282.383,560.949 282.061,561.018 281.829,561.156C281.598,561.294 281.482,561.504 281.482,561.785C281.482,562.051 281.594,562.258 281.818,562.406C282.042,562.555 282.479,562.749 283.13,562.988C283.151,562.993 283.219,563.017 283.333,563.058C283.448,563.1 283.536,563.134 283.599,563.16C284.385,563.446 284.964,563.789 285.333,564.187C285.703,564.586 285.888,565.105 285.888,565.746C285.883,566.605 285.591,567.269 285.013,567.738C284.435,568.207 283.615,568.441 282.552,568.441Z" style="fill:none;"/>
                <path d="M291.474,568.449C290.094,568.449 289.02,568.052 288.251,567.258C287.483,566.463 287.099,565.366 287.099,563.965C287.099,562.6 287.461,561.514 288.185,560.707C288.909,559.9 289.896,559.493 291.146,559.488C292.328,559.488 293.246,559.858 293.9,560.597C294.553,561.337 294.88,562.319 294.88,563.543C294.88,563.631 294.879,563.775 294.876,563.972C294.874,564.17 294.872,564.316 294.872,564.41L289.161,564.41C289.182,565.212 289.402,565.833 289.822,566.273C290.241,566.713 290.818,566.933 291.552,566.933C292.49,566.933 293.391,566.689 294.255,566.199L294.544,567.652C293.685,568.183 292.661,568.449 291.474,568.449ZM289.201,563.121L292.951,563.121C292.951,562.423 292.792,561.887 292.474,561.512C292.156,561.137 291.716,560.949 291.154,560.949C290.628,560.949 290.184,561.131 289.822,561.496C289.46,561.861 289.253,562.402 289.201,563.121Z" style="fill:none;"/>
                <path d="M295.826,570.441C296.138,569.993 296.445,569.432 296.747,568.758C297.049,568.083 297.32,567.271 297.56,566.32C297.799,565.37 297.919,564.465 297.919,563.605C297.919,562.334 297.699,561.047 297.259,559.742C296.819,558.437 296.339,557.41 295.818,556.66L297.654,556.66C299.128,558.738 299.865,561.058 299.865,563.621C299.865,566.142 299.125,568.415 297.646,570.441L295.826,570.441Z" style="fill:none;"/>
                <path d="M234.044,552.285L234.044,540.808L238.286,540.808C238.865,540.808 239.366,540.834 239.79,540.887C240.215,540.939 240.618,541.034 241.001,541.172C241.384,541.31 241.694,541.496 241.931,541.73C242.168,541.965 242.355,542.271 242.493,542.648C242.632,543.026 242.701,543.472 242.701,543.988C242.701,545.509 242.01,546.509 240.63,546.988C240.911,547.306 241.26,547.894 241.677,548.754L243.38,552.285L241.068,552.285L239.732,549.293C239.227,548.22 238.914,547.584 238.794,547.387C238.706,547.381 238.411,547.379 237.911,547.379L236.138,547.363L236.138,552.285L234.044,552.285ZM238.474,545.847C239.286,545.847 239.87,545.703 240.224,545.414C240.578,545.125 240.755,544.66 240.755,544.019C240.755,543.457 240.576,543.043 240.216,542.777C239.857,542.512 239.307,542.379 238.568,542.379L236.138,542.379L236.138,545.84C236.216,545.84 236.604,545.841 237.302,545.844C238,545.846 238.391,545.847 238.474,545.847Z" style="fill:rgb(162,162,162);fill-rule:nonzero;"/>
                <path d="M244.849,552.285L244.849,540.808L249.091,540.808C249.669,540.808 250.171,540.834 250.595,540.887C251.02,540.939 251.423,541.034 251.806,541.172C252.189,541.31 252.499,541.496 252.736,541.73C252.973,541.965 253.16,542.271 253.298,542.648C253.436,543.026 253.505,543.472 253.505,543.988C253.505,545.509 252.815,546.509 251.435,546.988C251.716,547.306 252.065,547.894 252.482,548.754L254.185,552.285L251.872,552.285L250.536,549.293C250.031,548.22 249.719,547.584 249.599,547.387C249.51,547.381 249.216,547.379 248.716,547.379L246.943,547.363L246.943,552.285L244.849,552.285ZM249.279,545.847C250.091,545.847 250.674,545.703 251.029,545.414C251.383,545.125 251.56,544.66 251.56,544.019C251.56,543.457 251.38,543.043 251.021,542.777C250.661,542.512 250.112,542.379 249.372,542.379L246.943,542.379L246.943,545.84C247.021,545.84 247.409,545.841 248.107,545.844C248.805,545.846 249.195,545.847 249.279,545.847Z" style="fill:rgb(162,162,162);fill-rule:nonzero;"/>
                <path d="M260.872,552.449C259.128,552.449 257.764,551.923 256.783,550.871C255.801,549.819 255.31,548.379 255.31,546.551C255.31,545.389 255.539,544.367 255.997,543.484C256.456,542.601 257.13,541.913 258.021,541.418C258.911,540.923 259.964,540.676 261.177,540.676C262.568,540.676 263.76,540.975 264.755,541.574L264.068,543.152C263.12,542.642 262.169,542.387 261.216,542.387C260.06,542.387 259.151,542.762 258.49,543.512C257.828,544.262 257.497,545.282 257.497,546.574C257.497,547.855 257.792,548.868 258.38,549.613C258.969,550.358 259.831,550.73 260.966,550.73C261.695,550.73 262.357,550.616 262.951,550.387L262.951,547.73L260.552,547.73L260.568,546.066L264.943,546.066L264.943,551.59C264.234,551.881 263.564,552.097 262.931,552.238C262.298,552.379 261.612,552.449 260.872,552.449Z" style="fill:rgb(162,162,162);fill-rule:nonzero;"/>
                <path d="M267.029,552.285L267.029,543.699L268.747,543.699L269.013,545.012C269.576,544.111 270.391,543.66 271.458,543.66C271.682,543.66 271.865,543.67 272.005,543.691L271.974,545.402C271.766,545.371 271.549,545.355 271.326,545.355C270.57,545.355 270.007,545.556 269.634,545.957C269.262,546.358 269.076,546.915 269.076,547.629L269.076,552.285L267.029,552.285Z" style="fill:rgb(162,162,162);fill-rule:nonzero;"/>
                <path d="M276.919,550.894C277.612,550.894 278.133,550.642 278.482,550.137C278.831,549.631 279.005,548.907 279.005,547.965C279.005,547.012 278.831,546.285 278.482,545.785C278.133,545.285 277.607,545.035 276.904,545.035C276.211,545.035 275.689,545.286 275.337,545.789C274.986,546.292 274.81,547.019 274.81,547.972C274.81,548.91 274.987,549.631 275.341,550.137C275.695,550.642 276.221,550.894 276.919,550.894ZM276.865,552.449C275.594,552.449 274.594,552.038 273.865,551.215C273.135,550.392 272.771,549.308 272.771,547.965C272.771,546.579 273.135,545.487 273.865,544.687C274.594,543.888 275.622,543.488 276.951,543.488C278.232,543.488 279.236,543.896 279.962,544.711C280.689,545.526 281.052,546.611 281.052,547.965C281.052,549.334 280.685,550.424 279.951,551.234C279.216,552.044 278.187,552.449 276.865,552.449Z" style="fill:rgb(162,162,162);fill-rule:nonzero;"/>
                <path d="M286.224,552.449C285.109,552.449 284.212,552.17 283.533,551.613C282.853,551.056 282.513,550.238 282.513,549.16L282.513,543.699L284.568,543.699L284.568,549.082C284.568,549.722 284.702,550.186 284.97,550.472C285.238,550.759 285.664,550.902 286.247,550.902C286.82,550.902 287.238,550.76 287.501,550.476C287.764,550.193 287.896,549.728 287.896,549.082L287.896,543.699L289.943,543.699L289.943,549.16C289.943,550.233 289.602,551.049 288.919,551.609C288.237,552.169 287.339,552.449 286.224,552.449Z" style="fill:rgb(162,162,162);fill-rule:nonzero;"/>
                <path d="M291.81,555.855L291.81,543.699L293.568,543.699L293.786,544.902C294.068,544.449 294.441,544.099 294.908,543.851C295.374,543.604 295.893,543.48 296.466,543.48C297.169,543.48 297.788,543.676 298.322,544.066C298.855,544.457 299.26,544.989 299.536,545.664C299.812,546.338 299.951,547.1 299.951,547.949C299.951,549.277 299.629,550.359 298.986,551.195C298.342,552.031 297.471,552.449 296.372,552.449C295.831,552.449 295.34,552.341 294.9,552.125C294.46,551.909 294.091,551.616 293.794,551.246C293.836,551.996 293.857,552.418 293.857,552.512L293.857,555.754L291.81,555.855ZM295.935,550.887C296.544,550.887 297.025,550.631 297.376,550.121C297.728,549.611 297.904,548.881 297.904,547.933C297.904,546.97 297.727,546.246 297.372,545.762C297.018,545.277 296.526,545.035 295.896,545.035C294.542,545.035 293.857,545.957 293.841,547.801C293.841,548.863 294.017,549.643 294.368,550.14C294.72,550.638 295.242,550.887 295.935,550.887Z" style="fill:rgb(162,162,162);fill-rule:nonzero;"/>
                <path d="M170.505,570.441C169.031,568.426 168.294,566.152 168.294,563.621C168.294,561.038 169.029,558.717 170.497,556.66L172.341,556.66C171.82,557.405 171.339,558.43 170.896,559.734C170.453,561.039 170.232,562.329 170.232,563.605C170.232,564.855 170.454,566.126 170.9,567.418C171.345,568.709 171.823,569.717 172.333,570.441L170.505,570.441Z" style="fill:rgb(162,162,162);fill-rule:nonzero;"/>
                <path d="M177.427,566.894C178.12,566.894 178.641,566.642 178.99,566.137C179.339,565.631 179.513,564.907 179.513,563.965C179.513,563.012 179.339,562.285 178.99,561.785C178.641,561.285 178.115,561.035 177.411,561.035C176.719,561.035 176.197,561.286 175.845,561.789C175.493,562.292 175.318,563.019 175.318,563.972C175.318,564.91 175.495,565.631 175.849,566.137C176.203,566.642 176.729,566.894 177.427,566.894ZM177.372,568.449C176.102,568.449 175.102,568.038 174.372,567.215C173.643,566.392 173.279,565.308 173.279,563.965C173.279,562.579 173.643,561.487 174.372,560.687C175.102,559.888 176.13,559.488 177.458,559.488C178.74,559.488 179.743,559.896 180.47,560.711C181.197,561.526 181.56,562.611 181.56,563.965C181.56,565.334 181.193,566.424 180.458,567.234C179.724,568.044 178.695,568.449 177.372,568.449Z" style="fill:rgb(162,162,162);fill-rule:nonzero;"/>
                <path d="M183.24,568.285L183.24,559.699L184.958,559.699L185.224,561.012C185.786,560.111 186.602,559.66 187.669,559.66C187.893,559.66 188.076,559.67 188.216,559.691L188.185,561.402C187.977,561.371 187.76,561.355 187.536,561.355C186.781,561.355 186.217,561.556 185.845,561.957C185.473,562.358 185.286,562.915 185.286,563.629L185.286,568.285L183.24,568.285Z" style="fill:rgb(162,162,162);fill-rule:nonzero;"/>
                <path d="M195.958,568.449C195.161,568.449 194.517,568.229 194.025,567.789C193.533,567.349 193.286,566.715 193.286,565.887C193.286,564.996 193.578,564.336 194.161,563.906C194.745,563.476 195.625,563.204 196.802,563.09C196.964,563.069 197.138,563.048 197.326,563.027C197.513,563.006 197.724,562.986 197.958,562.965C198.193,562.944 198.378,562.926 198.513,562.91L198.513,562.457C198.513,561.936 198.393,561.557 198.154,561.32C197.914,561.083 197.549,560.965 197.06,560.965C196.362,560.965 195.5,561.16 194.474,561.551C194.469,561.535 194.383,561.298 194.216,560.84C194.049,560.381 193.964,560.147 193.958,560.137C194.969,559.704 196.062,559.488 197.24,559.488C198.396,559.488 199.237,559.739 199.763,560.242C200.289,560.745 200.552,561.558 200.552,562.683L200.552,568.285L199.036,568.285C199.031,568.264 198.974,568.09 198.865,567.762C198.755,567.433 198.701,567.259 198.701,567.238C198.273,567.655 197.855,567.961 197.447,568.156C197.038,568.351 196.542,568.449 195.958,568.449ZM196.513,566.996C196.987,566.996 197.4,566.883 197.751,566.656C198.103,566.43 198.354,566.155 198.505,565.832L198.505,564.176C198.49,564.176 198.353,564.186 198.095,564.207C197.837,564.228 197.698,564.238 197.677,564.238C196.849,564.311 196.242,564.467 195.857,564.707C195.471,564.946 195.279,565.332 195.279,565.863C195.279,566.228 195.385,566.508 195.599,566.703C195.812,566.898 196.117,566.996 196.513,566.996Z" style="fill:rgb(162,162,162);fill-rule:nonzero;"/>
                <path d="M202.615,568.285L202.615,559.699L204.263,559.699L204.49,560.785C205.365,559.92 206.336,559.488 207.404,559.488C208.404,559.488 209.152,559.776 209.65,560.351C210.147,560.927 210.396,561.762 210.396,562.855L210.396,568.285L208.341,568.285L208.341,563.105C208.336,562.413 208.224,561.894 208.005,561.551C207.786,561.207 207.393,561.035 206.826,561.035C206.383,561.035 205.978,561.148 205.611,561.375C205.243,561.601 204.977,561.887 204.81,562.23C204.711,562.637 204.661,563.262 204.661,564.105L204.661,568.285L202.615,568.285Z" style="fill:rgb(162,162,162);fill-rule:nonzero;"/>
                <path d="M212.826,571.902C212.492,571.902 212.138,571.881 211.763,571.84L211.661,570.254C211.901,570.28 212.206,570.293 212.576,570.293C213.049,570.293 213.43,570.199 213.716,570.012C214.003,569.824 214.24,569.491 214.427,569.012C214.448,568.959 214.552,568.665 214.74,568.129L211.286,559.699L213.474,559.699L215.732,565.926C215.898,565.306 216.272,564.155 216.853,562.472C217.434,560.79 217.753,559.866 217.81,559.699L219.997,559.699C217.617,565.991 216.417,569.163 216.396,569.215C216.026,570.178 215.56,570.867 214.997,571.281C214.435,571.695 213.711,571.902 212.826,571.902Z" style="fill:rgb(162,162,162);fill-rule:nonzero;"/>
                <path d="M224.521,568.402C223.937,568.402 223.452,568.333 223.064,568.195C222.676,568.057 222.372,567.84 222.154,567.543C221.935,567.246 221.78,566.896 221.689,566.492C221.598,566.088 221.552,565.59 221.552,564.996L221.552,560.941L220.146,560.941L220.224,559.832L221.693,559.699L222.349,557.371L223.599,557.363L223.599,559.699L225.732,559.699L225.732,560.941L223.599,560.941L223.599,565.035C223.599,565.686 223.693,566.15 223.88,566.426C224.068,566.702 224.414,566.84 224.919,566.84C225.216,566.84 225.534,566.814 225.872,566.762L225.927,568.23C225.917,568.23 225.853,568.242 225.736,568.265C225.618,568.289 225.507,568.31 225.4,568.328C225.293,568.346 225.156,568.363 224.99,568.379C224.823,568.394 224.667,568.402 224.521,568.402Z" style="fill:rgb(162,162,162);fill-rule:nonzero;"/>
                <path d="M227.365,568.285L227.365,556.535L229.411,556.402L229.411,558.879C229.411,558.999 229.404,559.331 229.388,559.875C229.372,560.419 229.365,560.696 229.365,560.707C230.047,559.894 230.964,559.488 232.115,559.488C233.073,559.488 233.816,559.763 234.345,560.312C234.874,560.862 235.138,561.707 235.138,562.847L235.138,568.285L233.091,568.285L233.091,563.074C233.091,562.371 232.979,561.855 232.755,561.527C232.531,561.199 232.151,561.035 231.615,561.035C231.156,561.035 230.75,561.151 230.396,561.383C230.042,561.614 229.776,561.913 229.599,562.277C229.474,562.756 229.411,563.381 229.411,564.152L229.411,568.285L227.365,568.285Z" style="fill:rgb(162,162,162);fill-rule:nonzero;"/>
                <path d="M237.201,568.285L237.201,559.699L239.247,559.699L239.247,568.285L237.201,568.285ZM237.201,558.449L237.201,556.699L239.255,556.699L239.255,558.449L237.201,558.449Z" style="fill:rgb(162,162,162);fill-rule:nonzero;"/>
                <path d="M241.38,568.285L241.38,559.699L243.029,559.699L243.255,560.785C244.13,559.92 245.102,559.488 246.169,559.488C247.169,559.488 247.918,559.776 248.415,560.351C248.913,560.927 249.161,561.762 249.161,562.855L249.161,568.285L247.107,568.285L247.107,563.105C247.102,562.413 246.99,561.894 246.771,561.551C246.552,561.207 246.159,561.035 245.591,561.035C245.148,561.035 244.743,561.148 244.376,561.375C244.009,561.601 243.742,561.887 243.576,562.23C243.477,562.637 243.427,563.262 243.427,564.105L243.427,568.285L241.38,568.285Z" style="fill:rgb(162,162,162);fill-rule:nonzero;"/>
                <path d="M252.896,572.129L252.779,570.472L253.818,570.472C255.021,570.472 255.862,570.312 256.341,569.992C256.82,569.672 257.06,569.084 257.06,568.23C257.06,567.881 257.044,567.504 257.013,567.097C256.878,567.285 256.749,567.44 256.626,567.562C256.504,567.685 256.35,567.806 256.165,567.926C255.98,568.045 255.759,568.135 255.501,568.195C255.243,568.255 254.951,568.285 254.622,568.285C253.487,568.285 252.553,567.876 251.822,567.058C251.09,566.241 250.724,565.186 250.724,563.894C250.724,563.207 250.826,562.581 251.029,562.015C251.232,561.45 251.508,560.986 251.857,560.621C252.206,560.256 252.608,559.976 253.064,559.781C253.52,559.586 254.005,559.488 254.521,559.488C255.672,559.488 256.529,559.907 257.091,560.746L257.232,559.699L259.06,559.699L259.06,567.676C259.06,568.103 259.039,568.487 258.997,568.828C258.956,569.169 258.883,569.497 258.779,569.812C258.674,570.127 258.538,570.402 258.368,570.637C258.199,570.871 257.987,571.084 257.732,571.277C257.477,571.47 257.176,571.627 256.829,571.75C256.483,571.872 256.081,571.966 255.622,572.031C255.164,572.096 254.648,572.129 254.076,572.129L252.896,572.129ZM254.951,566.855C256.362,566.855 257.076,565.91 257.091,564.019L257.091,563.722C257.081,562.874 256.904,562.217 256.56,561.754C256.216,561.29 255.714,561.056 255.052,561.051C254.302,561.051 253.734,561.307 253.349,561.82C252.964,562.333 252.771,563.025 252.771,563.894C252.771,564.733 252.965,565.436 253.353,566.004C253.741,566.571 254.273,566.855 254.951,566.855Z" style="fill:rgb(162,162,162);fill-rule:nonzero;"/>
                <path d="M269.271,568.449C267.891,568.449 266.816,568.052 266.048,567.258C265.28,566.463 264.896,565.366 264.896,563.965C264.896,562.6 265.258,561.514 265.982,560.707C266.706,559.9 267.693,559.493 268.943,559.488C270.125,559.488 271.043,559.858 271.697,560.597C272.35,561.337 272.677,562.319 272.677,563.543C272.677,563.631 272.676,563.775 272.673,563.972C272.671,564.17 272.669,564.316 272.669,564.41L266.958,564.41C266.979,565.212 267.199,565.833 267.618,566.273C268.038,566.713 268.615,566.933 269.349,566.933C270.286,566.933 271.187,566.689 272.052,566.199L272.341,567.652C271.482,568.183 270.458,568.449 269.271,568.449ZM266.997,563.121L270.747,563.121C270.747,562.423 270.589,561.887 270.271,561.512C269.953,561.137 269.513,560.949 268.951,560.949C268.424,560.949 267.98,561.131 267.618,561.496C267.257,561.861 267.049,562.402 266.997,563.121Z" style="fill:rgb(162,162,162);fill-rule:nonzero;"/>
                <path d="M277.349,568.402C276.76,568.402 276.272,568.333 275.884,568.195C275.496,568.057 275.19,567.837 274.966,567.535C274.742,567.233 274.586,566.874 274.497,566.457C274.409,566.04 274.365,565.522 274.365,564.902L274.365,556.535L276.411,556.402L276.411,564.863C276.411,565.634 276.503,566.156 276.685,566.43C276.867,566.703 277.221,566.84 277.747,566.84C278.008,566.84 278.339,566.811 278.74,566.754L278.794,568.215C278.789,568.215 278.725,568.228 278.603,568.254C278.48,568.28 278.363,568.302 278.251,568.32C278.139,568.338 277.997,568.357 277.826,568.375C277.654,568.393 277.495,568.402 277.349,568.402Z" style="fill:rgb(162,162,162);fill-rule:nonzero;"/>
                <path d="M282.552,568.441C281.286,568.441 280.273,568.225 279.513,567.793L279.724,566.254C280.068,566.441 280.505,566.609 281.036,566.758C281.568,566.906 282.052,566.98 282.49,566.98C282.943,566.98 283.296,566.896 283.548,566.726C283.801,566.557 283.93,566.308 283.935,565.98C283.935,565.683 283.816,565.449 283.579,565.277C283.342,565.105 282.891,564.892 282.224,564.637C281.995,564.553 281.846,564.499 281.779,564.472C280.987,564.165 280.417,563.823 280.068,563.445C279.719,563.068 279.544,562.556 279.544,561.91C279.544,561.129 279.827,560.53 280.392,560.113C280.957,559.696 281.745,559.488 282.755,559.488C283.849,559.488 284.81,559.694 285.638,560.105L285.13,561.519C284.312,561.139 283.534,560.949 282.794,560.949C282.383,560.949 282.061,561.018 281.829,561.156C281.598,561.294 281.482,561.504 281.482,561.785C281.482,562.051 281.594,562.258 281.818,562.406C282.042,562.555 282.479,562.749 283.13,562.988C283.151,562.993 283.219,563.017 283.333,563.058C283.448,563.1 283.536,563.134 283.599,563.16C284.385,563.446 284.964,563.789 285.333,564.187C285.703,564.586 285.888,565.105 285.888,565.746C285.883,566.605 285.591,567.269 285.013,567.738C284.435,568.207 283.615,568.441 282.552,568.441Z" style="fill:rgb(162,162,162);fill-rule:nonzero;"/>
                <path d="M291.474,568.449C290.094,568.449 289.02,568.052 288.251,567.258C287.483,566.463 287.099,565.366 287.099,563.965C287.099,562.6 287.461,561.514 288.185,560.707C288.909,559.9 289.896,559.493 291.146,559.488C292.328,559.488 293.246,559.858 293.9,560.597C294.553,561.337 294.88,562.319 294.88,563.543C294.88,563.631 294.879,563.775 294.876,563.972C294.874,564.17 294.872,564.316 294.872,564.41L289.161,564.41C289.182,565.212 289.402,565.833 289.822,566.273C290.241,566.713 290.818,566.933 291.552,566.933C292.49,566.933 293.391,566.689 294.255,566.199L294.544,567.652C293.685,568.183 292.661,568.449 291.474,568.449ZM289.201,563.121L292.951,563.121C292.951,562.423 292.792,561.887 292.474,561.512C292.156,561.137 291.716,560.949 291.154,560.949C290.628,560.949 290.184,561.131 289.822,561.496C289.46,561.861 289.253,562.402 289.201,563.121Z" style="fill:rgb(162,162,162);fill-rule:nonzero;"/>
                <path d="M295.826,570.441C296.138,569.993 296.445,569.432 296.747,568.758C297.049,568.083 297.32,567.271 297.56,566.32C297.799,565.37 297.919,564.465 297.919,563.605C297.919,562.334 297.699,561.047 297.259,559.742C296.819,558.437 296.339,557.41 295.818,556.66L297.654,556.66C299.128,558.738 299.865,561.058 299.865,563.621C299.865,566.142 299.125,568.415 297.646,570.441L295.826,570.441Z" style="fill:rgb(162,162,162);fill-rule:nonzero;"/>
            </g>
        </g>
    </g>
</svg>
