<?xml version="1.0" encoding="UTF-8" standalone="no"?>
<!DOCTYPE svg PUBLIC "-//W3C//DTD SVG 1.1//EN" "http://www.w3.org/Graphics/SVG/1.1/DTD/svg11.dtd">
<svg width="100%" height="100%" viewBox="0 0 343 95" version="1.1" xmlns="http://www.w3.org/2000/svg" xmlns:xlink="http://www.w3.org/1999/xlink" xml:space="preserve" style="fill-rule:evenodd;clip-rule:evenodd;stroke-linecap:round;stroke-linejoin:round;stroke-miterlimit:1.5;">
    <g transform="matrix(1,0,0,1,-317.664,-143.633)">
        <g transform="matrix(1,0,0,1,14.8958,-12.7005)">
            <g transform="matrix(1,0,0,1,34.5,3.5)">
                <g transform="matrix(1,0,0,1.375,18,-50.7233)">
                    <rect x="351.333" y="148.405" width="142" height="68" style="fill:rgb(98,98,98);stroke:black;stroke-width:0.83px;"/>
                </g>
                <g transform="matrix(1,0,0,1,37.5,10)">
                    <text x="349.267px" y="187.486px" style="font-family:'Oxygen-Regular', 'Oxygen';font-size:15px;">Sound gener<tspan x="435.312px " y="187.486px ">a</tspan>tor</text>
                </g>
                <g transform="matrix(1.00472,0,0,1,16.3428,8.59771)">
                    <rect x="351.333" y="144.736" width="141.333" height="17.333"/>
                </g>
            </g>
            <g transform="matrix(0.788301,0,0,1,74.2003,12.7005)">
                <rect x="418.5" y="211.131" width="45" height="26" style="fill:rgb(219,102,70);stroke:black;stroke-width:1.06px;stroke-linecap:butt;"/>
            </g>
            <g transform="matrix(0.788301,0,0,1,109.674,12.7005)">
                <rect x="418.5" y="211.131" width="45" height="26" style="fill:rgb(206,162,49);stroke:black;stroke-width:1.06px;stroke-linecap:butt;"/>
            </g>
            <g transform="matrix(0.788301,0,0,1,144.753,12.7005)">
                <rect x="418.5" y="211.131" width="45" height="26" style="fill:rgb(126,96,176);stroke:black;stroke-width:1.06px;stroke-linecap:butt;"/>
            </g>
            <g transform="matrix(0.788301,0,0,1,180.227,12.7005)">
                <rect x="418.5" y="211.131" width="45" height="26" style="fill:rgb(60,106,105);stroke:black;stroke-width:1.06px;stroke-linecap:butt;"/>
            </g>
            <g transform="matrix(0.735632,0,0,1.44,83.4109,-250.374)">
                <path d="M372.25,318.861L372.25,310.111L391.281,310.111L391.281,301.986L415.75,314.486L391.281,326.986L391.281,318.861L372.25,318.861Z" style="fill:rgb(122,122,122);"/>
            </g>
            <g transform="matrix(0.523333,0,0,0.523333,626.064,202.36)">
                <g transform="matrix(1,0,0,1,-37.5,-37.5)">
                    <g id="g1">
                        <path id="polygon1" d="M39.389,13.769L22.235,28.606L6,28.606L6,47.699L21.989,47.699L39.389,62.75L39.389,13.769Z" style="fill:rgb(17,17,17);fill-rule:nonzero;stroke:rgb(17,17,17);stroke-width:5px;stroke-linecap:butt;stroke-miterlimit:4;"/>
                        <path id="path1" d="M48.239,25.085L48.384,25.1L48.527,25.124L48.669,25.157L48.809,25.197L48.946,25.246L49.08,25.302L49.21,25.366L49.337,25.438L49.459,25.517L49.577,25.603L49.689,25.695L49.795,25.794L49.896,25.899L49.991,26.01L50.078,26.125L50.159,26.246L50.257,26.402L50.36,26.569L50.461,26.735L50.56,26.903L50.658,27.071L50.755,27.241L50.851,27.411L50.944,27.582L51.037,27.754L51.128,27.927L51.218,28.102L51.306,28.276L51.393,28.452L51.479,28.629L51.562,28.806L51.645,28.984L51.726,29.163L51.805,29.342L51.883,29.524L51.96,29.705L52.035,29.887L52.108,30.071L52.18,30.255L52.25,30.44L52.319,30.625L52.386,30.811L52.452,30.998L52.516,31.186L52.579,31.375L52.639,31.564L52.699,31.754L52.757,31.945L52.812,32.136L52.867,32.328L52.92,32.521L52.971,32.715L53.02,32.91L53.068,33.104L53.114,33.3L53.158,33.495L53.201,33.692L53.242,33.89L53.281,34.088L53.318,34.287L53.354,34.486L53.388,34.686L53.42,34.887L53.451,35.088L53.479,35.289L53.506,35.492L53.531,35.695L53.554,35.898L53.576,36.101L53.596,36.307L53.613,36.511L53.629,36.716L53.644,36.923L53.656,37.129L53.666,37.335L53.675,37.543L53.681,37.751L53.686,37.959L53.689,38.168L53.69,38.377L53.689,38.583L53.686,38.788L53.682,38.993L53.675,39.198L53.667,39.403L53.657,39.606L53.645,39.809L53.631,40.012L53.616,40.214L53.598,40.416L53.579,40.618L53.558,40.818L53.535,41.018L53.511,41.218L53.485,41.417L53.457,41.616L53.427,41.814L53.396,42.012L53.363,42.209L53.328,42.406L53.292,42.601L53.254,42.796L53.214,42.991L53.172,43.185L53.129,43.379L53.084,43.571L53.038,43.764L52.99,43.955L52.94,44.145L52.889,44.336L52.836,44.525L52.781,44.714L52.725,44.903L52.667,45.09L52.608,45.276L52.547,45.463L52.485,45.648L52.421,45.833L52.356,46.016L52.289,46.199L52.22,46.381L52.151,46.563L52.079,46.744L52.006,46.924L51.932,47.104L51.856,47.282L51.779,47.459L51.7,47.637L51.619,47.813L51.538,47.988L51.455,48.162L51.37,48.336L51.285,48.508L51.197,48.681L51.108,48.852L51.018,49.022L50.927,49.191L50.832,49.364L50.645,49.694L50.45,50.025L50.261,50.334L50.181,50.456L50.095,50.573L50.002,50.685L49.903,50.791L49.797,50.891L49.686,50.985L49.57,51.072L49.449,51.153L49.323,51.226L49.193,51.292L49.06,51.35L48.924,51.4L48.784,51.442L48.643,51.476L48.5,51.502L48.356,51.52L48.21,51.529L48.065,51.529L47.92,51.521L47.775,51.505L47.632,51.48L47.49,51.447L47.351,51.406L47.214,51.357L47.08,51.3L46.95,51.235L46.824,51.163L46.702,51.083L46.585,50.997L46.473,50.904L46.367,50.805L46.267,50.699L46.173,50.588L46.086,50.472L46.005,50.351L45.932,50.225L45.866,50.095L45.808,49.962L45.758,49.826L45.716,49.686L45.682,49.545L45.656,49.402L45.638,49.258L45.629,49.112L45.629,48.967L45.637,48.822L45.653,48.677L45.678,48.534L45.711,48.392L45.752,48.253L45.801,48.116L45.858,47.982L45.923,47.852L45.995,47.726L46.163,47.452L46.316,47.192L46.467,46.926L46.537,46.799L46.608,46.666L46.679,46.532L46.748,46.399L46.816,46.265L46.884,46.129L46.95,45.994L47.014,45.857L47.078,45.72L47.141,45.583L47.202,45.445L47.263,45.306L47.322,45.167L47.38,45.027L47.437,44.887L47.492,44.746L47.547,44.605L47.6,44.462L47.652,44.32L47.703,44.176L47.753,44.033L47.802,43.888L47.849,43.744L47.895,43.599L47.94,43.452L47.983,43.307L48.026,43.16L48.067,43.012L48.107,42.865L48.146,42.716L48.183,42.567L48.219,42.418L48.254,42.268L48.287,42.118L48.32,41.967L48.35,41.816L48.38,41.664L48.409,41.511L48.436,41.359L48.461,41.206L48.486,41.053L48.509,40.899L48.53,40.745L48.551,40.59L48.57,40.434L48.587,40.278L48.604,40.122L48.618,39.965L48.632,39.809L48.644,39.651L48.655,39.494L48.664,39.335L48.672,39.176L48.678,39.017L48.683,38.858L48.687,38.698L48.689,38.537L48.69,38.377L48.689,38.213L48.687,38.051L48.683,37.888L48.678,37.726L48.671,37.564L48.663,37.402L48.654,37.242L48.643,37.082L48.63,36.921L48.616,36.762L48.601,36.603L48.584,36.444L48.566,36.285L48.547,36.128L48.526,35.971L48.504,35.814L48.48,35.657L48.455,35.502L48.428,35.346L48.401,35.191L48.372,35.037L48.341,34.883L48.309,34.729L48.276,34.577L48.242,34.423L48.206,34.271L48.169,34.119L48.13,33.969L48.091,33.818L48.05,33.669L48.007,33.519L47.964,33.37L47.919,33.222L47.873,33.074L47.826,32.927L47.777,32.78L47.727,32.634L47.676,32.489L47.623,32.343L47.57,32.198L47.515,32.055L47.459,31.911L47.402,31.769L47.343,31.626L47.284,31.485L47.223,31.344L47.161,31.203L47.098,31.064L47.034,30.925L46.968,30.786L46.901,30.648L46.833,30.511L46.764,30.374L46.694,30.239L46.623,30.104L46.551,29.969L46.477,29.834L46.403,29.701L46.327,29.569L46.25,29.437L46.172,29.306L46.093,29.175L46.013,29.046L45.927,28.908L45.853,28.782L45.786,28.653L45.728,28.52L45.677,28.384L45.634,28.245L45.599,28.104L45.573,27.961L45.554,27.816L45.545,27.671L45.543,27.526L45.551,27.381L45.566,27.236L45.59,27.093L45.623,26.951L45.663,26.811L45.712,26.674L45.768,26.54L45.832,26.41L45.904,26.283L45.983,26.161L46.069,26.043L46.161,25.931L46.26,25.825L46.365,25.724L46.476,25.629L46.591,25.542L46.712,25.461L46.838,25.387L46.967,25.32L47.1,25.262L47.236,25.211L47.375,25.168L47.516,25.133L47.659,25.107L47.804,25.089L47.949,25.079L48.094,25.078L48.239,25.085Z" style="fill:rgb(17,17,17);"/>
                        <path id="path2" d="M55.182,18.039L55.369,18.053L55.553,18.082L55.736,18.124L55.914,18.18L56.088,18.248L56.256,18.33L56.418,18.424L56.572,18.53L56.718,18.647L56.855,18.774L56.981,18.911L57.098,19.058L57.277,19.303L57.461,19.558L57.642,19.816L57.822,20.076L57.998,20.337L58.173,20.601L58.344,20.866L58.513,21.132L58.68,21.401L58.844,21.671L59.006,21.943L59.165,22.217L59.321,22.492L59.475,22.769L59.626,23.048L59.775,23.329L59.921,23.61L60.064,23.894L60.205,24.179L60.343,24.466L60.478,24.755L60.61,25.044L60.74,25.335L60.866,25.628L60.991,25.923L61.112,26.219L61.23,26.516L61.346,26.815L61.458,27.115L61.568,27.416L61.675,27.72L61.779,28.024L61.88,28.33L61.979,28.636L62.074,28.945L62.166,29.254L62.255,29.566L62.341,29.878L62.424,30.191L62.505,30.506L62.581,30.822L62.655,31.138L62.726,31.457L62.794,31.776L62.858,32.097L62.92,32.418L62.978,32.741L63.033,33.065L63.085,33.39L63.133,33.716L63.179,34.043L63.221,34.371L63.26,34.699L63.295,35.029L63.327,35.36L63.356,35.692L63.382,36.025L63.404,36.358L63.423,36.693L63.438,37.028L63.45,37.364L63.459,37.701L63.464,38.038L63.466,38.377L63.464,38.713L63.459,39.047L63.451,39.381L63.439,39.714L63.424,40.046L63.405,40.378L63.383,40.708L63.358,41.038L63.33,41.367L63.298,41.694L63.263,42.021L63.225,42.347L63.184,42.672L63.139,42.996L63.091,43.319L63.04,43.641L62.986,43.962L62.929,44.282L62.869,44.601L62.805,44.919L62.739,45.235L62.669,45.551L62.596,45.865L62.521,46.178L62.442,46.49L62.36,46.801L62.275,47.111L62.188,47.419L62.097,47.726L62.003,48.032L61.907,48.336L61.808,48.639L61.705,48.941L61.6,49.242L61.492,49.541L61.381,49.839L61.268,50.136L61.151,50.431L61.032,50.724L60.91,51.016L60.785,51.307L60.658,51.596L60.527,51.884L60.394,52.171L60.259,52.455L60.12,52.738L59.979,53.02L59.836,53.3L59.69,53.578L59.541,53.855L59.39,54.13L59.236,54.404L59.079,54.676L58.92,54.946L58.759,55.215L58.594,55.482L58.428,55.747L58.259,56.011L58.088,56.272L57.914,56.532L57.738,56.79L57.559,57.047L57.378,57.301L57.201,57.545L57.085,57.692L56.959,57.83L56.823,57.958L56.678,58.076L56.524,58.182L56.363,58.277L56.195,58.36L56.022,58.429L55.844,58.486L55.662,58.529L55.477,58.558L55.291,58.573L55.104,58.575L54.917,58.562L54.732,58.536L54.55,58.496L54.371,58.442L54.196,58.375L54.027,58.295L53.864,58.203L53.709,58.099L53.562,57.983L53.424,57.857L53.296,57.721L53.178,57.576L53.071,57.422L52.977,57.261L52.894,57.093L52.825,56.92L52.768,56.742L52.725,56.56L52.696,56.375L52.68,56.189L52.679,56.002L52.692,55.815L52.718,55.63L52.758,55.448L52.812,55.269L52.879,55.094L52.959,54.925L53.051,54.762L53.155,54.607L53.317,54.384L53.47,54.168L53.622,53.951L53.771,53.733L53.918,53.512L54.063,53.291L54.206,53.068L54.347,52.843L54.486,52.618L54.623,52.39L54.758,52.161L54.89,51.931L55.02,51.7L55.148,51.467L55.274,51.233L55.398,50.997L55.519,50.761L55.638,50.522L55.755,50.283L55.87,50.042L55.982,49.8L56.092,49.557L56.2,49.312L56.305,49.067L56.409,48.82L56.51,48.571L56.608,48.322L56.704,48.072L56.798,47.82L56.889,47.567L56.978,47.314L57.064,47.059L57.148,46.802L57.23,46.545L57.309,46.286L57.385,46.027L57.459,45.767L57.531,45.505L57.6,45.243L57.667,44.979L57.73,44.715L57.792,44.449L57.851,44.182L57.907,43.915L57.961,43.646L58.012,43.377L58.06,43.106L58.106,42.835L58.149,42.563L58.189,42.289L58.227,42.016L58.262,41.741L58.294,41.465L58.324,41.188L58.351,40.91L58.375,40.632L58.396,40.353L58.414,40.073L58.43,39.793L58.443,39.511L58.453,39.229L58.46,38.945L58.465,38.661L58.466,38.377L58.464,38.09L58.46,37.803L58.453,37.517L58.443,37.232L58.43,36.948L58.414,36.665L58.395,36.382L58.373,36.101L58.349,35.819L58.321,35.539L58.291,35.261L58.258,34.982L58.223,34.704L58.184,34.428L58.143,34.153L58.099,33.878L58.053,33.604L58.004,33.331L57.952,33.059L57.897,32.788L57.84,32.518L57.78,32.25L57.718,31.981L57.653,31.714L57.585,31.449L57.515,31.184L57.442,30.92L57.367,30.657L57.289,30.396L57.208,30.135L57.125,29.876L57.04,29.617L56.952,29.36L56.862,29.104L56.769,28.849L56.674,28.595L56.576,28.343L56.476,28.092L56.373,27.842L56.269,27.593L56.161,27.345L56.052,27.099L55.94,26.854L55.825,26.61L55.709,26.368L55.59,26.126L55.469,25.886L55.345,25.648L55.22,25.411L55.092,25.175L54.962,24.941L54.829,24.708L54.695,24.476L54.558,24.246L54.419,24.017L54.278,23.79L54.135,23.564L53.989,23.339L53.842,23.117L53.692,22.895L53.541,22.676L53.387,22.457L53.231,22.241L53.066,22.016L52.962,21.861L52.869,21.699L52.788,21.53L52.72,21.356L52.665,21.177L52.624,20.995L52.597,20.81L52.583,20.624L52.584,20.437L52.598,20.25L52.627,20.066L52.669,19.883L52.725,19.705L52.793,19.531L52.875,19.363L52.969,19.201L53.075,19.047L53.192,18.901L53.319,18.764L53.456,18.638L53.603,18.521L53.758,18.417L53.92,18.324L54.089,18.243L54.263,18.175L54.442,18.12L54.624,18.079L54.809,18.052L54.995,18.039L55.182,18.039Z" style="fill:rgb(17,17,17);"/>
                        <path id="path11" d="M61.902,11.527L62.118,11.562L62.329,11.616L62.535,11.688L62.734,11.777L62.924,11.884L63.104,12.007L63.273,12.145L63.43,12.297L63.572,12.462L63.828,12.787L64.089,13.124L64.346,13.464L64.6,13.807L64.85,14.153L65.097,14.501L65.34,14.852L65.58,15.205L65.816,15.561L66.049,15.92L66.279,16.281L66.504,16.644L66.726,17.011L66.945,17.379L67.159,17.75L67.37,18.123L67.578,18.499L67.781,18.877L67.981,19.258L68.177,19.64L68.369,20.026L68.557,20.413L68.741,20.803L68.922,21.194L69.098,21.588L69.271,21.984L69.439,22.383L69.604,22.783L69.764,23.185L69.92,23.59L70.073,23.996L70.221,24.405L70.365,24.816L70.505,25.228L70.64,25.642L70.772,26.059L70.899,26.477L71.022,26.897L71.14,27.319L71.254,27.742L71.364,28.168L71.47,28.595L71.571,29.024L71.667,29.454L71.76,29.887L71.847,30.321L71.93,30.756L72.009,31.193L72.083,31.631L72.152,32.072L72.217,32.513L72.277,32.956L72.333,33.401L72.384,33.847L72.43,34.294L72.471,34.743L72.508,35.193L72.539,35.644L72.566,36.097L72.589,36.551L72.606,37.006L72.618,37.462L72.626,37.92L72.628,38.378L72.626,38.833L72.618,39.288L72.606,39.741L72.589,40.193L72.567,40.644L72.541,41.093L72.509,41.541L72.473,41.989L72.432,42.434L72.387,42.878L72.337,43.321L72.282,43.763L72.222,44.203L72.158,44.642L72.09,45.079L72.017,45.515L71.939,45.949L71.857,46.382L71.77,46.813L71.679,47.243L71.584,47.671L71.484,48.097L71.38,48.522L71.272,48.944L71.159,49.365L71.042,49.785L70.92,50.202L70.795,50.618L70.665,51.032L70.531,51.444L70.393,51.854L70.251,52.262L70.104,52.668L69.954,53.073L69.799,53.475L69.641,53.875L69.478,54.273L69.312,54.67L69.141,55.064L68.967,55.456L68.789,55.845L68.607,56.233L68.421,56.618L68.231,57.002L68.037,57.382L67.84,57.761L67.639,58.138L67.434,58.512L67.225,58.883L67.013,59.253L66.797,59.619L66.578,59.984L66.355,60.346L66.128,60.706L65.898,61.063L65.664,61.417L65.427,61.77L65.187,62.119L64.943,62.466L64.695,62.81L64.444,63.152L64.19,63.491L63.933,63.827L63.679,64.151L63.538,64.317L63.382,64.47L63.214,64.608L63.034,64.732L62.844,64.839L62.645,64.929L62.44,65.002L62.229,65.057L62.013,65.093L61.796,65.11L61.578,65.108L61.361,65.087L61.146,65.047L60.936,64.988L60.732,64.912L60.535,64.818L60.347,64.707L60.17,64.58L60.004,64.439L59.851,64.283L59.713,64.115L59.589,63.935L59.482,63.745L59.392,63.546L59.319,63.341L59.264,63.13L59.228,62.915L59.211,62.697L59.213,62.479L59.234,62.262L59.274,62.047L59.333,61.837L59.409,61.633L59.503,61.436L59.614,61.248L59.741,61.071L59.978,60.767L60.205,60.471L60.429,60.172L60.65,59.872L60.868,59.568L61.083,59.263L61.295,58.955L61.503,58.645L61.709,58.333L61.912,58.019L62.111,57.702L62.307,57.383L62.501,57.063L62.691,56.74L62.877,56.415L63.061,56.087L63.241,55.758L63.418,55.427L63.591,55.094L63.762,54.759L63.929,54.422L64.092,54.083L64.252,53.742L64.409,53.399L64.563,53.055L64.712,52.708L64.859,52.36L65.002,52.01L65.141,51.658L65.277,51.304L65.409,50.949L65.538,50.592L65.663,50.233L65.784,49.873L65.902,49.511L66.016,49.147L66.126,48.782L66.233,48.415L66.336,48.046L66.435,47.676L66.53,47.304L66.622,46.931L66.71,46.557L66.794,46.18L66.874,45.803L66.95,45.424L67.022,45.044L67.09,44.662L67.154,44.279L67.215,43.894L67.271,43.508L67.323,43.121L67.371,42.732L67.416,42.343L67.456,41.951L67.492,41.559L67.523,41.166L67.551,40.771L67.574,40.375L67.594,39.978L67.609,39.579L67.619,39.18L67.626,38.78L67.628,38.378L67.626,37.973L67.619,37.57L67.608,37.168L67.593,36.767L67.574,36.367L67.55,35.968L67.522,35.571L67.49,35.175L67.453,34.78L67.413,34.386L67.368,33.994L67.319,33.603L67.266,33.213L67.209,32.824L67.148,32.437L67.083,32.052L67.014,31.667L66.941,31.284L66.864,30.903L66.783,30.523L66.698,30.144L66.609,29.768L66.516,29.392L66.42,29.018L66.319,28.646L66.215,28.275L66.107,27.906L65.996,27.538L65.88,27.172L65.761,26.808L65.638,26.446L65.511,26.085L65.381,25.726L65.247,25.368L65.11,25.013L64.969,24.659L64.824,24.307L64.676,23.957L64.524,23.608L64.369,23.262L64.211,22.917L64.048,22.575L63.883,22.234L63.714,21.895L63.542,21.559L63.366,21.224L63.187,20.891L63.005,20.561L62.819,20.232L62.63,19.906L62.438,19.581L62.242,19.259L62.044,18.939L61.842,18.621L61.637,18.306L61.429,17.992L61.218,17.681L61.003,17.372L60.786,17.066L60.565,16.761L60.342,16.459L60.116,16.16L59.886,15.863L59.646,15.558L59.519,15.381L59.407,15.194L59.312,14.997L59.235,14.793L59.176,14.583L59.135,14.369L59.113,14.152L59.11,13.934L59.126,13.717L59.161,13.501L59.215,13.29L59.287,13.084L59.376,12.885L59.483,12.695L59.606,12.515L59.744,12.346L59.896,12.189L60.061,12.047L60.238,11.92L60.425,11.808L60.622,11.713L60.826,11.636L61.036,11.577L61.25,11.536L61.467,11.514L61.685,11.511L61.902,11.527Z" style="fill:rgb(17,17,17);"/>
                    </g>
                </g>
            </g>
            <g transform="matrix(0.213333,0,0,0.213333,527.939,236.735)">
                <g transform="matrix(1,0,0,1,-37.5,-37.5)">
                    <clipPath id="_clip1">
                        <rect x="0" y="0" width="75" height="75"/>
                    </clipPath>
                    <g clip-path="url(#_clip1)">
                        <g id="g11">
                            <path id="polygon11" d="M39.389,13.769L22.235,28.606L6,28.606L6,47.699L21.989,47.699L39.389,62.75L39.389,13.769Z" style="fill:rgb(17,17,17);fill-rule:nonzero;stroke:rgb(17,17,17);stroke-width:5px;stroke-linecap:butt;stroke-miterlimit:4;"/>
                            <path id="path12" d="M48.128,49.03C50.057,45.934 51.19,42.291 51.19,38.377C51.19,34.399 50.026,30.703 48.043,27.577" style="fill:none;stroke:rgb(17,17,17);stroke-width:5px;stroke-linejoin:miter;stroke-miterlimit:4;"/>
                            <path id="path21" d="M55.082,20.537C58.777,25.523 60.966,31.694 60.966,38.377C60.966,44.998 58.815,51.115 55.178,56.076" style="fill:none;stroke:rgb(17,17,17);stroke-width:5px;stroke-linejoin:miter;stroke-miterlimit:4;"/>
                            <path id="path13" d="M61.71,62.611C66.977,55.945 70.128,47.531 70.128,38.378C70.128,29.161 66.936,20.696 61.609,14.01" style="fill:none;stroke:rgb(17,17,17);stroke-width:5px;stroke-linejoin:miter;stroke-miterlimit:4;"/>
                        </g>
                    </g>
                </g>
            </g>
            <g transform="matrix(0.00427385,0,0,-0.00427385,302.341,203.005)">
                <g>
                    <g>
                        <path d="M4561,4807.5C3633.8,4725.1 2741,4370.7 1972.8,3778.7C1599.2,3491.3 1116.5,2953 834.8,2510.5C714.1,2322.8 480.4,1841.9 392.3,1602.4C168.2,997.1 64.7,255.7 110.7,-388C135.6,-752 172,-968.5 258.2,-1313.3C346.3,-1654.3 432.5,-1886.1 612.6,-2250.1C865.5,-2763.5 1145.2,-3154.3 1553.2,-3556.7C2095.4,-4091.2 2660.5,-4443.7 3409.6,-4711.9L3616.5,-4786.6L3689.3,-4648.7C3865.5,-4307.7 4156.7,-3972.4 4392.4,-3832.6C4610.8,-3704.3 4733.4,-3669.8 4990.1,-3669.8C5246.8,-3669.8 5369.4,-3704.3 5587.8,-3832.6C5823.4,-3972.5 6135.7,-4338.4 6300.5,-4667.9C6367.6,-4803.9 6333,-4802 6666.4,-4685.1C6951.9,-4583.6 7442.3,-4338.4 7700.9,-4165.9C8260.3,-3794.2 8741.2,-3309.5 9105.1,-2757.8C9258.4,-2524.1 9507.4,-2026 9607,-1754C9829.2,-1146.7 9936.5,-395.7 9888.6,244.1C9798.6,1495.1 9281.3,2598.6 8382.8,3462.6C7365.7,4441.6 5969.1,4932.1 4561,4807.5ZM5580.2,4395.7C6568.7,4278.8 7503.6,3807.6 8229.7,3064.2C8936.6,2336.2 9361.9,1445.4 9482.6,431.9C9515.2,171.4 9509.4,-372.7 9473,-660.1C9270,-2230.9 8243.1,-3591.1 6787.1,-4215.7C6572.5,-4307.7 6561,-4311.5 6536.1,-4277C6197,-3790.4 5971,-3579.7 5605,-3409.2C5373.2,-3300 5197,-3267.4 4915.3,-3280.8C4750.5,-3286.5 4647.1,-3301.9 4559,-3332.5C4152.9,-3466.6 3804.2,-3744.4 3532.1,-4150.5L3426.7,-4305.7L3279.2,-4246.3C2913.3,-4096.9 2511,-3861.2 2177.6,-3594.9C1279.3,-2880.4 677.8,-1811.4 526.4,-660C490,-389.9 484.3,179.1 514.9,432C614.5,1244.3 905.7,1978 1386.6,2621.7C1576.3,2876.5 2036,3340.1 2279.3,3522.1C2664.4,3809.5 3072.4,4027.9 3492,4175.4C4189.4,4418.6 4821.6,4485.7 5580.2,4395.7Z" style="fill:rgb(122,122,122);fill-rule:nonzero;"/>
                        <path d="M4712.4,3771.1C4428.9,3671.5 4223.9,3445.4 4147.3,3148.5C3992,2554.6 4520.8,1974.1 5130,2069.9C5886.7,2188.7 6141.5,3142.7 5545.7,3627.4C5384.8,3755.8 5262.2,3797.9 5028.4,3807.5C4865.6,3813.3 4817.7,3807.5 4712.4,3771.1ZM5222,3376.5C5312,3330.5 5415.5,3221.3 5450,3135.1C5532.4,2935.9 5492.1,2746.2 5338.9,2596.8C5199,2460.8 5030.5,2418.6 4842.7,2476.1C4756.5,2501 4609,2623.6 4568.7,2702.2C4428.9,2972.3 4555.3,3298 4838.8,3403.4C4938.4,3439.7 5122.3,3428.2 5222,3376.5Z" style="fill:rgb(122,122,122);fill-rule:nonzero;"/>
                        <path d="M2652.9,2918.6C2329.1,2803.6 2126.1,2569.9 2057.1,2236.6C1972.8,1838.1 2210.4,1407.1 2591.6,1261.5C2833,1169.5 3074.4,1181.1 3308.1,1296C3486.3,1382.2 3618.5,1516.3 3710.4,1702.1C3773.6,1828.5 3783.2,1864.9 3788.9,2022C3806.2,2407.1 3620.3,2719.3 3281.2,2880.3C3164.3,2934 3129.9,2941.6 2949.8,2945.4C2794.7,2951.2 2727.6,2943.5 2652.9,2918.6ZM3130,2520.1C3432.7,2374.5 3501.7,1970.3 3266,1732.7C3089.7,1558.4 2794.7,1546.9 2601.2,1705.9C2562.9,1738.5 2509.2,1807.4 2482.4,1863C2354,2119.7 2478.6,2439.6 2748.7,2539.3C2848.3,2575.7 3034.2,2566.1 3130,2520.1Z" style="fill:rgb(122,122,122);fill-rule:nonzero;"/>
                        <path d="M6810.1,2918.6C6662.6,2865 6551.5,2792.2 6442.3,2679.1C6266,2491.4 6197.1,2299.8 6210.5,2022C6216.2,1864.9 6225.8,1828.5 6289,1700.2C6446.1,1382.2 6727.7,1204 7078.3,1202.1C7568.7,1198.3 7959.5,1589.1 7955.7,2079.5C7953.8,2432 7775.6,2711.7 7455.7,2868.8C7319.7,2937.8 7298.6,2941.6 7108.9,2947.3C6951.9,2951.2 6884.9,2943.5 6810.1,2918.6ZM7243.1,2539.3C7672.2,2391.8 7672.2,1767.2 7243.1,1619.7C6921.3,1510.5 6589.8,1742.3 6589.8,2079.5C6589.8,2412.8 6923.2,2648.5 7243.1,2539.3Z" style="fill:rgb(122,122,122);fill-rule:nonzero;"/>
                        <path d="M1877.1,861.1C1735.3,834.3 1549.5,730.8 1434.6,615.9C1105.1,286.4 1093.6,-255.8 1407.8,-591C1810.1,-1022 2480.6,-964.6 2798.6,-474.1C2898.2,-318.9 2938.4,-158 2926.9,52.7C2921.2,200.2 2909.7,244.3 2848.4,372.6C2672.1,742.3 2281.3,939.6 1877.1,861.1ZM2269.8,433.9C2430.7,359.2 2526.5,221.2 2541.8,35.4C2561,-158.1 2451.8,-349.6 2271.7,-445.4C2162.5,-502.9 1955.6,-502.9 1846.4,-445.4C1478.6,-250 1478.6,255.8 1848.3,439.7C1959.4,495.2 2145.3,493.3 2269.8,433.9Z" style="fill:rgb(122,122,122);fill-rule:nonzero;"/>
                        <path d="M7735.4,851.5C7061.1,688.7 6835,-177.2 7344.6,-646.6C7637.7,-916.7 8078.3,-958.9 8407.9,-748.2C8884.9,-441.7 8959.6,219.3 8565,615.8C8342.7,838.1 8034.3,924.3 7735.4,851.5ZM8128.2,451.1C8358.1,355.3 8480.7,89 8406,-156.2C8377.3,-252 8256.6,-389.9 8153.1,-445.5C8043.9,-503 7837,-503 7727.8,-445.5C7363.8,-253.9 7363.8,265.2 7729.7,433.8C7842.7,487.5 8022.8,495.2 8128.2,451.1Z" style="fill:rgb(122,122,122);fill-rule:nonzero;"/>
                    </g>
                </g>
            </g>
            <g transform="matrix(0.00175347,0,0,-0.00175347,412.943,237.455)">
                <g>
                    <g>
                        <path d="M4561,4807.5C3633.8,4725.1 2741,4370.7 1972.8,3778.7C1599.2,3491.3 1116.5,2953 834.8,2510.5C714.1,2322.8 480.4,1841.9 392.3,1602.4C168.2,997.1 64.7,255.7 110.7,-388C135.6,-752 172,-968.5 258.2,-1313.3C346.3,-1654.3 432.5,-1886.1 612.6,-2250.1C865.5,-2763.5 1145.2,-3154.3 1553.2,-3556.7C2095.4,-4091.2 2660.5,-4443.7 3409.6,-4711.9L3616.5,-4786.6L3689.3,-4648.7C3865.5,-4307.7 4156.7,-3972.4 4392.4,-3832.6C4610.8,-3704.3 4733.4,-3669.8 4990.1,-3669.8C5246.8,-3669.8 5369.4,-3704.3 5587.8,-3832.6C5823.4,-3972.5 6135.7,-4338.4 6300.5,-4667.9C6367.6,-4803.9 6333,-4802 6666.4,-4685.1C6951.9,-4583.6 7442.3,-4338.4 7700.9,-4165.9C8260.3,-3794.2 8741.2,-3309.5 9105.1,-2757.8C9258.4,-2524.1 9507.4,-2026 9607,-1754C9829.2,-1146.7 9936.5,-395.7 9888.6,244.1C9798.6,1495.1 9281.3,2598.6 8382.8,3462.6C7365.7,4441.6 5969.1,4932.1 4561,4807.5ZM5580.2,4395.7C6568.7,4278.8 7503.6,3807.6 8229.7,3064.2C8936.6,2336.2 9361.9,1445.4 9482.6,431.9C9515.2,171.4 9509.4,-372.7 9473,-660.1C9270,-2230.9 8243.1,-3591.1 6787.1,-4215.7C6572.5,-4307.7 6561,-4311.5 6536.1,-4277C6197,-3790.4 5971,-3579.7 5605,-3409.2C5373.2,-3300 5197,-3267.4 4915.3,-3280.8C4750.5,-3286.5 4647.1,-3301.9 4559,-3332.5C4152.9,-3466.6 3804.2,-3744.4 3532.1,-4150.5L3426.7,-4305.7L3279.2,-4246.3C2913.3,-4096.9 2511,-3861.2 2177.6,-3594.9C1279.3,-2880.4 677.8,-1811.4 526.4,-660C490,-389.9 484.3,179.1 514.9,432C614.5,1244.3 905.7,1978 1386.6,2621.7C1576.3,2876.5 2036,3340.1 2279.3,3522.1C2664.4,3809.5 3072.4,4027.9 3492,4175.4C4189.4,4418.6 4821.6,4485.7 5580.2,4395.7Z" style="fill-rule:nonzero;"/>
                        <path d="M4712.4,3771.1C4428.9,3671.5 4223.9,3445.4 4147.3,3148.5C3992,2554.6 4520.8,1974.1 5130,2069.9C5886.7,2188.7 6141.5,3142.7 5545.7,3627.4C5384.8,3755.8 5262.2,3797.9 5028.4,3807.5C4865.6,3813.3 4817.7,3807.5 4712.4,3771.1ZM5222,3376.5C5312,3330.5 5415.5,3221.3 5450,3135.1C5532.4,2935.9 5492.1,2746.2 5338.9,2596.8C5199,2460.8 5030.5,2418.6 4842.7,2476.1C4756.5,2501 4609,2623.6 4568.7,2702.2C4428.9,2972.3 4555.3,3298 4838.8,3403.4C4938.4,3439.7 5122.3,3428.2 5222,3376.5Z" style="fill-rule:nonzero;"/>
                        <path d="M2652.9,2918.6C2329.1,2803.6 2126.1,2569.9 2057.1,2236.6C1972.8,1838.1 2210.4,1407.1 2591.6,1261.5C2833,1169.5 3074.4,1181.1 3308.1,1296C3486.3,1382.2 3618.5,1516.3 3710.4,1702.1C3773.6,1828.5 3783.2,1864.9 3788.9,2022C3806.2,2407.1 3620.3,2719.3 3281.2,2880.3C3164.3,2934 3129.9,2941.6 2949.8,2945.4C2794.7,2951.2 2727.6,2943.5 2652.9,2918.6ZM3130,2520.1C3432.7,2374.5 3501.7,1970.3 3266,1732.7C3089.7,1558.4 2794.7,1546.9 2601.2,1705.9C2562.9,1738.5 2509.2,1807.4 2482.4,1863C2354,2119.7 2478.6,2439.6 2748.7,2539.3C2848.3,2575.7 3034.2,2566.1 3130,2520.1Z" style="fill-rule:nonzero;"/>
                        <path d="M6810.1,2918.6C6662.6,2865 6551.5,2792.2 6442.3,2679.1C6266,2491.4 6197.1,2299.8 6210.5,2022C6216.2,1864.9 6225.8,1828.5 6289,1700.2C6446.1,1382.2 6727.7,1204 7078.3,1202.1C7568.7,1198.3 7959.5,1589.1 7955.7,2079.5C7953.8,2432 7775.6,2711.7 7455.7,2868.8C7319.7,2937.8 7298.6,2941.6 7108.9,2947.3C6951.9,2951.2 6884.9,2943.5 6810.1,2918.6ZM7243.1,2539.3C7672.2,2391.8 7672.2,1767.2 7243.1,1619.7C6921.3,1510.5 6589.8,1742.3 6589.8,2079.5C6589.8,2412.8 6923.2,2648.5 7243.1,2539.3Z" style="fill-rule:nonzero;"/>
                        <path d="M1877.1,861.1C1735.3,834.3 1549.5,730.8 1434.6,615.9C1105.1,286.4 1093.6,-255.8 1407.8,-591C1810.1,-1022 2480.6,-964.6 2798.6,-474.1C2898.2,-318.9 2938.4,-158 2926.9,52.7C2921.2,200.2 2909.7,244.3 2848.4,372.6C2672.1,742.3 2281.3,939.6 1877.1,861.1ZM2269.8,433.9C2430.7,359.2 2526.5,221.2 2541.8,35.4C2561,-158.1 2451.8,-349.6 2271.7,-445.4C2162.5,-502.9 1955.6,-502.9 1846.4,-445.4C1478.6,-250 1478.6,255.8 1848.3,439.7C1959.4,495.2 2145.3,493.3 2269.8,433.9Z" style="fill-rule:nonzero;"/>
                        <path d="M7735.4,851.5C7061.1,688.7 6835,-177.2 7344.6,-646.6C7637.7,-916.7 8078.3,-958.9 8407.9,-748.2C8884.9,-441.7 8959.6,219.3 8565,615.8C8342.7,838.1 8034.3,924.3 7735.4,851.5ZM8128.2,451.1C8358.1,355.3 8480.7,89 8406,-156.2C8377.3,-252 8256.6,-389.9 8153.1,-445.5C8043.9,-503 7837,-503 7727.8,-445.5C7363.8,-253.9 7363.8,265.2 7729.7,433.8C7842.7,487.5 8022.8,495.2 8128.2,451.1Z" style="fill-rule:nonzero;"/>
                    </g>
                </g>
            </g>
            <g transform="matrix(0.735632,0,0,1.44,288.411,-250.374)">
                <path d="M372.25,318.861L372.25,310.111L391.281,310.111L391.281,301.986L415.75,314.486L391.281,326.986L391.281,318.861L372.25,318.861Z" style="fill:rgb(122,122,122);"/>
            </g>
            <g transform="matrix(0.359492,0,0,0.398148,204.509,16.6682)">
                <path d="M679,559.547L683,532.547L689,542.047L708.5,542.547C708.5,542.547 713,557.547 735,557.547" style="fill:none;stroke:black;stroke-width:2.64px;stroke-linecap:butt;"/>
            </g>
            <g transform="matrix(0.359492,0,0,0.398148,239.377,16.6682)">
                <path d="M679,559.547L683,532.547L689,542.047L708.5,542.547C708.5,542.547 713,557.547 735,557.547" style="fill:none;stroke:black;stroke-width:2.64px;stroke-linecap:butt;"/>
            </g>
            <g transform="matrix(1,0,0,1,49.6042,9.20052)">
                <text x="391.5px" y="202.75px" style="font-family:'SourceCodePro-Bold', 'Source Code Pro', monospace;font-weight:700;font-size:6px;fill:rgb(164,164,164);">hise::ModulatorSynth</text>
            </g>
            <g transform="matrix(1.25986,0,0,1.25986,-125.907,-33.1345)">
                <text x="456.05px" y="222.204px" style="font-family:'Oxygen-Bold', 'Oxygen';font-weight:700;font-size:6px;">Gain</text>
            </g>
            <g transform="matrix(1.25986,0,0,1.25986,-89.6569,-32.8845)">
                <text x="455.409px" y="222.204px" style="font-family:'Oxygen-Bold', 'Oxygen';font-weight:700;font-size:6px;">Pitch</text>
            </g>
        </g>
    </g>
</svg>
