<?xml version="1.0" encoding="UTF-8" standalone="no"?>
<!DOCTYPE svg PUBLIC "-//W3C//DTD SVG 1.1//EN" "http://www.w3.org/Graphics/SVG/1.1/DTD/svg11.dtd">
<svg width="100%" height="100%" viewBox="0 0 67 67" version="1.1" xmlns="http://www.w3.org/2000/svg" xmlns:xlink="http://www.w3.org/1999/xlink" xml:space="preserve" style="fill-rule:evenodd;clip-rule:evenodd;stroke-linejoin:round;stroke-miterlimit:1.41421;">
    <g transform="matrix(1,0,0,1,-350.657,-228.511)">
        <g transform="matrix(1,0,0,1,2.49687,-19.3531)">
            <g transform="matrix(1,0,0,0.702489,22.9907,130.301)">
                <rect x="337.763" y="243.337" width="41.171" height="18.915" style="fill:rgb(219,102,70);"/>
                <g transform="matrix(0.347429,0,0,0.494569,237.708,133.803)">
                    <path d="M306.417,252.767C307.233,252.767 308.145,252.491 308.865,251.891L308.157,250.775C307.725,251.075 307.209,251.339 306.585,251.339C305.601,251.339 304.917,250.679 304.917,249.647C304.917,248.615 305.625,247.955 306.645,247.955C307.089,247.955 307.509,248.099 307.965,248.423L308.781,247.331C308.277,246.863 307.485,246.527 306.549,246.527C304.713,246.527 303.105,247.667 303.105,249.647C303.105,251.627 304.545,252.767 306.417,252.767Z" style="fill:rgb(41,39,39);fill-rule:nonzero;"/>
                    <path d="M313.101,252.767C313.929,252.767 314.493,252.155 314.493,251.363C314.493,250.571 313.929,249.947 313.101,249.947C312.273,249.947 311.709,250.571 311.709,251.363C311.709,252.155 312.273,252.767 313.101,252.767Z" style="fill:rgb(41,39,39);fill-rule:nonzero;"/>
                    <path d="M319.773,252.767C320.373,252.767 320.985,252.443 321.429,252.011L321.465,252.011L321.597,252.623L323.037,252.623L323.037,244.211L321.273,244.211L321.273,246.239L321.357,247.163L321.309,247.163C320.913,246.755 320.469,246.527 319.809,246.527C318.513,246.527 317.265,247.703 317.265,249.647C317.265,251.591 318.261,252.767 319.773,252.767ZM320.229,251.327C319.497,251.327 319.077,250.799 319.077,249.623C319.077,248.495 319.629,247.967 320.277,247.967C320.625,247.967 320.949,248.075 321.273,248.363L321.273,250.775C320.961,251.171 320.625,251.327 320.229,251.327Z" style="fill:rgb(41,39,39);fill-rule:nonzero;"/>
                    <path d="M327.501,252.767C329.073,252.767 330.537,251.627 330.537,249.647C330.537,247.667 329.073,246.527 327.501,246.527C325.929,246.527 324.465,247.667 324.465,249.647C324.465,251.627 325.929,252.767 327.501,252.767ZM327.501,251.339C326.685,251.339 326.277,250.679 326.277,249.647C326.277,248.615 326.685,247.955 327.501,247.955C328.317,247.955 328.725,248.615 328.725,249.647C328.725,250.679 328.317,251.339 327.501,251.339Z" style="fill:rgb(41,39,39);fill-rule:nonzero;"/>
                    <path d="M334.677,252.767C336.621,252.767 337.713,251.639 337.713,250.343C337.713,249.239 337.065,248.603 336.033,248.219L335.085,247.811C334.329,247.535 333.801,247.355 333.801,246.887C333.801,246.431 334.197,246.179 334.785,246.179C335.553,246.179 336.045,246.407 336.585,246.803L337.485,245.687C336.777,245.015 335.829,244.655 334.881,244.655C333.189,244.655 332.013,245.687 332.013,246.983C332.013,248.123 332.805,248.795 333.681,249.119L334.689,249.551C335.433,249.863 335.901,250.007 335.901,250.559C335.901,250.955 335.553,251.243 334.797,251.243C334.041,251.243 333.309,250.907 332.721,250.427L331.701,251.639C332.541,252.383 333.621,252.767 334.677,252.767Z" style="fill:rgb(41,39,39);fill-rule:nonzero;"/>
                    <path d="M342.957,252.767C343.749,252.767 344.373,252.599 344.901,252.443L344.589,251.171C344.229,251.291 343.857,251.387 343.413,251.387C342.537,251.387 342.153,251.039 342.153,250.139L342.153,248.051L344.673,248.051L344.673,246.671L342.153,246.671L342.153,244.847L340.701,244.847L340.473,246.671L338.889,246.743L338.889,248.051L340.389,248.051L340.389,250.151C340.389,251.711 341.061,252.767 342.957,252.767Z" style="fill:rgb(41,39,39);fill-rule:nonzero;"/>
                    <path d="M348.177,252.767C349.029,252.767 349.653,252.371 350.181,251.771L350.229,251.771L350.361,252.623L351.801,252.623L351.801,246.671L350.037,246.671L350.037,250.583C349.629,251.111 349.317,251.267 348.873,251.267C348.213,251.267 348.009,250.907 348.009,250.115L348.009,246.671L346.245,246.671L346.245,250.343C346.245,251.843 346.821,252.767 348.177,252.767Z" style="fill:rgb(41,39,39);fill-rule:nonzero;"/>
                    <path d="M355.257,252.623L357.021,252.623L357.021,248.051L359.073,248.051L359.073,246.671L357.021,246.671L357.021,246.503C357.021,245.783 357.381,245.459 358.137,245.459C358.593,245.459 359.013,245.543 359.385,245.687L359.721,244.391C359.217,244.223 358.605,244.067 357.921,244.067C356.061,244.067 355.257,245.147 355.257,246.515L355.257,246.671L353.685,246.743L353.685,248.051L355.257,248.051L355.257,252.623Z" style="fill:rgb(41,39,39);fill-rule:nonzero;"/>
                    <path d="M362.457,252.623L364.221,252.623L364.221,248.051L366.273,248.051L366.273,246.671L364.221,246.671L364.221,246.503C364.221,245.783 364.581,245.459 365.337,245.459C365.793,245.459 366.213,245.543 366.585,245.687L366.921,244.391C366.417,244.223 365.805,244.067 365.121,244.067C363.261,244.067 362.457,245.147 362.457,246.515L362.457,246.671L360.885,246.743L360.885,248.051L362.457,248.051L362.457,252.623Z" style="fill:rgb(41,39,39);fill-rule:nonzero;"/>
                    <path d="M371.805,254.771L372.789,253.991C371.361,252.599 370.749,251.183 370.749,249.287C370.749,247.391 371.361,245.975 372.789,244.583L371.805,243.803C370.245,245.183 369.273,247.031 369.273,249.287C369.273,251.543 370.245,253.391 371.805,254.771Z" style="fill:rgb(41,39,39);fill-rule:nonzero;"/>
                    <path d="M376.797,254.771C378.357,253.391 379.329,251.543 379.329,249.287C379.329,247.031 378.357,245.183 376.797,243.803L375.813,244.583C377.241,245.975 377.853,247.391 377.853,249.287C377.853,251.183 377.241,252.599 375.813,253.991L376.797,254.771Z" style="fill:rgb(41,39,39);fill-rule:nonzero;"/>
                    <path d="M385.101,248.891C385.929,248.891 386.493,248.279 386.493,247.487C386.493,246.695 385.929,246.071 385.101,246.071C384.273,246.071 383.709,246.695 383.709,247.487C383.709,248.279 384.273,248.891 385.101,248.891ZM384.129,255.227C385.785,254.723 386.649,253.631 386.649,252.107C386.649,250.811 386.145,250.043 385.161,250.043C384.417,250.043 383.817,250.535 383.817,251.279C383.817,252.071 384.441,252.503 385.113,252.503C385.161,252.503 385.197,252.503 385.245,252.491C385.269,253.223 384.753,253.823 383.685,254.195L384.129,255.227Z" style="fill:rgb(41,39,39);fill-rule:nonzero;"/>
                </g>
                <g transform="matrix(0.347429,0,0,0.494569,237.708,126.716)">
                    <path d="M317.516,254.504L317.452,253.256C317.639,253.287 317.844,253.302 318.067,253.302C318.501,253.302 318.794,253.191 318.946,252.968C319.098,252.746 319.175,252.379 319.175,251.867L319.175,244.015L320.768,244.015L320.768,251.761C320.768,252.254 320.724,252.669 320.636,253.006C320.549,253.344 320.4,253.631 320.191,253.868C319.982,254.104 319.705,254.277 319.359,254.386C319.013,254.496 318.585,254.55 318.073,254.55C317.858,254.55 317.673,254.535 317.516,254.504Z" style="fill:rgb(39,39,39);fill-rule:nonzero;"/>
                    <path d="M324.132,252.746C323.534,252.746 323.051,252.581 322.681,252.251C322.312,251.921 322.128,251.445 322.128,250.824C322.128,250.156 322.346,249.661 322.784,249.339C323.221,249.016 323.882,248.812 324.764,248.726C324.885,248.711 325.016,248.695 325.157,248.679C325.298,248.664 325.456,248.648 325.632,248.632C325.807,248.617 325.946,248.603 326.048,248.591L326.048,248.252C326.048,247.861 325.958,247.577 325.778,247.399C325.598,247.221 325.325,247.132 324.958,247.132C324.434,247.132 323.788,247.279 323.018,247.572C323.014,247.56 322.95,247.382 322.825,247.039C322.7,246.695 322.635,246.519 322.632,246.511C323.389,246.187 324.21,246.025 325.092,246.025C325.96,246.025 326.591,246.214 326.985,246.59C327.38,246.967 327.577,247.578 327.577,248.422L327.577,252.623L326.44,252.623C326.436,252.607 326.393,252.476 326.311,252.23C326.229,251.984 326.188,251.853 326.188,251.838C325.868,252.15 325.554,252.38 325.248,252.526C324.941,252.673 324.569,252.746 324.132,252.746ZM324.548,251.656C324.903,251.656 325.213,251.571 325.476,251.401C325.74,251.231 325.928,251.025 326.042,250.783L326.042,249.541C326.03,249.541 325.927,249.548 325.734,249.564C325.541,249.58 325.436,249.588 325.421,249.588C324.8,249.642 324.344,249.759 324.055,249.939C323.766,250.119 323.622,250.408 323.622,250.806C323.622,251.08 323.702,251.29 323.862,251.436C324.022,251.583 324.251,251.656 324.548,251.656Z" style="fill:rgb(39,39,39);fill-rule:nonzero;"/>
                    <path d="M330.864,252.623L328.298,246.183L329.926,246.183C329.989,246.359 330.187,246.905 330.521,247.821C330.855,248.737 331.077,249.361 331.186,249.693C331.409,250.341 331.569,250.832 331.667,251.164C331.667,251.16 331.7,251.033 331.766,250.783C331.833,250.533 331.896,250.298 331.957,250.077C332.017,249.856 332.055,249.722 332.071,249.675C332.075,249.668 332.254,249.129 332.607,248.058C332.961,246.988 333.171,246.363 333.237,246.183L334.854,246.183L332.417,252.623L330.864,252.623Z" style="fill:rgb(39,39,39);fill-rule:nonzero;"/>
                    <path d="M337.257,252.746C336.659,252.746 336.176,252.581 335.806,252.251C335.437,251.921 335.253,251.445 335.253,250.824C335.253,250.156 335.471,249.661 335.909,249.339C336.346,249.016 337.007,248.812 337.889,248.726C338.01,248.711 338.141,248.695 338.282,248.679C338.423,248.664 338.581,248.648 338.757,248.632C338.932,248.617 339.071,248.603 339.173,248.591L339.173,248.252C339.173,247.861 339.083,247.577 338.903,247.399C338.723,247.221 338.45,247.132 338.083,247.132C337.559,247.132 336.913,247.279 336.143,247.572C336.139,247.56 336.075,247.382 335.95,247.039C335.825,246.695 335.76,246.519 335.757,246.511C336.514,246.187 337.335,246.025 338.217,246.025C339.085,246.025 339.716,246.214 340.11,246.59C340.505,246.967 340.702,247.578 340.702,248.422L340.702,252.623L339.565,252.623C339.561,252.607 339.518,252.476 339.436,252.23C339.354,251.984 339.313,251.853 339.313,251.838C338.993,252.15 338.679,252.38 338.373,252.526C338.066,252.673 337.694,252.746 337.257,252.746ZM337.673,251.656C338.028,251.656 338.338,251.571 338.601,251.401C338.865,251.231 339.053,251.025 339.167,250.783L339.167,249.541C339.155,249.541 339.052,249.548 338.859,249.564C338.666,249.58 338.561,249.588 338.546,249.588C337.925,249.642 337.469,249.759 337.18,249.939C336.891,250.119 336.747,250.408 336.747,250.806C336.747,251.08 336.827,251.29 336.987,251.436C337.147,251.583 337.376,251.656 337.673,251.656Z" style="fill:rgb(39,39,39);fill-rule:nonzero;"/>
                    <path d="M344.305,252.74C343.356,252.74 342.596,252.578 342.026,252.254L342.184,251.099C342.442,251.24 342.77,251.366 343.169,251.477C343.567,251.589 343.93,251.644 344.259,251.644C344.598,251.644 344.863,251.581 345.052,251.454C345.242,251.327 345.339,251.14 345.342,250.894C345.342,250.672 345.254,250.496 345.076,250.367C344.898,250.238 344.559,250.078 344.059,249.886C343.887,249.824 343.776,249.783 343.725,249.763C343.132,249.533 342.704,249.276 342.442,248.993C342.18,248.71 342.05,248.326 342.05,247.841C342.05,247.256 342.261,246.806 342.685,246.494C343.109,246.181 343.7,246.025 344.458,246.025C345.278,246.025 345.999,246.179 346.62,246.488L346.239,247.548C345.626,247.263 345.042,247.121 344.487,247.121C344.178,247.121 343.937,247.173 343.763,247.276C343.59,247.38 343.503,247.537 343.503,247.748C343.503,247.947 343.587,248.102 343.755,248.214C343.923,248.325 344.251,248.47 344.739,248.65C344.755,248.654 344.805,248.672 344.891,248.703C344.977,248.734 345.044,248.759 345.091,248.779C345.68,248.994 346.114,249.251 346.391,249.549C346.669,249.848 346.807,250.238 346.807,250.718C346.803,251.363 346.585,251.861 346.151,252.213C345.717,252.564 345.102,252.74 344.305,252.74Z" style="fill:rgb(39,39,39);fill-rule:nonzero;"/>
                    <path d="M350.839,252.746C349.854,252.746 349.088,252.453 348.539,251.867C347.99,251.281 347.716,250.443 347.716,249.353C347.716,248.298 348.004,247.48 348.58,246.898C349.156,246.316 349.915,246.025 350.856,246.025C351.61,246.025 352.247,246.187 352.766,246.511L352.403,247.607C351.872,247.33 351.378,247.191 350.921,247.191C350.401,247.191 349.992,247.377 349.693,247.748C349.394,248.119 349.245,248.66 349.245,249.371C349.245,250.089 349.392,250.636 349.687,251.011C349.982,251.386 350.399,251.574 350.938,251.574C351.501,251.574 352.042,251.408 352.561,251.076L352.708,252.242C352.438,252.422 352.159,252.55 351.87,252.629C351.581,252.707 351.237,252.746 350.839,252.746Z" style="fill:rgb(39,39,39);fill-rule:nonzero;"/>
                    <path d="M353.932,252.623L353.932,246.183L355.221,246.183L355.421,247.168C355.842,246.492 356.454,246.154 357.255,246.154C357.423,246.154 357.559,246.162 357.665,246.177L357.641,247.461C357.485,247.437 357.323,247.425 357.155,247.425C356.589,247.425 356.166,247.576 355.886,247.877C355.607,248.177 355.467,248.595 355.467,249.131L355.467,252.623L353.932,252.623Z" style="fill:rgb(39,39,39);fill-rule:nonzero;"/>
                    <path d="M358.637,252.623L358.637,246.183L360.173,246.183L360.173,252.623L358.637,252.623ZM358.637,245.246L358.637,243.933L360.178,243.933L360.178,245.246L358.637,245.246Z" style="fill:rgb(39,39,39);fill-rule:nonzero;"/>
                    <path d="M361.772,255.3L361.772,246.183L363.091,246.183L363.255,247.086C363.466,246.746 363.746,246.483 364.095,246.298C364.445,246.112 364.835,246.019 365.264,246.019C365.792,246.019 366.256,246.166 366.656,246.459C367.056,246.752 367.36,247.151 367.567,247.657C367.774,248.163 367.878,248.734 367.878,249.371C367.878,250.367 367.636,251.178 367.154,251.805C366.672,252.432 366.018,252.746 365.194,252.746C364.788,252.746 364.42,252.665 364.09,252.503C363.759,252.34 363.483,252.121 363.26,251.843C363.292,252.406 363.307,252.722 363.307,252.793L363.307,255.224L361.772,255.3ZM364.866,251.574C365.323,251.574 365.683,251.382 365.947,251C366.211,250.617 366.342,250.07 366.342,249.359C366.342,248.636 366.21,248.093 365.944,247.73C365.678,247.367 365.309,247.185 364.837,247.185C363.821,247.185 363.307,247.877 363.296,249.259C363.296,250.056 363.427,250.641 363.691,251.014C363.955,251.387 364.346,251.574 364.866,251.574Z" style="fill:rgb(39,39,39);fill-rule:nonzero;"/>
                    <path d="M371.704,252.711C371.266,252.711 370.902,252.659 370.611,252.555C370.32,252.452 370.092,252.289 369.928,252.066C369.764,251.843 369.648,251.581 369.58,251.278C369.511,250.975 369.477,250.601 369.477,250.156L369.477,247.115L368.423,247.115L368.481,246.283L369.583,246.183L370.075,244.437L371.012,244.431L371.012,246.183L372.612,246.183L372.612,247.115L371.012,247.115L371.012,250.185C371.012,250.673 371.083,251.021 371.223,251.228C371.364,251.435 371.624,251.539 372.003,251.539C372.225,251.539 372.464,251.519 372.717,251.48L372.759,252.582C372.751,252.582 372.703,252.59 372.615,252.608C372.527,252.626 372.443,252.641 372.363,252.655C372.283,252.669 372.18,252.681 372.055,252.693C371.93,252.705 371.813,252.711 371.704,252.711Z" style="fill:rgb(39,39,39);fill-rule:nonzero;"/>
                </g>
            </g>
            <g transform="matrix(1,0,0,1,-25.6334,9.96753)">
                <rect x="386.563" y="237.896" width="41.744" height="31.635" style="fill:white;"/>
                <g transform="matrix(1,0,0,1,0.0424803,4.18677)">
                    <path d="M405.606,252.691C404.481,252.691 403.627,252.411 403.045,251.85C402.463,251.29 402.172,250.5 402.172,249.48L402.172,243.984L403.766,243.984L403.766,249.345C403.766,250.06 403.911,250.582 404.202,250.91C404.493,251.238 404.971,251.402 405.635,251.402C406.287,251.402 406.76,251.237 407.053,250.907C407.346,250.577 407.492,250.054 407.492,249.339L407.492,243.984L409.08,243.984L409.08,249.492C409.08,250.504 408.783,251.29 408.19,251.85C407.596,252.411 406.735,252.691 405.606,252.691Z" style="fill-rule:nonzero;"/>
                    <rect x="410.897" y="243.984" width="1.588" height="8.584" style="fill-rule:nonzero;"/>
                </g>
                <g transform="matrix(0.321642,0,0,0.321642,294.862,171.007)">
                    <path d="M303.876,290.527L300.753,281.943L302.388,281.943L304.205,287.246C304.275,287.429 304.437,287.966 304.691,288.857C304.706,288.794 304.779,288.538 304.908,288.086C305.037,287.635 305.121,287.359 305.16,287.257C305.206,287.124 305.503,286.243 306.05,284.612C306.597,282.981 306.896,282.091 306.947,281.943L308.564,281.943L305.482,290.527L303.876,290.527Z" style="fill:rgb(79,79,79);fill-rule:nonzero;"/>
                    <path d="M310.867,290.65C310.269,290.65 309.786,290.485 309.416,290.155C309.047,289.825 308.863,289.349 308.863,288.728C308.863,288.06 309.081,287.565 309.519,287.243C309.956,286.92 310.617,286.716 311.499,286.63C311.621,286.615 311.751,286.599 311.892,286.583C312.033,286.568 312.191,286.552 312.367,286.537C312.542,286.521 312.681,286.507 312.783,286.496L312.783,286.156C312.783,285.765 312.693,285.481 312.513,285.303C312.333,285.125 312.06,285.037 311.693,285.037C311.169,285.037 310.523,285.183 309.753,285.476C309.749,285.464 309.685,285.287 309.56,284.943C309.435,284.599 309.371,284.423 309.367,284.415C310.124,284.091 310.945,283.929 311.828,283.929C312.695,283.929 313.326,284.118 313.72,284.495C314.115,284.872 314.312,285.482 314.312,286.326L314.312,290.527L313.175,290.527C313.171,290.511 313.128,290.38 313.046,290.134C312.964,289.888 312.923,289.757 312.923,289.742C312.603,290.054 312.289,290.284 311.983,290.43C311.676,290.577 311.304,290.65 310.867,290.65ZM311.283,289.56C311.638,289.56 311.948,289.475 312.211,289.305C312.475,289.135 312.664,288.929 312.777,288.687L312.777,287.445C312.765,287.445 312.663,287.453 312.469,287.468C312.276,287.484 312.171,287.492 312.156,287.492C311.535,287.546 311.08,287.663 310.79,287.843C310.501,288.023 310.357,288.312 310.357,288.71C310.357,288.984 310.437,289.194 310.597,289.34C310.757,289.487 310.986,289.56 311.283,289.56Z" style="fill:rgb(79,79,79);fill-rule:nonzero;"/>
                    <path d="M318.115,290.615C317.673,290.615 317.307,290.563 317.016,290.459C316.725,290.356 316.496,290.191 316.328,289.964C316.16,289.738 316.042,289.468 315.976,289.156C315.91,288.843 315.876,288.455 315.876,287.99L315.876,281.714L317.412,281.615L317.412,287.96C317.412,288.538 317.48,288.93 317.617,289.135C317.753,289.34 318.019,289.443 318.414,289.443C318.609,289.443 318.857,289.421 319.158,289.378L319.199,290.474C319.195,290.474 319.147,290.484 319.055,290.503C318.963,290.523 318.875,290.539 318.791,290.553C318.707,290.567 318.601,290.58 318.472,290.594C318.343,290.608 318.224,290.615 318.115,290.615Z" style="fill:rgb(79,79,79);fill-rule:nonzero;"/>
                    <path d="M322.585,290.65C321.749,290.65 321.077,290.441 320.567,290.023C320.057,289.605 319.802,288.992 319.802,288.183L319.802,284.087L321.343,284.087L321.343,288.124C321.343,288.605 321.444,288.953 321.645,289.167C321.846,289.382 322.165,289.49 322.603,289.49C323.033,289.49 323.346,289.383 323.543,289.17C323.741,288.957 323.839,288.609 323.839,288.124L323.839,284.087L325.374,284.087L325.374,288.183C325.374,288.988 325.119,289.6 324.607,290.02C324.095,290.44 323.421,290.65 322.585,290.65Z" style="fill:rgb(79,79,79);fill-rule:nonzero;"/>
                    <path d="M329.751,290.65C328.716,290.65 327.911,290.352 327.334,289.756C326.758,289.161 326.47,288.337 326.47,287.287C326.47,286.263 326.742,285.449 327.285,284.843C327.828,284.238 328.568,283.933 329.505,283.929C330.392,283.929 331.081,284.206 331.571,284.761C332.061,285.316 332.306,286.052 332.306,286.97C332.306,287.037 332.305,287.144 332.303,287.292C332.301,287.441 332.3,287.55 332.3,287.621L328.017,287.621C328.033,288.222 328.198,288.688 328.512,289.018C328.827,289.348 329.259,289.513 329.81,289.513C330.513,289.513 331.189,289.33 331.837,288.962L332.054,290.052C331.41,290.451 330.642,290.65 329.751,290.65ZM328.046,286.654L330.859,286.654C330.859,286.13 330.74,285.728 330.501,285.447C330.263,285.165 329.933,285.025 329.511,285.025C329.117,285.025 328.784,285.162 328.512,285.435C328.241,285.708 328.085,286.115 328.046,286.654Z" style="fill:rgb(79,79,79);fill-rule:nonzero;"/>
                    <path d="M335.359,290.527L335.359,283.214L332.857,283.214L332.857,281.943L339.443,281.943L339.443,283.214L336.953,283.214L336.953,290.527L335.359,290.527Z" style="fill:rgb(79,79,79);fill-rule:nonzero;"/>
                    <path d="M340.31,290.527L340.31,284.087L341.599,284.087L341.798,285.072C342.22,284.396 342.831,284.058 343.632,284.058C343.8,284.058 343.937,284.066 344.042,284.081L344.019,285.365C343.863,285.341 343.701,285.33 343.533,285.33C342.966,285.33 342.543,285.48 342.264,285.781C341.985,286.081 341.845,286.499 341.845,287.035L341.845,290.527L340.31,290.527Z" style="fill:rgb(79,79,79);fill-rule:nonzero;"/>
                    <path d="M347.898,290.65C346.863,290.65 346.057,290.352 345.481,289.756C344.905,289.161 344.617,288.337 344.617,287.287C344.617,286.263 344.888,285.449 345.431,284.843C345.974,284.238 346.714,283.933 347.652,283.929C348.539,283.929 349.227,284.206 349.717,284.761C350.207,285.316 350.453,286.052 350.453,286.97C350.453,287.037 350.452,287.144 350.45,287.292C350.448,287.441 350.447,287.55 350.447,287.621L346.164,287.621C346.179,288.222 346.344,288.688 346.659,289.018C346.973,289.348 347.406,289.513 347.956,289.513C348.66,289.513 349.335,289.33 349.984,288.962L350.201,290.052C349.556,290.451 348.789,290.65 347.898,290.65ZM346.193,286.654L349.005,286.654C349.005,286.13 348.886,285.728 348.648,285.447C348.41,285.165 348.08,285.025 347.658,285.025C347.263,285.025 346.93,285.162 346.659,285.435C346.387,285.708 346.232,286.115 346.193,286.654Z" style="fill:rgb(79,79,79);fill-rule:nonzero;"/>
                    <path d="M354.677,290.65C353.642,290.65 352.836,290.352 352.26,289.756C351.684,289.161 351.396,288.337 351.396,287.287C351.396,286.263 351.667,285.449 352.21,284.843C352.753,284.238 353.494,283.933 354.431,283.929C355.318,283.929 356.006,284.206 356.497,284.761C356.987,285.316 357.232,286.052 357.232,286.97C357.232,287.037 357.231,287.144 357.229,287.292C357.227,287.441 357.226,287.55 357.226,287.621L352.943,287.621C352.958,288.222 353.123,288.688 353.438,289.018C353.752,289.348 354.185,289.513 354.736,289.513C355.439,289.513 356.115,289.33 356.763,288.962L356.98,290.052C356.335,290.451 355.568,290.65 354.677,290.65ZM352.972,286.654L355.785,286.654C355.785,286.13 355.665,285.728 355.427,285.447C355.189,285.165 354.859,285.025 354.437,285.025C354.042,285.025 353.709,285.162 353.438,285.435C353.166,285.708 353.011,286.115 352.972,286.654Z" style="fill:rgb(79,79,79);fill-rule:nonzero;"/>
                    <path d="M361.175,291.634L364.82,281.802L366.097,281.802L362.423,291.634L361.175,291.634Z" style="fill:rgb(79,79,79);fill-rule:nonzero;"/>
                    <path d="M369.173,292.408L369.109,291.16C369.296,291.191 369.501,291.206 369.724,291.206C370.158,291.206 370.451,291.095 370.603,290.872C370.755,290.65 370.831,290.283 370.831,289.771L370.831,281.919L372.425,281.919L372.425,289.665C372.425,290.158 372.381,290.573 372.293,290.911C372.206,291.248 372.057,291.536 371.848,291.772C371.639,292.008 371.362,292.181 371.016,292.29C370.67,292.4 370.242,292.455 369.73,292.455C369.515,292.455 369.33,292.439 369.173,292.408Z" style="fill:rgb(79,79,79);fill-rule:nonzero;"/>
                    <path d="M376.644,290.644C375.609,290.644 374.681,290.406 373.861,289.929L374.247,288.669C374.615,288.872 375.014,289.037 375.446,289.162C375.877,289.287 376.298,289.349 376.708,289.349C377.212,289.349 377.593,289.241 377.851,289.024C378.109,288.807 378.238,288.496 378.238,288.089C378.238,287.55 377.878,287.177 377.16,286.97C377.109,286.955 376.966,286.913 376.732,286.844C376.497,286.776 376.278,286.709 376.073,286.645C375.868,286.58 375.72,286.531 375.63,286.496C374.478,286.089 373.902,285.331 373.902,284.222C373.902,283.445 374.178,282.845 374.731,282.423C375.284,282.001 376.017,281.79 376.931,281.79C377.966,281.79 378.859,282.003 379.609,282.429L379.128,283.589C378.363,283.246 377.652,283.074 376.996,283.074C376.523,283.074 376.166,283.157 375.926,283.323C375.686,283.489 375.558,283.765 375.542,284.152C375.542,284.628 375.779,284.939 376.251,285.083C376.345,285.119 376.576,285.195 376.943,285.312C377.31,285.429 377.548,285.505 377.658,285.54C378.443,285.798 379.004,286.119 379.342,286.501C379.68,286.884 379.849,287.417 379.849,288.101C379.849,288.917 379.56,289.545 378.982,289.985C378.404,290.424 377.624,290.644 376.644,290.644Z" style="fill:rgb(79,79,79);fill-rule:nonzero;"/>
                    <path d="M385.046,289.355C385.878,289.355 386.506,289.084 386.93,288.543C387.354,288.002 387.566,287.238 387.566,286.249C387.566,285.249 387.354,284.474 386.93,283.923C386.506,283.372 385.88,283.097 385.052,283.097C384.22,283.097 383.59,283.373 383.163,283.926C382.735,284.479 382.521,285.253 382.521,286.249C382.521,287.234 382.734,287.997 383.16,288.54C383.585,289.083 384.214,289.355 385.046,289.355ZM385.04,290.65C383.747,290.65 382.727,290.258 381.979,289.475C381.231,288.692 380.857,287.611 380.857,286.232C380.857,284.845 381.232,283.763 381.982,282.986C382.732,282.208 383.753,281.82 385.046,281.82C386.339,281.82 387.359,282.209 388.105,282.989C388.851,283.768 389.224,284.851 389.224,286.238C389.224,287.609 388.849,288.687 388.099,289.472C387.349,290.257 386.33,290.65 385.04,290.65Z" style="fill:rgb(79,79,79);fill-rule:nonzero;"/>
                    <path d="M390.73,290.527L390.73,281.943L392.417,281.943C392.722,282.419 393.341,283.38 394.275,284.826C395.208,286.271 395.777,287.15 395.98,287.462C396.039,287.552 396.139,287.704 396.282,287.916C396.424,288.129 396.525,288.281 396.583,288.371C396.556,287.031 396.542,286.335 396.542,286.285L396.542,281.943L397.99,281.943L397.99,290.527L396.279,290.527L392.406,284.492L392.124,284.029C392.156,285.06 392.171,285.785 392.171,286.203L392.171,290.527L390.73,290.527Z" style="fill:rgb(79,79,79);fill-rule:nonzero;"/>
                </g>
            </g>
            <g transform="matrix(-6.3114e-17,1.03073,1.03073,6.3114e-17,108.152,-77.002)">
                <path d="M349.247,266.238L349.247,263.724L355.696,263.724L355.696,261.388L359.289,264.981L355.696,268.574L355.696,266.238L349.247,266.238Z" style="fill:rgb(104,104,104);"/>
            </g>
            <g transform="matrix(0.228894,0,0,0.228894,310.911,234.164)">
                <path d="M166.044,276.753C166.86,276.753 167.772,276.477 168.492,275.877L167.784,274.761C167.352,275.061 166.836,275.325 166.212,275.325C165.228,275.325 164.544,274.665 164.544,273.633C164.544,272.601 165.252,271.941 166.272,271.941C166.716,271.941 167.136,272.085 167.592,272.409L168.408,271.317C167.904,270.849 167.112,270.513 166.176,270.513C164.34,270.513 162.732,271.653 162.732,273.633C162.732,275.613 164.172,276.753 166.044,276.753Z" style="fill:rgb(151,151,151);fill-rule:nonzero;"/>
                <path d="M172.728,276.753C174.3,276.753 175.764,275.613 175.764,273.633C175.764,271.653 174.3,270.513 172.728,270.513C171.156,270.513 169.692,271.653 169.692,273.633C169.692,275.613 171.156,276.753 172.728,276.753ZM172.728,275.325C171.912,275.325 171.504,274.665 171.504,273.633C171.504,272.601 171.912,271.941 172.728,271.941C173.544,271.941 173.952,272.601 173.952,273.633C173.952,274.665 173.544,275.325 172.728,275.325Z" style="fill:rgb(151,151,151);fill-rule:nonzero;"/>
                <path d="M177.192,276.609L178.956,276.609L178.956,272.637C179.376,272.229 179.688,272.013 180.168,272.013C180.816,272.013 181.044,272.373 181.044,273.165L181.044,276.609L182.808,276.609L182.808,272.937C182.808,271.437 182.208,270.513 180.864,270.513C179.976,270.513 179.328,270.945 178.812,271.449L178.764,271.449L178.632,270.657L177.192,270.657L177.192,276.609Z" style="fill:rgb(151,151,151);fill-rule:nonzero;"/>
                <path d="M187.08,276.753C188.988,276.753 190.008,275.913 190.008,274.833C190.008,273.861 189.504,273.345 187.668,272.925C186.66,272.697 186.288,272.625 186.288,272.289C186.288,272.013 186.564,271.821 187.116,271.821C187.776,271.821 188.46,272.025 189.06,272.385L189.852,271.329C189.228,270.933 188.34,270.513 187.272,270.513C185.58,270.513 184.536,271.269 184.536,272.373C184.536,273.297 185.184,273.885 186.804,274.233C187.968,274.485 188.268,274.605 188.268,274.941C188.268,275.229 187.968,275.445 187.32,275.445C186.468,275.445 185.652,275.193 184.92,274.737L184.164,275.841C184.92,276.345 186.012,276.753 187.08,276.753Z" style="fill:rgb(151,151,151);fill-rule:nonzero;"/>
                <path d="M195.384,276.753C196.176,276.753 196.8,276.585 197.328,276.429L197.016,275.157C196.656,275.277 196.284,275.373 195.84,275.373C194.964,275.373 194.58,275.025 194.58,274.125L194.58,272.037L197.1,272.037L197.1,270.657L194.58,270.657L194.58,268.833L193.128,268.833L192.9,270.657L191.316,270.729L191.316,272.037L192.816,272.037L192.816,274.137C192.816,275.697 193.488,276.753 195.384,276.753Z" style="fill:rgb(151,151,151);fill-rule:nonzero;"/>
                <path d="M207.744,276.609L209.772,276.609L211.956,270.657L210.264,270.657L209.328,273.465C209.136,274.065 208.98,274.677 208.8,275.301L208.752,275.301C208.572,274.677 208.404,274.065 208.212,273.465L207.276,270.657L205.5,270.657L207.744,276.609Z" style="fill:rgb(151,151,151);fill-rule:nonzero;"/>
                <path d="M215.016,276.753C215.784,276.753 216.528,276.393 217.128,275.937L217.176,275.937L217.308,276.609L218.748,276.609L218.748,273.201C218.748,271.377 217.728,270.513 216.06,270.513C215.04,270.513 214.092,270.849 213.276,271.317L213.9,272.469C214.572,272.133 215.136,271.917 215.712,271.917C216.516,271.917 216.924,272.241 216.984,272.781C214.164,272.949 213.06,273.621 213.06,274.953C213.06,275.961 213.816,276.753 215.016,276.753ZM215.58,275.385C215.076,275.385 214.752,275.205 214.752,274.821C214.752,274.305 215.232,273.933 216.984,273.837L216.984,274.821C216.564,275.145 216.108,275.385 215.58,275.385Z" style="fill:rgb(151,151,151);fill-rule:nonzero;"/>
                <path d="M220.92,276.609L222.684,276.609L222.684,273.513C223.188,272.445 223.956,272.061 224.688,272.061C225.132,272.061 225.372,272.121 225.744,272.229L226.104,270.753C225.756,270.597 225.48,270.513 224.952,270.513C224.004,270.513 223.128,270.981 222.54,271.953L222.504,271.953L222.36,270.657L220.92,270.657L220.92,276.609Z" style="fill:rgb(151,151,151);fill-rule:nonzero;"/>
                <path d="M238.044,276.753C238.86,276.753 239.772,276.477 240.492,275.877L239.784,274.761C239.352,275.061 238.836,275.325 238.212,275.325C237.228,275.325 236.544,274.665 236.544,273.633C236.544,272.601 237.252,271.941 238.272,271.941C238.716,271.941 239.136,272.085 239.592,272.409L240.408,271.317C239.904,270.849 239.112,270.513 238.176,270.513C236.34,270.513 234.732,271.653 234.732,273.633C234.732,275.613 236.172,276.753 238.044,276.753Z" style="fill:rgb(151,151,151);fill-rule:nonzero;"/>
                <path d="M249.168,271.881L254.688,271.881L254.688,270.633L249.168,270.633L249.168,271.881ZM249.168,274.665L254.688,274.665L254.688,273.417L249.168,273.417L249.168,274.665Z" style="fill:rgb(151,151,151);fill-rule:nonzero;"/>
                <path d="M267,276.753C268.056,276.753 268.932,276.357 269.568,275.601L268.596,274.533C268.212,274.953 267.744,275.229 267.18,275.229C266.004,275.229 265.188,274.293 265.188,272.685C265.188,271.113 266.004,270.165 267.108,270.165C267.684,270.165 268.104,270.393 268.476,270.729L269.448,269.637C268.92,269.121 268.104,268.641 267.108,268.641C265.02,268.641 263.376,270.153 263.376,272.745C263.376,275.373 265.056,276.753 267,276.753Z" style="fill:rgb(151,151,151);fill-rule:nonzero;"/>
                <path d="M273.528,276.753C275.1,276.753 276.564,275.613 276.564,273.633C276.564,271.653 275.1,270.513 273.528,270.513C271.956,270.513 270.492,271.653 270.492,273.633C270.492,275.613 271.956,276.753 273.528,276.753ZM273.528,275.325C272.712,275.325 272.304,274.665 272.304,273.633C272.304,272.601 272.712,271.941 273.528,271.941C274.344,271.941 274.752,272.601 274.752,273.633C274.752,274.665 274.344,275.325 273.528,275.325Z" style="fill:rgb(151,151,151);fill-rule:nonzero;"/>
                <path d="M277.992,276.609L279.756,276.609L279.756,272.637C280.176,272.229 280.488,272.013 280.968,272.013C281.616,272.013 281.844,272.373 281.844,273.165L281.844,276.609L283.608,276.609L283.608,272.937C283.608,271.437 283.008,270.513 281.664,270.513C280.776,270.513 280.128,270.945 279.612,271.449L279.564,271.449L279.432,270.657L277.992,270.657L277.992,276.609Z" style="fill:rgb(151,151,151);fill-rule:nonzero;"/>
                <path d="M288.984,276.753C289.776,276.753 290.4,276.585 290.928,276.429L290.616,275.157C290.256,275.277 289.884,275.373 289.44,275.373C288.564,275.373 288.18,275.025 288.18,274.125L288.18,272.037L290.7,272.037L290.7,270.657L288.18,270.657L288.18,268.833L286.728,268.833L286.5,270.657L284.916,270.729L284.916,272.037L286.416,272.037L286.416,274.137C286.416,275.697 287.088,276.753 288.984,276.753Z" style="fill:rgb(151,151,151);fill-rule:nonzero;"/>
                <path d="M295.488,276.753C296.28,276.753 297.168,276.489 297.852,276.057L297.264,274.989C296.736,275.265 296.268,275.409 295.728,275.409C294.756,275.409 294.12,275.025 293.952,274.161L298.008,274.161C298.032,274.017 298.092,273.693 298.092,273.369C298.092,271.749 297.12,270.513 295.284,270.513C293.688,270.513 292.188,271.677 292.188,273.633C292.188,275.613 293.628,276.753 295.488,276.753ZM295.344,271.857C296.028,271.857 296.436,272.241 296.52,272.973L293.976,272.973C294.156,272.229 294.648,271.857 295.344,271.857Z" style="fill:rgb(151,151,151);fill-rule:nonzero;"/>
                <path d="M299.592,276.609L301.356,276.609L301.356,272.637C301.776,272.229 302.088,272.013 302.568,272.013C303.216,272.013 303.444,272.373 303.444,273.165L303.444,276.609L305.208,276.609L305.208,272.937C305.208,271.437 304.608,270.513 303.264,270.513C302.376,270.513 301.728,270.945 301.212,271.449L301.164,271.449L301.032,270.657L299.592,270.657L299.592,276.609Z" style="fill:rgb(151,151,151);fill-rule:nonzero;"/>
                <path d="M310.584,276.753C311.376,276.753 312,276.585 312.528,276.429L312.216,275.157C311.856,275.277 311.484,275.373 311.04,275.373C310.164,275.373 309.78,275.025 309.78,274.125L309.78,272.037L312.3,272.037L312.3,270.657L309.78,270.657L309.78,268.833L308.328,268.833L308.1,270.657L306.516,270.729L306.516,272.037L308.016,272.037L308.016,274.137C308.016,275.697 308.688,276.753 310.584,276.753Z" style="fill:rgb(151,151,151);fill-rule:nonzero;"/>
                <path d="M316.728,276.753C317.556,276.753 318.12,276.141 318.12,275.349C318.12,274.557 317.556,273.933 316.728,273.933C315.9,273.933 315.336,274.557 315.336,275.349C315.336,276.141 315.9,276.753 316.728,276.753Z" style="fill:rgb(151,151,151);fill-rule:nonzero;"/>
                <path d="M323.652,279.141C325.812,279.141 327.192,278.241 327.192,276.993C327.192,275.925 326.34,275.493 324.78,275.493L323.676,275.493C322.98,275.493 322.668,275.361 322.668,275.049C322.668,274.845 322.752,274.737 322.932,274.605C323.232,274.689 323.508,274.725 323.748,274.725C325.128,274.725 326.208,274.101 326.208,272.733C326.208,272.433 326.076,272.133 325.944,271.953L327.144,271.953L327.144,270.657L324.732,270.657C324.444,270.561 324.108,270.513 323.748,270.513C322.404,270.513 321.204,271.245 321.204,272.673C321.204,273.369 321.552,273.909 321.984,274.197L321.984,274.245C321.564,274.533 321.276,274.965 321.276,275.361C321.276,275.865 321.54,276.177 321.876,276.381L321.876,276.429C321.264,276.729 320.952,277.137 320.952,277.617C320.952,278.685 322.104,279.141 323.652,279.141ZM323.748,273.657C323.256,273.657 322.86,273.321 322.86,272.673C322.86,272.049 323.256,271.701 323.748,271.701C324.24,271.701 324.648,272.049 324.648,272.673C324.648,273.321 324.24,273.657 323.748,273.657ZM323.904,278.025C322.968,278.025 322.392,277.797 322.392,277.353C322.392,277.137 322.512,276.957 322.812,276.765C323.028,276.825 323.292,276.849 323.724,276.849L324.468,276.849C325.152,276.849 325.512,276.921 325.512,277.305C325.512,277.713 324.852,278.025 323.904,278.025Z" style="fill:rgb(151,151,151);fill-rule:nonzero;"/>
                <path d="M331.488,276.753C332.28,276.753 333.168,276.489 333.852,276.057L333.264,274.989C332.736,275.265 332.268,275.409 331.728,275.409C330.756,275.409 330.12,275.025 329.952,274.161L334.008,274.161C334.032,274.017 334.092,273.693 334.092,273.369C334.092,271.749 333.12,270.513 331.284,270.513C329.688,270.513 328.188,271.677 328.188,273.633C328.188,275.613 329.628,276.753 331.488,276.753ZM331.344,271.857C332.028,271.857 332.436,272.241 332.52,272.973L329.976,272.973C330.156,272.229 330.648,271.857 331.344,271.857Z" style="fill:rgb(151,151,151);fill-rule:nonzero;"/>
                <path d="M339.384,276.753C340.176,276.753 340.8,276.585 341.328,276.429L341.016,275.157C340.656,275.277 340.284,275.373 339.84,275.373C338.964,275.373 338.58,275.025 338.58,274.125L338.58,272.037L341.1,272.037L341.1,270.657L338.58,270.657L338.58,268.833L337.128,268.833L336.9,270.657L335.316,270.729L335.316,272.037L336.816,272.037L336.816,274.137C336.816,275.697 337.488,276.753 339.384,276.753Z" style="fill:rgb(151,151,151);fill-rule:nonzero;"/>
                <path d="M346.2,276.753C347.256,276.753 348.132,276.357 348.768,275.601L347.796,274.533C347.412,274.953 346.944,275.229 346.38,275.229C345.204,275.229 344.388,274.293 344.388,272.685C344.388,271.113 345.204,270.165 346.308,270.165C346.884,270.165 347.304,270.393 347.676,270.729L348.648,269.637C348.12,269.121 347.304,268.641 346.308,268.641C344.22,268.641 342.576,270.153 342.576,272.745C342.576,275.373 344.256,276.753 346.2,276.753Z" style="fill:rgb(151,151,151);fill-rule:nonzero;"/>
                <path d="M352.728,276.753C354.3,276.753 355.764,275.613 355.764,273.633C355.764,271.653 354.3,270.513 352.728,270.513C351.156,270.513 349.692,271.653 349.692,273.633C349.692,275.613 351.156,276.753 352.728,276.753ZM352.728,275.325C351.912,275.325 351.504,274.665 351.504,273.633C351.504,272.601 351.912,271.941 352.728,271.941C353.544,271.941 353.952,272.601 353.952,273.633C353.952,274.665 353.544,275.325 352.728,275.325Z" style="fill:rgb(151,151,151);fill-rule:nonzero;"/>
                <path d="M356.748,276.609L358.428,276.609L358.428,272.589C358.584,272.205 358.728,272.013 358.956,272.013C359.184,272.013 359.292,272.193 359.292,272.553L359.292,276.609L360.672,276.609L360.672,272.589C360.84,272.205 360.996,272.013 361.212,272.013C361.452,272.013 361.536,272.193 361.536,272.553L361.536,276.609L363.216,276.609L363.216,272.433C363.216,271.245 362.736,270.513 361.884,270.513C361.2,270.513 360.78,270.945 360.564,271.485C360.42,270.849 360.048,270.513 359.532,270.513C358.848,270.513 358.464,270.909 358.248,271.389L358.2,271.389L358.08,270.657L356.748,270.657L356.748,276.609Z" style="fill:rgb(151,151,151);fill-rule:nonzero;"/>
                <path d="M364.392,278.817L366.156,278.817L366.156,277.077L366.072,276.105L366.12,276.105C366.54,276.525 367.056,276.753 367.584,276.753C368.916,276.753 370.164,275.577 370.164,273.537C370.164,271.701 369.264,270.513 367.776,270.513C367.14,270.513 366.48,270.825 366,271.257L365.964,271.257L365.832,270.657L364.392,270.657L364.392,278.817ZM367.176,275.313C366.876,275.313 366.492,275.205 366.156,274.917L366.156,272.505C366.528,272.121 366.876,271.953 367.26,271.953C368.004,271.953 368.352,272.493 368.352,273.561C368.352,274.785 367.836,275.313 367.176,275.313Z" style="fill:rgb(151,151,151);fill-rule:nonzero;"/>
                <path d="M374.328,276.753C375.9,276.753 377.364,275.613 377.364,273.633C377.364,271.653 375.9,270.513 374.328,270.513C372.756,270.513 371.292,271.653 371.292,273.633C371.292,275.613 372.756,276.753 374.328,276.753ZM374.328,275.325C373.512,275.325 373.104,274.665 373.104,273.633C373.104,272.601 373.512,271.941 374.328,271.941C375.144,271.941 375.552,272.601 375.552,273.633C375.552,274.665 375.144,275.325 374.328,275.325Z" style="fill:rgb(151,151,151);fill-rule:nonzero;"/>
                <path d="M378.792,276.609L380.556,276.609L380.556,272.637C380.976,272.229 381.288,272.013 381.768,272.013C382.416,272.013 382.644,272.373 382.644,273.165L382.644,276.609L384.408,276.609L384.408,272.937C384.408,271.437 383.808,270.513 382.464,270.513C381.576,270.513 380.928,270.945 380.412,271.449L380.364,271.449L380.232,270.657L378.792,270.657L378.792,276.609Z" style="fill:rgb(151,151,151);fill-rule:nonzero;"/>
                <path d="M389.088,276.753C389.88,276.753 390.768,276.489 391.452,276.057L390.864,274.989C390.336,275.265 389.868,275.409 389.328,275.409C388.356,275.409 387.72,275.025 387.552,274.161L391.608,274.161C391.632,274.017 391.692,273.693 391.692,273.369C391.692,271.749 390.72,270.513 388.884,270.513C387.288,270.513 385.788,271.677 385.788,273.633C385.788,275.613 387.228,276.753 389.088,276.753ZM388.944,271.857C389.628,271.857 390.036,272.241 390.12,272.973L387.576,272.973C387.756,272.229 388.248,271.857 388.944,271.857Z" style="fill:rgb(151,151,151);fill-rule:nonzero;"/>
                <path d="M393.192,276.609L394.956,276.609L394.956,272.637C395.376,272.229 395.688,272.013 396.168,272.013C396.816,272.013 397.044,272.373 397.044,273.165L397.044,276.609L398.808,276.609L398.808,272.937C398.808,271.437 398.208,270.513 396.864,270.513C395.976,270.513 395.328,270.945 394.812,271.449L394.764,271.449L394.632,270.657L393.192,270.657L393.192,276.609Z" style="fill:rgb(151,151,151);fill-rule:nonzero;"/>
                <path d="M404.184,276.753C404.976,276.753 405.6,276.585 406.128,276.429L405.816,275.157C405.456,275.277 405.084,275.373 404.64,275.373C403.764,275.373 403.38,275.025 403.38,274.125L403.38,272.037L405.9,272.037L405.9,270.657L403.38,270.657L403.38,268.833L401.928,268.833L401.7,270.657L400.116,270.729L400.116,272.037L401.616,272.037L401.616,274.137C401.616,275.697 402.288,276.753 404.184,276.753Z" style="fill:rgb(151,151,151);fill-rule:nonzero;"/>
                <path d="M411.432,278.757L412.416,277.977C410.988,276.585 410.376,275.169 410.376,273.273C410.376,271.377 410.988,269.961 412.416,268.569L411.432,267.789C409.872,269.169 408.9,271.017 408.9,273.273C408.9,275.529 409.872,277.377 411.432,278.757Z" style="fill:rgb(151,151,151);fill-rule:nonzero;"/>
                <path d="M415.392,272.973L416.472,272.973L416.892,270.129L416.952,268.389L414.912,268.389L414.972,270.129L415.392,272.973ZM418.584,272.973L419.664,272.973L420.084,270.129L420.144,268.389L418.104,268.389L418.164,270.129L418.584,272.973Z" style="fill:rgb(151,151,151);fill-rule:nonzero;"/>
                <path d="M422.016,276.609L427.44,276.609L427.44,275.121L425.616,275.121L425.616,270.273L427.44,270.273L427.44,268.785L422.016,268.785L422.016,270.273L423.84,270.273L423.84,275.121L422.016,275.121L422.016,276.609Z" style="fill:rgb(151,151,151);fill-rule:nonzero;"/>
                <path d="M429.168,276.609L431.436,276.609C433.608,276.609 435.096,275.349 435.096,272.661C435.096,269.973 433.608,268.785 431.328,268.785L429.168,268.785L429.168,276.609ZM430.944,275.181L430.944,270.213L431.232,270.213C432.456,270.213 433.284,270.789 433.284,272.661C433.284,274.533 432.456,275.181 431.232,275.181L430.944,275.181Z" style="fill:rgb(151,151,151);fill-rule:nonzero;"/>
                <path d="M436.992,272.973L438.072,272.973L438.492,270.129L438.552,268.389L436.512,268.389L436.572,270.129L436.992,272.973ZM440.184,272.973L441.264,272.973L441.684,270.129L441.744,268.389L439.704,268.389L439.764,270.129L440.184,272.973Z" style="fill:rgb(151,151,151);fill-rule:nonzero;"/>
                <path d="M445.224,278.757C446.784,277.377 447.756,275.529 447.756,273.273C447.756,271.017 446.784,269.169 445.224,267.789L444.24,268.569C445.668,269.961 446.28,271.377 446.28,273.273C446.28,275.169 445.668,276.585 444.24,277.977L445.224,278.757Z" style="fill:rgb(151,151,151);fill-rule:nonzero;"/>
                <path d="M453.528,272.877C454.356,272.877 454.92,272.265 454.92,271.473C454.92,270.681 454.356,270.057 453.528,270.057C452.7,270.057 452.136,270.681 452.136,271.473C452.136,272.265 452.7,272.877 453.528,272.877ZM452.556,279.213C454.212,278.709 455.076,277.617 455.076,276.093C455.076,274.797 454.572,274.029 453.588,274.029C452.844,274.029 452.244,274.521 452.244,275.265C452.244,276.057 452.868,276.489 453.54,276.489C453.588,276.489 453.624,276.489 453.672,276.477C453.696,277.209 453.18,277.809 452.112,278.181L452.556,279.213Z" style="fill:rgb(151,151,151);fill-rule:nonzero;"/>
            </g>
        </g>
    </g>
</svg>
