<?xml version="1.0" encoding="UTF-8" standalone="no"?>
<!DOCTYPE svg PUBLIC "-//W3C//DTD SVG 1.1//EN" "http://www.w3.org/Graphics/SVG/1.1/DTD/svg11.dtd">
<svg width="100%" height="100%" viewBox="0 0 158 32" version="1.1" xmlns="http://www.w3.org/2000/svg" xmlns:xlink="http://www.w3.org/1999/xlink" xml:space="preserve" style="fill-rule:evenodd;clip-rule:evenodd;stroke-linejoin:round;stroke-miterlimit:1.41421;">
    <g transform="matrix(1,0,0,1,-303.983,-247.864)">
        <g>
            <g transform="matrix(1,0,0,0.702489,81.9974,86.6107)">
                <rect x="337.763" y="243.337" width="41.171" height="18.915" style="fill:rgb(61,167,118);"/>
                <g transform="matrix(0.347429,0,0,0.494569,220.126,129.359)">
                    <rect x="346.467" y="244.039" width="1.588" height="8.584" style="fill:rgb(39,39,39);fill-rule:nonzero;"/>
                    <path d="M349.807,252.623L349.807,246.183L351.044,246.183L351.214,246.998C351.87,246.349 352.598,246.025 353.399,246.025C354.149,246.025 354.711,246.241 355.084,246.673C355.457,247.104 355.643,247.73 355.643,248.55L355.643,252.623L354.102,252.623L354.102,248.738C354.098,248.218 354.014,247.83 353.85,247.572C353.686,247.314 353.391,247.185 352.966,247.185C352.634,247.185 352.33,247.27 352.054,247.44C351.779,247.61 351.579,247.824 351.454,248.082C351.38,248.386 351.342,248.855 351.342,249.488L351.342,252.623L349.807,252.623Z" style="fill:rgb(39,39,39);fill-rule:nonzero;"/>
                    <path d="M359.727,252.711C359.29,252.711 358.926,252.659 358.634,252.555C358.343,252.452 358.116,252.289 357.952,252.066C357.788,251.843 357.672,251.581 357.603,251.278C357.535,250.975 357.501,250.601 357.501,250.156L357.501,247.115L356.446,247.115L356.505,246.283L357.606,246.183L358.098,244.437L359.036,244.431L359.036,246.183L360.635,246.183L360.635,247.115L359.036,247.115L359.036,250.185C359.036,250.673 359.106,251.021 359.247,251.228C359.387,251.435 359.647,251.539 360.026,251.539C360.249,251.539 360.487,251.519 360.741,251.48L360.782,252.582C360.774,252.582 360.726,252.59 360.638,252.608C360.551,252.626 360.467,252.641 360.386,252.655C360.306,252.669 360.204,252.681 360.079,252.693C359.954,252.705 359.837,252.711 359.727,252.711Z" style="fill:rgb(39,39,39);fill-rule:nonzero;"/>
                    <path d="M364.784,252.746C363.749,252.746 362.943,252.448 362.367,251.852C361.791,251.256 361.503,250.433 361.503,249.382C361.503,248.359 361.774,247.545 362.317,246.939C362.86,246.334 363.6,246.029 364.538,246.025C365.425,246.025 366.113,246.302 366.603,246.857C367.093,247.412 367.339,248.148 367.339,249.066C367.339,249.132 367.338,249.24 367.336,249.388C367.334,249.537 367.333,249.646 367.333,249.716L363.05,249.716C363.065,250.318 363.23,250.784 363.545,251.114C363.859,251.444 364.292,251.609 364.842,251.609C365.546,251.609 366.221,251.425 366.87,251.058L367.087,252.148C366.442,252.547 365.675,252.746 364.784,252.746ZM363.079,248.75L365.891,248.75C365.891,248.226 365.772,247.824 365.534,247.543C365.296,247.261 364.966,247.121 364.544,247.121C364.149,247.121 363.816,247.257 363.545,247.531C363.273,247.804 363.118,248.211 363.079,248.75Z" style="fill:rgb(39,39,39);fill-rule:nonzero;"/>
                    <path d="M368.592,252.623L368.592,246.183L369.882,246.183L370.081,247.168C370.503,246.492 371.114,246.154 371.915,246.154C372.083,246.154 372.219,246.162 372.325,246.177L372.301,247.461C372.145,247.437 371.983,247.425 371.815,247.425C371.249,247.425 370.826,247.576 370.547,247.877C370.267,248.177 370.128,248.595 370.128,249.131L370.128,252.623L368.592,252.623Z" style="fill:rgb(39,39,39);fill-rule:nonzero;"/>
                    <path d="M373.673,252.623L373.673,247.203L372.653,247.203L372.753,246.3L373.673,246.183L373.673,245.826C373.673,245.435 373.709,245.101 373.781,244.824C373.853,244.547 373.971,244.309 374.135,244.112C374.3,243.915 374.519,243.768 374.795,243.673C375.07,243.577 375.409,243.529 375.811,243.529C376.202,243.529 376.6,243.566 377.007,243.64L376.872,244.783C376.551,244.74 376.3,244.718 376.116,244.718C375.788,244.718 375.554,244.798 375.416,244.956C375.277,245.114 375.208,245.377 375.208,245.744L375.208,246.183L376.719,246.183L376.719,247.203L375.208,247.203L375.208,252.623L373.673,252.623Z" style="fill:rgb(39,39,39);fill-rule:nonzero;"/>
                    <path d="M379.35,252.746C378.753,252.746 378.269,252.581 377.9,252.251C377.531,251.921 377.346,251.445 377.346,250.824C377.346,250.156 377.565,249.661 378.003,249.339C378.44,249.016 379.1,248.812 379.983,248.726C380.104,248.711 380.235,248.695 380.376,248.679C380.516,248.664 380.675,248.648 380.85,248.632C381.026,248.617 381.165,248.603 381.266,248.591L381.266,248.252C381.266,247.861 381.176,247.577 380.997,247.399C380.817,247.221 380.544,247.132 380.176,247.132C379.653,247.132 379.007,247.279 378.237,247.572C378.233,247.56 378.169,247.382 378.044,247.039C377.919,246.695 377.854,246.519 377.85,246.511C378.608,246.187 379.428,246.025 380.311,246.025C381.178,246.025 381.809,246.214 382.204,246.59C382.598,246.967 382.796,247.578 382.796,248.422L382.796,252.623L381.659,252.623C381.655,252.607 381.612,252.476 381.53,252.23C381.448,251.984 381.407,251.853 381.407,251.838C381.087,252.15 380.773,252.38 380.467,252.526C380.16,252.673 379.788,252.746 379.35,252.746ZM379.766,251.656C380.122,251.656 380.431,251.571 380.695,251.401C380.959,251.231 381.147,251.025 381.26,250.783L381.26,249.541C381.249,249.541 381.146,249.548 380.953,249.564C380.759,249.58 380.655,249.588 380.639,249.588C380.018,249.642 379.563,249.759 379.274,249.939C378.985,250.119 378.841,250.408 378.841,250.806C378.841,251.08 378.921,251.29 379.081,251.436C379.241,251.583 379.469,251.656 379.766,251.656Z" style="fill:rgb(39,39,39);fill-rule:nonzero;"/>
                    <path d="M387.161,252.746C386.176,252.746 385.41,252.453 384.861,251.867C384.312,251.281 384.038,250.443 384.038,249.353C384.038,248.298 384.326,247.48 384.902,246.898C385.478,246.316 386.237,246.025 387.178,246.025C387.932,246.025 388.569,246.187 389.089,246.511L388.725,247.607C388.194,247.33 387.7,247.191 387.243,247.191C386.723,247.191 386.314,247.377 386.015,247.748C385.717,248.119 385.567,248.66 385.567,249.371C385.567,250.089 385.715,250.636 386.009,251.011C386.304,251.386 386.721,251.574 387.26,251.574C387.823,251.574 388.364,251.408 388.884,251.076L389.03,252.242C388.76,252.422 388.481,252.55 388.192,252.629C387.903,252.707 387.559,252.746 387.161,252.746Z" style="fill:rgb(39,39,39);fill-rule:nonzero;"/>
                    <path d="M393.178,252.746C392.143,252.746 391.338,252.448 390.761,251.852C390.185,251.256 389.897,250.433 389.897,249.382C389.897,248.359 390.169,247.545 390.712,246.939C391.255,246.334 391.995,246.029 392.932,246.025C393.819,246.025 394.508,246.302 394.998,246.857C395.488,247.412 395.733,248.148 395.733,249.066C395.733,249.132 395.732,249.24 395.73,249.388C395.728,249.537 395.727,249.646 395.727,249.716L391.444,249.716C391.46,250.318 391.625,250.784 391.939,251.114C392.254,251.444 392.686,251.609 393.237,251.609C393.94,251.609 394.616,251.425 395.264,251.058L395.481,252.148C394.837,252.547 394.069,252.746 393.178,252.746ZM391.473,248.75L394.286,248.75C394.286,248.226 394.167,247.824 393.928,247.543C393.69,247.261 393.36,247.121 392.938,247.121C392.544,247.121 392.211,247.257 391.939,247.531C391.668,247.804 391.512,248.211 391.473,248.75Z" style="fill:rgb(39,39,39);fill-rule:nonzero;"/>
                    <path d="M401.891,251.351L403.028,251.351C404.009,251.351 404.755,251.094 405.266,250.581C405.778,250.067 406.034,249.318 406.034,248.334C406.034,247.279 405.77,246.512 405.243,246.034C404.716,245.555 403.921,245.316 402.858,245.316L401.891,245.316L401.891,251.351ZM400.303,252.623L400.303,244.039L402.788,244.039C403.538,244.039 404.21,244.125 404.803,244.297C405.397,244.468 405.908,244.727 406.336,245.073C406.763,245.419 407.092,245.864 407.32,246.409C407.549,246.954 407.663,247.584 407.663,248.298C407.663,249.685 407.245,250.753 406.409,251.501C405.573,252.249 404.415,252.623 402.934,252.623L400.303,252.623Z" style="fill:rgb(39,39,39);fill-rule:nonzero;"/>
                    <path d="M411.999,252.746C410.964,252.746 410.158,252.448 409.582,251.852C409.006,251.256 408.717,250.433 408.717,249.382C408.717,248.359 408.989,247.545 409.532,246.939C410.075,246.334 410.815,246.029 411.753,246.025C412.639,246.025 413.328,246.302 413.818,246.857C414.308,247.412 414.553,248.148 414.553,249.066C414.553,249.132 414.552,249.24 414.551,249.388C414.549,249.537 414.548,249.646 414.548,249.716L410.264,249.716C410.28,250.318 410.445,250.784 410.759,251.114C411.074,251.444 411.507,251.609 412.057,251.609C412.76,251.609 413.436,251.425 414.085,251.058L414.301,252.148C413.657,252.547 412.889,252.746 411.999,252.746ZM410.294,248.75L413.106,248.75C413.106,248.226 412.987,247.824 412.749,247.543C412.51,247.261 412.18,247.121 411.759,247.121C411.364,247.121 411.031,247.257 410.759,247.531C410.488,247.804 410.333,248.211 410.294,248.75Z" style="fill:rgb(39,39,39);fill-rule:nonzero;"/>
                    <path d="M417.858,252.74C416.909,252.74 416.149,252.578 415.579,252.254L415.737,251.099C415.995,251.24 416.323,251.366 416.721,251.477C417.12,251.589 417.483,251.644 417.811,251.644C418.151,251.644 418.416,251.581 418.605,251.454C418.795,251.327 418.891,251.14 418.895,250.894C418.895,250.672 418.806,250.496 418.629,250.367C418.451,250.238 418.112,250.078 417.612,249.886C417.44,249.824 417.329,249.783 417.278,249.763C416.684,249.533 416.257,249.276 415.995,248.993C415.733,248.71 415.602,248.326 415.602,247.841C415.602,247.256 415.814,246.806 416.238,246.494C416.662,246.181 417.253,246.025 418.01,246.025C418.831,246.025 419.551,246.179 420.173,246.488L419.792,247.548C419.178,247.263 418.594,247.121 418.04,247.121C417.731,247.121 417.49,247.173 417.316,247.276C417.142,247.38 417.055,247.537 417.055,247.748C417.055,247.947 417.139,248.102 417.307,248.214C417.475,248.325 417.803,248.47 418.292,248.65C418.307,248.654 418.358,248.672 418.444,248.703C418.53,248.734 418.596,248.759 418.643,248.779C419.233,248.994 419.667,249.251 419.944,249.549C420.221,249.848 420.36,250.238 420.36,250.718C420.356,251.363 420.137,251.861 419.704,252.213C419.27,252.564 418.655,252.74 417.858,252.74Z" style="fill:rgb(39,39,39);fill-rule:nonzero;"/>
                    <path d="M421.608,252.623L421.608,246.183L423.143,246.183L423.143,252.623L421.608,252.623ZM421.608,245.246L421.608,243.933L423.149,243.933L423.149,245.246L421.608,245.246Z" style="fill:rgb(39,39,39);fill-rule:nonzero;"/>
                    <path d="M426.032,255.506L425.944,254.263L426.723,254.263C427.626,254.263 428.257,254.143 428.616,253.903C428.975,253.663 429.155,253.222 429.155,252.582C429.155,252.32 429.143,252.037 429.12,251.732C429.018,251.873 428.922,251.989 428.83,252.081C428.738,252.173 428.623,252.263 428.484,252.353C428.345,252.443 428.179,252.51 427.986,252.555C427.793,252.6 427.573,252.623 427.327,252.623C426.475,252.623 425.775,252.316 425.226,251.703C424.677,251.089 424.403,250.298 424.403,249.33C424.403,248.814 424.479,248.344 424.632,247.921C424.784,247.497 424.991,247.148 425.253,246.875C425.514,246.601 425.816,246.391 426.158,246.245C426.5,246.098 426.864,246.025 427.251,246.025C428.114,246.025 428.757,246.339 429.178,246.968L429.284,246.183L430.655,246.183L430.655,252.166C430.655,252.486 430.639,252.774 430.608,253.03C430.577,253.286 430.522,253.532 430.444,253.768C430.366,254.005 430.263,254.211 430.136,254.386C430.009,254.562 429.85,254.722 429.659,254.867C429.467,255.011 429.242,255.13 428.982,255.221C428.722,255.313 428.421,255.383 428.077,255.432C427.733,255.481 427.346,255.506 426.917,255.506L426.032,255.506ZM427.573,251.55C428.632,251.55 429.167,250.841 429.178,249.423L429.178,249.201C429.171,248.564 429.038,248.072 428.78,247.724C428.522,247.377 428.145,247.201 427.649,247.197C427.087,247.197 426.661,247.389 426.372,247.774C426.083,248.159 425.938,248.677 425.938,249.33C425.938,249.959 426.084,250.486 426.375,250.912C426.666,251.338 427.065,251.55 427.573,251.55Z" style="fill:rgb(39,39,39);fill-rule:nonzero;"/>
                    <path d="M432.167,252.623L432.167,246.183L433.403,246.183L433.573,246.998C434.229,246.349 434.958,246.025 435.759,246.025C436.509,246.025 437.07,246.241 437.443,246.673C437.816,247.104 438.003,247.73 438.003,248.55L438.003,252.623L436.462,252.623L436.462,248.738C436.458,248.218 436.374,247.83 436.21,247.572C436.046,247.314 435.751,247.185 435.325,247.185C434.993,247.185 434.689,247.27 434.414,247.44C434.138,247.61 433.938,247.824 433.813,248.082C433.739,248.386 433.702,248.855 433.702,249.488L433.702,252.623L432.167,252.623Z" style="fill:rgb(39,39,39);fill-rule:nonzero;"/>
                    <path d="M442.491,252.746C441.456,252.746 440.65,252.448 440.074,251.852C439.498,251.256 439.21,250.433 439.21,249.382C439.21,248.359 439.481,247.545 440.024,246.939C440.567,246.334 441.307,246.029 442.245,246.025C443.132,246.025 443.82,246.302 444.31,246.857C444.801,247.412 445.046,248.148 445.046,249.066C445.046,249.132 445.045,249.24 445.043,249.388C445.041,249.537 445.04,249.646 445.04,249.716L440.757,249.716C440.772,250.318 440.937,250.784 441.252,251.114C441.566,251.444 441.999,251.609 442.55,251.609C443.253,251.609 443.928,251.425 444.577,251.058L444.794,252.148C444.149,252.547 443.382,252.746 442.491,252.746ZM440.786,248.75L443.598,248.75C443.598,248.226 443.479,247.824 443.241,247.543C443.003,247.261 442.673,247.121 442.251,247.121C441.856,247.121 441.523,247.257 441.252,247.531C440.98,247.804 440.825,248.211 440.786,248.75Z" style="fill:rgb(39,39,39);fill-rule:nonzero;"/>
                    <path d="M446.3,252.623L446.3,246.183L447.589,246.183L447.788,247.168C448.21,246.492 448.821,246.154 449.622,246.154C449.79,246.154 449.926,246.162 450.032,246.177L450.009,247.461C449.852,247.437 449.69,247.425 449.522,247.425C448.956,247.425 448.533,247.576 448.254,247.877C447.974,248.177 447.835,248.595 447.835,249.131L447.835,252.623L446.3,252.623Z" style="fill:rgb(39,39,39);fill-rule:nonzero;"/>
                </g>
            </g>
            <g transform="matrix(1,0,0,0.702489,-33.4655,86.6107)">
                <rect x="337.763" y="243.337" width="41.171" height="18.915" style="fill:rgb(219,102,70);"/>
                <g transform="matrix(0.347429,0,0,0.494569,237.708,129.359)">
                    <path d="M317.516,254.504L317.452,253.256C317.639,253.287 317.844,253.302 318.067,253.302C318.501,253.302 318.794,253.191 318.946,252.968C319.098,252.746 319.175,252.379 319.175,251.867L319.175,244.015L320.768,244.015L320.768,251.761C320.768,252.254 320.724,252.669 320.636,253.006C320.549,253.344 320.4,253.631 320.191,253.868C319.982,254.104 319.705,254.277 319.359,254.386C319.013,254.496 318.585,254.55 318.073,254.55C317.858,254.55 317.673,254.535 317.516,254.504Z" style="fill:rgb(39,39,39);fill-rule:nonzero;"/>
                    <path d="M324.132,252.746C323.534,252.746 323.051,252.581 322.681,252.251C322.312,251.921 322.128,251.445 322.128,250.824C322.128,250.156 322.346,249.661 322.784,249.339C323.221,249.016 323.882,248.812 324.764,248.726C324.885,248.711 325.016,248.695 325.157,248.679C325.298,248.664 325.456,248.648 325.632,248.632C325.807,248.617 325.946,248.603 326.048,248.591L326.048,248.252C326.048,247.861 325.958,247.577 325.778,247.399C325.598,247.221 325.325,247.132 324.958,247.132C324.434,247.132 323.788,247.279 323.018,247.572C323.014,247.56 322.95,247.382 322.825,247.039C322.7,246.695 322.635,246.519 322.632,246.511C323.389,246.187 324.21,246.025 325.092,246.025C325.96,246.025 326.591,246.214 326.985,246.59C327.38,246.967 327.577,247.578 327.577,248.422L327.577,252.623L326.44,252.623C326.436,252.607 326.393,252.476 326.311,252.23C326.229,251.984 326.188,251.853 326.188,251.838C325.868,252.15 325.554,252.38 325.248,252.526C324.941,252.673 324.569,252.746 324.132,252.746ZM324.548,251.656C324.903,251.656 325.213,251.571 325.476,251.401C325.74,251.231 325.928,251.025 326.042,250.783L326.042,249.541C326.03,249.541 325.927,249.548 325.734,249.564C325.541,249.58 325.436,249.588 325.421,249.588C324.8,249.642 324.344,249.759 324.055,249.939C323.766,250.119 323.622,250.408 323.622,250.806C323.622,251.08 323.702,251.29 323.862,251.436C324.022,251.583 324.251,251.656 324.548,251.656Z" style="fill:rgb(39,39,39);fill-rule:nonzero;"/>
                    <path d="M330.864,252.623L328.298,246.183L329.926,246.183C329.989,246.359 330.187,246.905 330.521,247.821C330.855,248.737 331.077,249.361 331.186,249.693C331.409,250.341 331.569,250.832 331.667,251.164C331.667,251.16 331.7,251.033 331.766,250.783C331.833,250.533 331.896,250.298 331.957,250.077C332.017,249.856 332.055,249.722 332.071,249.675C332.075,249.668 332.254,249.129 332.607,248.058C332.961,246.988 333.171,246.363 333.237,246.183L334.854,246.183L332.417,252.623L330.864,252.623Z" style="fill:rgb(39,39,39);fill-rule:nonzero;"/>
                    <path d="M337.257,252.746C336.659,252.746 336.176,252.581 335.806,252.251C335.437,251.921 335.253,251.445 335.253,250.824C335.253,250.156 335.471,249.661 335.909,249.339C336.346,249.016 337.007,248.812 337.889,248.726C338.01,248.711 338.141,248.695 338.282,248.679C338.423,248.664 338.581,248.648 338.757,248.632C338.932,248.617 339.071,248.603 339.173,248.591L339.173,248.252C339.173,247.861 339.083,247.577 338.903,247.399C338.723,247.221 338.45,247.132 338.083,247.132C337.559,247.132 336.913,247.279 336.143,247.572C336.139,247.56 336.075,247.382 335.95,247.039C335.825,246.695 335.76,246.519 335.757,246.511C336.514,246.187 337.335,246.025 338.217,246.025C339.085,246.025 339.716,246.214 340.11,246.59C340.505,246.967 340.702,247.578 340.702,248.422L340.702,252.623L339.565,252.623C339.561,252.607 339.518,252.476 339.436,252.23C339.354,251.984 339.313,251.853 339.313,251.838C338.993,252.15 338.679,252.38 338.373,252.526C338.066,252.673 337.694,252.746 337.257,252.746ZM337.673,251.656C338.028,251.656 338.338,251.571 338.601,251.401C338.865,251.231 339.053,251.025 339.167,250.783L339.167,249.541C339.155,249.541 339.052,249.548 338.859,249.564C338.666,249.58 338.561,249.588 338.546,249.588C337.925,249.642 337.469,249.759 337.18,249.939C336.891,250.119 336.747,250.408 336.747,250.806C336.747,251.08 336.827,251.29 336.987,251.436C337.147,251.583 337.376,251.656 337.673,251.656Z" style="fill:rgb(39,39,39);fill-rule:nonzero;"/>
                    <path d="M344.305,252.74C343.356,252.74 342.596,252.578 342.026,252.254L342.184,251.099C342.442,251.24 342.77,251.366 343.169,251.477C343.567,251.589 343.93,251.644 344.259,251.644C344.598,251.644 344.863,251.581 345.052,251.454C345.242,251.327 345.339,251.14 345.342,250.894C345.342,250.672 345.254,250.496 345.076,250.367C344.898,250.238 344.559,250.078 344.059,249.886C343.887,249.824 343.776,249.783 343.725,249.763C343.132,249.533 342.704,249.276 342.442,248.993C342.18,248.71 342.05,248.326 342.05,247.841C342.05,247.256 342.261,246.806 342.685,246.494C343.109,246.181 343.7,246.025 344.458,246.025C345.278,246.025 345.999,246.179 346.62,246.488L346.239,247.548C345.626,247.263 345.042,247.121 344.487,247.121C344.178,247.121 343.937,247.173 343.763,247.276C343.59,247.38 343.503,247.537 343.503,247.748C343.503,247.947 343.587,248.102 343.755,248.214C343.923,248.325 344.251,248.47 344.739,248.65C344.755,248.654 344.805,248.672 344.891,248.703C344.977,248.734 345.044,248.759 345.091,248.779C345.68,248.994 346.114,249.251 346.391,249.549C346.669,249.848 346.807,250.238 346.807,250.718C346.803,251.363 346.585,251.861 346.151,252.213C345.717,252.564 345.102,252.74 344.305,252.74Z" style="fill:rgb(39,39,39);fill-rule:nonzero;"/>
                    <path d="M350.839,252.746C349.854,252.746 349.088,252.453 348.539,251.867C347.99,251.281 347.716,250.443 347.716,249.353C347.716,248.298 348.004,247.48 348.58,246.898C349.156,246.316 349.915,246.025 350.856,246.025C351.61,246.025 352.247,246.187 352.766,246.511L352.403,247.607C351.872,247.33 351.378,247.191 350.921,247.191C350.401,247.191 349.992,247.377 349.693,247.748C349.394,248.119 349.245,248.66 349.245,249.371C349.245,250.089 349.392,250.636 349.687,251.011C349.982,251.386 350.399,251.574 350.938,251.574C351.501,251.574 352.042,251.408 352.561,251.076L352.708,252.242C352.438,252.422 352.159,252.55 351.87,252.629C351.581,252.707 351.237,252.746 350.839,252.746Z" style="fill:rgb(39,39,39);fill-rule:nonzero;"/>
                    <path d="M353.932,252.623L353.932,246.183L355.221,246.183L355.421,247.168C355.842,246.492 356.454,246.154 357.255,246.154C357.423,246.154 357.559,246.162 357.665,246.177L357.641,247.461C357.485,247.437 357.323,247.425 357.155,247.425C356.589,247.425 356.166,247.576 355.886,247.877C355.607,248.177 355.467,248.595 355.467,249.131L355.467,252.623L353.932,252.623Z" style="fill:rgb(39,39,39);fill-rule:nonzero;"/>
                    <path d="M358.637,252.623L358.637,246.183L360.173,246.183L360.173,252.623L358.637,252.623ZM358.637,245.246L358.637,243.933L360.178,243.933L360.178,245.246L358.637,245.246Z" style="fill:rgb(39,39,39);fill-rule:nonzero;"/>
                    <path d="M361.772,255.3L361.772,246.183L363.091,246.183L363.255,247.086C363.466,246.746 363.746,246.483 364.095,246.298C364.445,246.112 364.835,246.019 365.264,246.019C365.792,246.019 366.256,246.166 366.656,246.459C367.056,246.752 367.36,247.151 367.567,247.657C367.774,248.163 367.878,248.734 367.878,249.371C367.878,250.367 367.636,251.178 367.154,251.805C366.672,252.432 366.018,252.746 365.194,252.746C364.788,252.746 364.42,252.665 364.09,252.503C363.759,252.34 363.483,252.121 363.26,251.843C363.292,252.406 363.307,252.722 363.307,252.793L363.307,255.224L361.772,255.3ZM364.866,251.574C365.323,251.574 365.683,251.382 365.947,251C366.211,250.617 366.342,250.07 366.342,249.359C366.342,248.636 366.21,248.093 365.944,247.73C365.678,247.367 365.309,247.185 364.837,247.185C363.821,247.185 363.307,247.877 363.296,249.259C363.296,250.056 363.427,250.641 363.691,251.014C363.955,251.387 364.346,251.574 364.866,251.574Z" style="fill:rgb(39,39,39);fill-rule:nonzero;"/>
                    <path d="M371.704,252.711C371.266,252.711 370.902,252.659 370.611,252.555C370.32,252.452 370.092,252.289 369.928,252.066C369.764,251.843 369.648,251.581 369.58,251.278C369.511,250.975 369.477,250.601 369.477,250.156L369.477,247.115L368.423,247.115L368.481,246.283L369.583,246.183L370.075,244.437L371.012,244.431L371.012,246.183L372.612,246.183L372.612,247.115L371.012,247.115L371.012,250.185C371.012,250.673 371.083,251.021 371.223,251.228C371.364,251.435 371.624,251.539 372.003,251.539C372.225,251.539 372.464,251.519 372.717,251.48L372.759,252.582C372.751,252.582 372.703,252.59 372.615,252.608C372.527,252.626 372.443,252.641 372.363,252.655C372.283,252.669 372.18,252.681 372.055,252.693C371.93,252.705 371.813,252.711 371.704,252.711Z" style="fill:rgb(39,39,39);fill-rule:nonzero;"/>
                </g>
            </g>
            <g transform="matrix(1,0,0,1,-25.6334,9.96753)">
                <rect x="386.563" y="237.896" width="41.744" height="31.635" style="fill:white;"/>
                <g transform="matrix(1,0,0,1,0.0424803,4.18677)">
                    <path d="M405.606,252.691C404.481,252.691 403.627,252.411 403.045,251.85C402.463,251.29 402.172,250.5 402.172,249.48L402.172,243.984L403.766,243.984L403.766,249.345C403.766,250.06 403.911,250.582 404.202,250.91C404.493,251.238 404.971,251.402 405.635,251.402C406.287,251.402 406.76,251.237 407.053,250.907C407.346,250.577 407.492,250.054 407.492,249.339L407.492,243.984L409.08,243.984L409.08,249.492C409.08,250.504 408.783,251.29 408.19,251.85C407.596,252.411 406.735,252.691 405.606,252.691Z" style="fill-rule:nonzero;"/>
                    <rect x="410.897" y="243.984" width="1.588" height="8.584" style="fill-rule:nonzero;"/>
                </g>
                <g transform="matrix(0.321642,0,0,0.321642,294.862,171.007)">
                    <path d="M303.876,290.527L300.753,281.943L302.388,281.943L304.205,287.246C304.275,287.429 304.437,287.966 304.691,288.857C304.706,288.794 304.779,288.538 304.908,288.086C305.037,287.635 305.121,287.359 305.16,287.257C305.206,287.124 305.503,286.243 306.05,284.612C306.597,282.981 306.896,282.091 306.947,281.943L308.564,281.943L305.482,290.527L303.876,290.527Z" style="fill:rgb(79,79,79);fill-rule:nonzero;"/>
                    <path d="M310.867,290.65C310.269,290.65 309.786,290.485 309.416,290.155C309.047,289.825 308.863,289.349 308.863,288.728C308.863,288.06 309.081,287.565 309.519,287.243C309.956,286.92 310.617,286.716 311.499,286.63C311.621,286.615 311.751,286.599 311.892,286.583C312.033,286.568 312.191,286.552 312.367,286.537C312.542,286.521 312.681,286.507 312.783,286.496L312.783,286.156C312.783,285.765 312.693,285.481 312.513,285.303C312.333,285.125 312.06,285.037 311.693,285.037C311.169,285.037 310.523,285.183 309.753,285.476C309.749,285.464 309.685,285.287 309.56,284.943C309.435,284.599 309.371,284.423 309.367,284.415C310.124,284.091 310.945,283.929 311.828,283.929C312.695,283.929 313.326,284.118 313.72,284.495C314.115,284.872 314.312,285.482 314.312,286.326L314.312,290.527L313.175,290.527C313.171,290.511 313.128,290.38 313.046,290.134C312.964,289.888 312.923,289.757 312.923,289.742C312.603,290.054 312.289,290.284 311.983,290.43C311.676,290.577 311.304,290.65 310.867,290.65ZM311.283,289.56C311.638,289.56 311.948,289.475 312.211,289.305C312.475,289.135 312.664,288.929 312.777,288.687L312.777,287.445C312.765,287.445 312.663,287.453 312.469,287.468C312.276,287.484 312.171,287.492 312.156,287.492C311.535,287.546 311.08,287.663 310.79,287.843C310.501,288.023 310.357,288.312 310.357,288.71C310.357,288.984 310.437,289.194 310.597,289.34C310.757,289.487 310.986,289.56 311.283,289.56Z" style="fill:rgb(79,79,79);fill-rule:nonzero;"/>
                    <path d="M318.115,290.615C317.673,290.615 317.307,290.563 317.016,290.459C316.725,290.356 316.496,290.191 316.328,289.964C316.16,289.738 316.042,289.468 315.976,289.156C315.91,288.843 315.876,288.455 315.876,287.99L315.876,281.714L317.412,281.615L317.412,287.96C317.412,288.538 317.48,288.93 317.617,289.135C317.753,289.34 318.019,289.443 318.414,289.443C318.609,289.443 318.857,289.421 319.158,289.378L319.199,290.474C319.195,290.474 319.147,290.484 319.055,290.503C318.963,290.523 318.875,290.539 318.791,290.553C318.707,290.567 318.601,290.58 318.472,290.594C318.343,290.608 318.224,290.615 318.115,290.615Z" style="fill:rgb(79,79,79);fill-rule:nonzero;"/>
                    <path d="M322.585,290.65C321.749,290.65 321.077,290.441 320.567,290.023C320.057,289.605 319.802,288.992 319.802,288.183L319.802,284.087L321.343,284.087L321.343,288.124C321.343,288.605 321.444,288.953 321.645,289.167C321.846,289.382 322.165,289.49 322.603,289.49C323.033,289.49 323.346,289.383 323.543,289.17C323.741,288.957 323.839,288.609 323.839,288.124L323.839,284.087L325.374,284.087L325.374,288.183C325.374,288.988 325.119,289.6 324.607,290.02C324.095,290.44 323.421,290.65 322.585,290.65Z" style="fill:rgb(79,79,79);fill-rule:nonzero;"/>
                    <path d="M329.751,290.65C328.716,290.65 327.911,290.352 327.334,289.756C326.758,289.161 326.47,288.337 326.47,287.287C326.47,286.263 326.742,285.449 327.285,284.843C327.828,284.238 328.568,283.933 329.505,283.929C330.392,283.929 331.081,284.206 331.571,284.761C332.061,285.316 332.306,286.052 332.306,286.97C332.306,287.037 332.305,287.144 332.303,287.292C332.301,287.441 332.3,287.55 332.3,287.621L328.017,287.621C328.033,288.222 328.198,288.688 328.512,289.018C328.827,289.348 329.259,289.513 329.81,289.513C330.513,289.513 331.189,289.33 331.837,288.962L332.054,290.052C331.41,290.451 330.642,290.65 329.751,290.65ZM328.046,286.654L330.859,286.654C330.859,286.13 330.74,285.728 330.501,285.447C330.263,285.165 329.933,285.025 329.511,285.025C329.117,285.025 328.784,285.162 328.512,285.435C328.241,285.708 328.085,286.115 328.046,286.654Z" style="fill:rgb(79,79,79);fill-rule:nonzero;"/>
                    <path d="M335.359,290.527L335.359,283.214L332.857,283.214L332.857,281.943L339.443,281.943L339.443,283.214L336.953,283.214L336.953,290.527L335.359,290.527Z" style="fill:rgb(79,79,79);fill-rule:nonzero;"/>
                    <path d="M340.31,290.527L340.31,284.087L341.599,284.087L341.798,285.072C342.22,284.396 342.831,284.058 343.632,284.058C343.8,284.058 343.937,284.066 344.042,284.081L344.019,285.365C343.863,285.341 343.701,285.33 343.533,285.33C342.966,285.33 342.543,285.48 342.264,285.781C341.985,286.081 341.845,286.499 341.845,287.035L341.845,290.527L340.31,290.527Z" style="fill:rgb(79,79,79);fill-rule:nonzero;"/>
                    <path d="M347.898,290.65C346.863,290.65 346.057,290.352 345.481,289.756C344.905,289.161 344.617,288.337 344.617,287.287C344.617,286.263 344.888,285.449 345.431,284.843C345.974,284.238 346.714,283.933 347.652,283.929C348.539,283.929 349.227,284.206 349.717,284.761C350.207,285.316 350.453,286.052 350.453,286.97C350.453,287.037 350.452,287.144 350.45,287.292C350.448,287.441 350.447,287.55 350.447,287.621L346.164,287.621C346.179,288.222 346.344,288.688 346.659,289.018C346.973,289.348 347.406,289.513 347.956,289.513C348.66,289.513 349.335,289.33 349.984,288.962L350.201,290.052C349.556,290.451 348.789,290.65 347.898,290.65ZM346.193,286.654L349.005,286.654C349.005,286.13 348.886,285.728 348.648,285.447C348.41,285.165 348.08,285.025 347.658,285.025C347.263,285.025 346.93,285.162 346.659,285.435C346.387,285.708 346.232,286.115 346.193,286.654Z" style="fill:rgb(79,79,79);fill-rule:nonzero;"/>
                    <path d="M354.677,290.65C353.642,290.65 352.836,290.352 352.26,289.756C351.684,289.161 351.396,288.337 351.396,287.287C351.396,286.263 351.667,285.449 352.21,284.843C352.753,284.238 353.494,283.933 354.431,283.929C355.318,283.929 356.006,284.206 356.497,284.761C356.987,285.316 357.232,286.052 357.232,286.97C357.232,287.037 357.231,287.144 357.229,287.292C357.227,287.441 357.226,287.55 357.226,287.621L352.943,287.621C352.958,288.222 353.123,288.688 353.438,289.018C353.752,289.348 354.185,289.513 354.736,289.513C355.439,289.513 356.115,289.33 356.763,288.962L356.98,290.052C356.335,290.451 355.568,290.65 354.677,290.65ZM352.972,286.654L355.785,286.654C355.785,286.13 355.665,285.728 355.427,285.447C355.189,285.165 354.859,285.025 354.437,285.025C354.042,285.025 353.709,285.162 353.438,285.435C353.166,285.708 353.011,286.115 352.972,286.654Z" style="fill:rgb(79,79,79);fill-rule:nonzero;"/>
                    <path d="M361.175,291.634L364.82,281.802L366.097,281.802L362.423,291.634L361.175,291.634Z" style="fill:rgb(79,79,79);fill-rule:nonzero;"/>
                    <path d="M369.173,292.408L369.109,291.16C369.296,291.191 369.501,291.206 369.724,291.206C370.158,291.206 370.451,291.095 370.603,290.872C370.755,290.65 370.831,290.283 370.831,289.771L370.831,281.919L372.425,281.919L372.425,289.665C372.425,290.158 372.381,290.573 372.293,290.911C372.206,291.248 372.057,291.536 371.848,291.772C371.639,292.008 371.362,292.181 371.016,292.29C370.67,292.4 370.242,292.455 369.73,292.455C369.515,292.455 369.33,292.439 369.173,292.408Z" style="fill:rgb(79,79,79);fill-rule:nonzero;"/>
                    <path d="M376.644,290.644C375.609,290.644 374.681,290.406 373.861,289.929L374.247,288.669C374.615,288.872 375.014,289.037 375.446,289.162C375.877,289.287 376.298,289.349 376.708,289.349C377.212,289.349 377.593,289.241 377.851,289.024C378.109,288.807 378.238,288.496 378.238,288.089C378.238,287.55 377.878,287.177 377.16,286.97C377.109,286.955 376.966,286.913 376.732,286.844C376.497,286.776 376.278,286.709 376.073,286.645C375.868,286.58 375.72,286.531 375.63,286.496C374.478,286.089 373.902,285.331 373.902,284.222C373.902,283.445 374.178,282.845 374.731,282.423C375.284,282.001 376.017,281.79 376.931,281.79C377.966,281.79 378.859,282.003 379.609,282.429L379.128,283.589C378.363,283.246 377.652,283.074 376.996,283.074C376.523,283.074 376.166,283.157 375.926,283.323C375.686,283.489 375.558,283.765 375.542,284.152C375.542,284.628 375.779,284.939 376.251,285.083C376.345,285.119 376.576,285.195 376.943,285.312C377.31,285.429 377.548,285.505 377.658,285.54C378.443,285.798 379.004,286.119 379.342,286.501C379.68,286.884 379.849,287.417 379.849,288.101C379.849,288.917 379.56,289.545 378.982,289.985C378.404,290.424 377.624,290.644 376.644,290.644Z" style="fill:rgb(79,79,79);fill-rule:nonzero;"/>
                    <path d="M385.046,289.355C385.878,289.355 386.506,289.084 386.93,288.543C387.354,288.002 387.566,287.238 387.566,286.249C387.566,285.249 387.354,284.474 386.93,283.923C386.506,283.372 385.88,283.097 385.052,283.097C384.22,283.097 383.59,283.373 383.163,283.926C382.735,284.479 382.521,285.253 382.521,286.249C382.521,287.234 382.734,287.997 383.16,288.54C383.585,289.083 384.214,289.355 385.046,289.355ZM385.04,290.65C383.747,290.65 382.727,290.258 381.979,289.475C381.231,288.692 380.857,287.611 380.857,286.232C380.857,284.845 381.232,283.763 381.982,282.986C382.732,282.208 383.753,281.82 385.046,281.82C386.339,281.82 387.359,282.209 388.105,282.989C388.851,283.768 389.224,284.851 389.224,286.238C389.224,287.609 388.849,288.687 388.099,289.472C387.349,290.257 386.33,290.65 385.04,290.65Z" style="fill:rgb(79,79,79);fill-rule:nonzero;"/>
                    <path d="M390.73,290.527L390.73,281.943L392.417,281.943C392.722,282.419 393.341,283.38 394.275,284.826C395.208,286.271 395.777,287.15 395.98,287.462C396.039,287.552 396.139,287.704 396.282,287.916C396.424,288.129 396.525,288.281 396.583,288.371C396.556,287.031 396.542,286.335 396.542,286.285L396.542,281.943L397.99,281.943L397.99,290.527L396.279,290.527L392.406,284.492L392.124,284.029C392.156,285.06 392.171,285.785 392.171,286.203L392.171,290.527L390.73,290.527Z" style="fill:rgb(79,79,79);fill-rule:nonzero;"/>
                </g>
            </g>
            <g transform="matrix(1,0,0,1,-0.881348,-1.47217)">
                <path d="M349.247,266.238L349.247,263.724L355.696,263.724L355.696,261.388L359.289,264.981L355.696,268.574L355.696,266.238L349.247,266.238Z" style="fill:rgb(104,104,104);"/>
            </g>
            <g transform="matrix(-1,0,0,1,765.443,-1.47217)">
                <path d="M349.247,266.238L349.247,263.724L355.696,263.724L355.696,261.388L359.289,264.981L355.696,268.574L355.696,266.238L349.247,266.238Z" style="fill:rgb(104,104,104);"/>
            </g>
            <g transform="matrix(0.321225,0,0,0.321225,304.463,189.602)">
                <path d="M338.895,274.492L338.895,265.908L340.483,265.908L340.483,273.226L344.075,273.226L344.028,274.492L338.895,274.492Z" style="fill:rgb(151,151,151);fill-rule:nonzero;"/>
                <path d="M346.723,274.615C346.125,274.615 345.642,274.45 345.273,274.12C344.904,273.79 344.719,273.314 344.719,272.693C344.719,272.025 344.938,271.53 345.375,271.208C345.813,270.885 346.473,270.681 347.356,270.595C347.477,270.58 347.608,270.564 347.748,270.548C347.889,270.533 348.047,270.517 348.223,270.501C348.399,270.486 348.537,270.472 348.639,270.46L348.639,270.121C348.639,269.73 348.549,269.446 348.369,269.268C348.19,269.09 347.916,269.001 347.549,269.001C347.026,269.001 346.379,269.148 345.61,269.441C345.606,269.429 345.541,269.251 345.416,268.908C345.291,268.564 345.227,268.388 345.223,268.38C345.981,268.056 346.801,267.894 347.684,267.894C348.551,267.894 349.182,268.083 349.577,268.459C349.971,268.836 350.168,269.447 350.168,270.291L350.168,274.492L349.032,274.492C349.028,274.476 348.985,274.345 348.903,274.099C348.821,273.853 348.78,273.722 348.78,273.707C348.459,274.019 348.146,274.249 347.839,274.395C347.533,274.542 347.16,274.615 346.723,274.615ZM347.139,273.525C347.494,273.525 347.804,273.44 348.068,273.27C348.331,273.1 348.52,272.894 348.633,272.652L348.633,271.41C348.621,271.41 348.519,271.417 348.326,271.433C348.132,271.449 348.028,271.457 348.012,271.457C347.391,271.511 346.936,271.628 346.647,271.808C346.358,271.988 346.213,272.277 346.213,272.675C346.213,272.949 346.293,273.159 346.453,273.305C346.614,273.452 346.842,273.525 347.139,273.525Z" style="fill:rgb(151,151,151);fill-rule:nonzero;"/>
                <path d="M352.055,277.205C351.805,277.205 351.539,277.189 351.258,277.158L351.182,275.968C351.362,275.988 351.59,275.998 351.868,275.998C352.223,275.998 352.508,275.927 352.723,275.787C352.938,275.646 353.116,275.396 353.256,275.037C353.272,274.998 353.35,274.777 353.491,274.375L350.901,268.052L352.541,268.052L354.235,272.722C354.36,272.257 354.64,271.394 355.076,270.132C355.511,268.871 355.75,268.177 355.793,268.052L357.434,268.052C355.649,272.771 354.748,275.15 354.733,275.189C354.455,275.912 354.106,276.428 353.684,276.739C353.262,277.049 352.719,277.205 352.055,277.205Z" style="fill:rgb(151,151,151);fill-rule:nonzero;"/>
                <path d="M361.008,273.449C361.528,273.449 361.918,273.259 362.18,272.88C362.442,272.501 362.573,271.959 362.573,271.251C362.573,270.537 362.442,269.992 362.18,269.617C361.918,269.242 361.524,269.054 360.996,269.054C360.477,269.054 360.085,269.243 359.822,269.62C359.558,269.997 359.426,270.542 359.426,271.257C359.426,271.96 359.559,272.501 359.825,272.88C360.09,273.259 360.485,273.449 361.008,273.449ZM360.967,274.615C360.014,274.615 359.264,274.306 358.717,273.689C358.17,273.072 357.897,272.259 357.897,271.251C357.897,270.212 358.17,269.393 358.717,268.793C359.264,268.194 360.035,267.894 361.032,267.894C361.993,267.894 362.745,268.2 363.29,268.811C363.835,269.422 364.108,270.236 364.108,271.251C364.108,272.279 363.832,273.096 363.282,273.704C362.731,274.311 361.959,274.615 360.967,274.615Z" style="fill:rgb(151,151,151);fill-rule:nonzero;"/>
                <path d="M367.987,274.615C367.151,274.615 366.478,274.406 365.968,273.988C365.458,273.57 365.203,272.957 365.203,272.148L365.203,268.052L366.744,268.052L366.744,272.089C366.744,272.57 366.845,272.917 367.046,273.132C367.247,273.347 367.567,273.455 368.004,273.455C368.434,273.455 368.747,273.348 368.945,273.135C369.142,272.922 369.241,272.574 369.241,272.089L369.241,268.052L370.776,268.052L370.776,272.148C370.776,272.953 370.52,273.565 370.008,273.985C369.496,274.405 368.823,274.615 367.987,274.615Z" style="fill:rgb(151,151,151);fill-rule:nonzero;"/>
                <path d="M374.748,274.58C374.311,274.58 373.947,274.528 373.656,274.424C373.365,274.321 373.137,274.158 372.973,273.935C372.809,273.712 372.693,273.45 372.624,273.147C372.556,272.844 372.522,272.47 372.522,272.025L372.522,268.984L371.467,268.984L371.526,268.152L372.627,268.052L373.119,266.306L374.057,266.3L374.057,268.052L375.657,268.052L375.657,268.984L374.057,268.984L374.057,272.054C374.057,272.542 374.127,272.89 374.268,273.097C374.409,273.304 374.668,273.408 375.047,273.408C375.27,273.408 375.508,273.388 375.762,273.349L375.803,274.451C375.795,274.451 375.747,274.459 375.66,274.477C375.572,274.495 375.488,274.51 375.408,274.524C375.327,274.538 375.225,274.55 375.1,274.562C374.975,274.574 374.858,274.58 374.748,274.58Z" style="fill:rgb(151,151,151);fill-rule:nonzero;"/>
                <path d="M376.477,276.15C376.7,275.068 376.883,274.062 377.028,273.132L378.457,273.132L378.44,273.419C378.186,274.302 377.877,275.212 377.514,276.15L376.477,276.15Z" style="fill:rgb(151,151,151);fill-rule:nonzero;"/>
                <path d="M385.084,274.609C384.135,274.609 383.375,274.447 382.805,274.123L382.963,272.968C383.221,273.109 383.549,273.235 383.948,273.346C384.346,273.458 384.709,273.513 385.037,273.513C385.377,273.513 385.642,273.45 385.831,273.323C386.021,273.196 386.118,273.009 386.121,272.763C386.121,272.541 386.033,272.365 385.855,272.236C385.677,272.107 385.338,271.947 384.838,271.755C384.666,271.693 384.555,271.652 384.504,271.632C383.91,271.402 383.483,271.145 383.221,270.862C382.959,270.579 382.828,270.195 382.828,269.71C382.828,269.125 383.04,268.675 383.464,268.363C383.888,268.05 384.479,267.894 385.237,267.894C386.057,267.894 386.778,268.048 387.399,268.357L387.018,269.417C386.405,269.132 385.821,268.99 385.266,268.99C384.957,268.99 384.716,269.042 384.542,269.145C384.369,269.249 384.282,269.406 384.282,269.617C384.282,269.816 384.366,269.971 384.534,270.083C384.702,270.194 385.03,270.339 385.518,270.519C385.534,270.523 385.584,270.541 385.67,270.572C385.756,270.603 385.823,270.628 385.869,270.648C386.459,270.863 386.893,271.12 387.17,271.418C387.448,271.717 387.586,272.107 387.586,272.587C387.582,273.232 387.364,273.73 386.93,274.082C386.496,274.433 385.881,274.609 385.084,274.609Z" style="fill:rgb(151,151,151);fill-rule:nonzero;"/>
                <path d="M388.834,274.492L388.834,268.052L390.369,268.052L390.369,274.492L388.834,274.492ZM388.834,267.115L388.834,265.802L390.375,265.802L390.375,267.115L388.834,267.115Z" style="fill:rgb(151,151,151);fill-rule:nonzero;"/>
                <path d="M391.969,274.492L391.969,268.052L393.211,268.052L393.387,268.873C393.465,268.775 393.54,268.688 393.613,268.612C393.685,268.536 393.785,268.45 393.911,268.354C394.038,268.258 394.173,268.179 394.316,268.117C394.458,268.054 394.634,268.001 394.843,267.959C395.052,267.916 395.276,267.894 395.514,267.894C396.026,267.894 396.435,267.998 396.742,268.205C397.048,268.412 397.264,268.654 397.389,268.931C397.619,268.599 397.918,268.343 398.285,268.164C398.653,267.984 399.061,267.894 399.51,267.894C400.248,267.894 400.79,268.103 401.136,268.521C401.482,268.939 401.655,269.558 401.655,270.378L401.655,274.492L400.114,274.492L400.114,270.835C400.114,270.207 400.044,269.752 399.906,269.473C399.767,269.194 399.502,269.054 399.112,269.054C398.514,269.054 398.084,269.324 397.823,269.863C397.713,270.101 397.639,270.388 397.6,270.724L397.6,274.492L396.065,274.492L396.065,270.765C396.065,270.191 395.989,269.763 395.836,269.482C395.684,269.201 395.409,269.06 395.01,269.06C394.686,269.06 394.407,269.142 394.172,269.306C393.938,269.47 393.76,269.685 393.639,269.951C393.549,270.345 393.504,270.818 393.504,271.369L393.504,274.492L391.969,274.492Z" style="fill:rgb(151,151,151);fill-rule:nonzero;"/>
                <path d="M403.166,277.169L403.166,268.052L404.485,268.052L404.649,268.955C404.86,268.615 405.14,268.352 405.49,268.167C405.839,267.981 406.229,267.888 406.659,267.888C407.186,267.888 407.65,268.035 408.05,268.328C408.451,268.621 408.754,269.02 408.961,269.526C409.168,270.032 409.272,270.603 409.272,271.24C409.272,272.236 409.031,273.047 408.548,273.674C408.066,274.301 407.412,274.615 406.588,274.615C406.182,274.615 405.814,274.534 405.484,274.372C405.154,274.209 404.877,273.99 404.655,273.712C404.686,274.275 404.702,274.591 404.702,274.662L404.702,277.093L403.166,277.169ZM406.26,273.443C406.717,273.443 407.077,273.251 407.341,272.869C407.605,272.486 407.737,271.939 407.737,271.228C407.737,270.505 407.604,269.962 407.338,269.599C407.073,269.236 406.703,269.054 406.231,269.054C405.215,269.054 404.702,269.746 404.69,271.128C404.69,271.925 404.822,272.51 405.085,272.883C405.349,273.256 405.741,273.443 406.26,273.443Z" style="fill:rgb(151,151,151);fill-rule:nonzero;"/>
                <path d="M412.782,274.58C412.34,274.58 411.974,274.528 411.683,274.424C411.392,274.321 411.162,274.156 410.994,273.929C410.827,273.703 410.709,273.433 410.643,273.121C410.577,272.808 410.543,272.419 410.543,271.955L410.543,265.679L412.078,265.58L412.078,271.925C412.078,272.503 412.147,272.895 412.284,273.1C412.42,273.305 412.686,273.408 413.08,273.408C413.276,273.408 413.524,273.386 413.825,273.343L413.866,274.439C413.862,274.439 413.814,274.449 413.722,274.468C413.63,274.488 413.542,274.504 413.458,274.518C413.374,274.532 413.268,274.545 413.139,274.559C413.01,274.573 412.891,274.58 412.782,274.58Z" style="fill:rgb(151,151,151);fill-rule:nonzero;"/>
                <path d="M417.569,274.615C416.534,274.615 415.728,274.317 415.152,273.721C414.576,273.126 414.287,272.302 414.287,271.251C414.287,270.228 414.559,269.414 415.102,268.808C415.645,268.203 416.385,267.898 417.323,267.894C418.209,267.894 418.898,268.171 419.388,268.726C419.878,269.281 420.123,270.017 420.123,270.935C420.123,271.001 420.122,271.109 420.12,271.257C420.119,271.406 420.118,271.515 420.118,271.585L415.834,271.585C415.85,272.187 416.015,272.653 416.329,272.983C416.644,273.313 417.077,273.478 417.627,273.478C418.33,273.478 419.006,273.294 419.655,272.927L419.871,274.017C419.227,274.416 418.459,274.615 417.569,274.615ZM415.864,270.619L418.676,270.619C418.676,270.095 418.557,269.693 418.319,269.412C418.08,269.13 417.75,268.99 417.328,268.99C416.934,268.99 416.601,269.126 416.329,269.4C416.058,269.673 415.903,270.08 415.864,270.619Z" style="fill:rgb(151,151,151);fill-rule:nonzero;"/>
                <path d="M428.432,274.615C427.178,274.615 426.184,274.22 425.45,273.431C424.715,272.642 424.348,271.552 424.348,270.162C424.348,268.841 424.732,267.782 425.499,266.983C426.267,266.184 427.272,265.785 428.514,265.785C429.518,265.785 430.368,266.017 431.063,266.482L430.565,267.683C429.897,267.273 429.225,267.068 428.549,267.068C427.76,267.068 427.136,267.352 426.677,267.92C426.218,268.489 425.989,269.251 425.989,270.209C425.989,271.201 426.21,271.968 426.654,272.511C427.097,273.054 427.729,273.326 428.549,273.326C429.268,273.326 429.981,273.146 430.688,272.787L430.899,274.029C430.243,274.419 429.42,274.615 428.432,274.615Z" style="fill:rgb(151,151,151);fill-rule:nonzero;"/>
                <path d="M434.971,273.449C435.491,273.449 435.881,273.259 436.143,272.88C436.405,272.501 436.535,271.959 436.535,271.251C436.535,270.537 436.405,269.992 436.143,269.617C435.881,269.242 435.487,269.054 434.959,269.054C434.44,269.054 434.048,269.243 433.785,269.62C433.521,269.997 433.389,270.542 433.389,271.257C433.389,271.96 433.522,272.501 433.787,272.88C434.053,273.259 434.448,273.449 434.971,273.449ZM434.93,274.615C433.977,274.615 433.227,274.306 432.68,273.689C432.133,273.072 431.86,272.259 431.86,271.251C431.86,270.212 432.133,269.393 432.68,268.793C433.227,268.194 433.998,267.894 434.994,267.894C435.955,267.894 436.708,268.2 437.253,268.811C437.798,269.422 438.071,270.236 438.071,271.251C438.071,272.279 437.795,273.096 437.244,273.704C436.694,274.311 435.922,274.615 434.93,274.615Z" style="fill:rgb(151,151,151);fill-rule:nonzero;"/>
                <path d="M439.325,274.492L439.325,268.052L440.561,268.052L440.731,268.867C441.387,268.218 442.116,267.894 442.916,267.894C443.666,267.894 444.228,268.11 444.601,268.542C444.974,268.973 445.16,269.599 445.16,270.419L445.16,274.492L443.619,274.492L443.619,270.607C443.616,270.087 443.532,269.699 443.368,269.441C443.203,269.183 442.909,269.054 442.483,269.054C442.151,269.054 441.847,269.139 441.572,269.309C441.296,269.479 441.096,269.693 440.971,269.951C440.897,270.255 440.86,270.724 440.86,271.357L440.86,274.492L439.325,274.492Z" style="fill:rgb(151,151,151);fill-rule:nonzero;"/>
                <path d="M446.672,274.492L446.672,268.052L447.909,268.052L448.078,268.867C448.735,268.218 449.463,267.894 450.264,267.894C451.014,267.894 451.576,268.11 451.949,268.542C452.322,268.973 452.508,269.599 452.508,270.419L452.508,274.492L450.967,274.492L450.967,270.607C450.963,270.087 450.879,269.699 450.715,269.441C450.551,269.183 450.256,269.054 449.83,269.054C449.498,269.054 449.195,269.139 448.919,269.309C448.644,269.479 448.444,269.693 448.319,269.951C448.244,270.255 448.207,270.724 448.207,271.357L448.207,274.492L446.672,274.492Z" style="fill:rgb(151,151,151);fill-rule:nonzero;"/>
                <path d="M456.996,274.615C455.961,274.615 455.156,274.317 454.579,273.721C454.003,273.126 453.715,272.302 453.715,271.251C453.715,270.228 453.987,269.414 454.53,268.808C455.073,268.203 455.813,267.898 456.75,267.894C457.637,267.894 458.326,268.171 458.816,268.726C459.306,269.281 459.551,270.017 459.551,270.935C459.551,271.001 459.55,271.109 459.548,271.257C459.546,271.406 459.545,271.515 459.545,271.585L455.262,271.585C455.278,272.187 455.443,272.653 455.757,272.983C456.072,273.313 456.504,273.478 457.055,273.478C457.758,273.478 458.434,273.294 459.082,272.927L459.299,274.017C458.655,274.416 457.887,274.615 456.996,274.615ZM455.291,270.619L458.104,270.619C458.104,270.095 457.985,269.693 457.746,269.412C457.508,269.13 457.178,268.99 456.756,268.99C456.362,268.99 456.029,269.126 455.757,269.4C455.486,269.673 455.33,270.08 455.291,270.619Z" style="fill:rgb(151,151,151);fill-rule:nonzero;"/>
                <path d="M463.618,274.615C462.633,274.615 461.867,274.322 461.318,273.736C460.769,273.15 460.494,272.312 460.494,271.222C460.494,270.167 460.783,269.349 461.359,268.767C461.935,268.185 462.694,267.894 463.635,267.894C464.389,267.894 465.026,268.056 465.545,268.38L465.182,269.476C464.651,269.199 464.157,269.06 463.7,269.06C463.18,269.06 462.771,269.246 462.472,269.617C462.173,269.988 462.024,270.529 462.024,271.24C462.024,271.959 462.171,272.505 462.466,272.88C462.761,273.255 463.178,273.443 463.717,273.443C464.28,273.443 464.821,273.277 465.34,272.945L465.487,274.111C465.217,274.291 464.938,274.419 464.649,274.498C464.36,274.576 464.016,274.615 463.618,274.615Z" style="fill:rgb(151,151,151);fill-rule:nonzero;"/>
                <path d="M469.278,274.58C468.84,274.58 468.476,274.528 468.185,274.424C467.894,274.321 467.666,274.158 467.502,273.935C467.338,273.712 467.222,273.45 467.154,273.147C467.085,272.844 467.051,272.47 467.051,272.025L467.051,268.984L465.996,268.984L466.055,268.152L467.157,268.052L467.649,266.306L468.586,266.3L468.586,268.052L470.186,268.052L470.186,268.984L468.586,268.984L468.586,272.054C468.586,272.542 468.657,272.89 468.797,273.097C468.938,273.304 469.198,273.408 469.577,273.408C469.799,273.408 470.037,273.388 470.291,273.349L470.332,274.451C470.325,274.451 470.277,274.459 470.189,274.477C470.101,274.495 470.017,274.51 469.937,274.524C469.857,274.538 469.754,274.55 469.629,274.562C469.504,274.574 469.387,274.58 469.278,274.58Z" style="fill:rgb(151,151,151);fill-rule:nonzero;"/>
                <path d="M471.446,274.492L471.446,268.052L472.981,268.052L472.981,274.492L471.446,274.492ZM471.446,267.115L471.446,265.802L472.987,265.802L472.987,267.115L471.446,267.115Z" style="fill:rgb(151,151,151);fill-rule:nonzero;"/>
                <path d="M477.387,273.449C477.907,273.449 478.297,273.259 478.559,272.88C478.821,272.501 478.952,271.959 478.952,271.251C478.952,270.537 478.821,269.992 478.559,269.617C478.297,269.242 477.903,269.054 477.375,269.054C476.856,269.054 476.464,269.243 476.201,269.62C475.937,269.997 475.805,270.542 475.805,271.257C475.805,271.96 475.938,272.501 476.203,272.88C476.469,273.259 476.864,273.449 477.387,273.449ZM477.346,274.615C476.393,274.615 475.643,274.306 475.096,273.689C474.549,273.072 474.276,272.259 474.276,271.251C474.276,270.212 474.549,269.393 475.096,268.793C475.643,268.194 476.414,267.894 477.41,267.894C478.371,267.894 479.124,268.2 479.669,268.811C480.214,269.422 480.487,270.236 480.487,271.251C480.487,272.279 480.211,273.096 479.66,273.704C479.11,274.311 478.338,274.615 477.346,274.615Z" style="fill:rgb(151,151,151);fill-rule:nonzero;"/>
                <path d="M481.741,274.492L481.741,268.052L482.977,268.052L483.147,268.867C483.803,268.218 484.532,267.894 485.332,267.894C486.082,267.894 486.644,268.11 487.017,268.542C487.39,268.973 487.577,269.599 487.577,270.419L487.577,274.492L486.035,274.492L486.035,270.607C486.032,270.087 485.948,269.699 485.784,269.441C485.619,269.183 485.325,269.054 484.899,269.054C484.567,269.054 484.263,269.139 483.988,269.309C483.712,269.479 483.512,269.693 483.387,269.951C483.313,270.255 483.276,270.724 483.276,271.357L483.276,274.492L481.741,274.492Z" style="fill:rgb(151,151,151);fill-rule:nonzero;"/>
            </g>
            <g transform="matrix(0.376572,0,0,0.376572,211.744,174.363)">
                <path d="M248.38,276.732C247.255,276.732 246.401,276.452 245.819,275.891C245.237,275.331 244.946,274.541 244.946,273.521L244.946,268.025L246.54,268.025L246.54,273.387C246.54,274.101 246.685,274.623 246.976,274.951C247.267,275.279 247.745,275.443 248.409,275.443C249.061,275.443 249.534,275.278 249.827,274.948C250.12,274.618 250.266,274.096 250.266,273.381L250.266,268.025L251.854,268.025L251.854,273.533C251.854,274.545 251.557,275.331 250.964,275.891C250.37,276.452 249.508,276.732 248.38,276.732Z" style="fill:rgb(151,151,151);fill-rule:nonzero;"/>
                <rect x="253.671" y="268.025" width="1.588" height="8.584" style="fill:rgb(151,151,151);fill-rule:nonzero;"/>
                <path d="M260.327,276.609L260.327,268.025L261.915,268.025L261.915,275.344L265.506,275.344L265.46,276.609L260.327,276.609Z" style="fill:rgb(151,151,151);fill-rule:nonzero;"/>
                <path d="M269.262,275.566C269.782,275.566 270.172,275.377 270.434,274.998C270.696,274.619 270.827,274.076 270.827,273.369C270.827,272.654 270.696,272.109 270.434,271.734C270.172,271.359 269.778,271.172 269.251,271.172C268.731,271.172 268.339,271.36 268.076,271.737C267.812,272.114 267.68,272.66 267.68,273.375C267.68,274.078 267.813,274.619 268.079,274.998C268.344,275.377 268.739,275.566 269.262,275.566ZM269.221,276.732C268.268,276.732 267.518,276.424 266.971,275.807C266.424,275.189 266.151,274.377 266.151,273.369C266.151,272.33 266.424,271.511 266.971,270.911C267.518,270.311 268.29,270.012 269.286,270.012C270.247,270.012 271,270.317 271.545,270.929C272.089,271.54 272.362,272.353 272.362,273.369C272.362,274.396 272.087,275.214 271.536,275.821C270.985,276.429 270.214,276.732 269.221,276.732Z" style="fill:rgb(151,151,151);fill-rule:nonzero;"/>
                <path d="M274.905,279.492L274.817,278.25L275.596,278.25C276.499,278.25 277.13,278.13 277.489,277.89C277.848,277.649 278.028,277.209 278.028,276.568C278.028,276.307 278.016,276.023 277.993,275.719C277.891,275.859 277.795,275.975 277.703,276.067C277.611,276.159 277.496,276.25 277.357,276.34C277.218,276.43 277.052,276.497 276.859,276.542C276.666,276.587 276.446,276.609 276.2,276.609C275.348,276.609 274.648,276.303 274.099,275.689C273.55,275.076 273.276,274.285 273.276,273.316C273.276,272.801 273.352,272.331 273.505,271.907C273.657,271.483 273.864,271.135 274.126,270.861C274.387,270.588 274.689,270.378 275.031,270.231C275.373,270.085 275.737,270.012 276.124,270.012C276.987,270.012 277.63,270.326 278.051,270.955L278.157,270.17L279.528,270.17L279.528,276.152C279.528,276.473 279.512,276.761 279.481,277.016C279.45,277.272 279.395,277.518 279.317,277.755C279.239,277.991 279.136,278.197 279.009,278.373C278.882,278.549 278.723,278.709 278.532,278.853C278.34,278.998 278.115,279.116 277.855,279.208C277.595,279.3 277.294,279.37 276.95,279.419C276.606,279.468 276.219,279.492 275.79,279.492L274.905,279.492ZM276.446,275.537C277.505,275.537 278.04,274.828 278.051,273.41L278.051,273.187C278.044,272.551 277.911,272.058 277.653,271.711C277.395,271.363 277.018,271.187 276.522,271.183C275.96,271.183 275.534,271.376 275.245,271.761C274.956,272.145 274.811,272.664 274.811,273.316C274.811,273.945 274.957,274.473 275.248,274.898C275.539,275.324 275.938,275.537 276.446,275.537Z" style="fill:rgb(151,151,151);fill-rule:nonzero;"/>
                <path d="M281.075,276.609L281.075,270.17L282.61,270.17L282.61,276.609L281.075,276.609ZM281.075,269.232L281.075,267.92L282.616,267.92L282.616,269.232L281.075,269.232Z" style="fill:rgb(151,151,151);fill-rule:nonzero;"/>
                <path d="M287.028,276.732C286.044,276.732 285.277,276.439 284.728,275.853C284.179,275.267 283.905,274.43 283.905,273.34C283.905,272.285 284.193,271.467 284.769,270.885C285.345,270.303 286.104,270.012 287.046,270.012C287.799,270.012 288.436,270.174 288.956,270.498L288.592,271.594C288.061,271.316 287.567,271.178 287.11,271.178C286.59,271.178 286.181,271.363 285.882,271.734C285.584,272.105 285.434,272.646 285.434,273.357C285.434,274.076 285.582,274.623 285.877,274.998C286.172,275.373 286.589,275.56 287.128,275.56C287.69,275.56 288.231,275.394 288.751,275.062L288.897,276.228C288.628,276.408 288.348,276.537 288.059,276.615C287.77,276.693 287.426,276.732 287.028,276.732Z" style="fill:rgb(151,151,151);fill-rule:nonzero;"/>
                <path d="M289.712,278.267C289.934,277.185 290.118,276.18 290.262,275.25L291.692,275.25L291.674,275.537C291.421,276.42 291.112,277.33 290.749,278.267L289.712,278.267Z" style="fill:rgb(151,151,151);fill-rule:nonzero;"/>
                <path d="M299.081,276.732C298.096,276.732 297.33,276.439 296.781,275.853C296.232,275.267 295.958,274.43 295.958,273.34C295.958,272.285 296.246,271.467 296.822,270.885C297.398,270.303 298.157,270.012 299.098,270.012C299.852,270.012 300.489,270.174 301.008,270.498L300.645,271.594C300.114,271.316 299.62,271.178 299.163,271.178C298.643,271.178 298.234,271.363 297.935,271.734C297.636,272.105 297.487,272.646 297.487,273.357C297.487,274.076 297.634,274.623 297.929,274.998C298.224,275.373 298.641,275.56 299.18,275.56C299.743,275.56 300.284,275.394 300.803,275.062L300.95,276.228C300.68,276.408 300.401,276.537 300.112,276.615C299.823,276.693 299.479,276.732 299.081,276.732Z" style="fill:rgb(151,151,151);fill-rule:nonzero;"/>
                <path d="M304.794,276.732C303.958,276.732 303.285,276.523 302.775,276.105C302.265,275.687 302.01,275.074 302.01,274.265L302.01,270.17L303.551,270.17L303.551,274.207C303.551,274.687 303.652,275.035 303.853,275.25C304.054,275.465 304.374,275.572 304.811,275.572C305.241,275.572 305.554,275.466 305.752,275.253C305.949,275.04 306.047,274.691 306.047,274.207L306.047,270.17L307.583,270.17L307.583,274.265C307.583,275.07 307.327,275.682 306.815,276.102C306.303,276.522 305.63,276.732 304.794,276.732Z" style="fill:rgb(151,151,151);fill-rule:nonzero;"/>
                <path d="M311.04,276.726C310.09,276.726 309.331,276.564 308.76,276.24L308.919,275.086C309.176,275.226 309.505,275.352 309.903,275.464C310.301,275.575 310.665,275.631 310.993,275.631C311.333,275.631 311.597,275.567 311.787,275.44C311.976,275.313 312.073,275.127 312.077,274.881C312.077,274.658 311.988,274.482 311.81,274.353C311.632,274.224 311.294,274.064 310.794,273.873C310.622,273.81 310.51,273.769 310.46,273.75C309.866,273.519 309.438,273.263 309.176,272.979C308.915,272.696 308.784,272.312 308.784,271.828C308.784,271.242 308.996,270.793 309.42,270.48C309.843,270.168 310.434,270.012 311.192,270.012C312.012,270.012 312.733,270.166 313.354,270.474L312.973,271.535C312.36,271.25 311.776,271.107 311.221,271.107C310.913,271.107 310.672,271.159 310.498,271.263C310.324,271.366 310.237,271.523 310.237,271.734C310.237,271.933 310.321,272.089 310.489,272.2C310.657,272.311 310.985,272.457 311.473,272.637C311.489,272.64 311.54,272.658 311.626,272.689C311.712,272.721 311.778,272.746 311.825,272.765C312.415,272.98 312.848,273.237 313.126,273.536C313.403,273.835 313.542,274.224 313.542,274.705C313.538,275.349 313.319,275.848 312.885,276.199C312.452,276.551 311.837,276.726 311.04,276.726Z" style="fill:rgb(151,151,151);fill-rule:nonzero;"/>
                <path d="M317.327,276.697C316.889,276.697 316.525,276.645 316.234,276.542C315.943,276.438 315.715,276.275 315.551,276.053C315.387,275.83 315.271,275.567 315.203,275.265C315.134,274.962 315.1,274.588 315.1,274.142L315.1,271.101L314.046,271.101L314.104,270.269L315.206,270.17L315.698,268.424L316.635,268.418L316.635,270.17L318.235,270.17L318.235,271.101L316.635,271.101L316.635,274.172C316.635,274.66 316.706,275.008 316.846,275.215C316.987,275.422 317.247,275.525 317.626,275.525C317.848,275.525 318.087,275.506 318.34,275.467L318.381,276.568C318.374,276.568 318.326,276.577 318.238,276.595C318.15,276.612 318.066,276.628 317.986,276.641C317.906,276.655 317.803,276.668 317.678,276.68C317.553,276.691 317.436,276.697 317.327,276.697Z" style="fill:rgb(151,151,151);fill-rule:nonzero;"/>
                <path d="M322.214,275.566C322.733,275.566 323.124,275.377 323.385,274.998C323.647,274.619 323.778,274.076 323.778,273.369C323.778,272.654 323.647,272.109 323.385,271.734C323.124,271.359 322.729,271.172 322.202,271.172C321.682,271.172 321.291,271.36 321.027,271.737C320.763,272.114 320.631,272.66 320.631,273.375C320.631,274.078 320.764,274.619 321.03,274.998C321.296,275.377 321.69,275.566 322.214,275.566ZM322.172,276.732C321.219,276.732 320.469,276.424 319.922,275.807C319.376,275.189 319.102,274.377 319.102,273.369C319.102,272.33 319.376,271.511 319.922,270.911C320.469,270.311 321.241,270.012 322.237,270.012C323.198,270.012 323.951,270.317 324.496,270.929C325.041,271.54 325.313,272.353 325.313,273.369C325.313,274.396 325.038,275.214 324.487,275.821C323.936,276.429 323.165,276.732 322.172,276.732Z" style="fill:rgb(151,151,151);fill-rule:nonzero;"/>
                <path d="M326.567,276.609L326.567,270.17L327.809,270.17L327.985,270.99C328.063,270.892 328.138,270.806 328.211,270.729C328.283,270.653 328.382,270.567 328.509,270.472C328.636,270.376 328.771,270.297 328.914,270.234C329.056,270.172 329.232,270.119 329.441,270.076C329.65,270.033 329.874,270.012 330.112,270.012C330.624,270.012 331.033,270.115 331.339,270.322C331.646,270.529 331.862,270.771 331.987,271.049C332.217,270.717 332.516,270.461 332.883,270.281C333.251,270.101 333.659,270.012 334.108,270.012C334.846,270.012 335.388,270.221 335.734,270.639C336.08,271.057 336.253,271.676 336.253,272.496L336.253,276.609L334.712,276.609L334.712,272.953C334.712,272.324 334.642,271.87 334.504,271.591C334.365,271.311 334.1,271.172 333.71,271.172C333.112,271.172 332.682,271.441 332.421,271.98C332.311,272.219 332.237,272.506 332.198,272.842L332.198,276.609L330.663,276.609L330.663,272.883C330.663,272.308 330.587,271.881 330.434,271.599C330.282,271.318 330.006,271.178 329.608,271.178C329.284,271.178 329.005,271.26 328.77,271.424C328.536,271.588 328.358,271.803 328.237,272.068C328.147,272.463 328.102,272.935 328.102,273.486L328.102,276.609L326.567,276.609Z" style="fill:rgb(151,151,151);fill-rule:nonzero;"/>
                <path d="M337.799,276.609L337.799,270.17L339.335,270.17L339.335,276.609L337.799,276.609ZM337.799,269.232L337.799,267.92L339.34,267.92L339.34,269.232L337.799,269.232Z" style="fill:rgb(151,151,151);fill-rule:nonzero;"/>
                <path d="M340.536,276.609L340.536,275.678L343.723,271.236L340.688,271.236L340.688,270.17L345.422,270.17L345.422,271.219L342.405,275.49L345.528,275.49L345.528,276.609L340.536,276.609Z" style="fill:rgb(151,151,151);fill-rule:nonzero;"/>
                <path d="M348.358,276.732C347.76,276.732 347.277,276.567 346.908,276.237C346.539,275.907 346.354,275.432 346.354,274.81C346.354,274.142 346.573,273.647 347.01,273.325C347.448,273.003 348.108,272.799 348.991,272.713C349.112,272.697 349.243,272.682 349.383,272.666C349.524,272.65 349.682,272.635 349.858,272.619C350.034,272.603 350.172,272.59 350.274,272.578L350.274,272.238C350.274,271.848 350.184,271.563 350.005,271.386C349.825,271.208 349.551,271.119 349.184,271.119C348.661,271.119 348.014,271.265 347.245,271.558C347.241,271.547 347.176,271.369 347.051,271.025C346.926,270.682 346.862,270.506 346.858,270.498C347.616,270.174 348.436,270.012 349.319,270.012C350.186,270.012 350.817,270.2 351.212,270.577C351.606,270.954 351.803,271.564 351.803,272.408L351.803,276.609L350.667,276.609C350.663,276.594 350.62,276.463 350.538,276.217C350.456,275.971 350.415,275.84 350.415,275.824C350.094,276.137 349.781,276.366 349.474,276.513C349.168,276.659 348.796,276.732 348.358,276.732ZM348.774,275.642C349.13,275.642 349.439,275.557 349.703,275.388C349.966,275.218 350.155,275.012 350.268,274.769L350.268,273.527C350.256,273.527 350.154,273.535 349.961,273.551C349.767,273.566 349.663,273.574 349.647,273.574C349.026,273.629 348.571,273.746 348.282,273.926C347.993,274.105 347.848,274.394 347.848,274.793C347.848,275.066 347.928,275.276 348.089,275.423C348.249,275.569 348.477,275.642 348.774,275.642Z" style="fill:rgb(151,151,151);fill-rule:nonzero;"/>
                <path d="M355.922,276.697C355.485,276.697 355.121,276.645 354.83,276.542C354.539,276.438 354.311,276.275 354.147,276.053C353.983,275.83 353.867,275.567 353.798,275.265C353.73,274.962 353.696,274.588 353.696,274.142L353.696,271.101L352.641,271.101L352.7,270.269L353.801,270.17L354.294,268.424L355.231,268.418L355.231,270.17L356.831,270.17L356.831,271.101L355.231,271.101L355.231,274.172C355.231,274.66 355.301,275.008 355.442,275.215C355.583,275.422 355.842,275.525 356.221,275.525C356.444,275.525 356.682,275.506 356.936,275.467L356.977,276.568C356.969,276.568 356.922,276.577 356.834,276.595C356.746,276.612 356.662,276.628 356.582,276.641C356.502,276.655 356.399,276.668 356.274,276.68C356.149,276.691 356.032,276.697 355.922,276.697Z" style="fill:rgb(151,151,151);fill-rule:nonzero;"/>
                <path d="M358.09,276.609L358.09,270.17L359.626,270.17L359.626,276.609L358.09,276.609ZM358.09,269.232L358.09,267.92L359.631,267.92L359.631,269.232L358.09,269.232Z" style="fill:rgb(151,151,151);fill-rule:nonzero;"/>
                <path d="M364.032,275.566C364.551,275.566 364.942,275.377 365.204,274.998C365.465,274.619 365.596,274.076 365.596,273.369C365.596,272.654 365.465,272.109 365.204,271.734C364.942,271.359 364.547,271.172 364.02,271.172C363.501,271.172 363.109,271.36 362.845,271.737C362.582,272.114 362.45,272.66 362.45,273.375C362.45,274.078 362.583,274.619 362.848,274.998C363.114,275.377 363.508,275.566 364.032,275.566ZM363.991,276.732C363.038,276.732 362.288,276.424 361.741,275.807C361.194,275.189 360.921,274.377 360.921,273.369C360.921,272.33 361.194,271.511 361.741,270.911C362.288,270.311 363.059,270.012 364.055,270.012C365.016,270.012 365.769,270.317 366.314,270.929C366.859,271.54 367.131,272.353 367.131,273.369C367.131,274.396 366.856,275.214 366.305,275.821C365.755,276.429 364.983,276.732 363.991,276.732Z" style="fill:rgb(151,151,151);fill-rule:nonzero;"/>
                <path d="M368.385,276.609L368.385,270.17L369.622,270.17L369.792,270.984C370.448,270.336 371.176,270.012 371.977,270.012C372.727,270.012 373.289,270.227 373.662,270.659C374.035,271.091 374.221,271.717 374.221,272.537L374.221,276.609L372.68,276.609L372.68,272.724C372.676,272.205 372.592,271.816 372.428,271.558C372.264,271.301 371.969,271.172 371.544,271.172C371.212,271.172 370.908,271.257 370.632,271.427C370.357,271.597 370.157,271.81 370.032,272.068C369.958,272.373 369.921,272.842 369.921,273.474L369.921,276.609L368.385,276.609Z" style="fill:rgb(151,151,151);fill-rule:nonzero;"/>
            </g>
        </g>
    </g>
</svg>
